<?plantuml 1.2026.1?><svg xmlns="http://www.w3.org/2000/svg" xmlns:xlink="http://www.w3.org/1999/xlink" contentStyleType="text/css" data-diagram-type="DESCRIPTION" height="1438px" preserveAspectRatio="none" style="width:710px;height:1438px;background:#FFFFFF;" version="1.1" viewBox="0 0 710 1438" width="710px" zoomAndPan="magnify"><defs/><g><!--cluster Egolia E-Learning System--><g class="cluster" data-qualified-name="Egolia E-Learning System" data-source-line="14" id="ent0010"><rect fill="none" height="1425" rx="2.5" ry="2.5" style="stroke:#181818;stroke-width:1;" width="257.4" x="446.8" y="7"/><text fill="#000000" font-family="sans-serif" font-size="14" font-weight="bold" lengthAdjust="spacing" textLength="201.209" x="474.8955" y="21.9951">Egolia E-Learning System</text></g><!--cluster User Service (Authentik)--><g class="cluster" data-qualified-name="Egolia E-Learning System.User Service .Authentik." data-source-line="16" id="ent0011"><rect fill="none" height="211" rx="2.5" ry="2.5" style="stroke:#181818;stroke-width:1;" width="209.4" x="470.8" y="1197"/><text fill="#000000" font-family="sans-serif" font-size="14" font-weight="bold" lengthAdjust="spacing" textLength="194.5713" x="478.2144" y="1211.9951">User Service (Authentik)</text></g><!--cluster Course Service--><g class="cluster" data-qualified-name="Egolia E-Learning System.Course Service" data-source-line="22" id="ent0015"><rect fill="none" height="771" rx="2.5" ry="2.5" style="stroke:#181818;stroke-width:1;" width="199.11" x="475.45" y="50"/><text fill="#000000" font-family="sans-serif" font-size="14" font-weight="bold" lengthAdjust="spacing" textLength="117.667" x="516.1715" y="64.9951">Course Service</text></g><!--cluster Billing Service--><g class="cluster" data-qualified-name="Egolia E-Learning System.Billing Service" data-source-line="36" id="ent0027"><rect fill="none" height="152" rx="2.5" ry="2.5" style="stroke:#181818;stroke-width:1;" width="182.49" x="483.76" y="845"/><text fill="#000000" font-family="sans-serif" font-size="14" font-weight="bold" lengthAdjust="spacing" textLength="112.9297" x="518.5402" y="859.9951">Billing Service</text></g><!--cluster Blog Service--><g class="cluster" data-qualified-name="Egolia E-Learning System.Blog Service" data-source-line="41" id="ent0030"><rect fill="none" height="152" rx="2.5" ry="2.5" style="stroke:#181818;stroke-width:1;" width="189.58" x="480.21" y="1021"/><text fill="#000000" font-family="sans-serif" font-size="14" font-weight="bold" lengthAdjust="spacing" textLength="98.1846" x="525.9077" y="1035.9951">Blog Service</text></g><!--entity UC_LOGIN--><g class="entity" data-qualified-name="Egolia E-Learning System.User Service .Authentik..UC_LOGIN" data-source-line="17" id="ent0012"><ellipse cx="575.0004" cy="1313.0036" fill="#F1F1F1" rx="29.8804" ry="14.5236" style="stroke:#181818;stroke-width:0.5;"/><text fill="#000000" font-family="sans-serif" font-size="14" lengthAdjust="spacing" textLength="38.0146" x="555.9931" y="1317.6521">Login</text></g><!--entity UC_REG--><g class="entity" data-qualified-name="Egolia E-Learning System.User Service .Authentik..UC_REG" data-source-line="18" id="ent0013"><ellipse cx="575.0028" cy="1377.0036" fill="#F1F1F1" rx="44.2028" ry="14.5236" style="stroke:#181818;stroke-width:0.5;"/><text fill="#000000" font-family="sans-serif" font-size="14" lengthAdjust="spacing" textLength="58.2695" x="545.868" y="1381.6521">Register</text></g><!--entity UC_PROFILE--><g class="entity" data-qualified-name="Egolia E-Learning System.User Service .Authentik..UC_PROFILE" data-source-line="19" id="ent0014"><ellipse cx="575.0023" cy="1248.0005" fill="#F1F1F1" rx="67.2023" ry="15.8405" style="stroke:#181818;stroke-width:0.5;"/><text fill="#000000" font-family="sans-serif" font-size="14" lengthAdjust="spacing" textLength="99.2373" x="525.3837" y="1252.6489">Update Profile</text></g><!--entity UC_BROWSE--><g class="entity" data-qualified-name="Egolia E-Learning System.Course Service.UC_BROWSE" data-source-line="23" id="ent0016"><ellipse cx="575.0039" cy="719.0028" fill="#F1F1F1" rx="72.2139" ry="16.8428" style="stroke:#181818;stroke-width:0.5;"/><text fill="#000000" font-family="sans-serif" font-size="14" lengthAdjust="spacing" textLength="111.9043" x="519.0518" y="723.6512">Browse Courses</text></g><!--entity UC_CREATE--><g class="entity" data-qualified-name="Egolia E-Learning System.Course Service.UC_CREATE" data-source-line="24" id="ent0017"><ellipse cx="574.9969" cy="101.0014" fill="#F1F1F1" rx="67.5569" ry="15.9114" style="stroke:#181818;stroke-width:0.5;"/><text fill="#000000" font-family="sans-serif" font-size="14" lengthAdjust="spacing" textLength="100.1533" x="524.9203" y="105.6498">Create Course</text></g><!--entity UC_SECTION--><g class="entity" data-qualified-name="Egolia E-Learning System.Course Service.UC_SECTION" data-source-line="25" id="ent0018"><ellipse cx="575.0046" cy="169.0029" fill="#F1F1F1" rx="75.2646" ry="17.4529" style="stroke:#181818;stroke-width:0.5;"/><text fill="#000000" font-family="sans-serif" font-size="14" lengthAdjust="spacing" textLength="119.3691" x="515.32" y="173.6514">Manage Sections</text></g><!--entity UC_LESSON--><g class="entity" data-qualified-name="Egolia E-Learning System.Course Service.UC_LESSON" data-source-line="26" id="ent0019"><ellipse cx="574.9954" cy="238.9991" fill="#F1F1F1" rx="73.7954" ry="17.1591" style="stroke:#181818;stroke-width:0.5;"/><text fill="#000000" font-family="sans-serif" font-size="14" lengthAdjust="spacing" textLength="115.7939" x="517.0984" y="243.6475">Manage Lessons</text></g><!--entity UC_ENROLL--><g class="entity" data-qualified-name="Egolia E-Learning System.Course Service.UC_ENROLL" data-source-line="27" id="ent0020"><ellipse cx="574.9989" cy="439.9958" fill="#F1F1F1" rx="64.8789" ry="15.3758" style="stroke:#181818;stroke-width:0.5;"/><text fill="#000000" font-family="sans-serif" font-size="14" lengthAdjust="spacing" textLength="93.1465" x="528.4256" y="444.6442">Enroll Course</text></g><!--entity UC_LEARN--><g class="entity" data-qualified-name="Egolia E-Learning System.Course Service.UC_LEARN" data-source-line="28" id="ent0021"><ellipse cx="575.0043" cy="507.9989" fill="#F1F1F1" rx="75.5443" ry="17.5089" style="stroke:#181818;stroke-width:0.5;"/><text fill="#000000" font-family="sans-serif" font-size="14" lengthAdjust="spacing" textLength="120.0459" x="514.9814" y="512.6473">Learn &amp; Progress</text></g><!--entity UC_INTERACT--><g class="entity" data-qualified-name="Egolia E-Learning System.Course Service.UC_INTERACT" data-source-line="29" id="ent0022"><ellipse cx="574.9966" cy="580.0013" fill="#F1F1F1" rx="83.5566" ry="19.1113" style="stroke:#181818;stroke-width:0.5;"/><text fill="#000000" font-family="sans-serif" font-size="14" lengthAdjust="spacing" textLength="138.9883" x="505.5024" y="584.6498">Review &amp; Comment</text></g><!--entity UC_CERT--><g class="entity" data-qualified-name="Egolia E-Learning System.Course Service.UC_CERT" data-source-line="30" id="ent0023"><ellipse cx="575.0021" cy="651.0024" fill="#F1F1F1" rx="71.2121" ry="16.6424" style="stroke:#181818;stroke-width:0.5;"/><text fill="#000000" font-family="sans-serif" font-size="14" lengthAdjust="spacing" textLength="109.416" x="520.2941" y="655.6509">Get Certificates</text></g><!--entity UC_APPROVE--><g class="entity" data-qualified-name="Egolia E-Learning System.Course Service.UC_APPROVE" data-source-line="31" id="ent0024"><ellipse cx="575.0039" cy="307.9968" fill="#F1F1F1" rx="73.7339" ry="17.1468" style="stroke:#181818;stroke-width:0.5;"/><text fill="#000000" font-family="sans-serif" font-size="14" lengthAdjust="spacing" textLength="115.6436" x="517.1821" y="312.6452">Approve/Decline</text></g><!--entity UC_HIDE--><g class="entity" data-qualified-name="Egolia E-Learning System.Course Service.UC_HIDE" data-source-line="32" id="ent0025"><ellipse cx="575.0022" cy="374.9984" fill="#F1F1F1" rx="62.2422" ry="14.8484" style="stroke:#181818;stroke-width:0.5;"/><text fill="#000000" font-family="sans-serif" font-size="14" lengthAdjust="spacing" textLength="86.0166" x="531.9939" y="379.6469">Hide/Unhide</text></g><!--entity UC_REMIND--><g class="entity" data-qualified-name="Egolia E-Learning System.Course Service.UC_REMIND" data-source-line="33" id="ent0026"><ellipse cx="575.0015" cy="788.0043" fill="#F1F1F1" rx="73.4715" ry="17.0943" style="stroke:#181818;stroke-width:0.5;"/><text fill="#000000" font-family="sans-serif" font-size="14" lengthAdjust="spacing" textLength="115.001" x="517.501" y="792.6527">Send Reminders</text></g><!--entity UC_PAY--><g class="entity" data-qualified-name="Egolia E-Learning System.Billing Service.UC_PAY" data-source-line="37" id="ent0028"><ellipse cx="575.0048" cy="963.999" fill="#F1F1F1" rx="75.2448" ry="17.449" style="stroke:#181818;stroke-width:0.5;"/><text fill="#000000" font-family="sans-serif" font-size="14" lengthAdjust="spacing" textLength="119.3213" x="515.3442" y="968.6474">Checkout Course</text></g><!--entity UC_ANALYTICS--><g class="entity" data-qualified-name="Egolia E-Learning System.Billing Service.UC_ANALYTICS" data-source-line="38" id="ent0029"><ellipse cx="575.002" cy="896.0004" fill="#F1F1F1" rx="68.102" ry="16.0204" style="stroke:#181818;stroke-width:0.5;"/><text fill="#000000" font-family="sans-serif" font-size="14" lengthAdjust="spacing" textLength="101.5547" x="524.2246" y="900.6488">View Analytics</text></g><!--entity UC_POST--><g class="entity" data-qualified-name="Egolia E-Learning System.Blog Service.UC_POST" data-source-line="42" id="ent0031"><ellipse cx="575.0033" cy="1071.0036" fill="#F1F1F1" rx="60.3233" ry="14.5236" style="stroke:#181818;stroke-width:0.5;"/><text fill="#000000" font-family="sans-serif" font-size="14" lengthAdjust="spacing" textLength="81.0674" x="534.4696" y="1075.6521">Create Post</text></g><!--entity UC_COMMENT--><g class="entity" data-qualified-name="Egolia E-Learning System.Blog Service.UC_COMMENT" data-source-line="43" id="ent0032"><ellipse cx="574.9983" cy="1138.9977" fill="#F1F1F1" rx="78.7883" ry="18.1577" style="stroke:#181818;stroke-width:0.5;"/><text fill="#000000" font-family="sans-serif" font-size="14" lengthAdjust="spacing" textLength="127.8115" x="511.0926" y="1143.6461">Comment &amp; Reply</text></g><!--entity G--><g class="entity" data-qualified-name="G" data-source-line="4" id="ent0002"><ellipse cx="26.5591" cy="1001.35" fill="#F1F1F1" rx="8" ry="8" style="stroke:#181818;stroke-width:0.5;"/><path d="M26.5591,1009.35 L26.5591,1036.35 M13.5591,1017.35 L39.5591,1017.35 M26.5591,1036.35 L13.5591,1051.35 M26.5591,1036.35 L39.5591,1051.35" fill="none" style="stroke:#181818;stroke-width:0.5;"/><text fill="#000000" font-family="sans-serif" font-size="14" lengthAdjust="spacing" textLength="41.1182" x="6" y="1065.8451">Guest</text></g><!--entity L--><g class="entity" data-qualified-name="L" data-source-line="5" id="ent0003"><ellipse cx="188.1151" cy="637.35" fill="#F1F1F1" rx="8" ry="8" style="stroke:#181818;stroke-width:0.5;"/><path d="M188.1151,645.35 L188.1151,672.35 M175.1151,653.35 L201.1151,653.35 M188.1151,672.35 L175.1151,687.35 M188.1151,672.35 L201.1151,687.35" fill="none" style="stroke:#181818;stroke-width:0.5;"/><text fill="#000000" font-family="sans-serif" font-size="14" lengthAdjust="spacing" textLength="53.9902" x="161.12" y="701.8451">Learner</text></g><!--entity I--><g class="entity" data-qualified-name="I" data-source-line="6" id="ent0004"><ellipse cx="364.7809" cy="174.35" fill="#F1F1F1" rx="8" ry="8" style="stroke:#181818;stroke-width:0.5;"/><path d="M364.7809,182.35 L364.7809,209.35 M351.7809,190.35 L377.7809,190.35 M364.7809,209.35 L351.7809,224.35 M364.7809,209.35 L377.7809,224.35" fill="none" style="stroke:#181818;stroke-width:0.5;"/><text fill="#000000" font-family="sans-serif" font-size="14" lengthAdjust="spacing" textLength="67.9219" x="330.82" y="238.8451">Instructor</text></g><!--entity A--><g class="entity" data-qualified-name="A" data-source-line="7" id="ent0005"><ellipse cx="364.7721" cy="332.35" fill="#F1F1F1" rx="8" ry="8" style="stroke:#181818;stroke-width:0.5;"/><path d="M364.7721,340.35 L364.7721,367.35 M351.7721,348.35 L377.7721,348.35 M364.7721,367.35 L351.7721,382.35 M364.7721,367.35 L377.7721,382.35" fill="none" style="stroke:#181818;stroke-width:0.5;"/><text fill="#000000" font-family="sans-serif" font-size="14" lengthAdjust="spacing" textLength="44.8643" x="342.34" y="396.8451">Admin</text></g><!--entity S--><g class="entity" data-qualified-name="S" data-source-line="8" id="ent0006"><ellipse cx="364.7785" cy="835.4969" fill="#F1F1F1" rx="8" ry="8" style="stroke:#181818;stroke-width:0.5;"/><path d="M364.7785,843.4969 L364.7785,870.4969 M351.7785,851.4969 L377.7785,851.4969 M364.7785,870.4969 L351.7785,885.4969 M364.7785,870.4969 L377.7785,885.4969" fill="none" style="stroke:#181818;stroke-width:0.5;"/><text fill="#000000" font-family="sans-serif" font-size="14" lengthAdjust="spacing" textLength="52.2061" x="338.6754" y="899.992">System</text><text fill="#000000" font-family="sans-serif" font-size="14" font-style="italic" lengthAdjust="spacing" textLength="69.3369" x="330.11" y="823.6951">&#171;System&#187;</text></g><!--reverse link G to L--><g class="link" data-entity-1="ent0002" data-entity-2="ent0003" data-link-type="extension" data-source-line="10" id="lnk7"><path d="M31.1952,974.4145 C36.1952,903.4545 48.53,773.73 77.12,732 C97.18,702.72 135.13,684.65 160.77,675.21" fill="none" id="G-backto-L" style="stroke:#181818;stroke-width:1;"/><polygon fill="none" points="29.93,992.37,37.1803,974.8362,25.21,973.9928,29.93,992.37" style="stroke:#181818;stroke-width:1;"/><text fill="#000000" font-family="sans-serif" font-size="13" lengthAdjust="spacing" textLength="52.0508" x="78.12" y="685.0669">extends</text></g><!--reverse link L to I--><g class="link" data-entity-1="ent0003" data-entity-2="ent0004" data-link-type="extension" data-source-line="11" id="lnk8"><path d="M191.564,610.7897 C194.984,551.3497 205.58,452.24 245.11,362 C265.82,314.71 303.2,268.41 330.48,238.29" fill="none" id="L-backto-I" style="stroke:#181818;stroke-width:1;"/><polygon fill="none" points="190.53,628.76,197.554,611.1344,185.5739,610.4451,190.53,628.76" style="stroke:#181818;stroke-width:1;"/><text fill="#000000" font-family="sans-serif" font-size="13" lengthAdjust="spacing" textLength="52.0508" x="246.11" y="272.0669">extends</text></g><!--reverse link L to A--><g class="link" data-entity-1="ent0003" data-entity-2="ent0005" data-link-type="extension" data-source-line="12" id="lnk9"><path d="M189.2844,610.4774 C190.7444,559.4074 199.7,486.8 245.11,427 C269.68,394.64 315.24,376.33 342.19,367.86" fill="none" id="L-backto-A" style="stroke:#181818;stroke-width:1;"/><polygon fill="none" points="188.77,628.47,195.2819,610.6488,183.2868,610.3059,188.77,628.47" style="stroke:#181818;stroke-width:1;"/><text fill="#000000" font-family="sans-serif" font-size="13" lengthAdjust="spacing" textLength="52.0508" x="246.11" y="383.0669">extends</text></g><!--link G to UC_LOGIN--><g class="link" data-entity-1="ent0002" data-entity-2="ent0012" data-link-type="association" data-source-line="48" id="lnk33"><path d="M47.31,1046.17 C104.55,1089.44 276.85,1214.56 438.8,1281 C474.28,1295.56 517.84,1304.38 545.76,1308.97" fill="none" id="G-UC_LOGIN" style="stroke:#181818;stroke-width:1;"/></g><!--link G to UC_REG--><g class="link" data-entity-1="ent0002" data-entity-2="ent0013" data-link-type="association" data-source-line="49" id="lnk34"><path d="M45.38,1069.55 C53.64,1084.81 64.44,1101.82 77.12,1115 C118.77,1158.28 210.29,1248.75 438.8,1345 C469.59,1357.97 506.64,1366.27 534.16,1371.16" fill="none" id="G-UC_REG" style="stroke:#181818;stroke-width:1;"/></g><!--link G to UC_BROWSE--><g class="link" data-entity-1="ent0002" data-entity-2="ent0016" data-link-type="association" data-source-line="50" id="lnk35"><path d="M47.47,1011.48 C93.5,967.24 212.33,858.15 329.11,793 C374.42,767.72 389.2,768.24 438.8,753 C465.98,744.65 496.7,736.8 521.97,730.75" fill="none" id="G-UC_BROWSE" style="stroke:#181818;stroke-width:1;"/></g><!--link L to UC_PROFILE--><g class="link" data-entity-1="ent0003" data-entity-2="ent0014" data-link-type="association" data-source-line="53" id="lnk36"><path d="M191.16,705.35 C196.18,788.4 211.26,981.83 245.11,1037 C312.61,1147.01 461.43,1210.04 533.42,1235.16" fill="none" id="L-UC_PROFILE" style="stroke:#181818;stroke-width:1;"/></g><!--link L to UC_ENROLL--><g class="link" data-entity-1="ent0003" data-entity-2="ent0020" data-link-type="association" data-source-line="54" id="lnk37"><path d="M203.22,628.81 C212.52,607.84 226.44,582.6 245.11,565 C322.43,492.08 446.59,460.54 518.19,447.81" fill="none" id="L-UC_ENROLL" style="stroke:#181818;stroke-width:1;"/></g><!--link L to UC_LEARN--><g class="link" data-entity-1="ent0003" data-entity-2="ent0021" data-link-type="association" data-source-line="55" id="lnk38"><path d="M215.38,631.53 C223.96,621.84 234.14,612.08 245.11,605 C326.64,552.39 437.69,527.45 507.6,516.27" fill="none" id="L-UC_LEARN" style="stroke:#181818;stroke-width:1;"/></g><!--link L to UC_INTERACT--><g class="link" data-entity-1="ent0003" data-entity-2="ent0022" data-link-type="association" data-source-line="56" id="lnk39"><path d="M215.44,651.27 C224.57,646.39 235.05,641.4 245.11,638 C328.59,609.76 428.89,594.61 496.6,586.96" fill="none" id="L-UC_INTERACT" style="stroke:#181818;stroke-width:1;"/></g><!--link L to UC_CERT--><g class="link" data-entity-1="ent0003" data-entity-2="ent0023" data-link-type="association" data-source-line="57" id="lnk40"><path d="M215.57,665.9 C274.5,663.45 418.19,657.48 504.68,653.88" fill="none" id="L-UC_CERT" style="stroke:#181818;stroke-width:1;"/></g><!--link L to UC_PAY--><g class="link" data-entity-1="ent0003" data-entity-2="ent0028" data-link-type="association" data-source-line="58" id="lnk41"><path d="M198.89,705.51 C215.46,762.4 254.75,867.87 329.11,921 C378.81,956.51 448.38,965.9 500.68,967.2" fill="none" id="L-UC_PAY" style="stroke:#181818;stroke-width:1;"/></g><!--link L to UC_POST--><g class="link" data-entity-1="ent0003" data-entity-2="ent0031" data-link-type="association" data-source-line="59" id="lnk42"><path d="M190.01,705.46 C192.9,755.12 204,842.35 245.11,903 C311.49,1000.92 453.02,1044.96 526.9,1061.92" fill="none" id="L-UC_POST" style="stroke:#181818;stroke-width:1;"/></g><!--link L to UC_COMMENT--><g class="link" data-entity-1="ent0003" data-entity-2="ent0032" data-link-type="association" data-source-line="60" id="lnk43"><path d="M192.65,705.53 C199.77,776.76 217.54,925.71 245.11,969 C305.43,1063.75 436.65,1108.36 513.87,1127.13" fill="none" id="L-UC_COMMENT" style="stroke:#181818;stroke-width:1;"/></g><!--link I to UC_CREATE--><g class="link" data-entity-1="ent0004" data-entity-2="ent0017" data-link-type="association" data-source-line="63" id="lnk44"><path d="M398.37,165.65 C410.06,153.98 424.02,142.11 438.8,134 C461.99,121.27 490.08,113.4 514.64,108.55" fill="none" id="I-UC_CREATE" style="stroke:#181818;stroke-width:1;"/></g><!--link I to UC_SECTION--><g class="link" data-entity-1="ent0004" data-entity-2="ent0018" data-link-type="association" data-source-line="64" id="lnk45"><path d="M399.23,198.38 C429.81,193.24 475.79,185.51 512.91,179.27" fill="none" id="I-UC_SECTION" style="stroke:#181818;stroke-width:1;"/></g><!--link I to UC_LESSON--><g class="link" data-entity-1="ent0004" data-entity-2="ent0019" data-link-type="association" data-source-line="65" id="lnk46"><path d="M399.23,209.62 C430.16,214.82 476.83,222.67 514.17,228.94" fill="none" id="I-UC_LESSON" style="stroke:#181818;stroke-width:1;"/></g><!--link A to UC_APPROVE--><g class="link" data-entity-1="ent0005" data-entity-2="ent0024" data-link-type="association" data-source-line="68" id="lnk47"><path d="M387.56,355.33 C400.07,351.56 416.09,346.86 430.45,343 C460.55,334.91 494.41,326.62 521.69,320.14" fill="none" id="A-UC_APPROVE" style="stroke:#181818;stroke-width:1;"/></g><!--link A to UC_HIDE--><g class="link" data-entity-1="ent0005" data-entity-2="ent0025" data-link-type="association" data-source-line="69" id="lnk48"><path d="M387.67,363.37 C417.53,365.23 472.17,368.64 514.59,371.29" fill="none" id="A-UC_HIDE" style="stroke:#181818;stroke-width:1;"/></g><!--link A to UC_ANALYTICS--><g class="link" data-entity-1="ent0005" data-entity-2="ent0029" data-link-type="association" data-source-line="70" id="lnk49"><path d="M367.63,400.61 C372.98,498.44 391.23,753.09 438.8,821 C460.82,852.44 500.43,872.16 531.1,883.44" fill="none" id="A-UC_ANALYTICS" style="stroke:#181818;stroke-width:1;"/></g><!--link S to UC_REMIND--><g class="link" data-entity-1="ent0006" data-entity-2="ent0026" data-link-type="association" data-source-line="73" id="lnk50"><path d="M400.63,845.45 C436.63,833.52 492.87,814.89 531.47,802.09" fill="none" id="S-UC_REMIND" style="stroke:#181818;stroke-width:1;"/></g><?plantuml-src VLJ1Rjim3BtxAuWSjlOGz3wq1LHNImquTc0dBNeQ38TrX2XI82djWct_FbcMrCPPvuj5wkcH8X_5ySM0aQ1Ojp6mPWfRmwH8z9Q9VQEQ7UoRTjjqM9iZH-Yt6z5nJ9AcDLB1P7P0RIRGQ9W5LuwD4gYSCm_EJ6YZ3ltQ-RFW9-iT4yv5Wgi-QeCxvwlX-demRs-JP0RNlwTJoE4Ru4-3OgsJV71bvoxomPN4l652EybP0tJgqcIYWn3lLv90k2vCLXeLrAXUMOjmGGvcWyAmxMMF0_iTDBQDji1STlu6g_H7NiwoudI_mexP02f0AZex1QpswyOWB9HyOHm3R56LtxESMkYVaxnIUL3sbC_iB9ix9T_iVq3fG7PNbKyrFKMc2lkm0p80qugIvGWuRqGVkHwa4JbhcYwpilWdDaUjFq1pMjTZ91LASZuAJukgpFDHVVi-mPU-FfsolE-af3ehzIl3DujDvMvdsnMWMR6a5KcNf-WP6aXH6VR2Mbk9I9pIQeGa-xsIhtXrZord8cPB5hP9ZwDgFR0rNgt4nlu2xY6x7u5gAqkeq4f_ZKg_AsEU5VTd7RzZd3kTVjBoT8FjLXxCg9OBydoAU-nhGqJ3ZuQrCIWfIFwypDBwF2wN_mawg6SXTQpoegn7TVDji0sfSC-FiS3bV4wBfGjeGtw5cviRS0z9lx9ZRiStpbAm-h49QozdVzA_Dt31n0OLCthWkdHakJyInYdONcd17CGKhAYNu72IY5Isi77TtpcY_BryNkzFteVKVB93SbauE4nTCCDaPJ4vDpwUrhsOdp4IVoH8CzXEWd4pjjnJ3Y-W8wXZkPqM_m80?></g></svg>