<?plantuml 1.2026.1?><svg xmlns="http://www.w3.org/2000/svg" xmlns:xlink="http://www.w3.org/1999/xlink" contentStyleType="text/css" data-diagram-type="SEQUENCE" height="912px" preserveAspectRatio="none" style="width:1747px;height:912px;background:#FFFFFF;" version="1.1" viewBox="0 0 1747 912" width="1747px" zoomAndPan="magnify"><defs/><g><rect fill="#ADD8E6" height="900.3828" style="stroke:#181818;stroke-width:0.5;" width="102.4434" x="579.311" y="6"/><text fill="#000000" font-family="sans-serif" font-size="13" font-weight="bold" lengthAdjust="spacing" textLength="92.6821" x="584.1917" y="18.0669">API Gateway</text><rect fill="#FFFFE0" height="900.3828" style="stroke:#181818;stroke-width:0.5;" width="642.9102" x="791.5098" y="6"/><text fill="#000000" font-family="sans-serif" font-size="13" font-weight="bold" lengthAdjust="spacing" textLength="109.2622" x="1058.3337" y="18.0669">Course Service</text><g><title>Admin</title><rect fill="#FFFFFF" height="168.7969" style="stroke:#181818;stroke-width:1;" width="10" x="40.4321" y="118.5625"/></g><g><title>WebApp</title><rect fill="#FFFFFF" height="168.7969" style="stroke:#181818;stroke-width:1;" width="10" x="344.9678" y="118.5625"/></g><g><title>API Gateway</title><rect fill="#FFFFFF" height="579.8594" style="stroke:#181818;stroke-width:1;" width="10" x="625.5327" y="162.8281"/></g><g><title>AdminCourseController</title><rect fill="#FFFFFF" height="382.2578" style="stroke:#181818;stroke-width:1;" width="10" x="874.9668" y="331.2969"/></g><g><title>CourseApp</title><rect fill="#FFFFFF" height="323.9922" style="stroke:#181818;stroke-width:1;" width="10" x="1179.0161" y="360.4297"/></g><g><title>CourseDB</title><rect fill="#FFFFFF" height="207.4609" style="stroke:#181818;stroke-width:1;" width="10" x="1387.7891" y="389.5625"/></g><g><title>CourseDB</title><rect fill="#FFFFFF" height="29.1328" style="stroke:#181818;stroke-width:1;" width="10" x="1387.7891" y="626.1563"/></g><rect fill="none" height="590.125" style="stroke:#000000;stroke-width:1.5;" width="1730.7324" x="10" y="219.9609"/><g class="participant-lifeline" data-entity-uid="part1" data-qualified-name="A" id="part1-lifeline"><g><title>Admin</title><rect fill="#000000" fill-opacity="0.00000" height="739.6563" width="8" x="41.4321" y="87.4297"/><line style="stroke:#181818;stroke-width:0.5;stroke-dasharray:5,5;" x1="45" x2="45" y1="87.4297" y2="827.0859"/></g></g><g class="participant-lifeline" data-entity-uid="part2" data-qualified-name="WA" id="part2-lifeline"><g><title>WebApp</title><rect fill="#000000" fill-opacity="0.00000" height="739.6563" width="8" x="345.9678" y="87.4297"/><line style="stroke:#181818;stroke-width:0.5;stroke-dasharray:5,5;" x1="349.6211" x2="349.6211" y1="87.4297" y2="827.0859"/></g></g><g class="participant-lifeline" data-entity-uid="part3" data-qualified-name="GW" id="part3-lifeline"><g><title>API Gateway</title><rect fill="#000000" fill-opacity="0.00000" height="739.6563" width="8" x="626.5327" y="87.4297"/><line style="stroke:#181818;stroke-width:0.5;stroke-dasharray:5,5;" x1="630.311" x2="630.311" y1="87.4297" y2="827.0859"/></g></g><g class="participant-lifeline" data-entity-uid="part4" data-qualified-name="ACC" id="part4-lifeline"><g><title>AdminCourseController</title><rect fill="#000000" fill-opacity="0.00000" height="739.6563" width="8" x="875.9668" y="87.4297"/><line style="stroke:#181818;stroke-width:0.5;stroke-dasharray:5,5;" x1="879.5098" x2="879.5098" y1="87.4297" y2="827.0859"/></g></g><g class="participant-lifeline" data-entity-uid="part5" data-qualified-name="CA" id="part5-lifeline"><g><title>CourseApp</title><rect fill="#000000" fill-opacity="0.00000" height="739.6563" width="8" x="1180.0161" y="87.4297"/><line style="stroke:#181818;stroke-width:0.5;stroke-dasharray:5,5;" x1="1183.9023" x2="1183.9023" y1="87.4297" y2="827.0859"/></g></g><g class="participant-lifeline" data-entity-uid="part6" data-qualified-name="CDB" id="part6-lifeline"><g><title>CourseDB</title><rect fill="#000000" fill-opacity="0.00000" height="739.6563" width="8" x="1388.7891" y="87.4297"/><line style="stroke:#181818;stroke-width:0.5;stroke-dasharray:5,5;" x1="1392.1582" x2="1392.1582" y1="87.4297" y2="827.0859"/></g></g><g class="participant participant-head" data-entity-uid="part1" data-qualified-name="A" id="part1-head"><text fill="#000000" font-family="sans-serif" font-size="14" lengthAdjust="spacing" textLength="44.8643" x="20" y="84.1279">Admin</text><ellipse cx="45.4321" cy="19.6328" fill="#E2E2F0" rx="8" ry="8" style="stroke:#181818;stroke-width:0.5;"/><path d="M45.4321,27.6328 L45.4321,54.6328 M32.4321,35.6328 L58.4321,35.6328 M45.4321,54.6328 L32.4321,69.6328 M45.4321,54.6328 L58.4321,69.6328" fill="none" style="stroke:#181818;stroke-width:0.5;"/></g><g class="participant participant-tail" data-entity-uid="part1" data-qualified-name="A" id="part1-tail"><text fill="#000000" font-family="sans-serif" font-size="14" lengthAdjust="spacing" textLength="44.8643" x="20" y="839.0811">Admin</text><ellipse cx="45.4321" cy="850.8828" fill="#E2E2F0" rx="8" ry="8" style="stroke:#181818;stroke-width:0.5;"/><path d="M45.4321,858.8828 L45.4321,885.8828 M32.4321,866.8828 L58.4321,866.8828 M45.4321,885.8828 L32.4321,900.8828 M45.4321,885.8828 L58.4321,900.8828" fill="none" style="stroke:#181818;stroke-width:0.5;"/></g><g class="participant participant-head" data-entity-uid="part2" data-qualified-name="WA" id="part2-head"><text fill="#000000" font-family="sans-serif" font-size="14" lengthAdjust="spacing" textLength="58.6934" x="317.6211" y="84.1279">WebApp</text><path d="M329.4678,43.1328 L329.4678,67.1328 M329.4678,55.1328 L346.4678,55.1328" fill="none" style="stroke:#181818;stroke-width:0.5;"/><ellipse cx="358.4678" cy="55.1328" fill="#E2E2F0" rx="12" ry="12" style="stroke:#181818;stroke-width:0.5;"/></g><g class="participant participant-tail" data-entity-uid="part2" data-qualified-name="WA" id="part2-tail"><text fill="#000000" font-family="sans-serif" font-size="14" lengthAdjust="spacing" textLength="58.6934" x="317.6211" y="839.0811">WebApp</text><path d="M329.4678,846.3828 L329.4678,870.3828 M329.4678,858.3828 L346.4678,858.3828" fill="none" style="stroke:#181818;stroke-width:0.5;"/><ellipse cx="358.4678" cy="858.3828" fill="#E2E2F0" rx="12" ry="12" style="stroke:#181818;stroke-width:0.5;"/></g><g class="participant participant-head" data-entity-uid="part3" data-qualified-name="GW" id="part3-head"><text fill="#000000" font-family="sans-serif" font-size="14" lengthAdjust="spacing" textLength="88.4434" x="583.311" y="84.1279">API Gateway</text><ellipse cx="630.5327" cy="55.1328" fill="#E2E2F0" rx="12" ry="12" style="stroke:#181818;stroke-width:0.5;"/><polygon fill="#181818" points="626.5327,43.1328,632.5327,38.1328,630.5327,43.1328,632.5327,48.1328,626.5327,43.1328" style="stroke:#181818;stroke-width:1;"/></g><g class="participant participant-tail" data-entity-uid="part3" data-qualified-name="GW" id="part3-tail"><text fill="#000000" font-family="sans-serif" font-size="14" lengthAdjust="spacing" textLength="88.4434" x="583.311" y="839.0811">API Gateway</text><ellipse cx="630.5327" cy="858.3828" fill="#E2E2F0" rx="12" ry="12" style="stroke:#181818;stroke-width:0.5;"/><polygon fill="#181818" points="626.5327,846.3828,632.5327,841.3828,630.5327,846.3828,632.5327,851.3828,626.5327,846.3828" style="stroke:#181818;stroke-width:1;"/></g><g class="participant participant-head" data-entity-uid="part4" data-qualified-name="ACC" id="part4-head"><text fill="#000000" font-family="sans-serif" font-size="14" lengthAdjust="spacing" textLength="162.9141" x="795.5098" y="84.1279">AdminCourseController</text><ellipse cx="879.9668" cy="55.1328" fill="#E2E2F0" rx="12" ry="12" style="stroke:#181818;stroke-width:0.5;"/><polygon fill="#181818" points="875.9668,43.1328,881.9668,38.1328,879.9668,43.1328,881.9668,48.1328,875.9668,43.1328" style="stroke:#181818;stroke-width:1;"/></g><g class="participant participant-tail" data-entity-uid="part4" data-qualified-name="ACC" id="part4-tail"><text fill="#000000" font-family="sans-serif" font-size="14" lengthAdjust="spacing" textLength="162.9141" x="795.5098" y="839.0811">AdminCourseController</text><ellipse cx="879.9668" cy="858.3828" fill="#E2E2F0" rx="12" ry="12" style="stroke:#181818;stroke-width:0.5;"/><polygon fill="#181818" points="875.9668,846.3828,881.9668,841.3828,879.9668,846.3828,881.9668,851.3828,875.9668,846.3828" style="stroke:#181818;stroke-width:1;"/></g><g class="participant participant-head" data-entity-uid="part5" data-qualified-name="CA" id="part5-head"><text fill="#000000" font-family="sans-serif" font-size="14" lengthAdjust="spacing" textLength="76.2275" x="1142.9023" y="84.1279">CourseApp</text><ellipse cx="1184.0161" cy="55.1328" fill="#E2E2F0" rx="12" ry="12" style="stroke:#181818;stroke-width:0.5;"/><polygon fill="#181818" points="1180.0161,43.1328,1186.0161,38.1328,1184.0161,43.1328,1186.0161,48.1328,1180.0161,43.1328" style="stroke:#181818;stroke-width:1;"/></g><g class="participant participant-tail" data-entity-uid="part5" data-qualified-name="CA" id="part5-tail"><text fill="#000000" font-family="sans-serif" font-size="14" lengthAdjust="spacing" textLength="76.2275" x="1142.9023" y="839.0811">CourseApp</text><ellipse cx="1184.0161" cy="858.3828" fill="#E2E2F0" rx="12" ry="12" style="stroke:#181818;stroke-width:0.5;"/><polygon fill="#181818" points="1180.0161,846.3828,1186.0161,841.3828,1184.0161,846.3828,1186.0161,851.3828,1180.0161,846.3828" style="stroke:#181818;stroke-width:1;"/></g><g class="participant participant-head" data-entity-uid="part6" data-qualified-name="CDB" id="part6-head"><text fill="#000000" font-family="sans-serif" font-size="14" lengthAdjust="spacing" textLength="69.2617" x="1355.1582" y="84.1279">CourseDB</text><path d="M1374.7891,35.1328 C1374.7891,25.1328 1392.7891,25.1328 1392.7891,25.1328 C1392.7891,25.1328 1410.7891,25.1328 1410.7891,35.1328 L1410.7891,61.1328 C1410.7891,71.1328 1392.7891,71.1328 1392.7891,71.1328 C1392.7891,71.1328 1374.7891,71.1328 1374.7891,61.1328 L1374.7891,35.1328" fill="#E2E2F0" style="stroke:#181818;stroke-width:0.5;"/><path d="M1374.7891,35.1328 C1374.7891,45.1328 1392.7891,45.1328 1392.7891,45.1328 C1392.7891,45.1328 1410.7891,45.1328 1410.7891,35.1328" fill="none" style="stroke:#181818;stroke-width:0.5;"/></g><g class="participant participant-tail" data-entity-uid="part6" data-qualified-name="CDB" id="part6-tail"><text fill="#000000" font-family="sans-serif" font-size="14" lengthAdjust="spacing" textLength="69.2617" x="1355.1582" y="839.0811">CourseDB</text><path d="M1374.7891,852.3828 C1374.7891,842.3828 1392.7891,842.3828 1392.7891,842.3828 C1392.7891,842.3828 1410.7891,842.3828 1410.7891,852.3828 L1410.7891,878.3828 C1410.7891,888.3828 1392.7891,888.3828 1392.7891,888.3828 C1392.7891,888.3828 1374.7891,888.3828 1374.7891,878.3828 L1374.7891,852.3828" fill="#E2E2F0" style="stroke:#181818;stroke-width:0.5;"/><path d="M1374.7891,852.3828 C1374.7891,862.3828 1392.7891,862.3828 1392.7891,862.3828 C1392.7891,862.3828 1410.7891,862.3828 1410.7891,852.3828" fill="none" style="stroke:#181818;stroke-width:0.5;"/></g><g><title>Admin</title><rect fill="#FFFFFF" height="168.7969" style="stroke:#181818;stroke-width:1;" width="10" x="40.4321" y="118.5625"/></g><g><title>WebApp</title><rect fill="#FFFFFF" height="168.7969" style="stroke:#181818;stroke-width:1;" width="10" x="344.9678" y="118.5625"/></g><g><title>API Gateway</title><rect fill="#FFFFFF" height="579.8594" style="stroke:#181818;stroke-width:1;" width="10" x="625.5327" y="162.8281"/></g><g><title>AdminCourseController</title><rect fill="#FFFFFF" height="382.2578" style="stroke:#181818;stroke-width:1;" width="10" x="874.9668" y="331.2969"/></g><g><title>CourseApp</title><rect fill="#FFFFFF" height="323.9922" style="stroke:#181818;stroke-width:1;" width="10" x="1179.0161" y="360.4297"/></g><g><title>CourseDB</title><rect fill="#FFFFFF" height="207.4609" style="stroke:#181818;stroke-width:1;" width="10" x="1387.7891" y="389.5625"/></g><g><title>CourseDB</title><rect fill="#FFFFFF" height="29.1328" style="stroke:#181818;stroke-width:1;" width="10" x="1387.7891" y="626.1563"/></g><g class="message" data-entity-1="part1" data-entity-2="part2" id="msg1"><polygon fill="#181818" points="332.9678,114.5625,342.9678,118.5625,332.9678,122.5625,336.9678,118.5625" style="stroke:#181818;stroke-width:1;"/><line style="stroke:#181818;stroke-width:1;" x1="50.4321" x2="338.9678" y1="118.5625" y2="118.5625"/><text fill="#000000" font-family="sans-serif" font-size="13" font-weight="bold" lengthAdjust="spacing" textLength="9.0454" x="57.4321" y="113.4966">1</text><text fill="#000000" font-family="sans-serif" font-size="13" lengthAdjust="spacing" textLength="267.4902" x="70.4775" y="113.4966">Navigate to Admin Dashboard &gt; Courses</text></g><g class="message" data-entity-1="part2" data-entity-2="part3" id="msg2"><polygon fill="#181818" points="613.5327,158.8281,623.5327,162.8281,613.5327,166.8281,617.5327,162.8281" style="stroke:#181818;stroke-width:1;"/><line style="stroke:#181818;stroke-width:1;" x1="354.9678" x2="619.5327" y1="162.8281" y2="162.8281"/><text fill="#000000" font-family="sans-serif" font-size="13" font-weight="bold" lengthAdjust="spacing" textLength="9.0454" x="361.9678" y="150.1958">2</text><text fill="#000000" font-family="sans-serif" font-size="13" lengthAdjust="spacing" textLength="130.0825" x="375.0132" y="142.6294">GET /admin/courses</text><text fill="#000000" font-family="sans-serif" font-size="13" lengthAdjust="spacing" textLength="238.5195" x="375.0132" y="157.7622">?status=pending&amp;page=1&amp;limit=20</text></g><g class="message" data-entity-1="part3" data-entity-2="part3" id="msg3"><line style="stroke:#181818;stroke-width:1;" x1="635.5327" x2="677.5327" y1="191.9609" y2="191.9609"/><line style="stroke:#181818;stroke-width:1;" x1="677.5327" x2="677.5327" y1="191.9609" y2="204.9609"/><line style="stroke:#181818;stroke-width:1;" x1="636.5327" x2="677.5327" y1="204.9609" y2="204.9609"/><polygon fill="#181818" points="646.5327,200.9609,636.5327,204.9609,646.5327,208.9609,642.5327,204.9609" style="stroke:#181818;stroke-width:1;"/><text fill="#000000" font-family="sans-serif" font-size="13" font-weight="bold" lengthAdjust="spacing" textLength="9.0454" x="642.5327" y="186.895">3</text><text fill="#000000" font-family="sans-serif" font-size="13" lengthAdjust="spacing" textLength="202.3887" x="655.5781" y="186.895">Validate JWT, check admin role</text></g><path d="M10,219.9609 L74.4429,219.9609 L74.4429,227.0938 L64.4429,237.0938 L10,237.0938 L10,219.9609" fill="#EEEEEE" style="stroke:#000000;stroke-width:1.5;"/><rect fill="none" height="590.125" style="stroke:#000000;stroke-width:1.5;" width="1730.7324" x="10" y="219.9609"/><text fill="#000000" font-family="sans-serif" font-size="13" font-weight="bold" lengthAdjust="spacing" textLength="19.4429" x="25" y="233.0278">alt</text><text fill="#000000" font-family="sans-serif" font-size="11" font-weight="bold" lengthAdjust="spacing" textLength="74.2661" x="89.4429" y="232.1714">[Not admin]</text><g class="message" data-entity-1="part3" data-entity-2="part2" id="msg4"><polygon fill="#181818" points="365.9678,254.2266,355.9678,258.2266,365.9678,262.2266,361.9678,258.2266" style="stroke:#181818;stroke-width:1;"/><line style="stroke:#181818;stroke-width:1;stroke-dasharray:2,2;" x1="359.9678" x2="624.5327" y1="258.2266" y2="258.2266"/><text fill="#000000" font-family="sans-serif" font-size="13" font-weight="bold" lengthAdjust="spacing" textLength="9.0454" x="371.9678" y="253.1606">4</text><text fill="#000000" font-family="sans-serif" font-size="13" lengthAdjust="spacing" textLength="94.3262" x="385.0132" y="253.1606">403 Forbidden</text></g><g class="message" data-entity-1="part2" data-entity-2="part1" id="msg5"><polygon fill="#181818" points="56.4321,283.3594,46.4321,287.3594,56.4321,291.3594,52.4321,287.3594" style="stroke:#181818;stroke-width:1;"/><line style="stroke:#181818;stroke-width:1;" x1="50.4321" x2="348.9678" y1="287.3594" y2="287.3594"/><text fill="#000000" font-family="sans-serif" font-size="13" font-weight="bold" lengthAdjust="spacing" textLength="9.0454" x="62.4321" y="282.2935">5</text><text fill="#000000" font-family="sans-serif" font-size="13" lengthAdjust="spacing" textLength="168.0859" x="75.4775" y="282.2935">Redirect to access denied</text></g><line style="stroke:#000000;stroke-width:1;stroke-dasharray:2,2;" x1="10" x2="1740.7324" y1="296.3594" y2="296.3594"/><text fill="#000000" font-family="sans-serif" font-size="11" font-weight="bold" lengthAdjust="spacing" textLength="62.8848" x="15" y="306.5698">[Is admin]</text><g class="message" data-entity-1="part3" data-entity-2="part4" id="msg6"><polygon fill="#181818" points="862.9668,327.2969,872.9668,331.2969,862.9668,335.2969,866.9668,331.2969" style="stroke:#181818;stroke-width:1;"/><line style="stroke:#181818;stroke-width:1;" x1="635.5327" x2="868.9668" y1="331.2969" y2="331.2969"/><text fill="#000000" font-family="sans-serif" font-size="13" font-weight="bold" lengthAdjust="spacing" textLength="9.0454" x="642.5327" y="326.231">6</text><text fill="#000000" font-family="sans-serif" font-size="13" lengthAdjust="spacing" textLength="106.8057" x="655.5781" y="326.231">Forward request</text></g><g class="message" data-entity-1="part4" data-entity-2="part5" id="msg7"><polygon fill="#181818" points="1167.0161,356.4297,1177.0161,360.4297,1167.0161,364.4297,1171.0161,360.4297" style="stroke:#181818;stroke-width:1;"/><line style="stroke:#181818;stroke-width:1;" x1="884.9668" x2="1173.0161" y1="360.4297" y2="360.4297"/><text fill="#000000" font-family="sans-serif" font-size="13" font-weight="bold" lengthAdjust="spacing" textLength="9.0454" x="891.9668" y="355.3638">7</text><text fill="#000000" font-family="sans-serif" font-size="13" lengthAdjust="spacing" textLength="170.9614" x="905.0122" y="355.3638">GetSystemCourses(filters)</text></g><g class="message" data-entity-1="part5" data-entity-2="part6" id="msg8"><polygon fill="#181818" points="1375.7891,385.5625,1385.7891,389.5625,1375.7891,393.5625,1379.7891,389.5625" style="stroke:#181818;stroke-width:1;"/><line style="stroke:#181818;stroke-width:1;" x1="1189.0161" x2="1381.7891" y1="389.5625" y2="389.5625"/><text fill="#000000" font-family="sans-serif" font-size="13" font-weight="bold" lengthAdjust="spacing" textLength="9.0454" x="1196.0161" y="384.4966">8</text><text fill="#000000" font-family="sans-serif" font-size="13" lengthAdjust="spacing" textLength="166.7275" x="1209.0615" y="384.4966">Query courses with filters</text></g><g class="message" data-entity-1="part6" data-entity-2="part6" id="msg9"><line style="stroke:#181818;stroke-width:1;" x1="1397.7891" x2="1439.7891" y1="554.8906" y2="554.8906"/><line style="stroke:#181818;stroke-width:1;" x1="1439.7891" x2="1439.7891" y1="554.8906" y2="567.8906"/><line style="stroke:#181818;stroke-width:1;" x1="1398.7891" x2="1439.7891" y1="567.8906" y2="567.8906"/><polygon fill="#181818" points="1408.7891,563.8906,1398.7891,567.8906,1408.7891,571.8906,1404.7891,567.8906" style="stroke:#181818;stroke-width:1;"/><text fill="#000000" font-family="sans-serif" font-size="13" font-weight="bold" lengthAdjust="spacing" textLength="9.0454" x="1404.7891" y="481.7271">9</text><text fill="#000000" font-family="sans-serif" font-size="13" lengthAdjust="spacing" textLength="74.9849" x="1417.8345" y="413.6294">SELECT c.*,</text><text fill="#000000" font-family="sans-serif" font-size="13" lengthAdjust="spacing" textLength="209.1299" x="1426.0991" y="428.7622">u.full_name as instructor_name,</text><text fill="#000000" font-family="sans-serif" font-size="13" lengthAdjust="spacing" textLength="217.5659" x="1426.0991" y="443.895">COUNT(e.id) as enrollment_count</text><text fill="#000000" font-family="sans-serif" font-size="13" lengthAdjust="spacing" textLength="103.6001" x="1417.8345" y="459.0278">FROM courses c</text><text fill="#000000" font-family="sans-serif" font-size="13" lengthAdjust="spacing" textLength="243.3628" x="1417.8345" y="474.1606">JOIN users u ON c.instructor_id = u.id</text><text fill="#000000" font-family="sans-serif" font-size="13" lengthAdjust="spacing" textLength="300.8979" x="1417.8345" y="489.2935">LEFT JOIN enrollments e ON c.id = e.course_id</text><text fill="#000000" font-family="sans-serif" font-size="13" lengthAdjust="spacing" textLength="186.3481" x="1417.8345" y="504.4263">WHERE c.deleted_at IS NULL</text><text fill="#000000" font-family="sans-serif" font-size="13" lengthAdjust="spacing" textLength="208.6919" x="1426.0991" y="519.5591">AND (? IS NULL OR c.status = ?)</text><text fill="#000000" font-family="sans-serif" font-size="13" lengthAdjust="spacing" textLength="94.9609" x="1417.8345" y="534.6919">GROUP BY c.id</text><text fill="#000000" font-family="sans-serif" font-size="13" lengthAdjust="spacing" textLength="191.9785" x="1417.8345" y="549.8247">ORDER BY c.created_at DESC</text></g><g class="message" data-entity-1="part6" data-entity-2="part5" id="msg10"><polygon fill="#181818" points="1200.0161,593.0234,1190.0161,597.0234,1200.0161,601.0234,1196.0161,597.0234" style="stroke:#181818;stroke-width:1;"/><line style="stroke:#181818;stroke-width:1;stroke-dasharray:2,2;" x1="1194.0161" x2="1391.7891" y1="597.0234" y2="597.0234"/><text fill="#000000" font-family="sans-serif" font-size="13" font-weight="bold" lengthAdjust="spacing" textLength="18.0908" x="1206.0161" y="591.9575">10</text><text fill="#000000" font-family="sans-serif" font-size="13" lengthAdjust="spacing" textLength="119.7104" x="1228.1069" y="591.9575">Courses with stats</text></g><g class="message" data-entity-1="part5" data-entity-2="part6" id="msg11"><polygon fill="#181818" points="1375.7891,622.1563,1385.7891,626.1563,1375.7891,630.1563,1379.7891,626.1563" style="stroke:#181818;stroke-width:1;"/><line style="stroke:#181818;stroke-width:1;" x1="1189.0161" x2="1381.7891" y1="626.1563" y2="626.1563"/><text fill="#000000" font-family="sans-serif" font-size="13" font-weight="bold" lengthAdjust="spacing" textLength="18.0908" x="1196.0161" y="621.0903">11</text><text fill="#000000" font-family="sans-serif" font-size="13" lengthAdjust="spacing" textLength="134.9067" x="1218.1069" y="621.0903">Get counts by status</text></g><g class="message" data-entity-1="part6" data-entity-2="part5" id="msg12"><polygon fill="#181818" points="1200.0161,651.2891,1190.0161,655.2891,1200.0161,659.2891,1196.0161,655.2891" style="stroke:#181818;stroke-width:1;"/><line style="stroke:#181818;stroke-width:1;stroke-dasharray:2,2;" x1="1194.0161" x2="1391.7891" y1="655.2891" y2="655.2891"/><text fill="#000000" font-family="sans-serif" font-size="13" font-weight="bold" lengthAdjust="spacing" textLength="18.0908" x="1206.0161" y="650.2231">12</text><text fill="#000000" font-family="sans-serif" font-size="13" lengthAdjust="spacing" textLength="89.0068" x="1228.1069" y="650.2231">Status counts</text></g><g class="message" data-entity-1="part5" data-entity-2="part4" id="msg13"><polygon fill="#181818" points="895.9668,680.4219,885.9668,684.4219,895.9668,688.4219,891.9668,684.4219" style="stroke:#181818;stroke-width:1;"/><line style="stroke:#181818;stroke-width:1;stroke-dasharray:2,2;" x1="889.9668" x2="1183.0161" y1="684.4219" y2="684.4219"/><text fill="#000000" font-family="sans-serif" font-size="13" font-weight="bold" lengthAdjust="spacing" textLength="18.0908" x="901.9668" y="679.356">13</text><text fill="#000000" font-family="sans-serif" font-size="13" lengthAdjust="spacing" textLength="247.9585" x="924.0576" y="679.356">{courses[], statusCounts, pagination}</text></g><g class="message" data-entity-1="part4" data-entity-2="part3" id="msg14"><polygon fill="#181818" points="646.5327,709.5547,636.5327,713.5547,646.5327,717.5547,642.5327,713.5547" style="stroke:#181818;stroke-width:1;"/><line style="stroke:#181818;stroke-width:1;stroke-dasharray:2,2;" x1="640.5327" x2="878.9668" y1="713.5547" y2="713.5547"/><text fill="#000000" font-family="sans-serif" font-size="13" font-weight="bold" lengthAdjust="spacing" textLength="18.0908" x="652.5327" y="708.4888">14</text><text fill="#000000" font-family="sans-serif" font-size="13" lengthAdjust="spacing" textLength="47.7026" x="674.6235" y="708.4888">200 OK</text></g><g class="message" data-entity-1="part3" data-entity-2="part2" id="msg15"><polygon fill="#181818" points="360.9678,738.6875,350.9678,742.6875,360.9678,746.6875,356.9678,742.6875" style="stroke:#181818;stroke-width:1;"/><line style="stroke:#181818;stroke-width:1;stroke-dasharray:2,2;" x1="354.9678" x2="629.5327" y1="742.6875" y2="742.6875"/><text fill="#000000" font-family="sans-serif" font-size="13" font-weight="bold" lengthAdjust="spacing" textLength="18.0908" x="366.9678" y="737.6216">15</text><text fill="#000000" font-family="sans-serif" font-size="13" lengthAdjust="spacing" textLength="112.4741" x="389.0586" y="737.6216">Admin course list</text></g><g class="message" data-entity-1="part2" data-entity-2="part1" id="msg16"><polygon fill="#181818" points="56.4321,798.0859,46.4321,802.0859,56.4321,806.0859,52.4321,802.0859" style="stroke:#181818;stroke-width:1;"/><line style="stroke:#181818;stroke-width:1;" x1="50.4321" x2="348.9678" y1="802.0859" y2="802.0859"/><text fill="#000000" font-family="sans-serif" font-size="13" font-weight="bold" lengthAdjust="spacing" textLength="18.0908" x="62.4321" y="781.8872">16</text><text fill="#000000" font-family="sans-serif" font-size="13" lengthAdjust="spacing" textLength="175.4302" x="84.5229" y="766.7544">Display courses table with:</text><text fill="#000000" font-family="sans-serif" font-size="13" lengthAdjust="spacing" textLength="253.7222" x="84.5229" y="781.8872">- Status tabs (pending, published, etc.)</text><text fill="#000000" font-family="sans-serif" font-size="13" lengthAdjust="spacing" textLength="255.0044" x="84.5229" y="797.02">- Action buttons (approve/decline/hide)</text></g><?plantuml-src XLHXJzim4FsUNt7Q94IdjXIsJzKAIjFImRg6jMKLMYRan0UrS9qkTWhLjF--ivtIW93sXUBpktVltft3IfEhSfLY4GJwGQWrAzWA-ldJ5UDSg7iuxWG1oqnUGCXNGW7J40PfNYhEYYqiC0tNQnjSX065d-1TU7K18sRmaMtVmVknk5-QlYmn0CXoPOfSle9GxcWHeE90wHL7b9U5HfXXiH4PxcXkKChyiKRa57biv4CI2wSmYcemZwXqHY7TS6POogY2lnhqtSsWlvSHGkkKUkh2X6t4FMa5arSE39XUfZahE9nM-Tew93OM5Ux_jOui7CzeqONHS0v7p18SPJufKMVQC5FgtfhAajS7QtQFlUC3ALR2z4uwUoeoQBJOCVrWKd0RlLpCcv0jCNi0HmpKBDAqf859RdoCcYKDdrijb_gfyn7Eyo8Ld6DrHQJKvHIvA30pjakMPQWr448WjsPXlQKNvp10IIvUwETYNYRvtxM57grB1VukKHkwtEVHVEXCFnOTaO0HcjbM6rnLZXxU2Mcmq8rw6isEZf4JJTFgmlSIQGahF-5Hc2LKUI_IQB1W_pxdpORZOJI7hFsXcIY0idrNIdchs0hj8WYbJL7QdNSX1udYwydy4Dk2Dom4bLss5IfpIzMLITJvDFxsh2HBr6LyCO5IanGe8PvGhHgjuD2Zge8dQZmyduC3xpc9lqgnE6nxsbiBNtmPJeTqmr6YGNxB35pCO78z7bkLuMG0XsUx2CHJGleT8vwpHg96q_Zw2letZZjHyNGmdFfZLY2h20V3MUHzjdlZ38lg5bj6_N8HhCKlHqC31MUDXdGBNiGRGwdLc7cXFkbDUhil3auBywVo-kUlPiKUkSGcq2iIYXcHgx-lM4A_e9R2RUX9fmFnrrShxJuTjJVZ7xsl1bAuHQxXwMdM7z90wBLa-vsaxun4PritKQrTZnJLS5WzUr9SfaIyHDu4D5cxOP5XPZk0j3JqWIOmMw-BV8D773Cf51uj1SV6Vr-dui4_?></g></svg>