<?plantuml 1.2026.1?><svg xmlns="http://www.w3.org/2000/svg" xmlns:xlink="http://www.w3.org/1999/xlink" contentStyleType="text/css" data-diagram-type="SEQUENCE" height="1151px" preserveAspectRatio="none" style="width:1554px;height:1151px;background:#FFFFFF;" version="1.1" viewBox="0 0 1554 1151" width="1554px" zoomAndPan="magnify"><defs/><g><rect fill="#ADD8E6" height="1139.4531" style="stroke:#181818;stroke-width:0.5;" width="102.4434" x="472.082" y="6"/><text fill="#000000" font-family="sans-serif" font-size="13" font-weight="bold" lengthAdjust="spacing" textLength="92.6821" x="476.9626" y="18.0669">API Gateway</text><rect fill="#FFFFE0" height="1139.4531" style="stroke:#181818;stroke-width:0.5;" width="813.0181" x="718.6675" y="6"/><text fill="#000000" font-family="sans-serif" font-size="13" font-weight="bold" lengthAdjust="spacing" textLength="109.2622" x="1070.5454" y="18.0669">Course Service</text><g><title>Instructor</title><rect fill="#FFFFFF" height="915.5938" style="stroke:#181818;stroke-width:1;" width="10" x="61.9609" y="118.5625"/></g><g><title>WebApp</title><rect fill="#FFFFFF" height="915.5938" style="stroke:#181818;stroke-width:1;" width="10" x="283.5898" y="118.5625"/></g><g><title>API Gateway</title><rect fill="#FFFFFF" height="269.1953" style="stroke:#181818;stroke-width:1;" width="10" x="518.3037" y="388.5625"/></g><g><title>CourseController</title><rect fill="#FFFFFF" height="168.7969" style="stroke:#181818;stroke-width:1;" width="10" x="779.6924" y="459.8281"/></g><g><title>CourseApp</title><rect fill="#FFFFFF" height="442.6641" style="stroke:#181818;stroke-width:1;" width="10" x="951.3887" y="488.9609"/></g><g><title>Course</title><rect fill="#FFFFFF" height="71.2656" style="stroke:#181818;stroke-width:1;" width="10" x="1263.3979" y="772.9609"/></g><g><title>CourseDB</title><rect fill="#FFFFFF" height="29.1328" style="stroke:#181818;stroke-width:1;" width="10" x="1485.0547" y="873.3594"/></g><rect fill="none" height="757.9297" style="stroke:#000000;stroke-width:1.5;" width="1537.6855" x="10" y="291.2266"/><rect fill="none" height="480.9297" style="stroke:#000000;stroke-width:1.5;" width="1517.6855" x="20" y="561.2266"/><g class="participant-lifeline" data-entity-uid="part1" data-qualified-name="I" id="part1-lifeline"><g><title>Instructor</title><rect fill="#000000" fill-opacity="0.00000" height="978.7266" width="8" x="62.9609" y="87.4297"/><line style="stroke:#181818;stroke-width:0.5;stroke-dasharray:5,5;" x1="66" x2="66" y1="87.4297" y2="1066.1563"/></g></g><g class="participant-lifeline" data-entity-uid="part2" data-qualified-name="WA" id="part2-lifeline"><g><title>WebApp</title><rect fill="#000000" fill-opacity="0.00000" height="978.7266" width="8" x="284.5898" y="87.4297"/><line style="stroke:#181818;stroke-width:0.5;stroke-dasharray:5,5;" x1="288.2432" x2="288.2432" y1="87.4297" y2="1066.1563"/></g></g><g class="participant-lifeline" data-entity-uid="part3" data-qualified-name="GW" id="part3-lifeline"><g><title>API Gateway</title><rect fill="#000000" fill-opacity="0.00000" height="978.7266" width="8" x="519.3037" y="87.4297"/><line style="stroke:#181818;stroke-width:0.5;stroke-dasharray:5,5;" x1="523.082" x2="523.082" y1="87.4297" y2="1066.1563"/></g></g><g class="participant-lifeline" data-entity-uid="part4" data-qualified-name="CC" id="part4-lifeline"><g><title>CourseController</title><rect fill="#000000" fill-opacity="0.00000" height="978.7266" width="8" x="780.6924" y="87.4297"/><line style="stroke:#181818;stroke-width:0.5;stroke-dasharray:5,5;" x1="784.6675" x2="784.6675" y1="87.4297" y2="1066.1563"/></g></g><g class="participant-lifeline" data-entity-uid="part5" data-qualified-name="CA" id="part5-lifeline"><g><title>CourseApp</title><rect fill="#000000" fill-opacity="0.00000" height="978.7266" width="8" x="952.3887" y="87.4297"/><line style="stroke:#181818;stroke-width:0.5;stroke-dasharray:5,5;" x1="956.2749" x2="956.2749" y1="87.4297" y2="1066.1563"/></g></g><g class="participant-lifeline" data-entity-uid="part6" data-qualified-name="C" id="part6-lifeline"><g><title>Course</title><rect fill="#000000" fill-opacity="0.00000" height="978.7266" width="8" x="1264.3979" y="87.4297"/><line style="stroke:#181818;stroke-width:0.5;stroke-dasharray:5,5;" x1="1267.9595" x2="1267.9595" y1="87.4297" y2="1066.1563"/></g></g><g class="participant-lifeline" data-entity-uid="part7" data-qualified-name="CDB" id="part7-lifeline"><g><title>CourseDB</title><rect fill="#000000" fill-opacity="0.00000" height="978.7266" width="8" x="1486.0547" y="87.4297"/><line style="stroke:#181818;stroke-width:0.5;stroke-dasharray:5,5;" x1="1489.4238" x2="1489.4238" y1="87.4297" y2="1066.1563"/></g></g><g class="participant participant-head" data-entity-uid="part1" data-qualified-name="I" id="part1-head"><text fill="#000000" font-family="sans-serif" font-size="14" lengthAdjust="spacing" textLength="67.9219" x="30" y="84.1279">Instructor</text><ellipse cx="66.9609" cy="19.6328" fill="#E2E2F0" rx="8" ry="8" style="stroke:#181818;stroke-width:0.5;"/><path d="M66.9609,27.6328 L66.9609,54.6328 M53.9609,35.6328 L79.9609,35.6328 M66.9609,54.6328 L53.9609,69.6328 M66.9609,54.6328 L79.9609,69.6328" fill="none" style="stroke:#181818;stroke-width:0.5;"/></g><g class="participant participant-tail" data-entity-uid="part1" data-qualified-name="I" id="part1-tail"><text fill="#000000" font-family="sans-serif" font-size="14" lengthAdjust="spacing" textLength="67.9219" x="30" y="1078.1514">Instructor</text><ellipse cx="66.9609" cy="1089.9531" fill="#E2E2F0" rx="8" ry="8" style="stroke:#181818;stroke-width:0.5;"/><path d="M66.9609,1097.9531 L66.9609,1124.9531 M53.9609,1105.9531 L79.9609,1105.9531 M66.9609,1124.9531 L53.9609,1139.9531 M66.9609,1124.9531 L79.9609,1139.9531" fill="none" style="stroke:#181818;stroke-width:0.5;"/></g><g class="participant participant-head" data-entity-uid="part2" data-qualified-name="WA" id="part2-head"><text fill="#000000" font-family="sans-serif" font-size="14" lengthAdjust="spacing" textLength="58.6934" x="256.2432" y="84.1279">WebApp</text><path d="M268.0898,43.1328 L268.0898,67.1328 M268.0898,55.1328 L285.0898,55.1328" fill="none" style="stroke:#181818;stroke-width:0.5;"/><ellipse cx="297.0898" cy="55.1328" fill="#E2E2F0" rx="12" ry="12" style="stroke:#181818;stroke-width:0.5;"/></g><g class="participant participant-tail" data-entity-uid="part2" data-qualified-name="WA" id="part2-tail"><text fill="#000000" font-family="sans-serif" font-size="14" lengthAdjust="spacing" textLength="58.6934" x="256.2432" y="1078.1514">WebApp</text><path d="M268.0898,1085.4531 L268.0898,1109.4531 M268.0898,1097.4531 L285.0898,1097.4531" fill="none" style="stroke:#181818;stroke-width:0.5;"/><ellipse cx="297.0898" cy="1097.4531" fill="#E2E2F0" rx="12" ry="12" style="stroke:#181818;stroke-width:0.5;"/></g><g class="participant participant-head" data-entity-uid="part3" data-qualified-name="GW" id="part3-head"><text fill="#000000" font-family="sans-serif" font-size="14" lengthAdjust="spacing" textLength="88.4434" x="476.082" y="84.1279">API Gateway</text><ellipse cx="523.3037" cy="55.1328" fill="#E2E2F0" rx="12" ry="12" style="stroke:#181818;stroke-width:0.5;"/><polygon fill="#181818" points="519.3037,43.1328,525.3037,38.1328,523.3037,43.1328,525.3037,48.1328,519.3037,43.1328" style="stroke:#181818;stroke-width:1;"/></g><g class="participant participant-tail" data-entity-uid="part3" data-qualified-name="GW" id="part3-tail"><text fill="#000000" font-family="sans-serif" font-size="14" lengthAdjust="spacing" textLength="88.4434" x="476.082" y="1078.1514">API Gateway</text><ellipse cx="523.3037" cy="1097.4531" fill="#E2E2F0" rx="12" ry="12" style="stroke:#181818;stroke-width:0.5;"/><polygon fill="#181818" points="519.3037,1085.4531,525.3037,1080.4531,523.3037,1085.4531,525.3037,1090.4531,519.3037,1085.4531" style="stroke:#181818;stroke-width:1;"/></g><g class="participant participant-head" data-entity-uid="part4" data-qualified-name="CC" id="part4-head"><text fill="#000000" font-family="sans-serif" font-size="14" lengthAdjust="spacing" textLength="118.0498" x="722.6675" y="84.1279">CourseController</text><ellipse cx="784.6924" cy="55.1328" fill="#E2E2F0" rx="12" ry="12" style="stroke:#181818;stroke-width:0.5;"/><polygon fill="#181818" points="780.6924,43.1328,786.6924,38.1328,784.6924,43.1328,786.6924,48.1328,780.6924,43.1328" style="stroke:#181818;stroke-width:1;"/></g><g class="participant participant-tail" data-entity-uid="part4" data-qualified-name="CC" id="part4-tail"><text fill="#000000" font-family="sans-serif" font-size="14" lengthAdjust="spacing" textLength="118.0498" x="722.6675" y="1078.1514">CourseController</text><ellipse cx="784.6924" cy="1097.4531" fill="#E2E2F0" rx="12" ry="12" style="stroke:#181818;stroke-width:0.5;"/><polygon fill="#181818" points="780.6924,1085.4531,786.6924,1080.4531,784.6924,1085.4531,786.6924,1090.4531,780.6924,1085.4531" style="stroke:#181818;stroke-width:1;"/></g><g class="participant participant-head" data-entity-uid="part5" data-qualified-name="CA" id="part5-head"><text fill="#000000" font-family="sans-serif" font-size="14" lengthAdjust="spacing" textLength="76.2275" x="915.2749" y="84.1279">CourseApp</text><ellipse cx="956.3887" cy="55.1328" fill="#E2E2F0" rx="12" ry="12" style="stroke:#181818;stroke-width:0.5;"/><polygon fill="#181818" points="952.3887,43.1328,958.3887,38.1328,956.3887,43.1328,958.3887,48.1328,952.3887,43.1328" style="stroke:#181818;stroke-width:1;"/></g><g class="participant participant-tail" data-entity-uid="part5" data-qualified-name="CA" id="part5-tail"><text fill="#000000" font-family="sans-serif" font-size="14" lengthAdjust="spacing" textLength="76.2275" x="915.2749" y="1078.1514">CourseApp</text><ellipse cx="956.3887" cy="1097.4531" fill="#E2E2F0" rx="12" ry="12" style="stroke:#181818;stroke-width:0.5;"/><polygon fill="#181818" points="952.3887,1085.4531,958.3887,1080.4531,956.3887,1085.4531,958.3887,1090.4531,952.3887,1085.4531" style="stroke:#181818;stroke-width:1;"/></g><g class="participant participant-head" data-entity-uid="part6" data-qualified-name="C" id="part6-head"><text fill="#000000" font-family="sans-serif" font-size="14" lengthAdjust="spacing" textLength="48.877" x="1240.9595" y="84.1279">Course</text><ellipse cx="1268.3979" cy="55.1328" fill="#E2E2F0" rx="12" ry="12" style="stroke:#181818;stroke-width:0.5;"/><line style="stroke:#181818;stroke-width:0.5;" x1="1256.3979" x2="1280.3979" y1="69.1328" y2="69.1328"/></g><g class="participant participant-tail" data-entity-uid="part6" data-qualified-name="C" id="part6-tail"><text fill="#000000" font-family="sans-serif" font-size="14" lengthAdjust="spacing" textLength="48.877" x="1240.9595" y="1078.1514">Course</text><ellipse cx="1268.3979" cy="1097.4531" fill="#E2E2F0" rx="12" ry="12" style="stroke:#181818;stroke-width:0.5;"/><line style="stroke:#181818;stroke-width:0.5;" x1="1256.3979" x2="1280.3979" y1="1111.4531" y2="1111.4531"/></g><g class="participant participant-head" data-entity-uid="part7" data-qualified-name="CDB" id="part7-head"><text fill="#000000" font-family="sans-serif" font-size="14" lengthAdjust="spacing" textLength="69.2617" x="1452.4238" y="84.1279">CourseDB</text><path d="M1472.0547,35.1328 C1472.0547,25.1328 1490.0547,25.1328 1490.0547,25.1328 C1490.0547,25.1328 1508.0547,25.1328 1508.0547,35.1328 L1508.0547,61.1328 C1508.0547,71.1328 1490.0547,71.1328 1490.0547,71.1328 C1490.0547,71.1328 1472.0547,71.1328 1472.0547,61.1328 L1472.0547,35.1328" fill="#E2E2F0" style="stroke:#181818;stroke-width:0.5;"/><path d="M1472.0547,35.1328 C1472.0547,45.1328 1490.0547,45.1328 1490.0547,45.1328 C1490.0547,45.1328 1508.0547,45.1328 1508.0547,35.1328" fill="none" style="stroke:#181818;stroke-width:0.5;"/></g><g class="participant participant-tail" data-entity-uid="part7" data-qualified-name="CDB" id="part7-tail"><text fill="#000000" font-family="sans-serif" font-size="14" lengthAdjust="spacing" textLength="69.2617" x="1452.4238" y="1078.1514">CourseDB</text><path d="M1472.0547,1091.4531 C1472.0547,1081.4531 1490.0547,1081.4531 1490.0547,1081.4531 C1490.0547,1081.4531 1508.0547,1081.4531 1508.0547,1091.4531 L1508.0547,1117.4531 C1508.0547,1127.4531 1490.0547,1127.4531 1490.0547,1127.4531 C1490.0547,1127.4531 1472.0547,1127.4531 1472.0547,1117.4531 L1472.0547,1091.4531" fill="#E2E2F0" style="stroke:#181818;stroke-width:0.5;"/><path d="M1472.0547,1091.4531 C1472.0547,1101.4531 1490.0547,1101.4531 1490.0547,1101.4531 C1490.0547,1101.4531 1508.0547,1101.4531 1508.0547,1091.4531" fill="none" style="stroke:#181818;stroke-width:0.5;"/></g><g><title>Instructor</title><rect fill="#FFFFFF" height="915.5938" style="stroke:#181818;stroke-width:1;" width="10" x="61.9609" y="118.5625"/></g><g><title>WebApp</title><rect fill="#FFFFFF" height="915.5938" style="stroke:#181818;stroke-width:1;" width="10" x="283.5898" y="118.5625"/></g><g><title>API Gateway</title><rect fill="#FFFFFF" height="269.1953" style="stroke:#181818;stroke-width:1;" width="10" x="518.3037" y="388.5625"/></g><g><title>CourseController</title><rect fill="#FFFFFF" height="168.7969" style="stroke:#181818;stroke-width:1;" width="10" x="779.6924" y="459.8281"/></g><g><title>CourseApp</title><rect fill="#FFFFFF" height="442.6641" style="stroke:#181818;stroke-width:1;" width="10" x="951.3887" y="488.9609"/></g><g><title>Course</title><rect fill="#FFFFFF" height="71.2656" style="stroke:#181818;stroke-width:1;" width="10" x="1263.3979" y="772.9609"/></g><g><title>CourseDB</title><rect fill="#FFFFFF" height="29.1328" style="stroke:#181818;stroke-width:1;" width="10" x="1485.0547" y="873.3594"/></g><g class="message" data-entity-1="part1" data-entity-2="part2" id="msg1"><polygon fill="#181818" points="271.5898,114.5625,281.5898,118.5625,271.5898,122.5625,275.5898,118.5625" style="stroke:#181818;stroke-width:1;"/><line style="stroke:#181818;stroke-width:1;" x1="71.9609" x2="277.5898" y1="118.5625" y2="118.5625"/><text fill="#000000" font-family="sans-serif" font-size="13" font-weight="bold" lengthAdjust="spacing" textLength="9.0454" x="78.9609" y="113.4966">1</text><text fill="#000000" font-family="sans-serif" font-size="13" lengthAdjust="spacing" textLength="184.5835" x="92.0063" y="113.4966">Navigate to "Create Course"</text></g><g class="message" data-entity-1="part2" data-entity-2="part2" id="msg2"><line style="stroke:#181818;stroke-width:1;" x1="293.5898" x2="335.5898" y1="147.6953" y2="147.6953"/><line style="stroke:#181818;stroke-width:1;" x1="335.5898" x2="335.5898" y1="147.6953" y2="160.6953"/><line style="stroke:#181818;stroke-width:1;" x1="294.5898" x2="335.5898" y1="160.6953" y2="160.6953"/><polygon fill="#181818" points="304.5898,156.6953,294.5898,160.6953,304.5898,164.6953,300.5898,160.6953" style="stroke:#181818;stroke-width:1;"/><text fill="#000000" font-family="sans-serif" font-size="13" font-weight="bold" lengthAdjust="spacing" textLength="9.0454" x="300.5898" y="142.6294">2</text><text fill="#000000" font-family="sans-serif" font-size="13" lengthAdjust="spacing" textLength="187.6685" x="313.6353" y="142.6294">Display course creation form</text></g><g class="message" data-entity-1="part1" data-entity-2="part2" id="msg3"><polygon fill="#181818" points="271.5898,200.9609,281.5898,204.9609,271.5898,208.9609,275.5898,204.9609" style="stroke:#181818;stroke-width:1;"/><line style="stroke:#181818;stroke-width:1;" x1="71.9609" x2="277.5898" y1="204.9609" y2="204.9609"/><text fill="#000000" font-family="sans-serif" font-size="13" font-weight="bold" lengthAdjust="spacing" textLength="9.0454" x="78.9609" y="192.3286">3</text><text fill="#000000" font-family="sans-serif" font-size="13" lengthAdjust="spacing" textLength="110.9951" x="92.0063" y="184.7622">Enter course info</text><text fill="#000000" font-family="sans-serif" font-size="13" lengthAdjust="spacing" textLength="156.7236" x="92.0063" y="199.895">(title, description, price)</text></g><g class="message" data-entity-1="part1" data-entity-2="part2" id="msg4"><polygon fill="#181818" points="271.5898,230.0938,281.5898,234.0938,271.5898,238.0938,275.5898,234.0938" style="stroke:#181818;stroke-width:1;"/><line style="stroke:#181818;stroke-width:1;" x1="71.9609" x2="277.5898" y1="234.0938" y2="234.0938"/><text fill="#000000" font-family="sans-serif" font-size="13" font-weight="bold" lengthAdjust="spacing" textLength="9.0454" x="78.9609" y="229.0278">4</text><text fill="#000000" font-family="sans-serif" font-size="13" lengthAdjust="spacing" textLength="140.0674" x="92.0063" y="229.0278">Click "Create Course"</text></g><g class="message" data-entity-1="part2" data-entity-2="part2" id="msg5"><line style="stroke:#181818;stroke-width:1;" x1="293.5898" x2="335.5898" y1="263.2266" y2="263.2266"/><line style="stroke:#181818;stroke-width:1;" x1="335.5898" x2="335.5898" y1="263.2266" y2="276.2266"/><line style="stroke:#181818;stroke-width:1;" x1="294.5898" x2="335.5898" y1="276.2266" y2="276.2266"/><polygon fill="#181818" points="304.5898,272.2266,294.5898,276.2266,304.5898,280.2266,300.5898,276.2266" style="stroke:#181818;stroke-width:1;"/><text fill="#000000" font-family="sans-serif" font-size="13" font-weight="bold" lengthAdjust="spacing" textLength="9.0454" x="300.5898" y="258.1606">5</text><text fill="#000000" font-family="sans-serif" font-size="13" lengthAdjust="spacing" textLength="138.7026" x="313.6353" y="258.1606">Validate input format</text></g><path d="M10,291.2266 L74.4429,291.2266 L74.4429,298.3594 L64.4429,308.3594 L10,308.3594 L10,291.2266" fill="#EEEEEE" style="stroke:#000000;stroke-width:1.5;"/><rect fill="none" height="757.9297" style="stroke:#000000;stroke-width:1.5;" width="1537.6855" x="10" y="291.2266"/><text fill="#000000" font-family="sans-serif" font-size="13" font-weight="bold" lengthAdjust="spacing" textLength="19.4429" x="25" y="304.2935">alt</text><text fill="#000000" font-family="sans-serif" font-size="11" font-weight="bold" lengthAdjust="spacing" textLength="134.1216" x="89.4429" y="303.437">[Invalid input format]</text><g class="message" data-entity-1="part2" data-entity-2="part1" id="msg6"><polygon fill="#181818" points="82.9609,325.4922,72.9609,329.4922,82.9609,333.4922,78.9609,329.4922" style="stroke:#181818;stroke-width:1;"/><line style="stroke:#181818;stroke-width:1;" x1="76.9609" x2="282.5898" y1="329.4922" y2="329.4922"/><text fill="#000000" font-family="sans-serif" font-size="13" font-weight="bold" lengthAdjust="spacing" textLength="9.0454" x="88.9609" y="324.4263">6</text><text fill="#000000" font-family="sans-serif" font-size="13" lengthAdjust="spacing" textLength="158.9453" x="102.0063" y="324.4263">Display validation errors</text></g><line style="stroke:#000000;stroke-width:1;stroke-dasharray:2,2;" x1="10" x2="1547.6855" y1="338.4922" y2="338.4922"/><text fill="#000000" font-family="sans-serif" font-size="11" font-weight="bold" lengthAdjust="spacing" textLength="87.146" x="15" y="348.7026">[Valid format]</text><g class="message" data-entity-1="part2" data-entity-2="part3" id="msg7"><polygon fill="#181818" points="506.3037,384.5625,516.3037,388.5625,506.3037,392.5625,510.3037,388.5625" style="stroke:#181818;stroke-width:1;"/><line style="stroke:#181818;stroke-width:1;" x1="293.5898" x2="512.3037" y1="388.5625" y2="388.5625"/><text fill="#000000" font-family="sans-serif" font-size="13" font-weight="bold" lengthAdjust="spacing" textLength="9.0454" x="300.5898" y="375.9302">7</text><text fill="#000000" font-family="sans-serif" font-size="13" lengthAdjust="spacing" textLength="93.0059" x="313.6353" y="368.3638">POST /courses</text><text fill="#000000" font-family="sans-serif" font-size="13" lengthAdjust="spacing" textLength="163.1221" x="313.6353" y="383.4966">{title, description, price}</text></g><g class="message" data-entity-1="part3" data-entity-2="part3" id="msg8"><line style="stroke:#181818;stroke-width:1;" x1="528.3037" x2="570.3037" y1="417.6953" y2="417.6953"/><line style="stroke:#181818;stroke-width:1;" x1="570.3037" x2="570.3037" y1="417.6953" y2="430.6953"/><line style="stroke:#181818;stroke-width:1;" x1="529.3037" x2="570.3037" y1="430.6953" y2="430.6953"/><polygon fill="#181818" points="539.3037,426.6953,529.3037,430.6953,539.3037,434.6953,535.3037,430.6953" style="stroke:#181818;stroke-width:1;"/><text fill="#000000" font-family="sans-serif" font-size="13" font-weight="bold" lengthAdjust="spacing" textLength="9.0454" x="535.3037" y="412.6294">8</text><text fill="#000000" font-family="sans-serif" font-size="13" lengthAdjust="spacing" textLength="176.7314" x="548.3491" y="412.6294">Extract JWT, validate token</text></g><g class="message" data-entity-1="part3" data-entity-2="part4" id="msg9"><polygon fill="#181818" points="767.6924,455.8281,777.6924,459.8281,767.6924,463.8281,771.6924,459.8281" style="stroke:#181818;stroke-width:1;"/><line style="stroke:#181818;stroke-width:1;" x1="528.3037" x2="773.6924" y1="459.8281" y2="459.8281"/><text fill="#000000" font-family="sans-serif" font-size="13" font-weight="bold" lengthAdjust="spacing" textLength="9.0454" x="535.3037" y="454.7622">9</text><text fill="#000000" font-family="sans-serif" font-size="13" lengthAdjust="spacing" textLength="219.3433" x="548.3491" y="454.7622">Forward request with instructorID</text></g><g class="message" data-entity-1="part4" data-entity-2="part5" id="msg10"><polygon fill="#181818" points="939.3887,484.9609,949.3887,488.9609,939.3887,492.9609,943.3887,488.9609" style="stroke:#181818;stroke-width:1;"/><line style="stroke:#181818;stroke-width:1;" x1="789.6924" x2="945.3887" y1="488.9609" y2="488.9609"/><text fill="#000000" font-family="sans-serif" font-size="13" font-weight="bold" lengthAdjust="spacing" textLength="18.0908" x="796.6924" y="483.895">10</text><text fill="#000000" font-family="sans-serif" font-size="13" lengthAdjust="spacing" textLength="120.6055" x="818.7832" y="483.895">CreateCourse(req)</text></g><g class="message" data-entity-1="part5" data-entity-2="part5" id="msg11"><line style="stroke:#181818;stroke-width:1;" x1="961.3887" x2="1003.3887" y1="533.2266" y2="533.2266"/><line style="stroke:#181818;stroke-width:1;" x1="1003.3887" x2="1003.3887" y1="533.2266" y2="546.2266"/><line style="stroke:#181818;stroke-width:1;" x1="962.3887" x2="1003.3887" y1="546.2266" y2="546.2266"/><polygon fill="#181818" points="972.3887,542.2266,962.3887,546.2266,972.3887,550.2266,968.3887,546.2266" style="stroke:#181818;stroke-width:1;"/><text fill="#000000" font-family="sans-serif" font-size="13" font-weight="bold" lengthAdjust="spacing" textLength="18.0908" x="968.3887" y="520.5942">11</text><text fill="#000000" font-family="sans-serif" font-size="13" lengthAdjust="spacing" textLength="150.2871" x="990.4795" y="513.0278">Validate business rules</text><text fill="#000000" font-family="sans-serif" font-size="13" lengthAdjust="spacing" textLength="255.9185" x="990.4795" y="528.1606">(title unique per instructor, price &gt;= 0)</text></g><path d="M20,561.2266 L84.4429,561.2266 L84.4429,568.3594 L74.4429,578.3594 L20,578.3594 L20,561.2266" fill="#EEEEEE" style="stroke:#000000;stroke-width:1.5;"/><rect fill="none" height="480.9297" style="stroke:#000000;stroke-width:1.5;" width="1517.6855" x="20" y="561.2266"/><text fill="#000000" font-family="sans-serif" font-size="13" font-weight="bold" lengthAdjust="spacing" textLength="19.4429" x="35" y="574.2935">alt</text><text fill="#000000" font-family="sans-serif" font-size="11" font-weight="bold" lengthAdjust="spacing" textLength="169.5654" x="99.4429" y="573.437">[Business validation failed]</text><g class="message" data-entity-1="part5" data-entity-2="part4" id="msg12"><polygon fill="#181818" points="800.6924,595.4922,790.6924,599.4922,800.6924,603.4922,796.6924,599.4922" style="stroke:#181818;stroke-width:1;"/><line style="stroke:#181818;stroke-width:1;stroke-dasharray:2,2;" x1="794.6924" x2="950.3887" y1="599.4922" y2="599.4922"/><text fill="#000000" font-family="sans-serif" font-size="13" font-weight="bold" lengthAdjust="spacing" textLength="18.0908" x="806.6924" y="594.4263">12</text><text fill="#000000" font-family="sans-serif" font-size="13" lengthAdjust="spacing" textLength="101.3213" x="828.7832" y="594.4263">Validation error</text></g><g class="message" data-entity-1="part4" data-entity-2="part3" id="msg13"><polygon fill="#181818" points="539.3037,624.625,529.3037,628.625,539.3037,632.625,535.3037,628.625" style="stroke:#181818;stroke-width:1;"/><line style="stroke:#181818;stroke-width:1;stroke-dasharray:2,2;" x1="533.3037" x2="783.6924" y1="628.625" y2="628.625"/><text fill="#000000" font-family="sans-serif" font-size="13" font-weight="bold" lengthAdjust="spacing" textLength="18.0908" x="545.3037" y="623.5591">13</text><text fill="#000000" font-family="sans-serif" font-size="13" lengthAdjust="spacing" textLength="111.6045" x="567.3945" y="623.5591">400 Bad Request</text></g><g class="message" data-entity-1="part3" data-entity-2="part2" id="msg14"><polygon fill="#181818" points="304.5898,653.7578,294.5898,657.7578,304.5898,661.7578,300.5898,657.7578" style="stroke:#181818;stroke-width:1;"/><line style="stroke:#181818;stroke-width:1;stroke-dasharray:2,2;" x1="298.5898" x2="522.3037" y1="657.7578" y2="657.7578"/><text fill="#000000" font-family="sans-serif" font-size="13" font-weight="bold" lengthAdjust="spacing" textLength="18.0908" x="310.5898" y="652.6919">14</text><text fill="#000000" font-family="sans-serif" font-size="13" lengthAdjust="spacing" textLength="95.6655" x="332.6807" y="652.6919">Error response</text></g><g class="message" data-entity-1="part2" data-entity-2="part1" id="msg15"><polygon fill="#181818" points="82.9609,682.8906,72.9609,686.8906,82.9609,690.8906,78.9609,686.8906" style="stroke:#181818;stroke-width:1;"/><line style="stroke:#181818;stroke-width:1;" x1="76.9609" x2="282.5898" y1="686.8906" y2="686.8906"/><text fill="#000000" font-family="sans-serif" font-size="13" font-weight="bold" lengthAdjust="spacing" textLength="18.0908" x="88.9609" y="681.8247">15</text><text fill="#000000" font-family="sans-serif" font-size="13" lengthAdjust="spacing" textLength="146.5928" x="111.0518" y="681.8247">Display error message</text></g><line style="stroke:#000000;stroke-width:1;stroke-dasharray:2,2;" x1="20" x2="1537.6855" y1="695.8906" y2="695.8906"/><text fill="#000000" font-family="sans-serif" font-size="11" font-weight="bold" lengthAdjust="spacing" textLength="120.8013" x="25" y="706.1011">[Validation passed]</text><g class="message" data-entity-1="part5" data-entity-2="part5" id="msg16"><line style="stroke:#181818;stroke-width:1;" x1="961.3887" x2="1003.3887" y1="730.8281" y2="730.8281"/><line style="stroke:#181818;stroke-width:1;" x1="1003.3887" x2="1003.3887" y1="730.8281" y2="743.8281"/><line style="stroke:#181818;stroke-width:1;" x1="962.3887" x2="1003.3887" y1="743.8281" y2="743.8281"/><polygon fill="#181818" points="972.3887,739.8281,962.3887,743.8281,972.3887,747.8281,968.3887,743.8281" style="stroke:#181818;stroke-width:1;"/><text fill="#000000" font-family="sans-serif" font-size="13" font-weight="bold" lengthAdjust="spacing" textLength="18.0908" x="968.3887" y="725.7622">16</text><text fill="#000000" font-family="sans-serif" font-size="13" lengthAdjust="spacing" textLength="155.9429" x="990.4795" y="725.7622">Generate slug from title</text></g><g class="message" data-entity-1="part5" data-entity-2="part6" id="msg17"><polygon fill="#181818" points="1251.3979,768.9609,1261.3979,772.9609,1251.3979,776.9609,1255.3979,772.9609" style="stroke:#181818;stroke-width:1;"/><line style="stroke:#181818;stroke-width:1;" x1="961.3887" x2="1257.3979" y1="772.9609" y2="772.9609"/><text fill="#000000" font-family="sans-serif" font-size="13" font-weight="bold" lengthAdjust="spacing" textLength="18.0908" x="968.3887" y="767.895">17</text><text fill="#000000" font-family="sans-serif" font-size="13" lengthAdjust="spacing" textLength="195.2603" x="990.4795" y="767.895">Create new Course aggregate</text></g><g class="message" data-entity-1="part6" data-entity-2="part6" id="msg18"><line style="stroke:#181818;stroke-width:1;" x1="1273.3979" x2="1315.3979" y1="802.0938" y2="802.0938"/><line style="stroke:#181818;stroke-width:1;" x1="1315.3979" x2="1315.3979" y1="802.0938" y2="815.0938"/><line style="stroke:#181818;stroke-width:1;" x1="1274.3979" x2="1315.3979" y1="815.0938" y2="815.0938"/><polygon fill="#181818" points="1284.3979,811.0938,1274.3979,815.0938,1284.3979,819.0938,1280.3979,815.0938" style="stroke:#181818;stroke-width:1;"/><text fill="#000000" font-family="sans-serif" font-size="13" font-weight="bold" lengthAdjust="spacing" textLength="18.0908" x="1280.3979" y="797.0278">18</text><text fill="#000000" font-family="sans-serif" font-size="13" lengthAdjust="spacing" textLength="165.5659" x="1302.4888" y="797.0278">Initialize with draft status</text></g><g class="message" data-entity-1="part6" data-entity-2="part5" id="msg19"><polygon fill="#181818" points="972.3887,840.2266,962.3887,844.2266,972.3887,848.2266,968.3887,844.2266" style="stroke:#181818;stroke-width:1;"/><line style="stroke:#181818;stroke-width:1;stroke-dasharray:2,2;" x1="966.3887" x2="1267.3979" y1="844.2266" y2="844.2266"/><text fill="#000000" font-family="sans-serif" font-size="13" font-weight="bold" lengthAdjust="spacing" textLength="18.0908" x="978.3887" y="839.1606">19</text><text fill="#000000" font-family="sans-serif" font-size="13" lengthAdjust="spacing" textLength="87.2549" x="1000.4795" y="839.1606">Course entity</text></g><g class="message" data-entity-1="part5" data-entity-2="part7" id="msg20"><polygon fill="#181818" points="1473.0547,869.3594,1483.0547,873.3594,1473.0547,877.3594,1477.0547,873.3594" style="stroke:#181818;stroke-width:1;"/><line style="stroke:#181818;stroke-width:1;" x1="961.3887" x2="1479.0547" y1="873.3594" y2="873.3594"/><text fill="#000000" font-family="sans-serif" font-size="13" font-weight="bold" lengthAdjust="spacing" textLength="18.0908" x="968.3887" y="868.2935">20</text><text fill="#000000" font-family="sans-serif" font-size="13" lengthAdjust="spacing" textLength="79.498" x="990.4795" y="868.2935">Save course</text></g><g class="message" data-entity-1="part7" data-entity-2="part5" id="msg21"><polygon fill="#181818" points="972.3887,898.4922,962.3887,902.4922,972.3887,906.4922,968.3887,902.4922" style="stroke:#181818;stroke-width:1;"/><line style="stroke:#181818;stroke-width:1;stroke-dasharray:2,2;" x1="966.3887" x2="1489.0547" y1="902.4922" y2="902.4922"/><text fill="#000000" font-family="sans-serif" font-size="13" font-weight="bold" lengthAdjust="spacing" textLength="18.0908" x="978.3887" y="897.4263">21</text><text fill="#000000" font-family="sans-serif" font-size="13" lengthAdjust="spacing" textLength="137.8901" x="1000.4795" y="897.4263">Course saved with ID</text></g><g class="message" data-entity-1="part5" data-entity-2="part4" id="msg22"><polygon fill="#181818" points="795.6924,927.625,785.6924,931.625,795.6924,935.625,791.6924,931.625" style="stroke:#181818;stroke-width:1;"/><line style="stroke:#181818;stroke-width:1;stroke-dasharray:2,2;" x1="789.6924" x2="955.3887" y1="931.625" y2="931.625"/><text fill="#000000" font-family="sans-serif" font-size="13" font-weight="bold" lengthAdjust="spacing" textLength="18.0908" x="801.6924" y="926.5591">22</text><text fill="#000000" font-family="sans-serif" font-size="13" lengthAdjust="spacing" textLength="73.5693" x="823.7832" y="926.5591">CourseDTO</text></g><g class="message" data-entity-1="part4" data-entity-2="part3" id="msg23"><polygon fill="#181818" points="534.3037,971.8906,524.3037,975.8906,534.3037,979.8906,530.3037,975.8906" style="stroke:#181818;stroke-width:1;"/><line style="stroke:#181818;stroke-width:1;stroke-dasharray:2,2;" x1="528.3037" x2="783.6924" y1="975.8906" y2="975.8906"/><text fill="#000000" font-family="sans-serif" font-size="13" font-weight="bold" lengthAdjust="spacing" textLength="18.0908" x="540.3037" y="963.2583">23</text><text fill="#000000" font-family="sans-serif" font-size="13" lengthAdjust="spacing" textLength="80.6787" x="562.3945" y="955.6919">201 Created</text><text fill="#000000" font-family="sans-serif" font-size="13" lengthAdjust="spacing" textLength="107.2246" x="562.3945" y="970.8247">{courseId, slug}</text></g><g class="message" data-entity-1="part3" data-entity-2="part2" id="msg24"><polygon fill="#181818" points="304.5898,1001.0234,294.5898,1005.0234,304.5898,1009.0234,300.5898,1005.0234" style="stroke:#181818;stroke-width:1;"/><line style="stroke:#181818;stroke-width:1;stroke-dasharray:2,2;" x1="298.5898" x2="522.3037" y1="1005.0234" y2="1005.0234"/><text fill="#000000" font-family="sans-serif" font-size="13" font-weight="bold" lengthAdjust="spacing" textLength="18.0908" x="310.5898" y="999.9575">24</text><text fill="#000000" font-family="sans-serif" font-size="13" lengthAdjust="spacing" textLength="115.7939" x="332.6807" y="999.9575">Success response</text></g><g class="message" data-entity-1="part2" data-entity-2="part1" id="msg25"><polygon fill="#181818" points="77.9609,1030.1563,67.9609,1034.1563,77.9609,1038.1563,73.9609,1034.1563" style="stroke:#181818;stroke-width:1;"/><line style="stroke:#181818;stroke-width:1;" x1="71.9609" x2="287.5898" y1="1034.1563" y2="1034.1563"/><text fill="#000000" font-family="sans-serif" font-size="13" font-weight="bold" lengthAdjust="spacing" textLength="18.0908" x="83.9609" y="1029.0903">25</text><text fill="#000000" font-family="sans-serif" font-size="13" lengthAdjust="spacing" textLength="163.7886" x="106.0518" y="1029.0903">Redirect to Course Editor</text></g><?plantuml-src ZLJ1Rjim3BtxAuZkqW8fbWux1Li1s-a23yDQDC6C0Rqe5kCATIHFafDcG_zzb6J7hhDXknWooKS-Fb9YZLMosQvHHv5v4h9cccqXKSztZ7CXIxYQHX4hhDAGIMDruu_CG1QjLICvqmV8SHtNjJFcSKJcPpYBxp9OC8jxTZY3Drz4-MYJgi48e53IQbMDGWYxo2EK70ZUvaXLemt24lLE5DYb-OvLfVQ3H24i3NyLUd9fUXBGCanZyg2qmXvQXxUIaJFBrep-WtcUUCSywLbbS7bDBSxWAzk9agY3LKHJepi6r9dJIkoS8UkF94iUT-2vC7N53aJFLoySN2W96wMtWnetqb8lRP2G6_KWpubrXHFWQ0ejQeUQGAr9d8iUbrQYU3fXDQZ_ZLM2EnyDkx6-BBCquyhIX7VE-Te34B1PJtqNKZZMgBNI9iAAMFhCOzWYdy7TxN85RqClva7--ciVBmGxgaOB0VJfajmyMqq--9ol9Xq3Du4dbCUuD9t19wNtJ7FG-AD1Os4lx2DrrErkDX_Me4MXtpJrOAUUboseTauPBbu5kzr9uoxsAEIwCKAYCQ2RolKNvWID5CG0QXfZNxvj5Au_mlJ2rNQw9rs2WR0R9Yha5E3fVRYy7DOyAk_zrBltK_FlfrD868VxqBntSnoswomq6GVmgheif9MfbJGuZlSZ-CC2-Dgm9SgiTA1-_85RpOpfo1_rMg14xRAQgYbXezKMl533i6u2875_l9zbgT5TDn_Ozn9mBIoJmWeYy1F3mBbc6ml6CjkOhe0NQTQb3O_0YKBHaCuycS6IxR2zXoC2z3OCCxlWDhSX30z4_BwzBa6uyLpRDsTrUn8SZqVyRdhLYiJfAWLY6PzuLL_-FV1bKnH-L_zpvFV8XKQwT_JMjTtTS67RrHi0ytXioVnJozq36lq6?></g></svg>