<?plantuml 1.2026.1?><svg xmlns="http://www.w3.org/2000/svg" xmlns:xlink="http://www.w3.org/1999/xlink" contentStyleType="text/css" data-diagram-type="SEQUENCE" height="847px" preserveAspectRatio="none" style="width:1647px;height:847px;background:#FFFFFF;" version="1.1" viewBox="0 0 1647 847" width="1647px" zoomAndPan="magnify"><defs/><g><rect fill="#ADD8E6" height="835.0469" style="stroke:#181818;stroke-width:0.5;" width="102.4434" x="503.2798" y="6"/><text fill="#000000" font-family="sans-serif" font-size="13" font-weight="bold" lengthAdjust="spacing" textLength="92.6821" x="508.1604" y="18.0669">API Gateway</text><rect fill="#FFFFE0" height="835.0469" style="stroke:#181818;stroke-width:0.5;" width="652.6035" x="712.7549" y="6"/><text fill="#000000" font-family="sans-serif" font-size="13" font-weight="bold" lengthAdjust="spacing" textLength="109.2622" x="984.4255" y="18.0669">Course Service</text><g><title>Learner</title><rect fill="#FFFFFF" height="625.1875" style="stroke:#181818;stroke-width:1;" width="10" x="29.9951" y="118.5625"/></g><g><title>WebApp</title><rect fill="#FFFFFF" height="625.1875" style="stroke:#181818;stroke-width:1;" width="10" x="284.9517" y="118.5625"/></g><g><title>API Gateway</title><rect fill="#FFFFFF" height="566.9219" style="stroke:#181818;stroke-width:1;" width="10" x="549.5015" y="147.6953"/></g><g><title>ProgressController</title><rect fill="#FFFFFF" height="466.5234" style="stroke:#181818;stroke-width:1;" width="10" x="779.645" y="218.9609"/></g><g><title>CourseApp</title><rect fill="#FFFFFF" height="408.2578" style="stroke:#181818;stroke-width:1;" width="10" x="1062.6729" y="248.0938"/></g><g><title>CourseDB</title><rect fill="#FFFFFF" height="101.5313" style="stroke:#181818;stroke-width:1;" width="10" x="1318.7275" y="277.2266"/></g><g><title>CourseDB</title><rect fill="#FFFFFF" height="146.9297" style="stroke:#181818;stroke-width:1;" width="10" x="1318.7275" y="407.8906"/></g><g class="participant-lifeline" data-entity-uid="part1" data-qualified-name="L" id="part1-lifeline"><g><title>Learner</title><rect fill="#000000" fill-opacity="0.00000" height="674.3203" width="8" x="30.9951" y="87.4297"/><line style="stroke:#181818;stroke-width:0.5;stroke-dasharray:5,5;" x1="34" x2="34" y1="87.4297" y2="761.75"/></g></g><g class="participant-lifeline" data-entity-uid="part2" data-qualified-name="WA" id="part2-lifeline"><g><title>WebApp</title><rect fill="#000000" fill-opacity="0.00000" height="674.3203" width="8" x="285.9517" y="87.4297"/><line style="stroke:#181818;stroke-width:0.5;stroke-dasharray:5,5;" x1="289.605" x2="289.605" y1="87.4297" y2="761.75"/></g></g><g class="participant-lifeline" data-entity-uid="part3" data-qualified-name="GW" id="part3-lifeline"><g><title>API Gateway</title><rect fill="#000000" fill-opacity="0.00000" height="674.3203" width="8" x="550.5015" y="87.4297"/><line style="stroke:#181818;stroke-width:0.5;stroke-dasharray:5,5;" x1="554.2798" x2="554.2798" y1="87.4297" y2="761.75"/></g></g><g class="participant-lifeline" data-entity-uid="part4" data-qualified-name="PC" id="part4-lifeline"><g><title>ProgressController</title><rect fill="#000000" fill-opacity="0.00000" height="674.3203" width="8" x="780.645" y="87.4297"/><line style="stroke:#181818;stroke-width:0.5;stroke-dasharray:5,5;" x1="783.7549" x2="783.7549" y1="87.4297" y2="761.75"/></g></g><g class="participant-lifeline" data-entity-uid="part5" data-qualified-name="CA" id="part5-lifeline"><g><title>CourseApp</title><rect fill="#000000" fill-opacity="0.00000" height="674.3203" width="8" x="1063.6729" y="87.4297"/><line style="stroke:#181818;stroke-width:0.5;stroke-dasharray:5,5;" x1="1067.5591" x2="1067.5591" y1="87.4297" y2="761.75"/></g></g><g class="participant-lifeline" data-entity-uid="part6" data-qualified-name="CDB" id="part6-lifeline"><g><title>CourseDB</title><rect fill="#000000" fill-opacity="0.00000" height="674.3203" width="8" x="1319.7275" y="87.4297"/><line style="stroke:#181818;stroke-width:0.5;stroke-dasharray:5,5;" x1="1323.0967" x2="1323.0967" y1="87.4297" y2="761.75"/></g></g><g class="participant participant-head" data-entity-uid="part1" data-qualified-name="L" id="part1-head"><text fill="#000000" font-family="sans-serif" font-size="14" lengthAdjust="spacing" textLength="53.9902" x="5" y="84.1279">Learner</text><ellipse cx="34.9951" cy="19.6328" fill="#E2E2F0" rx="8" ry="8" style="stroke:#181818;stroke-width:0.5;"/><path d="M34.9951,27.6328 L34.9951,54.6328 M21.9951,35.6328 L47.9951,35.6328 M34.9951,54.6328 L21.9951,69.6328 M34.9951,54.6328 L47.9951,69.6328" fill="none" style="stroke:#181818;stroke-width:0.5;"/></g><g class="participant participant-tail" data-entity-uid="part1" data-qualified-name="L" id="part1-tail"><text fill="#000000" font-family="sans-serif" font-size="14" lengthAdjust="spacing" textLength="53.9902" x="5" y="773.7451">Learner</text><ellipse cx="34.9951" cy="785.5469" fill="#E2E2F0" rx="8" ry="8" style="stroke:#181818;stroke-width:0.5;"/><path d="M34.9951,793.5469 L34.9951,820.5469 M21.9951,801.5469 L47.9951,801.5469 M34.9951,820.5469 L21.9951,835.5469 M34.9951,820.5469 L47.9951,835.5469" fill="none" style="stroke:#181818;stroke-width:0.5;"/></g><g class="participant participant-head" data-entity-uid="part2" data-qualified-name="WA" id="part2-head"><text fill="#000000" font-family="sans-serif" font-size="14" lengthAdjust="spacing" textLength="58.6934" x="257.605" y="84.1279">WebApp</text><path d="M269.4517,43.1328 L269.4517,67.1328 M269.4517,55.1328 L286.4517,55.1328" fill="none" style="stroke:#181818;stroke-width:0.5;"/><ellipse cx="298.4517" cy="55.1328" fill="#E2E2F0" rx="12" ry="12" style="stroke:#181818;stroke-width:0.5;"/></g><g class="participant participant-tail" data-entity-uid="part2" data-qualified-name="WA" id="part2-tail"><text fill="#000000" font-family="sans-serif" font-size="14" lengthAdjust="spacing" textLength="58.6934" x="257.605" y="773.7451">WebApp</text><path d="M269.4517,781.0469 L269.4517,805.0469 M269.4517,793.0469 L286.4517,793.0469" fill="none" style="stroke:#181818;stroke-width:0.5;"/><ellipse cx="298.4517" cy="793.0469" fill="#E2E2F0" rx="12" ry="12" style="stroke:#181818;stroke-width:0.5;"/></g><g class="participant participant-head" data-entity-uid="part3" data-qualified-name="GW" id="part3-head"><text fill="#000000" font-family="sans-serif" font-size="14" lengthAdjust="spacing" textLength="88.4434" x="507.2798" y="84.1279">API Gateway</text><ellipse cx="554.5015" cy="55.1328" fill="#E2E2F0" rx="12" ry="12" style="stroke:#181818;stroke-width:0.5;"/><polygon fill="#181818" points="550.5015,43.1328,556.5015,38.1328,554.5015,43.1328,556.5015,48.1328,550.5015,43.1328" style="stroke:#181818;stroke-width:1;"/></g><g class="participant participant-tail" data-entity-uid="part3" data-qualified-name="GW" id="part3-tail"><text fill="#000000" font-family="sans-serif" font-size="14" lengthAdjust="spacing" textLength="88.4434" x="507.2798" y="773.7451">API Gateway</text><ellipse cx="554.5015" cy="793.0469" fill="#E2E2F0" rx="12" ry="12" style="stroke:#181818;stroke-width:0.5;"/><polygon fill="#181818" points="550.5015,781.0469,556.5015,776.0469,554.5015,781.0469,556.5015,786.0469,550.5015,781.0469" style="stroke:#181818;stroke-width:1;"/></g><g class="participant participant-head" data-entity-uid="part4" data-qualified-name="PC" id="part4-head"><text fill="#000000" font-family="sans-serif" font-size="14" lengthAdjust="spacing" textLength="129.7803" x="716.7549" y="84.1279">ProgressController</text><ellipse cx="784.645" cy="55.1328" fill="#E2E2F0" rx="12" ry="12" style="stroke:#181818;stroke-width:0.5;"/><polygon fill="#181818" points="780.645,43.1328,786.645,38.1328,784.645,43.1328,786.645,48.1328,780.645,43.1328" style="stroke:#181818;stroke-width:1;"/></g><g class="participant participant-tail" data-entity-uid="part4" data-qualified-name="PC" id="part4-tail"><text fill="#000000" font-family="sans-serif" font-size="14" lengthAdjust="spacing" textLength="129.7803" x="716.7549" y="773.7451">ProgressController</text><ellipse cx="784.645" cy="793.0469" fill="#E2E2F0" rx="12" ry="12" style="stroke:#181818;stroke-width:0.5;"/><polygon fill="#181818" points="780.645,781.0469,786.645,776.0469,784.645,781.0469,786.645,786.0469,780.645,781.0469" style="stroke:#181818;stroke-width:1;"/></g><g class="participant participant-head" data-entity-uid="part5" data-qualified-name="CA" id="part5-head"><text fill="#000000" font-family="sans-serif" font-size="14" lengthAdjust="spacing" textLength="76.2275" x="1026.5591" y="84.1279">CourseApp</text><ellipse cx="1067.6729" cy="55.1328" fill="#E2E2F0" rx="12" ry="12" style="stroke:#181818;stroke-width:0.5;"/><polygon fill="#181818" points="1063.6729,43.1328,1069.6729,38.1328,1067.6729,43.1328,1069.6729,48.1328,1063.6729,43.1328" style="stroke:#181818;stroke-width:1;"/></g><g class="participant participant-tail" data-entity-uid="part5" data-qualified-name="CA" id="part5-tail"><text fill="#000000" font-family="sans-serif" font-size="14" lengthAdjust="spacing" textLength="76.2275" x="1026.5591" y="773.7451">CourseApp</text><ellipse cx="1067.6729" cy="793.0469" fill="#E2E2F0" rx="12" ry="12" style="stroke:#181818;stroke-width:0.5;"/><polygon fill="#181818" points="1063.6729,781.0469,1069.6729,776.0469,1067.6729,781.0469,1069.6729,786.0469,1063.6729,781.0469" style="stroke:#181818;stroke-width:1;"/></g><g class="participant participant-head" data-entity-uid="part6" data-qualified-name="CDB" id="part6-head"><text fill="#000000" font-family="sans-serif" font-size="14" lengthAdjust="spacing" textLength="69.2617" x="1286.0967" y="84.1279">CourseDB</text><path d="M1305.7275,35.1328 C1305.7275,25.1328 1323.7275,25.1328 1323.7275,25.1328 C1323.7275,25.1328 1341.7275,25.1328 1341.7275,35.1328 L1341.7275,61.1328 C1341.7275,71.1328 1323.7275,71.1328 1323.7275,71.1328 C1323.7275,71.1328 1305.7275,71.1328 1305.7275,61.1328 L1305.7275,35.1328" fill="#E2E2F0" style="stroke:#181818;stroke-width:0.5;"/><path d="M1305.7275,35.1328 C1305.7275,45.1328 1323.7275,45.1328 1323.7275,45.1328 C1323.7275,45.1328 1341.7275,45.1328 1341.7275,35.1328" fill="none" style="stroke:#181818;stroke-width:0.5;"/></g><g class="participant participant-tail" data-entity-uid="part6" data-qualified-name="CDB" id="part6-tail"><text fill="#000000" font-family="sans-serif" font-size="14" lengthAdjust="spacing" textLength="69.2617" x="1286.0967" y="773.7451">CourseDB</text><path d="M1305.7275,787.0469 C1305.7275,777.0469 1323.7275,777.0469 1323.7275,777.0469 C1323.7275,777.0469 1341.7275,777.0469 1341.7275,787.0469 L1341.7275,813.0469 C1341.7275,823.0469 1323.7275,823.0469 1323.7275,823.0469 C1323.7275,823.0469 1305.7275,823.0469 1305.7275,813.0469 L1305.7275,787.0469" fill="#E2E2F0" style="stroke:#181818;stroke-width:0.5;"/><path d="M1305.7275,787.0469 C1305.7275,797.0469 1323.7275,797.0469 1323.7275,797.0469 C1323.7275,797.0469 1341.7275,797.0469 1341.7275,787.0469" fill="none" style="stroke:#181818;stroke-width:0.5;"/></g><g><title>Learner</title><rect fill="#FFFFFF" height="625.1875" style="stroke:#181818;stroke-width:1;" width="10" x="29.9951" y="118.5625"/></g><g><title>WebApp</title><rect fill="#FFFFFF" height="625.1875" style="stroke:#181818;stroke-width:1;" width="10" x="284.9517" y="118.5625"/></g><g><title>API Gateway</title><rect fill="#FFFFFF" height="566.9219" style="stroke:#181818;stroke-width:1;" width="10" x="549.5015" y="147.6953"/></g><g><title>ProgressController</title><rect fill="#FFFFFF" height="466.5234" style="stroke:#181818;stroke-width:1;" width="10" x="779.645" y="218.9609"/></g><g><title>CourseApp</title><rect fill="#FFFFFF" height="408.2578" style="stroke:#181818;stroke-width:1;" width="10" x="1062.6729" y="248.0938"/></g><g><title>CourseDB</title><rect fill="#FFFFFF" height="101.5313" style="stroke:#181818;stroke-width:1;" width="10" x="1318.7275" y="277.2266"/></g><g><title>CourseDB</title><rect fill="#FFFFFF" height="146.9297" style="stroke:#181818;stroke-width:1;" width="10" x="1318.7275" y="407.8906"/></g><g class="message" data-entity-1="part1" data-entity-2="part2" id="msg1"><polygon fill="#181818" points="272.9517,114.5625,282.9517,118.5625,272.9517,122.5625,276.9517,118.5625" style="stroke:#181818;stroke-width:1;"/><line style="stroke:#181818;stroke-width:1;" x1="39.9951" x2="278.9517" y1="118.5625" y2="118.5625"/><text fill="#000000" font-family="sans-serif" font-size="13" font-weight="bold" lengthAdjust="spacing" textLength="9.0454" x="46.9951" y="113.4966">1</text><text fill="#000000" font-family="sans-serif" font-size="13" lengthAdjust="spacing" textLength="139.5469" x="60.0405" y="113.4966">View course progress</text></g><g class="message" data-entity-1="part2" data-entity-2="part3" id="msg2"><polygon fill="#181818" points="537.5015,143.6953,547.5015,147.6953,537.5015,151.6953,541.5015,147.6953" style="stroke:#181818;stroke-width:1;"/><line style="stroke:#181818;stroke-width:1;" x1="294.9517" x2="543.5015" y1="147.6953" y2="147.6953"/><text fill="#000000" font-family="sans-serif" font-size="13" font-weight="bold" lengthAdjust="spacing" textLength="9.0454" x="301.9517" y="142.6294">2</text><text fill="#000000" font-family="sans-serif" font-size="13" lengthAdjust="spacing" textLength="222.5044" x="314.9971" y="142.6294">GET /courses/{courseId}/progress</text></g><g class="message" data-entity-1="part3" data-entity-2="part3" id="msg3"><line style="stroke:#181818;stroke-width:1;" x1="559.5015" x2="601.5015" y1="176.8281" y2="176.8281"/><line style="stroke:#181818;stroke-width:1;" x1="601.5015" x2="601.5015" y1="176.8281" y2="189.8281"/><line style="stroke:#181818;stroke-width:1;" x1="560.5015" x2="601.5015" y1="189.8281" y2="189.8281"/><polygon fill="#181818" points="570.5015,185.8281,560.5015,189.8281,570.5015,193.8281,566.5015,189.8281" style="stroke:#181818;stroke-width:1;"/><text fill="#000000" font-family="sans-serif" font-size="13" font-weight="bold" lengthAdjust="spacing" textLength="9.0454" x="566.5015" y="171.7622">3</text><text fill="#000000" font-family="sans-serif" font-size="13" lengthAdjust="spacing" textLength="183.0981" x="579.5469" y="171.7622">Validate JWT, extract userID</text></g><g class="message" data-entity-1="part3" data-entity-2="part4" id="msg4"><polygon fill="#181818" points="767.645,214.9609,777.645,218.9609,767.645,222.9609,771.645,218.9609" style="stroke:#181818;stroke-width:1;"/><line style="stroke:#181818;stroke-width:1;" x1="559.5015" x2="773.645" y1="218.9609" y2="218.9609"/><text fill="#000000" font-family="sans-serif" font-size="13" font-weight="bold" lengthAdjust="spacing" textLength="9.0454" x="566.5015" y="213.895">4</text><text fill="#000000" font-family="sans-serif" font-size="13" lengthAdjust="spacing" textLength="106.8057" x="579.5469" y="213.895">Forward request</text></g><g class="message" data-entity-1="part4" data-entity-2="part5" id="msg5"><polygon fill="#181818" points="1050.6729,244.0938,1060.6729,248.0938,1050.6729,252.0938,1054.6729,248.0938" style="stroke:#181818;stroke-width:1;"/><line style="stroke:#181818;stroke-width:1;" x1="789.645" x2="1056.6729" y1="248.0938" y2="248.0938"/><text fill="#000000" font-family="sans-serif" font-size="13" font-weight="bold" lengthAdjust="spacing" textLength="9.0454" x="796.645" y="243.0278">5</text><text fill="#000000" font-family="sans-serif" font-size="13" lengthAdjust="spacing" textLength="240.9824" x="809.6904" y="243.0278">GetCourseProgress(courseId, userID)</text></g><g class="message" data-entity-1="part5" data-entity-2="part6" id="msg6"><polygon fill="#181818" points="1306.7275,273.2266,1316.7275,277.2266,1306.7275,281.2266,1310.7275,277.2266" style="stroke:#181818;stroke-width:1;"/><line style="stroke:#181818;stroke-width:1;" x1="1072.6729" x2="1312.7275" y1="277.2266" y2="277.2266"/><text fill="#000000" font-family="sans-serif" font-size="13" font-weight="bold" lengthAdjust="spacing" textLength="9.0454" x="1079.6729" y="272.1606">6</text><text fill="#000000" font-family="sans-serif" font-size="13" lengthAdjust="spacing" textLength="172.853" x="1092.7183" y="272.1606">Get total lessons in course</text></g><g class="message" data-entity-1="part6" data-entity-2="part6" id="msg7"><line style="stroke:#181818;stroke-width:1;" x1="1328.7275" x2="1370.7275" y1="336.625" y2="336.625"/><line style="stroke:#181818;stroke-width:1;" x1="1370.7275" x2="1370.7275" y1="336.625" y2="349.625"/><line style="stroke:#181818;stroke-width:1;" x1="1329.7275" x2="1370.7275" y1="349.625" y2="349.625"/><polygon fill="#181818" points="1339.7275,345.625,1329.7275,349.625,1339.7275,353.625,1335.7275,349.625" style="stroke:#181818;stroke-width:1;"/><text fill="#000000" font-family="sans-serif" font-size="13" font-weight="bold" lengthAdjust="spacing" textLength="9.0454" x="1335.7275" y="316.4263">7</text><text fill="#000000" font-family="sans-serif" font-size="13" lengthAdjust="spacing" textLength="218.2959" x="1348.7729" y="301.2935">SELECT COUNT(*) FROM lessons l</text><text fill="#000000" font-family="sans-serif" font-size="13" lengthAdjust="spacing" textLength="239.332" x="1348.7729" y="316.4263">JOIN sections s ON l.section_id = s.id</text><text fill="#000000" font-family="sans-serif" font-size="13" lengthAdjust="spacing" textLength="151.0044" x="1348.7729" y="331.5591">WHERE s.course_id = ?</text></g><g class="message" data-entity-1="part6" data-entity-2="part5" id="msg8"><polygon fill="#181818" points="1083.6729,374.7578,1073.6729,378.7578,1083.6729,382.7578,1079.6729,378.7578" style="stroke:#181818;stroke-width:1;"/><line style="stroke:#181818;stroke-width:1;stroke-dasharray:2,2;" x1="1077.6729" x2="1322.7275" y1="378.7578" y2="378.7578"/><text fill="#000000" font-family="sans-serif" font-size="13" font-weight="bold" lengthAdjust="spacing" textLength="9.0454" x="1089.6729" y="373.6919">8</text><text fill="#000000" font-family="sans-serif" font-size="13" lengthAdjust="spacing" textLength="125.6328" x="1102.7183" y="373.6919">Total lessons count</text></g><g class="message" data-entity-1="part5" data-entity-2="part6" id="msg9"><polygon fill="#181818" points="1306.7275,403.8906,1316.7275,407.8906,1306.7275,411.8906,1310.7275,407.8906" style="stroke:#181818;stroke-width:1;"/><line style="stroke:#181818;stroke-width:1;" x1="1072.6729" x2="1312.7275" y1="407.8906" y2="407.8906"/><text fill="#000000" font-family="sans-serif" font-size="13" font-weight="bold" lengthAdjust="spacing" textLength="9.0454" x="1079.6729" y="402.8247">9</text><text fill="#000000" font-family="sans-serif" font-size="13" lengthAdjust="spacing" textLength="201.0938" x="1092.7183" y="402.8247">Get completed lessons by user</text></g><g class="message" data-entity-1="part6" data-entity-2="part6" id="msg10"><line style="stroke:#181818;stroke-width:1;" x1="1328.7275" x2="1370.7275" y1="512.6875" y2="512.6875"/><line style="stroke:#181818;stroke-width:1;" x1="1370.7275" x2="1370.7275" y1="512.6875" y2="525.6875"/><line style="stroke:#181818;stroke-width:1;" x1="1329.7275" x2="1370.7275" y1="525.6875" y2="525.6875"/><polygon fill="#181818" points="1339.7275,521.6875,1329.7275,525.6875,1339.7275,529.6875,1335.7275,525.6875" style="stroke:#181818;stroke-width:1;"/><text fill="#000000" font-family="sans-serif" font-size="13" font-weight="bold" lengthAdjust="spacing" textLength="18.0908" x="1335.7275" y="469.7896">10</text><text fill="#000000" font-family="sans-serif" font-size="13" lengthAdjust="spacing" textLength="282.9658" x="1357.8184" y="431.9575">SELECT COUNT(*) FROM lesson_progress lp</text><text fill="#000000" font-family="sans-serif" font-size="13" lengthAdjust="spacing" textLength="230.3184" x="1357.8184" y="447.0903">JOIN lessons l ON lp.lesson_id = l.id</text><text fill="#000000" font-family="sans-serif" font-size="13" lengthAdjust="spacing" textLength="239.332" x="1357.8184" y="462.2231">JOIN sections s ON l.section_id = s.id</text><text fill="#000000" font-family="sans-serif" font-size="13" lengthAdjust="spacing" textLength="151.0044" x="1357.8184" y="477.356">WHERE s.course_id = ?</text><text fill="#000000" font-family="sans-serif" font-size="13" lengthAdjust="spacing" textLength="121.5322" x="1366.083" y="492.4888">AND lp.user_id = ?</text><text fill="#000000" font-family="sans-serif" font-size="13" lengthAdjust="spacing" textLength="180.4512" x="1366.083" y="507.6216">AND lp.is_completed = true</text></g><g class="message" data-entity-1="part6" data-entity-2="part5" id="msg11"><polygon fill="#181818" points="1083.6729,550.8203,1073.6729,554.8203,1083.6729,558.8203,1079.6729,554.8203" style="stroke:#181818;stroke-width:1;"/><line style="stroke:#181818;stroke-width:1;stroke-dasharray:2,2;" x1="1077.6729" x2="1322.7275" y1="554.8203" y2="554.8203"/><text fill="#000000" font-family="sans-serif" font-size="13" font-weight="bold" lengthAdjust="spacing" textLength="18.0908" x="1089.6729" y="549.7544">11</text><text fill="#000000" font-family="sans-serif" font-size="13" lengthAdjust="spacing" textLength="163.9663" x="1111.7637" y="549.7544">Completed lessons count</text></g><g class="message" data-entity-1="part5" data-entity-2="part5" id="msg12"><line style="stroke:#181818;stroke-width:1;" x1="1072.6729" x2="1114.6729" y1="599.0859" y2="599.0859"/><line style="stroke:#181818;stroke-width:1;" x1="1114.6729" x2="1114.6729" y1="599.0859" y2="612.0859"/><line style="stroke:#181818;stroke-width:1;" x1="1073.6729" x2="1114.6729" y1="612.0859" y2="612.0859"/><polygon fill="#181818" points="1083.6729,608.0859,1073.6729,612.0859,1083.6729,616.0859,1079.6729,612.0859" style="stroke:#181818;stroke-width:1;"/><text fill="#000000" font-family="sans-serif" font-size="13" font-weight="bold" lengthAdjust="spacing" textLength="18.0908" x="1079.6729" y="586.4536">12</text><text fill="#000000" font-family="sans-serif" font-size="13" lengthAdjust="spacing" textLength="199.9639" x="1101.7637" y="578.8872">Calculate progress percentage</text><text fill="#000000" font-family="sans-serif" font-size="13" lengthAdjust="spacing" textLength="161.0654" x="1101.7637" y="594.02">(completed / total * 100)</text></g><g class="message" data-entity-1="part5" data-entity-2="part4" id="msg13"><polygon fill="#181818" points="800.645,652.3516,790.645,656.3516,800.645,660.3516,796.645,656.3516" style="stroke:#181818;stroke-width:1;"/><line style="stroke:#181818;stroke-width:1;stroke-dasharray:2,2;" x1="794.645" x2="1066.6729" y1="656.3516" y2="656.3516"/><text fill="#000000" font-family="sans-serif" font-size="13" font-weight="bold" lengthAdjust="spacing" textLength="18.0908" x="806.645" y="643.7192">13</text><text fill="#000000" font-family="sans-serif" font-size="13" lengthAdjust="spacing" textLength="151.8994" x="828.7358" y="636.1528">{progress: percentage,</text><text fill="#000000" font-family="sans-serif" font-size="13" lengthAdjust="spacing" textLength="218.7402" x="828.7358" y="651.2856">completedLessons, totalLessons}</text></g><g class="message" data-entity-1="part4" data-entity-2="part3" id="msg14"><polygon fill="#181818" points="570.5015,681.4844,560.5015,685.4844,570.5015,689.4844,566.5015,685.4844" style="stroke:#181818;stroke-width:1;"/><line style="stroke:#181818;stroke-width:1;stroke-dasharray:2,2;" x1="564.5015" x2="783.645" y1="685.4844" y2="685.4844"/><text fill="#000000" font-family="sans-serif" font-size="13" font-weight="bold" lengthAdjust="spacing" textLength="18.0908" x="576.5015" y="680.4185">14</text><text fill="#000000" font-family="sans-serif" font-size="13" lengthAdjust="spacing" textLength="47.7026" x="598.5923" y="680.4185">200 OK</text></g><g class="message" data-entity-1="part3" data-entity-2="part2" id="msg15"><polygon fill="#181818" points="305.9517,710.6172,295.9517,714.6172,305.9517,718.6172,301.9517,714.6172" style="stroke:#181818;stroke-width:1;"/><line style="stroke:#181818;stroke-width:1;stroke-dasharray:2,2;" x1="299.9517" x2="553.5015" y1="714.6172" y2="714.6172"/><text fill="#000000" font-family="sans-serif" font-size="13" font-weight="bold" lengthAdjust="spacing" textLength="18.0908" x="311.9517" y="709.5513">15</text><text fill="#000000" font-family="sans-serif" font-size="13" lengthAdjust="spacing" textLength="89.6924" x="334.0425" y="709.5513">Progress data</text></g><g class="message" data-entity-1="part2" data-entity-2="part1" id="msg16"><polygon fill="#181818" points="45.9951,739.75,35.9951,743.75,45.9951,747.75,41.9951,743.75" style="stroke:#181818;stroke-width:1;"/><line style="stroke:#181818;stroke-width:1;" x1="39.9951" x2="288.9517" y1="743.75" y2="743.75"/><text fill="#000000" font-family="sans-serif" font-size="13" font-weight="bold" lengthAdjust="spacing" textLength="18.0908" x="51.9951" y="738.6841">16</text><text fill="#000000" font-family="sans-serif" font-size="13" lengthAdjust="spacing" textLength="198.8657" x="74.0859" y="738.6841">Display progress bar and stats</text></g><?plantuml-src fLHDRzf04BtxLupI2uduQe-eQMKCeQGkM0cDLGa9BNX4hIwxxkuwWAByzyvwRME2r4DxGDgTcVVslM76B3TIvBirAi_JlrAHCSLsC9I7Y2L9AhRmlkzvR6EaWX2P4gY0QGYzjSn5mjGHObpxMMQ3iUzH-01NVZI52JEuPyShU1Ucsvzco7Fq03PI62NvcnB2Jc8FHG84Bpa2cIkDy8ZgETrWHVC3EPVx1b6av5QXre6xSoSl2XebZgdK6FYKIPXXQqRiBZKQ5fdHy2GXXCudyZE0fnJtn5HeoSgtR3lIPn9FRQYFrdpiMzWa7i1al82UW-dUYpjCazVU9GKPdyGLx8dnDB7H-tZH1ZmOHNMGQrJJKLaM1GEuashFL08AV-UepOcCV7jHOCi2qZv1umnMJMfLGjebv_K9IetnWa8_DQB0Wf66SU04b493Aie-D33KClhLeCTnE0uM4Co_pnQjcskuUvX_g_5yAUxdqnbe9BWDQ9ZFW7VB-ofDu1PqDqsM8luoVXZJsRtdCf-jke-TZdjfSIQDweJn4ZmJzjRDHkuoZWQJ6hO-5ctu9p-hwfy4dfN6QgE5hwnR5XRgUU7hl_ml1O0_6rbcg_eockhLoUCj64KRr-nPSD60l_QD1YXWV9DpcwZTPgWsA0pRubAqJi_roc6veSz5_xeOmk9T8dcfi8C6kBqKDJXqQjgEehozdidoxV1RGZlz7_fzc7zjvcdiOsVKBb4rxSMQDyjerSeL3GSmIdN6sV7aRCteqq7xhmqpkWcZpMxSGkyF?></g></svg>