<?plantuml 1.2026.1?><svg xmlns="http://www.w3.org/2000/svg" xmlns:xlink="http://www.w3.org/1999/xlink" contentStyleType="text/css" data-diagram-type="SEQUENCE" height="985px" preserveAspectRatio="none" style="width:1601px;height:985px;background:#FFFFFF;" version="1.1" viewBox="0 0 1601 985" width="1601px" zoomAndPan="magnify"><defs/><g><rect fill="#ADD8E6" height="973.1172" style="stroke:#181818;stroke-width:0.5;" width="102.4434" x="456.1523" y="6"/><text fill="#000000" font-family="sans-serif" font-size="13" font-weight="bold" lengthAdjust="spacing" textLength="92.6821" x="461.033" y="18.0669">API Gateway</text><rect fill="#FFFFE0" height="973.1172" style="stroke:#181818;stroke-width:0.5;" width="1004.6431" x="584.335" y="6"/><text fill="#000000" font-family="sans-serif" font-size="13" font-weight="bold" lengthAdjust="spacing" textLength="109.2622" x="1032.0254" y="18.0669">Course Service</text><g><title>Learner</title><rect fill="#FFFFFF" height="748.125" style="stroke:#181818;stroke-width:1;" width="10" x="29.9951" y="133.6953"/></g><g><title>WebApp</title><rect fill="#FFFFFF" height="748.125" style="stroke:#181818;stroke-width:1;" width="10" x="224.7417" y="133.6953"/></g><g><title>API Gateway</title><rect fill="#FFFFFF" height="624.4609" style="stroke:#181818;stroke-width:1;" width="10" x="502.374" y="228.2266"/></g><g><title>ProgressController</title><rect fill="#FFFFFF" height="524.0625" style="stroke:#181818;stroke-width:1;" width="10" x="651.2251" y="299.4922"/></g><g><title>CourseApp</title><rect fill="#FFFFFF" height="465.7969" style="stroke:#181818;stroke-width:1;" width="10" x="1036.4756" y="328.625"/></g><g><title>LessonProgressVideo</title><rect fill="#FFFFFF" height="71.2656" style="stroke:#181818;stroke-width:1;" width="10" x="1295.103" y="440.1563"/></g><g><title>LessonProgressVideo</title><rect fill="#FFFFFF" height="86.3984" style="stroke:#181818;stroke-width:1;" width="10" x="1295.103" y="613.625"/></g><g><title>CourseDB</title><rect fill="#FFFFFF" height="29.1328" style="stroke:#181818;stroke-width:1;" width="10" x="1542.3472" y="357.7578"/></g><g><title>CourseDB</title><rect fill="#FFFFFF" height="29.1328" style="stroke:#181818;stroke-width:1;" width="10" x="1542.3472" y="540.5547"/></g><g><title>CourseDB</title><rect fill="#FFFFFF" height="29.1328" style="stroke:#181818;stroke-width:1;" width="10" x="1542.3472" y="729.1563"/></g><rect fill="none" height="364.3984" style="stroke:#000000;stroke-width:1.5;" width="604.6162" x="990.3618" y="401.8906"/><g class="participant-lifeline" data-entity-uid="part1" data-qualified-name="L" id="part1-lifeline"><g><title>Learner</title><rect fill="#000000" fill-opacity="0.00000" height="812.3906" width="8" x="30.9951" y="87.4297"/><line style="stroke:#181818;stroke-width:0.5;stroke-dasharray:5,5;" x1="34" x2="34" y1="87.4297" y2="899.8203"/></g></g><g class="participant-lifeline" data-entity-uid="part2" data-qualified-name="WA" id="part2-lifeline"><g><title>WebApp</title><rect fill="#000000" fill-opacity="0.00000" height="812.3906" width="8" x="225.7417" y="87.4297"/><line style="stroke:#181818;stroke-width:0.5;stroke-dasharray:5,5;" x1="229.395" x2="229.395" y1="87.4297" y2="899.8203"/></g></g><g class="participant-lifeline" data-entity-uid="part3" data-qualified-name="GW" id="part3-lifeline"><g><title>API Gateway</title><rect fill="#000000" fill-opacity="0.00000" height="812.3906" width="8" x="503.374" y="87.4297"/><line style="stroke:#181818;stroke-width:0.5;stroke-dasharray:5,5;" x1="507.1523" x2="507.1523" y1="87.4297" y2="899.8203"/></g></g><g class="participant-lifeline" data-entity-uid="part4" data-qualified-name="PC" id="part4-lifeline"><g><title>ProgressController</title><rect fill="#000000" fill-opacity="0.00000" height="812.3906" width="8" x="652.2251" y="87.4297"/><line style="stroke:#181818;stroke-width:0.5;stroke-dasharray:5,5;" x1="655.335" x2="655.335" y1="87.4297" y2="899.8203"/></g></g><g class="participant-lifeline" data-entity-uid="part5" data-qualified-name="CA" id="part5-lifeline"><g><title>CourseApp</title><rect fill="#000000" fill-opacity="0.00000" height="812.3906" width="8" x="1037.4756" y="87.4297"/><line style="stroke:#181818;stroke-width:0.5;stroke-dasharray:5,5;" x1="1041.3618" x2="1041.3618" y1="87.4297" y2="899.8203"/></g></g><g class="participant-lifeline" data-entity-uid="part6" data-qualified-name="LPV" id="part6-lifeline"><g><title>LessonProgressVideo</title><rect fill="#000000" fill-opacity="0.00000" height="812.3906" width="8" x="1296.103" y="87.4297"/><line style="stroke:#181818;stroke-width:0.5;stroke-dasharray:5,5;" x1="1299.8135" x2="1299.8135" y1="87.4297" y2="899.8203"/></g></g><g class="participant-lifeline" data-entity-uid="part7" data-qualified-name="CDB" id="part7-lifeline"><g><title>CourseDB</title><rect fill="#000000" fill-opacity="0.00000" height="812.3906" width="8" x="1543.3472" y="87.4297"/><line style="stroke:#181818;stroke-width:0.5;stroke-dasharray:5,5;" x1="1546.7163" x2="1546.7163" y1="87.4297" y2="899.8203"/></g></g><g class="participant participant-head" data-entity-uid="part1" data-qualified-name="L" id="part1-head"><text fill="#000000" font-family="sans-serif" font-size="14" lengthAdjust="spacing" textLength="53.9902" x="5" y="84.1279">Learner</text><ellipse cx="34.9951" cy="19.6328" fill="#E2E2F0" rx="8" ry="8" style="stroke:#181818;stroke-width:0.5;"/><path d="M34.9951,27.6328 L34.9951,54.6328 M21.9951,35.6328 L47.9951,35.6328 M34.9951,54.6328 L21.9951,69.6328 M34.9951,54.6328 L47.9951,69.6328" fill="none" style="stroke:#181818;stroke-width:0.5;"/></g><g class="participant participant-tail" data-entity-uid="part1" data-qualified-name="L" id="part1-tail"><text fill="#000000" font-family="sans-serif" font-size="14" lengthAdjust="spacing" textLength="53.9902" x="5" y="911.8154">Learner</text><ellipse cx="34.9951" cy="923.6172" fill="#E2E2F0" rx="8" ry="8" style="stroke:#181818;stroke-width:0.5;"/><path d="M34.9951,931.6172 L34.9951,958.6172 M21.9951,939.6172 L47.9951,939.6172 M34.9951,958.6172 L21.9951,973.6172 M34.9951,958.6172 L47.9951,973.6172" fill="none" style="stroke:#181818;stroke-width:0.5;"/></g><g class="participant participant-head" data-entity-uid="part2" data-qualified-name="WA" id="part2-head"><text fill="#000000" font-family="sans-serif" font-size="14" lengthAdjust="spacing" textLength="58.6934" x="197.395" y="84.1279">WebApp</text><path d="M209.2417,43.1328 L209.2417,67.1328 M209.2417,55.1328 L226.2417,55.1328" fill="none" style="stroke:#181818;stroke-width:0.5;"/><ellipse cx="238.2417" cy="55.1328" fill="#E2E2F0" rx="12" ry="12" style="stroke:#181818;stroke-width:0.5;"/></g><g class="participant participant-tail" data-entity-uid="part2" data-qualified-name="WA" id="part2-tail"><text fill="#000000" font-family="sans-serif" font-size="14" lengthAdjust="spacing" textLength="58.6934" x="197.395" y="911.8154">WebApp</text><path d="M209.2417,919.1172 L209.2417,943.1172 M209.2417,931.1172 L226.2417,931.1172" fill="none" style="stroke:#181818;stroke-width:0.5;"/><ellipse cx="238.2417" cy="931.1172" fill="#E2E2F0" rx="12" ry="12" style="stroke:#181818;stroke-width:0.5;"/></g><g class="participant participant-head" data-entity-uid="part3" data-qualified-name="GW" id="part3-head"><text fill="#000000" font-family="sans-serif" font-size="14" lengthAdjust="spacing" textLength="88.4434" x="460.1523" y="84.1279">API Gateway</text><ellipse cx="507.374" cy="55.1328" fill="#E2E2F0" rx="12" ry="12" style="stroke:#181818;stroke-width:0.5;"/><polygon fill="#181818" points="503.374,43.1328,509.374,38.1328,507.374,43.1328,509.374,48.1328,503.374,43.1328" style="stroke:#181818;stroke-width:1;"/></g><g class="participant participant-tail" data-entity-uid="part3" data-qualified-name="GW" id="part3-tail"><text fill="#000000" font-family="sans-serif" font-size="14" lengthAdjust="spacing" textLength="88.4434" x="460.1523" y="911.8154">API Gateway</text><ellipse cx="507.374" cy="931.1172" fill="#E2E2F0" rx="12" ry="12" style="stroke:#181818;stroke-width:0.5;"/><polygon fill="#181818" points="503.374,919.1172,509.374,914.1172,507.374,919.1172,509.374,924.1172,503.374,919.1172" style="stroke:#181818;stroke-width:1;"/></g><g class="participant participant-head" data-entity-uid="part4" data-qualified-name="PC" id="part4-head"><text fill="#000000" font-family="sans-serif" font-size="14" lengthAdjust="spacing" textLength="129.7803" x="588.335" y="84.1279">ProgressController</text><ellipse cx="656.2251" cy="55.1328" fill="#E2E2F0" rx="12" ry="12" style="stroke:#181818;stroke-width:0.5;"/><polygon fill="#181818" points="652.2251,43.1328,658.2251,38.1328,656.2251,43.1328,658.2251,48.1328,652.2251,43.1328" style="stroke:#181818;stroke-width:1;"/></g><g class="participant participant-tail" data-entity-uid="part4" data-qualified-name="PC" id="part4-tail"><text fill="#000000" font-family="sans-serif" font-size="14" lengthAdjust="spacing" textLength="129.7803" x="588.335" y="911.8154">ProgressController</text><ellipse cx="656.2251" cy="931.1172" fill="#E2E2F0" rx="12" ry="12" style="stroke:#181818;stroke-width:0.5;"/><polygon fill="#181818" points="652.2251,919.1172,658.2251,914.1172,656.2251,919.1172,658.2251,924.1172,652.2251,919.1172" style="stroke:#181818;stroke-width:1;"/></g><g class="participant participant-head" data-entity-uid="part5" data-qualified-name="CA" id="part5-head"><text fill="#000000" font-family="sans-serif" font-size="14" lengthAdjust="spacing" textLength="76.2275" x="1000.3618" y="84.1279">CourseApp</text><ellipse cx="1041.4756" cy="55.1328" fill="#E2E2F0" rx="12" ry="12" style="stroke:#181818;stroke-width:0.5;"/><polygon fill="#181818" points="1037.4756,43.1328,1043.4756,38.1328,1041.4756,43.1328,1043.4756,48.1328,1037.4756,43.1328" style="stroke:#181818;stroke-width:1;"/></g><g class="participant participant-tail" data-entity-uid="part5" data-qualified-name="CA" id="part5-tail"><text fill="#000000" font-family="sans-serif" font-size="14" lengthAdjust="spacing" textLength="76.2275" x="1000.3618" y="911.8154">CourseApp</text><ellipse cx="1041.4756" cy="931.1172" fill="#E2E2F0" rx="12" ry="12" style="stroke:#181818;stroke-width:0.5;"/><polygon fill="#181818" points="1037.4756,919.1172,1043.4756,914.1172,1041.4756,919.1172,1043.4756,924.1172,1037.4756,919.1172" style="stroke:#181818;stroke-width:1;"/></g><g class="participant participant-head" data-entity-uid="part6" data-qualified-name="LPV" id="part6-head"><text fill="#000000" font-family="sans-serif" font-size="14" lengthAdjust="spacing" textLength="148.5791" x="1222.8135" y="84.1279">LessonProgressVideo</text><ellipse cx="1300.103" cy="55.1328" fill="#E2E2F0" rx="12" ry="12" style="stroke:#181818;stroke-width:0.5;"/><line style="stroke:#181818;stroke-width:0.5;" x1="1288.103" x2="1312.103" y1="69.1328" y2="69.1328"/></g><g class="participant participant-tail" data-entity-uid="part6" data-qualified-name="LPV" id="part6-tail"><text fill="#000000" font-family="sans-serif" font-size="14" lengthAdjust="spacing" textLength="148.5791" x="1222.8135" y="911.8154">LessonProgressVideo</text><ellipse cx="1300.103" cy="931.1172" fill="#E2E2F0" rx="12" ry="12" style="stroke:#181818;stroke-width:0.5;"/><line style="stroke:#181818;stroke-width:0.5;" x1="1288.103" x2="1312.103" y1="945.1172" y2="945.1172"/></g><g class="participant participant-head" data-entity-uid="part7" data-qualified-name="CDB" id="part7-head"><text fill="#000000" font-family="sans-serif" font-size="14" lengthAdjust="spacing" textLength="69.2617" x="1509.7163" y="84.1279">CourseDB</text><path d="M1529.3472,35.1328 C1529.3472,25.1328 1547.3472,25.1328 1547.3472,25.1328 C1547.3472,25.1328 1565.3472,25.1328 1565.3472,35.1328 L1565.3472,61.1328 C1565.3472,71.1328 1547.3472,71.1328 1547.3472,71.1328 C1547.3472,71.1328 1529.3472,71.1328 1529.3472,61.1328 L1529.3472,35.1328" fill="#E2E2F0" style="stroke:#181818;stroke-width:0.5;"/><path d="M1529.3472,35.1328 C1529.3472,45.1328 1547.3472,45.1328 1547.3472,45.1328 C1547.3472,45.1328 1565.3472,45.1328 1565.3472,35.1328" fill="none" style="stroke:#181818;stroke-width:0.5;"/></g><g class="participant participant-tail" data-entity-uid="part7" data-qualified-name="CDB" id="part7-tail"><text fill="#000000" font-family="sans-serif" font-size="14" lengthAdjust="spacing" textLength="69.2617" x="1509.7163" y="911.8154">CourseDB</text><path d="M1529.3472,925.1172 C1529.3472,915.1172 1547.3472,915.1172 1547.3472,915.1172 C1547.3472,915.1172 1565.3472,915.1172 1565.3472,925.1172 L1565.3472,951.1172 C1565.3472,961.1172 1547.3472,961.1172 1547.3472,961.1172 C1547.3472,961.1172 1529.3472,961.1172 1529.3472,951.1172 L1529.3472,925.1172" fill="#E2E2F0" style="stroke:#181818;stroke-width:0.5;"/><path d="M1529.3472,925.1172 C1529.3472,935.1172 1547.3472,935.1172 1547.3472,935.1172 C1547.3472,935.1172 1565.3472,935.1172 1565.3472,925.1172" fill="none" style="stroke:#181818;stroke-width:0.5;"/></g><g><title>Learner</title><rect fill="#FFFFFF" height="748.125" style="stroke:#181818;stroke-width:1;" width="10" x="29.9951" y="133.6953"/></g><g><title>WebApp</title><rect fill="#FFFFFF" height="748.125" style="stroke:#181818;stroke-width:1;" width="10" x="224.7417" y="133.6953"/></g><g><title>API Gateway</title><rect fill="#FFFFFF" height="624.4609" style="stroke:#181818;stroke-width:1;" width="10" x="502.374" y="228.2266"/></g><g><title>ProgressController</title><rect fill="#FFFFFF" height="524.0625" style="stroke:#181818;stroke-width:1;" width="10" x="651.2251" y="299.4922"/></g><g><title>CourseApp</title><rect fill="#FFFFFF" height="465.7969" style="stroke:#181818;stroke-width:1;" width="10" x="1036.4756" y="328.625"/></g><g><title>LessonProgressVideo</title><rect fill="#FFFFFF" height="71.2656" style="stroke:#181818;stroke-width:1;" width="10" x="1295.103" y="440.1563"/></g><g><title>LessonProgressVideo</title><rect fill="#FFFFFF" height="86.3984" style="stroke:#181818;stroke-width:1;" width="10" x="1295.103" y="613.625"/></g><g><title>CourseDB</title><rect fill="#FFFFFF" height="29.1328" style="stroke:#181818;stroke-width:1;" width="10" x="1542.3472" y="357.7578"/></g><g><title>CourseDB</title><rect fill="#FFFFFF" height="29.1328" style="stroke:#181818;stroke-width:1;" width="10" x="1542.3472" y="540.5547"/></g><g><title>CourseDB</title><rect fill="#FFFFFF" height="29.1328" style="stroke:#181818;stroke-width:1;" width="10" x="1542.3472" y="729.1563"/></g><g class="message" data-entity-1="part1" data-entity-2="part2" id="msg1"><polygon fill="#181818" points="212.7417,129.6953,222.7417,133.6953,212.7417,137.6953,216.7417,133.6953" style="stroke:#181818;stroke-width:1;"/><line style="stroke:#181818;stroke-width:1;" x1="39.9951" x2="218.7417" y1="133.6953" y2="133.6953"/><text fill="#000000" font-family="sans-serif" font-size="13" font-weight="bold" lengthAdjust="spacing" textLength="9.0454" x="46.9951" y="121.063">1</text><text fill="#000000" font-family="sans-serif" font-size="13" lengthAdjust="spacing" textLength="113.4453" x="60.0405" y="113.4966">Watching video...</text><text fill="#000000" font-family="sans-serif" font-size="13" lengthAdjust="spacing" textLength="157.7012" x="60.0405" y="128.6294">(periodic progress save)</text></g><path d="M127,146.6953 L127,186.6953 L332,186.6953 L332,156.6953 L322,146.6953 L127,146.6953" fill="#FEFFDD" style="stroke:#181818;stroke-width:0.5;"/><path d="M322,146.6953 L322,156.6953 L332,156.6953 L322,146.6953" fill="#FEFFDD" style="stroke:#181818;stroke-width:0.5;"/><text fill="#000000" font-family="sans-serif" font-size="13" lengthAdjust="spacing" textLength="184.1074" x="133" y="163.7622">Auto-save every 30 seconds</text><text fill="#000000" font-family="sans-serif" font-size="13" lengthAdjust="spacing" textLength="111.6616" x="133" y="178.895">or on pause/seek</text><g class="message" data-entity-1="part2" data-entity-2="part3" id="msg2"><polygon fill="#181818" points="490.374,224.2266,500.374,228.2266,490.374,232.2266,494.374,228.2266" style="stroke:#181818;stroke-width:1;"/><line style="stroke:#181818;stroke-width:1;" x1="234.7417" x2="496.374" y1="228.2266" y2="228.2266"/><text fill="#000000" font-family="sans-serif" font-size="13" font-weight="bold" lengthAdjust="spacing" textLength="9.0454" x="241.7417" y="215.5942">2</text><text fill="#000000" font-family="sans-serif" font-size="13" lengthAdjust="spacing" textLength="235.5869" x="254.7871" y="208.0278">PATCH /lessons/{lessonId}/progress</text><text fill="#000000" font-family="sans-serif" font-size="13" lengthAdjust="spacing" textLength="216.0425" x="254.7871" y="223.1606">{watchedSeconds, isCompleted}</text></g><g class="message" data-entity-1="part3" data-entity-2="part3" id="msg3"><line style="stroke:#181818;stroke-width:1;" x1="512.374" x2="554.374" y1="257.3594" y2="257.3594"/><line style="stroke:#181818;stroke-width:1;" x1="554.374" x2="554.374" y1="257.3594" y2="270.3594"/><line style="stroke:#181818;stroke-width:1;" x1="513.374" x2="554.374" y1="270.3594" y2="270.3594"/><polygon fill="#181818" points="523.374,266.3594,513.374,270.3594,523.374,274.3594,519.374,270.3594" style="stroke:#181818;stroke-width:1;"/><text fill="#000000" font-family="sans-serif" font-size="13" font-weight="bold" lengthAdjust="spacing" textLength="9.0454" x="519.374" y="252.2935">3</text><text fill="#000000" font-family="sans-serif" font-size="13" lengthAdjust="spacing" textLength="82.1577" x="532.4194" y="252.2935">Validate JWT</text></g><g class="message" data-entity-1="part3" data-entity-2="part4" id="msg4"><polygon fill="#181818" points="639.2251,295.4922,649.2251,299.4922,639.2251,303.4922,643.2251,299.4922" style="stroke:#181818;stroke-width:1;"/><line style="stroke:#181818;stroke-width:1;" x1="512.374" x2="645.2251" y1="299.4922" y2="299.4922"/><text fill="#000000" font-family="sans-serif" font-size="13" font-weight="bold" lengthAdjust="spacing" textLength="9.0454" x="519.374" y="294.4263">4</text><text fill="#000000" font-family="sans-serif" font-size="13" lengthAdjust="spacing" textLength="106.8057" x="532.4194" y="294.4263">Forward request</text></g><g class="message" data-entity-1="part4" data-entity-2="part5" id="msg5"><polygon fill="#181818" points="1024.4756,324.625,1034.4756,328.625,1024.4756,332.625,1028.4756,328.625" style="stroke:#181818;stroke-width:1;"/><line style="stroke:#181818;stroke-width:1;" x1="661.2251" x2="1030.4756" y1="328.625" y2="328.625"/><text fill="#000000" font-family="sans-serif" font-size="13" font-weight="bold" lengthAdjust="spacing" textLength="9.0454" x="668.2251" y="323.5591">5</text><text fill="#000000" font-family="sans-serif" font-size="13" lengthAdjust="spacing" textLength="343.2051" x="681.2705" y="323.5591">SaveLessonProgress(lessonId, userID, progressData)</text></g><g class="message" data-entity-1="part5" data-entity-2="part7" id="msg6"><polygon fill="#181818" points="1530.3472,353.7578,1540.3472,357.7578,1530.3472,361.7578,1534.3472,357.7578" style="stroke:#181818;stroke-width:1;"/><line style="stroke:#181818;stroke-width:1;" x1="1046.4756" x2="1536.3472" y1="357.7578" y2="357.7578"/><text fill="#000000" font-family="sans-serif" font-size="13" font-weight="bold" lengthAdjust="spacing" textLength="9.0454" x="1053.4756" y="352.6919">6</text><text fill="#000000" font-family="sans-serif" font-size="13" lengthAdjust="spacing" textLength="143.8125" x="1066.521" y="352.6919">Find existing progress</text></g><g class="message" data-entity-1="part7" data-entity-2="part5" id="msg7"><polygon fill="#181818" points="1057.4756,382.8906,1047.4756,386.8906,1057.4756,390.8906,1053.4756,386.8906" style="stroke:#181818;stroke-width:1;"/><line style="stroke:#181818;stroke-width:1;stroke-dasharray:2,2;" x1="1051.4756" x2="1546.3472" y1="386.8906" y2="386.8906"/><text fill="#000000" font-family="sans-serif" font-size="13" font-weight="bold" lengthAdjust="spacing" textLength="9.0454" x="1063.4756" y="381.8247">7</text><text fill="#000000" font-family="sans-serif" font-size="13" lengthAdjust="spacing" textLength="101.5435" x="1076.521" y="381.8247">Progress or null</text></g><path d="M990.3618,401.8906 L1054.8047,401.8906 L1054.8047,409.0234 L1044.8047,419.0234 L990.3618,419.0234 L990.3618,401.8906" fill="#EEEEEE" style="stroke:#000000;stroke-width:1.5;"/><rect fill="none" height="364.3984" style="stroke:#000000;stroke-width:1.5;" width="604.6162" x="990.3618" y="401.8906"/><text fill="#000000" font-family="sans-serif" font-size="13" font-weight="bold" lengthAdjust="spacing" textLength="19.4429" x="1005.3618" y="414.9575">alt</text><text fill="#000000" font-family="sans-serif" font-size="11" font-weight="bold" lengthAdjust="spacing" textLength="138.7944" x="1069.8047" y="414.1011">[No existing progress]</text><g class="message" data-entity-1="part5" data-entity-2="part6" id="msg8"><polygon fill="#181818" points="1283.103,436.1563,1293.103,440.1563,1283.103,444.1563,1287.103,440.1563" style="stroke:#181818;stroke-width:1;"/><line style="stroke:#181818;stroke-width:1;" x1="1046.4756" x2="1289.103" y1="440.1563" y2="440.1563"/><text fill="#000000" font-family="sans-serif" font-size="13" font-weight="bold" lengthAdjust="spacing" textLength="9.0454" x="1053.4756" y="435.0903">8</text><text fill="#000000" font-family="sans-serif" font-size="13" lengthAdjust="spacing" textLength="216.582" x="1066.521" y="435.0903">Create new LessonProgressVideo</text></g><g class="message" data-entity-1="part6" data-entity-2="part6" id="msg9"><line style="stroke:#181818;stroke-width:1;" x1="1305.103" x2="1347.103" y1="469.2891" y2="469.2891"/><line style="stroke:#181818;stroke-width:1;" x1="1347.103" x2="1347.103" y1="469.2891" y2="482.2891"/><line style="stroke:#181818;stroke-width:1;" x1="1306.103" x2="1347.103" y1="482.2891" y2="482.2891"/><polygon fill="#181818" points="1316.103,478.2891,1306.103,482.2891,1316.103,486.2891,1312.103,482.2891" style="stroke:#181818;stroke-width:1;"/><text fill="#000000" font-family="sans-serif" font-size="13" font-weight="bold" lengthAdjust="spacing" textLength="9.0454" x="1312.103" y="464.2231">9</text><text fill="#000000" font-family="sans-serif" font-size="13" lengthAdjust="spacing" textLength="200.1987" x="1325.1484" y="464.2231">Initialize with watchedSeconds</text></g><g class="message" data-entity-1="part6" data-entity-2="part5" id="msg10"><polygon fill="#181818" points="1057.4756,507.4219,1047.4756,511.4219,1057.4756,515.4219,1053.4756,511.4219" style="stroke:#181818;stroke-width:1;"/><line style="stroke:#181818;stroke-width:1;stroke-dasharray:2,2;" x1="1051.4756" x2="1299.103" y1="511.4219" y2="511.4219"/><text fill="#000000" font-family="sans-serif" font-size="13" font-weight="bold" lengthAdjust="spacing" textLength="18.0908" x="1063.4756" y="506.356">10</text><text fill="#000000" font-family="sans-serif" font-size="13" lengthAdjust="spacing" textLength="131.0474" x="1085.5664" y="506.356">New progress entity</text></g><g class="message" data-entity-1="part5" data-entity-2="part7" id="msg11"><polygon fill="#181818" points="1530.3472,536.5547,1540.3472,540.5547,1530.3472,544.5547,1534.3472,540.5547" style="stroke:#181818;stroke-width:1;"/><line style="stroke:#181818;stroke-width:1;" x1="1046.4756" x2="1536.3472" y1="540.5547" y2="540.5547"/><text fill="#000000" font-family="sans-serif" font-size="13" font-weight="bold" lengthAdjust="spacing" textLength="18.0908" x="1053.4756" y="535.4888">11</text><text fill="#000000" font-family="sans-serif" font-size="13" lengthAdjust="spacing" textLength="129.1113" x="1075.5664" y="535.4888">Insert new progress</text></g><g class="message" data-entity-1="part7" data-entity-2="part5" id="msg12"><polygon fill="#181818" points="1057.4756,565.6875,1047.4756,569.6875,1057.4756,573.6875,1053.4756,569.6875" style="stroke:#181818;stroke-width:1;"/><line style="stroke:#181818;stroke-width:1;stroke-dasharray:2,2;" x1="1051.4756" x2="1546.3472" y1="569.6875" y2="569.6875"/><text fill="#000000" font-family="sans-serif" font-size="13" font-weight="bold" lengthAdjust="spacing" textLength="18.0908" x="1063.4756" y="564.6216">12</text><text fill="#000000" font-family="sans-serif" font-size="13" lengthAdjust="spacing" textLength="110.2144" x="1085.5664" y="564.6216">Progress created</text></g><line style="stroke:#000000;stroke-width:1;stroke-dasharray:2,2;" x1="990.3618" x2="1594.978" y1="578.6875" y2="578.6875"/><text fill="#000000" font-family="sans-serif" font-size="11" font-weight="bold" lengthAdjust="spacing" textLength="118.2554" x="995.3618" y="588.8979">[Existing progress]</text><g class="message" data-entity-1="part5" data-entity-2="part6" id="msg13"><polygon fill="#181818" points="1283.103,609.625,1293.103,613.625,1283.103,617.625,1287.103,613.625" style="stroke:#181818;stroke-width:1;"/><line style="stroke:#181818;stroke-width:1;" x1="1046.4756" x2="1289.103" y1="613.625" y2="613.625"/><text fill="#000000" font-family="sans-serif" font-size="13" font-weight="bold" lengthAdjust="spacing" textLength="18.0908" x="1053.4756" y="608.5591">13</text><text fill="#000000" font-family="sans-serif" font-size="13" lengthAdjust="spacing" textLength="107.9038" x="1075.5664" y="608.5591">Update progress</text></g><g class="message" data-entity-1="part6" data-entity-2="part6" id="msg14"><line style="stroke:#181818;stroke-width:1;" x1="1305.103" x2="1347.103" y1="657.8906" y2="657.8906"/><line style="stroke:#181818;stroke-width:1;" x1="1347.103" x2="1347.103" y1="657.8906" y2="670.8906"/><line style="stroke:#181818;stroke-width:1;" x1="1306.103" x2="1347.103" y1="670.8906" y2="670.8906"/><polygon fill="#181818" points="1316.103,666.8906,1306.103,670.8906,1316.103,674.8906,1312.103,670.8906" style="stroke:#181818;stroke-width:1;"/><text fill="#000000" font-family="sans-serif" font-size="13" font-weight="bold" lengthAdjust="spacing" textLength="18.0908" x="1312.103" y="645.2583">14</text><text fill="#000000" font-family="sans-serif" font-size="13" lengthAdjust="spacing" textLength="165.293" x="1334.1938" y="637.6919">Update watchedSeconds,</text><text fill="#000000" font-family="sans-serif" font-size="13" lengthAdjust="spacing" textLength="146.9355" x="1334.1938" y="652.8247">lastViewedAt = NOW()</text></g><g class="message" data-entity-1="part6" data-entity-2="part5" id="msg15"><polygon fill="#181818" points="1057.4756,696.0234,1047.4756,700.0234,1057.4756,704.0234,1053.4756,700.0234" style="stroke:#181818;stroke-width:1;"/><line style="stroke:#181818;stroke-width:1;stroke-dasharray:2,2;" x1="1051.4756" x2="1299.103" y1="700.0234" y2="700.0234"/><text fill="#000000" font-family="sans-serif" font-size="13" font-weight="bold" lengthAdjust="spacing" textLength="18.0908" x="1063.4756" y="694.9575">15</text><text fill="#000000" font-family="sans-serif" font-size="13" lengthAdjust="spacing" textLength="97.2017" x="1085.5664" y="694.9575">Updated entity</text></g><g class="message" data-entity-1="part5" data-entity-2="part7" id="msg16"><polygon fill="#181818" points="1530.3472,725.1563,1540.3472,729.1563,1530.3472,733.1563,1534.3472,729.1563" style="stroke:#181818;stroke-width:1;"/><line style="stroke:#181818;stroke-width:1;" x1="1046.4756" x2="1536.3472" y1="729.1563" y2="729.1563"/><text fill="#000000" font-family="sans-serif" font-size="13" font-weight="bold" lengthAdjust="spacing" textLength="18.0908" x="1053.4756" y="724.0903">16</text><text fill="#000000" font-family="sans-serif" font-size="13" lengthAdjust="spacing" textLength="107.9038" x="1075.5664" y="724.0903">Update progress</text></g><g class="message" data-entity-1="part7" data-entity-2="part5" id="msg17"><polygon fill="#181818" points="1057.4756,754.2891,1047.4756,758.2891,1057.4756,762.2891,1053.4756,758.2891" style="stroke:#181818;stroke-width:1;"/><line style="stroke:#181818;stroke-width:1;stroke-dasharray:2,2;" x1="1051.4756" x2="1546.3472" y1="758.2891" y2="758.2891"/><text fill="#000000" font-family="sans-serif" font-size="13" font-weight="bold" lengthAdjust="spacing" textLength="18.0908" x="1063.4756" y="753.2231">17</text><text fill="#000000" font-family="sans-serif" font-size="13" lengthAdjust="spacing" textLength="114.4673" x="1085.5664" y="753.2231">Progress updated</text></g><g class="message" data-entity-1="part5" data-entity-2="part4" id="msg18"><polygon fill="#181818" points="672.2251,790.4219,662.2251,794.4219,672.2251,798.4219,668.2251,794.4219" style="stroke:#181818;stroke-width:1;"/><line style="stroke:#181818;stroke-width:1;stroke-dasharray:2,2;" x1="666.2251" x2="1040.4756" y1="794.4219" y2="794.4219"/><text fill="#000000" font-family="sans-serif" font-size="13" font-weight="bold" lengthAdjust="spacing" textLength="18.0908" x="678.2251" y="789.356">18</text><text fill="#000000" font-family="sans-serif" font-size="13" lengthAdjust="spacing" textLength="84.4619" x="700.3159" y="789.356">ProgressDTO</text></g><g class="message" data-entity-1="part4" data-entity-2="part3" id="msg19"><polygon fill="#181818" points="523.374,819.5547,513.374,823.5547,523.374,827.5547,519.374,823.5547" style="stroke:#181818;stroke-width:1;"/><line style="stroke:#181818;stroke-width:1;stroke-dasharray:2,2;" x1="517.374" x2="655.2251" y1="823.5547" y2="823.5547"/><text fill="#000000" font-family="sans-serif" font-size="13" font-weight="bold" lengthAdjust="spacing" textLength="18.0908" x="529.374" y="818.4888">19</text><text fill="#000000" font-family="sans-serif" font-size="13" lengthAdjust="spacing" textLength="47.7026" x="551.4648" y="818.4888">200 OK</text></g><g class="message" data-entity-1="part3" data-entity-2="part2" id="msg20"><polygon fill="#181818" points="245.7417,848.6875,235.7417,852.6875,245.7417,856.6875,241.7417,852.6875" style="stroke:#181818;stroke-width:1;"/><line style="stroke:#181818;stroke-width:1;stroke-dasharray:2,2;" x1="239.7417" x2="506.374" y1="852.6875" y2="852.6875"/><text fill="#000000" font-family="sans-serif" font-size="13" font-weight="bold" lengthAdjust="spacing" textLength="18.0908" x="251.7417" y="847.6216">20</text><text fill="#000000" font-family="sans-serif" font-size="13" lengthAdjust="spacing" textLength="99.0933" x="273.8325" y="847.6216">Progress saved</text></g><g class="message" data-entity-1="part2" data-entity-2="part1" id="msg21"><polygon fill="#181818" points="45.9951,877.8203,35.9951,881.8203,45.9951,885.8203,41.9951,881.8203" style="stroke:#181818;stroke-width:1;"/><line style="stroke:#181818;stroke-width:1;" x1="39.9951" x2="228.7417" y1="881.8203" y2="881.8203"/><text fill="#000000" font-family="sans-serif" font-size="13" font-weight="bold" lengthAdjust="spacing" textLength="18.0908" x="51.9951" y="876.7544">21</text><text fill="#000000" font-family="sans-serif" font-size="13" lengthAdjust="spacing" textLength="121.0054" x="74.0859" y="876.7544">Continue playback</text></g><?plantuml-src ZLJHRjem57ttLrnrBwrK2jlUq3OfX8sneJPIEw99l9ZughNgsfdjaDAg_xvhXq3IeMelo3ZdtdlEyR5vvOsk7jPe6NFtKfVSyWUOcCUC2o7rBRmVCSOBRomia5kD5hY31LkRIWjkjv3ZEYdBi9adZBOVuIJ9vZ3Z7ck-FO5t2tbxvoUgGWPG6EsjKQyWL3lB6Me1LBxhaPhAEeHhj1jPODlcDofbwawZp9fRYywbpN_LqClI3gJfjEEO9lG5jPT-ItgSCxhji9G2JTIMBGaZkEThJWoQykaaLayd1veB67mXpMF8kI_kWbMRqEBYucAbJqkqqWXPGBbh3uvly2muAJUacnpSBuDlsj32R8X-w9ZGeGn20I1jRU7Z21oI7k5McWx2Q2XvvN3e4EyPovF0P9QF8KjkqkymL56O6putYxbu6ROqLlgv3dHHN3SDpq6IUG-bGe_YvK2A3cIMjtsNN4aHTd_aDxljB1t3DsDhRWLO_5EXyuTYyfzbQO2bfEQQXFIzFcs9dGF9iFFf-TwdAVdUiOdEYwLH7tbF4oMvZu_I-U1tMzE1qm4H_DDWqE3RWK2kwKef9h27PLnvk3H7MW8qOoaDOqWjXWgDzR7G4FPmh34yzBkldMlf9VdtX51BVmTz-vivWMy4NzA4VMAQc8OiOg__dbkKEDVae8_SEkHxAlSp-fuKKPNe3uWHLvJxhszRygkCWJWsybyFTk1NoLjfnPrVIgnH91u-m-LLVdhsof6cLFod6M-mUiE8gfbnn0WjOf1ZINAecDvSzPAKX4iHGE5MV1YDuEfdzpjTXxoP6ozfzqKGNHpTkTrbNb3cwFcIkY8nYc_NlBZl8kd9wFh0_W80?></g></svg>