<?plantuml 1.2026.1?><svg xmlns="http://www.w3.org/2000/svg" xmlns:xlink="http://www.w3.org/1999/xlink" contentStyleType="text/css" data-diagram-type="SEQUENCE" height="794px" preserveAspectRatio="none" style="width:988px;height:794px;background:#FFFFFF;" version="1.1" viewBox="0 0 988 794" width="988px" zoomAndPan="magnify"><defs/><g><rect fill="#ADD8E6" height="782.25" style="stroke:#181818;stroke-width:0.5;" width="102.4434" x="500.75" y="6"/><text fill="#000000" font-family="sans-serif" font-size="13" font-weight="bold" lengthAdjust="spacing" textLength="92.6821" x="505.6306" y="18.0669">API Gateway</text><rect fill="#90EE90" height="782.25" style="stroke:#181818;stroke-width:0.5;" width="278.3491" x="703.7554" y="6"/><text fill="#000000" font-family="sans-serif" font-size="13" font-weight="bold" lengthAdjust="spacing" textLength="130.7427" x="777.5586" y="18.0669">Authentik Service</text><g><title>User</title><rect fill="#FFFFFF" height="578.5234" style="stroke:#181818;stroke-width:1;" width="10" x="18.9551" y="112.4297"/></g><g><title>WebApp</title><rect fill="#FFFFFF" height="578.5234" style="stroke:#181818;stroke-width:1;" width="10" x="255.186" y="112.4297"/></g><g><title>API Gateway</title><rect fill="#FFFFFF" height="187.7969" style="stroke:#181818;stroke-width:1;" width="10" x="546.9717" y="141.5625"/></g><g><title>API Gateway</title><rect fill="#FFFFFF" height="187.7969" style="stroke:#181818;stroke-width:1;" width="10" x="546.9717" y="474.0234"/></g><g><title>UserController</title><rect fill="#FFFFFF" height="129.5313" style="stroke:#181818;stroke-width:1;" width="10" x="756.2969" y="170.6953"/></g><g><title>UserController</title><rect fill="#FFFFFF" height="129.5313" style="stroke:#181818;stroke-width:1;" width="10" x="756.2969" y="503.1563"/></g><g><title>UserStore</title><rect fill="#FFFFFF" height="29.1328" style="stroke:#181818;stroke-width:1;" width="10" x="935.4941" y="241.9609"/></g><g><title>UserStore</title><rect fill="#FFFFFF" height="29.1328" style="stroke:#181818;stroke-width:1;" width="10" x="935.4941" y="574.4219"/></g><g class="participant-lifeline" data-entity-uid="part1" data-qualified-name="U" id="part1-lifeline"><g><title>User</title><rect fill="#000000" fill-opacity="0.00000" height="627.6563" width="8" x="19.9551" y="81.2969"/><line style="stroke:#181818;stroke-width:0.5;stroke-dasharray:5,5;" x1="23" x2="23" y1="81.2969" y2="708.9531"/></g></g><g class="participant-lifeline" data-entity-uid="part2" data-qualified-name="WA" id="part2-lifeline"><g><title>WebApp</title><rect fill="#000000" fill-opacity="0.00000" height="627.6563" width="8" x="256.186" y="81.2969"/><line style="stroke:#181818;stroke-width:0.5;stroke-dasharray:5,5;" x1="259.8394" x2="259.8394" y1="81.2969" y2="708.9531"/></g></g><g class="participant-lifeline" data-entity-uid="part3" data-qualified-name="GW" id="part3-lifeline"><g><title>API Gateway</title><rect fill="#000000" fill-opacity="0.00000" height="627.6563" width="8" x="547.9717" y="81.2969"/><line style="stroke:#181818;stroke-width:0.5;stroke-dasharray:5,5;" x1="551.75" x2="551.75" y1="81.2969" y2="708.9531"/></g></g><g class="participant-lifeline" data-entity-uid="part4" data-qualified-name="UC" id="part4-lifeline"><g><title>UserController</title><rect fill="#000000" fill-opacity="0.00000" height="627.6563" width="8" x="757.2969" y="81.2969"/><line style="stroke:#181818;stroke-width:0.5;stroke-dasharray:5,5;" x1="760.7554" x2="760.7554" y1="81.2969" y2="708.9531"/></g></g><g class="participant-lifeline" data-entity-uid="part5" data-qualified-name="US" id="part5-lifeline"><g><title>UserStore</title><rect fill="#000000" fill-opacity="0.00000" height="627.6563" width="8" x="936.4941" y="81.2969"/><line style="stroke:#181818;stroke-width:0.5;stroke-dasharray:5,5;" x1="939.8838" x2="939.8838" y1="81.2969" y2="708.9531"/></g></g><g class="participant participant-head" data-entity-uid="part1" data-qualified-name="U" id="part1-head"><text fill="#000000" font-family="sans-serif" font-size="14" lengthAdjust="spacing" textLength="31.9102" x="5" y="77.9951">User</text><ellipse cx="23.9551" cy="13.5" fill="#E2E2F0" rx="8" ry="8" style="stroke:#181818;stroke-width:0.5;"/><path d="M23.9551,21.5 L23.9551,48.5 M10.9551,29.5 L36.9551,29.5 M23.9551,48.5 L10.9551,63.5 M23.9551,48.5 L36.9551,63.5" fill="none" style="stroke:#181818;stroke-width:0.5;"/></g><g class="participant participant-tail" data-entity-uid="part1" data-qualified-name="U" id="part1-tail"><text fill="#000000" font-family="sans-serif" font-size="14" lengthAdjust="spacing" textLength="31.9102" x="5" y="720.9482">User</text><ellipse cx="23.9551" cy="732.75" fill="#E2E2F0" rx="8" ry="8" style="stroke:#181818;stroke-width:0.5;"/><path d="M23.9551,740.75 L23.9551,767.75 M10.9551,748.75 L36.9551,748.75 M23.9551,767.75 L10.9551,782.75 M23.9551,767.75 L36.9551,782.75" fill="none" style="stroke:#181818;stroke-width:0.5;"/></g><g class="participant participant-head" data-entity-uid="part2" data-qualified-name="WA" id="part2-head"><text fill="#000000" font-family="sans-serif" font-size="14" lengthAdjust="spacing" textLength="58.6934" x="227.8394" y="77.9951">WebApp</text><path d="M239.686,37 L239.686,61 M239.686,49 L256.686,49" fill="none" style="stroke:#181818;stroke-width:0.5;"/><ellipse cx="268.686" cy="49" fill="#E2E2F0" rx="12" ry="12" style="stroke:#181818;stroke-width:0.5;"/></g><g class="participant participant-tail" data-entity-uid="part2" data-qualified-name="WA" id="part2-tail"><text fill="#000000" font-family="sans-serif" font-size="14" lengthAdjust="spacing" textLength="58.6934" x="227.8394" y="720.9482">WebApp</text><path d="M239.686,728.25 L239.686,752.25 M239.686,740.25 L256.686,740.25" fill="none" style="stroke:#181818;stroke-width:0.5;"/><ellipse cx="268.686" cy="740.25" fill="#E2E2F0" rx="12" ry="12" style="stroke:#181818;stroke-width:0.5;"/></g><g class="participant participant-head" data-entity-uid="part3" data-qualified-name="GW" id="part3-head"><text fill="#000000" font-family="sans-serif" font-size="14" lengthAdjust="spacing" textLength="88.4434" x="504.75" y="77.9951">API Gateway</text><ellipse cx="551.9717" cy="49" fill="#E2E2F0" rx="12" ry="12" style="stroke:#181818;stroke-width:0.5;"/><polygon fill="#181818" points="547.9717,37,553.9717,32,551.9717,37,553.9717,42,547.9717,37" style="stroke:#181818;stroke-width:1;"/></g><g class="participant participant-tail" data-entity-uid="part3" data-qualified-name="GW" id="part3-tail"><text fill="#000000" font-family="sans-serif" font-size="14" lengthAdjust="spacing" textLength="88.4434" x="504.75" y="720.9482">API Gateway</text><ellipse cx="551.9717" cy="740.25" fill="#E2E2F0" rx="12" ry="12" style="stroke:#181818;stroke-width:0.5;"/><polygon fill="#181818" points="547.9717,728.25,553.9717,723.25,551.9717,728.25,553.9717,733.25,547.9717,728.25" style="stroke:#181818;stroke-width:1;"/></g><g class="participant participant-head" data-entity-uid="part4" data-qualified-name="UC" id="part4-head"><text fill="#000000" font-family="sans-serif" font-size="14" lengthAdjust="spacing" textLength="101.083" x="707.7554" y="77.9951">UserController</text><ellipse cx="761.2969" cy="49" fill="#E2E2F0" rx="12" ry="12" style="stroke:#181818;stroke-width:0.5;"/><polygon fill="#181818" points="757.2969,37,763.2969,32,761.2969,37,763.2969,42,757.2969,37" style="stroke:#181818;stroke-width:1;"/></g><g class="participant participant-tail" data-entity-uid="part4" data-qualified-name="UC" id="part4-tail"><text fill="#000000" font-family="sans-serif" font-size="14" lengthAdjust="spacing" textLength="101.083" x="707.7554" y="720.9482">UserController</text><ellipse cx="761.2969" cy="740.25" fill="#E2E2F0" rx="12" ry="12" style="stroke:#181818;stroke-width:0.5;"/><polygon fill="#181818" points="757.2969,728.25,763.2969,723.25,761.2969,728.25,763.2969,733.25,757.2969,728.25" style="stroke:#181818;stroke-width:1;"/></g><g class="participant participant-head" data-entity-uid="part5" data-qualified-name="US" id="part5-head"><text fill="#000000" font-family="sans-serif" font-size="14" lengthAdjust="spacing" textLength="69.2207" x="902.8838" y="77.9951">UserStore</text><ellipse cx="940.4941" cy="49" fill="#E2E2F0" rx="12" ry="12" style="stroke:#181818;stroke-width:0.5;"/><line style="stroke:#181818;stroke-width:0.5;" x1="928.4941" x2="952.4941" y1="63" y2="63"/></g><g class="participant participant-tail" data-entity-uid="part5" data-qualified-name="US" id="part5-tail"><text fill="#000000" font-family="sans-serif" font-size="14" lengthAdjust="spacing" textLength="69.2207" x="902.8838" y="720.9482">UserStore</text><ellipse cx="940.4941" cy="740.25" fill="#E2E2F0" rx="12" ry="12" style="stroke:#181818;stroke-width:0.5;"/><line style="stroke:#181818;stroke-width:0.5;" x1="928.4941" x2="952.4941" y1="754.25" y2="754.25"/></g><g><title>User</title><rect fill="#FFFFFF" height="578.5234" style="stroke:#181818;stroke-width:1;" width="10" x="18.9551" y="112.4297"/></g><g><title>WebApp</title><rect fill="#FFFFFF" height="578.5234" style="stroke:#181818;stroke-width:1;" width="10" x="255.186" y="112.4297"/></g><g><title>API Gateway</title><rect fill="#FFFFFF" height="187.7969" style="stroke:#181818;stroke-width:1;" width="10" x="546.9717" y="141.5625"/></g><g><title>API Gateway</title><rect fill="#FFFFFF" height="187.7969" style="stroke:#181818;stroke-width:1;" width="10" x="546.9717" y="474.0234"/></g><g><title>UserController</title><rect fill="#FFFFFF" height="129.5313" style="stroke:#181818;stroke-width:1;" width="10" x="756.2969" y="170.6953"/></g><g><title>UserController</title><rect fill="#FFFFFF" height="129.5313" style="stroke:#181818;stroke-width:1;" width="10" x="756.2969" y="503.1563"/></g><g><title>UserStore</title><rect fill="#FFFFFF" height="29.1328" style="stroke:#181818;stroke-width:1;" width="10" x="935.4941" y="241.9609"/></g><g><title>UserStore</title><rect fill="#FFFFFF" height="29.1328" style="stroke:#181818;stroke-width:1;" width="10" x="935.4941" y="574.4219"/></g><g class="message" data-entity-1="part1" data-entity-2="part2" id="msg1"><polygon fill="#181818" points="243.186,108.4297,253.186,112.4297,243.186,116.4297,247.186,112.4297" style="stroke:#181818;stroke-width:1;"/><line style="stroke:#181818;stroke-width:1;" x1="28.9551" x2="249.186" y1="112.4297" y2="112.4297"/><text fill="#000000" font-family="sans-serif" font-size="13" font-weight="bold" lengthAdjust="spacing" textLength="9.0454" x="35.9551" y="107.3638">1</text><text fill="#000000" font-family="sans-serif" font-size="13" lengthAdjust="spacing" textLength="178.0137" x="49.0005" y="107.3638">Navigate to Profile Settings</text></g><g class="message" data-entity-1="part2" data-entity-2="part3" id="msg2"><polygon fill="#181818" points="534.9717,137.5625,544.9717,141.5625,534.9717,145.5625,538.9717,141.5625" style="stroke:#181818;stroke-width:1;"/><line style="stroke:#181818;stroke-width:1;" x1="265.186" x2="540.9717" y1="141.5625" y2="141.5625"/><text fill="#000000" font-family="sans-serif" font-size="13" font-weight="bold" lengthAdjust="spacing" textLength="9.0454" x="272.186" y="136.4966">2</text><text fill="#000000" font-family="sans-serif" font-size="13" lengthAdjust="spacing" textLength="94.9102" x="285.2314" y="136.4966">GET /users/me</text></g><g class="message" data-entity-1="part3" data-entity-2="part4" id="msg3"><polygon fill="#181818" points="744.2969,166.6953,754.2969,170.6953,744.2969,174.6953,748.2969,170.6953" style="stroke:#181818;stroke-width:1;"/><line style="stroke:#181818;stroke-width:1;" x1="556.9717" x2="750.2969" y1="170.6953" y2="170.6953"/><text fill="#000000" font-family="sans-serif" font-size="13" font-weight="bold" lengthAdjust="spacing" textLength="9.0454" x="563.9717" y="165.6294">3</text><text fill="#000000" font-family="sans-serif" font-size="13" lengthAdjust="spacing" textLength="167.2798" x="577.0171" y="165.6294">Forward request with JWT</text></g><g class="message" data-entity-1="part4" data-entity-2="part4" id="msg4"><line style="stroke:#181818;stroke-width:1;" x1="766.2969" x2="808.2969" y1="199.8281" y2="199.8281"/><line style="stroke:#181818;stroke-width:1;" x1="808.2969" x2="808.2969" y1="199.8281" y2="212.8281"/><line style="stroke:#181818;stroke-width:1;" x1="767.2969" x2="808.2969" y1="212.8281" y2="212.8281"/><polygon fill="#181818" points="777.2969,208.8281,767.2969,212.8281,777.2969,216.8281,773.2969,212.8281" style="stroke:#181818;stroke-width:1;"/><text fill="#000000" font-family="sans-serif" font-size="13" font-weight="bold" lengthAdjust="spacing" textLength="9.0454" x="773.2969" y="194.7622">4</text><text fill="#000000" font-family="sans-serif" font-size="13" lengthAdjust="spacing" textLength="123.1064" x="786.3423" y="194.7622">Validate JWT token</text></g><g class="message" data-entity-1="part4" data-entity-2="part5" id="msg5"><polygon fill="#181818" points="923.4941,237.9609,933.4941,241.9609,923.4941,245.9609,927.4941,241.9609" style="stroke:#181818;stroke-width:1;"/><line style="stroke:#181818;stroke-width:1;" x1="766.2969" x2="929.4941" y1="241.9609" y2="241.9609"/><text fill="#000000" font-family="sans-serif" font-size="13" font-weight="bold" lengthAdjust="spacing" textLength="9.0454" x="773.2969" y="236.895">5</text><text fill="#000000" font-family="sans-serif" font-size="13" lengthAdjust="spacing" textLength="93.7104" x="786.3423" y="236.895">Get user by ID</text></g><g class="message" data-entity-1="part5" data-entity-2="part4" id="msg6"><polygon fill="#181818" points="777.2969,267.0938,767.2969,271.0938,777.2969,275.0938,773.2969,271.0938" style="stroke:#181818;stroke-width:1;"/><line style="stroke:#181818;stroke-width:1;stroke-dasharray:2,2;" x1="771.2969" x2="939.4941" y1="271.0938" y2="271.0938"/><text fill="#000000" font-family="sans-serif" font-size="13" font-weight="bold" lengthAdjust="spacing" textLength="9.0454" x="783.2969" y="266.0278">6</text><text fill="#000000" font-family="sans-serif" font-size="13" lengthAdjust="spacing" textLength="63.0449" x="796.3423" y="266.0278">User data</text></g><g class="message" data-entity-1="part4" data-entity-2="part3" id="msg7"><polygon fill="#181818" points="567.9717,296.2266,557.9717,300.2266,567.9717,304.2266,563.9717,300.2266" style="stroke:#181818;stroke-width:1;"/><line style="stroke:#181818;stroke-width:1;stroke-dasharray:2,2;" x1="561.9717" x2="760.2969" y1="300.2266" y2="300.2266"/><text fill="#000000" font-family="sans-serif" font-size="13" font-weight="bold" lengthAdjust="spacing" textLength="9.0454" x="573.9717" y="295.1606">7</text><text fill="#000000" font-family="sans-serif" font-size="13" lengthAdjust="spacing" textLength="75.1118" x="587.0171" y="295.1606">User profile</text></g><g class="message" data-entity-1="part3" data-entity-2="part2" id="msg8"><polygon fill="#181818" points="276.186,325.3594,266.186,329.3594,276.186,333.3594,272.186,329.3594" style="stroke:#181818;stroke-width:1;"/><line style="stroke:#181818;stroke-width:1;stroke-dasharray:2,2;" x1="270.186" x2="550.9717" y1="329.3594" y2="329.3594"/><text fill="#000000" font-family="sans-serif" font-size="13" font-weight="bold" lengthAdjust="spacing" textLength="9.0454" x="282.186" y="324.2935">8</text><text fill="#000000" font-family="sans-serif" font-size="13" lengthAdjust="spacing" textLength="74.3501" x="295.2314" y="324.2935">Profile data</text></g><g class="message" data-entity-1="part2" data-entity-2="part2" id="msg9"><line style="stroke:#181818;stroke-width:1;" x1="265.186" x2="307.186" y1="358.4922" y2="358.4922"/><line style="stroke:#181818;stroke-width:1;" x1="307.186" x2="307.186" y1="358.4922" y2="371.4922"/><line style="stroke:#181818;stroke-width:1;" x1="266.186" x2="307.186" y1="371.4922" y2="371.4922"/><polygon fill="#181818" points="276.186,367.4922,266.186,371.4922,276.186,375.4922,272.186,371.4922" style="stroke:#181818;stroke-width:1;"/><text fill="#000000" font-family="sans-serif" font-size="13" font-weight="bold" lengthAdjust="spacing" textLength="9.0454" x="272.186" y="353.4263">9</text><text fill="#000000" font-family="sans-serif" font-size="13" lengthAdjust="spacing" textLength="244.7402" x="285.2314" y="353.4263">Display profile form with current data</text></g><g class="message" data-entity-1="part1" data-entity-2="part2" id="msg10"><polygon fill="#181818" points="243.186,411.7578,253.186,415.7578,243.186,419.7578,247.186,415.7578" style="stroke:#181818;stroke-width:1;"/><line style="stroke:#181818;stroke-width:1;" x1="28.9551" x2="249.186" y1="415.7578" y2="415.7578"/><text fill="#000000" font-family="sans-serif" font-size="13" font-weight="bold" lengthAdjust="spacing" textLength="18.0908" x="35.9551" y="403.1255">10</text><text fill="#000000" font-family="sans-serif" font-size="13" lengthAdjust="spacing" textLength="121.0752" x="58.0459" y="395.5591">Update profile info</text><text fill="#000000" font-family="sans-serif" font-size="13" lengthAdjust="spacing" textLength="129.9492" x="58.0459" y="410.6919">(name, avatar, etc.)</text></g><g class="message" data-entity-1="part1" data-entity-2="part2" id="msg11"><polygon fill="#181818" points="243.186,440.8906,253.186,444.8906,243.186,448.8906,247.186,444.8906" style="stroke:#181818;stroke-width:1;"/><line style="stroke:#181818;stroke-width:1;" x1="28.9551" x2="249.186" y1="444.8906" y2="444.8906"/><text fill="#000000" font-family="sans-serif" font-size="13" font-weight="bold" lengthAdjust="spacing" textLength="18.0908" x="35.9551" y="439.8247">11</text><text fill="#000000" font-family="sans-serif" font-size="13" lengthAdjust="spacing" textLength="139.6548" x="58.0459" y="439.8247">Click "Save Changes"</text></g><g class="message" data-entity-1="part2" data-entity-2="part3" id="msg12"><polygon fill="#181818" points="534.9717,470.0234,544.9717,474.0234,534.9717,478.0234,538.9717,474.0234" style="stroke:#181818;stroke-width:1;"/><line style="stroke:#181818;stroke-width:1;" x1="265.186" x2="540.9717" y1="474.0234" y2="474.0234"/><text fill="#000000" font-family="sans-serif" font-size="13" font-weight="bold" lengthAdjust="spacing" textLength="18.0908" x="272.186" y="468.9575">12</text><text fill="#000000" font-family="sans-serif" font-size="13" lengthAdjust="spacing" textLength="112.2075" x="294.2769" y="468.9575">PATCH /users/me</text></g><g class="message" data-entity-1="part3" data-entity-2="part4" id="msg13"><polygon fill="#181818" points="744.2969,499.1563,754.2969,503.1563,744.2969,507.1563,748.2969,503.1563" style="stroke:#181818;stroke-width:1;"/><line style="stroke:#181818;stroke-width:1;" x1="556.9717" x2="750.2969" y1="503.1563" y2="503.1563"/><text fill="#000000" font-family="sans-serif" font-size="13" font-weight="bold" lengthAdjust="spacing" textLength="18.0908" x="563.9717" y="498.0903">13</text><text fill="#000000" font-family="sans-serif" font-size="13" lengthAdjust="spacing" textLength="156.7427" x="586.0625" y="498.0903">Forward update request</text></g><g class="message" data-entity-1="part4" data-entity-2="part4" id="msg14"><line style="stroke:#181818;stroke-width:1;" x1="766.2969" x2="808.2969" y1="532.2891" y2="532.2891"/><line style="stroke:#181818;stroke-width:1;" x1="808.2969" x2="808.2969" y1="532.2891" y2="545.2891"/><line style="stroke:#181818;stroke-width:1;" x1="767.2969" x2="808.2969" y1="545.2891" y2="545.2891"/><polygon fill="#181818" points="777.2969,541.2891,767.2969,545.2891,777.2969,549.2891,773.2969,545.2891" style="stroke:#181818;stroke-width:1;"/><text fill="#000000" font-family="sans-serif" font-size="13" font-weight="bold" lengthAdjust="spacing" textLength="18.0908" x="773.2969" y="527.2231">14</text><text fill="#000000" font-family="sans-serif" font-size="13" lengthAdjust="spacing" textLength="123.1064" x="795.3877" y="527.2231">Validate JWT token</text></g><g class="message" data-entity-1="part4" data-entity-2="part5" id="msg15"><polygon fill="#181818" points="923.4941,570.4219,933.4941,574.4219,923.4941,578.4219,927.4941,574.4219" style="stroke:#181818;stroke-width:1;"/><line style="stroke:#181818;stroke-width:1;" x1="766.2969" x2="929.4941" y1="574.4219" y2="574.4219"/><text fill="#000000" font-family="sans-serif" font-size="13" font-weight="bold" lengthAdjust="spacing" textLength="18.0908" x="773.2969" y="569.356">15</text><text fill="#000000" font-family="sans-serif" font-size="13" lengthAdjust="spacing" textLength="125.7407" x="795.3877" y="569.356">Update user record</text></g><g class="message" data-entity-1="part5" data-entity-2="part4" id="msg16"><polygon fill="#181818" points="777.2969,599.5547,767.2969,603.5547,777.2969,607.5547,773.2969,603.5547" style="stroke:#181818;stroke-width:1;"/><line style="stroke:#181818;stroke-width:1;stroke-dasharray:2,2;" x1="771.2969" x2="939.4941" y1="603.5547" y2="603.5547"/><text fill="#000000" font-family="sans-serif" font-size="13" font-weight="bold" lengthAdjust="spacing" textLength="18.0908" x="783.2969" y="598.4888">16</text><text fill="#000000" font-family="sans-serif" font-size="13" lengthAdjust="spacing" textLength="87.8198" x="805.3877" y="598.4888">Updated user</text></g><g class="message" data-entity-1="part4" data-entity-2="part3" id="msg17"><polygon fill="#181818" points="567.9717,628.6875,557.9717,632.6875,567.9717,636.6875,563.9717,632.6875" style="stroke:#181818;stroke-width:1;"/><line style="stroke:#181818;stroke-width:1;stroke-dasharray:2,2;" x1="561.9717" x2="760.2969" y1="632.6875" y2="632.6875"/><text fill="#000000" font-family="sans-serif" font-size="13" font-weight="bold" lengthAdjust="spacing" textLength="18.0908" x="573.9717" y="627.6216">17</text><text fill="#000000" font-family="sans-serif" font-size="13" lengthAdjust="spacing" textLength="52.3301" x="596.0625" y="627.6216">Success</text></g><g class="message" data-entity-1="part3" data-entity-2="part2" id="msg18"><polygon fill="#181818" points="276.186,657.8203,266.186,661.8203,276.186,665.8203,272.186,661.8203" style="stroke:#181818;stroke-width:1;"/><line style="stroke:#181818;stroke-width:1;stroke-dasharray:2,2;" x1="270.186" x2="550.9717" y1="661.8203" y2="661.8203"/><text fill="#000000" font-family="sans-serif" font-size="13" font-weight="bold" lengthAdjust="spacing" textLength="18.0908" x="282.186" y="656.7544">18</text><text fill="#000000" font-family="sans-serif" font-size="13" lengthAdjust="spacing" textLength="100.8135" x="304.2769" y="656.7544">Updated profile</text></g><g class="message" data-entity-1="part2" data-entity-2="part1" id="msg19"><polygon fill="#181818" points="34.9551,686.9531,24.9551,690.9531,34.9551,694.9531,30.9551,690.9531" style="stroke:#181818;stroke-width:1;"/><line style="stroke:#181818;stroke-width:1;" x1="28.9551" x2="259.186" y1="690.9531" y2="690.9531"/><text fill="#000000" font-family="sans-serif" font-size="13" font-weight="bold" lengthAdjust="spacing" textLength="18.0908" x="40.9551" y="685.8872">19</text><text fill="#000000" font-family="sans-serif" font-size="13" lengthAdjust="spacing" textLength="180.1401" x="63.0459" y="685.8872">Display success notification</text></g><?plantuml-src dLBBZjD04BpFLxJ21QGD2zS88NbdmIn2A9BZzOLBn-uaezWpPXx9-k_fyKCsAnOXRjPqLNLLbp5ueqEp9ok4EolTeiK6xipJ5gjAwIEyVoS4bjvOo1rPG0Uvs9kWAxGT5BHFsZO-5edWvoTO9Ti7ID7J5RiLlFgcZYT_LmSI0ANHtfhw6OIvQI58Ly3qIIFu4sclpf2HlQYI9gNK4kc5LBGaX-zwD2Tv7Bc-wwSPEwT-aCrBSbX_PCSR-8uNTMGdu0rihJcecdYbznpSnTJg4eVv_1bZ5acafyK6qayxk0synTqsD8CuJrf4J2utyDdOAzeABFqCv3nSbJ_1rsAta9SYbnFy4MjLnLU6iAipnvsc6Iya3t4Vx3juk5z8P17qORtkKNrHB8AYeYKakkenSiIqG-JVO3BcYwWOSBh9Sp5EE9uXNl5UkRR6RfA3Wx7DaBCCrd8P0ty-Uzxs4IUyqWVpGx_MsD0D82z0UmFaoxTlPegiLNc6LOON0db2VIItMbQnJNRoop-N4GO3OoV_LSMOeM_3KcbizM8TFRBgeNzf90jbISwzNCQayuVMvZxokGut288sNXrKYLuPlIJnlxpS9Nu1?></g></svg>