<?plantuml 1.2026.1?><svg xmlns="http://www.w3.org/2000/svg" xmlns:xlink="http://www.w3.org/1999/xlink" contentStyleType="text/css" data-diagram-type="SEQUENCE" height="977px" preserveAspectRatio="none" style="width:1763px;height:977px;background:#FFFFFF;" version="1.1" viewBox="0 0 1763 977" width="1763px" zoomAndPan="magnify"><defs/><g><rect fill="#ADD8E6" height="965.9844" style="stroke:#181818;stroke-width:0.5;" width="102.4434" x="628.3862" y="6"/><text fill="#000000" font-family="sans-serif" font-size="13" font-weight="bold" lengthAdjust="spacing" textLength="92.6821" x="633.2668" y="18.0669">API Gateway</text><rect fill="#FFFFE0" height="965.9844" style="stroke:#181818;stroke-width:0.5;" width="989.1665" x="760.8652" y="6"/><text fill="#000000" font-family="sans-serif" font-size="13" font-weight="bold" lengthAdjust="spacing" textLength="109.2622" x="1200.8174" y="18.0669">Course Service</text><g><title>Instructor</title><rect fill="#FFFFFF" height="385.7266" style="stroke:#181818;stroke-width:1;" width="10" x="51.9609" y="118.5625"/></g><g><title>WebApp</title><rect fill="#FFFFFF" height="385.7266" style="stroke:#181818;stroke-width:1;" width="10" x="275.3418" y="118.5625"/></g><g><title>API Gateway</title><rect fill="#FFFFFF" height="312.3281" style="stroke:#181818;stroke-width:1;" width="10" x="674.6079" y="162.8281"/></g><g><title>SectionController</title><rect fill="#FFFFFF" height="211.9297" style="stroke:#181818;stroke-width:1;" width="10" x="823.459" y="234.0938"/></g><g><title>CourseApp</title><rect fill="#FFFFFF" height="517.0625" style="stroke:#181818;stroke-width:1;" width="10" x="1238.7847" y="263.2266"/></g><g><title>Section</title><rect fill="#FFFFFF" height="86.3984" style="stroke:#181818;stroke-width:1;" width="10" x="1462.1045" y="606.4922"/></g><g><title>CourseDB</title><rect fill="#FFFFFF" height="29.1328" style="stroke:#181818;stroke-width:1;" width="10" x="1703.4009" y="292.3594"/></g><g><title>CourseDB</title><rect fill="#FFFFFF" height="29.1328" style="stroke:#181818;stroke-width:1;" width="10" x="1703.4009" y="548.2266"/></g><g><title>CourseDB</title><rect fill="#FFFFFF" height="29.1328" style="stroke:#181818;stroke-width:1;" width="10" x="1703.4009" y="722.0234"/></g><rect fill="none" height="497.0625" style="stroke:#000000;stroke-width:1.5;" width="1746.0317" x="10" y="378.625"/><g class="participant-lifeline" data-entity-uid="part1" data-qualified-name="I" id="part1-lifeline"><g><title>Instructor</title><rect fill="#000000" fill-opacity="0.00000" height="805.2578" width="8" x="52.9609" y="87.4297"/><line style="stroke:#181818;stroke-width:0.5;stroke-dasharray:5,5;" x1="56" x2="56" y1="87.4297" y2="892.6875"/></g></g><g class="participant-lifeline" data-entity-uid="part2" data-qualified-name="WA" id="part2-lifeline"><g><title>WebApp</title><rect fill="#000000" fill-opacity="0.00000" height="805.2578" width="8" x="276.3418" y="87.4297"/><line style="stroke:#181818;stroke-width:0.5;stroke-dasharray:5,5;" x1="279.9951" x2="279.9951" y1="87.4297" y2="892.6875"/></g></g><g class="participant-lifeline" data-entity-uid="part3" data-qualified-name="GW" id="part3-lifeline"><g><title>API Gateway</title><rect fill="#000000" fill-opacity="0.00000" height="805.2578" width="8" x="675.6079" y="87.4297"/><line style="stroke:#181818;stroke-width:0.5;stroke-dasharray:5,5;" x1="679.3862" x2="679.3862" y1="87.4297" y2="892.6875"/></g></g><g class="participant-lifeline" data-entity-uid="part4" data-qualified-name="SC" id="part4-lifeline"><g><title>SectionController</title><rect fill="#000000" fill-opacity="0.00000" height="805.2578" width="8" x="824.459" y="87.4297"/><line style="stroke:#181818;stroke-width:0.5;stroke-dasharray:5,5;" x1="827.8652" x2="827.8652" y1="87.4297" y2="892.6875"/></g></g><g class="participant-lifeline" data-entity-uid="part5" data-qualified-name="CA" id="part5-lifeline"><g><title>CourseApp</title><rect fill="#000000" fill-opacity="0.00000" height="805.2578" width="8" x="1239.7847" y="87.4297"/><line style="stroke:#181818;stroke-width:0.5;stroke-dasharray:5,5;" x1="1243.6709" x2="1243.6709" y1="87.4297" y2="892.6875"/></g></g><g class="participant-lifeline" data-entity-uid="part6" data-qualified-name="S" id="part6-lifeline"><g><title>Section</title><rect fill="#000000" fill-opacity="0.00000" height="805.2578" width="8" x="1463.1045" y="87.4297"/><line style="stroke:#181818;stroke-width:0.5;stroke-dasharray:5,5;" x1="1467.0972" x2="1467.0972" y1="87.4297" y2="892.6875"/></g></g><g class="participant-lifeline" data-entity-uid="part7" data-qualified-name="CDB" id="part7-lifeline"><g><title>CourseDB</title><rect fill="#000000" fill-opacity="0.00000" height="805.2578" width="8" x="1704.4009" y="87.4297"/><line style="stroke:#181818;stroke-width:0.5;stroke-dasharray:5,5;" x1="1707.77" x2="1707.77" y1="87.4297" y2="892.6875"/></g></g><g class="participant participant-head" data-entity-uid="part1" data-qualified-name="I" id="part1-head"><text fill="#000000" font-family="sans-serif" font-size="14" lengthAdjust="spacing" textLength="67.9219" x="20" y="84.1279">Instructor</text><ellipse cx="56.9609" cy="19.6328" fill="#E2E2F0" rx="8" ry="8" style="stroke:#181818;stroke-width:0.5;"/><path d="M56.9609,27.6328 L56.9609,54.6328 M43.9609,35.6328 L69.9609,35.6328 M56.9609,54.6328 L43.9609,69.6328 M56.9609,54.6328 L69.9609,69.6328" fill="none" style="stroke:#181818;stroke-width:0.5;"/></g><g class="participant participant-tail" data-entity-uid="part1" data-qualified-name="I" id="part1-tail"><text fill="#000000" font-family="sans-serif" font-size="14" lengthAdjust="spacing" textLength="67.9219" x="20" y="904.6826">Instructor</text><ellipse cx="56.9609" cy="916.4844" fill="#E2E2F0" rx="8" ry="8" style="stroke:#181818;stroke-width:0.5;"/><path d="M56.9609,924.4844 L56.9609,951.4844 M43.9609,932.4844 L69.9609,932.4844 M56.9609,951.4844 L43.9609,966.4844 M56.9609,951.4844 L69.9609,966.4844" fill="none" style="stroke:#181818;stroke-width:0.5;"/></g><g class="participant participant-head" data-entity-uid="part2" data-qualified-name="WA" id="part2-head"><text fill="#000000" font-family="sans-serif" font-size="14" lengthAdjust="spacing" textLength="58.6934" x="247.9951" y="84.1279">WebApp</text><path d="M259.8418,43.1328 L259.8418,67.1328 M259.8418,55.1328 L276.8418,55.1328" fill="none" style="stroke:#181818;stroke-width:0.5;"/><ellipse cx="288.8418" cy="55.1328" fill="#E2E2F0" rx="12" ry="12" style="stroke:#181818;stroke-width:0.5;"/></g><g class="participant participant-tail" data-entity-uid="part2" data-qualified-name="WA" id="part2-tail"><text fill="#000000" font-family="sans-serif" font-size="14" lengthAdjust="spacing" textLength="58.6934" x="247.9951" y="904.6826">WebApp</text><path d="M259.8418,911.9844 L259.8418,935.9844 M259.8418,923.9844 L276.8418,923.9844" fill="none" style="stroke:#181818;stroke-width:0.5;"/><ellipse cx="288.8418" cy="923.9844" fill="#E2E2F0" rx="12" ry="12" style="stroke:#181818;stroke-width:0.5;"/></g><g class="participant participant-head" data-entity-uid="part3" data-qualified-name="GW" id="part3-head"><text fill="#000000" font-family="sans-serif" font-size="14" lengthAdjust="spacing" textLength="88.4434" x="632.3862" y="84.1279">API Gateway</text><ellipse cx="679.6079" cy="55.1328" fill="#E2E2F0" rx="12" ry="12" style="stroke:#181818;stroke-width:0.5;"/><polygon fill="#181818" points="675.6079,43.1328,681.6079,38.1328,679.6079,43.1328,681.6079,48.1328,675.6079,43.1328" style="stroke:#181818;stroke-width:1;"/></g><g class="participant participant-tail" data-entity-uid="part3" data-qualified-name="GW" id="part3-tail"><text fill="#000000" font-family="sans-serif" font-size="14" lengthAdjust="spacing" textLength="88.4434" x="632.3862" y="904.6826">API Gateway</text><ellipse cx="679.6079" cy="923.9844" fill="#E2E2F0" rx="12" ry="12" style="stroke:#181818;stroke-width:0.5;"/><polygon fill="#181818" points="675.6079,911.9844,681.6079,906.9844,679.6079,911.9844,681.6079,916.9844,675.6079,911.9844" style="stroke:#181818;stroke-width:1;"/></g><g class="participant participant-head" data-entity-uid="part4" data-qualified-name="SC" id="part4-head"><text fill="#000000" font-family="sans-serif" font-size="14" lengthAdjust="spacing" textLength="121.1875" x="764.8652" y="84.1279">SectionController</text><ellipse cx="828.459" cy="55.1328" fill="#E2E2F0" rx="12" ry="12" style="stroke:#181818;stroke-width:0.5;"/><polygon fill="#181818" points="824.459,43.1328,830.459,38.1328,828.459,43.1328,830.459,48.1328,824.459,43.1328" style="stroke:#181818;stroke-width:1;"/></g><g class="participant participant-tail" data-entity-uid="part4" data-qualified-name="SC" id="part4-tail"><text fill="#000000" font-family="sans-serif" font-size="14" lengthAdjust="spacing" textLength="121.1875" x="764.8652" y="904.6826">SectionController</text><ellipse cx="828.459" cy="923.9844" fill="#E2E2F0" rx="12" ry="12" style="stroke:#181818;stroke-width:0.5;"/><polygon fill="#181818" points="824.459,911.9844,830.459,906.9844,828.459,911.9844,830.459,916.9844,824.459,911.9844" style="stroke:#181818;stroke-width:1;"/></g><g class="participant participant-head" data-entity-uid="part5" data-qualified-name="CA" id="part5-head"><text fill="#000000" font-family="sans-serif" font-size="14" lengthAdjust="spacing" textLength="76.2275" x="1202.6709" y="84.1279">CourseApp</text><ellipse cx="1243.7847" cy="55.1328" fill="#E2E2F0" rx="12" ry="12" style="stroke:#181818;stroke-width:0.5;"/><polygon fill="#181818" points="1239.7847,43.1328,1245.7847,38.1328,1243.7847,43.1328,1245.7847,48.1328,1239.7847,43.1328" style="stroke:#181818;stroke-width:1;"/></g><g class="participant participant-tail" data-entity-uid="part5" data-qualified-name="CA" id="part5-tail"><text fill="#000000" font-family="sans-serif" font-size="14" lengthAdjust="spacing" textLength="76.2275" x="1202.6709" y="904.6826">CourseApp</text><ellipse cx="1243.7847" cy="923.9844" fill="#E2E2F0" rx="12" ry="12" style="stroke:#181818;stroke-width:0.5;"/><polygon fill="#181818" points="1239.7847,911.9844,1245.7847,906.9844,1243.7847,911.9844,1245.7847,916.9844,1239.7847,911.9844" style="stroke:#181818;stroke-width:1;"/></g><g class="participant participant-head" data-entity-uid="part6" data-qualified-name="S" id="part6-head"><text fill="#000000" font-family="sans-serif" font-size="14" lengthAdjust="spacing" textLength="52.0146" x="1438.0972" y="84.1279">Section</text><ellipse cx="1467.1045" cy="55.1328" fill="#E2E2F0" rx="12" ry="12" style="stroke:#181818;stroke-width:0.5;"/><line style="stroke:#181818;stroke-width:0.5;" x1="1455.1045" x2="1479.1045" y1="69.1328" y2="69.1328"/></g><g class="participant participant-tail" data-entity-uid="part6" data-qualified-name="S" id="part6-tail"><text fill="#000000" font-family="sans-serif" font-size="14" lengthAdjust="spacing" textLength="52.0146" x="1438.0972" y="904.6826">Section</text><ellipse cx="1467.1045" cy="923.9844" fill="#E2E2F0" rx="12" ry="12" style="stroke:#181818;stroke-width:0.5;"/><line style="stroke:#181818;stroke-width:0.5;" x1="1455.1045" x2="1479.1045" y1="937.9844" y2="937.9844"/></g><g class="participant participant-head" data-entity-uid="part7" data-qualified-name="CDB" id="part7-head"><text fill="#000000" font-family="sans-serif" font-size="14" lengthAdjust="spacing" textLength="69.2617" x="1670.77" y="84.1279">CourseDB</text><path d="M1690.4009,35.1328 C1690.4009,25.1328 1708.4009,25.1328 1708.4009,25.1328 C1708.4009,25.1328 1726.4009,25.1328 1726.4009,35.1328 L1726.4009,61.1328 C1726.4009,71.1328 1708.4009,71.1328 1708.4009,71.1328 C1708.4009,71.1328 1690.4009,71.1328 1690.4009,61.1328 L1690.4009,35.1328" fill="#E2E2F0" style="stroke:#181818;stroke-width:0.5;"/><path d="M1690.4009,35.1328 C1690.4009,45.1328 1708.4009,45.1328 1708.4009,45.1328 C1708.4009,45.1328 1726.4009,45.1328 1726.4009,35.1328" fill="none" style="stroke:#181818;stroke-width:0.5;"/></g><g class="participant participant-tail" data-entity-uid="part7" data-qualified-name="CDB" id="part7-tail"><text fill="#000000" font-family="sans-serif" font-size="14" lengthAdjust="spacing" textLength="69.2617" x="1670.77" y="904.6826">CourseDB</text><path d="M1690.4009,917.9844 C1690.4009,907.9844 1708.4009,907.9844 1708.4009,907.9844 C1708.4009,907.9844 1726.4009,907.9844 1726.4009,917.9844 L1726.4009,943.9844 C1726.4009,953.9844 1708.4009,953.9844 1708.4009,953.9844 C1708.4009,953.9844 1690.4009,953.9844 1690.4009,943.9844 L1690.4009,917.9844" fill="#E2E2F0" style="stroke:#181818;stroke-width:0.5;"/><path d="M1690.4009,917.9844 C1690.4009,927.9844 1708.4009,927.9844 1708.4009,927.9844 C1708.4009,927.9844 1726.4009,927.9844 1726.4009,917.9844" fill="none" style="stroke:#181818;stroke-width:0.5;"/></g><g><title>Instructor</title><rect fill="#FFFFFF" height="385.7266" style="stroke:#181818;stroke-width:1;" width="10" x="51.9609" y="118.5625"/></g><g><title>WebApp</title><rect fill="#FFFFFF" height="385.7266" style="stroke:#181818;stroke-width:1;" width="10" x="275.3418" y="118.5625"/></g><g><title>API Gateway</title><rect fill="#FFFFFF" height="312.3281" style="stroke:#181818;stroke-width:1;" width="10" x="674.6079" y="162.8281"/></g><g><title>SectionController</title><rect fill="#FFFFFF" height="211.9297" style="stroke:#181818;stroke-width:1;" width="10" x="823.459" y="234.0938"/></g><g><title>CourseApp</title><rect fill="#FFFFFF" height="517.0625" style="stroke:#181818;stroke-width:1;" width="10" x="1238.7847" y="263.2266"/></g><g><title>Section</title><rect fill="#FFFFFF" height="86.3984" style="stroke:#181818;stroke-width:1;" width="10" x="1462.1045" y="606.4922"/></g><g><title>CourseDB</title><rect fill="#FFFFFF" height="29.1328" style="stroke:#181818;stroke-width:1;" width="10" x="1703.4009" y="292.3594"/></g><g><title>CourseDB</title><rect fill="#FFFFFF" height="29.1328" style="stroke:#181818;stroke-width:1;" width="10" x="1703.4009" y="548.2266"/></g><g><title>CourseDB</title><rect fill="#FFFFFF" height="29.1328" style="stroke:#181818;stroke-width:1;" width="10" x="1703.4009" y="722.0234"/></g><g class="message" data-entity-1="part1" data-entity-2="part2" id="msg1"><polygon fill="#181818" points="263.3418,114.5625,273.3418,118.5625,263.3418,122.5625,267.3418,118.5625" style="stroke:#181818;stroke-width:1;"/><line style="stroke:#181818;stroke-width:1;" x1="61.9609" x2="269.3418" y1="118.5625" y2="118.5625"/><text fill="#000000" font-family="sans-serif" font-size="13" font-weight="bold" lengthAdjust="spacing" textLength="9.0454" x="68.9609" y="113.4966">1</text><text fill="#000000" font-family="sans-serif" font-size="13" lengthAdjust="spacing" textLength="186.3354" x="82.0063" y="113.4966">Drag section to new position</text></g><g class="message" data-entity-1="part2" data-entity-2="part3" id="msg2"><polygon fill="#181818" points="662.6079,158.8281,672.6079,162.8281,662.6079,166.8281,666.6079,162.8281" style="stroke:#181818;stroke-width:1;"/><line style="stroke:#181818;stroke-width:1;" x1="285.3418" x2="668.6079" y1="162.8281" y2="162.8281"/><text fill="#000000" font-family="sans-serif" font-size="13" font-weight="bold" lengthAdjust="spacing" textLength="9.0454" x="292.3418" y="150.1958">2</text><text fill="#000000" font-family="sans-serif" font-size="13" lengthAdjust="spacing" textLength="357.2207" x="305.3872" y="142.6294">PATCH /courses/{courseId}/sections/{sectionId}/move</text><text fill="#000000" font-family="sans-serif" font-size="13" lengthAdjust="spacing" textLength="80.5835" x="305.3872" y="157.7622">{newOrder}</text></g><g class="message" data-entity-1="part3" data-entity-2="part3" id="msg3"><line style="stroke:#181818;stroke-width:1;" x1="684.6079" x2="726.6079" y1="191.9609" y2="191.9609"/><line style="stroke:#181818;stroke-width:1;" x1="726.6079" x2="726.6079" y1="191.9609" y2="204.9609"/><line style="stroke:#181818;stroke-width:1;" x1="685.6079" x2="726.6079" y1="204.9609" y2="204.9609"/><polygon fill="#181818" points="695.6079,200.9609,685.6079,204.9609,695.6079,208.9609,691.6079,204.9609" style="stroke:#181818;stroke-width:1;"/><text fill="#000000" font-family="sans-serif" font-size="13" font-weight="bold" lengthAdjust="spacing" textLength="9.0454" x="691.6079" y="186.895">3</text><text fill="#000000" font-family="sans-serif" font-size="13" lengthAdjust="spacing" textLength="82.1577" x="704.6533" y="186.895">Validate JWT</text></g><g class="message" data-entity-1="part3" data-entity-2="part4" id="msg4"><polygon fill="#181818" points="811.459,230.0938,821.459,234.0938,811.459,238.0938,815.459,234.0938" style="stroke:#181818;stroke-width:1;"/><line style="stroke:#181818;stroke-width:1;" x1="684.6079" x2="817.459" y1="234.0938" y2="234.0938"/><text fill="#000000" font-family="sans-serif" font-size="13" font-weight="bold" lengthAdjust="spacing" textLength="9.0454" x="691.6079" y="229.0278">4</text><text fill="#000000" font-family="sans-serif" font-size="13" lengthAdjust="spacing" textLength="106.8057" x="704.6533" y="229.0278">Forward request</text></g><g class="message" data-entity-1="part4" data-entity-2="part5" id="msg5"><polygon fill="#181818" points="1226.7847,259.2266,1236.7847,263.2266,1226.7847,267.2266,1230.7847,263.2266" style="stroke:#181818;stroke-width:1;"/><line style="stroke:#181818;stroke-width:1;" x1="833.459" x2="1232.7847" y1="263.2266" y2="263.2266"/><text fill="#000000" font-family="sans-serif" font-size="13" font-weight="bold" lengthAdjust="spacing" textLength="9.0454" x="840.459" y="258.1606">5</text><text fill="#000000" font-family="sans-serif" font-size="13" lengthAdjust="spacing" textLength="373.2803" x="853.5044" y="258.1606">MoveSection(courseId, sectionId, newOrder, instructorID)</text></g><g class="message" data-entity-1="part5" data-entity-2="part7" id="msg6"><polygon fill="#181818" points="1691.4009,288.3594,1701.4009,292.3594,1691.4009,296.3594,1695.4009,292.3594" style="stroke:#181818;stroke-width:1;"/><line style="stroke:#181818;stroke-width:1;" x1="1248.7847" x2="1697.4009" y1="292.3594" y2="292.3594"/><text fill="#000000" font-family="sans-serif" font-size="13" font-weight="bold" lengthAdjust="spacing" textLength="9.0454" x="1255.7847" y="287.2935">6</text><text fill="#000000" font-family="sans-serif" font-size="13" lengthAdjust="spacing" textLength="78.5332" x="1268.8301" y="287.2935">Find section</text></g><g class="message" data-entity-1="part7" data-entity-2="part5" id="msg7"><polygon fill="#181818" points="1259.7847,317.4922,1249.7847,321.4922,1259.7847,325.4922,1255.7847,321.4922" style="stroke:#181818;stroke-width:1;"/><line style="stroke:#181818;stroke-width:1;stroke-dasharray:2,2;" x1="1253.7847" x2="1707.4009" y1="321.4922" y2="321.4922"/><text fill="#000000" font-family="sans-serif" font-size="13" font-weight="bold" lengthAdjust="spacing" textLength="9.0454" x="1265.7847" y="316.4263">7</text><text fill="#000000" font-family="sans-serif" font-size="13" lengthAdjust="spacing" textLength="81.7134" x="1278.8301" y="316.4263">Section data</text></g><g class="message" data-entity-1="part5" data-entity-2="part5" id="msg8"><line style="stroke:#181818;stroke-width:1;" x1="1248.7847" x2="1290.7847" y1="350.625" y2="350.625"/><line style="stroke:#181818;stroke-width:1;" x1="1290.7847" x2="1290.7847" y1="350.625" y2="363.625"/><line style="stroke:#181818;stroke-width:1;" x1="1249.7847" x2="1290.7847" y1="363.625" y2="363.625"/><polygon fill="#181818" points="1259.7847,359.625,1249.7847,363.625,1259.7847,367.625,1255.7847,363.625" style="stroke:#181818;stroke-width:1;"/><text fill="#000000" font-family="sans-serif" font-size="13" font-weight="bold" lengthAdjust="spacing" textLength="9.0454" x="1255.7847" y="345.5591">8</text><text fill="#000000" font-family="sans-serif" font-size="13" lengthAdjust="spacing" textLength="176.2744" x="1268.8301" y="345.5591">Verify instructor ownership</text></g><path d="M10,378.625 L74.4429,378.625 L74.4429,385.7578 L64.4429,395.7578 L10,395.7578 L10,378.625" fill="#EEEEEE" style="stroke:#000000;stroke-width:1.5;"/><rect fill="none" height="497.0625" style="stroke:#000000;stroke-width:1.5;" width="1746.0317" x="10" y="378.625"/><text fill="#000000" font-family="sans-serif" font-size="13" font-weight="bold" lengthAdjust="spacing" textLength="19.4429" x="25" y="391.6919">alt</text><text fill="#000000" font-family="sans-serif" font-size="11" font-weight="bold" lengthAdjust="spacing" textLength="119.5122" x="89.4429" y="390.8354">[Not course owner]</text><g class="message" data-entity-1="part5" data-entity-2="part4" id="msg9"><polygon fill="#181818" points="844.459,412.8906,834.459,416.8906,844.459,420.8906,840.459,416.8906" style="stroke:#181818;stroke-width:1;"/><line style="stroke:#181818;stroke-width:1;stroke-dasharray:2,2;" x1="838.459" x2="1237.7847" y1="416.8906" y2="416.8906"/><text fill="#000000" font-family="sans-serif" font-size="13" font-weight="bold" lengthAdjust="spacing" textLength="9.0454" x="850.459" y="411.8247">9</text><text fill="#000000" font-family="sans-serif" font-size="13" lengthAdjust="spacing" textLength="94.3262" x="863.5044" y="411.8247">403 Forbidden</text></g><g class="message" data-entity-1="part4" data-entity-2="part3" id="msg10"><polygon fill="#181818" points="695.6079,442.0234,685.6079,446.0234,695.6079,450.0234,691.6079,446.0234" style="stroke:#181818;stroke-width:1;"/><line style="stroke:#181818;stroke-width:1;stroke-dasharray:2,2;" x1="689.6079" x2="827.459" y1="446.0234" y2="446.0234"/><text fill="#000000" font-family="sans-serif" font-size="13" font-weight="bold" lengthAdjust="spacing" textLength="18.0908" x="701.6079" y="440.9575">10</text><text fill="#000000" font-family="sans-serif" font-size="13" lengthAdjust="spacing" textLength="32.2017" x="723.6987" y="440.9575">Error</text></g><g class="message" data-entity-1="part3" data-entity-2="part2" id="msg11"><polygon fill="#181818" points="296.3418,471.1563,286.3418,475.1563,296.3418,479.1563,292.3418,475.1563" style="stroke:#181818;stroke-width:1;"/><line style="stroke:#181818;stroke-width:1;stroke-dasharray:2,2;" x1="290.3418" x2="678.6079" y1="475.1563" y2="475.1563"/><text fill="#000000" font-family="sans-serif" font-size="13" font-weight="bold" lengthAdjust="spacing" textLength="18.0908" x="302.3418" y="470.0903">11</text><text fill="#000000" font-family="sans-serif" font-size="13" lengthAdjust="spacing" textLength="32.2017" x="324.4326" y="470.0903">Error</text></g><g class="message" data-entity-1="part2" data-entity-2="part1" id="msg12"><polygon fill="#181818" points="67.9609,500.2891,57.9609,504.2891,67.9609,508.2891,63.9609,504.2891" style="stroke:#181818;stroke-width:1;"/><line style="stroke:#181818;stroke-width:1;" x1="61.9609" x2="279.3418" y1="504.2891" y2="504.2891"/><text fill="#000000" font-family="sans-serif" font-size="13" font-weight="bold" lengthAdjust="spacing" textLength="18.0908" x="73.9609" y="499.2231">12</text><text fill="#000000" font-family="sans-serif" font-size="13" lengthAdjust="spacing" textLength="84.0366" x="96.0518" y="499.2231">Display error</text></g><line style="stroke:#000000;stroke-width:1;stroke-dasharray:2,2;" x1="10" x2="1756.0317" y1="513.2891" y2="513.2891"/><text fill="#000000" font-family="sans-serif" font-size="11" font-weight="bold" lengthAdjust="spacing" textLength="62.96" x="15" y="523.4995">[Is owner]</text><g class="message" data-entity-1="part5" data-entity-2="part7" id="msg13"><polygon fill="#181818" points="1691.4009,544.2266,1701.4009,548.2266,1691.4009,552.2266,1695.4009,548.2266" style="stroke:#181818;stroke-width:1;"/><line style="stroke:#181818;stroke-width:1;" x1="1248.7847" x2="1697.4009" y1="548.2266" y2="548.2266"/><text fill="#000000" font-family="sans-serif" font-size="13" font-weight="bold" lengthAdjust="spacing" textLength="18.0908" x="1255.7847" y="543.1606">13</text><text fill="#000000" font-family="sans-serif" font-size="13" lengthAdjust="spacing" textLength="169.8125" x="1277.8755" y="543.1606">Get all sections for course</text></g><g class="message" data-entity-1="part7" data-entity-2="part5" id="msg14"><polygon fill="#181818" points="1259.7847,573.3594,1249.7847,577.3594,1259.7847,581.3594,1255.7847,577.3594" style="stroke:#181818;stroke-width:1;"/><line style="stroke:#181818;stroke-width:1;stroke-dasharray:2,2;" x1="1253.7847" x2="1707.4009" y1="577.3594" y2="577.3594"/><text fill="#000000" font-family="sans-serif" font-size="13" font-weight="bold" lengthAdjust="spacing" textLength="18.0908" x="1265.7847" y="572.2935">14</text><text fill="#000000" font-family="sans-serif" font-size="13" lengthAdjust="spacing" textLength="73.8423" x="1287.8755" y="572.2935">All sections</text></g><g class="message" data-entity-1="part5" data-entity-2="part6" id="msg15"><polygon fill="#181818" points="1450.1045,602.4922,1460.1045,606.4922,1450.1045,610.4922,1454.1045,606.4922" style="stroke:#181818;stroke-width:1;"/><line style="stroke:#181818;stroke-width:1;" x1="1248.7847" x2="1456.1045" y1="606.4922" y2="606.4922"/><text fill="#000000" font-family="sans-serif" font-size="13" font-weight="bold" lengthAdjust="spacing" textLength="18.0908" x="1255.7847" y="601.4263">15</text><text fill="#000000" font-family="sans-serif" font-size="13" lengthAdjust="spacing" textLength="109.6494" x="1277.8755" y="601.4263">Reorder sections</text></g><g class="message" data-entity-1="part6" data-entity-2="part6" id="msg16"><line style="stroke:#181818;stroke-width:1;" x1="1472.1045" x2="1514.1045" y1="650.7578" y2="650.7578"/><line style="stroke:#181818;stroke-width:1;" x1="1514.1045" x2="1514.1045" y1="650.7578" y2="663.7578"/><line style="stroke:#181818;stroke-width:1;" x1="1473.1045" x2="1514.1045" y1="663.7578" y2="663.7578"/><polygon fill="#181818" points="1483.1045,659.7578,1473.1045,663.7578,1483.1045,667.7578,1479.1045,663.7578" style="stroke:#181818;stroke-width:1;"/><text fill="#000000" font-family="sans-serif" font-size="13" font-weight="bold" lengthAdjust="spacing" textLength="18.0908" x="1479.1045" y="638.1255">16</text><text fill="#000000" font-family="sans-serif" font-size="13" lengthAdjust="spacing" textLength="177.1567" x="1501.1953" y="630.5591">Calculate new order values</text><text fill="#000000" font-family="sans-serif" font-size="13" lengthAdjust="spacing" textLength="185.2056" x="1501.1953" y="645.6919">using lexicographic ordering</text></g><g class="message" data-entity-1="part6" data-entity-2="part5" id="msg17"><polygon fill="#181818" points="1259.7847,688.8906,1249.7847,692.8906,1259.7847,696.8906,1255.7847,692.8906" style="stroke:#181818;stroke-width:1;"/><line style="stroke:#181818;stroke-width:1;stroke-dasharray:2,2;" x1="1253.7847" x2="1466.1045" y1="692.8906" y2="692.8906"/><text fill="#000000" font-family="sans-serif" font-size="13" font-weight="bold" lengthAdjust="spacing" textLength="18.0908" x="1265.7847" y="687.8247">17</text><text fill="#000000" font-family="sans-serif" font-size="13" lengthAdjust="spacing" textLength="113.0581" x="1287.8755" y="687.8247">Updated sections</text></g><g class="message" data-entity-1="part5" data-entity-2="part7" id="msg18"><polygon fill="#181818" points="1691.4009,718.0234,1701.4009,722.0234,1691.4009,726.0234,1695.4009,722.0234" style="stroke:#181818;stroke-width:1;"/><line style="stroke:#181818;stroke-width:1;" x1="1248.7847" x2="1697.4009" y1="722.0234" y2="722.0234"/><text fill="#000000" font-family="sans-serif" font-size="13" font-weight="bold" lengthAdjust="spacing" textLength="18.0908" x="1255.7847" y="716.9575">18</text><text fill="#000000" font-family="sans-serif" font-size="13" lengthAdjust="spacing" textLength="143.8315" x="1277.8755" y="716.9575">Update section orders</text></g><g class="message" data-entity-1="part7" data-entity-2="part5" id="msg19"><polygon fill="#181818" points="1259.7847,747.1563,1249.7847,751.1563,1259.7847,755.1563,1255.7847,751.1563" style="stroke:#181818;stroke-width:1;"/><line style="stroke:#181818;stroke-width:1;stroke-dasharray:2,2;" x1="1253.7847" x2="1707.4009" y1="751.1563" y2="751.1563"/><text fill="#000000" font-family="sans-serif" font-size="13" font-weight="bold" lengthAdjust="spacing" textLength="18.0908" x="1265.7847" y="746.0903">19</text><text fill="#000000" font-family="sans-serif" font-size="13" lengthAdjust="spacing" textLength="52.3301" x="1287.8755" y="746.0903">Success</text></g><g class="message" data-entity-1="part5" data-entity-2="part4" id="msg20"><polygon fill="#181818" points="839.459,776.2891,829.459,780.2891,839.459,784.2891,835.459,780.2891" style="stroke:#181818;stroke-width:1;"/><line style="stroke:#181818;stroke-width:1;stroke-dasharray:2,2;" x1="833.459" x2="1242.7847" y1="780.2891" y2="780.2891"/><text fill="#000000" font-family="sans-serif" font-size="13" font-weight="bold" lengthAdjust="spacing" textLength="18.0908" x="845.459" y="775.2231">20</text><text fill="#000000" font-family="sans-serif" font-size="13" lengthAdjust="spacing" textLength="136.2842" x="867.5498" y="775.2231">Updated sections list</text></g><g class="message" data-entity-1="part4" data-entity-2="part3" id="msg21"><polygon fill="#181818" points="690.6079,805.4219,680.6079,809.4219,690.6079,813.4219,686.6079,809.4219" style="stroke:#181818;stroke-width:1;"/><line style="stroke:#181818;stroke-width:1;stroke-dasharray:2,2;" x1="684.6079" x2="827.459" y1="809.4219" y2="809.4219"/><text fill="#000000" font-family="sans-serif" font-size="13" font-weight="bold" lengthAdjust="spacing" textLength="18.0908" x="696.6079" y="804.356">21</text><text fill="#000000" font-family="sans-serif" font-size="13" lengthAdjust="spacing" textLength="47.7026" x="718.6987" y="804.356">200 OK</text></g><g class="message" data-entity-1="part3" data-entity-2="part2" id="msg22"><polygon fill="#181818" points="291.3418,834.5547,281.3418,838.5547,291.3418,842.5547,287.3418,838.5547" style="stroke:#181818;stroke-width:1;"/><line style="stroke:#181818;stroke-width:1;stroke-dasharray:2,2;" x1="285.3418" x2="678.6079" y1="838.5547" y2="838.5547"/><text fill="#000000" font-family="sans-serif" font-size="13" font-weight="bold" lengthAdjust="spacing" textLength="18.0908" x="297.3418" y="833.4888">22</text><text fill="#000000" font-family="sans-serif" font-size="13" lengthAdjust="spacing" textLength="94.3579" x="319.4326" y="833.4888">Updated order</text></g><g class="message" data-entity-1="part2" data-entity-2="part1" id="msg23"><polygon fill="#181818" points="67.9609,863.6875,57.9609,867.6875,67.9609,871.6875,63.9609,867.6875" style="stroke:#181818;stroke-width:1;"/><line style="stroke:#181818;stroke-width:1;" x1="61.9609" x2="279.3418" y1="867.6875" y2="867.6875"/><text fill="#000000" font-family="sans-serif" font-size="13" font-weight="bold" lengthAdjust="spacing" textLength="18.0908" x="73.9609" y="862.6216">23</text><text fill="#000000" font-family="sans-serif" font-size="13" lengthAdjust="spacing" textLength="166.3022" x="96.0518" y="862.6216">Update UI with new order</text></g><?plantuml-src XLJBRjim4BppAnRffGKIn7sSZA20BBUk-afG9H4Av4AB6vieGweavGU2_7kNb6H9QPhUfENCxEnm9Lvxe-kx9Lh6t2-fAsxv7SpCxe8B8VKANayOuwKt5ZBjlAtZ8tUGiQMfjU1s3mKkaweAnI9XLDx1KNAHmO9xtFBz4RpuAbThFrCrCe3IQ6-DUWGXxg9Wg0KGlTL8JMqTGevs8qliP7wYKcOx4CgnzDBej7bL6DtbwG3H2BKMquHEK7lfznqr4gWgkETBJYqRmdmMyVDPxok3a_Sqv1Jcbg_0jNHlGECMAkDaU0znoGrDHXaT7aCoHHBeYs8A5ybb-WbEozZ7dTut3vbuE6qrgTO-XUATsU2DlgScvrQWVUXbARH5qQbUSoL5g7ukBjjodaxXex5RRWLO_5sZypsPGc9v6c0fZVIDchI1lEpy7CF1nJ5qxOz17ZOXcx_gzIXQbiOPAJJgAocsbZy0KPu4EZivQL3T7OJmcS0HhbCZTzTevUr-q1dCLgDrQrdHVYeFtus7ndPpGlT9iyKsH7ytUHjoM4eXKDCHfHEEGZmVh3K1FUWTjwTeJ8PWdu1Gy152zZ9Q1-agnVU0VmEBPFoUCLJaCNC7cuF85kY1AzMbvk2M1csc8k0ecyWxf9WCIED-CSUkIJw57sZ29GxH_TmXj1QNSbNMAbJ3RZUS3QTlsDteseK_WyATBCtAycejomP1vTuOYLnLOH_5FwpbR3nzWpvyLb7HFJztNfSbkgT77bp_On-W97q8Or8oNeitamcSVtb-BphPwFIv_MWdkyfWA_swJ_I_gw85-mC0?></g></svg>