<?plantuml 1.2026.1?><svg xmlns="http://www.w3.org/2000/svg" xmlns:xlink="http://www.w3.org/1999/xlink" contentStyleType="text/css" data-diagram-type="SEQUENCE" height="1649px" preserveAspectRatio="none" style="width:1717px;height:1649px;background:#FFFFFF;" version="1.1" viewBox="0 0 1717 1649" width="1717px" zoomAndPan="magnify"><defs/><g><rect fill="#ADD8E6" height="1637.5156" style="stroke:#181818;stroke-width:0.5;" width="102.4434" x="594.0356" y="6"/><text fill="#000000" font-family="sans-serif" font-size="13" font-weight="bold" lengthAdjust="spacing" textLength="92.6821" x="598.9163" y="18.0669">API Gateway</text><rect fill="#FFFFE0" height="1637.5156" style="stroke:#181818;stroke-width:0.5;" width="866.7832" x="817.5703" y="6"/><text fill="#000000" font-family="sans-serif" font-size="13" font-weight="bold" lengthAdjust="spacing" textLength="109.2622" x="1196.3308" y="18.0669">Course Service</text><g><title>Learner</title><rect fill="#FFFFFF" height="616.7891" style="stroke:#181818;stroke-width:1;" width="10" x="64.9951" y="118.5625"/></g><g><title>WebApp</title><rect fill="#FFFFFF" height="616.7891" style="stroke:#181818;stroke-width:1;" width="10" x="358.5391" y="118.5625"/></g><g><title>API Gateway</title><rect fill="#FFFFFF" height="270.1953" style="stroke:#181818;stroke-width:1;" width="10" x="640.2573" y="436.0234"/></g><g><title>ReviewController</title><rect fill="#FFFFFF" height="169.7969" style="stroke:#181818;stroke-width:1;" width="10" x="879.4463" y="507.2891"/></g><g><title>CourseApp</title><rect fill="#FFFFFF" height="886.2656" style="stroke:#181818;stroke-width:1;" width="10" x="1255.8418" y="536.4219"/></g><g><title>Review</title><rect fill="#FFFFFF" height="86.3984" style="stroke:#181818;stroke-width:1;" width="10" x="1443.4814" y="1248.8906"/></g><g><title>CourseDB</title><rect fill="#FFFFFF" height="53.2656" style="stroke:#181818;stroke-width:1;" width="10" x="1637.7227" y="565.5547"/></g><g><title>CourseDB</title><rect fill="#FFFFFF" height="53.2656" style="stroke:#181818;stroke-width:1;" width="10" x="1637.7227" y="808.4219"/></g><g><title>CourseDB</title><rect fill="#FFFFFF" height="29.1328" style="stroke:#181818;stroke-width:1;" width="10" x="1637.7227" y="1364.4219"/></g><rect fill="none" height="966.6641" style="stroke:#000000;stroke-width:1.5;" width="1700.3535" x="10" y="580.5547"/><rect fill="none" height="716.7969" style="stroke:#000000;stroke-width:1.5;" width="1680.3535" x="20" y="823.4219"/><rect fill="none" height="453.9297" style="stroke:#000000;stroke-width:1.5;" width="1660.3535" x="30" y="1079.2891"/><g class="participant-lifeline" data-entity-uid="part1" data-qualified-name="L" id="part1-lifeline"><g><title>Learner</title><rect fill="#000000" fill-opacity="0.00000" height="1476.7891" width="8" x="65.9951" y="87.4297"/><line style="stroke:#181818;stroke-width:0.5;stroke-dasharray:5,5;" x1="69" x2="69" y1="87.4297" y2="1564.2188"/></g></g><g class="participant-lifeline" data-entity-uid="part2" data-qualified-name="WA" id="part2-lifeline"><g><title>WebApp</title><rect fill="#000000" fill-opacity="0.00000" height="1476.7891" width="8" x="359.5391" y="87.4297"/><line style="stroke:#181818;stroke-width:0.5;stroke-dasharray:5,5;" x1="363.1924" x2="363.1924" y1="87.4297" y2="1564.2188"/></g></g><g class="participant-lifeline" data-entity-uid="part3" data-qualified-name="GW" id="part3-lifeline"><g><title>API Gateway</title><rect fill="#000000" fill-opacity="0.00000" height="1476.7891" width="8" x="641.2573" y="87.4297"/><line style="stroke:#181818;stroke-width:0.5;stroke-dasharray:5,5;" x1="645.0356" x2="645.0356" y1="87.4297" y2="1564.2188"/></g></g><g class="participant-lifeline" data-entity-uid="part4" data-qualified-name="RC" id="part4-lifeline"><g><title>ReviewController</title><rect fill="#000000" fill-opacity="0.00000" height="1476.7891" width="8" x="880.4463" y="87.4297"/><line style="stroke:#181818;stroke-width:0.5;stroke-dasharray:5,5;" x1="883.5703" x2="883.5703" y1="87.4297" y2="1564.2188"/></g></g><g class="participant-lifeline" data-entity-uid="part5" data-qualified-name="CA" id="part5-lifeline"><g><title>CourseApp</title><rect fill="#000000" fill-opacity="0.00000" height="1476.7891" width="8" x="1256.8418" y="87.4297"/><line style="stroke:#181818;stroke-width:0.5;stroke-dasharray:5,5;" x1="1260.728" x2="1260.728" y1="87.4297" y2="1564.2188"/></g></g><g class="participant-lifeline" data-entity-uid="part6" data-qualified-name="R" id="part6-lifeline"><g><title>Review</title><rect fill="#000000" fill-opacity="0.00000" height="1476.7891" width="8" x="1444.4814" y="87.4297"/><line style="stroke:#181818;stroke-width:0.5;stroke-dasharray:5,5;" x1="1448.1919" x2="1448.1919" y1="87.4297" y2="1564.2188"/></g></g><g class="participant-lifeline" data-entity-uid="part7" data-qualified-name="CDB" id="part7-lifeline"><g><title>CourseDB</title><rect fill="#000000" fill-opacity="0.00000" height="1476.7891" width="8" x="1638.7227" y="87.4297"/><line style="stroke:#181818;stroke-width:0.5;stroke-dasharray:5,5;" x1="1642.0918" x2="1642.0918" y1="87.4297" y2="1564.2188"/></g></g><g class="participant participant-head" data-entity-uid="part1" data-qualified-name="L" id="part1-head"><text fill="#000000" font-family="sans-serif" font-size="14" lengthAdjust="spacing" textLength="53.9902" x="40" y="84.1279">Learner</text><ellipse cx="69.9951" cy="19.6328" fill="#E2E2F0" rx="8" ry="8" style="stroke:#181818;stroke-width:0.5;"/><path d="M69.9951,27.6328 L69.9951,54.6328 M56.9951,35.6328 L82.9951,35.6328 M69.9951,54.6328 L56.9951,69.6328 M69.9951,54.6328 L82.9951,69.6328" fill="none" style="stroke:#181818;stroke-width:0.5;"/></g><g class="participant participant-tail" data-entity-uid="part1" data-qualified-name="L" id="part1-tail"><text fill="#000000" font-family="sans-serif" font-size="14" lengthAdjust="spacing" textLength="53.9902" x="40" y="1576.2139">Learner</text><ellipse cx="69.9951" cy="1588.0156" fill="#E2E2F0" rx="8" ry="8" style="stroke:#181818;stroke-width:0.5;"/><path d="M69.9951,1596.0156 L69.9951,1623.0156 M56.9951,1604.0156 L82.9951,1604.0156 M69.9951,1623.0156 L56.9951,1638.0156 M69.9951,1623.0156 L82.9951,1638.0156" fill="none" style="stroke:#181818;stroke-width:0.5;"/></g><g class="participant participant-head" data-entity-uid="part2" data-qualified-name="WA" id="part2-head"><text fill="#000000" font-family="sans-serif" font-size="14" lengthAdjust="spacing" textLength="58.6934" x="331.1924" y="84.1279">WebApp</text><path d="M343.0391,43.1328 L343.0391,67.1328 M343.0391,55.1328 L360.0391,55.1328" fill="none" style="stroke:#181818;stroke-width:0.5;"/><ellipse cx="372.0391" cy="55.1328" fill="#E2E2F0" rx="12" ry="12" style="stroke:#181818;stroke-width:0.5;"/></g><g class="participant participant-tail" data-entity-uid="part2" data-qualified-name="WA" id="part2-tail"><text fill="#000000" font-family="sans-serif" font-size="14" lengthAdjust="spacing" textLength="58.6934" x="331.1924" y="1576.2139">WebApp</text><path d="M343.0391,1583.5156 L343.0391,1607.5156 M343.0391,1595.5156 L360.0391,1595.5156" fill="none" style="stroke:#181818;stroke-width:0.5;"/><ellipse cx="372.0391" cy="1595.5156" fill="#E2E2F0" rx="12" ry="12" style="stroke:#181818;stroke-width:0.5;"/></g><g class="participant participant-head" data-entity-uid="part3" data-qualified-name="GW" id="part3-head"><text fill="#000000" font-family="sans-serif" font-size="14" lengthAdjust="spacing" textLength="88.4434" x="598.0356" y="84.1279">API Gateway</text><ellipse cx="645.2573" cy="55.1328" fill="#E2E2F0" rx="12" ry="12" style="stroke:#181818;stroke-width:0.5;"/><polygon fill="#181818" points="641.2573,43.1328,647.2573,38.1328,645.2573,43.1328,647.2573,48.1328,641.2573,43.1328" style="stroke:#181818;stroke-width:1;"/></g><g class="participant participant-tail" data-entity-uid="part3" data-qualified-name="GW" id="part3-tail"><text fill="#000000" font-family="sans-serif" font-size="14" lengthAdjust="spacing" textLength="88.4434" x="598.0356" y="1576.2139">API Gateway</text><ellipse cx="645.2573" cy="1595.5156" fill="#E2E2F0" rx="12" ry="12" style="stroke:#181818;stroke-width:0.5;"/><polygon fill="#181818" points="641.2573,1583.5156,647.2573,1578.5156,645.2573,1583.5156,647.2573,1588.5156,641.2573,1583.5156" style="stroke:#181818;stroke-width:1;"/></g><g class="participant participant-head" data-entity-uid="part4" data-qualified-name="RC" id="part4-head"><text fill="#000000" font-family="sans-serif" font-size="14" lengthAdjust="spacing" textLength="119.752" x="821.5703" y="84.1279">ReviewController</text><ellipse cx="884.4463" cy="55.1328" fill="#E2E2F0" rx="12" ry="12" style="stroke:#181818;stroke-width:0.5;"/><polygon fill="#181818" points="880.4463,43.1328,886.4463,38.1328,884.4463,43.1328,886.4463,48.1328,880.4463,43.1328" style="stroke:#181818;stroke-width:1;"/></g><g class="participant participant-tail" data-entity-uid="part4" data-qualified-name="RC" id="part4-tail"><text fill="#000000" font-family="sans-serif" font-size="14" lengthAdjust="spacing" textLength="119.752" x="821.5703" y="1576.2139">ReviewController</text><ellipse cx="884.4463" cy="1595.5156" fill="#E2E2F0" rx="12" ry="12" style="stroke:#181818;stroke-width:0.5;"/><polygon fill="#181818" points="880.4463,1583.5156,886.4463,1578.5156,884.4463,1583.5156,886.4463,1588.5156,880.4463,1583.5156" style="stroke:#181818;stroke-width:1;"/></g><g class="participant participant-head" data-entity-uid="part5" data-qualified-name="CA" id="part5-head"><text fill="#000000" font-family="sans-serif" font-size="14" lengthAdjust="spacing" textLength="76.2275" x="1219.728" y="84.1279">CourseApp</text><ellipse cx="1260.8418" cy="55.1328" fill="#E2E2F0" rx="12" ry="12" style="stroke:#181818;stroke-width:0.5;"/><polygon fill="#181818" points="1256.8418,43.1328,1262.8418,38.1328,1260.8418,43.1328,1262.8418,48.1328,1256.8418,43.1328" style="stroke:#181818;stroke-width:1;"/></g><g class="participant participant-tail" data-entity-uid="part5" data-qualified-name="CA" id="part5-tail"><text fill="#000000" font-family="sans-serif" font-size="14" lengthAdjust="spacing" textLength="76.2275" x="1219.728" y="1576.2139">CourseApp</text><ellipse cx="1260.8418" cy="1595.5156" fill="#E2E2F0" rx="12" ry="12" style="stroke:#181818;stroke-width:0.5;"/><polygon fill="#181818" points="1256.8418,1583.5156,1262.8418,1578.5156,1260.8418,1583.5156,1262.8418,1588.5156,1256.8418,1583.5156" style="stroke:#181818;stroke-width:1;"/></g><g class="participant participant-head" data-entity-uid="part6" data-qualified-name="R" id="part6-head"><text fill="#000000" font-family="sans-serif" font-size="14" lengthAdjust="spacing" textLength="50.5791" x="1420.1919" y="84.1279">Review</text><ellipse cx="1448.4814" cy="55.1328" fill="#E2E2F0" rx="12" ry="12" style="stroke:#181818;stroke-width:0.5;"/><line style="stroke:#181818;stroke-width:0.5;" x1="1436.4814" x2="1460.4814" y1="69.1328" y2="69.1328"/></g><g class="participant participant-tail" data-entity-uid="part6" data-qualified-name="R" id="part6-tail"><text fill="#000000" font-family="sans-serif" font-size="14" lengthAdjust="spacing" textLength="50.5791" x="1420.1919" y="1576.2139">Review</text><ellipse cx="1448.4814" cy="1595.5156" fill="#E2E2F0" rx="12" ry="12" style="stroke:#181818;stroke-width:0.5;"/><line style="stroke:#181818;stroke-width:0.5;" x1="1436.4814" x2="1460.4814" y1="1609.5156" y2="1609.5156"/></g><g class="participant participant-head" data-entity-uid="part7" data-qualified-name="CDB" id="part7-head"><text fill="#000000" font-family="sans-serif" font-size="14" lengthAdjust="spacing" textLength="69.2617" x="1605.0918" y="84.1279">CourseDB</text><path d="M1624.7227,35.1328 C1624.7227,25.1328 1642.7227,25.1328 1642.7227,25.1328 C1642.7227,25.1328 1660.7227,25.1328 1660.7227,35.1328 L1660.7227,61.1328 C1660.7227,71.1328 1642.7227,71.1328 1642.7227,71.1328 C1642.7227,71.1328 1624.7227,71.1328 1624.7227,61.1328 L1624.7227,35.1328" fill="#E2E2F0" style="stroke:#181818;stroke-width:0.5;"/><path d="M1624.7227,35.1328 C1624.7227,45.1328 1642.7227,45.1328 1642.7227,45.1328 C1642.7227,45.1328 1660.7227,45.1328 1660.7227,35.1328" fill="none" style="stroke:#181818;stroke-width:0.5;"/></g><g class="participant participant-tail" data-entity-uid="part7" data-qualified-name="CDB" id="part7-tail"><text fill="#000000" font-family="sans-serif" font-size="14" lengthAdjust="spacing" textLength="69.2617" x="1605.0918" y="1576.2139">CourseDB</text><path d="M1624.7227,1589.5156 C1624.7227,1579.5156 1642.7227,1579.5156 1642.7227,1579.5156 C1642.7227,1579.5156 1660.7227,1579.5156 1660.7227,1589.5156 L1660.7227,1615.5156 C1660.7227,1625.5156 1642.7227,1625.5156 1642.7227,1625.5156 C1642.7227,1625.5156 1624.7227,1625.5156 1624.7227,1615.5156 L1624.7227,1589.5156" fill="#E2E2F0" style="stroke:#181818;stroke-width:0.5;"/><path d="M1624.7227,1589.5156 C1624.7227,1599.5156 1642.7227,1599.5156 1642.7227,1599.5156 C1642.7227,1599.5156 1660.7227,1599.5156 1660.7227,1589.5156" fill="none" style="stroke:#181818;stroke-width:0.5;"/></g><g><title>Learner</title><rect fill="#FFFFFF" height="616.7891" style="stroke:#181818;stroke-width:1;" width="10" x="64.9951" y="118.5625"/></g><g><title>WebApp</title><rect fill="#FFFFFF" height="616.7891" style="stroke:#181818;stroke-width:1;" width="10" x="358.5391" y="118.5625"/></g><g><title>API Gateway</title><rect fill="#FFFFFF" height="270.1953" style="stroke:#181818;stroke-width:1;" width="10" x="640.2573" y="436.0234"/></g><g><title>ReviewController</title><rect fill="#FFFFFF" height="169.7969" style="stroke:#181818;stroke-width:1;" width="10" x="879.4463" y="507.2891"/></g><g><title>CourseApp</title><rect fill="#FFFFFF" height="886.2656" style="stroke:#181818;stroke-width:1;" width="10" x="1255.8418" y="536.4219"/></g><g><title>Review</title><rect fill="#FFFFFF" height="86.3984" style="stroke:#181818;stroke-width:1;" width="10" x="1443.4814" y="1248.8906"/></g><g><title>CourseDB</title><rect fill="#FFFFFF" height="53.2656" style="stroke:#181818;stroke-width:1;" width="10" x="1637.7227" y="565.5547"/></g><g><title>CourseDB</title><rect fill="#FFFFFF" height="53.2656" style="stroke:#181818;stroke-width:1;" width="10" x="1637.7227" y="808.4219"/></g><g><title>CourseDB</title><rect fill="#FFFFFF" height="29.1328" style="stroke:#181818;stroke-width:1;" width="10" x="1637.7227" y="1364.4219"/></g><g class="message" data-entity-1="part1" data-entity-2="part2" id="msg1"><polygon fill="#181818" points="346.5391,114.5625,356.5391,118.5625,346.5391,122.5625,350.5391,118.5625" style="stroke:#181818;stroke-width:1;"/><line style="stroke:#181818;stroke-width:1;" x1="74.9951" x2="352.5391" y1="118.5625" y2="118.5625"/><text fill="#000000" font-family="sans-serif" font-size="13" font-weight="bold" lengthAdjust="spacing" textLength="9.0454" x="81.9951" y="113.4966">1</text><text fill="#000000" font-family="sans-serif" font-size="13" lengthAdjust="spacing" textLength="196.187" x="95.0405" y="113.4966">Navigate to completed course</text></g><g class="message" data-entity-1="part2" data-entity-2="part2" id="msg2"><line style="stroke:#181818;stroke-width:1;" x1="368.5391" x2="410.5391" y1="147.6953" y2="147.6953"/><line style="stroke:#181818;stroke-width:1;" x1="410.5391" x2="410.5391" y1="147.6953" y2="160.6953"/><line style="stroke:#181818;stroke-width:1;" x1="369.5391" x2="410.5391" y1="160.6953" y2="160.6953"/><polygon fill="#181818" points="379.5391,156.6953,369.5391,160.6953,379.5391,164.6953,375.5391,160.6953" style="stroke:#181818;stroke-width:1;"/><text fill="#000000" font-family="sans-serif" font-size="13" font-weight="bold" lengthAdjust="spacing" textLength="9.0454" x="375.5391" y="142.6294">2</text><text fill="#000000" font-family="sans-serif" font-size="13" lengthAdjust="spacing" textLength="207.3525" x="388.5845" y="142.6294">Display "Write a Review" option</text></g><g class="message" data-entity-1="part1" data-entity-2="part2" id="msg3"><polygon fill="#181818" points="346.5391,185.8281,356.5391,189.8281,346.5391,193.8281,350.5391,189.8281" style="stroke:#181818;stroke-width:1;"/><line style="stroke:#181818;stroke-width:1;" x1="74.9951" x2="352.5391" y1="189.8281" y2="189.8281"/><text fill="#000000" font-family="sans-serif" font-size="13" font-weight="bold" lengthAdjust="spacing" textLength="9.0454" x="81.9951" y="184.7622">3</text><text fill="#000000" font-family="sans-serif" font-size="13" lengthAdjust="spacing" textLength="145.1709" x="95.0405" y="184.7622">Click "Write a Review"</text></g><g class="message" data-entity-1="part2" data-entity-2="part2" id="msg4"><line style="stroke:#181818;stroke-width:1;" x1="368.5391" x2="410.5391" y1="234.0938" y2="234.0938"/><line style="stroke:#181818;stroke-width:1;" x1="410.5391" x2="410.5391" y1="234.0938" y2="247.0938"/><line style="stroke:#181818;stroke-width:1;" x1="369.5391" x2="410.5391" y1="247.0938" y2="247.0938"/><polygon fill="#181818" points="379.5391,243.0938,369.5391,247.0938,379.5391,251.0938,375.5391,247.0938" style="stroke:#181818;stroke-width:1;"/><text fill="#000000" font-family="sans-serif" font-size="13" font-weight="bold" lengthAdjust="spacing" textLength="9.0454" x="375.5391" y="221.4614">4</text><text fill="#000000" font-family="sans-serif" font-size="13" lengthAdjust="spacing" textLength="130" x="388.5845" y="213.895">Display review form</text><text fill="#000000" font-family="sans-serif" font-size="13" lengthAdjust="spacing" textLength="154.7686" x="388.5845" y="229.0278">(rating stars, comment)</text></g><g class="message" data-entity-1="part1" data-entity-2="part2" id="msg5"><polygon fill="#181818" points="346.5391,272.2266,356.5391,276.2266,346.5391,280.2266,350.5391,276.2266" style="stroke:#181818;stroke-width:1;"/><line style="stroke:#181818;stroke-width:1;" x1="74.9951" x2="352.5391" y1="276.2266" y2="276.2266"/><text fill="#000000" font-family="sans-serif" font-size="13" font-weight="bold" lengthAdjust="spacing" textLength="9.0454" x="81.9951" y="271.1606">5</text><text fill="#000000" font-family="sans-serif" font-size="13" lengthAdjust="spacing" textLength="154.3433" x="95.0405" y="271.1606">Select rating (1-5 stars)</text></g><g class="message" data-entity-1="part1" data-entity-2="part2" id="msg6"><polygon fill="#181818" points="346.5391,301.3594,356.5391,305.3594,346.5391,309.3594,350.5391,305.3594" style="stroke:#181818;stroke-width:1;"/><line style="stroke:#181818;stroke-width:1;" x1="74.9951" x2="352.5391" y1="305.3594" y2="305.3594"/><text fill="#000000" font-family="sans-serif" font-size="13" font-weight="bold" lengthAdjust="spacing" textLength="9.0454" x="81.9951" y="300.2935">6</text><text fill="#000000" font-family="sans-serif" font-size="13" lengthAdjust="spacing" textLength="148.2114" x="95.0405" y="300.2935">Write review comment</text></g><g class="message" data-entity-1="part1" data-entity-2="part2" id="msg7"><polygon fill="#181818" points="346.5391,330.4922,356.5391,334.4922,346.5391,338.4922,350.5391,334.4922" style="stroke:#181818;stroke-width:1;"/><line style="stroke:#181818;stroke-width:1;" x1="74.9951" x2="352.5391" y1="334.4922" y2="334.4922"/><text fill="#000000" font-family="sans-serif" font-size="13" font-weight="bold" lengthAdjust="spacing" textLength="9.0454" x="81.9951" y="329.4263">7</text><text fill="#000000" font-family="sans-serif" font-size="13" lengthAdjust="spacing" textLength="144.2822" x="95.0405" y="329.4263">Click "Submit Review"</text></g><g class="message" data-entity-1="part2" data-entity-2="part2" id="msg8"><line style="stroke:#181818;stroke-width:1;" x1="368.5391" x2="410.5391" y1="378.7578" y2="378.7578"/><line style="stroke:#181818;stroke-width:1;" x1="410.5391" x2="410.5391" y1="378.7578" y2="391.7578"/><line style="stroke:#181818;stroke-width:1;" x1="369.5391" x2="410.5391" y1="391.7578" y2="391.7578"/><polygon fill="#181818" points="379.5391,387.7578,369.5391,391.7578,379.5391,395.7578,375.5391,391.7578" style="stroke:#181818;stroke-width:1;"/><text fill="#000000" font-family="sans-serif" font-size="13" font-weight="bold" lengthAdjust="spacing" textLength="9.0454" x="375.5391" y="366.1255">8</text><text fill="#000000" font-family="sans-serif" font-size="13" lengthAdjust="spacing" textLength="90.9683" x="388.5845" y="358.5591">Validate input</text><text fill="#000000" font-family="sans-serif" font-size="13" lengthAdjust="spacing" textLength="234.6729" x="388.5845" y="373.6919">(rating required, comment optional)</text></g><g class="message" data-entity-1="part2" data-entity-2="part3" id="msg9"><polygon fill="#181818" points="628.2573,432.0234,638.2573,436.0234,628.2573,440.0234,632.2573,436.0234" style="stroke:#181818;stroke-width:1;"/><line style="stroke:#181818;stroke-width:1;" x1="368.5391" x2="634.2573" y1="436.0234" y2="436.0234"/><text fill="#000000" font-family="sans-serif" font-size="13" font-weight="bold" lengthAdjust="spacing" textLength="9.0454" x="375.5391" y="423.3911">9</text><text fill="#000000" font-family="sans-serif" font-size="13" lengthAdjust="spacing" textLength="223.9009" x="388.5845" y="415.8247">POST /courses/{courseId}/reviews</text><text fill="#000000" font-family="sans-serif" font-size="13" lengthAdjust="spacing" textLength="125.0806" x="388.5845" y="430.9575">{rating, comment}</text></g><g class="message" data-entity-1="part3" data-entity-2="part3" id="msg10"><line style="stroke:#181818;stroke-width:1;" x1="650.2573" x2="692.2573" y1="465.1563" y2="465.1563"/><line style="stroke:#181818;stroke-width:1;" x1="692.2573" x2="692.2573" y1="465.1563" y2="478.1563"/><line style="stroke:#181818;stroke-width:1;" x1="651.2573" x2="692.2573" y1="478.1563" y2="478.1563"/><polygon fill="#181818" points="661.2573,474.1563,651.2573,478.1563,661.2573,482.1563,657.2573,478.1563" style="stroke:#181818;stroke-width:1;"/><text fill="#000000" font-family="sans-serif" font-size="13" font-weight="bold" lengthAdjust="spacing" textLength="18.0908" x="657.2573" y="460.0903">10</text><text fill="#000000" font-family="sans-serif" font-size="13" lengthAdjust="spacing" textLength="183.0981" x="679.3481" y="460.0903">Validate JWT, extract userID</text></g><g class="message" data-entity-1="part3" data-entity-2="part4" id="msg11"><polygon fill="#181818" points="867.4463,503.2891,877.4463,507.2891,867.4463,511.2891,871.4463,507.2891" style="stroke:#181818;stroke-width:1;"/><line style="stroke:#181818;stroke-width:1;" x1="650.2573" x2="873.4463" y1="507.2891" y2="507.2891"/><text fill="#000000" font-family="sans-serif" font-size="13" font-weight="bold" lengthAdjust="spacing" textLength="18.0908" x="657.2573" y="502.2231">11</text><text fill="#000000" font-family="sans-serif" font-size="13" lengthAdjust="spacing" textLength="106.8057" x="679.3481" y="502.2231">Forward request</text></g><g class="message" data-entity-1="part4" data-entity-2="part5" id="msg12"><polygon fill="#181818" points="1243.8418,532.4219,1253.8418,536.4219,1243.8418,540.4219,1247.8418,536.4219" style="stroke:#181818;stroke-width:1;"/><line style="stroke:#181818;stroke-width:1;" x1="889.4463" x2="1249.8418" y1="536.4219" y2="536.4219"/><text fill="#000000" font-family="sans-serif" font-size="13" font-weight="bold" lengthAdjust="spacing" textLength="18.0908" x="896.4463" y="531.356">12</text><text fill="#000000" font-family="sans-serif" font-size="13" lengthAdjust="spacing" textLength="325.3047" x="918.5371" y="531.356">ReviewCourse(courseId, userID, rating, comment)</text></g><g class="message" data-entity-1="part5" data-entity-2="part7" id="msg13"><polygon fill="#181818" points="1625.7227,561.5547,1635.7227,565.5547,1625.7227,569.5547,1629.7227,565.5547" style="stroke:#181818;stroke-width:1;"/><line style="stroke:#181818;stroke-width:1;" x1="1265.8418" x2="1631.7227" y1="565.5547" y2="565.5547"/><text fill="#000000" font-family="sans-serif" font-size="13" font-weight="bold" lengthAdjust="spacing" textLength="18.0908" x="1272.8418" y="560.4888">13</text><text fill="#000000" font-family="sans-serif" font-size="13" lengthAdjust="spacing" textLength="155.0859" x="1294.9326" y="560.4888">Verify enrollment exists</text></g><path d="M10,580.5547 L74.4429,580.5547 L74.4429,587.6875 L64.4429,597.6875 L10,597.6875 L10,580.5547" fill="#EEEEEE" style="stroke:#000000;stroke-width:1.5;"/><rect fill="none" height="966.6641" style="stroke:#000000;stroke-width:1.5;" width="1700.3535" x="10" y="580.5547"/><text fill="#000000" font-family="sans-serif" font-size="13" font-weight="bold" lengthAdjust="spacing" textLength="19.4429" x="25" y="593.6216">alt</text><text fill="#000000" font-family="sans-serif" font-size="11" font-weight="bold" lengthAdjust="spacing" textLength="87.0547" x="89.4429" y="592.7651">[Not enrolled]</text><g class="message" data-entity-1="part7" data-entity-2="part5" id="msg14"><polygon fill="#181818" points="1276.8418,614.8203,1266.8418,618.8203,1276.8418,622.8203,1272.8418,618.8203" style="stroke:#181818;stroke-width:1;"/><line style="stroke:#181818;stroke-width:1;stroke-dasharray:2,2;" x1="1270.8418" x2="1641.7227" y1="618.8203" y2="618.8203"/><text fill="#000000" font-family="sans-serif" font-size="13" font-weight="bold" lengthAdjust="spacing" textLength="18.0908" x="1282.8418" y="613.7544">14</text><text fill="#000000" font-family="sans-serif" font-size="13" lengthAdjust="spacing" textLength="64.1685" x="1304.9326" y="613.7544">Not found</text></g><g class="message" data-entity-1="part5" data-entity-2="part4" id="msg15"><polygon fill="#181818" points="900.4463,643.9531,890.4463,647.9531,900.4463,651.9531,896.4463,647.9531" style="stroke:#181818;stroke-width:1;"/><line style="stroke:#181818;stroke-width:1;stroke-dasharray:2,2;" x1="894.4463" x2="1254.8418" y1="647.9531" y2="647.9531"/><text fill="#000000" font-family="sans-serif" font-size="13" font-weight="bold" lengthAdjust="spacing" textLength="18.0908" x="906.4463" y="642.8872">15</text><text fill="#000000" font-family="sans-serif" font-size="13" lengthAdjust="spacing" textLength="94.3262" x="928.5371" y="642.8872">403 Forbidden</text></g><g class="message" data-entity-1="part4" data-entity-2="part3" id="msg16"><polygon fill="#181818" points="661.2573,673.0859,651.2573,677.0859,661.2573,681.0859,657.2573,677.0859" style="stroke:#181818;stroke-width:1;"/><line style="stroke:#181818;stroke-width:1;stroke-dasharray:2,2;" x1="655.2573" x2="883.4463" y1="677.0859" y2="677.0859"/><text fill="#000000" font-family="sans-serif" font-size="13" font-weight="bold" lengthAdjust="spacing" textLength="18.0908" x="667.2573" y="672.02">16</text><text fill="#000000" font-family="sans-serif" font-size="13" lengthAdjust="spacing" textLength="32.2017" x="689.3481" y="672.02">Error</text></g><g class="message" data-entity-1="part3" data-entity-2="part2" id="msg17"><polygon fill="#181818" points="379.5391,702.2188,369.5391,706.2188,379.5391,710.2188,375.5391,706.2188" style="stroke:#181818;stroke-width:1;"/><line style="stroke:#181818;stroke-width:1;stroke-dasharray:2,2;" x1="373.5391" x2="644.2573" y1="706.2188" y2="706.2188"/><text fill="#000000" font-family="sans-serif" font-size="13" font-weight="bold" lengthAdjust="spacing" textLength="18.0908" x="385.5391" y="701.1528">17</text><text fill="#000000" font-family="sans-serif" font-size="13" lengthAdjust="spacing" textLength="32.2017" x="407.6299" y="701.1528">Error</text></g><g class="message" data-entity-1="part2" data-entity-2="part1" id="msg18"><polygon fill="#181818" points="80.9951,731.3516,70.9951,735.3516,80.9951,739.3516,76.9951,735.3516" style="stroke:#181818;stroke-width:1;"/><line style="stroke:#181818;stroke-width:1;" x1="74.9951" x2="362.5391" y1="735.3516" y2="735.3516"/><text fill="#000000" font-family="sans-serif" font-size="13" font-weight="bold" lengthAdjust="spacing" textLength="18.0908" x="86.9951" y="730.2856">18</text><text fill="#000000" font-family="sans-serif" font-size="13" lengthAdjust="spacing" textLength="237.4531" x="109.0859" y="730.2856">Display "Must be enrolled to review"</text></g><line style="stroke:#000000;stroke-width:1;stroke-dasharray:2,2;" x1="10" x2="1710.3535" y1="744.3516" y2="744.3516"/><text fill="#000000" font-family="sans-serif" font-size="11" font-weight="bold" lengthAdjust="spacing" textLength="61.2573" x="15" y="754.562">[Enrolled]</text><g class="message" data-entity-1="part7" data-entity-2="part5" id="msg19"><polygon fill="#181818" points="1276.8418,775.2891,1266.8418,779.2891,1276.8418,783.2891,1272.8418,779.2891" style="stroke:#181818;stroke-width:1;"/><line style="stroke:#181818;stroke-width:1;stroke-dasharray:2,2;" x1="1270.8418" x2="1641.7227" y1="779.2891" y2="779.2891"/><text fill="#000000" font-family="sans-serif" font-size="13" font-weight="bold" lengthAdjust="spacing" textLength="18.0908" x="1282.8418" y="774.2231">19</text><text fill="#000000" font-family="sans-serif" font-size="13" lengthAdjust="spacing" textLength="140.8926" x="1304.9326" y="774.2231">Enrollment confirmed</text></g><g class="message" data-entity-1="part5" data-entity-2="part7" id="msg20"><polygon fill="#181818" points="1625.7227,804.4219,1635.7227,808.4219,1625.7227,812.4219,1629.7227,808.4219" style="stroke:#181818;stroke-width:1;"/><line style="stroke:#181818;stroke-width:1;" x1="1265.8418" x2="1631.7227" y1="808.4219" y2="808.4219"/><text fill="#000000" font-family="sans-serif" font-size="13" font-weight="bold" lengthAdjust="spacing" textLength="18.0908" x="1272.8418" y="803.356">20</text><text fill="#000000" font-family="sans-serif" font-size="13" lengthAdjust="spacing" textLength="142.8096" x="1294.9326" y="803.356">Check existing review</text></g><path d="M20,823.4219 L84.4429,823.4219 L84.4429,830.5547 L74.4429,840.5547 L20,840.5547 L20,823.4219" fill="#EEEEEE" style="stroke:#000000;stroke-width:1.5;"/><rect fill="none" height="716.7969" style="stroke:#000000;stroke-width:1.5;" width="1680.3535" x="20" y="823.4219"/><text fill="#000000" font-family="sans-serif" font-size="13" font-weight="bold" lengthAdjust="spacing" textLength="19.4429" x="35" y="836.4888">alt</text><text fill="#000000" font-family="sans-serif" font-size="11" font-weight="bold" lengthAdjust="spacing" textLength="118.3037" x="99.4429" y="835.6323">[Already reviewed]</text><g class="message" data-entity-1="part7" data-entity-2="part5" id="msg21"><polygon fill="#181818" points="1276.8418,857.6875,1266.8418,861.6875,1276.8418,865.6875,1272.8418,861.6875" style="stroke:#181818;stroke-width:1;"/><line style="stroke:#181818;stroke-width:1;stroke-dasharray:2,2;" x1="1270.8418" x2="1641.7227" y1="861.6875" y2="861.6875"/><text fill="#000000" font-family="sans-serif" font-size="13" font-weight="bold" lengthAdjust="spacing" textLength="18.0908" x="1282.8418" y="856.6216">21</text><text fill="#000000" font-family="sans-serif" font-size="13" lengthAdjust="spacing" textLength="89.0449" x="1304.9326" y="856.6216">Review exists</text></g><g class="message" data-entity-1="part5" data-entity-2="part4" id="msg22"><polygon fill="#181818" points="895.4463,886.8203,885.4463,890.8203,895.4463,894.8203,891.4463,890.8203" style="stroke:#181818;stroke-width:1;"/><line style="stroke:#181818;stroke-width:1;stroke-dasharray:2,2;" x1="889.4463" x2="1254.8418" y1="890.8203" y2="890.8203"/><text fill="#000000" font-family="sans-serif" font-size="13" font-weight="bold" lengthAdjust="spacing" textLength="18.0908" x="901.4463" y="885.7544">22</text><text fill="#000000" font-family="sans-serif" font-size="13" lengthAdjust="spacing" textLength="78.2603" x="923.5371" y="885.7544">409 Conflict</text></g><g class="message" data-entity-1="part4" data-entity-2="part3" id="msg23"><polygon fill="#181818" points="656.2573,915.9531,646.2573,919.9531,656.2573,923.9531,652.2573,919.9531" style="stroke:#181818;stroke-width:1;"/><line style="stroke:#181818;stroke-width:1;stroke-dasharray:2,2;" x1="650.2573" x2="883.4463" y1="919.9531" y2="919.9531"/><text fill="#000000" font-family="sans-serif" font-size="13" font-weight="bold" lengthAdjust="spacing" textLength="18.0908" x="662.2573" y="914.8872">23</text><text fill="#000000" font-family="sans-serif" font-size="13" lengthAdjust="spacing" textLength="32.2017" x="684.3481" y="914.8872">Error</text></g><g class="message" data-entity-1="part3" data-entity-2="part2" id="msg24"><polygon fill="#181818" points="374.5391,945.0859,364.5391,949.0859,374.5391,953.0859,370.5391,949.0859" style="stroke:#181818;stroke-width:1;"/><line style="stroke:#181818;stroke-width:1;stroke-dasharray:2,2;" x1="368.5391" x2="644.2573" y1="949.0859" y2="949.0859"/><text fill="#000000" font-family="sans-serif" font-size="13" font-weight="bold" lengthAdjust="spacing" textLength="18.0908" x="380.5391" y="944.02">24</text><text fill="#000000" font-family="sans-serif" font-size="13" lengthAdjust="spacing" textLength="113.4199" x="402.6299" y="944.02">Already reviewed</text></g><g class="message" data-entity-1="part2" data-entity-2="part1" id="msg25"><polygon fill="#181818" points="80.9951,974.2188,70.9951,978.2188,80.9951,982.2188,76.9951,978.2188" style="stroke:#181818;stroke-width:1;"/><line style="stroke:#181818;stroke-width:1;" x1="74.9951" x2="362.5391" y1="978.2188" y2="978.2188"/><text fill="#000000" font-family="sans-serif" font-size="13" font-weight="bold" lengthAdjust="spacing" textLength="18.0908" x="86.9951" y="973.1528">25</text><text fill="#000000" font-family="sans-serif" font-size="13" lengthAdjust="spacing" textLength="231.2959" x="109.0859" y="973.1528">Display "Already submitted review"</text></g><line style="stroke:#000000;stroke-width:1;stroke-dasharray:2,2;" x1="20" x2="1700.3535" y1="987.2188" y2="987.2188"/><text fill="#000000" font-family="sans-serif" font-size="11" font-weight="bold" lengthAdjust="spacing" textLength="116.4077" x="25" y="997.4292">[Not reviewed yet]</text><g class="message" data-entity-1="part7" data-entity-2="part5" id="msg26"><polygon fill="#181818" points="1276.8418,1018.1563,1266.8418,1022.1563,1276.8418,1026.1563,1272.8418,1022.1563" style="stroke:#181818;stroke-width:1;"/><line style="stroke:#181818;stroke-width:1;stroke-dasharray:2,2;" x1="1270.8418" x2="1641.7227" y1="1022.1563" y2="1022.1563"/><text fill="#000000" font-family="sans-serif" font-size="13" font-weight="bold" lengthAdjust="spacing" textLength="18.0908" x="1282.8418" y="1017.0903">26</text><text fill="#000000" font-family="sans-serif" font-size="13" lengthAdjust="spacing" textLength="120.4976" x="1304.9326" y="1017.0903">No existing review</text></g><g class="message" data-entity-1="part5" data-entity-2="part5" id="msg27"><line style="stroke:#181818;stroke-width:1;" x1="1265.8418" x2="1307.8418" y1="1051.2891" y2="1051.2891"/><line style="stroke:#181818;stroke-width:1;" x1="1307.8418" x2="1307.8418" y1="1051.2891" y2="1064.2891"/><line style="stroke:#181818;stroke-width:1;" x1="1266.8418" x2="1307.8418" y1="1064.2891" y2="1064.2891"/><polygon fill="#181818" points="1276.8418,1060.2891,1266.8418,1064.2891,1276.8418,1068.2891,1272.8418,1064.2891" style="stroke:#181818;stroke-width:1;"/><text fill="#000000" font-family="sans-serif" font-size="13" font-weight="bold" lengthAdjust="spacing" textLength="18.0908" x="1272.8418" y="1046.2231">27</text><text fill="#000000" font-family="sans-serif" font-size="13" lengthAdjust="spacing" textLength="131.5488" x="1294.9326" y="1046.2231">Validate rating (1-5)</text></g><path d="M30,1079.2891 L94.4429,1079.2891 L94.4429,1086.4219 L84.4429,1096.4219 L30,1096.4219 L30,1079.2891" fill="#EEEEEE" style="stroke:#000000;stroke-width:1.5;"/><rect fill="none" height="453.9297" style="stroke:#000000;stroke-width:1.5;" width="1660.3535" x="30" y="1079.2891"/><text fill="#000000" font-family="sans-serif" font-size="13" font-weight="bold" lengthAdjust="spacing" textLength="19.4429" x="45" y="1092.356">alt</text><text fill="#000000" font-family="sans-serif" font-size="11" font-weight="bold" lengthAdjust="spacing" textLength="93.3979" x="109.4429" y="1091.4995">[Invalid rating]</text><g class="message" data-entity-1="part5" data-entity-2="part4" id="msg28"><polygon fill="#181818" points="895.4463,1113.5547,885.4463,1117.5547,895.4463,1121.5547,891.4463,1117.5547" style="stroke:#181818;stroke-width:1;"/><line style="stroke:#181818;stroke-width:1;stroke-dasharray:2,2;" x1="889.4463" x2="1254.8418" y1="1117.5547" y2="1117.5547"/><text fill="#000000" font-family="sans-serif" font-size="13" font-weight="bold" lengthAdjust="spacing" textLength="18.0908" x="901.4463" y="1112.4888">28</text><text fill="#000000" font-family="sans-serif" font-size="13" lengthAdjust="spacing" textLength="111.6045" x="923.5371" y="1112.4888">400 Bad Request</text></g><g class="message" data-entity-1="part4" data-entity-2="part3" id="msg29"><polygon fill="#181818" points="656.2573,1142.6875,646.2573,1146.6875,656.2573,1150.6875,652.2573,1146.6875" style="stroke:#181818;stroke-width:1;"/><line style="stroke:#181818;stroke-width:1;stroke-dasharray:2,2;" x1="650.2573" x2="883.4463" y1="1146.6875" y2="1146.6875"/><text fill="#000000" font-family="sans-serif" font-size="13" font-weight="bold" lengthAdjust="spacing" textLength="18.0908" x="662.2573" y="1141.6216">29</text><text fill="#000000" font-family="sans-serif" font-size="13" lengthAdjust="spacing" textLength="32.2017" x="684.3481" y="1141.6216">Error</text></g><g class="message" data-entity-1="part3" data-entity-2="part2" id="msg30"><polygon fill="#181818" points="374.5391,1171.8203,364.5391,1175.8203,374.5391,1179.8203,370.5391,1175.8203" style="stroke:#181818;stroke-width:1;"/><line style="stroke:#181818;stroke-width:1;stroke-dasharray:2,2;" x1="368.5391" x2="644.2573" y1="1175.8203" y2="1175.8203"/><text fill="#000000" font-family="sans-serif" font-size="13" font-weight="bold" lengthAdjust="spacing" textLength="18.0908" x="380.5391" y="1170.7544">30</text><text fill="#000000" font-family="sans-serif" font-size="13" lengthAdjust="spacing" textLength="85.8521" x="402.6299" y="1170.7544">Invalid rating</text></g><g class="message" data-entity-1="part2" data-entity-2="part1" id="msg31"><polygon fill="#181818" points="80.9951,1200.9531,70.9951,1204.9531,80.9951,1208.9531,76.9951,1204.9531" style="stroke:#181818;stroke-width:1;"/><line style="stroke:#181818;stroke-width:1;" x1="74.9951" x2="362.5391" y1="1204.9531" y2="1204.9531"/><text fill="#000000" font-family="sans-serif" font-size="13" font-weight="bold" lengthAdjust="spacing" textLength="18.0908" x="86.9951" y="1199.8872">31</text><text fill="#000000" font-family="sans-serif" font-size="13" lengthAdjust="spacing" textLength="152.1724" x="109.0859" y="1199.8872">Display validation error</text></g><line style="stroke:#000000;stroke-width:1;stroke-dasharray:2,2;" x1="30" x2="1690.3535" y1="1213.9531" y2="1213.9531"/><text fill="#000000" font-family="sans-serif" font-size="11" font-weight="bold" lengthAdjust="spacing" textLength="82.8169" x="35" y="1224.1636">[Valid rating]</text><g class="message" data-entity-1="part5" data-entity-2="part6" id="msg32"><polygon fill="#181818" points="1431.4814,1244.8906,1441.4814,1248.8906,1431.4814,1252.8906,1435.4814,1248.8906" style="stroke:#181818;stroke-width:1;"/><line style="stroke:#181818;stroke-width:1;" x1="1265.8418" x2="1437.4814" y1="1248.8906" y2="1248.8906"/><text fill="#000000" font-family="sans-serif" font-size="13" font-weight="bold" lengthAdjust="spacing" textLength="18.0908" x="1272.8418" y="1243.8247">32</text><text fill="#000000" font-family="sans-serif" font-size="13" lengthAdjust="spacing" textLength="94.5801" x="1294.9326" y="1243.8247">Create Review</text></g><g class="message" data-entity-1="part6" data-entity-2="part6" id="msg33"><line style="stroke:#181818;stroke-width:1;" x1="1453.4814" x2="1495.4814" y1="1293.1563" y2="1293.1563"/><line style="stroke:#181818;stroke-width:1;" x1="1495.4814" x2="1495.4814" y1="1293.1563" y2="1306.1563"/><line style="stroke:#181818;stroke-width:1;" x1="1454.4814" x2="1495.4814" y1="1306.1563" y2="1306.1563"/><polygon fill="#181818" points="1464.4814,1302.1563,1454.4814,1306.1563,1464.4814,1310.1563,1460.4814,1306.1563" style="stroke:#181818;stroke-width:1;"/><text fill="#000000" font-family="sans-serif" font-size="13" font-weight="bold" lengthAdjust="spacing" textLength="18.0908" x="1460.4814" y="1280.5239">33</text><text fill="#000000" font-family="sans-serif" font-size="13" lengthAdjust="spacing" textLength="138.1504" x="1482.5723" y="1272.9575">Set rating, comment,</text><text fill="#000000" font-family="sans-serif" font-size="13" lengthAdjust="spacing" textLength="125.9058" x="1482.5723" y="1288.0903">createdAt = NOW()</text></g><g class="message" data-entity-1="part6" data-entity-2="part5" id="msg34"><polygon fill="#181818" points="1276.8418,1331.2891,1266.8418,1335.2891,1276.8418,1339.2891,1272.8418,1335.2891" style="stroke:#181818;stroke-width:1;"/><line style="stroke:#181818;stroke-width:1;stroke-dasharray:2,2;" x1="1270.8418" x2="1447.4814" y1="1335.2891" y2="1335.2891"/><text fill="#000000" font-family="sans-serif" font-size="13" font-weight="bold" lengthAdjust="spacing" textLength="18.0908" x="1282.8418" y="1330.2231">34</text><text fill="#000000" font-family="sans-serif" font-size="13" lengthAdjust="spacing" textLength="88.8354" x="1304.9326" y="1330.2231">Review entity</text></g><g class="message" data-entity-1="part5" data-entity-2="part7" id="msg35"><polygon fill="#181818" points="1625.7227,1360.4219,1635.7227,1364.4219,1625.7227,1368.4219,1629.7227,1364.4219" style="stroke:#181818;stroke-width:1;"/><line style="stroke:#181818;stroke-width:1;" x1="1265.8418" x2="1631.7227" y1="1364.4219" y2="1364.4219"/><text fill="#000000" font-family="sans-serif" font-size="13" font-weight="bold" lengthAdjust="spacing" textLength="18.0908" x="1272.8418" y="1359.356">35</text><text fill="#000000" font-family="sans-serif" font-size="13" lengthAdjust="spacing" textLength="79.3203" x="1294.9326" y="1359.356">Save review</text></g><g class="message" data-entity-1="part7" data-entity-2="part5" id="msg36"><polygon fill="#181818" points="1276.8418,1389.5547,1266.8418,1393.5547,1276.8418,1397.5547,1272.8418,1393.5547" style="stroke:#181818;stroke-width:1;"/><line style="stroke:#181818;stroke-width:1;stroke-dasharray:2,2;" x1="1270.8418" x2="1641.7227" y1="1393.5547" y2="1393.5547"/><text fill="#000000" font-family="sans-serif" font-size="13" font-weight="bold" lengthAdjust="spacing" textLength="18.0908" x="1282.8418" y="1388.4888">36</text><text fill="#000000" font-family="sans-serif" font-size="13" lengthAdjust="spacing" textLength="89.7813" x="1304.9326" y="1388.4888">Review saved</text></g><g class="message" data-entity-1="part5" data-entity-2="part4" id="msg37"><polygon fill="#181818" points="895.4463,1418.6875,885.4463,1422.6875,895.4463,1426.6875,891.4463,1422.6875" style="stroke:#181818;stroke-width:1;"/><line style="stroke:#181818;stroke-width:1;stroke-dasharray:2,2;" x1="889.4463" x2="1259.8418" y1="1422.6875" y2="1422.6875"/><text fill="#000000" font-family="sans-serif" font-size="13" font-weight="bold" lengthAdjust="spacing" textLength="18.0908" x="901.4463" y="1417.6216">37</text><text fill="#000000" font-family="sans-serif" font-size="13" lengthAdjust="spacing" textLength="75.1499" x="923.5371" y="1417.6216">ReviewDTO</text></g><g class="message" data-entity-1="part4" data-entity-2="part3" id="msg38"><polygon fill="#181818" points="656.2573,1447.8203,646.2573,1451.8203,656.2573,1455.8203,652.2573,1451.8203" style="stroke:#181818;stroke-width:1;"/><line style="stroke:#181818;stroke-width:1;stroke-dasharray:2,2;" x1="650.2573" x2="883.4463" y1="1451.8203" y2="1451.8203"/><text fill="#000000" font-family="sans-serif" font-size="13" font-weight="bold" lengthAdjust="spacing" textLength="18.0908" x="662.2573" y="1446.7544">38</text><text fill="#000000" font-family="sans-serif" font-size="13" lengthAdjust="spacing" textLength="80.6787" x="684.3481" y="1446.7544">201 Created</text></g><g class="message" data-entity-1="part3" data-entity-2="part2" id="msg39"><polygon fill="#181818" points="374.5391,1476.9531,364.5391,1480.9531,374.5391,1484.9531,370.5391,1480.9531" style="stroke:#181818;stroke-width:1;"/><line style="stroke:#181818;stroke-width:1;stroke-dasharray:2,2;" x1="368.5391" x2="644.2573" y1="1480.9531" y2="1480.9531"/><text fill="#000000" font-family="sans-serif" font-size="13" font-weight="bold" lengthAdjust="spacing" textLength="18.0908" x="380.5391" y="1475.8872">39</text><text fill="#000000" font-family="sans-serif" font-size="13" lengthAdjust="spacing" textLength="117.0825" x="402.6299" y="1475.8872">Review submitted</text></g><g class="message" data-entity-1="part2" data-entity-2="part1" id="msg40"><polygon fill="#181818" points="80.9951,1521.2188,70.9951,1525.2188,80.9951,1529.2188,76.9951,1525.2188" style="stroke:#181818;stroke-width:1;"/><line style="stroke:#181818;stroke-width:1;" x1="74.9951" x2="362.5391" y1="1525.2188" y2="1525.2188"/><text fill="#000000" font-family="sans-serif" font-size="13" font-weight="bold" lengthAdjust="spacing" textLength="18.0908" x="86.9951" y="1512.5864">40</text><text fill="#000000" font-family="sans-serif" font-size="13" lengthAdjust="spacing" textLength="180.1401" x="109.0859" y="1505.02">Display success notification</text><text fill="#000000" font-family="sans-serif" font-size="13" lengthAdjust="spacing" textLength="187.002" x="109.0859" y="1520.1528">Show review on course page</text></g><?plantuml-src bLLDR-Cs4BthLmoobnXma6JR7Xgq2yXoDaZX9e4ThB10BhGuJeYLIPUax1YB_UyTViZwBD0z9935DpDlthoXM6MLhBPhr4bYlWcvOvfjOQRUdnZdGhx2zLMIiC8g3GjaMg86Pc2Hh5KbETD7o76TxdRkPPuczFeTpjAdUxXZ5W_iU0OV5kBrpSxA2XE0GachLTc3KEnTdg3aGE4nHwOgRH1MgFUYm3hDLonBTMWbMk9Uu24Blyf0Rfcr025FP9YbT8BI2dkCaHvFBpcpRCseOC3FPnu-dpMi5d3nYLgyWGUs5wz47QoYAjjTYHOvFRaufvJOkyD5yqYwv6aTFHTcLx8ZdELQq1cBFCv0xQnGibKdAqNnRO0RIQL39nkbjo_oN3FhncOiqsRg26wfuKahxmfBB2n4tFdrnMy1F6aWeMRC6rCCYAsgzLRO4wyMiI-i5DnrJdQgRCD9up-LqCXFj6BJh9pKuNVv3JmzhfxXCWXgBh-7Xtl-up8GCY_oUqXuolEZ4PkCT9VNcKv4_igVfu3lLXCEAeFwVXvXo-m6FYjzO9fxVcXiauoSb2mp1ykehTfhZivvpMeQqqsXnsdIf27R9PblZnn5h52BpP5yw2phPS1tOQnf1P3n4bPQU50suf2JIod97nSN8OixshWbTEx5JYWGyG0arhzU_U8QN0lEKT8HjUsEND-tMYlT3VUxauSoJi4H22di8TJEekNdlojZOOqdkcuzTFH69pvFkxyN2PQqUBVZRTusAj5ARuJUuaZ78QWME7j3CgWNDTZEiI18FyGfd9OQ6Q-NoEVk4eZtH1oHEnsetTFxTxf4v8QMnFgp4S67adT47-NKdy3O3Ef0urVJNKlD18Opw4s1RaOt1-UhkZ0SqGu4UL0ZqevDv3IJzfNGkdOc0UIcS2_t3X1F_UkUg5SmOvo64JOq04QL7TEse-vehQ6w8_hkGnDqOm6Erukw3fIDsduP5WuIBScqD3h7k56qPTXbBKa4hz3sxvlfYony2fvQ-1CU7lFpILF3wzIOsNy2H-HAEgpyk5TiZ-qvzzQeKw6zC8RY-B34oHkT-OQO-VFZI40wdFR7g-ke5_z_CwyvrNinElN_6hkfYWAD0Qcis8Z26-15hjxKeVv4aY72zm1sx1L_oXR-_dR_tT-_?></g></svg>