<?plantuml 1.2026.1?><svg xmlns="http://www.w3.org/2000/svg" xmlns:xlink="http://www.w3.org/1999/xlink" contentStyleType="text/css" data-diagram-type="SEQUENCE" height="1183px" preserveAspectRatio="none" style="width:1577px;height:1183px;background:#FFFFFF;" version="1.1" viewBox="0 0 1577 1183" width="1577px" zoomAndPan="magnify"><defs/><g><rect fill="#ADD8E6" height="1171.7188" style="stroke:#181818;stroke-width:0.5;" width="102.4434" x="559.585" y="6"/><text fill="#000000" font-family="sans-serif" font-size="13" font-weight="bold" lengthAdjust="spacing" textLength="92.6821" x="564.4656" y="18.0669">API Gateway</text><rect fill="#E0FFFF" height="1171.7188" style="stroke:#181818;stroke-width:0.5;" width="770.2637" x="783.8906" y="6"/><text fill="#000000" font-family="sans-serif" font-size="13" font-weight="bold" lengthAdjust="spacing" textLength="91.1714" x="1123.4368" y="18.0669">Blog Service</text><g><title>User</title><rect fill="#FFFFFF" height="570.3281" style="stroke:#181818;stroke-width:1;" width="10" x="43.9551" y="118.5625"/></g><g><title>WebApp</title><rect fill="#FFFFFF" height="570.3281" style="stroke:#181818;stroke-width:1;" width="10" x="319.6875" y="118.5625"/></g><g><title>API Gateway</title><rect fill="#FFFFFF" height="409.5313" style="stroke:#181818;stroke-width:1;" width="10" x="605.8066" y="250.2266"/></g><g><title>BlogController</title><rect fill="#FFFFFF" height="309.1328" style="stroke:#181818;stroke-width:1;" width="10" x="835.9502" y="321.4922"/></g><g><title>BlogApp</title><rect fill="#FFFFFF" height="446.9297" style="stroke:#181818;stroke-width:1;" width="10" x="1155.6738" y="489.9609"/></g><g><title>Comment</title><rect fill="#FFFFFF" height="116.6641" style="stroke:#181818;stroke-width:1;" width="10" x="1338.2246" y="732.8281"/></g><g><title>BlogDB</title><rect fill="#FFFFFF" height="29.1328" style="stroke:#181818;stroke-width:1;" width="10" x="1516.4888" y="519.0938"/></g><g><title>BlogDB</title><rect fill="#FFFFFF" height="29.1328" style="stroke:#181818;stroke-width:1;" width="10" x="1516.4888" y="878.625"/></g><rect fill="none" height="702.7969" style="stroke:#000000;stroke-width:1.5;" width="1560.1543" x="10" y="378.625"/><rect fill="none" height="511.1953" style="stroke:#000000;stroke-width:1.5;" width="1540.1543" x="20" y="563.2266"/><g class="participant-lifeline" data-entity-uid="part1" data-qualified-name="U" id="part1-lifeline"><g><title>User</title><rect fill="#000000" fill-opacity="0.00000" height="1010.9922" width="8" x="44.9551" y="87.4297"/><line style="stroke:#181818;stroke-width:0.5;stroke-dasharray:5,5;" x1="48" x2="48" y1="87.4297" y2="1098.4219"/></g></g><g class="participant-lifeline" data-entity-uid="part2" data-qualified-name="WA" id="part2-lifeline"><g><title>WebApp</title><rect fill="#000000" fill-opacity="0.00000" height="1010.9922" width="8" x="320.6875" y="87.4297"/><line style="stroke:#181818;stroke-width:0.5;stroke-dasharray:5,5;" x1="324.3408" x2="324.3408" y1="87.4297" y2="1098.4219"/></g></g><g class="participant-lifeline" data-entity-uid="part3" data-qualified-name="GW" id="part3-lifeline"><g><title>API Gateway</title><rect fill="#000000" fill-opacity="0.00000" height="1010.9922" width="8" x="606.8066" y="87.4297"/><line style="stroke:#181818;stroke-width:0.5;stroke-dasharray:5,5;" x1="610.585" x2="610.585" y1="87.4297" y2="1098.4219"/></g></g><g class="participant-lifeline" data-entity-uid="part4" data-qualified-name="BC" id="part4-lifeline"><g><title>BlogController</title><rect fill="#000000" fill-opacity="0.00000" height="1010.9922" width="8" x="836.9502" y="87.4297"/><line style="stroke:#181818;stroke-width:0.5;stroke-dasharray:5,5;" x1="840.8906" x2="840.8906" y1="87.4297" y2="1098.4219"/></g></g><g class="participant-lifeline" data-entity-uid="part5" data-qualified-name="BA" id="part5-lifeline"><g><title>BlogApp</title><rect fill="#000000" fill-opacity="0.00000" height="1010.9922" width="8" x="1156.6738" y="87.4297"/><line style="stroke:#181818;stroke-width:0.5;stroke-dasharray:5,5;" x1="1160.5254" x2="1160.5254" y1="87.4297" y2="1098.4219"/></g></g><g class="participant-lifeline" data-entity-uid="part6" data-qualified-name="C" id="part6-lifeline"><g><title>Comment</title><rect fill="#000000" fill-opacity="0.00000" height="1010.9922" width="8" x="1339.2246" y="87.4297"/><line style="stroke:#181818;stroke-width:0.5;stroke-dasharray:5,5;" x1="1342.9287" x2="1342.9287" y1="87.4297" y2="1098.4219"/></g></g><g class="participant-lifeline" data-entity-uid="part7" data-qualified-name="BDB" id="part7-lifeline"><g><title>BlogDB</title><rect fill="#000000" fill-opacity="0.00000" height="1010.9922" width="8" x="1517.4888" y="87.4297"/><line style="stroke:#181818;stroke-width:0.5;stroke-dasharray:5,5;" x1="1520.8232" x2="1520.8232" y1="87.4297" y2="1098.4219"/></g></g><g class="participant participant-head" data-entity-uid="part1" data-qualified-name="U" id="part1-head"><text fill="#000000" font-family="sans-serif" font-size="14" lengthAdjust="spacing" textLength="31.9102" x="30" y="84.1279">User</text><ellipse cx="48.9551" cy="19.6328" fill="#E2E2F0" rx="8" ry="8" style="stroke:#181818;stroke-width:0.5;"/><path d="M48.9551,27.6328 L48.9551,54.6328 M35.9551,35.6328 L61.9551,35.6328 M48.9551,54.6328 L35.9551,69.6328 M48.9551,54.6328 L61.9551,69.6328" fill="none" style="stroke:#181818;stroke-width:0.5;"/></g><g class="participant participant-tail" data-entity-uid="part1" data-qualified-name="U" id="part1-tail"><text fill="#000000" font-family="sans-serif" font-size="14" lengthAdjust="spacing" textLength="31.9102" x="30" y="1110.417">User</text><ellipse cx="48.9551" cy="1122.2188" fill="#E2E2F0" rx="8" ry="8" style="stroke:#181818;stroke-width:0.5;"/><path d="M48.9551,1130.2188 L48.9551,1157.2188 M35.9551,1138.2188 L61.9551,1138.2188 M48.9551,1157.2188 L35.9551,1172.2188 M48.9551,1157.2188 L61.9551,1172.2188" fill="none" style="stroke:#181818;stroke-width:0.5;"/></g><g class="participant participant-head" data-entity-uid="part2" data-qualified-name="WA" id="part2-head"><text fill="#000000" font-family="sans-serif" font-size="14" lengthAdjust="spacing" textLength="58.6934" x="292.3408" y="84.1279">WebApp</text><path d="M304.1875,43.1328 L304.1875,67.1328 M304.1875,55.1328 L321.1875,55.1328" fill="none" style="stroke:#181818;stroke-width:0.5;"/><ellipse cx="333.1875" cy="55.1328" fill="#E2E2F0" rx="12" ry="12" style="stroke:#181818;stroke-width:0.5;"/></g><g class="participant participant-tail" data-entity-uid="part2" data-qualified-name="WA" id="part2-tail"><text fill="#000000" font-family="sans-serif" font-size="14" lengthAdjust="spacing" textLength="58.6934" x="292.3408" y="1110.417">WebApp</text><path d="M304.1875,1117.7188 L304.1875,1141.7188 M304.1875,1129.7188 L321.1875,1129.7188" fill="none" style="stroke:#181818;stroke-width:0.5;"/><ellipse cx="333.1875" cy="1129.7188" fill="#E2E2F0" rx="12" ry="12" style="stroke:#181818;stroke-width:0.5;"/></g><g class="participant participant-head" data-entity-uid="part3" data-qualified-name="GW" id="part3-head"><text fill="#000000" font-family="sans-serif" font-size="14" lengthAdjust="spacing" textLength="88.4434" x="563.585" y="84.1279">API Gateway</text><ellipse cx="610.8066" cy="55.1328" fill="#E2E2F0" rx="12" ry="12" style="stroke:#181818;stroke-width:0.5;"/><polygon fill="#181818" points="606.8066,43.1328,612.8066,38.1328,610.8066,43.1328,612.8066,48.1328,606.8066,43.1328" style="stroke:#181818;stroke-width:1;"/></g><g class="participant participant-tail" data-entity-uid="part3" data-qualified-name="GW" id="part3-tail"><text fill="#000000" font-family="sans-serif" font-size="14" lengthAdjust="spacing" textLength="88.4434" x="563.585" y="1110.417">API Gateway</text><ellipse cx="610.8066" cy="1129.7188" fill="#E2E2F0" rx="12" ry="12" style="stroke:#181818;stroke-width:0.5;"/><polygon fill="#181818" points="606.8066,1117.7188,612.8066,1112.7188,610.8066,1117.7188,612.8066,1122.7188,606.8066,1117.7188" style="stroke:#181818;stroke-width:1;"/></g><g class="participant participant-head" data-entity-uid="part4" data-qualified-name="BC" id="part4-head"><text fill="#000000" font-family="sans-serif" font-size="14" lengthAdjust="spacing" textLength="100.1191" x="787.8906" y="84.1279">BlogController</text><ellipse cx="840.9502" cy="55.1328" fill="#E2E2F0" rx="12" ry="12" style="stroke:#181818;stroke-width:0.5;"/><polygon fill="#181818" points="836.9502,43.1328,842.9502,38.1328,840.9502,43.1328,842.9502,48.1328,836.9502,43.1328" style="stroke:#181818;stroke-width:1;"/></g><g class="participant participant-tail" data-entity-uid="part4" data-qualified-name="BC" id="part4-tail"><text fill="#000000" font-family="sans-serif" font-size="14" lengthAdjust="spacing" textLength="100.1191" x="787.8906" y="1110.417">BlogController</text><ellipse cx="840.9502" cy="1129.7188" fill="#E2E2F0" rx="12" ry="12" style="stroke:#181818;stroke-width:0.5;"/><polygon fill="#181818" points="836.9502,1117.7188,842.9502,1112.7188,840.9502,1117.7188,842.9502,1122.7188,836.9502,1117.7188" style="stroke:#181818;stroke-width:1;"/></g><g class="participant participant-head" data-entity-uid="part5" data-qualified-name="BA" id="part5-head"><text fill="#000000" font-family="sans-serif" font-size="14" lengthAdjust="spacing" textLength="58.2969" x="1128.5254" y="84.1279">BlogApp</text><ellipse cx="1160.6738" cy="55.1328" fill="#E2E2F0" rx="12" ry="12" style="stroke:#181818;stroke-width:0.5;"/><polygon fill="#181818" points="1156.6738,43.1328,1162.6738,38.1328,1160.6738,43.1328,1162.6738,48.1328,1156.6738,43.1328" style="stroke:#181818;stroke-width:1;"/></g><g class="participant participant-tail" data-entity-uid="part5" data-qualified-name="BA" id="part5-tail"><text fill="#000000" font-family="sans-serif" font-size="14" lengthAdjust="spacing" textLength="58.2969" x="1128.5254" y="1110.417">BlogApp</text><ellipse cx="1160.6738" cy="1129.7188" fill="#E2E2F0" rx="12" ry="12" style="stroke:#181818;stroke-width:0.5;"/><polygon fill="#181818" points="1156.6738,1117.7188,1162.6738,1112.7188,1160.6738,1117.7188,1162.6738,1122.7188,1156.6738,1117.7188" style="stroke:#181818;stroke-width:1;"/></g><g class="participant participant-head" data-entity-uid="part6" data-qualified-name="C" id="part6-head"><text fill="#000000" font-family="sans-serif" font-size="14" lengthAdjust="spacing" textLength="68.5918" x="1305.9287" y="84.1279">Comment</text><ellipse cx="1343.2246" cy="55.1328" fill="#E2E2F0" rx="12" ry="12" style="stroke:#181818;stroke-width:0.5;"/><line style="stroke:#181818;stroke-width:0.5;" x1="1331.2246" x2="1355.2246" y1="69.1328" y2="69.1328"/></g><g class="participant participant-tail" data-entity-uid="part6" data-qualified-name="C" id="part6-tail"><text fill="#000000" font-family="sans-serif" font-size="14" lengthAdjust="spacing" textLength="68.5918" x="1305.9287" y="1110.417">Comment</text><ellipse cx="1343.2246" cy="1129.7188" fill="#E2E2F0" rx="12" ry="12" style="stroke:#181818;stroke-width:0.5;"/><line style="stroke:#181818;stroke-width:0.5;" x1="1331.2246" x2="1355.2246" y1="1143.7188" y2="1143.7188"/></g><g class="participant participant-head" data-entity-uid="part7" data-qualified-name="BDB" id="part7-head"><text fill="#000000" font-family="sans-serif" font-size="14" lengthAdjust="spacing" textLength="51.3311" x="1492.8232" y="84.1279">BlogDB</text><path d="M1503.4888,35.1328 C1503.4888,25.1328 1521.4888,25.1328 1521.4888,25.1328 C1521.4888,25.1328 1539.4888,25.1328 1539.4888,35.1328 L1539.4888,61.1328 C1539.4888,71.1328 1521.4888,71.1328 1521.4888,71.1328 C1521.4888,71.1328 1503.4888,71.1328 1503.4888,61.1328 L1503.4888,35.1328" fill="#E2E2F0" style="stroke:#181818;stroke-width:0.5;"/><path d="M1503.4888,35.1328 C1503.4888,45.1328 1521.4888,45.1328 1521.4888,45.1328 C1521.4888,45.1328 1539.4888,45.1328 1539.4888,35.1328" fill="none" style="stroke:#181818;stroke-width:0.5;"/></g><g class="participant participant-tail" data-entity-uid="part7" data-qualified-name="BDB" id="part7-tail"><text fill="#000000" font-family="sans-serif" font-size="14" lengthAdjust="spacing" textLength="51.3311" x="1492.8232" y="1110.417">BlogDB</text><path d="M1503.4888,1123.7188 C1503.4888,1113.7188 1521.4888,1113.7188 1521.4888,1113.7188 C1521.4888,1113.7188 1539.4888,1113.7188 1539.4888,1123.7188 L1539.4888,1149.7188 C1539.4888,1159.7188 1521.4888,1159.7188 1521.4888,1159.7188 C1521.4888,1159.7188 1503.4888,1159.7188 1503.4888,1149.7188 L1503.4888,1123.7188" fill="#E2E2F0" style="stroke:#181818;stroke-width:0.5;"/><path d="M1503.4888,1123.7188 C1503.4888,1133.7188 1521.4888,1133.7188 1521.4888,1133.7188 C1521.4888,1133.7188 1539.4888,1133.7188 1539.4888,1123.7188" fill="none" style="stroke:#181818;stroke-width:0.5;"/></g><g><title>User</title><rect fill="#FFFFFF" height="570.3281" style="stroke:#181818;stroke-width:1;" width="10" x="43.9551" y="118.5625"/></g><g><title>WebApp</title><rect fill="#FFFFFF" height="570.3281" style="stroke:#181818;stroke-width:1;" width="10" x="319.6875" y="118.5625"/></g><g><title>API Gateway</title><rect fill="#FFFFFF" height="409.5313" style="stroke:#181818;stroke-width:1;" width="10" x="605.8066" y="250.2266"/></g><g><title>BlogController</title><rect fill="#FFFFFF" height="309.1328" style="stroke:#181818;stroke-width:1;" width="10" x="835.9502" y="321.4922"/></g><g><title>BlogApp</title><rect fill="#FFFFFF" height="446.9297" style="stroke:#181818;stroke-width:1;" width="10" x="1155.6738" y="489.9609"/></g><g><title>Comment</title><rect fill="#FFFFFF" height="116.6641" style="stroke:#181818;stroke-width:1;" width="10" x="1338.2246" y="732.8281"/></g><g><title>BlogDB</title><rect fill="#FFFFFF" height="29.1328" style="stroke:#181818;stroke-width:1;" width="10" x="1516.4888" y="519.0938"/></g><g><title>BlogDB</title><rect fill="#FFFFFF" height="29.1328" style="stroke:#181818;stroke-width:1;" width="10" x="1516.4888" y="878.625"/></g><g class="message" data-entity-1="part1" data-entity-2="part2" id="msg1"><polygon fill="#181818" points="307.6875,114.5625,317.6875,118.5625,307.6875,122.5625,311.6875,118.5625" style="stroke:#181818;stroke-width:1;"/><line style="stroke:#181818;stroke-width:1;" x1="53.9551" x2="313.6875" y1="118.5625" y2="118.5625"/><text fill="#000000" font-family="sans-serif" font-size="13" font-weight="bold" lengthAdjust="spacing" textLength="9.0454" x="60.9551" y="113.4966">1</text><text fill="#000000" font-family="sans-serif" font-size="13" lengthAdjust="spacing" textLength="95.5449" x="74.0005" y="113.4966">View blog post</text></g><g class="message" data-entity-1="part2" data-entity-2="part1" id="msg2"><polygon fill="#181818" points="64.9551,143.6953,54.9551,147.6953,64.9551,151.6953,60.9551,147.6953" style="stroke:#181818;stroke-width:1;"/><line style="stroke:#181818;stroke-width:1;" x1="58.9551" x2="318.6875" y1="147.6953" y2="147.6953"/><text fill="#000000" font-family="sans-serif" font-size="13" font-weight="bold" lengthAdjust="spacing" textLength="9.0454" x="70.9551" y="142.6294">2</text><text fill="#000000" font-family="sans-serif" font-size="13" lengthAdjust="spacing" textLength="228.687" x="84.0005" y="142.6294">Display post with comment section</text></g><g class="message" data-entity-1="part1" data-entity-2="part2" id="msg3"><polygon fill="#181818" points="307.6875,172.8281,317.6875,176.8281,307.6875,180.8281,311.6875,176.8281" style="stroke:#181818;stroke-width:1;"/><line style="stroke:#181818;stroke-width:1;" x1="53.9551" x2="313.6875" y1="176.8281" y2="176.8281"/><text fill="#000000" font-family="sans-serif" font-size="13" font-weight="bold" lengthAdjust="spacing" textLength="9.0454" x="60.9551" y="171.7622">3</text><text fill="#000000" font-family="sans-serif" font-size="13" lengthAdjust="spacing" textLength="97.7793" x="74.0005" y="171.7622">Type comment</text></g><g class="message" data-entity-1="part1" data-entity-2="part2" id="msg4"><polygon fill="#181818" points="307.6875,201.9609,317.6875,205.9609,307.6875,209.9609,311.6875,205.9609" style="stroke:#181818;stroke-width:1;"/><line style="stroke:#181818;stroke-width:1;" x1="53.9551" x2="313.6875" y1="205.9609" y2="205.9609"/><text fill="#000000" font-family="sans-serif" font-size="13" font-weight="bold" lengthAdjust="spacing" textLength="9.0454" x="60.9551" y="200.895">4</text><text fill="#000000" font-family="sans-serif" font-size="13" lengthAdjust="spacing" textLength="93.1836" x="74.0005" y="200.895">Click "Submit"</text></g><g class="message" data-entity-1="part2" data-entity-2="part3" id="msg5"><polygon fill="#181818" points="593.8066,246.2266,603.8066,250.2266,593.8066,254.2266,597.8066,250.2266" style="stroke:#181818;stroke-width:1;"/><line style="stroke:#181818;stroke-width:1;" x1="329.6875" x2="599.8066" y1="250.2266" y2="250.2266"/><text fill="#000000" font-family="sans-serif" font-size="13" font-weight="bold" lengthAdjust="spacing" textLength="9.0454" x="336.6875" y="237.5942">5</text><text fill="#000000" font-family="sans-serif" font-size="13" lengthAdjust="spacing" textLength="244.0737" x="349.7329" y="230.0278">POST /blog/posts/{postId}/comments</text><text fill="#000000" font-family="sans-serif" font-size="13" lengthAdjust="spacing" textLength="66.314" x="349.7329" y="245.1606">{content}</text></g><g class="message" data-entity-1="part3" data-entity-2="part3" id="msg6"><line style="stroke:#181818;stroke-width:1;" x1="615.8066" x2="657.8066" y1="279.3594" y2="279.3594"/><line style="stroke:#181818;stroke-width:1;" x1="657.8066" x2="657.8066" y1="279.3594" y2="292.3594"/><line style="stroke:#181818;stroke-width:1;" x1="616.8066" x2="657.8066" y1="292.3594" y2="292.3594"/><polygon fill="#181818" points="626.8066,288.3594,616.8066,292.3594,626.8066,296.3594,622.8066,292.3594" style="stroke:#181818;stroke-width:1;"/><text fill="#000000" font-family="sans-serif" font-size="13" font-weight="bold" lengthAdjust="spacing" textLength="9.0454" x="622.8066" y="274.2935">6</text><text fill="#000000" font-family="sans-serif" font-size="13" lengthAdjust="spacing" textLength="183.0981" x="635.8521" y="274.2935">Validate JWT, extract userID</text></g><g class="message" data-entity-1="part3" data-entity-2="part4" id="msg7"><polygon fill="#181818" points="823.9502,317.4922,833.9502,321.4922,823.9502,325.4922,827.9502,321.4922" style="stroke:#181818;stroke-width:1;"/><line style="stroke:#181818;stroke-width:1;" x1="615.8066" x2="829.9502" y1="321.4922" y2="321.4922"/><text fill="#000000" font-family="sans-serif" font-size="13" font-weight="bold" lengthAdjust="spacing" textLength="9.0454" x="622.8066" y="316.4263">7</text><text fill="#000000" font-family="sans-serif" font-size="13" lengthAdjust="spacing" textLength="106.8057" x="635.8521" y="316.4263">Forward request</text></g><g class="message" data-entity-1="part4" data-entity-2="part4" id="msg8"><line style="stroke:#181818;stroke-width:1;" x1="845.9502" x2="887.9502" y1="350.625" y2="350.625"/><line style="stroke:#181818;stroke-width:1;" x1="887.9502" x2="887.9502" y1="350.625" y2="363.625"/><line style="stroke:#181818;stroke-width:1;" x1="846.9502" x2="887.9502" y1="363.625" y2="363.625"/><polygon fill="#181818" points="856.9502,359.625,846.9502,363.625,856.9502,367.625,852.9502,363.625" style="stroke:#181818;stroke-width:1;"/><text fill="#000000" font-family="sans-serif" font-size="13" font-weight="bold" lengthAdjust="spacing" textLength="9.0454" x="852.9502" y="345.5591">8</text><text fill="#000000" font-family="sans-serif" font-size="13" lengthAdjust="spacing" textLength="178.5596" x="865.9956" y="345.5591">Validate content not empty</text></g><path d="M10,378.625 L74.4429,378.625 L74.4429,385.7578 L64.4429,395.7578 L10,395.7578 L10,378.625" fill="#EEEEEE" style="stroke:#000000;stroke-width:1.5;"/><rect fill="none" height="702.7969" style="stroke:#000000;stroke-width:1.5;" width="1560.1543" x="10" y="378.625"/><text fill="#000000" font-family="sans-serif" font-size="13" font-weight="bold" lengthAdjust="spacing" textLength="19.4429" x="25" y="391.6919">alt</text><text fill="#000000" font-family="sans-serif" font-size="11" font-weight="bold" lengthAdjust="spacing" textLength="103.5332" x="89.4429" y="390.8354">[Invalid content]</text><g class="message" data-entity-1="part4" data-entity-2="part2" id="msg9"><polygon fill="#181818" points="340.6875,412.8906,330.6875,416.8906,340.6875,420.8906,336.6875,416.8906" style="stroke:#181818;stroke-width:1;"/><line style="stroke:#181818;stroke-width:1;stroke-dasharray:2,2;" x1="334.6875" x2="834.9502" y1="416.8906" y2="416.8906"/><text fill="#000000" font-family="sans-serif" font-size="13" font-weight="bold" lengthAdjust="spacing" textLength="9.0454" x="346.6875" y="411.8247">9</text><text fill="#000000" font-family="sans-serif" font-size="13" lengthAdjust="spacing" textLength="111.6045" x="359.7329" y="411.8247">400 Bad Request</text></g><g class="message" data-entity-1="part2" data-entity-2="part1" id="msg10"><polygon fill="#181818" points="64.9551,442.0234,54.9551,446.0234,64.9551,450.0234,60.9551,446.0234" style="stroke:#181818;stroke-width:1;"/><line style="stroke:#181818;stroke-width:1;" x1="58.9551" x2="318.6875" y1="446.0234" y2="446.0234"/><text fill="#000000" font-family="sans-serif" font-size="13" font-weight="bold" lengthAdjust="spacing" textLength="18.0908" x="70.9551" y="440.9575">10</text><text fill="#000000" font-family="sans-serif" font-size="13" lengthAdjust="spacing" textLength="139.3311" x="93.0459" y="440.9575">Show validation error</text></g><line style="stroke:#000000;stroke-width:1;stroke-dasharray:2,2;" x1="10" x2="1570.1543" y1="455.0234" y2="455.0234"/><text fill="#000000" font-family="sans-serif" font-size="11" font-weight="bold" lengthAdjust="spacing" textLength="92.9521" x="15" y="465.2339">[Valid content]</text><g class="message" data-entity-1="part4" data-entity-2="part5" id="msg11"><polygon fill="#181818" points="1143.6738,485.9609,1153.6738,489.9609,1143.6738,493.9609,1147.6738,489.9609" style="stroke:#181818;stroke-width:1;"/><line style="stroke:#181818;stroke-width:1;" x1="845.9502" x2="1149.6738" y1="489.9609" y2="489.9609"/><text fill="#000000" font-family="sans-serif" font-size="13" font-weight="bold" lengthAdjust="spacing" textLength="18.0908" x="852.9502" y="484.895">11</text><text fill="#000000" font-family="sans-serif" font-size="13" lengthAdjust="spacing" textLength="268.6328" x="875.041" y="484.895">CommentOnPost(postId, userID, content)</text></g><g class="message" data-entity-1="part5" data-entity-2="part7" id="msg12"><polygon fill="#181818" points="1504.4888,515.0938,1514.4888,519.0938,1504.4888,523.0938,1508.4888,519.0938" style="stroke:#181818;stroke-width:1;"/><line style="stroke:#181818;stroke-width:1;" x1="1165.6738" x2="1510.4888" y1="519.0938" y2="519.0938"/><text fill="#000000" font-family="sans-serif" font-size="13" font-weight="bold" lengthAdjust="spacing" textLength="18.0908" x="1172.6738" y="514.0278">12</text><text fill="#000000" font-family="sans-serif" font-size="13" lengthAdjust="spacing" textLength="114.2769" x="1194.7646" y="514.0278">Check post exists</text></g><g class="message" data-entity-1="part7" data-entity-2="part5" id="msg13"><polygon fill="#181818" points="1176.6738,544.2266,1166.6738,548.2266,1176.6738,552.2266,1172.6738,548.2266" style="stroke:#181818;stroke-width:1;"/><line style="stroke:#181818;stroke-width:1;stroke-dasharray:2,2;" x1="1170.6738" x2="1520.4888" y1="548.2266" y2="548.2266"/><text fill="#000000" font-family="sans-serif" font-size="13" font-weight="bold" lengthAdjust="spacing" textLength="18.0908" x="1182.6738" y="543.1606">13</text><text fill="#000000" font-family="sans-serif" font-size="13" lengthAdjust="spacing" textLength="69.0562" x="1204.7646" y="543.1606">Post found</text></g><path d="M20,563.2266 L84.4429,563.2266 L84.4429,570.3594 L74.4429,580.3594 L20,580.3594 L20,563.2266" fill="#EEEEEE" style="stroke:#000000;stroke-width:1.5;"/><rect fill="none" height="511.1953" style="stroke:#000000;stroke-width:1.5;" width="1540.1543" x="20" y="563.2266"/><text fill="#000000" font-family="sans-serif" font-size="13" font-weight="bold" lengthAdjust="spacing" textLength="19.4429" x="35" y="576.2935">alt</text><text fill="#000000" font-family="sans-serif" font-size="11" font-weight="bold" lengthAdjust="spacing" textLength="101.6641" x="99.4429" y="575.437">[Post not found]</text><g class="message" data-entity-1="part5" data-entity-2="part4" id="msg14"><polygon fill="#181818" points="856.9502,597.4922,846.9502,601.4922,856.9502,605.4922,852.9502,601.4922" style="stroke:#181818;stroke-width:1;"/><line style="stroke:#181818;stroke-width:1;stroke-dasharray:2,2;" x1="850.9502" x2="1154.6738" y1="601.4922" y2="601.4922"/><text fill="#000000" font-family="sans-serif" font-size="13" font-weight="bold" lengthAdjust="spacing" textLength="18.0908" x="862.9502" y="596.4263">14</text><text fill="#000000" font-family="sans-serif" font-size="13" lengthAdjust="spacing" textLength="96.0146" x="885.041" y="596.4263">404 Not Found</text></g><g class="message" data-entity-1="part4" data-entity-2="part3" id="msg15"><polygon fill="#181818" points="626.8066,626.625,616.8066,630.625,626.8066,634.625,622.8066,630.625" style="stroke:#181818;stroke-width:1;"/><line style="stroke:#181818;stroke-width:1;stroke-dasharray:2,2;" x1="620.8066" x2="839.9502" y1="630.625" y2="630.625"/><text fill="#000000" font-family="sans-serif" font-size="13" font-weight="bold" lengthAdjust="spacing" textLength="18.0908" x="632.8066" y="625.5591">15</text><text fill="#000000" font-family="sans-serif" font-size="13" lengthAdjust="spacing" textLength="32.2017" x="654.8975" y="625.5591">Error</text></g><g class="message" data-entity-1="part3" data-entity-2="part2" id="msg16"><polygon fill="#181818" points="340.6875,655.7578,330.6875,659.7578,340.6875,663.7578,336.6875,659.7578" style="stroke:#181818;stroke-width:1;"/><line style="stroke:#181818;stroke-width:1;stroke-dasharray:2,2;" x1="334.6875" x2="609.8066" y1="659.7578" y2="659.7578"/><text fill="#000000" font-family="sans-serif" font-size="13" font-weight="bold" lengthAdjust="spacing" textLength="18.0908" x="346.6875" y="654.6919">16</text><text fill="#000000" font-family="sans-serif" font-size="13" lengthAdjust="spacing" textLength="32.2017" x="368.7783" y="654.6919">Error</text></g><g class="message" data-entity-1="part2" data-entity-2="part1" id="msg17"><polygon fill="#181818" points="59.9551,684.8906,49.9551,688.8906,59.9551,692.8906,55.9551,688.8906" style="stroke:#181818;stroke-width:1;"/><line style="stroke:#181818;stroke-width:1;" x1="53.9551" x2="323.6875" y1="688.8906" y2="688.8906"/><text fill="#000000" font-family="sans-serif" font-size="13" font-weight="bold" lengthAdjust="spacing" textLength="18.0908" x="65.9551" y="683.8247">17</text><text fill="#000000" font-family="sans-serif" font-size="13" lengthAdjust="spacing" textLength="71.1953" x="88.0459" y="683.8247">Show error</text></g><line style="stroke:#000000;stroke-width:1;stroke-dasharray:2,2;" x1="20" x2="1560.1543" y1="697.8906" y2="697.8906"/><text fill="#000000" font-family="sans-serif" font-size="11" font-weight="bold" lengthAdjust="spacing" textLength="77.9883" x="25" y="708.1011">[Post exists]</text><g class="message" data-entity-1="part5" data-entity-2="part6" id="msg18"><polygon fill="#181818" points="1326.2246,728.8281,1336.2246,732.8281,1326.2246,736.8281,1330.2246,732.8281" style="stroke:#181818;stroke-width:1;"/><line style="stroke:#181818;stroke-width:1;" x1="1165.6738" x2="1332.2246" y1="732.8281" y2="732.8281"/><text fill="#000000" font-family="sans-serif" font-size="13" font-weight="bold" lengthAdjust="spacing" textLength="18.0908" x="1172.6738" y="727.7622">18</text><text fill="#000000" font-family="sans-serif" font-size="13" lengthAdjust="spacing" textLength="131.46" x="1194.7646" y="727.7622">Build new Comment</text></g><g class="message" data-entity-1="part6" data-entity-2="part6" id="msg19"><line style="stroke:#181818;stroke-width:1;" x1="1348.2246" x2="1390.2246" y1="807.3594" y2="807.3594"/><line style="stroke:#181818;stroke-width:1;" x1="1390.2246" x2="1390.2246" y1="807.3594" y2="820.3594"/><line style="stroke:#181818;stroke-width:1;" x1="1349.2246" x2="1390.2246" y1="820.3594" y2="820.3594"/><polygon fill="#181818" points="1359.2246,816.3594,1349.2246,820.3594,1359.2246,824.3594,1355.2246,820.3594" style="stroke:#181818;stroke-width:1;"/><text fill="#000000" font-family="sans-serif" font-size="13" font-weight="bold" lengthAdjust="spacing" textLength="18.0908" x="1355.2246" y="779.5942">19</text><text fill="#000000" font-family="sans-serif" font-size="13" lengthAdjust="spacing" textLength="93.5073" x="1377.3154" y="756.895">Set id = UUID,</text><text fill="#000000" font-family="sans-serif" font-size="13" lengthAdjust="spacing" textLength="105.3711" x="1377.3154" y="772.0278">postID = postId,</text><text fill="#000000" font-family="sans-serif" font-size="13" lengthAdjust="spacing" textLength="122.1733" x="1377.3154" y="787.1606">authorID = userID,</text><text fill="#000000" font-family="sans-serif" font-size="13" lengthAdjust="spacing" textLength="118.7012" x="1377.3154" y="802.2935">content = content</text></g><g class="message" data-entity-1="part6" data-entity-2="part5" id="msg20"><polygon fill="#181818" points="1176.6738,845.4922,1166.6738,849.4922,1176.6738,853.4922,1172.6738,849.4922" style="stroke:#181818;stroke-width:1;"/><line style="stroke:#181818;stroke-width:1;stroke-dasharray:2,2;" x1="1170.6738" x2="1342.2246" y1="849.4922" y2="849.4922"/><text fill="#000000" font-family="sans-serif" font-size="13" font-weight="bold" lengthAdjust="spacing" textLength="18.0908" x="1182.6738" y="844.4263">20</text><text fill="#000000" font-family="sans-serif" font-size="13" lengthAdjust="spacing" textLength="105.5615" x="1204.7646" y="844.4263">Comment entity</text></g><g class="message" data-entity-1="part5" data-entity-2="part7" id="msg21"><polygon fill="#181818" points="1504.4888,874.625,1514.4888,878.625,1504.4888,882.625,1508.4888,878.625" style="stroke:#181818;stroke-width:1;"/><line style="stroke:#181818;stroke-width:1;" x1="1165.6738" x2="1510.4888" y1="878.625" y2="878.625"/><text fill="#000000" font-family="sans-serif" font-size="13" font-weight="bold" lengthAdjust="spacing" textLength="18.0908" x="1172.6738" y="873.5591">21</text><text fill="#000000" font-family="sans-serif" font-size="13" lengthAdjust="spacing" textLength="97.8047" x="1194.7646" y="873.5591">Save comment</text></g><g class="message" data-entity-1="part7" data-entity-2="part5" id="msg22"><polygon fill="#181818" points="1176.6738,903.7578,1166.6738,907.7578,1176.6738,911.7578,1172.6738,907.7578" style="stroke:#181818;stroke-width:1;"/><line style="stroke:#181818;stroke-width:1;stroke-dasharray:2,2;" x1="1170.6738" x2="1520.4888" y1="907.7578" y2="907.7578"/><text fill="#000000" font-family="sans-serif" font-size="13" font-weight="bold" lengthAdjust="spacing" textLength="18.0908" x="1182.6738" y="902.6919">22</text><text fill="#000000" font-family="sans-serif" font-size="13" lengthAdjust="spacing" textLength="81.6689" x="1204.7646" y="902.6919">Comment ID</text></g><g class="message" data-entity-1="part5" data-entity-2="part4" id="msg23"><polygon fill="#181818" points="851.9502,932.8906,841.9502,936.8906,851.9502,940.8906,847.9502,936.8906" style="stroke:#181818;stroke-width:1;"/><line style="stroke:#181818;stroke-width:1;stroke-dasharray:2,2;" x1="845.9502" x2="1159.6738" y1="936.8906" y2="936.8906"/><text fill="#000000" font-family="sans-serif" font-size="13" font-weight="bold" lengthAdjust="spacing" textLength="18.0908" x="857.9502" y="931.8247">23</text><text fill="#000000" font-family="sans-serif" font-size="13" lengthAdjust="spacing" textLength="117.6284" x="880.041" y="931.8247">Comment created</text></g><g class="message" data-entity-1="part4" data-entity-2="part3" id="msg24"><polygon fill="#181818" points="621.8066,962.0234,611.8066,966.0234,621.8066,970.0234,617.8066,966.0234" style="stroke:#181818;stroke-width:1;"/><line style="stroke:#181818;stroke-width:1;stroke-dasharray:2,2;" x1="615.8066" x2="839.9502" y1="966.0234" y2="966.0234"/><text fill="#000000" font-family="sans-serif" font-size="13" font-weight="bold" lengthAdjust="spacing" textLength="18.0908" x="627.8066" y="960.9575">24</text><text fill="#000000" font-family="sans-serif" font-size="13" lengthAdjust="spacing" textLength="80.6787" x="649.8975" y="960.9575">201 Created</text></g><g class="message" data-entity-1="part3" data-entity-2="part2" id="msg25"><polygon fill="#181818" points="335.6875,991.1563,325.6875,995.1563,335.6875,999.1563,331.6875,995.1563" style="stroke:#181818;stroke-width:1;"/><line style="stroke:#181818;stroke-width:1;stroke-dasharray:2,2;" x1="329.6875" x2="609.8066" y1="995.1563" y2="995.1563"/><text fill="#000000" font-family="sans-serif" font-size="13" font-weight="bold" lengthAdjust="spacing" textLength="18.0908" x="341.6875" y="990.0903">25</text><text fill="#000000" font-family="sans-serif" font-size="13" lengthAdjust="spacing" textLength="94.25" x="363.7783" y="990.0903">New comment</text></g><g class="message" data-entity-1="part2" data-entity-2="part2" id="msg26"><line style="stroke:#181818;stroke-width:1;" x1="324.6875" x2="366.6875" y1="1024.2891" y2="1024.2891"/><line style="stroke:#181818;stroke-width:1;" x1="366.6875" x2="366.6875" y1="1024.2891" y2="1037.2891"/><line style="stroke:#181818;stroke-width:1;" x1="325.6875" x2="366.6875" y1="1037.2891" y2="1037.2891"/><polygon fill="#181818" points="335.6875,1033.2891,325.6875,1037.2891,335.6875,1041.2891,331.6875,1037.2891" style="stroke:#181818;stroke-width:1;"/><text fill="#000000" font-family="sans-serif" font-size="13" font-weight="bold" lengthAdjust="spacing" textLength="18.0908" x="331.6875" y="1019.2231">26</text><text fill="#000000" font-family="sans-serif" font-size="13" lengthAdjust="spacing" textLength="167.394" x="353.7783" y="1019.2231">Insert comment to thread</text></g><g class="message" data-entity-1="part2" data-entity-2="part1" id="msg27"><polygon fill="#181818" points="59.9551,1062.4219,49.9551,1066.4219,59.9551,1070.4219,55.9551,1066.4219" style="stroke:#181818;stroke-width:1;"/><line style="stroke:#181818;stroke-width:1;" x1="53.9551" x2="323.6875" y1="1066.4219" y2="1066.4219"/><text fill="#000000" font-family="sans-serif" font-size="13" font-weight="bold" lengthAdjust="spacing" textLength="18.0908" x="65.9551" y="1061.356">27</text><text fill="#000000" font-family="sans-serif" font-size="13" lengthAdjust="spacing" textLength="144.8154" x="88.0459" y="1061.356">Display new comment</text></g><?plantuml-src TLJ1Rjim3BtxAuZiiW4jaWuz1Ui0src334CRB7LzoKM9jKQe8tcodCGe-kybPScntVPGL24VdyZtABFAA5djDrm7GVaiPC4qsqEaJakMPK8-mTKa2DZMA0r9oJMm4f9WeogPCLr3oZTXKL0m3GCCds0KBXSmPuOVMJs2Bt_4qyv4USK3WAsIHgjy0C7QUHfmcG6MEuueLq-muleWjjoJn3MJ7HA2nCqvRzgAua7QTHQ56EVI25D3hFPxF5AOq1apRCDARk6poA9dqRcP12v_ucHJU1Jy21lggb2b8Jt40GT0ATeZ2f26X4-cC1DbaRFQWk4ep0xxQYukEUALF3C_r0NtsNCqpiNs6KQhQhCNPXGuvdawXUNzwW76rCgOsCln2_rRPAzZHrAkvGkfWCVNStSeyJpr78yi5nb5VwSF5y1FHYCEAhHtCNEmA9x2hT97fZFG_7_5krEZqa4KUrZBvcu5gGpmVM5gN9pSm48U2E7JA3jEy-FoqXPVJoOGiGp-kZjiiX5njLD7E3JaA1bmhPKEU8vsFGu8NJCaN2F2lLoYAbyRQIxSQ1U-uXkMd8V1nKK6UokQZnGxZjfRw_X9eCGzDAw7HTi124uNmJzw4BHGl8UaIbJ0GaWL3xCTMuQG9BY6EqpUjacqmElpomvDmIvrR2DEHdBqGnXwxc0TGVb7o3GSHX9wCoJrigU35mexYogHPo3nNJZDRRebQ5gC7NZ53Q1ZDv0awCDQMcDc-Divj9QiCZkbRSovjPP-eMuwLhVYnwtPxd4FHuY3JiFMgXKxdDzQhzl6rhwndXtVn53_njgUYnwzrHmXsRkISEZizyaLn9-0t_bxXp9t6--xtB6PFXuBYGAQzfDZ59WTNfJrjy5_e-Jdr9-i1Muf_Rq1?></g></svg>