<?plantuml 1.2026.1?><svg xmlns="http://www.w3.org/2000/svg" xmlns:xlink="http://www.w3.org/1999/xlink" contentStyleType="text/css" data-diagram-type="SEQUENCE" height="771px" preserveAspectRatio="none" style="width:1176px;height:771px;background:#FFFFFF;" version="1.1" viewBox="0 0 1176 771" width="1176px" zoomAndPan="magnify"><defs/><g><rect fill="#ADD8E6" height="759.3203" style="stroke:#181818;stroke-width:0.5;" width="102.4434" x="455.8608" y="6"/><text fill="#000000" font-family="sans-serif" font-size="13" font-weight="bold" lengthAdjust="spacing" textLength="92.6821" x="460.7415" y="18.0669">API Gateway</text><rect fill="#FFFFE0" height="759.3203" style="stroke:#181818;stroke-width:0.5;" width="582.9409" x="580.3042" y="6"/><text fill="#000000" font-family="sans-serif" font-size="13" font-weight="bold" lengthAdjust="spacing" textLength="109.2622" x="817.1436" y="18.0669">Course Service</text><g><title>Learner</title><rect fill="#FFFFFF" height="321.4609" style="stroke:#181818;stroke-width:1;" width="10" x="44.9951" y="118.5625"/></g><g><title>WebApp</title><rect fill="#FFFFFF" height="321.4609" style="stroke:#181818;stroke-width:1;" width="10" x="254.3223" y="118.5625"/></g><g><title>API Gateway</title><rect fill="#FFFFFF" height="263.1953" style="stroke:#181818;stroke-width:1;" width="10" x="502.0825" y="147.6953"/></g><g><title>CertificateController</title><rect fill="#FFFFFF" height="169.7969" style="stroke:#181818;stroke-width:1;" width="10" x="653.251" y="211.9609"/></g><g><title>CourseApp</title><rect fill="#FFFFFF" height="272" style="stroke:#181818;stroke-width:1;" width="10" x="902.5156" y="241.0938"/></g><g><title>CourseDB</title><rect fill="#FFFFFF" height="53.2656" style="stroke:#181818;stroke-width:1;" width="10" x="1116.6143" y="270.2266"/></g><rect fill="none" height="383.7969" style="stroke:#000000;stroke-width:1.5;" width="1159.2451" x="10" y="285.2266"/><g class="participant-lifeline" data-entity-uid="part1" data-qualified-name="L" id="part1-lifeline"><g><title>Learner</title><rect fill="#000000" fill-opacity="0.00000" height="598.5938" width="8" x="45.9951" y="87.4297"/><line style="stroke:#181818;stroke-width:0.5;stroke-dasharray:5,5;" x1="49" x2="49" y1="87.4297" y2="686.0234"/></g></g><g class="participant-lifeline" data-entity-uid="part2" data-qualified-name="WA" id="part2-lifeline"><g><title>WebApp</title><rect fill="#000000" fill-opacity="0.00000" height="598.5938" width="8" x="255.3223" y="87.4297"/><line style="stroke:#181818;stroke-width:0.5;stroke-dasharray:5,5;" x1="258.9756" x2="258.9756" y1="87.4297" y2="686.0234"/></g></g><g class="participant-lifeline" data-entity-uid="part3" data-qualified-name="GW" id="part3-lifeline"><g><title>API Gateway</title><rect fill="#000000" fill-opacity="0.00000" height="598.5938" width="8" x="503.0825" y="87.4297"/><line style="stroke:#181818;stroke-width:0.5;stroke-dasharray:5,5;" x1="506.8608" x2="506.8608" y1="87.4297" y2="686.0234"/></g></g><g class="participant-lifeline" data-entity-uid="part4" data-qualified-name="CertC" id="part4-lifeline"><g><title>CertificateController</title><rect fill="#000000" fill-opacity="0.00000" height="598.5938" width="8" x="654.251" y="87.4297"/><line style="stroke:#181818;stroke-width:0.5;stroke-dasharray:5,5;" x1="657.3042" x2="657.3042" y1="87.4297" y2="686.0234"/></g></g><g class="participant-lifeline" data-entity-uid="part5" data-qualified-name="CA" id="part5-lifeline"><g><title>CourseApp</title><rect fill="#000000" fill-opacity="0.00000" height="598.5938" width="8" x="903.5156" y="87.4297"/><line style="stroke:#181818;stroke-width:0.5;stroke-dasharray:5,5;" x1="907.4019" x2="907.4019" y1="87.4297" y2="686.0234"/></g></g><g class="participant-lifeline" data-entity-uid="part6" data-qualified-name="CDB" id="part6-lifeline"><g><title>CourseDB</title><rect fill="#000000" fill-opacity="0.00000" height="598.5938" width="8" x="1117.6143" y="87.4297"/><line style="stroke:#181818;stroke-width:0.5;stroke-dasharray:5,5;" x1="1120.9834" x2="1120.9834" y1="87.4297" y2="686.0234"/></g></g><g class="participant participant-head" data-entity-uid="part1" data-qualified-name="L" id="part1-head"><text fill="#000000" font-family="sans-serif" font-size="14" lengthAdjust="spacing" textLength="53.9902" x="20" y="84.1279">Learner</text><ellipse cx="49.9951" cy="19.6328" fill="#E2E2F0" rx="8" ry="8" style="stroke:#181818;stroke-width:0.5;"/><path d="M49.9951,27.6328 L49.9951,54.6328 M36.9951,35.6328 L62.9951,35.6328 M49.9951,54.6328 L36.9951,69.6328 M49.9951,54.6328 L62.9951,69.6328" fill="none" style="stroke:#181818;stroke-width:0.5;"/></g><g class="participant participant-tail" data-entity-uid="part1" data-qualified-name="L" id="part1-tail"><text fill="#000000" font-family="sans-serif" font-size="14" lengthAdjust="spacing" textLength="53.9902" x="20" y="698.0186">Learner</text><ellipse cx="49.9951" cy="709.8203" fill="#E2E2F0" rx="8" ry="8" style="stroke:#181818;stroke-width:0.5;"/><path d="M49.9951,717.8203 L49.9951,744.8203 M36.9951,725.8203 L62.9951,725.8203 M49.9951,744.8203 L36.9951,759.8203 M49.9951,744.8203 L62.9951,759.8203" fill="none" style="stroke:#181818;stroke-width:0.5;"/></g><g class="participant participant-head" data-entity-uid="part2" data-qualified-name="WA" id="part2-head"><text fill="#000000" font-family="sans-serif" font-size="14" lengthAdjust="spacing" textLength="58.6934" x="226.9756" y="84.1279">WebApp</text><path d="M238.8223,43.1328 L238.8223,67.1328 M238.8223,55.1328 L255.8223,55.1328" fill="none" style="stroke:#181818;stroke-width:0.5;"/><ellipse cx="267.8223" cy="55.1328" fill="#E2E2F0" rx="12" ry="12" style="stroke:#181818;stroke-width:0.5;"/></g><g class="participant participant-tail" data-entity-uid="part2" data-qualified-name="WA" id="part2-tail"><text fill="#000000" font-family="sans-serif" font-size="14" lengthAdjust="spacing" textLength="58.6934" x="226.9756" y="698.0186">WebApp</text><path d="M238.8223,705.3203 L238.8223,729.3203 M238.8223,717.3203 L255.8223,717.3203" fill="none" style="stroke:#181818;stroke-width:0.5;"/><ellipse cx="267.8223" cy="717.3203" fill="#E2E2F0" rx="12" ry="12" style="stroke:#181818;stroke-width:0.5;"/></g><g class="participant participant-head" data-entity-uid="part3" data-qualified-name="GW" id="part3-head"><text fill="#000000" font-family="sans-serif" font-size="14" lengthAdjust="spacing" textLength="88.4434" x="459.8608" y="84.1279">API Gateway</text><ellipse cx="507.0825" cy="55.1328" fill="#E2E2F0" rx="12" ry="12" style="stroke:#181818;stroke-width:0.5;"/><polygon fill="#181818" points="503.0825,43.1328,509.0825,38.1328,507.0825,43.1328,509.0825,48.1328,503.0825,43.1328" style="stroke:#181818;stroke-width:1;"/></g><g class="participant participant-tail" data-entity-uid="part3" data-qualified-name="GW" id="part3-tail"><text fill="#000000" font-family="sans-serif" font-size="14" lengthAdjust="spacing" textLength="88.4434" x="459.8608" y="698.0186">API Gateway</text><ellipse cx="507.0825" cy="717.3203" fill="#E2E2F0" rx="12" ry="12" style="stroke:#181818;stroke-width:0.5;"/><polygon fill="#181818" points="503.0825,705.3203,509.0825,700.3203,507.0825,705.3203,509.0825,710.3203,503.0825,705.3203" style="stroke:#181818;stroke-width:1;"/></g><g class="participant participant-head" data-entity-uid="part4" data-qualified-name="CertC" id="part4-head"><text fill="#000000" font-family="sans-serif" font-size="14" lengthAdjust="spacing" textLength="141.8936" x="584.3042" y="84.1279">CertificateController</text><ellipse cx="658.251" cy="55.1328" fill="#E2E2F0" rx="12" ry="12" style="stroke:#181818;stroke-width:0.5;"/><polygon fill="#181818" points="654.251,43.1328,660.251,38.1328,658.251,43.1328,660.251,48.1328,654.251,43.1328" style="stroke:#181818;stroke-width:1;"/></g><g class="participant participant-tail" data-entity-uid="part4" data-qualified-name="CertC" id="part4-tail"><text fill="#000000" font-family="sans-serif" font-size="14" lengthAdjust="spacing" textLength="141.8936" x="584.3042" y="698.0186">CertificateController</text><ellipse cx="658.251" cy="717.3203" fill="#E2E2F0" rx="12" ry="12" style="stroke:#181818;stroke-width:0.5;"/><polygon fill="#181818" points="654.251,705.3203,660.251,700.3203,658.251,705.3203,660.251,710.3203,654.251,705.3203" style="stroke:#181818;stroke-width:1;"/></g><g class="participant participant-head" data-entity-uid="part5" data-qualified-name="CA" id="part5-head"><text fill="#000000" font-family="sans-serif" font-size="14" lengthAdjust="spacing" textLength="76.2275" x="866.4019" y="84.1279">CourseApp</text><ellipse cx="907.5156" cy="55.1328" fill="#E2E2F0" rx="12" ry="12" style="stroke:#181818;stroke-width:0.5;"/><polygon fill="#181818" points="903.5156,43.1328,909.5156,38.1328,907.5156,43.1328,909.5156,48.1328,903.5156,43.1328" style="stroke:#181818;stroke-width:1;"/></g><g class="participant participant-tail" data-entity-uid="part5" data-qualified-name="CA" id="part5-tail"><text fill="#000000" font-family="sans-serif" font-size="14" lengthAdjust="spacing" textLength="76.2275" x="866.4019" y="698.0186">CourseApp</text><ellipse cx="907.5156" cy="717.3203" fill="#E2E2F0" rx="12" ry="12" style="stroke:#181818;stroke-width:0.5;"/><polygon fill="#181818" points="903.5156,705.3203,909.5156,700.3203,907.5156,705.3203,909.5156,710.3203,903.5156,705.3203" style="stroke:#181818;stroke-width:1;"/></g><g class="participant participant-head" data-entity-uid="part6" data-qualified-name="CDB" id="part6-head"><text fill="#000000" font-family="sans-serif" font-size="14" lengthAdjust="spacing" textLength="69.2617" x="1083.9834" y="84.1279">CourseDB</text><path d="M1103.6143,35.1328 C1103.6143,25.1328 1121.6143,25.1328 1121.6143,25.1328 C1121.6143,25.1328 1139.6143,25.1328 1139.6143,35.1328 L1139.6143,61.1328 C1139.6143,71.1328 1121.6143,71.1328 1121.6143,71.1328 C1121.6143,71.1328 1103.6143,71.1328 1103.6143,61.1328 L1103.6143,35.1328" fill="#E2E2F0" style="stroke:#181818;stroke-width:0.5;"/><path d="M1103.6143,35.1328 C1103.6143,45.1328 1121.6143,45.1328 1121.6143,45.1328 C1121.6143,45.1328 1139.6143,45.1328 1139.6143,35.1328" fill="none" style="stroke:#181818;stroke-width:0.5;"/></g><g class="participant participant-tail" data-entity-uid="part6" data-qualified-name="CDB" id="part6-tail"><text fill="#000000" font-family="sans-serif" font-size="14" lengthAdjust="spacing" textLength="69.2617" x="1083.9834" y="698.0186">CourseDB</text><path d="M1103.6143,711.3203 C1103.6143,701.3203 1121.6143,701.3203 1121.6143,701.3203 C1121.6143,701.3203 1139.6143,701.3203 1139.6143,711.3203 L1139.6143,737.3203 C1139.6143,747.3203 1121.6143,747.3203 1121.6143,747.3203 C1121.6143,747.3203 1103.6143,747.3203 1103.6143,737.3203 L1103.6143,711.3203" fill="#E2E2F0" style="stroke:#181818;stroke-width:0.5;"/><path d="M1103.6143,711.3203 C1103.6143,721.3203 1121.6143,721.3203 1121.6143,721.3203 C1121.6143,721.3203 1139.6143,721.3203 1139.6143,711.3203" fill="none" style="stroke:#181818;stroke-width:0.5;"/></g><g><title>Learner</title><rect fill="#FFFFFF" height="321.4609" style="stroke:#181818;stroke-width:1;" width="10" x="44.9951" y="118.5625"/></g><g><title>WebApp</title><rect fill="#FFFFFF" height="321.4609" style="stroke:#181818;stroke-width:1;" width="10" x="254.3223" y="118.5625"/></g><g><title>API Gateway</title><rect fill="#FFFFFF" height="263.1953" style="stroke:#181818;stroke-width:1;" width="10" x="502.0825" y="147.6953"/></g><g><title>CertificateController</title><rect fill="#FFFFFF" height="169.7969" style="stroke:#181818;stroke-width:1;" width="10" x="653.251" y="211.9609"/></g><g><title>CourseApp</title><rect fill="#FFFFFF" height="272" style="stroke:#181818;stroke-width:1;" width="10" x="902.5156" y="241.0938"/></g><g><title>CourseDB</title><rect fill="#FFFFFF" height="53.2656" style="stroke:#181818;stroke-width:1;" width="10" x="1116.6143" y="270.2266"/></g><g class="message" data-entity-1="part1" data-entity-2="part2" id="msg1"><polygon fill="#181818" points="242.3223,114.5625,252.3223,118.5625,242.3223,122.5625,246.3223,118.5625" style="stroke:#181818;stroke-width:1;"/><line style="stroke:#181818;stroke-width:1;" x1="54.9951" x2="248.3223" y1="118.5625" y2="118.5625"/><text fill="#000000" font-family="sans-serif" font-size="13" font-weight="bold" lengthAdjust="spacing" textLength="9.0454" x="61.9951" y="113.4966">1</text><text fill="#000000" font-family="sans-serif" font-size="13" lengthAdjust="spacing" textLength="172.2817" x="75.0405" y="113.4966">Click on certificate to view</text></g><g class="message" data-entity-1="part2" data-entity-2="part3" id="msg2"><polygon fill="#181818" points="490.0825,143.6953,500.0825,147.6953,490.0825,151.6953,494.0825,147.6953" style="stroke:#181818;stroke-width:1;"/><line style="stroke:#181818;stroke-width:1;" x1="264.3223" x2="496.0825" y1="147.6953" y2="147.6953"/><text fill="#000000" font-family="sans-serif" font-size="13" font-weight="bold" lengthAdjust="spacing" textLength="9.0454" x="271.3223" y="142.6294">2</text><text fill="#000000" font-family="sans-serif" font-size="13" lengthAdjust="spacing" textLength="205.7148" x="284.3677" y="142.6294">GET /certificates/{certificateId}</text></g><path d="M396,160.6953 L396,185.6953 L616,185.6953 L616,170.6953 L606,160.6953 L396,160.6953" fill="#FEFFDD" style="stroke:#181818;stroke-width:0.5;"/><path d="M606,160.6953 L606,170.6953 L616,170.6953 L606,160.6953" fill="#FEFFDD" style="stroke:#181818;stroke-width:0.5;"/><text fill="#000000" font-family="sans-serif" font-size="13" lengthAdjust="spacing" textLength="199.4688" x="402" y="177.7622">Public endpoint for verification</text><g class="message" data-entity-1="part3" data-entity-2="part4" id="msg3"><polygon fill="#181818" points="641.251,207.9609,651.251,211.9609,641.251,215.9609,645.251,211.9609" style="stroke:#181818;stroke-width:1;"/><line style="stroke:#181818;stroke-width:1;" x1="512.0825" x2="647.251" y1="211.9609" y2="211.9609"/><text fill="#000000" font-family="sans-serif" font-size="13" font-weight="bold" lengthAdjust="spacing" textLength="9.0454" x="519.0825" y="206.895">3</text><text fill="#000000" font-family="sans-serif" font-size="13" lengthAdjust="spacing" textLength="106.8057" x="532.1279" y="206.895">Forward request</text></g><g class="message" data-entity-1="part4" data-entity-2="part5" id="msg4"><polygon fill="#181818" points="890.5156,237.0938,900.5156,241.0938,890.5156,245.0938,894.5156,241.0938" style="stroke:#181818;stroke-width:1;"/><line style="stroke:#181818;stroke-width:1;" x1="663.251" x2="896.5156" y1="241.0938" y2="241.0938"/><text fill="#000000" font-family="sans-serif" font-size="13" font-weight="bold" lengthAdjust="spacing" textLength="9.0454" x="670.251" y="236.0278">4</text><text fill="#000000" font-family="sans-serif" font-size="13" lengthAdjust="spacing" textLength="207.2192" x="683.2964" y="236.0278">GetCertificateById(certificateId)</text></g><g class="message" data-entity-1="part5" data-entity-2="part6" id="msg5"><polygon fill="#181818" points="1104.6143,266.2266,1114.6143,270.2266,1104.6143,274.2266,1108.6143,270.2266" style="stroke:#181818;stroke-width:1;"/><line style="stroke:#181818;stroke-width:1;" x1="912.5156" x2="1110.6143" y1="270.2266" y2="270.2266"/><text fill="#000000" font-family="sans-serif" font-size="13" font-weight="bold" lengthAdjust="spacing" textLength="9.0454" x="919.5156" y="265.1606">5</text><text fill="#000000" font-family="sans-serif" font-size="13" lengthAdjust="spacing" textLength="172.0532" x="932.561" y="265.1606">Get certificate with details</text></g><path d="M10,285.2266 L74.4429,285.2266 L74.4429,292.3594 L64.4429,302.3594 L10,302.3594 L10,285.2266" fill="#EEEEEE" style="stroke:#000000;stroke-width:1.5;"/><rect fill="none" height="383.7969" style="stroke:#000000;stroke-width:1.5;" width="1159.2451" x="10" y="285.2266"/><text fill="#000000" font-family="sans-serif" font-size="13" font-weight="bold" lengthAdjust="spacing" textLength="19.4429" x="25" y="298.2935">alt</text><text fill="#000000" font-family="sans-serif" font-size="11" font-weight="bold" lengthAdjust="spacing" textLength="139.4443" x="89.4429" y="297.437">[Certificate not found]</text><g class="message" data-entity-1="part6" data-entity-2="part5" id="msg6"><polygon fill="#181818" points="923.5156,319.4922,913.5156,323.4922,923.5156,327.4922,919.5156,323.4922" style="stroke:#181818;stroke-width:1;"/><line style="stroke:#181818;stroke-width:1;stroke-dasharray:2,2;" x1="917.5156" x2="1120.6143" y1="323.4922" y2="323.4922"/><text fill="#000000" font-family="sans-serif" font-size="13" font-weight="bold" lengthAdjust="spacing" textLength="9.0454" x="929.5156" y="318.4263">6</text><text fill="#000000" font-family="sans-serif" font-size="13" lengthAdjust="spacing" textLength="64.1685" x="942.561" y="318.4263">Not found</text></g><g class="message" data-entity-1="part5" data-entity-2="part4" id="msg7"><polygon fill="#181818" points="674.251,348.625,664.251,352.625,674.251,356.625,670.251,352.625" style="stroke:#181818;stroke-width:1;"/><line style="stroke:#181818;stroke-width:1;stroke-dasharray:2,2;" x1="668.251" x2="901.5156" y1="352.625" y2="352.625"/><text fill="#000000" font-family="sans-serif" font-size="13" font-weight="bold" lengthAdjust="spacing" textLength="9.0454" x="680.251" y="347.5591">7</text><text fill="#000000" font-family="sans-serif" font-size="13" lengthAdjust="spacing" textLength="96.0146" x="693.2964" y="347.5591">404 Not Found</text></g><g class="message" data-entity-1="part4" data-entity-2="part3" id="msg8"><polygon fill="#181818" points="523.0825,377.7578,513.0825,381.7578,523.0825,385.7578,519.0825,381.7578" style="stroke:#181818;stroke-width:1;"/><line style="stroke:#181818;stroke-width:1;stroke-dasharray:2,2;" x1="517.0825" x2="657.251" y1="381.7578" y2="381.7578"/><text fill="#000000" font-family="sans-serif" font-size="13" font-weight="bold" lengthAdjust="spacing" textLength="9.0454" x="529.0825" y="376.6919">8</text><text fill="#000000" font-family="sans-serif" font-size="13" lengthAdjust="spacing" textLength="32.2017" x="542.1279" y="376.6919">Error</text></g><g class="message" data-entity-1="part3" data-entity-2="part2" id="msg9"><polygon fill="#181818" points="275.3223,406.8906,265.3223,410.8906,275.3223,414.8906,271.3223,410.8906" style="stroke:#181818;stroke-width:1;"/><line style="stroke:#181818;stroke-width:1;stroke-dasharray:2,2;" x1="269.3223" x2="506.0825" y1="410.8906" y2="410.8906"/><text fill="#000000" font-family="sans-serif" font-size="13" font-weight="bold" lengthAdjust="spacing" textLength="9.0454" x="281.3223" y="405.8247">9</text><text fill="#000000" font-family="sans-serif" font-size="13" lengthAdjust="spacing" textLength="32.2017" x="294.3677" y="405.8247">Error</text></g><g class="message" data-entity-1="part2" data-entity-2="part1" id="msg10"><polygon fill="#181818" points="60.9951,436.0234,50.9951,440.0234,60.9951,444.0234,56.9951,440.0234" style="stroke:#181818;stroke-width:1;"/><line style="stroke:#181818;stroke-width:1;" x1="54.9951" x2="258.3223" y1="440.0234" y2="440.0234"/><text fill="#000000" font-family="sans-serif" font-size="13" font-weight="bold" lengthAdjust="spacing" textLength="18.0908" x="66.9951" y="434.9575">10</text><text fill="#000000" font-family="sans-serif" font-size="13" lengthAdjust="spacing" textLength="114.7339" x="89.0859" y="434.9575">Display not found</text></g><line style="stroke:#000000;stroke-width:1;stroke-dasharray:2,2;" x1="10" x2="1169.2451" y1="449.0234" y2="449.0234"/><text fill="#000000" font-family="sans-serif" font-size="11" font-weight="bold" lengthAdjust="spacing" textLength="114.9683" x="15" y="459.2339">[Certificate found]</text><g class="message" data-entity-1="part6" data-entity-2="part5" id="msg11"><polygon fill="#181818" points="923.5156,479.9609,913.5156,483.9609,923.5156,487.9609,919.5156,483.9609" style="stroke:#181818;stroke-width:1;"/><line style="stroke:#181818;stroke-width:1;stroke-dasharray:2,2;" x1="917.5156" x2="1120.6143" y1="483.9609" y2="483.9609"/><text fill="#000000" font-family="sans-serif" font-size="13" font-weight="bold" lengthAdjust="spacing" textLength="18.0908" x="929.5156" y="478.895">11</text><text fill="#000000" font-family="sans-serif" font-size="13" lengthAdjust="spacing" textLength="126.0835" x="951.6064" y="478.895">Full certificate data</text></g><g class="message" data-entity-1="part5" data-entity-2="part4" id="msg12"><polygon fill="#181818" points="669.251,509.0938,659.251,513.0938,669.251,517.0938,665.251,513.0938" style="stroke:#181818;stroke-width:1;"/><line style="stroke:#181818;stroke-width:1;stroke-dasharray:2,2;" x1="663.251" x2="906.5156" y1="513.0938" y2="513.0938"/><text fill="#000000" font-family="sans-serif" font-size="13" font-weight="bold" lengthAdjust="spacing" textLength="18.0908" x="675.251" y="508.0278">12</text><text fill="#000000" font-family="sans-serif" font-size="13" lengthAdjust="spacing" textLength="134.0054" x="697.3418" y="508.0278">CertificateDetailDTO</text></g><g class="message" data-entity-1="part4" data-entity-2="part3" id="msg13"><polygon fill="#181818" points="518.0825,538.2266,508.0825,542.2266,518.0825,546.2266,514.0825,542.2266" style="stroke:#181818;stroke-width:1;"/><line style="stroke:#181818;stroke-width:1;stroke-dasharray:2,2;" x1="512.0825" x2="657.251" y1="542.2266" y2="542.2266"/><text fill="#000000" font-family="sans-serif" font-size="13" font-weight="bold" lengthAdjust="spacing" textLength="18.0908" x="524.0825" y="537.1606">13</text><text fill="#000000" font-family="sans-serif" font-size="13" lengthAdjust="spacing" textLength="47.7026" x="546.1733" y="537.1606">200 OK</text></g><g class="message" data-entity-1="part3" data-entity-2="part2" id="msg14"><polygon fill="#181818" points="270.3223,567.3594,260.3223,571.3594,270.3223,575.3594,266.3223,571.3594" style="stroke:#181818;stroke-width:1;"/><line style="stroke:#181818;stroke-width:1;stroke-dasharray:2,2;" x1="264.3223" x2="506.0825" y1="571.3594" y2="571.3594"/><text fill="#000000" font-family="sans-serif" font-size="13" font-weight="bold" lengthAdjust="spacing" textLength="18.0908" x="276.3223" y="566.2935">14</text><text fill="#000000" font-family="sans-serif" font-size="13" lengthAdjust="spacing" textLength="114.9688" x="298.4131" y="566.2935">Certificate details</text></g><g class="message" data-entity-1="part2" data-entity-2="part1" id="msg15"><polygon fill="#181818" points="60.9951,657.0234,50.9951,661.0234,60.9951,665.0234,56.9951,661.0234" style="stroke:#181818;stroke-width:1;"/><line style="stroke:#181818;stroke-width:1;" x1="54.9951" x2="258.3223" y1="661.0234" y2="661.0234"/><text fill="#000000" font-family="sans-serif" font-size="13" font-weight="bold" lengthAdjust="spacing" textLength="18.0908" x="66.9951" y="625.6919">15</text><text fill="#000000" font-family="sans-serif" font-size="13" lengthAdjust="spacing" textLength="122.0273" x="89.0859" y="595.4263">Display certificate:</text><text fill="#000000" font-family="sans-serif" font-size="13" lengthAdjust="spacing" textLength="95.2085" x="89.0859" y="610.5591">- Course name</text><text fill="#000000" font-family="sans-serif" font-size="13" lengthAdjust="spacing" textLength="99.9565" x="89.0859" y="625.6919">- Learner name</text><text fill="#000000" font-family="sans-serif" font-size="13" lengthAdjust="spacing" textLength="75.8862" x="89.0859" y="640.8247">- Issue date</text><text fill="#000000" font-family="sans-serif" font-size="13" lengthAdjust="spacing" textLength="141.7559" x="89.0859" y="655.9575">- Verification QR code</text></g><?plantuml-src XLHTQzim57tNhxXqBzj3Q3Rw5CR0SHeJPjPiApM3lSZMRIkgI9uinmrZ_trNieFb9D0d-twSS-yvairRPtIxAz4orhn8NNFBTx0qhrikXDHFy77E6A-SiP0Zjnejy0PoLffM2suFK62PrBLF5WcZz2jS9TiDPDnXnmzNy2wNJyzkgLfa09NHpXfrqaBOh62e1H1yu4XDQnk4dsZtii8ZpIzKodGHKOhMoKTP4LNQfrI_eI-aSMFW6pPD4we8xdZ9QKPVMYr3PRKS5ybXzeLKBI1Lide1ew4Qnu4pi9VOUNFatYVoyTLRKIGUdXKBo6xluJg2DjT_esWZ_er0ye5fGozcJpeyUDkMD1regTf8xU2HJe9gFLWQpLXM-451y0BMndRS2h3ufyN6ZSoz8ImyGZ_foj151YuF6_5-ijY724wAqg28B0h8YHcTTCyWq76fcWX4RZAkN7nCGF981DqUEWDY_3oRzPJVehp02GVqs_UzjFVD_2QqhuTsSY2KUWjkhJNsX6Iu3KK_p_jweOlC3oqaCb_0IZQrueV9lb5paKpZdA5gSABqaifrgzJ4ENyDpnMVIOvuLy7crVtT2ImvS-BJV0vtNz-q8jxvU8Qdnbno9fAn-ArdmuS4ck_GXyV_nJ7UD4qRz8Re8Rh3yFq7VQW2ttIOxFmF?></g></svg>