<?plantuml 1.2026.1?><svg xmlns="http://www.w3.org/2000/svg" xmlns:xlink="http://www.w3.org/1999/xlink" contentStyleType="text/css" data-diagram-type="SEQUENCE" height="843px" preserveAspectRatio="none" style="width:1443px;height:843px;background:#FFFFFF;" version="1.1" viewBox="0 0 1443 843" width="1443px" zoomAndPan="magnify"><defs/><g><rect fill="#FFB6C1" height="824.5859" style="stroke:#181818;stroke-width:0.5;" width="110.8633" x="11" y="6"/><text fill="#000000" font-family="sans-serif" font-size="13" font-weight="bold" lengthAdjust="spacing" textLength="104.8633" x="14" y="18.0669">Billing Service</text><rect fill="#ADD8E6" height="824.5859" style="stroke:#181818;stroke-width:0.5;" width="102.4434" x="285.4014" y="6"/><text fill="#000000" font-family="sans-serif" font-size="13" font-weight="bold" lengthAdjust="spacing" textLength="92.6821" x="290.282" y="18.0669">API Gateway</text><rect fill="#FFFFE0" height="824.5859" style="stroke:#181818;stroke-width:0.5;" width="985.4683" x="445.4097" y="6"/><text fill="#000000" font-family="sans-serif" font-size="13" font-weight="bold" lengthAdjust="spacing" textLength="109.2622" x="883.5127" y="18.0669">Course Service</text><g><title>BillingApp</title><rect fill="#FFFFFF" height="286.3281" style="stroke:#181818;stroke-width:1;" width="10" x="61.4316" y="133.6953"/></g><g><title>API Gateway</title><rect fill="#FFFFFF" height="286.3281" style="stroke:#181818;stroke-width:1;" width="10" x="331.623" y="133.6953"/></g><g><title>CourseGRPCHandler</title><rect fill="#FFFFFF" height="228.0625" style="stroke:#181818;stroke-width:1;" width="10" x="518.8076" y="162.8281"/></g><g><title>CourseApp</title><rect fill="#FFFFFF" height="490.0625" style="stroke:#181818;stroke-width:1;" width="10" x="919.1465" y="191.9609"/></g><g><title>Enrollment</title><rect fill="#FFFFFF" height="101.5313" style="stroke:#181818;stroke-width:1;" width="10" x="1160.083" y="493.0938"/></g><g><title>CourseDB</title><rect fill="#FFFFFF" height="29.1328" style="stroke:#181818;stroke-width:1;" width="10" x="1384.2471" y="221.0938"/></g><g><title>CourseDB</title><rect fill="#FFFFFF" height="53.2656" style="stroke:#181818;stroke-width:1;" width="10" x="1384.2471" y="279.3594"/></g><g><title>CourseDB</title><rect fill="#FFFFFF" height="29.1328" style="stroke:#181818;stroke-width:1;" width="10" x="1384.2471" y="623.7578"/></g><rect fill="none" height="453.9297" style="stroke:#000000;stroke-width:1.5;" width="1418.583" x="18.2949" y="294.3594"/><g class="participant-lifeline" data-entity-uid="part1" data-qualified-name="BA" id="part1-lifeline"><g><title>BillingApp</title><rect fill="#000000" fill-opacity="0.00000" height="677.8594" width="8" x="62.4316" y="87.4297"/><line style="stroke:#181818;stroke-width:0.5;stroke-dasharray:5,5;" x1="66.2949" x2="66.2949" y1="87.4297" y2="765.2891"/></g></g><g class="participant-lifeline" data-entity-uid="part2" data-qualified-name="GW" id="part2-lifeline"><g><title>API Gateway</title><rect fill="#000000" fill-opacity="0.00000" height="677.8594" width="8" x="332.623" y="87.4297"/><line style="stroke:#181818;stroke-width:0.5;stroke-dasharray:5,5;" x1="336.4014" x2="336.4014" y1="87.4297" y2="765.2891"/></g></g><g class="participant-lifeline" data-entity-uid="part3" data-qualified-name="CGH" id="part3-lifeline"><g><title>CourseGRPCHandler</title><rect fill="#000000" fill-opacity="0.00000" height="677.8594" width="8" x="519.8076" y="87.4297"/><line style="stroke:#181818;stroke-width:0.5;stroke-dasharray:5,5;" x1="523.4097" x2="523.4097" y1="87.4297" y2="765.2891"/></g></g><g class="participant-lifeline" data-entity-uid="part4" data-qualified-name="CA" id="part4-lifeline"><g><title>CourseApp</title><rect fill="#000000" fill-opacity="0.00000" height="677.8594" width="8" x="920.1465" y="87.4297"/><line style="stroke:#181818;stroke-width:0.5;stroke-dasharray:5,5;" x1="924.0327" x2="924.0327" y1="87.4297" y2="765.2891"/></g></g><g class="participant-lifeline" data-entity-uid="part5" data-qualified-name="E" id="part5-lifeline"><g><title>Enrollment</title><rect fill="#000000" fill-opacity="0.00000" height="677.8594" width="8" x="1161.083" y="87.4297"/><line style="stroke:#181818;stroke-width:0.5;stroke-dasharray:5,5;" x1="1164.8667" x2="1164.8667" y1="87.4297" y2="765.2891"/></g></g><g class="participant-lifeline" data-entity-uid="part6" data-qualified-name="CDB" id="part6-lifeline"><g><title>CourseDB</title><rect fill="#000000" fill-opacity="0.00000" height="677.8594" width="8" x="1385.2471" y="87.4297"/><line style="stroke:#181818;stroke-width:0.5;stroke-dasharray:5,5;" x1="1388.6162" x2="1388.6162" y1="87.4297" y2="765.2891"/></g></g><g class="participant participant-head" data-entity-uid="part1" data-qualified-name="BA" id="part1-head"><text fill="#000000" font-family="sans-serif" font-size="14" lengthAdjust="spacing" textLength="70.2734" x="28.2949" y="84.1279">BillingApp</text><ellipse cx="66.4316" cy="55.1328" fill="#E2E2F0" rx="12" ry="12" style="stroke:#181818;stroke-width:0.5;"/><polygon fill="#181818" points="62.4316,43.1328,68.4316,38.1328,66.4316,43.1328,68.4316,48.1328,62.4316,43.1328" style="stroke:#181818;stroke-width:1;"/></g><g class="participant participant-tail" data-entity-uid="part1" data-qualified-name="BA" id="part1-tail"><text fill="#000000" font-family="sans-serif" font-size="14" lengthAdjust="spacing" textLength="70.2734" x="28.2949" y="777.2842">BillingApp</text><ellipse cx="66.4316" cy="796.5859" fill="#E2E2F0" rx="12" ry="12" style="stroke:#181818;stroke-width:0.5;"/><polygon fill="#181818" points="62.4316,784.5859,68.4316,779.5859,66.4316,784.5859,68.4316,789.5859,62.4316,784.5859" style="stroke:#181818;stroke-width:1;"/></g><g class="participant participant-head" data-entity-uid="part2" data-qualified-name="GW" id="part2-head"><text fill="#000000" font-family="sans-serif" font-size="14" lengthAdjust="spacing" textLength="88.4434" x="289.4014" y="84.1279">API Gateway</text><ellipse cx="336.623" cy="55.1328" fill="#E2E2F0" rx="12" ry="12" style="stroke:#181818;stroke-width:0.5;"/><polygon fill="#181818" points="332.623,43.1328,338.623,38.1328,336.623,43.1328,338.623,48.1328,332.623,43.1328" style="stroke:#181818;stroke-width:1;"/></g><g class="participant participant-tail" data-entity-uid="part2" data-qualified-name="GW" id="part2-tail"><text fill="#000000" font-family="sans-serif" font-size="14" lengthAdjust="spacing" textLength="88.4434" x="289.4014" y="777.2842">API Gateway</text><ellipse cx="336.623" cy="796.5859" fill="#E2E2F0" rx="12" ry="12" style="stroke:#181818;stroke-width:0.5;"/><polygon fill="#181818" points="332.623,784.5859,338.623,779.5859,336.623,784.5859,338.623,789.5859,332.623,784.5859" style="stroke:#181818;stroke-width:1;"/></g><g class="participant participant-head" data-entity-uid="part3" data-qualified-name="CGH" id="part3-head"><text fill="#000000" font-family="sans-serif" font-size="14" lengthAdjust="spacing" textLength="142.7959" x="449.4097" y="84.1279">CourseGRPCHandler</text><ellipse cx="523.8076" cy="55.1328" fill="#E2E2F0" rx="12" ry="12" style="stroke:#181818;stroke-width:0.5;"/><polygon fill="#181818" points="519.8076,43.1328,525.8076,38.1328,523.8076,43.1328,525.8076,48.1328,519.8076,43.1328" style="stroke:#181818;stroke-width:1;"/></g><g class="participant participant-tail" data-entity-uid="part3" data-qualified-name="CGH" id="part3-tail"><text fill="#000000" font-family="sans-serif" font-size="14" lengthAdjust="spacing" textLength="142.7959" x="449.4097" y="777.2842">CourseGRPCHandler</text><ellipse cx="523.8076" cy="796.5859" fill="#E2E2F0" rx="12" ry="12" style="stroke:#181818;stroke-width:0.5;"/><polygon fill="#181818" points="519.8076,784.5859,525.8076,779.5859,523.8076,784.5859,525.8076,789.5859,519.8076,784.5859" style="stroke:#181818;stroke-width:1;"/></g><g class="participant participant-head" data-entity-uid="part4" data-qualified-name="CA" id="part4-head"><text fill="#000000" font-family="sans-serif" font-size="14" lengthAdjust="spacing" textLength="76.2275" x="883.0327" y="84.1279">CourseApp</text><ellipse cx="924.1465" cy="55.1328" fill="#E2E2F0" rx="12" ry="12" style="stroke:#181818;stroke-width:0.5;"/><polygon fill="#181818" points="920.1465,43.1328,926.1465,38.1328,924.1465,43.1328,926.1465,48.1328,920.1465,43.1328" style="stroke:#181818;stroke-width:1;"/></g><g class="participant participant-tail" data-entity-uid="part4" data-qualified-name="CA" id="part4-tail"><text fill="#000000" font-family="sans-serif" font-size="14" lengthAdjust="spacing" textLength="76.2275" x="883.0327" y="777.2842">CourseApp</text><ellipse cx="924.1465" cy="796.5859" fill="#E2E2F0" rx="12" ry="12" style="stroke:#181818;stroke-width:0.5;"/><polygon fill="#181818" points="920.1465,784.5859,926.1465,779.5859,924.1465,784.5859,926.1465,789.5859,920.1465,784.5859" style="stroke:#181818;stroke-width:1;"/></g><g class="participant participant-head" data-entity-uid="part5" data-qualified-name="E" id="part5-head"><text fill="#000000" font-family="sans-serif" font-size="14" lengthAdjust="spacing" textLength="76.4326" x="1123.8667" y="84.1279">Enrollment</text><ellipse cx="1165.083" cy="55.1328" fill="#E2E2F0" rx="12" ry="12" style="stroke:#181818;stroke-width:0.5;"/><line style="stroke:#181818;stroke-width:0.5;" x1="1153.083" x2="1177.083" y1="69.1328" y2="69.1328"/></g><g class="participant participant-tail" data-entity-uid="part5" data-qualified-name="E" id="part5-tail"><text fill="#000000" font-family="sans-serif" font-size="14" lengthAdjust="spacing" textLength="76.4326" x="1123.8667" y="777.2842">Enrollment</text><ellipse cx="1165.083" cy="796.5859" fill="#E2E2F0" rx="12" ry="12" style="stroke:#181818;stroke-width:0.5;"/><line style="stroke:#181818;stroke-width:0.5;" x1="1153.083" x2="1177.083" y1="810.5859" y2="810.5859"/></g><g class="participant participant-head" data-entity-uid="part6" data-qualified-name="CDB" id="part6-head"><text fill="#000000" font-family="sans-serif" font-size="14" lengthAdjust="spacing" textLength="69.2617" x="1351.6162" y="84.1279">CourseDB</text><path d="M1371.2471,35.1328 C1371.2471,25.1328 1389.2471,25.1328 1389.2471,25.1328 C1389.2471,25.1328 1407.2471,25.1328 1407.2471,35.1328 L1407.2471,61.1328 C1407.2471,71.1328 1389.2471,71.1328 1389.2471,71.1328 C1389.2471,71.1328 1371.2471,71.1328 1371.2471,61.1328 L1371.2471,35.1328" fill="#E2E2F0" style="stroke:#181818;stroke-width:0.5;"/><path d="M1371.2471,35.1328 C1371.2471,45.1328 1389.2471,45.1328 1389.2471,45.1328 C1389.2471,45.1328 1407.2471,45.1328 1407.2471,35.1328" fill="none" style="stroke:#181818;stroke-width:0.5;"/></g><g class="participant participant-tail" data-entity-uid="part6" data-qualified-name="CDB" id="part6-tail"><text fill="#000000" font-family="sans-serif" font-size="14" lengthAdjust="spacing" textLength="69.2617" x="1351.6162" y="777.2842">CourseDB</text><path d="M1371.2471,790.5859 C1371.2471,780.5859 1389.2471,780.5859 1389.2471,780.5859 C1389.2471,780.5859 1407.2471,780.5859 1407.2471,790.5859 L1407.2471,816.5859 C1407.2471,826.5859 1389.2471,826.5859 1389.2471,826.5859 C1389.2471,826.5859 1371.2471,826.5859 1371.2471,816.5859 L1371.2471,790.5859" fill="#E2E2F0" style="stroke:#181818;stroke-width:0.5;"/><path d="M1371.2471,790.5859 C1371.2471,800.5859 1389.2471,800.5859 1389.2471,800.5859 C1389.2471,800.5859 1407.2471,800.5859 1407.2471,790.5859" fill="none" style="stroke:#181818;stroke-width:0.5;"/></g><g><title>BillingApp</title><rect fill="#FFFFFF" height="286.3281" style="stroke:#181818;stroke-width:1;" width="10" x="61.4316" y="133.6953"/></g><g><title>API Gateway</title><rect fill="#FFFFFF" height="286.3281" style="stroke:#181818;stroke-width:1;" width="10" x="331.623" y="133.6953"/></g><g><title>CourseGRPCHandler</title><rect fill="#FFFFFF" height="228.0625" style="stroke:#181818;stroke-width:1;" width="10" x="518.8076" y="162.8281"/></g><g><title>CourseApp</title><rect fill="#FFFFFF" height="490.0625" style="stroke:#181818;stroke-width:1;" width="10" x="919.1465" y="191.9609"/></g><g><title>Enrollment</title><rect fill="#FFFFFF" height="101.5313" style="stroke:#181818;stroke-width:1;" width="10" x="1160.083" y="493.0938"/></g><g><title>CourseDB</title><rect fill="#FFFFFF" height="29.1328" style="stroke:#181818;stroke-width:1;" width="10" x="1384.2471" y="221.0938"/></g><g><title>CourseDB</title><rect fill="#FFFFFF" height="53.2656" style="stroke:#181818;stroke-width:1;" width="10" x="1384.2471" y="279.3594"/></g><g><title>CourseDB</title><rect fill="#FFFFFF" height="29.1328" style="stroke:#181818;stroke-width:1;" width="10" x="1384.2471" y="623.7578"/></g><g class="message" data-entity-1="part1" data-entity-2="part2" id="msg1"><polygon fill="#181818" points="319.623,129.6953,329.623,133.6953,319.623,137.6953,323.623,133.6953" style="stroke:#181818;stroke-width:1;"/><line style="stroke:#181818;stroke-width:1;" x1="71.4316" x2="325.623" y1="133.6953" y2="133.6953"/><text fill="#000000" font-family="sans-serif" font-size="13" font-weight="bold" lengthAdjust="spacing" textLength="9.0454" x="78.4316" y="121.063">1</text><text fill="#000000" font-family="sans-serif" font-size="13" lengthAdjust="spacing" textLength="187.5542" x="91.4771" y="113.4966">gRPC: EnrollInCourseForUser</text><text fill="#000000" font-family="sans-serif" font-size="13" lengthAdjust="spacing" textLength="219.8511" x="91.4771" y="128.6294">{userID, courseID, transactionID}</text></g><g class="message" data-entity-1="part2" data-entity-2="part3" id="msg2"><polygon fill="#181818" points="506.8076,158.8281,516.8076,162.8281,506.8076,166.8281,510.8076,162.8281" style="stroke:#181818;stroke-width:1;"/><line style="stroke:#181818;stroke-width:1;" x1="341.623" x2="512.8076" y1="162.8281" y2="162.8281"/><text fill="#000000" font-family="sans-serif" font-size="13" font-weight="bold" lengthAdjust="spacing" textLength="9.0454" x="348.623" y="157.7622">2</text><text fill="#000000" font-family="sans-serif" font-size="13" lengthAdjust="spacing" textLength="145.1392" x="361.6685" y="157.7622">Forward gRPC request</text></g><g class="message" data-entity-1="part3" data-entity-2="part4" id="msg3"><polygon fill="#181818" points="907.1465,187.9609,917.1465,191.9609,907.1465,195.9609,911.1465,191.9609" style="stroke:#181818;stroke-width:1;"/><line style="stroke:#181818;stroke-width:1;" x1="528.8076" x2="913.1465" y1="191.9609" y2="191.9609"/><text fill="#000000" font-family="sans-serif" font-size="13" font-weight="bold" lengthAdjust="spacing" textLength="9.0454" x="535.8076" y="186.895">3</text><text fill="#000000" font-family="sans-serif" font-size="13" lengthAdjust="spacing" textLength="358.2935" x="548.853" y="186.895">EnrollInCourseForUser(userID, courseID, transactionID)</text></g><g class="message" data-entity-1="part4" data-entity-2="part6" id="msg4"><polygon fill="#181818" points="1372.2471,217.0938,1382.2471,221.0938,1372.2471,225.0938,1376.2471,221.0938" style="stroke:#181818;stroke-width:1;"/><line style="stroke:#181818;stroke-width:1;" x1="929.1465" x2="1378.2471" y1="221.0938" y2="221.0938"/><text fill="#000000" font-family="sans-serif" font-size="13" font-weight="bold" lengthAdjust="spacing" textLength="9.0454" x="936.1465" y="216.0278">4</text><text fill="#000000" font-family="sans-serif" font-size="13" lengthAdjust="spacing" textLength="127.7847" x="949.1919" y="216.0278">Verify course exists</text></g><g class="message" data-entity-1="part6" data-entity-2="part4" id="msg5"><polygon fill="#181818" points="940.1465,246.2266,930.1465,250.2266,940.1465,254.2266,936.1465,250.2266" style="stroke:#181818;stroke-width:1;"/><line style="stroke:#181818;stroke-width:1;stroke-dasharray:2,2;" x1="934.1465" x2="1388.2471" y1="250.2266" y2="250.2266"/><text fill="#000000" font-family="sans-serif" font-size="13" font-weight="bold" lengthAdjust="spacing" textLength="9.0454" x="946.1465" y="245.1606">5</text><text fill="#000000" font-family="sans-serif" font-size="13" lengthAdjust="spacing" textLength="78.7998" x="959.1919" y="245.1606">Course data</text></g><g class="message" data-entity-1="part4" data-entity-2="part6" id="msg6"><polygon fill="#181818" points="1372.2471,275.3594,1382.2471,279.3594,1372.2471,283.3594,1376.2471,279.3594" style="stroke:#181818;stroke-width:1;"/><line style="stroke:#181818;stroke-width:1;" x1="929.1465" x2="1378.2471" y1="279.3594" y2="279.3594"/><text fill="#000000" font-family="sans-serif" font-size="13" font-weight="bold" lengthAdjust="spacing" textLength="9.0454" x="936.1465" y="274.2935">6</text><text fill="#000000" font-family="sans-serif" font-size="13" lengthAdjust="spacing" textLength="170.2886" x="949.1919" y="274.2935">Check existing enrollment</text></g><path d="M18.2949,294.3594 L82.7378,294.3594 L82.7378,301.4922 L72.7378,311.4922 L18.2949,311.4922 L18.2949,294.3594" fill="#EEEEEE" style="stroke:#000000;stroke-width:1.5;"/><rect fill="none" height="453.9297" style="stroke:#000000;stroke-width:1.5;" width="1418.583" x="18.2949" y="294.3594"/><text fill="#000000" font-family="sans-serif" font-size="13" font-weight="bold" lengthAdjust="spacing" textLength="19.4429" x="33.2949" y="307.4263">alt</text><text fill="#000000" font-family="sans-serif" font-size="11" font-weight="bold" lengthAdjust="spacing" textLength="112.6694" x="97.7378" y="306.5698">[Already enrolled]</text><g class="message" data-entity-1="part6" data-entity-2="part4" id="msg7"><polygon fill="#181818" points="940.1465,328.625,930.1465,332.625,940.1465,336.625,936.1465,332.625" style="stroke:#181818;stroke-width:1;"/><line style="stroke:#181818;stroke-width:1;stroke-dasharray:2,2;" x1="934.1465" x2="1388.2471" y1="332.625" y2="332.625"/><text fill="#000000" font-family="sans-serif" font-size="13" font-weight="bold" lengthAdjust="spacing" textLength="9.0454" x="946.1465" y="327.5591">7</text><text fill="#000000" font-family="sans-serif" font-size="13" lengthAdjust="spacing" textLength="113.0518" x="959.1919" y="327.5591">Enrollment exists</text></g><g class="message" data-entity-1="part4" data-entity-2="part3" id="msg8"><polygon fill="#181818" points="539.8076,357.7578,529.8076,361.7578,539.8076,365.7578,535.8076,361.7578" style="stroke:#181818;stroke-width:1;"/><line style="stroke:#181818;stroke-width:1;stroke-dasharray:2,2;" x1="533.8076" x2="918.1465" y1="361.7578" y2="361.7578"/><text fill="#000000" font-family="sans-serif" font-size="13" font-weight="bold" lengthAdjust="spacing" textLength="9.0454" x="545.8076" y="356.6919">8</text><text fill="#000000" font-family="sans-serif" font-size="13" lengthAdjust="spacing" textLength="251.3228" x="558.853" y="356.6919">Already enrolled (idempotent success)</text></g><g class="message" data-entity-1="part3" data-entity-2="part2" id="msg9"><polygon fill="#181818" points="352.623,386.8906,342.623,390.8906,352.623,394.8906,348.623,390.8906" style="stroke:#181818;stroke-width:1;"/><line style="stroke:#181818;stroke-width:1;stroke-dasharray:2,2;" x1="346.623" x2="522.8076" y1="390.8906" y2="390.8906"/><text fill="#000000" font-family="sans-serif" font-size="13" font-weight="bold" lengthAdjust="spacing" textLength="9.0454" x="358.623" y="385.8247">9</text><text fill="#000000" font-family="sans-serif" font-size="13" lengthAdjust="spacing" textLength="52.3301" x="371.6685" y="385.8247">Success</text></g><g class="message" data-entity-1="part2" data-entity-2="part1" id="msg10"><polygon fill="#181818" points="77.4316,416.0234,67.4316,420.0234,77.4316,424.0234,73.4316,420.0234" style="stroke:#181818;stroke-width:1;"/><line style="stroke:#181818;stroke-width:1;stroke-dasharray:2,2;" x1="71.4316" x2="335.623" y1="420.0234" y2="420.0234"/><text fill="#000000" font-family="sans-serif" font-size="13" font-weight="bold" lengthAdjust="spacing" textLength="18.0908" x="83.4316" y="414.9575">10</text><text fill="#000000" font-family="sans-serif" font-size="13" lengthAdjust="spacing" textLength="140.8926" x="105.5225" y="414.9575">Enrollment confirmed</text></g><line style="stroke:#000000;stroke-width:1;stroke-dasharray:2,2;" x1="18.2949" x2="1436.8779" y1="429.0234" y2="429.0234"/><text fill="#000000" font-family="sans-serif" font-size="11" font-weight="bold" lengthAdjust="spacing" textLength="87.0547" x="23.2949" y="439.2339">[Not enrolled]</text><g class="message" data-entity-1="part6" data-entity-2="part4" id="msg11"><polygon fill="#181818" points="940.1465,459.9609,930.1465,463.9609,940.1465,467.9609,936.1465,463.9609" style="stroke:#181818;stroke-width:1;"/><line style="stroke:#181818;stroke-width:1;stroke-dasharray:2,2;" x1="934.1465" x2="1388.2471" y1="463.9609" y2="463.9609"/><text fill="#000000" font-family="sans-serif" font-size="13" font-weight="bold" lengthAdjust="spacing" textLength="18.0908" x="946.1465" y="458.895">11</text><text fill="#000000" font-family="sans-serif" font-size="13" lengthAdjust="spacing" textLength="92.5679" x="968.2373" y="458.895">No enrollment</text></g><g class="message" data-entity-1="part4" data-entity-2="part5" id="msg12"><polygon fill="#181818" points="1148.083,489.0938,1158.083,493.0938,1148.083,497.0938,1152.083,493.0938" style="stroke:#181818;stroke-width:1;"/><line style="stroke:#181818;stroke-width:1;" x1="929.1465" x2="1154.083" y1="493.0938" y2="493.0938"/><text fill="#000000" font-family="sans-serif" font-size="13" font-weight="bold" lengthAdjust="spacing" textLength="18.0908" x="936.1465" y="488.0278">12</text><text fill="#000000" font-family="sans-serif" font-size="13" lengthAdjust="spacing" textLength="189.8457" x="958.2373" y="488.0278">Create Enrollment aggregate</text></g><g class="message" data-entity-1="part5" data-entity-2="part5" id="msg13"><line style="stroke:#181818;stroke-width:1;" x1="1170.083" x2="1212.083" y1="552.4922" y2="552.4922"/><line style="stroke:#181818;stroke-width:1;" x1="1212.083" x2="1212.083" y1="552.4922" y2="565.4922"/><line style="stroke:#181818;stroke-width:1;" x1="1171.083" x2="1212.083" y1="565.4922" y2="565.4922"/><polygon fill="#181818" points="1181.083,561.4922,1171.083,565.4922,1181.083,569.4922,1177.083,565.4922" style="stroke:#181818;stroke-width:1;"/><text fill="#000000" font-family="sans-serif" font-size="13" font-weight="bold" lengthAdjust="spacing" textLength="18.0908" x="1177.083" y="532.2935">13</text><text fill="#000000" font-family="sans-serif" font-size="13" lengthAdjust="spacing" textLength="137.376" x="1199.1738" y="517.1606">Set userID, courseID,</text><text fill="#000000" font-family="sans-serif" font-size="13" lengthAdjust="spacing" textLength="168.0732" x="1199.1738" y="532.2935">enrollmentDate = NOW(),</text><text fill="#000000" font-family="sans-serif" font-size="13" lengthAdjust="spacing" textLength="146.5864" x="1199.1738" y="547.4263">transactionID for audit</text></g><g class="message" data-entity-1="part5" data-entity-2="part4" id="msg14"><polygon fill="#181818" points="940.1465,590.625,930.1465,594.625,940.1465,598.625,936.1465,594.625" style="stroke:#181818;stroke-width:1;"/><line style="stroke:#181818;stroke-width:1;stroke-dasharray:2,2;" x1="934.1465" x2="1164.083" y1="594.625" y2="594.625"/><text fill="#000000" font-family="sans-serif" font-size="13" font-weight="bold" lengthAdjust="spacing" textLength="18.0908" x="946.1465" y="589.5591">14</text><text fill="#000000" font-family="sans-serif" font-size="13" lengthAdjust="spacing" textLength="112.8423" x="968.2373" y="589.5591">Enrollment entity</text></g><g class="message" data-entity-1="part4" data-entity-2="part6" id="msg15"><polygon fill="#181818" points="1372.2471,619.7578,1382.2471,623.7578,1372.2471,627.7578,1376.2471,623.7578" style="stroke:#181818;stroke-width:1;"/><line style="stroke:#181818;stroke-width:1;" x1="929.1465" x2="1378.2471" y1="623.7578" y2="623.7578"/><text fill="#000000" font-family="sans-serif" font-size="13" font-weight="bold" lengthAdjust="spacing" textLength="18.0908" x="936.1465" y="618.6919">15</text><text fill="#000000" font-family="sans-serif" font-size="13" lengthAdjust="spacing" textLength="106.7993" x="958.2373" y="618.6919">Save enrollment</text></g><g class="message" data-entity-1="part6" data-entity-2="part4" id="msg16"><polygon fill="#181818" points="940.1465,648.8906,930.1465,652.8906,940.1465,656.8906,936.1465,652.8906" style="stroke:#181818;stroke-width:1;"/><line style="stroke:#181818;stroke-width:1;stroke-dasharray:2,2;" x1="934.1465" x2="1388.2471" y1="652.8906" y2="652.8906"/><text fill="#000000" font-family="sans-serif" font-size="13" font-weight="bold" lengthAdjust="spacing" textLength="18.0908" x="946.1465" y="647.8247">16</text><text fill="#000000" font-family="sans-serif" font-size="13" lengthAdjust="spacing" textLength="113.7881" x="968.2373" y="647.8247">Enrollment saved</text></g><g class="message" data-entity-1="part4" data-entity-2="part3" id="msg17"><polygon fill="#181818" points="534.8076,678.0234,524.8076,682.0234,534.8076,686.0234,530.8076,682.0234" style="stroke:#181818;stroke-width:1;"/><line style="stroke:#181818;stroke-width:1;stroke-dasharray:2,2;" x1="528.8076" x2="923.1465" y1="682.0234" y2="682.0234"/><text fill="#000000" font-family="sans-serif" font-size="13" font-weight="bold" lengthAdjust="spacing" textLength="18.0908" x="540.8076" y="676.9575">17</text><text fill="#000000" font-family="sans-serif" font-size="13" lengthAdjust="spacing" textLength="99.1567" x="562.8984" y="676.9575">EnrollmentDTO</text></g><g class="message" data-entity-1="part3" data-entity-2="part2" id="msg18"><polygon fill="#181818" points="347.623,707.1563,337.623,711.1563,347.623,715.1563,343.623,711.1563" style="stroke:#181818;stroke-width:1;"/><line style="stroke:#181818;stroke-width:1;stroke-dasharray:2,2;" x1="341.623" x2="522.8076" y1="711.1563" y2="711.1563"/><text fill="#000000" font-family="sans-serif" font-size="13" font-weight="bold" lengthAdjust="spacing" textLength="18.0908" x="353.623" y="706.0903">18</text><text fill="#000000" font-family="sans-serif" font-size="13" lengthAdjust="spacing" textLength="52.3301" x="375.7139" y="706.0903">Success</text></g><g class="message" data-entity-1="part2" data-entity-2="part1" id="msg19"><polygon fill="#181818" points="77.4316,736.2891,67.4316,740.2891,77.4316,744.2891,73.4316,740.2891" style="stroke:#181818;stroke-width:1;"/><line style="stroke:#181818;stroke-width:1;stroke-dasharray:2,2;" x1="71.4316" x2="335.623" y1="740.2891" y2="740.2891"/><text fill="#000000" font-family="sans-serif" font-size="13" font-weight="bold" lengthAdjust="spacing" textLength="18.0908" x="83.4316" y="735.2231">19</text><text fill="#000000" font-family="sans-serif" font-size="13" lengthAdjust="spacing" textLength="140.8926" x="105.5225" y="735.2231">Enrollment confirmed</text></g><?plantuml-src lLDDZzCm4BtxLuoMIojH2QuL82LDo5P2tOh2LaXxSUDfrcfg5zlfXn3_dN4I6YVT5JSkRMA_z-RDl0cld5RLVeE6CRkJwi0DtqEipqikX5G5l7_7s4QVuIwMPUaFLcYECiSxUFD55izkATME0UHQEQDBQ57HuG3SGXmnL0A8tuf4opbatE69N_uAn6M5WK0VGXhPUg0nqvMnEFJn0yjIdmAX1fPzNSxkkH8b6Yyso-vl8AtNMKGtg9nq5qWLNPTxUlCtALq8xlY6Kzc6ayGr9OaxRt44aq_aTWe5rPos6dFL43vhyzsYULA_AlgR9s_9X3_tJyvmPNdkf5Rpv3VpJqSQW9_UzPccmBArhq0jJ87aJjo8kXGO_5cXTHtOTydefuP7hrWP_SF8ED2BIAvkZpgUmYCQkRsqFC2pjCu6O1eAWJzC9WswZSiFa0dimKBHsJFckqRCRnbU4-WhCruwY4g3N5nQ40hA9wmOfDUQe_pwbS7Fg67GV8PwC982zmVjl8IjyXoj7HE70gWfFe5LSpoGhjShRhpuLGYiqD9jfTdNRWCA1TjxzvzCIVDQQFTQVmiTZkUcjmPDSqrfgjGO7OVxN1G62peas9NcDpnjAIjqSBCQJwghc7Z6HrWyh4TZkkWj3MmrVMULaAxpdFOJgR-mlkkqyrmtkE97xBSu3E_bj2tnnCi32TBk2CctXm4w-eyfAy7-0000?></g></svg>