<?plantuml 1.2026.1?><svg xmlns="http://www.w3.org/2000/svg" xmlns:xlink="http://www.w3.org/1999/xlink" contentStyleType="text/css" data-diagram-type="SEQUENCE" height="1385px" preserveAspectRatio="none" style="width:1874px;height:1385px;background:#FFFFFF;" version="1.1" viewBox="0 0 1874 1385" width="1874px" zoomAndPan="magnify"><defs/><g><rect fill="#ADD8E6" height="1373.5156" style="stroke:#181818;stroke-width:0.5;" width="102.4434" x="543.584" y="6"/><text fill="#000000" font-family="sans-serif" font-size="13" font-weight="bold" lengthAdjust="spacing" textLength="92.6821" x="548.4646" y="18.0669">API Gateway</text><rect fill="#FFFFE0" height="1373.5156" style="stroke:#181818;stroke-width:0.5;" width="993.9526" x="677.6318" y="6"/><text fill="#000000" font-family="sans-serif" font-size="13" font-weight="bold" lengthAdjust="spacing" textLength="109.2622" x="1119.9771" y="18.0669">Course Service</text><g><title>Learner</title><rect fill="#FFFFFF" height="427.8594" style="stroke:#181818;stroke-width:1;" width="10" x="54.9951" y="118.5625"/></g><g><title>WebApp</title><rect fill="#FFFFFF" height="427.8594" style="stroke:#181818;stroke-width:1;" width="10" x="338.8589" y="118.5625"/></g><g><title>API Gateway</title><rect fill="#FFFFFF" height="369.5938" style="stroke:#181818;stroke-width:1;" width="10" x="589.8057" y="147.6953"/></g><g><title>CourseController</title><rect fill="#FFFFFF" height="269.1953" style="stroke:#181818;stroke-width:1;" width="10" x="738.6567" y="218.9609"/></g><g><title>CourseApp</title><rect fill="#FFFFFF" height="917.5938" style="stroke:#181818;stroke-width:1;" width="10" x="982.4858" y="248.0938"/></g><g><title>Certificate</title><rect fill="#FFFFFF" height="71.2656" style="stroke:#181818;stroke-width:1;" width="10" x="1198.9883" y="833.2266"/></g><g><title>Enrollment</title><rect fill="#FFFFFF" height="71.2656" style="stroke:#181818;stroke-width:1;" width="10" x="1398.3076" y="991.8906"/></g><g><title>CourseDB</title><rect fill="#FFFFFF" height="71.2656" style="stroke:#181818;stroke-width:1;" width="10" x="1624.9536" y="277.2266"/></g><g><title>CourseDB</title><rect fill="#FFFFFF" height="53.2656" style="stroke:#181818;stroke-width:1;" width="10" x="1624.9536" y="590.3594"/></g><g><title>CourseDB</title><rect fill="#FFFFFF" height="29.1328" style="stroke:#181818;stroke-width:1;" width="10" x="1624.9536" y="933.625"/></g><g><title>CourseDB</title><rect fill="#FFFFFF" height="29.1328" style="stroke:#181818;stroke-width:1;" width="10" x="1624.9536" y="1092.2891"/></g><rect fill="none" height="877.5938" style="stroke:#000000;stroke-width:1.5;" width="1677.5845" x="10" y="405.625"/><rect fill="none" height="670.8594" style="stroke:#000000;stroke-width:1.5;" width="1657.5845" x="20" y="605.3594"/><g class="participant-lifeline" data-entity-uid="part1" data-qualified-name="L" id="part1-lifeline"><g><title>Learner</title><rect fill="#000000" fill-opacity="0.00000" height="1212.7891" width="8" x="55.9951" y="87.4297"/><line style="stroke:#181818;stroke-width:0.5;stroke-dasharray:5,5;" x1="59" x2="59" y1="87.4297" y2="1300.2188"/></g></g><g class="participant-lifeline" data-entity-uid="part2" data-qualified-name="WA" id="part2-lifeline"><g><title>WebApp</title><rect fill="#000000" fill-opacity="0.00000" height="1212.7891" width="8" x="339.8589" y="87.4297"/><line style="stroke:#181818;stroke-width:0.5;stroke-dasharray:5,5;" x1="343.5122" x2="343.5122" y1="87.4297" y2="1300.2188"/></g></g><g class="participant-lifeline" data-entity-uid="part3" data-qualified-name="GW" id="part3-lifeline"><g><title>API Gateway</title><rect fill="#000000" fill-opacity="0.00000" height="1212.7891" width="8" x="590.8057" y="87.4297"/><line style="stroke:#181818;stroke-width:0.5;stroke-dasharray:5,5;" x1="594.584" x2="594.584" y1="87.4297" y2="1300.2188"/></g></g><g class="participant-lifeline" data-entity-uid="part4" data-qualified-name="CC" id="part4-lifeline"><g><title>CourseController</title><rect fill="#000000" fill-opacity="0.00000" height="1212.7891" width="8" x="739.6567" y="87.4297"/><line style="stroke:#181818;stroke-width:0.5;stroke-dasharray:5,5;" x1="743.6318" x2="743.6318" y1="87.4297" y2="1300.2188"/></g></g><g class="participant-lifeline" data-entity-uid="part5" data-qualified-name="CA" id="part5-lifeline"><g><title>CourseApp</title><rect fill="#000000" fill-opacity="0.00000" height="1212.7891" width="8" x="983.4858" y="87.4297"/><line style="stroke:#181818;stroke-width:0.5;stroke-dasharray:5,5;" x1="987.3721" x2="987.3721" y1="87.4297" y2="1300.2188"/></g></g><g class="participant-lifeline" data-entity-uid="part6" data-qualified-name="Cert" id="part6-lifeline"><g><title>Certificate</title><rect fill="#000000" fill-opacity="0.00000" height="1212.7891" width="8" x="1199.9883" y="87.4297"/><line style="stroke:#181818;stroke-width:0.5;stroke-dasharray:5,5;" x1="1203.6279" x2="1203.6279" y1="87.4297" y2="1300.2188"/></g></g><g class="participant-lifeline" data-entity-uid="part7" data-qualified-name="E" id="part7-lifeline"><g><title>Enrollment</title><rect fill="#000000" fill-opacity="0.00000" height="1212.7891" width="8" x="1399.3076" y="87.4297"/><line style="stroke:#181818;stroke-width:0.5;stroke-dasharray:5,5;" x1="1403.0913" x2="1403.0913" y1="87.4297" y2="1300.2188"/></g></g><g class="participant-lifeline" data-entity-uid="part8" data-qualified-name="CDB" id="part8-lifeline"><g><title>CourseDB</title><rect fill="#000000" fill-opacity="0.00000" height="1212.7891" width="8" x="1625.9536" y="87.4297"/><line style="stroke:#181818;stroke-width:0.5;stroke-dasharray:5,5;" x1="1629.3228" x2="1629.3228" y1="87.4297" y2="1300.2188"/></g></g><g class="participant participant-head" data-entity-uid="part1" data-qualified-name="L" id="part1-head"><text fill="#000000" font-family="sans-serif" font-size="14" lengthAdjust="spacing" textLength="53.9902" x="30" y="84.1279">Learner</text><ellipse cx="59.9951" cy="19.6328" fill="#E2E2F0" rx="8" ry="8" style="stroke:#181818;stroke-width:0.5;"/><path d="M59.9951,27.6328 L59.9951,54.6328 M46.9951,35.6328 L72.9951,35.6328 M59.9951,54.6328 L46.9951,69.6328 M59.9951,54.6328 L72.9951,69.6328" fill="none" style="stroke:#181818;stroke-width:0.5;"/></g><g class="participant participant-tail" data-entity-uid="part1" data-qualified-name="L" id="part1-tail"><text fill="#000000" font-family="sans-serif" font-size="14" lengthAdjust="spacing" textLength="53.9902" x="30" y="1312.2139">Learner</text><ellipse cx="59.9951" cy="1324.0156" fill="#E2E2F0" rx="8" ry="8" style="stroke:#181818;stroke-width:0.5;"/><path d="M59.9951,1332.0156 L59.9951,1359.0156 M46.9951,1340.0156 L72.9951,1340.0156 M59.9951,1359.0156 L46.9951,1374.0156 M59.9951,1359.0156 L72.9951,1374.0156" fill="none" style="stroke:#181818;stroke-width:0.5;"/></g><g class="participant participant-head" data-entity-uid="part2" data-qualified-name="WA" id="part2-head"><text fill="#000000" font-family="sans-serif" font-size="14" lengthAdjust="spacing" textLength="58.6934" x="311.5122" y="84.1279">WebApp</text><path d="M323.3589,43.1328 L323.3589,67.1328 M323.3589,55.1328 L340.3589,55.1328" fill="none" style="stroke:#181818;stroke-width:0.5;"/><ellipse cx="352.3589" cy="55.1328" fill="#E2E2F0" rx="12" ry="12" style="stroke:#181818;stroke-width:0.5;"/></g><g class="participant participant-tail" data-entity-uid="part2" data-qualified-name="WA" id="part2-tail"><text fill="#000000" font-family="sans-serif" font-size="14" lengthAdjust="spacing" textLength="58.6934" x="311.5122" y="1312.2139">WebApp</text><path d="M323.3589,1319.5156 L323.3589,1343.5156 M323.3589,1331.5156 L340.3589,1331.5156" fill="none" style="stroke:#181818;stroke-width:0.5;"/><ellipse cx="352.3589" cy="1331.5156" fill="#E2E2F0" rx="12" ry="12" style="stroke:#181818;stroke-width:0.5;"/></g><g class="participant participant-head" data-entity-uid="part3" data-qualified-name="GW" id="part3-head"><text fill="#000000" font-family="sans-serif" font-size="14" lengthAdjust="spacing" textLength="88.4434" x="547.584" y="84.1279">API Gateway</text><ellipse cx="594.8057" cy="55.1328" fill="#E2E2F0" rx="12" ry="12" style="stroke:#181818;stroke-width:0.5;"/><polygon fill="#181818" points="590.8057,43.1328,596.8057,38.1328,594.8057,43.1328,596.8057,48.1328,590.8057,43.1328" style="stroke:#181818;stroke-width:1;"/></g><g class="participant participant-tail" data-entity-uid="part3" data-qualified-name="GW" id="part3-tail"><text fill="#000000" font-family="sans-serif" font-size="14" lengthAdjust="spacing" textLength="88.4434" x="547.584" y="1312.2139">API Gateway</text><ellipse cx="594.8057" cy="1331.5156" fill="#E2E2F0" rx="12" ry="12" style="stroke:#181818;stroke-width:0.5;"/><polygon fill="#181818" points="590.8057,1319.5156,596.8057,1314.5156,594.8057,1319.5156,596.8057,1324.5156,590.8057,1319.5156" style="stroke:#181818;stroke-width:1;"/></g><g class="participant participant-head" data-entity-uid="part4" data-qualified-name="CC" id="part4-head"><text fill="#000000" font-family="sans-serif" font-size="14" lengthAdjust="spacing" textLength="118.0498" x="681.6318" y="84.1279">CourseController</text><ellipse cx="743.6567" cy="55.1328" fill="#E2E2F0" rx="12" ry="12" style="stroke:#181818;stroke-width:0.5;"/><polygon fill="#181818" points="739.6567,43.1328,745.6567,38.1328,743.6567,43.1328,745.6567,48.1328,739.6567,43.1328" style="stroke:#181818;stroke-width:1;"/></g><g class="participant participant-tail" data-entity-uid="part4" data-qualified-name="CC" id="part4-tail"><text fill="#000000" font-family="sans-serif" font-size="14" lengthAdjust="spacing" textLength="118.0498" x="681.6318" y="1312.2139">CourseController</text><ellipse cx="743.6567" cy="1331.5156" fill="#E2E2F0" rx="12" ry="12" style="stroke:#181818;stroke-width:0.5;"/><polygon fill="#181818" points="739.6567,1319.5156,745.6567,1314.5156,743.6567,1319.5156,745.6567,1324.5156,739.6567,1319.5156" style="stroke:#181818;stroke-width:1;"/></g><g class="participant participant-head" data-entity-uid="part5" data-qualified-name="CA" id="part5-head"><text fill="#000000" font-family="sans-serif" font-size="14" lengthAdjust="spacing" textLength="76.2275" x="946.3721" y="84.1279">CourseApp</text><ellipse cx="987.4858" cy="55.1328" fill="#E2E2F0" rx="12" ry="12" style="stroke:#181818;stroke-width:0.5;"/><polygon fill="#181818" points="983.4858,43.1328,989.4858,38.1328,987.4858,43.1328,989.4858,48.1328,983.4858,43.1328" style="stroke:#181818;stroke-width:1;"/></g><g class="participant participant-tail" data-entity-uid="part5" data-qualified-name="CA" id="part5-tail"><text fill="#000000" font-family="sans-serif" font-size="14" lengthAdjust="spacing" textLength="76.2275" x="946.3721" y="1312.2139">CourseApp</text><ellipse cx="987.4858" cy="1331.5156" fill="#E2E2F0" rx="12" ry="12" style="stroke:#181818;stroke-width:0.5;"/><polygon fill="#181818" points="983.4858,1319.5156,989.4858,1314.5156,987.4858,1319.5156,989.4858,1324.5156,983.4858,1319.5156" style="stroke:#181818;stroke-width:1;"/></g><g class="participant participant-head" data-entity-uid="part6" data-qualified-name="Cert" id="part6-head"><text fill="#000000" font-family="sans-serif" font-size="14" lengthAdjust="spacing" textLength="72.7207" x="1164.6279" y="84.1279">Certificate</text><ellipse cx="1203.9883" cy="55.1328" fill="#E2E2F0" rx="12" ry="12" style="stroke:#181818;stroke-width:0.5;"/><line style="stroke:#181818;stroke-width:0.5;" x1="1191.9883" x2="1215.9883" y1="69.1328" y2="69.1328"/></g><g class="participant participant-tail" data-entity-uid="part6" data-qualified-name="Cert" id="part6-tail"><text fill="#000000" font-family="sans-serif" font-size="14" lengthAdjust="spacing" textLength="72.7207" x="1164.6279" y="1312.2139">Certificate</text><ellipse cx="1203.9883" cy="1331.5156" fill="#E2E2F0" rx="12" ry="12" style="stroke:#181818;stroke-width:0.5;"/><line style="stroke:#181818;stroke-width:0.5;" x1="1191.9883" x2="1215.9883" y1="1345.5156" y2="1345.5156"/></g><g class="participant participant-head" data-entity-uid="part7" data-qualified-name="E" id="part7-head"><text fill="#000000" font-family="sans-serif" font-size="14" lengthAdjust="spacing" textLength="76.4326" x="1362.0913" y="84.1279">Enrollment</text><ellipse cx="1403.3076" cy="55.1328" fill="#E2E2F0" rx="12" ry="12" style="stroke:#181818;stroke-width:0.5;"/><line style="stroke:#181818;stroke-width:0.5;" x1="1391.3076" x2="1415.3076" y1="69.1328" y2="69.1328"/></g><g class="participant participant-tail" data-entity-uid="part7" data-qualified-name="E" id="part7-tail"><text fill="#000000" font-family="sans-serif" font-size="14" lengthAdjust="spacing" textLength="76.4326" x="1362.0913" y="1312.2139">Enrollment</text><ellipse cx="1403.3076" cy="1331.5156" fill="#E2E2F0" rx="12" ry="12" style="stroke:#181818;stroke-width:0.5;"/><line style="stroke:#181818;stroke-width:0.5;" x1="1391.3076" x2="1415.3076" y1="1345.5156" y2="1345.5156"/></g><g class="participant participant-head" data-entity-uid="part8" data-qualified-name="CDB" id="part8-head"><text fill="#000000" font-family="sans-serif" font-size="14" lengthAdjust="spacing" textLength="69.2617" x="1592.3228" y="84.1279">CourseDB</text><path d="M1611.9536,35.1328 C1611.9536,25.1328 1629.9536,25.1328 1629.9536,25.1328 C1629.9536,25.1328 1647.9536,25.1328 1647.9536,35.1328 L1647.9536,61.1328 C1647.9536,71.1328 1629.9536,71.1328 1629.9536,71.1328 C1629.9536,71.1328 1611.9536,71.1328 1611.9536,61.1328 L1611.9536,35.1328" fill="#E2E2F0" style="stroke:#181818;stroke-width:0.5;"/><path d="M1611.9536,35.1328 C1611.9536,45.1328 1629.9536,45.1328 1629.9536,45.1328 C1629.9536,45.1328 1647.9536,45.1328 1647.9536,35.1328" fill="none" style="stroke:#181818;stroke-width:0.5;"/></g><g class="participant participant-tail" data-entity-uid="part8" data-qualified-name="CDB" id="part8-tail"><text fill="#000000" font-family="sans-serif" font-size="14" lengthAdjust="spacing" textLength="69.2617" x="1592.3228" y="1312.2139">CourseDB</text><path d="M1611.9536,1325.5156 C1611.9536,1315.5156 1629.9536,1315.5156 1629.9536,1315.5156 C1629.9536,1315.5156 1647.9536,1315.5156 1647.9536,1325.5156 L1647.9536,1351.5156 C1647.9536,1361.5156 1629.9536,1361.5156 1629.9536,1361.5156 C1629.9536,1361.5156 1611.9536,1361.5156 1611.9536,1351.5156 L1611.9536,1325.5156" fill="#E2E2F0" style="stroke:#181818;stroke-width:0.5;"/><path d="M1611.9536,1325.5156 C1611.9536,1335.5156 1629.9536,1335.5156 1629.9536,1335.5156 C1629.9536,1335.5156 1647.9536,1335.5156 1647.9536,1325.5156" fill="none" style="stroke:#181818;stroke-width:0.5;"/></g><g><title>Learner</title><rect fill="#FFFFFF" height="427.8594" style="stroke:#181818;stroke-width:1;" width="10" x="54.9951" y="118.5625"/></g><g><title>WebApp</title><rect fill="#FFFFFF" height="427.8594" style="stroke:#181818;stroke-width:1;" width="10" x="338.8589" y="118.5625"/></g><g><title>API Gateway</title><rect fill="#FFFFFF" height="369.5938" style="stroke:#181818;stroke-width:1;" width="10" x="589.8057" y="147.6953"/></g><g><title>CourseController</title><rect fill="#FFFFFF" height="269.1953" style="stroke:#181818;stroke-width:1;" width="10" x="738.6567" y="218.9609"/></g><g><title>CourseApp</title><rect fill="#FFFFFF" height="917.5938" style="stroke:#181818;stroke-width:1;" width="10" x="982.4858" y="248.0938"/></g><g><title>Certificate</title><rect fill="#FFFFFF" height="71.2656" style="stroke:#181818;stroke-width:1;" width="10" x="1198.9883" y="833.2266"/></g><g><title>Enrollment</title><rect fill="#FFFFFF" height="71.2656" style="stroke:#181818;stroke-width:1;" width="10" x="1398.3076" y="991.8906"/></g><g><title>CourseDB</title><rect fill="#FFFFFF" height="71.2656" style="stroke:#181818;stroke-width:1;" width="10" x="1624.9536" y="277.2266"/></g><g><title>CourseDB</title><rect fill="#FFFFFF" height="53.2656" style="stroke:#181818;stroke-width:1;" width="10" x="1624.9536" y="590.3594"/></g><g><title>CourseDB</title><rect fill="#FFFFFF" height="29.1328" style="stroke:#181818;stroke-width:1;" width="10" x="1624.9536" y="933.625"/></g><g><title>CourseDB</title><rect fill="#FFFFFF" height="29.1328" style="stroke:#181818;stroke-width:1;" width="10" x="1624.9536" y="1092.2891"/></g><g class="message" data-entity-1="part1" data-entity-2="part2" id="msg1"><polygon fill="#181818" points="326.8589,114.5625,336.8589,118.5625,326.8589,122.5625,330.8589,118.5625" style="stroke:#181818;stroke-width:1;"/><line style="stroke:#181818;stroke-width:1;" x1="64.9951" x2="332.8589" y1="118.5625" y2="118.5625"/><text fill="#000000" font-family="sans-serif" font-size="13" font-weight="bold" lengthAdjust="spacing" textLength="9.0454" x="71.9951" y="113.4966">1</text><text fill="#000000" font-family="sans-serif" font-size="13" lengthAdjust="spacing" textLength="135.7129" x="85.0405" y="113.4966">Complete last lesson</text></g><g class="message" data-entity-1="part2" data-entity-2="part3" id="msg2"><polygon fill="#181818" points="577.8057,143.6953,587.8057,147.6953,577.8057,151.6953,581.8057,147.6953" style="stroke:#181818;stroke-width:1;"/><line style="stroke:#181818;stroke-width:1;" x1="348.8589" x2="583.8057" y1="147.6953" y2="147.6953"/><text fill="#000000" font-family="sans-serif" font-size="13" font-weight="bold" lengthAdjust="spacing" textLength="9.0454" x="355.8589" y="142.6294">2</text><text fill="#000000" font-family="sans-serif" font-size="13" lengthAdjust="spacing" textLength="208.9014" x="368.9043" y="142.6294">POST /courses/{courseId}/finish</text></g><g class="message" data-entity-1="part3" data-entity-2="part3" id="msg3"><line style="stroke:#181818;stroke-width:1;" x1="599.8057" x2="641.8057" y1="176.8281" y2="176.8281"/><line style="stroke:#181818;stroke-width:1;" x1="641.8057" x2="641.8057" y1="176.8281" y2="189.8281"/><line style="stroke:#181818;stroke-width:1;" x1="600.8057" x2="641.8057" y1="189.8281" y2="189.8281"/><polygon fill="#181818" points="610.8057,185.8281,600.8057,189.8281,610.8057,193.8281,606.8057,189.8281" style="stroke:#181818;stroke-width:1;"/><text fill="#000000" font-family="sans-serif" font-size="13" font-weight="bold" lengthAdjust="spacing" textLength="9.0454" x="606.8057" y="171.7622">3</text><text fill="#000000" font-family="sans-serif" font-size="13" lengthAdjust="spacing" textLength="82.1577" x="619.8511" y="171.7622">Validate JWT</text></g><g class="message" data-entity-1="part3" data-entity-2="part4" id="msg4"><polygon fill="#181818" points="726.6567,214.9609,736.6567,218.9609,726.6567,222.9609,730.6567,218.9609" style="stroke:#181818;stroke-width:1;"/><line style="stroke:#181818;stroke-width:1;" x1="599.8057" x2="732.6567" y1="218.9609" y2="218.9609"/><text fill="#000000" font-family="sans-serif" font-size="13" font-weight="bold" lengthAdjust="spacing" textLength="9.0454" x="606.8057" y="213.895">4</text><text fill="#000000" font-family="sans-serif" font-size="13" lengthAdjust="spacing" textLength="106.8057" x="619.8511" y="213.895">Forward request</text></g><g class="message" data-entity-1="part4" data-entity-2="part5" id="msg5"><polygon fill="#181818" points="970.4858,244.0938,980.4858,248.0938,970.4858,252.0938,974.4858,248.0938" style="stroke:#181818;stroke-width:1;"/><line style="stroke:#181818;stroke-width:1;" x1="748.6567" x2="976.4858" y1="248.0938" y2="248.0938"/><text fill="#000000" font-family="sans-serif" font-size="13" font-weight="bold" lengthAdjust="spacing" textLength="9.0454" x="755.6567" y="243.0278">5</text><text fill="#000000" font-family="sans-serif" font-size="13" lengthAdjust="spacing" textLength="199.4878" x="768.7021" y="243.0278">FinishCourse(courseId, userID)</text></g><g class="message" data-entity-1="part5" data-entity-2="part8" id="msg6"><polygon fill="#181818" points="1612.9536,273.2266,1622.9536,277.2266,1612.9536,281.2266,1616.9536,277.2266" style="stroke:#181818;stroke-width:1;"/><line style="stroke:#181818;stroke-width:1;" x1="992.4858" x2="1618.9536" y1="277.2266" y2="277.2266"/><text fill="#000000" font-family="sans-serif" font-size="13" font-weight="bold" lengthAdjust="spacing" textLength="9.0454" x="999.4858" y="272.1606">6</text><text fill="#000000" font-family="sans-serif" font-size="13" lengthAdjust="spacing" textLength="169.127" x="1012.5313" y="272.1606">Calculate course progress</text></g><g class="message" data-entity-1="part8" data-entity-2="part8" id="msg7"><line style="stroke:#181818;stroke-width:1;" x1="1634.9536" x2="1676.9536" y1="306.3594" y2="306.3594"/><line style="stroke:#181818;stroke-width:1;" x1="1676.9536" x2="1676.9536" y1="306.3594" y2="319.3594"/><line style="stroke:#181818;stroke-width:1;" x1="1635.9536" x2="1676.9536" y1="319.3594" y2="319.3594"/><polygon fill="#181818" points="1645.9536,315.3594,1635.9536,319.3594,1645.9536,323.3594,1641.9536,319.3594" style="stroke:#181818;stroke-width:1;"/><text fill="#000000" font-family="sans-serif" font-size="13" font-weight="bold" lengthAdjust="spacing" textLength="9.0454" x="1641.9536" y="301.2935">7</text><text fill="#000000" font-family="sans-serif" font-size="13" lengthAdjust="spacing" textLength="212.291" x="1654.999" y="301.2935">SELECT completed, total lessons</text></g><g class="message" data-entity-1="part8" data-entity-2="part5" id="msg8"><polygon fill="#181818" points="1003.4858,344.4922,993.4858,348.4922,1003.4858,352.4922,999.4858,348.4922" style="stroke:#181818;stroke-width:1;"/><line style="stroke:#181818;stroke-width:1;stroke-dasharray:2,2;" x1="997.4858" x2="1628.9536" y1="348.4922" y2="348.4922"/><text fill="#000000" font-family="sans-serif" font-size="13" font-weight="bold" lengthAdjust="spacing" textLength="9.0454" x="1009.4858" y="343.4263">8</text><text fill="#000000" font-family="sans-serif" font-size="13" lengthAdjust="spacing" textLength="92.1172" x="1022.5313" y="343.4263">Progress stats</text></g><g class="message" data-entity-1="part5" data-entity-2="part5" id="msg9"><line style="stroke:#181818;stroke-width:1;" x1="992.4858" x2="1034.4858" y1="377.625" y2="377.625"/><line style="stroke:#181818;stroke-width:1;" x1="1034.4858" x2="1034.4858" y1="377.625" y2="390.625"/><line style="stroke:#181818;stroke-width:1;" x1="993.4858" x2="1034.4858" y1="390.625" y2="390.625"/><polygon fill="#181818" points="1003.4858,386.625,993.4858,390.625,1003.4858,394.625,999.4858,390.625" style="stroke:#181818;stroke-width:1;"/><text fill="#000000" font-family="sans-serif" font-size="13" font-weight="bold" lengthAdjust="spacing" textLength="9.0454" x="999.4858" y="372.5591">9</text><text fill="#000000" font-family="sans-serif" font-size="13" lengthAdjust="spacing" textLength="169.457" x="1012.5313" y="372.5591">Check if progress = 100%</text></g><path d="M10,405.625 L74.4429,405.625 L74.4429,412.7578 L64.4429,422.7578 L10,422.7578 L10,405.625" fill="#EEEEEE" style="stroke:#000000;stroke-width:1.5;"/><rect fill="none" height="877.5938" style="stroke:#000000;stroke-width:1.5;" width="1677.5845" x="10" y="405.625"/><text fill="#000000" font-family="sans-serif" font-size="13" font-weight="bold" lengthAdjust="spacing" textLength="19.4429" x="25" y="418.6919">alt</text><text fill="#000000" font-family="sans-serif" font-size="11" font-weight="bold" lengthAdjust="spacing" textLength="177.6489" x="89.4429" y="417.8354">[Course not fully completed]</text><g class="message" data-entity-1="part5" data-entity-2="part4" id="msg10"><polygon fill="#181818" points="759.6567,455.0234,749.6567,459.0234,759.6567,463.0234,755.6567,459.0234" style="stroke:#181818;stroke-width:1;"/><line style="stroke:#181818;stroke-width:1;stroke-dasharray:2,2;" x1="753.6567" x2="981.4858" y1="459.0234" y2="459.0234"/><text fill="#000000" font-family="sans-serif" font-size="13" font-weight="bold" lengthAdjust="spacing" textLength="18.0908" x="765.6567" y="446.3911">10</text><text fill="#000000" font-family="sans-serif" font-size="13" lengthAdjust="spacing" textLength="111.6045" x="787.7476" y="438.8247">400 Bad Request</text><text fill="#000000" font-family="sans-serif" font-size="13" lengthAdjust="spacing" textLength="187.7383" x="787.7476" y="453.9575">"Course not fully completed"</text></g><g class="message" data-entity-1="part4" data-entity-2="part3" id="msg11"><polygon fill="#181818" points="610.8057,484.1563,600.8057,488.1563,610.8057,492.1563,606.8057,488.1563" style="stroke:#181818;stroke-width:1;"/><line style="stroke:#181818;stroke-width:1;stroke-dasharray:2,2;" x1="604.8057" x2="742.6567" y1="488.1563" y2="488.1563"/><text fill="#000000" font-family="sans-serif" font-size="13" font-weight="bold" lengthAdjust="spacing" textLength="18.0908" x="616.8057" y="483.0903">11</text><text fill="#000000" font-family="sans-serif" font-size="13" lengthAdjust="spacing" textLength="32.2017" x="638.8965" y="483.0903">Error</text></g><g class="message" data-entity-1="part3" data-entity-2="part2" id="msg12"><polygon fill="#181818" points="359.8589,513.2891,349.8589,517.2891,359.8589,521.2891,355.8589,517.2891" style="stroke:#181818;stroke-width:1;"/><line style="stroke:#181818;stroke-width:1;stroke-dasharray:2,2;" x1="353.8589" x2="593.8057" y1="517.2891" y2="517.2891"/><text fill="#000000" font-family="sans-serif" font-size="13" font-weight="bold" lengthAdjust="spacing" textLength="18.0908" x="365.8589" y="512.2231">12</text><text fill="#000000" font-family="sans-serif" font-size="13" lengthAdjust="spacing" textLength="32.2017" x="387.9497" y="512.2231">Error</text></g><g class="message" data-entity-1="part2" data-entity-2="part1" id="msg13"><polygon fill="#181818" points="70.9951,542.4219,60.9951,546.4219,70.9951,550.4219,66.9951,546.4219" style="stroke:#181818;stroke-width:1;"/><line style="stroke:#181818;stroke-width:1;" x1="64.9951" x2="342.8589" y1="546.4219" y2="546.4219"/><text fill="#000000" font-family="sans-serif" font-size="13" font-weight="bold" lengthAdjust="spacing" textLength="18.0908" x="76.9951" y="541.356">13</text><text fill="#000000" font-family="sans-serif" font-size="13" lengthAdjust="spacing" textLength="227.7729" x="99.0859" y="541.356">Display "Complete all lessons first"</text></g><line style="stroke:#000000;stroke-width:1;stroke-dasharray:2,2;" x1="10" x2="1687.5845" y1="555.4219" y2="555.4219"/><text fill="#000000" font-family="sans-serif" font-size="11" font-weight="bold" lengthAdjust="spacing" textLength="153.1729" x="15" y="565.6323">[Course fully completed]</text><g class="message" data-entity-1="part5" data-entity-2="part8" id="msg14"><polygon fill="#181818" points="1612.9536,586.3594,1622.9536,590.3594,1612.9536,594.3594,1616.9536,590.3594" style="stroke:#181818;stroke-width:1;"/><line style="stroke:#181818;stroke-width:1;" x1="992.4858" x2="1618.9536" y1="590.3594" y2="590.3594"/><text fill="#000000" font-family="sans-serif" font-size="13" font-weight="bold" lengthAdjust="spacing" textLength="18.0908" x="999.4858" y="585.2935">14</text><text fill="#000000" font-family="sans-serif" font-size="13" lengthAdjust="spacing" textLength="165.1279" x="1021.5767" y="585.2935">Check existing certificate</text></g><path d="M20,605.3594 L84.4429,605.3594 L84.4429,612.4922 L74.4429,622.4922 L20,622.4922 L20,605.3594" fill="#EEEEEE" style="stroke:#000000;stroke-width:1.5;"/><rect fill="none" height="670.8594" style="stroke:#000000;stroke-width:1.5;" width="1657.5845" x="20" y="605.3594"/><text fill="#000000" font-family="sans-serif" font-size="13" font-weight="bold" lengthAdjust="spacing" textLength="19.4429" x="35" y="618.4263">alt</text><text fill="#000000" font-family="sans-serif" font-size="11" font-weight="bold" lengthAdjust="spacing" textLength="166.144" x="99.4429" y="617.5698">[Certificate already exists]</text><g class="message" data-entity-1="part8" data-entity-2="part5" id="msg15"><polygon fill="#181818" points="1003.4858,639.625,993.4858,643.625,1003.4858,647.625,999.4858,643.625" style="stroke:#181818;stroke-width:1;"/><line style="stroke:#181818;stroke-width:1;stroke-dasharray:2,2;" x1="997.4858" x2="1628.9536" y1="643.625" y2="643.625"/><text fill="#000000" font-family="sans-serif" font-size="13" font-weight="bold" lengthAdjust="spacing" textLength="18.0908" x="1009.4858" y="638.5591">15</text><text fill="#000000" font-family="sans-serif" font-size="13" lengthAdjust="spacing" textLength="121.2212" x="1031.5767" y="638.5591">Existing certificate</text></g><g class="message" data-entity-1="part5" data-entity-2="part4" id="msg16"><polygon fill="#181818" points="754.6567,668.7578,744.6567,672.7578,754.6567,676.7578,750.6567,672.7578" style="stroke:#181818;stroke-width:1;"/><line style="stroke:#181818;stroke-width:1;stroke-dasharray:2,2;" x1="748.6567" x2="981.4858" y1="672.7578" y2="672.7578"/><text fill="#000000" font-family="sans-serif" font-size="13" font-weight="bold" lengthAdjust="spacing" textLength="18.0908" x="760.6567" y="667.6919">16</text><text fill="#000000" font-family="sans-serif" font-size="13" lengthAdjust="spacing" textLength="161.2622" x="782.7476" y="667.6919">CertificateDTO (existing)</text></g><g class="message" data-entity-1="part4" data-entity-2="part3" id="msg17"><polygon fill="#181818" points="605.8057,697.8906,595.8057,701.8906,605.8057,705.8906,601.8057,701.8906" style="stroke:#181818;stroke-width:1;"/><line style="stroke:#181818;stroke-width:1;stroke-dasharray:2,2;" x1="599.8057" x2="742.6567" y1="701.8906" y2="701.8906"/><text fill="#000000" font-family="sans-serif" font-size="13" font-weight="bold" lengthAdjust="spacing" textLength="18.0908" x="611.8057" y="696.8247">17</text><text fill="#000000" font-family="sans-serif" font-size="13" lengthAdjust="spacing" textLength="47.7026" x="633.8965" y="696.8247">200 OK</text></g><g class="message" data-entity-1="part3" data-entity-2="part2" id="msg18"><polygon fill="#181818" points="354.8589,727.0234,344.8589,731.0234,354.8589,735.0234,350.8589,731.0234" style="stroke:#181818;stroke-width:1;"/><line style="stroke:#181818;stroke-width:1;stroke-dasharray:2,2;" x1="348.8589" x2="593.8057" y1="731.0234" y2="731.0234"/><text fill="#000000" font-family="sans-serif" font-size="13" font-weight="bold" lengthAdjust="spacing" textLength="18.0908" x="360.8589" y="725.9575">18</text><text fill="#000000" font-family="sans-serif" font-size="13" lengthAdjust="spacing" textLength="100.9404" x="382.9497" y="725.9575">Certificate data</text></g><g class="message" data-entity-1="part2" data-entity-2="part1" id="msg19"><polygon fill="#181818" points="70.9951,756.1563,60.9951,760.1563,70.9951,764.1563,66.9951,760.1563" style="stroke:#181818;stroke-width:1;"/><line style="stroke:#181818;stroke-width:1;" x1="64.9951" x2="342.8589" y1="760.1563" y2="760.1563"/><text fill="#000000" font-family="sans-serif" font-size="13" font-weight="bold" lengthAdjust="spacing" textLength="18.0908" x="76.9951" y="755.0903">19</text><text fill="#000000" font-family="sans-serif" font-size="13" lengthAdjust="spacing" textLength="173.0562" x="99.0859" y="755.0903">Display existing certificate</text></g><line style="stroke:#000000;stroke-width:1;stroke-dasharray:2,2;" x1="20" x2="1677.5845" y1="769.1563" y2="769.1563"/><text fill="#000000" font-family="sans-serif" font-size="11" font-weight="bold" lengthAdjust="spacing" textLength="118.019" x="25" y="779.3667">[No certificate yet]</text><g class="message" data-entity-1="part8" data-entity-2="part5" id="msg20"><polygon fill="#181818" points="1003.4858,800.0938,993.4858,804.0938,1003.4858,808.0938,999.4858,804.0938" style="stroke:#181818;stroke-width:1;"/><line style="stroke:#181818;stroke-width:1;stroke-dasharray:2,2;" x1="997.4858" x2="1628.9536" y1="804.0938" y2="804.0938"/><text fill="#000000" font-family="sans-serif" font-size="13" font-weight="bold" lengthAdjust="spacing" textLength="18.0908" x="1009.4858" y="799.0278">20</text><text fill="#000000" font-family="sans-serif" font-size="13" lengthAdjust="spacing" textLength="23.7021" x="1031.5767" y="799.0278">null</text></g><g class="message" data-entity-1="part5" data-entity-2="part6" id="msg21"><polygon fill="#181818" points="1186.9883,829.2266,1196.9883,833.2266,1186.9883,837.2266,1190.9883,833.2266" style="stroke:#181818;stroke-width:1;"/><line style="stroke:#181818;stroke-width:1;" x1="992.4858" x2="1192.9883" y1="833.2266" y2="833.2266"/><text fill="#000000" font-family="sans-serif" font-size="13" font-weight="bold" lengthAdjust="spacing" textLength="18.0908" x="999.4858" y="828.1606">21</text><text fill="#000000" font-family="sans-serif" font-size="13" lengthAdjust="spacing" textLength="115.1401" x="1021.5767" y="828.1606">Create Certificate</text></g><g class="message" data-entity-1="part6" data-entity-2="part6" id="msg22"><line style="stroke:#181818;stroke-width:1;" x1="1208.9883" x2="1250.9883" y1="862.3594" y2="862.3594"/><line style="stroke:#181818;stroke-width:1;" x1="1250.9883" x2="1250.9883" y1="862.3594" y2="875.3594"/><line style="stroke:#181818;stroke-width:1;" x1="1209.9883" x2="1250.9883" y1="875.3594" y2="875.3594"/><polygon fill="#181818" points="1219.9883,871.3594,1209.9883,875.3594,1219.9883,879.3594,1215.9883,875.3594" style="stroke:#181818;stroke-width:1;"/><text fill="#000000" font-family="sans-serif" font-size="13" font-weight="bold" lengthAdjust="spacing" textLength="18.0908" x="1215.9883" y="857.2935">22</text><text fill="#000000" font-family="sans-serif" font-size="13" lengthAdjust="spacing" textLength="143.2285" x="1238.0791" y="857.2935">Set issuedAt = NOW()</text></g><g class="message" data-entity-1="part6" data-entity-2="part5" id="msg23"><polygon fill="#181818" points="1003.4858,900.4922,993.4858,904.4922,1003.4858,908.4922,999.4858,904.4922" style="stroke:#181818;stroke-width:1;"/><line style="stroke:#181818;stroke-width:1;stroke-dasharray:2,2;" x1="997.4858" x2="1202.9883" y1="904.4922" y2="904.4922"/><text fill="#000000" font-family="sans-serif" font-size="13" font-weight="bold" lengthAdjust="spacing" textLength="18.0908" x="1009.4858" y="899.4263">23</text><text fill="#000000" font-family="sans-serif" font-size="13" lengthAdjust="spacing" textLength="109.3955" x="1031.5767" y="899.4263">Certificate entity</text></g><g class="message" data-entity-1="part5" data-entity-2="part8" id="msg24"><polygon fill="#181818" points="1612.9536,929.625,1622.9536,933.625,1612.9536,937.625,1616.9536,933.625" style="stroke:#181818;stroke-width:1;"/><line style="stroke:#181818;stroke-width:1;" x1="992.4858" x2="1618.9536" y1="933.625" y2="933.625"/><text fill="#000000" font-family="sans-serif" font-size="13" font-weight="bold" lengthAdjust="spacing" textLength="18.0908" x="999.4858" y="928.5591">24</text><text fill="#000000" font-family="sans-serif" font-size="13" lengthAdjust="spacing" textLength="101.6387" x="1021.5767" y="928.5591">Save certificate</text></g><g class="message" data-entity-1="part8" data-entity-2="part5" id="msg25"><polygon fill="#181818" points="1003.4858,958.7578,993.4858,962.7578,1003.4858,966.7578,999.4858,962.7578" style="stroke:#181818;stroke-width:1;"/><line style="stroke:#181818;stroke-width:1;stroke-dasharray:2,2;" x1="997.4858" x2="1628.9536" y1="962.7578" y2="962.7578"/><text fill="#000000" font-family="sans-serif" font-size="13" font-weight="bold" lengthAdjust="spacing" textLength="18.0908" x="1009.4858" y="957.6919">25</text><text fill="#000000" font-family="sans-serif" font-size="13" lengthAdjust="spacing" textLength="110.3413" x="1031.5767" y="957.6919">Certificate saved</text></g><g class="message" data-entity-1="part5" data-entity-2="part7" id="msg26"><polygon fill="#181818" points="1386.3076,987.8906,1396.3076,991.8906,1386.3076,995.8906,1390.3076,991.8906" style="stroke:#181818;stroke-width:1;"/><line style="stroke:#181818;stroke-width:1;" x1="992.4858" x2="1392.3076" y1="991.8906" y2="991.8906"/><text fill="#000000" font-family="sans-serif" font-size="13" font-weight="bold" lengthAdjust="spacing" textLength="18.0908" x="999.4858" y="986.8247">26</text><text fill="#000000" font-family="sans-serif" font-size="13" lengthAdjust="spacing" textLength="121.9702" x="1021.5767" y="986.8247">Update enrollment</text></g><g class="message" data-entity-1="part7" data-entity-2="part7" id="msg27"><line style="stroke:#181818;stroke-width:1;" x1="1408.3076" x2="1450.3076" y1="1021.0234" y2="1021.0234"/><line style="stroke:#181818;stroke-width:1;" x1="1450.3076" x2="1450.3076" y1="1021.0234" y2="1034.0234"/><line style="stroke:#181818;stroke-width:1;" x1="1409.3076" x2="1450.3076" y1="1034.0234" y2="1034.0234"/><polygon fill="#181818" points="1419.3076,1030.0234,1409.3076,1034.0234,1419.3076,1038.0234,1415.3076,1034.0234" style="stroke:#181818;stroke-width:1;"/><text fill="#000000" font-family="sans-serif" font-size="13" font-weight="bold" lengthAdjust="spacing" textLength="18.0908" x="1415.3076" y="1015.9575">27</text><text fill="#000000" font-family="sans-serif" font-size="13" lengthAdjust="spacing" textLength="170.5552" x="1437.3984" y="1015.9575">Set completedAt = NOW()</text></g><g class="message" data-entity-1="part7" data-entity-2="part5" id="msg28"><polygon fill="#181818" points="1003.4858,1059.1563,993.4858,1063.1563,1003.4858,1067.1563,999.4858,1063.1563" style="stroke:#181818;stroke-width:1;"/><line style="stroke:#181818;stroke-width:1;stroke-dasharray:2,2;" x1="997.4858" x2="1402.3076" y1="1063.1563" y2="1063.1563"/><text fill="#000000" font-family="sans-serif" font-size="13" font-weight="bold" lengthAdjust="spacing" textLength="18.0908" x="1009.4858" y="1058.0903">28</text><text fill="#000000" font-family="sans-serif" font-size="13" lengthAdjust="spacing" textLength="130.2222" x="1031.5767" y="1058.0903">Updated enrollment</text></g><g class="message" data-entity-1="part5" data-entity-2="part8" id="msg29"><polygon fill="#181818" points="1612.9536,1088.2891,1622.9536,1092.2891,1612.9536,1096.2891,1616.9536,1092.2891" style="stroke:#181818;stroke-width:1;"/><line style="stroke:#181818;stroke-width:1;" x1="992.4858" x2="1618.9536" y1="1092.2891" y2="1092.2891"/><text fill="#000000" font-family="sans-serif" font-size="13" font-weight="bold" lengthAdjust="spacing" textLength="18.0908" x="999.4858" y="1087.2231">29</text><text fill="#000000" font-family="sans-serif" font-size="13" lengthAdjust="spacing" textLength="121.9702" x="1021.5767" y="1087.2231">Update enrollment</text></g><g class="message" data-entity-1="part8" data-entity-2="part5" id="msg30"><polygon fill="#181818" points="1003.4858,1117.4219,993.4858,1121.4219,1003.4858,1125.4219,999.4858,1121.4219" style="stroke:#181818;stroke-width:1;"/><line style="stroke:#181818;stroke-width:1;stroke-dasharray:2,2;" x1="997.4858" x2="1628.9536" y1="1121.4219" y2="1121.4219"/><text fill="#000000" font-family="sans-serif" font-size="13" font-weight="bold" lengthAdjust="spacing" textLength="18.0908" x="1009.4858" y="1116.356">30</text><text fill="#000000" font-family="sans-serif" font-size="13" lengthAdjust="spacing" textLength="52.3301" x="1031.5767" y="1116.356">Success</text></g><g class="message" data-entity-1="part5" data-entity-2="part4" id="msg31"><polygon fill="#181818" points="754.6567,1161.6875,744.6567,1165.6875,754.6567,1169.6875,750.6567,1165.6875" style="stroke:#181818;stroke-width:1;"/><line style="stroke:#181818;stroke-width:1;stroke-dasharray:2,2;" x1="748.6567" x2="986.4858" y1="1165.6875" y2="1165.6875"/><text fill="#000000" font-family="sans-serif" font-size="13" font-weight="bold" lengthAdjust="spacing" textLength="18.0908" x="760.6567" y="1153.0552">31</text><text fill="#000000" font-family="sans-serif" font-size="13" lengthAdjust="spacing" textLength="111.522" x="782.7476" y="1145.4888">FinishCourseDTO</text><text fill="#000000" font-family="sans-serif" font-size="13" lengthAdjust="spacing" textLength="185.4531" x="782.7476" y="1160.6216">{certificateId, completedAt}</text></g><g class="message" data-entity-1="part4" data-entity-2="part3" id="msg32"><polygon fill="#181818" points="605.8057,1190.8203,595.8057,1194.8203,605.8057,1198.8203,601.8057,1194.8203" style="stroke:#181818;stroke-width:1;"/><line style="stroke:#181818;stroke-width:1;stroke-dasharray:2,2;" x1="599.8057" x2="742.6567" y1="1194.8203" y2="1194.8203"/><text fill="#000000" font-family="sans-serif" font-size="13" font-weight="bold" lengthAdjust="spacing" textLength="18.0908" x="611.8057" y="1189.7544">32</text><text fill="#000000" font-family="sans-serif" font-size="13" lengthAdjust="spacing" textLength="47.7026" x="633.8965" y="1189.7544">200 OK</text></g><g class="message" data-entity-1="part3" data-entity-2="part2" id="msg33"><polygon fill="#181818" points="354.8589,1219.9531,344.8589,1223.9531,354.8589,1227.9531,350.8589,1223.9531" style="stroke:#181818;stroke-width:1;"/><line style="stroke:#181818;stroke-width:1;stroke-dasharray:2,2;" x1="348.8589" x2="593.8057" y1="1223.9531" y2="1223.9531"/><text fill="#000000" font-family="sans-serif" font-size="13" font-weight="bold" lengthAdjust="spacing" textLength="18.0908" x="360.8589" y="1218.8872">33</text><text fill="#000000" font-family="sans-serif" font-size="13" lengthAdjust="spacing" textLength="123.7031" x="382.9497" y="1218.8872">Course completed!</text></g><g class="message" data-entity-1="part2" data-entity-2="part1" id="msg34"><polygon fill="#181818" points="70.9951,1264.2188,60.9951,1268.2188,70.9951,1272.2188,66.9951,1268.2188" style="stroke:#181818;stroke-width:1;"/><line style="stroke:#181818;stroke-width:1;" x1="64.9951" x2="342.8589" y1="1268.2188" y2="1268.2188"/><text fill="#000000" font-family="sans-serif" font-size="13" font-weight="bold" lengthAdjust="spacing" textLength="18.0908" x="76.9951" y="1255.5864">34</text><text fill="#000000" font-family="sans-serif" font-size="13" lengthAdjust="spacing" textLength="185.2817" x="99.0859" y="1248.02">Show congratulations modal</text><text fill="#000000" font-family="sans-serif" font-size="13" lengthAdjust="spacing" textLength="124.4331" x="99.0859" y="1263.1528">with certificate link</text></g><?plantuml-src dLLHRzem47xFhxWnJMgbLMNJdj0s2K9QTOi66cpHfBwOs81LOpFRAKLL__lEJaWSIDLg3qYnVT_dxxux7wImIXQR1TDHPEwut19DDZ1I3rD2APSh-D2F8f9RfI5bH4kcWHX8euKg92Lw3nbR3BTRjvaD8zn-WDvmUWFNnB8TsVVWRSfNQpiI1Oi0SYMjLk8e1B7NMSGa1OHN7B4gj64mO_gUv-n0yuS9eNO1KHaMbojHYelZau1AOJp44oOjjtk8cRPyoNCKuOzmsHmcqj5jSENE4ZoWn985GKKbuNZaGUDH8pk5Yw_emG0ZDbl1a5OGOq4mOvHq5l9xTrVQV3h3ig63NMS3c4vcSxZCFRsvV2m_RkZJvP9BRjOD3BswpWwetqHmwdQ_PVDgEuu7SANqZcWAclqjcB4D6Cs9ujY7eTGhJrscT7QuyJqKXkcRyNc0GgMnLuefOuP4v8Lm1oK6jbgjD2OQ8D0Q_DMGMP8cyHpZIs_m4gii4PKznh5_lhWeOwSL6nXBh8aeQx4UX3Ydroo_0xwixuSlsA_zTzYnmbQL0gaiB0iXzitbM4_qmD-7B9_wVHWH2ZzBhsvbxtba3w7eieUYpOdMIhlkOA71W9Nr8Qv07I5OG1-2MQG367Ep5MJlMhxg6o9gNs39jR6zDZuRjjTfn4JTcLsv1fNpZh47Rgnxt7dp232kRJEkdOdXCn6Q4ReluGO3F7LTjgIRjUqECdjSOtzmmtW-WRE3k7CV69Zz4Uiq-Nx26FkTmF5GidksnmXlVqS1s2lqU-kFpCUfuUp_eK8Wx9azSKXYQReSEGIwAY45fe16kxCZ8Gsed5RWFnhOZ5dWnXIC3Yq-XH-JxEoy9Q8a3rIMy-v4awCFHVaNJExPYJMdXGtI3IyoYAOlv9uCuDUMbh8EyxTzI-ANIHNiqgtxl3lZcf8USmOoafDSNv3HbUoio7Ct0PzDiUduSEfYoz_Any1MDt-3f9vE28V__IxA-L2Jl-bu6EsNCLkhdVidNMbYtRpdRY9j52NYLkwuNRSQNd1vzyhd8gdxsup-0G00?></g></svg>