<?plantuml 1.2026.1?><svg xmlns="http://www.w3.org/2000/svg" xmlns:xlink="http://www.w3.org/1999/xlink" contentStyleType="text/css" data-diagram-type="SEQUENCE" height="1242px" preserveAspectRatio="none" style="width:1748px;height:1242px;background:#FFFFFF;" version="1.1" viewBox="0 0 1748 1242" width="1748px" zoomAndPan="magnify"><defs/><g><rect fill="#ADD8E6" height="1230.9844" style="stroke:#181818;stroke-width:0.5;" width="102.4434" x="508.7544" y="6"/><text fill="#000000" font-family="sans-serif" font-size="13" font-weight="bold" lengthAdjust="spacing" textLength="92.6821" x="513.635" y="18.0669">API Gateway</text><rect fill="#FFFFE0" height="1230.9844" style="stroke:#181818;stroke-width:0.5;" width="1082.4434" x="643.021" y="6"/><text fill="#000000" font-family="sans-serif" font-size="13" font-weight="bold" lengthAdjust="spacing" textLength="109.2622" x="1129.6116" y="18.0669">Course Service</text><g><title>Instructor</title><rect fill="#FFFFFF" height="385.7266" style="stroke:#181818;stroke-width:1;" width="10" x="61.9609" y="133.6953"/></g><g><title>WebApp</title><rect fill="#FFFFFF" height="385.7266" style="stroke:#181818;stroke-width:1;" width="10" x="297.7261" y="133.6953"/></g><g><title>API Gateway</title><rect fill="#FFFFFF" height="312.3281" style="stroke:#181818;stroke-width:1;" width="10" x="554.9761" y="177.9609"/></g><g><title>LessonController</title><rect fill="#FFFFFF" height="211.9297" style="stroke:#181818;stroke-width:1;" width="10" x="703.8271" y="249.2266"/></g><g><title>CourseApp</title><rect fill="#FFFFFF" height="759.9297" style="stroke:#181818;stroke-width:1;" width="10" x="1154.96" y="278.3594"/></g><g><title>Lesson</title><rect fill="#FFFFFF" height="71.2656" style="stroke:#181818;stroke-width:1;" width="10" x="1417.1802" y="821.3594"/></g><g><title>CourseDB</title><rect fill="#FFFFFF" height="29.1328" style="stroke:#181818;stroke-width:1;" width="10" x="1678.8335" y="307.4922"/></g><g><title>CourseDB</title><rect fill="#FFFFFF" height="53.2656" style="stroke:#181818;stroke-width:1;" width="10" x="1678.8335" y="578.4922"/></g><g><title>CourseDB</title><rect fill="#FFFFFF" height="29.1328" style="stroke:#181818;stroke-width:1;" width="10" x="1678.8335" y="921.7578"/></g><g><title>CourseDB</title><rect fill="#FFFFFF" height="29.1328" style="stroke:#181818;stroke-width:1;" width="10" x="1678.8335" y="980.0234"/></g><rect fill="none" height="746.9297" style="stroke:#000000;stroke-width:1.5;" width="1731.4644" x="10" y="393.7578"/><rect fill="none" height="540.1953" style="stroke:#000000;stroke-width:1.5;" width="1711.4644" x="20" y="593.4922"/><g class="participant-lifeline" data-entity-uid="part1" data-qualified-name="I" id="part1-lifeline"><g><title>Instructor</title><rect fill="#000000" fill-opacity="0.00000" height="1070.2578" width="8" x="62.9609" y="87.4297"/><line style="stroke:#181818;stroke-width:0.5;stroke-dasharray:5,5;" x1="66" x2="66" y1="87.4297" y2="1157.6875"/></g></g><g class="participant-lifeline" data-entity-uid="part2" data-qualified-name="WA" id="part2-lifeline"><g><title>WebApp</title><rect fill="#000000" fill-opacity="0.00000" height="1070.2578" width="8" x="298.7261" y="87.4297"/><line style="stroke:#181818;stroke-width:0.5;stroke-dasharray:5,5;" x1="302.3794" x2="302.3794" y1="87.4297" y2="1157.6875"/></g></g><g class="participant-lifeline" data-entity-uid="part3" data-qualified-name="GW" id="part3-lifeline"><g><title>API Gateway</title><rect fill="#000000" fill-opacity="0.00000" height="1070.2578" width="8" x="555.9761" y="87.4297"/><line style="stroke:#181818;stroke-width:0.5;stroke-dasharray:5,5;" x1="559.7544" x2="559.7544" y1="87.4297" y2="1157.6875"/></g></g><g class="participant-lifeline" data-entity-uid="part4" data-qualified-name="LC" id="part4-lifeline"><g><title>LessonController</title><rect fill="#000000" fill-opacity="0.00000" height="1070.2578" width="8" x="704.8271" y="87.4297"/><line style="stroke:#181818;stroke-width:0.5;stroke-dasharray:5,5;" x1="708.021" x2="708.021" y1="87.4297" y2="1157.6875"/></g></g><g class="participant-lifeline" data-entity-uid="part5" data-qualified-name="CA" id="part5-lifeline"><g><title>CourseApp</title><rect fill="#000000" fill-opacity="0.00000" height="1070.2578" width="8" x="1155.96" y="87.4297"/><line style="stroke:#181818;stroke-width:0.5;stroke-dasharray:5,5;" x1="1159.8462" x2="1159.8462" y1="87.4297" y2="1157.6875"/></g></g><g class="participant-lifeline" data-entity-uid="part6" data-qualified-name="L" id="part6-lifeline"><g><title>Lesson</title><rect fill="#000000" fill-opacity="0.00000" height="1070.2578" width="8" x="1418.1802" y="87.4297"/><line style="stroke:#181818;stroke-width:0.5;stroke-dasharray:5,5;" x1="1421.9604" x2="1421.9604" y1="87.4297" y2="1157.6875"/></g></g><g class="participant-lifeline" data-entity-uid="part7" data-qualified-name="CDB" id="part7-lifeline"><g><title>CourseDB</title><rect fill="#000000" fill-opacity="0.00000" height="1070.2578" width="8" x="1679.8335" y="87.4297"/><line style="stroke:#181818;stroke-width:0.5;stroke-dasharray:5,5;" x1="1683.2026" x2="1683.2026" y1="87.4297" y2="1157.6875"/></g></g><g class="participant participant-head" data-entity-uid="part1" data-qualified-name="I" id="part1-head"><text fill="#000000" font-family="sans-serif" font-size="14" lengthAdjust="spacing" textLength="67.9219" x="30" y="84.1279">Instructor</text><ellipse cx="66.9609" cy="19.6328" fill="#E2E2F0" rx="8" ry="8" style="stroke:#181818;stroke-width:0.5;"/><path d="M66.9609,27.6328 L66.9609,54.6328 M53.9609,35.6328 L79.9609,35.6328 M66.9609,54.6328 L53.9609,69.6328 M66.9609,54.6328 L79.9609,69.6328" fill="none" style="stroke:#181818;stroke-width:0.5;"/></g><g class="participant participant-tail" data-entity-uid="part1" data-qualified-name="I" id="part1-tail"><text fill="#000000" font-family="sans-serif" font-size="14" lengthAdjust="spacing" textLength="67.9219" x="30" y="1169.6826">Instructor</text><ellipse cx="66.9609" cy="1181.4844" fill="#E2E2F0" rx="8" ry="8" style="stroke:#181818;stroke-width:0.5;"/><path d="M66.9609,1189.4844 L66.9609,1216.4844 M53.9609,1197.4844 L79.9609,1197.4844 M66.9609,1216.4844 L53.9609,1231.4844 M66.9609,1216.4844 L79.9609,1231.4844" fill="none" style="stroke:#181818;stroke-width:0.5;"/></g><g class="participant participant-head" data-entity-uid="part2" data-qualified-name="WA" id="part2-head"><text fill="#000000" font-family="sans-serif" font-size="14" lengthAdjust="spacing" textLength="58.6934" x="270.3794" y="84.1279">WebApp</text><path d="M282.2261,43.1328 L282.2261,67.1328 M282.2261,55.1328 L299.2261,55.1328" fill="none" style="stroke:#181818;stroke-width:0.5;"/><ellipse cx="311.2261" cy="55.1328" fill="#E2E2F0" rx="12" ry="12" style="stroke:#181818;stroke-width:0.5;"/></g><g class="participant participant-tail" data-entity-uid="part2" data-qualified-name="WA" id="part2-tail"><text fill="#000000" font-family="sans-serif" font-size="14" lengthAdjust="spacing" textLength="58.6934" x="270.3794" y="1169.6826">WebApp</text><path d="M282.2261,1176.9844 L282.2261,1200.9844 M282.2261,1188.9844 L299.2261,1188.9844" fill="none" style="stroke:#181818;stroke-width:0.5;"/><ellipse cx="311.2261" cy="1188.9844" fill="#E2E2F0" rx="12" ry="12" style="stroke:#181818;stroke-width:0.5;"/></g><g class="participant participant-head" data-entity-uid="part3" data-qualified-name="GW" id="part3-head"><text fill="#000000" font-family="sans-serif" font-size="14" lengthAdjust="spacing" textLength="88.4434" x="512.7544" y="84.1279">API Gateway</text><ellipse cx="559.9761" cy="55.1328" fill="#E2E2F0" rx="12" ry="12" style="stroke:#181818;stroke-width:0.5;"/><polygon fill="#181818" points="555.9761,43.1328,561.9761,38.1328,559.9761,43.1328,561.9761,48.1328,555.9761,43.1328" style="stroke:#181818;stroke-width:1;"/></g><g class="participant participant-tail" data-entity-uid="part3" data-qualified-name="GW" id="part3-tail"><text fill="#000000" font-family="sans-serif" font-size="14" lengthAdjust="spacing" textLength="88.4434" x="512.7544" y="1169.6826">API Gateway</text><ellipse cx="559.9761" cy="1188.9844" fill="#E2E2F0" rx="12" ry="12" style="stroke:#181818;stroke-width:0.5;"/><polygon fill="#181818" points="555.9761,1176.9844,561.9761,1171.9844,559.9761,1176.9844,561.9761,1181.9844,555.9761,1176.9844" style="stroke:#181818;stroke-width:1;"/></g><g class="participant participant-head" data-entity-uid="part4" data-qualified-name="LC" id="part4-head"><text fill="#000000" font-family="sans-serif" font-size="14" lengthAdjust="spacing" textLength="117.6123" x="647.021" y="84.1279">LessonController</text><ellipse cx="708.8271" cy="55.1328" fill="#E2E2F0" rx="12" ry="12" style="stroke:#181818;stroke-width:0.5;"/><polygon fill="#181818" points="704.8271,43.1328,710.8271,38.1328,708.8271,43.1328,710.8271,48.1328,704.8271,43.1328" style="stroke:#181818;stroke-width:1;"/></g><g class="participant participant-tail" data-entity-uid="part4" data-qualified-name="LC" id="part4-tail"><text fill="#000000" font-family="sans-serif" font-size="14" lengthAdjust="spacing" textLength="117.6123" x="647.021" y="1169.6826">LessonController</text><ellipse cx="708.8271" cy="1188.9844" fill="#E2E2F0" rx="12" ry="12" style="stroke:#181818;stroke-width:0.5;"/><polygon fill="#181818" points="704.8271,1176.9844,710.8271,1171.9844,708.8271,1176.9844,710.8271,1181.9844,704.8271,1176.9844" style="stroke:#181818;stroke-width:1;"/></g><g class="participant participant-head" data-entity-uid="part5" data-qualified-name="CA" id="part5-head"><text fill="#000000" font-family="sans-serif" font-size="14" lengthAdjust="spacing" textLength="76.2275" x="1118.8462" y="84.1279">CourseApp</text><ellipse cx="1159.96" cy="55.1328" fill="#E2E2F0" rx="12" ry="12" style="stroke:#181818;stroke-width:0.5;"/><polygon fill="#181818" points="1155.96,43.1328,1161.96,38.1328,1159.96,43.1328,1161.96,48.1328,1155.96,43.1328" style="stroke:#181818;stroke-width:1;"/></g><g class="participant participant-tail" data-entity-uid="part5" data-qualified-name="CA" id="part5-tail"><text fill="#000000" font-family="sans-serif" font-size="14" lengthAdjust="spacing" textLength="76.2275" x="1118.8462" y="1169.6826">CourseApp</text><ellipse cx="1159.96" cy="1188.9844" fill="#E2E2F0" rx="12" ry="12" style="stroke:#181818;stroke-width:0.5;"/><polygon fill="#181818" points="1155.96,1176.9844,1161.96,1171.9844,1159.96,1176.9844,1161.96,1181.9844,1155.96,1176.9844" style="stroke:#181818;stroke-width:1;"/></g><g class="participant participant-head" data-entity-uid="part6" data-qualified-name="L" id="part6-head"><text fill="#000000" font-family="sans-serif" font-size="14" lengthAdjust="spacing" textLength="48.4395" x="1394.9604" y="84.1279">Lesson</text><ellipse cx="1422.1802" cy="55.1328" fill="#E2E2F0" rx="12" ry="12" style="stroke:#181818;stroke-width:0.5;"/><line style="stroke:#181818;stroke-width:0.5;" x1="1410.1802" x2="1434.1802" y1="69.1328" y2="69.1328"/></g><g class="participant participant-tail" data-entity-uid="part6" data-qualified-name="L" id="part6-tail"><text fill="#000000" font-family="sans-serif" font-size="14" lengthAdjust="spacing" textLength="48.4395" x="1394.9604" y="1169.6826">Lesson</text><ellipse cx="1422.1802" cy="1188.9844" fill="#E2E2F0" rx="12" ry="12" style="stroke:#181818;stroke-width:0.5;"/><line style="stroke:#181818;stroke-width:0.5;" x1="1410.1802" x2="1434.1802" y1="1202.9844" y2="1202.9844"/></g><g class="participant participant-head" data-entity-uid="part7" data-qualified-name="CDB" id="part7-head"><text fill="#000000" font-family="sans-serif" font-size="14" lengthAdjust="spacing" textLength="69.2617" x="1646.2026" y="84.1279">CourseDB</text><path d="M1665.8335,35.1328 C1665.8335,25.1328 1683.8335,25.1328 1683.8335,25.1328 C1683.8335,25.1328 1701.8335,25.1328 1701.8335,35.1328 L1701.8335,61.1328 C1701.8335,71.1328 1683.8335,71.1328 1683.8335,71.1328 C1683.8335,71.1328 1665.8335,71.1328 1665.8335,61.1328 L1665.8335,35.1328" fill="#E2E2F0" style="stroke:#181818;stroke-width:0.5;"/><path d="M1665.8335,35.1328 C1665.8335,45.1328 1683.8335,45.1328 1683.8335,45.1328 C1683.8335,45.1328 1701.8335,45.1328 1701.8335,35.1328" fill="none" style="stroke:#181818;stroke-width:0.5;"/></g><g class="participant participant-tail" data-entity-uid="part7" data-qualified-name="CDB" id="part7-tail"><text fill="#000000" font-family="sans-serif" font-size="14" lengthAdjust="spacing" textLength="69.2617" x="1646.2026" y="1169.6826">CourseDB</text><path d="M1665.8335,1182.9844 C1665.8335,1172.9844 1683.8335,1172.9844 1683.8335,1172.9844 C1683.8335,1172.9844 1701.8335,1172.9844 1701.8335,1182.9844 L1701.8335,1208.9844 C1701.8335,1218.9844 1683.8335,1218.9844 1683.8335,1218.9844 C1683.8335,1218.9844 1665.8335,1218.9844 1665.8335,1208.9844 L1665.8335,1182.9844" fill="#E2E2F0" style="stroke:#181818;stroke-width:0.5;"/><path d="M1665.8335,1182.9844 C1665.8335,1192.9844 1683.8335,1192.9844 1683.8335,1192.9844 C1683.8335,1192.9844 1701.8335,1192.9844 1701.8335,1182.9844" fill="none" style="stroke:#181818;stroke-width:0.5;"/></g><g><title>Instructor</title><rect fill="#FFFFFF" height="385.7266" style="stroke:#181818;stroke-width:1;" width="10" x="61.9609" y="133.6953"/></g><g><title>WebApp</title><rect fill="#FFFFFF" height="385.7266" style="stroke:#181818;stroke-width:1;" width="10" x="297.7261" y="133.6953"/></g><g><title>API Gateway</title><rect fill="#FFFFFF" height="312.3281" style="stroke:#181818;stroke-width:1;" width="10" x="554.9761" y="177.9609"/></g><g><title>LessonController</title><rect fill="#FFFFFF" height="211.9297" style="stroke:#181818;stroke-width:1;" width="10" x="703.8271" y="249.2266"/></g><g><title>CourseApp</title><rect fill="#FFFFFF" height="759.9297" style="stroke:#181818;stroke-width:1;" width="10" x="1154.96" y="278.3594"/></g><g><title>Lesson</title><rect fill="#FFFFFF" height="71.2656" style="stroke:#181818;stroke-width:1;" width="10" x="1417.1802" y="821.3594"/></g><g><title>CourseDB</title><rect fill="#FFFFFF" height="29.1328" style="stroke:#181818;stroke-width:1;" width="10" x="1678.8335" y="307.4922"/></g><g><title>CourseDB</title><rect fill="#FFFFFF" height="53.2656" style="stroke:#181818;stroke-width:1;" width="10" x="1678.8335" y="578.4922"/></g><g><title>CourseDB</title><rect fill="#FFFFFF" height="29.1328" style="stroke:#181818;stroke-width:1;" width="10" x="1678.8335" y="921.7578"/></g><g><title>CourseDB</title><rect fill="#FFFFFF" height="29.1328" style="stroke:#181818;stroke-width:1;" width="10" x="1678.8335" y="980.0234"/></g><g class="message" data-entity-1="part1" data-entity-2="part2" id="msg1"><polygon fill="#181818" points="285.7261,129.6953,295.7261,133.6953,285.7261,137.6953,289.7261,133.6953" style="stroke:#181818;stroke-width:1;"/><line style="stroke:#181818;stroke-width:1;" x1="71.9609" x2="291.7261" y1="133.6953" y2="133.6953"/><text fill="#000000" font-family="sans-serif" font-size="13" font-weight="bold" lengthAdjust="spacing" textLength="9.0454" x="78.9609" y="121.063">1</text><text fill="#000000" font-family="sans-serif" font-size="13" lengthAdjust="spacing" textLength="180.8638" x="92.0063" y="113.4966">Drag lesson to new position</text><text fill="#000000" font-family="sans-serif" font-size="13" lengthAdjust="spacing" textLength="173.7544" x="92.0063" y="128.6294">(same or different section)</text></g><g class="message" data-entity-1="part2" data-entity-2="part3" id="msg2"><polygon fill="#181818" points="542.9761,173.9609,552.9761,177.9609,542.9761,181.9609,546.9761,177.9609" style="stroke:#181818;stroke-width:1;"/><line style="stroke:#181818;stroke-width:1;" x1="307.7261" x2="548.9761" y1="177.9609" y2="177.9609"/><text fill="#000000" font-family="sans-serif" font-size="13" font-weight="bold" lengthAdjust="spacing" textLength="9.0454" x="314.7261" y="165.3286">2</text><text fill="#000000" font-family="sans-serif" font-size="13" lengthAdjust="spacing" textLength="215.2046" x="327.7715" y="157.7622">PATCH /lessons/{lessonId}/move</text><text fill="#000000" font-family="sans-serif" font-size="13" lengthAdjust="spacing" textLength="188.9888" x="327.7715" y="172.895">{targetSectionId, newOrder}</text></g><g class="message" data-entity-1="part3" data-entity-2="part3" id="msg3"><line style="stroke:#181818;stroke-width:1;" x1="564.9761" x2="606.9761" y1="207.0938" y2="207.0938"/><line style="stroke:#181818;stroke-width:1;" x1="606.9761" x2="606.9761" y1="207.0938" y2="220.0938"/><line style="stroke:#181818;stroke-width:1;" x1="565.9761" x2="606.9761" y1="220.0938" y2="220.0938"/><polygon fill="#181818" points="575.9761,216.0938,565.9761,220.0938,575.9761,224.0938,571.9761,220.0938" style="stroke:#181818;stroke-width:1;"/><text fill="#000000" font-family="sans-serif" font-size="13" font-weight="bold" lengthAdjust="spacing" textLength="9.0454" x="571.9761" y="202.0278">3</text><text fill="#000000" font-family="sans-serif" font-size="13" lengthAdjust="spacing" textLength="82.1577" x="585.0215" y="202.0278">Validate JWT</text></g><g class="message" data-entity-1="part3" data-entity-2="part4" id="msg4"><polygon fill="#181818" points="691.8271,245.2266,701.8271,249.2266,691.8271,253.2266,695.8271,249.2266" style="stroke:#181818;stroke-width:1;"/><line style="stroke:#181818;stroke-width:1;" x1="564.9761" x2="697.8271" y1="249.2266" y2="249.2266"/><text fill="#000000" font-family="sans-serif" font-size="13" font-weight="bold" lengthAdjust="spacing" textLength="9.0454" x="571.9761" y="244.1606">4</text><text fill="#000000" font-family="sans-serif" font-size="13" lengthAdjust="spacing" textLength="106.8057" x="585.0215" y="244.1606">Forward request</text></g><g class="message" data-entity-1="part4" data-entity-2="part5" id="msg5"><polygon fill="#181818" points="1142.96,274.3594,1152.96,278.3594,1142.96,282.3594,1146.96,278.3594" style="stroke:#181818;stroke-width:1;"/><line style="stroke:#181818;stroke-width:1;" x1="713.8271" x2="1148.96" y1="278.3594" y2="278.3594"/><text fill="#000000" font-family="sans-serif" font-size="13" font-weight="bold" lengthAdjust="spacing" textLength="9.0454" x="720.8271" y="273.2935">5</text><text fill="#000000" font-family="sans-serif" font-size="13" lengthAdjust="spacing" textLength="409.0874" x="733.8726" y="273.2935">MoveLesson(lessonId, targetSectionId, newOrder, instructorID)</text></g><g class="message" data-entity-1="part5" data-entity-2="part7" id="msg6"><polygon fill="#181818" points="1666.8335,303.4922,1676.8335,307.4922,1666.8335,311.4922,1670.8335,307.4922" style="stroke:#181818;stroke-width:1;"/><line style="stroke:#181818;stroke-width:1;" x1="1164.96" x2="1672.8335" y1="307.4922" y2="307.4922"/><text fill="#000000" font-family="sans-serif" font-size="13" font-weight="bold" lengthAdjust="spacing" textLength="9.0454" x="1171.96" y="302.4263">6</text><text fill="#000000" font-family="sans-serif" font-size="13" lengthAdjust="spacing" textLength="180.8765" x="1185.0054" y="302.4263">Find lesson with course info</text></g><g class="message" data-entity-1="part7" data-entity-2="part5" id="msg7"><polygon fill="#181818" points="1175.96,332.625,1165.96,336.625,1175.96,340.625,1171.96,336.625" style="stroke:#181818;stroke-width:1;"/><line style="stroke:#181818;stroke-width:1;stroke-dasharray:2,2;" x1="1169.96" x2="1682.8335" y1="336.625" y2="336.625"/><text fill="#000000" font-family="sans-serif" font-size="13" font-weight="bold" lengthAdjust="spacing" textLength="9.0454" x="1181.96" y="331.5591">7</text><text fill="#000000" font-family="sans-serif" font-size="13" lengthAdjust="spacing" textLength="78.3936" x="1195.0054" y="331.5591">Lesson data</text></g><g class="message" data-entity-1="part5" data-entity-2="part5" id="msg8"><line style="stroke:#181818;stroke-width:1;" x1="1164.96" x2="1206.96" y1="365.7578" y2="365.7578"/><line style="stroke:#181818;stroke-width:1;" x1="1206.96" x2="1206.96" y1="365.7578" y2="378.7578"/><line style="stroke:#181818;stroke-width:1;" x1="1165.96" x2="1206.96" y1="378.7578" y2="378.7578"/><polygon fill="#181818" points="1175.96,374.7578,1165.96,378.7578,1175.96,382.7578,1171.96,378.7578" style="stroke:#181818;stroke-width:1;"/><text fill="#000000" font-family="sans-serif" font-size="13" font-weight="bold" lengthAdjust="spacing" textLength="9.0454" x="1171.96" y="360.6919">8</text><text fill="#000000" font-family="sans-serif" font-size="13" lengthAdjust="spacing" textLength="176.2744" x="1185.0054" y="360.6919">Verify instructor ownership</text></g><path d="M10,393.7578 L74.4429,393.7578 L74.4429,400.8906 L64.4429,410.8906 L10,410.8906 L10,393.7578" fill="#EEEEEE" style="stroke:#000000;stroke-width:1.5;"/><rect fill="none" height="746.9297" style="stroke:#000000;stroke-width:1.5;" width="1731.4644" x="10" y="393.7578"/><text fill="#000000" font-family="sans-serif" font-size="13" font-weight="bold" lengthAdjust="spacing" textLength="19.4429" x="25" y="406.8247">alt</text><text fill="#000000" font-family="sans-serif" font-size="11" font-weight="bold" lengthAdjust="spacing" textLength="119.5122" x="89.4429" y="405.9683">[Not course owner]</text><g class="message" data-entity-1="part5" data-entity-2="part4" id="msg9"><polygon fill="#181818" points="724.8271,428.0234,714.8271,432.0234,724.8271,436.0234,720.8271,432.0234" style="stroke:#181818;stroke-width:1;"/><line style="stroke:#181818;stroke-width:1;stroke-dasharray:2,2;" x1="718.8271" x2="1153.96" y1="432.0234" y2="432.0234"/><text fill="#000000" font-family="sans-serif" font-size="13" font-weight="bold" lengthAdjust="spacing" textLength="9.0454" x="730.8271" y="426.9575">9</text><text fill="#000000" font-family="sans-serif" font-size="13" lengthAdjust="spacing" textLength="94.3262" x="743.8726" y="426.9575">403 Forbidden</text></g><g class="message" data-entity-1="part4" data-entity-2="part3" id="msg10"><polygon fill="#181818" points="575.9761,457.1563,565.9761,461.1563,575.9761,465.1563,571.9761,461.1563" style="stroke:#181818;stroke-width:1;"/><line style="stroke:#181818;stroke-width:1;stroke-dasharray:2,2;" x1="569.9761" x2="707.8271" y1="461.1563" y2="461.1563"/><text fill="#000000" font-family="sans-serif" font-size="13" font-weight="bold" lengthAdjust="spacing" textLength="18.0908" x="581.9761" y="456.0903">10</text><text fill="#000000" font-family="sans-serif" font-size="13" lengthAdjust="spacing" textLength="32.2017" x="604.0669" y="456.0903">Error</text></g><g class="message" data-entity-1="part3" data-entity-2="part2" id="msg11"><polygon fill="#181818" points="318.7261,486.2891,308.7261,490.2891,318.7261,494.2891,314.7261,490.2891" style="stroke:#181818;stroke-width:1;"/><line style="stroke:#181818;stroke-width:1;stroke-dasharray:2,2;" x1="312.7261" x2="558.9761" y1="490.2891" y2="490.2891"/><text fill="#000000" font-family="sans-serif" font-size="13" font-weight="bold" lengthAdjust="spacing" textLength="18.0908" x="324.7261" y="485.2231">11</text><text fill="#000000" font-family="sans-serif" font-size="13" lengthAdjust="spacing" textLength="32.2017" x="346.8169" y="485.2231">Error</text></g><g class="message" data-entity-1="part2" data-entity-2="part1" id="msg12"><polygon fill="#181818" points="77.9609,515.4219,67.9609,519.4219,77.9609,523.4219,73.9609,519.4219" style="stroke:#181818;stroke-width:1;"/><line style="stroke:#181818;stroke-width:1;" x1="71.9609" x2="301.7261" y1="519.4219" y2="519.4219"/><text fill="#000000" font-family="sans-serif" font-size="13" font-weight="bold" lengthAdjust="spacing" textLength="18.0908" x="83.9609" y="514.356">12</text><text fill="#000000" font-family="sans-serif" font-size="13" lengthAdjust="spacing" textLength="84.0366" x="106.0518" y="514.356">Display error</text></g><line style="stroke:#000000;stroke-width:1;stroke-dasharray:2,2;" x1="10" x2="1741.4644" y1="528.4219" y2="528.4219"/><text fill="#000000" font-family="sans-serif" font-size="11" font-weight="bold" lengthAdjust="spacing" textLength="62.96" x="15" y="538.6323">[Is owner]</text><g class="message" data-entity-1="part5" data-entity-2="part7" id="msg13"><polygon fill="#181818" points="1666.8335,574.4922,1676.8335,578.4922,1666.8335,582.4922,1670.8335,578.4922" style="stroke:#181818;stroke-width:1;"/><line style="stroke:#181818;stroke-width:1;" x1="1164.96" x2="1672.8335" y1="578.4922" y2="578.4922"/><text fill="#000000" font-family="sans-serif" font-size="13" font-weight="bold" lengthAdjust="spacing" textLength="18.0908" x="1171.96" y="565.8599">13</text><text fill="#000000" font-family="sans-serif" font-size="13" lengthAdjust="spacing" textLength="175.0366" x="1194.0508" y="558.2935">Verify target section exists</text><text fill="#000000" font-family="sans-serif" font-size="13" lengthAdjust="spacing" textLength="183.9741" x="1194.0508" y="573.4263">and belongs to same course</text></g><path d="M20,593.4922 L84.4429,593.4922 L84.4429,600.625 L74.4429,610.625 L20,610.625 L20,593.4922" fill="#EEEEEE" style="stroke:#000000;stroke-width:1.5;"/><rect fill="none" height="540.1953" style="stroke:#000000;stroke-width:1.5;" width="1711.4644" x="20" y="593.4922"/><text fill="#000000" font-family="sans-serif" font-size="13" font-weight="bold" lengthAdjust="spacing" textLength="19.4429" x="35" y="606.5591">alt</text><text fill="#000000" font-family="sans-serif" font-size="11" font-weight="bold" lengthAdjust="spacing" textLength="143.29" x="99.4429" y="605.7026">[Invalid target section]</text><g class="message" data-entity-1="part7" data-entity-2="part5" id="msg14"><polygon fill="#181818" points="1175.96,627.7578,1165.96,631.7578,1175.96,635.7578,1171.96,631.7578" style="stroke:#181818;stroke-width:1;"/><line style="stroke:#181818;stroke-width:1;stroke-dasharray:2,2;" x1="1169.96" x2="1682.8335" y1="631.7578" y2="631.7578"/><text fill="#000000" font-family="sans-serif" font-size="13" font-weight="bold" lengthAdjust="spacing" textLength="18.0908" x="1181.96" y="626.6919">14</text><text fill="#000000" font-family="sans-serif" font-size="13" lengthAdjust="spacing" textLength="156.5586" x="1204.0508" y="626.6919">Not found/wrong course</text></g><g class="message" data-entity-1="part5" data-entity-2="part4" id="msg15"><polygon fill="#181818" points="719.8271,656.8906,709.8271,660.8906,719.8271,664.8906,715.8271,660.8906" style="stroke:#181818;stroke-width:1;"/><line style="stroke:#181818;stroke-width:1;stroke-dasharray:2,2;" x1="713.8271" x2="1153.96" y1="660.8906" y2="660.8906"/><text fill="#000000" font-family="sans-serif" font-size="13" font-weight="bold" lengthAdjust="spacing" textLength="18.0908" x="725.8271" y="655.8247">15</text><text fill="#000000" font-family="sans-serif" font-size="13" lengthAdjust="spacing" textLength="111.6045" x="747.918" y="655.8247">400 Bad Request</text></g><g class="message" data-entity-1="part4" data-entity-2="part3" id="msg16"><polygon fill="#181818" points="570.9761,686.0234,560.9761,690.0234,570.9761,694.0234,566.9761,690.0234" style="stroke:#181818;stroke-width:1;"/><line style="stroke:#181818;stroke-width:1;stroke-dasharray:2,2;" x1="564.9761" x2="707.8271" y1="690.0234" y2="690.0234"/><text fill="#000000" font-family="sans-serif" font-size="13" font-weight="bold" lengthAdjust="spacing" textLength="18.0908" x="576.9761" y="684.9575">16</text><text fill="#000000" font-family="sans-serif" font-size="13" lengthAdjust="spacing" textLength="32.2017" x="599.0669" y="684.9575">Error</text></g><g class="message" data-entity-1="part3" data-entity-2="part2" id="msg17"><polygon fill="#181818" points="313.7261,715.1563,303.7261,719.1563,313.7261,723.1563,309.7261,719.1563" style="stroke:#181818;stroke-width:1;"/><line style="stroke:#181818;stroke-width:1;stroke-dasharray:2,2;" x1="307.7261" x2="558.9761" y1="719.1563" y2="719.1563"/><text fill="#000000" font-family="sans-serif" font-size="13" font-weight="bold" lengthAdjust="spacing" textLength="18.0908" x="319.7261" y="714.0903">17</text><text fill="#000000" font-family="sans-serif" font-size="13" lengthAdjust="spacing" textLength="32.2017" x="341.8169" y="714.0903">Error</text></g><g class="message" data-entity-1="part2" data-entity-2="part1" id="msg18"><polygon fill="#181818" points="77.9609,744.2891,67.9609,748.2891,77.9609,752.2891,73.9609,748.2891" style="stroke:#181818;stroke-width:1;"/><line style="stroke:#181818;stroke-width:1;" x1="71.9609" x2="301.7261" y1="748.2891" y2="748.2891"/><text fill="#000000" font-family="sans-serif" font-size="13" font-weight="bold" lengthAdjust="spacing" textLength="18.0908" x="83.9609" y="743.2231">18</text><text fill="#000000" font-family="sans-serif" font-size="13" lengthAdjust="spacing" textLength="84.0366" x="106.0518" y="743.2231">Display error</text></g><line style="stroke:#000000;stroke-width:1;stroke-dasharray:2,2;" x1="20" x2="1731.4644" y1="757.2891" y2="757.2891"/><text fill="#000000" font-family="sans-serif" font-size="11" font-weight="bold" lengthAdjust="spacing" textLength="132.709" x="25" y="767.4995">[Valid target section]</text><g class="message" data-entity-1="part7" data-entity-2="part5" id="msg19"><polygon fill="#181818" points="1175.96,788.2266,1165.96,792.2266,1175.96,796.2266,1171.96,792.2266" style="stroke:#181818;stroke-width:1;"/><line style="stroke:#181818;stroke-width:1;stroke-dasharray:2,2;" x1="1169.96" x2="1682.8335" y1="792.2266" y2="792.2266"/><text fill="#000000" font-family="sans-serif" font-size="13" font-weight="bold" lengthAdjust="spacing" textLength="18.0908" x="1181.96" y="787.1606">19</text><text fill="#000000" font-family="sans-serif" font-size="13" lengthAdjust="spacing" textLength="128.8193" x="1204.0508" y="787.1606">Target section valid</text></g><g class="message" data-entity-1="part5" data-entity-2="part6" id="msg20"><polygon fill="#181818" points="1405.1802,817.3594,1415.1802,821.3594,1405.1802,825.3594,1409.1802,821.3594" style="stroke:#181818;stroke-width:1;"/><line style="stroke:#181818;stroke-width:1;" x1="1164.96" x2="1411.1802" y1="821.3594" y2="821.3594"/><text fill="#000000" font-family="sans-serif" font-size="13" font-weight="bold" lengthAdjust="spacing" textLength="18.0908" x="1171.96" y="816.2935">20</text><text fill="#000000" font-family="sans-serif" font-size="13" lengthAdjust="spacing" textLength="211.1294" x="1194.0508" y="816.2935">Update lesson section and order</text></g><g class="message" data-entity-1="part6" data-entity-2="part6" id="msg21"><line style="stroke:#181818;stroke-width:1;" x1="1427.1802" x2="1469.1802" y1="850.4922" y2="850.4922"/><line style="stroke:#181818;stroke-width:1;" x1="1469.1802" x2="1469.1802" y1="850.4922" y2="863.4922"/><line style="stroke:#181818;stroke-width:1;" x1="1428.1802" x2="1469.1802" y1="863.4922" y2="863.4922"/><polygon fill="#181818" points="1438.1802,859.4922,1428.1802,863.4922,1438.1802,867.4922,1434.1802,863.4922" style="stroke:#181818;stroke-width:1;"/><text fill="#000000" font-family="sans-serif" font-size="13" font-weight="bold" lengthAdjust="spacing" textLength="18.0908" x="1434.1802" y="845.4263">21</text><text fill="#000000" font-family="sans-serif" font-size="13" lengthAdjust="spacing" textLength="205.5625" x="1456.271" y="845.4263">Set sectionID, recalculate order</text></g><g class="message" data-entity-1="part6" data-entity-2="part5" id="msg22"><polygon fill="#181818" points="1175.96,888.625,1165.96,892.625,1175.96,896.625,1171.96,892.625" style="stroke:#181818;stroke-width:1;"/><line style="stroke:#181818;stroke-width:1;stroke-dasharray:2,2;" x1="1169.96" x2="1421.1802" y1="892.625" y2="892.625"/><text fill="#000000" font-family="sans-serif" font-size="13" font-weight="bold" lengthAdjust="spacing" textLength="18.0908" x="1181.96" y="887.5591">22</text><text fill="#000000" font-family="sans-serif" font-size="13" lengthAdjust="spacing" textLength="100.8135" x="1204.0508" y="887.5591">Updated lesson</text></g><g class="message" data-entity-1="part5" data-entity-2="part7" id="msg23"><polygon fill="#181818" points="1666.8335,917.7578,1676.8335,921.7578,1666.8335,925.7578,1670.8335,921.7578" style="stroke:#181818;stroke-width:1;"/><line style="stroke:#181818;stroke-width:1;" x1="1164.96" x2="1672.8335" y1="921.7578" y2="921.7578"/><text fill="#000000" font-family="sans-serif" font-size="13" font-weight="bold" lengthAdjust="spacing" textLength="18.0908" x="1171.96" y="916.6919">23</text><text fill="#000000" font-family="sans-serif" font-size="13" lengthAdjust="spacing" textLength="138.7344" x="1194.0508" y="916.6919">Update lesson record</text></g><g class="message" data-entity-1="part7" data-entity-2="part5" id="msg24"><polygon fill="#181818" points="1175.96,946.8906,1165.96,950.8906,1175.96,954.8906,1171.96,950.8906" style="stroke:#181818;stroke-width:1;"/><line style="stroke:#181818;stroke-width:1;stroke-dasharray:2,2;" x1="1169.96" x2="1682.8335" y1="950.8906" y2="950.8906"/><text fill="#000000" font-family="sans-serif" font-size="13" font-weight="bold" lengthAdjust="spacing" textLength="18.0908" x="1181.96" y="945.8247">24</text><text fill="#000000" font-family="sans-serif" font-size="13" lengthAdjust="spacing" textLength="52.3301" x="1204.0508" y="945.8247">Success</text></g><g class="message" data-entity-1="part5" data-entity-2="part7" id="msg25"><polygon fill="#181818" points="1666.8335,976.0234,1676.8335,980.0234,1666.8335,984.0234,1670.8335,980.0234" style="stroke:#181818;stroke-width:1;"/><line style="stroke:#181818;stroke-width:1;" x1="1164.96" x2="1672.8335" y1="980.0234" y2="980.0234"/><text fill="#000000" font-family="sans-serif" font-size="13" font-weight="bold" lengthAdjust="spacing" textLength="18.0908" x="1171.96" y="974.9575">25</text><text fill="#000000" font-family="sans-serif" font-size="13" lengthAdjust="spacing" textLength="161.9224" x="1194.0508" y="974.9575">Reorder affected lessons</text></g><g class="message" data-entity-1="part7" data-entity-2="part5" id="msg26"><polygon fill="#181818" points="1175.96,1005.1563,1165.96,1009.1563,1175.96,1013.1563,1171.96,1009.1563" style="stroke:#181818;stroke-width:1;"/><line style="stroke:#181818;stroke-width:1;stroke-dasharray:2,2;" x1="1169.96" x2="1682.8335" y1="1009.1563" y2="1009.1563"/><text fill="#000000" font-family="sans-serif" font-size="13" font-weight="bold" lengthAdjust="spacing" textLength="18.0908" x="1181.96" y="1004.0903">26</text><text fill="#000000" font-family="sans-serif" font-size="13" lengthAdjust="spacing" textLength="52.3301" x="1204.0508" y="1004.0903">Success</text></g><g class="message" data-entity-1="part5" data-entity-2="part4" id="msg27"><polygon fill="#181818" points="719.8271,1034.2891,709.8271,1038.2891,719.8271,1042.2891,715.8271,1038.2891" style="stroke:#181818;stroke-width:1;"/><line style="stroke:#181818;stroke-width:1;stroke-dasharray:2,2;" x1="713.8271" x2="1158.96" y1="1038.2891" y2="1038.2891"/><text fill="#000000" font-family="sans-serif" font-size="13" font-weight="bold" lengthAdjust="spacing" textLength="18.0908" x="725.8271" y="1033.2231">27</text><text fill="#000000" font-family="sans-serif" font-size="13" lengthAdjust="spacing" textLength="124.0396" x="747.918" y="1033.2231">Updated lesson list</text></g><g class="message" data-entity-1="part4" data-entity-2="part3" id="msg28"><polygon fill="#181818" points="570.9761,1063.4219,560.9761,1067.4219,570.9761,1071.4219,566.9761,1067.4219" style="stroke:#181818;stroke-width:1;"/><line style="stroke:#181818;stroke-width:1;stroke-dasharray:2,2;" x1="564.9761" x2="707.8271" y1="1067.4219" y2="1067.4219"/><text fill="#000000" font-family="sans-serif" font-size="13" font-weight="bold" lengthAdjust="spacing" textLength="18.0908" x="576.9761" y="1062.356">28</text><text fill="#000000" font-family="sans-serif" font-size="13" lengthAdjust="spacing" textLength="47.7026" x="599.0669" y="1062.356">200 OK</text></g><g class="message" data-entity-1="part3" data-entity-2="part2" id="msg29"><polygon fill="#181818" points="313.7261,1092.5547,303.7261,1096.5547,313.7261,1100.5547,309.7261,1096.5547" style="stroke:#181818;stroke-width:1;"/><line style="stroke:#181818;stroke-width:1;stroke-dasharray:2,2;" x1="307.7261" x2="558.9761" y1="1096.5547" y2="1096.5547"/><text fill="#000000" font-family="sans-serif" font-size="13" font-weight="bold" lengthAdjust="spacing" textLength="18.0908" x="319.7261" y="1091.4888">29</text><text fill="#000000" font-family="sans-serif" font-size="13" lengthAdjust="spacing" textLength="88.7466" x="341.8169" y="1091.4888">Updated data</text></g><g class="message" data-entity-1="part2" data-entity-2="part1" id="msg30"><polygon fill="#181818" points="77.9609,1121.6875,67.9609,1125.6875,77.9609,1129.6875,73.9609,1125.6875" style="stroke:#181818;stroke-width:1;"/><line style="stroke:#181818;stroke-width:1;" x1="71.9609" x2="301.7261" y1="1125.6875" y2="1125.6875"/><text fill="#000000" font-family="sans-serif" font-size="13" font-weight="bold" lengthAdjust="spacing" textLength="18.0908" x="83.9609" y="1120.6216">30</text><text fill="#000000" font-family="sans-serif" font-size="13" lengthAdjust="spacing" textLength="189.6743" x="106.0518" y="1120.6216">Update UI with new positions</text></g><?plantuml-src fPLTRvim58Rl-HL7tKqdfKhtSHLDamZPChPihPgsQ59l77oIMYCsiqreLFM_xzX0W2HRA-qExFFndiUlWHLMoMAzG1q4vfUGETDi3MFrSCau5t85Ryw3WALMQOYbiRhmZyn072nK8JdJMqXm4UQvMqp2W9OVu2IyZ67AB9PiUmAlPc9rRyTPWG50ggJLAjiBeTnf4g3aGEbrZKWLsY3CKMz4YasPdvXbgkmKcg4nIaRLMuPUt2pg15HrQeLHI3iehR3REjF7qo9dbYqODQpY9sCVFXctgc8u-qWZZc2YsGgoAjiga5X2heomGiaxUMhO6e4WSR5SegPUO31rUwyTIB6XcOdUxj4nIq9NUfgCu3AyZhx0i2fkXe_LGyoVXckrmJlvQ9bUePrN5MC-SDqlD4Vzr9OabDEagNZBCi7TwjVakbwUHIFuh7J9D0UDlmiqjaqcTi4iSc4HZVgTkbQSJXif0_YhXW68dKdYIMTUmXv4VaWYIiq5CQq1biBUqrdvinPogJf919-IFfoTLLdrURc32ZZsmfhYfFWMjLXkEq90bHArkHSvEJcpy4FPff_VeREdUNqNIdz__iwnMGZEKT8M4NDR3jadhPMBxlJsHaigZGxsaH0w31z2ycAoZZ1vnhQ0Xu59s7-F0yn8OsnsCZi4wochasWC1lWWZ3LtaZdBOgRaoZY3UaTM8rELFZXw9oQnt3YRxDMZJTzqTm8EtT9T-s6fgNXRioVSrNLBFQhdC6OShcgtkUqZP0_P7gLxoFSVX0yPxr6cxu7ZVFiI0DTztXxQiV6RH7VPHd2J-mjO6xv9TeUatAtnmUtO5RiwTTvsYoS3kgqfoz8YSu5jRgrmrwcvMmT4kxhyF7rbL9sAzkKqXzcbC2_Ib3AU6To7Ng6N2Oo-XMchpFn_auwx-bD39cg7TTF2VS-z9KjUV7lUT4rn_zbvndirpfku-gfrVmpcXLQKtFrmWZy0?></g></svg>