<?plantuml 1.2026.1?><svg xmlns="http://www.w3.org/2000/svg" xmlns:xlink="http://www.w3.org/1999/xlink" contentStyleType="text/css" data-diagram-type="SEQUENCE" height="1195px" preserveAspectRatio="none" style="width:1946px;height:1195px;background:#FFFFFF;" version="1.1" viewBox="0 0 1946 1195" width="1946px" zoomAndPan="magnify"><defs/><g><rect fill="#ADD8E6" height="1183.0469" style="stroke:#181818;stroke-width:0.5;" width="102.4434" x="524.6108" y="6"/><text fill="#000000" font-family="sans-serif" font-size="13" font-weight="bold" lengthAdjust="spacing" textLength="92.6821" x="529.4915" y="18.0669">API Gateway</text><rect fill="#E0FFFF" height="1183.0469" style="stroke:#181818;stroke-width:0.5;" width="910.3184" x="748.9165" y="6"/><text fill="#000000" font-family="sans-serif" font-size="13" font-weight="bold" lengthAdjust="spacing" textLength="91.1714" x="1158.49" y="18.0669">Blog Service</text><rect fill="#90EE90" height="1183.0469" style="stroke:#181818;stroke-width:0.5;" width="163.502" x="1681.2349" y="6"/><text fill="#000000" font-family="sans-serif" font-size="13" font-weight="bold" lengthAdjust="spacing" textLength="144.498" x="1690.7368" y="18.0669">Notification Service</text><g><title>User</title><rect fill="#FFFFFF" height="473.125" style="stroke:#181818;stroke-width:1;" width="10" x="33.9551" y="118.5625"/></g><g><title>WebApp</title><rect fill="#FFFFFF" height="473.125" style="stroke:#181818;stroke-width:1;" width="10" x="252.9751" y="118.5625"/></g><g><title>API Gateway</title><rect fill="#FFFFFF" height="312.3281" style="stroke:#181818;stroke-width:1;" width="10" x="570.8325" y="250.2266"/></g><g><title>BlogController</title><rect fill="#FFFFFF" height="211.9297" style="stroke:#181818;stroke-width:1;" width="10" x="800.9761" y="321.4922"/></g><g><title>BlogApp</title><rect fill="#FFFFFF" height="462.0625" style="stroke:#181818;stroke-width:1;" width="10" x="1163.4575" y="392.7578"/></g><g><title>Comment</title><rect fill="#FFFFFF" height="131.7969" style="stroke:#181818;stroke-width:1;" width="10" x="1352.0386" y="635.625"/></g><g><title>BlogDB</title><rect fill="#FFFFFF" height="29.1328" style="stroke:#181818;stroke-width:1;" width="10" x="1621.5693" y="421.8906"/></g><g><title>BlogDB</title><rect fill="#FFFFFF" height="29.1328" style="stroke:#181818;stroke-width:1;" width="10" x="1621.5693" y="796.5547"/></g><g><title>NotificationController</title><rect fill="#FFFFFF" height="71.2656" style="stroke:#181818;stroke-width:1;" width="10" x="1757.9858" y="913.0859"/></g><rect fill="none" height="626.7266" style="stroke:#000000;stroke-width:1.5;" width="1929.022" x="10" y="466.0234"/><g class="participant-lifeline" data-entity-uid="part1" data-qualified-name="U" id="part1-lifeline"><g><title>User</title><rect fill="#000000" fill-opacity="0.00000" height="1022.3203" width="8" x="34.9551" y="87.4297"/><line style="stroke:#181818;stroke-width:0.5;stroke-dasharray:5,5;" x1="38" x2="38" y1="87.4297" y2="1109.75"/></g></g><g class="participant-lifeline" data-entity-uid="part2" data-qualified-name="WA" id="part2-lifeline"><g><title>WebApp</title><rect fill="#000000" fill-opacity="0.00000" height="1022.3203" width="8" x="253.9751" y="87.4297"/><line style="stroke:#181818;stroke-width:0.5;stroke-dasharray:5,5;" x1="257.6284" x2="257.6284" y1="87.4297" y2="1109.75"/></g></g><g class="participant-lifeline" data-entity-uid="part3" data-qualified-name="GW" id="part3-lifeline"><g><title>API Gateway</title><rect fill="#000000" fill-opacity="0.00000" height="1022.3203" width="8" x="571.8325" y="87.4297"/><line style="stroke:#181818;stroke-width:0.5;stroke-dasharray:5,5;" x1="575.6108" x2="575.6108" y1="87.4297" y2="1109.75"/></g></g><g class="participant-lifeline" data-entity-uid="part4" data-qualified-name="BC" id="part4-lifeline"><g><title>BlogController</title><rect fill="#000000" fill-opacity="0.00000" height="1022.3203" width="8" x="801.9761" y="87.4297"/><line style="stroke:#181818;stroke-width:0.5;stroke-dasharray:5,5;" x1="805.9165" x2="805.9165" y1="87.4297" y2="1109.75"/></g></g><g class="participant-lifeline" data-entity-uid="part5" data-qualified-name="BA" id="part5-lifeline"><g><title>BlogApp</title><rect fill="#000000" fill-opacity="0.00000" height="1022.3203" width="8" x="1164.4575" y="87.4297"/><line style="stroke:#181818;stroke-width:0.5;stroke-dasharray:5,5;" x1="1168.3091" x2="1168.3091" y1="87.4297" y2="1109.75"/></g></g><g class="participant-lifeline" data-entity-uid="part6" data-qualified-name="C" id="part6-lifeline"><g><title>Comment</title><rect fill="#000000" fill-opacity="0.00000" height="1022.3203" width="8" x="1353.0386" y="87.4297"/><line style="stroke:#181818;stroke-width:0.5;stroke-dasharray:5,5;" x1="1356.7427" x2="1356.7427" y1="87.4297" y2="1109.75"/></g></g><g class="participant-lifeline" data-entity-uid="part7" data-qualified-name="BDB" id="part7-lifeline"><g><title>BlogDB</title><rect fill="#000000" fill-opacity="0.00000" height="1022.3203" width="8" x="1622.5693" y="87.4297"/><line style="stroke:#181818;stroke-width:0.5;stroke-dasharray:5,5;" x1="1625.9038" x2="1625.9038" y1="87.4297" y2="1109.75"/></g></g><g class="participant-lifeline" data-entity-uid="part8" data-qualified-name="NC" id="part8-lifeline"><g><title>NotificationController</title><rect fill="#000000" fill-opacity="0.00000" height="1022.3203" width="8" x="1758.9858" y="87.4297"/><line style="stroke:#181818;stroke-width:0.5;stroke-dasharray:5,5;" x1="1762.2349" x2="1762.2349" y1="87.4297" y2="1109.75"/></g></g><g class="participant participant-head" data-entity-uid="part1" data-qualified-name="U" id="part1-head"><text fill="#000000" font-family="sans-serif" font-size="14" lengthAdjust="spacing" textLength="31.9102" x="20" y="84.1279">User</text><ellipse cx="38.9551" cy="19.6328" fill="#E2E2F0" rx="8" ry="8" style="stroke:#181818;stroke-width:0.5;"/><path d="M38.9551,27.6328 L38.9551,54.6328 M25.9551,35.6328 L51.9551,35.6328 M38.9551,54.6328 L25.9551,69.6328 M38.9551,54.6328 L51.9551,69.6328" fill="none" style="stroke:#181818;stroke-width:0.5;"/></g><g class="participant participant-tail" data-entity-uid="part1" data-qualified-name="U" id="part1-tail"><text fill="#000000" font-family="sans-serif" font-size="14" lengthAdjust="spacing" textLength="31.9102" x="20" y="1121.7451">User</text><ellipse cx="38.9551" cy="1133.5469" fill="#E2E2F0" rx="8" ry="8" style="stroke:#181818;stroke-width:0.5;"/><path d="M38.9551,1141.5469 L38.9551,1168.5469 M25.9551,1149.5469 L51.9551,1149.5469 M38.9551,1168.5469 L25.9551,1183.5469 M38.9551,1168.5469 L51.9551,1183.5469" fill="none" style="stroke:#181818;stroke-width:0.5;"/></g><g class="participant participant-head" data-entity-uid="part2" data-qualified-name="WA" id="part2-head"><text fill="#000000" font-family="sans-serif" font-size="14" lengthAdjust="spacing" textLength="58.6934" x="225.6284" y="84.1279">WebApp</text><path d="M237.4751,43.1328 L237.4751,67.1328 M237.4751,55.1328 L254.4751,55.1328" fill="none" style="stroke:#181818;stroke-width:0.5;"/><ellipse cx="266.4751" cy="55.1328" fill="#E2E2F0" rx="12" ry="12" style="stroke:#181818;stroke-width:0.5;"/></g><g class="participant participant-tail" data-entity-uid="part2" data-qualified-name="WA" id="part2-tail"><text fill="#000000" font-family="sans-serif" font-size="14" lengthAdjust="spacing" textLength="58.6934" x="225.6284" y="1121.7451">WebApp</text><path d="M237.4751,1129.0469 L237.4751,1153.0469 M237.4751,1141.0469 L254.4751,1141.0469" fill="none" style="stroke:#181818;stroke-width:0.5;"/><ellipse cx="266.4751" cy="1141.0469" fill="#E2E2F0" rx="12" ry="12" style="stroke:#181818;stroke-width:0.5;"/></g><g class="participant participant-head" data-entity-uid="part3" data-qualified-name="GW" id="part3-head"><text fill="#000000" font-family="sans-serif" font-size="14" lengthAdjust="spacing" textLength="88.4434" x="528.6108" y="84.1279">API Gateway</text><ellipse cx="575.8325" cy="55.1328" fill="#E2E2F0" rx="12" ry="12" style="stroke:#181818;stroke-width:0.5;"/><polygon fill="#181818" points="571.8325,43.1328,577.8325,38.1328,575.8325,43.1328,577.8325,48.1328,571.8325,43.1328" style="stroke:#181818;stroke-width:1;"/></g><g class="participant participant-tail" data-entity-uid="part3" data-qualified-name="GW" id="part3-tail"><text fill="#000000" font-family="sans-serif" font-size="14" lengthAdjust="spacing" textLength="88.4434" x="528.6108" y="1121.7451">API Gateway</text><ellipse cx="575.8325" cy="1141.0469" fill="#E2E2F0" rx="12" ry="12" style="stroke:#181818;stroke-width:0.5;"/><polygon fill="#181818" points="571.8325,1129.0469,577.8325,1124.0469,575.8325,1129.0469,577.8325,1134.0469,571.8325,1129.0469" style="stroke:#181818;stroke-width:1;"/></g><g class="participant participant-head" data-entity-uid="part4" data-qualified-name="BC" id="part4-head"><text fill="#000000" font-family="sans-serif" font-size="14" lengthAdjust="spacing" textLength="100.1191" x="752.9165" y="84.1279">BlogController</text><ellipse cx="805.9761" cy="55.1328" fill="#E2E2F0" rx="12" ry="12" style="stroke:#181818;stroke-width:0.5;"/><polygon fill="#181818" points="801.9761,43.1328,807.9761,38.1328,805.9761,43.1328,807.9761,48.1328,801.9761,43.1328" style="stroke:#181818;stroke-width:1;"/></g><g class="participant participant-tail" data-entity-uid="part4" data-qualified-name="BC" id="part4-tail"><text fill="#000000" font-family="sans-serif" font-size="14" lengthAdjust="spacing" textLength="100.1191" x="752.9165" y="1121.7451">BlogController</text><ellipse cx="805.9761" cy="1141.0469" fill="#E2E2F0" rx="12" ry="12" style="stroke:#181818;stroke-width:0.5;"/><polygon fill="#181818" points="801.9761,1129.0469,807.9761,1124.0469,805.9761,1129.0469,807.9761,1134.0469,801.9761,1129.0469" style="stroke:#181818;stroke-width:1;"/></g><g class="participant participant-head" data-entity-uid="part5" data-qualified-name="BA" id="part5-head"><text fill="#000000" font-family="sans-serif" font-size="14" lengthAdjust="spacing" textLength="58.2969" x="1136.3091" y="84.1279">BlogApp</text><ellipse cx="1168.4575" cy="55.1328" fill="#E2E2F0" rx="12" ry="12" style="stroke:#181818;stroke-width:0.5;"/><polygon fill="#181818" points="1164.4575,43.1328,1170.4575,38.1328,1168.4575,43.1328,1170.4575,48.1328,1164.4575,43.1328" style="stroke:#181818;stroke-width:1;"/></g><g class="participant participant-tail" data-entity-uid="part5" data-qualified-name="BA" id="part5-tail"><text fill="#000000" font-family="sans-serif" font-size="14" lengthAdjust="spacing" textLength="58.2969" x="1136.3091" y="1121.7451">BlogApp</text><ellipse cx="1168.4575" cy="1141.0469" fill="#E2E2F0" rx="12" ry="12" style="stroke:#181818;stroke-width:0.5;"/><polygon fill="#181818" points="1164.4575,1129.0469,1170.4575,1124.0469,1168.4575,1129.0469,1170.4575,1134.0469,1164.4575,1129.0469" style="stroke:#181818;stroke-width:1;"/></g><g class="participant participant-head" data-entity-uid="part6" data-qualified-name="C" id="part6-head"><text fill="#000000" font-family="sans-serif" font-size="14" lengthAdjust="spacing" textLength="68.5918" x="1319.7427" y="84.1279">Comment</text><ellipse cx="1357.0386" cy="55.1328" fill="#E2E2F0" rx="12" ry="12" style="stroke:#181818;stroke-width:0.5;"/><line style="stroke:#181818;stroke-width:0.5;" x1="1345.0386" x2="1369.0386" y1="69.1328" y2="69.1328"/></g><g class="participant participant-tail" data-entity-uid="part6" data-qualified-name="C" id="part6-tail"><text fill="#000000" font-family="sans-serif" font-size="14" lengthAdjust="spacing" textLength="68.5918" x="1319.7427" y="1121.7451">Comment</text><ellipse cx="1357.0386" cy="1141.0469" fill="#E2E2F0" rx="12" ry="12" style="stroke:#181818;stroke-width:0.5;"/><line style="stroke:#181818;stroke-width:0.5;" x1="1345.0386" x2="1369.0386" y1="1155.0469" y2="1155.0469"/></g><g class="participant participant-head" data-entity-uid="part7" data-qualified-name="BDB" id="part7-head"><text fill="#000000" font-family="sans-serif" font-size="14" lengthAdjust="spacing" textLength="51.3311" x="1597.9038" y="84.1279">BlogDB</text><path d="M1608.5693,35.1328 C1608.5693,25.1328 1626.5693,25.1328 1626.5693,25.1328 C1626.5693,25.1328 1644.5693,25.1328 1644.5693,35.1328 L1644.5693,61.1328 C1644.5693,71.1328 1626.5693,71.1328 1626.5693,71.1328 C1626.5693,71.1328 1608.5693,71.1328 1608.5693,61.1328 L1608.5693,35.1328" fill="#E2E2F0" style="stroke:#181818;stroke-width:0.5;"/><path d="M1608.5693,35.1328 C1608.5693,45.1328 1626.5693,45.1328 1626.5693,45.1328 C1626.5693,45.1328 1644.5693,45.1328 1644.5693,35.1328" fill="none" style="stroke:#181818;stroke-width:0.5;"/></g><g class="participant participant-tail" data-entity-uid="part7" data-qualified-name="BDB" id="part7-tail"><text fill="#000000" font-family="sans-serif" font-size="14" lengthAdjust="spacing" textLength="51.3311" x="1597.9038" y="1121.7451">BlogDB</text><path d="M1608.5693,1135.0469 C1608.5693,1125.0469 1626.5693,1125.0469 1626.5693,1125.0469 C1626.5693,1125.0469 1644.5693,1125.0469 1644.5693,1135.0469 L1644.5693,1161.0469 C1644.5693,1171.0469 1626.5693,1171.0469 1626.5693,1171.0469 C1626.5693,1171.0469 1608.5693,1171.0469 1608.5693,1161.0469 L1608.5693,1135.0469" fill="#E2E2F0" style="stroke:#181818;stroke-width:0.5;"/><path d="M1608.5693,1135.0469 C1608.5693,1145.0469 1626.5693,1145.0469 1626.5693,1145.0469 C1626.5693,1145.0469 1644.5693,1145.0469 1644.5693,1135.0469" fill="none" style="stroke:#181818;stroke-width:0.5;"/></g><g class="participant participant-head" data-entity-uid="part8" data-qualified-name="NC" id="part8-head"><text fill="#000000" font-family="sans-serif" font-size="14" lengthAdjust="spacing" textLength="149.502" x="1685.2349" y="84.1279">NotificationController</text><ellipse cx="1762.9858" cy="55.1328" fill="#E2E2F0" rx="12" ry="12" style="stroke:#181818;stroke-width:0.5;"/><polygon fill="#181818" points="1758.9858,43.1328,1764.9858,38.1328,1762.9858,43.1328,1764.9858,48.1328,1758.9858,43.1328" style="stroke:#181818;stroke-width:1;"/></g><g class="participant participant-tail" data-entity-uid="part8" data-qualified-name="NC" id="part8-tail"><text fill="#000000" font-family="sans-serif" font-size="14" lengthAdjust="spacing" textLength="149.502" x="1685.2349" y="1121.7451">NotificationController</text><ellipse cx="1762.9858" cy="1141.0469" fill="#E2E2F0" rx="12" ry="12" style="stroke:#181818;stroke-width:0.5;"/><polygon fill="#181818" points="1758.9858,1129.0469,1764.9858,1124.0469,1762.9858,1129.0469,1764.9858,1134.0469,1758.9858,1129.0469" style="stroke:#181818;stroke-width:1;"/></g><g><title>User</title><rect fill="#FFFFFF" height="473.125" style="stroke:#181818;stroke-width:1;" width="10" x="33.9551" y="118.5625"/></g><g><title>WebApp</title><rect fill="#FFFFFF" height="473.125" style="stroke:#181818;stroke-width:1;" width="10" x="252.9751" y="118.5625"/></g><g><title>API Gateway</title><rect fill="#FFFFFF" height="312.3281" style="stroke:#181818;stroke-width:1;" width="10" x="570.8325" y="250.2266"/></g><g><title>BlogController</title><rect fill="#FFFFFF" height="211.9297" style="stroke:#181818;stroke-width:1;" width="10" x="800.9761" y="321.4922"/></g><g><title>BlogApp</title><rect fill="#FFFFFF" height="462.0625" style="stroke:#181818;stroke-width:1;" width="10" x="1163.4575" y="392.7578"/></g><g><title>Comment</title><rect fill="#FFFFFF" height="131.7969" style="stroke:#181818;stroke-width:1;" width="10" x="1352.0386" y="635.625"/></g><g><title>BlogDB</title><rect fill="#FFFFFF" height="29.1328" style="stroke:#181818;stroke-width:1;" width="10" x="1621.5693" y="421.8906"/></g><g><title>BlogDB</title><rect fill="#FFFFFF" height="29.1328" style="stroke:#181818;stroke-width:1;" width="10" x="1621.5693" y="796.5547"/></g><g><title>NotificationController</title><rect fill="#FFFFFF" height="71.2656" style="stroke:#181818;stroke-width:1;" width="10" x="1757.9858" y="913.0859"/></g><g class="message" data-entity-1="part1" data-entity-2="part2" id="msg1"><polygon fill="#181818" points="240.9751,114.5625,250.9751,118.5625,240.9751,122.5625,244.9751,118.5625" style="stroke:#181818;stroke-width:1;"/><line style="stroke:#181818;stroke-width:1;" x1="43.9551" x2="246.9751" y1="118.5625" y2="118.5625"/><text fill="#000000" font-family="sans-serif" font-size="13" font-weight="bold" lengthAdjust="spacing" textLength="9.0454" x="50.9551" y="113.4966">1</text><text fill="#000000" font-family="sans-serif" font-size="13" lengthAdjust="spacing" textLength="181.9746" x="64.0005" y="113.4966">Click "Reply" on a comment</text></g><g class="message" data-entity-1="part2" data-entity-2="part1" id="msg2"><polygon fill="#181818" points="54.9551,143.6953,44.9551,147.6953,54.9551,151.6953,50.9551,147.6953" style="stroke:#181818;stroke-width:1;"/><line style="stroke:#181818;stroke-width:1;" x1="48.9551" x2="251.9751" y1="147.6953" y2="147.6953"/><text fill="#000000" font-family="sans-serif" font-size="13" font-weight="bold" lengthAdjust="spacing" textLength="9.0454" x="60.9551" y="142.6294">2</text><text fill="#000000" font-family="sans-serif" font-size="13" lengthAdjust="spacing" textLength="109.6812" x="74.0005" y="142.6294">Show reply input</text></g><g class="message" data-entity-1="part1" data-entity-2="part2" id="msg3"><polygon fill="#181818" points="240.9751,172.8281,250.9751,176.8281,240.9751,180.8281,244.9751,176.8281" style="stroke:#181818;stroke-width:1;"/><line style="stroke:#181818;stroke-width:1;" x1="43.9551" x2="246.9751" y1="176.8281" y2="176.8281"/><text fill="#000000" font-family="sans-serif" font-size="13" font-weight="bold" lengthAdjust="spacing" textLength="9.0454" x="50.9551" y="171.7622">3</text><text fill="#000000" font-family="sans-serif" font-size="13" lengthAdjust="spacing" textLength="122.8208" x="64.0005" y="171.7622">Type reply content</text></g><g class="message" data-entity-1="part1" data-entity-2="part2" id="msg4"><polygon fill="#181818" points="240.9751,201.9609,250.9751,205.9609,240.9751,209.9609,244.9751,205.9609" style="stroke:#181818;stroke-width:1;"/><line style="stroke:#181818;stroke-width:1;" x1="43.9551" x2="246.9751" y1="205.9609" y2="205.9609"/><text fill="#000000" font-family="sans-serif" font-size="13" font-weight="bold" lengthAdjust="spacing" textLength="9.0454" x="50.9551" y="200.895">4</text><text fill="#000000" font-family="sans-serif" font-size="13" lengthAdjust="spacing" textLength="93.1836" x="64.0005" y="200.895">Click "Submit"</text></g><g class="message" data-entity-1="part2" data-entity-2="part3" id="msg5"><polygon fill="#181818" points="558.8325,246.2266,568.8325,250.2266,558.8325,254.2266,562.8325,250.2266" style="stroke:#181818;stroke-width:1;"/><line style="stroke:#181818;stroke-width:1;" x1="262.9751" x2="564.8325" y1="250.2266" y2="250.2266"/><text fill="#000000" font-family="sans-serif" font-size="13" font-weight="bold" lengthAdjust="spacing" textLength="9.0454" x="269.9751" y="237.5942">5</text><text fill="#000000" font-family="sans-serif" font-size="13" lengthAdjust="spacing" textLength="275.812" x="283.0205" y="230.0278">POST /blog/comments/{commentId}/reply</text><text fill="#000000" font-family="sans-serif" font-size="13" lengthAdjust="spacing" textLength="66.314" x="283.0205" y="245.1606">{content}</text></g><g class="message" data-entity-1="part3" data-entity-2="part3" id="msg6"><line style="stroke:#181818;stroke-width:1;" x1="580.8325" x2="622.8325" y1="279.3594" y2="279.3594"/><line style="stroke:#181818;stroke-width:1;" x1="622.8325" x2="622.8325" y1="279.3594" y2="292.3594"/><line style="stroke:#181818;stroke-width:1;" x1="581.8325" x2="622.8325" y1="292.3594" y2="292.3594"/><polygon fill="#181818" points="591.8325,288.3594,581.8325,292.3594,591.8325,296.3594,587.8325,292.3594" style="stroke:#181818;stroke-width:1;"/><text fill="#000000" font-family="sans-serif" font-size="13" font-weight="bold" lengthAdjust="spacing" textLength="9.0454" x="587.8325" y="274.2935">6</text><text fill="#000000" font-family="sans-serif" font-size="13" lengthAdjust="spacing" textLength="183.0981" x="600.8779" y="274.2935">Validate JWT, extract userID</text></g><g class="message" data-entity-1="part3" data-entity-2="part4" id="msg7"><polygon fill="#181818" points="788.9761,317.4922,798.9761,321.4922,788.9761,325.4922,792.9761,321.4922" style="stroke:#181818;stroke-width:1;"/><line style="stroke:#181818;stroke-width:1;" x1="580.8325" x2="794.9761" y1="321.4922" y2="321.4922"/><text fill="#000000" font-family="sans-serif" font-size="13" font-weight="bold" lengthAdjust="spacing" textLength="9.0454" x="587.8325" y="316.4263">7</text><text fill="#000000" font-family="sans-serif" font-size="13" lengthAdjust="spacing" textLength="106.8057" x="600.8779" y="316.4263">Forward request</text></g><g class="message" data-entity-1="part4" data-entity-2="part4" id="msg8"><line style="stroke:#181818;stroke-width:1;" x1="810.9761" x2="852.9761" y1="350.625" y2="350.625"/><line style="stroke:#181818;stroke-width:1;" x1="852.9761" x2="852.9761" y1="350.625" y2="363.625"/><line style="stroke:#181818;stroke-width:1;" x1="811.9761" x2="852.9761" y1="363.625" y2="363.625"/><polygon fill="#181818" points="821.9761,359.625,811.9761,363.625,821.9761,367.625,817.9761,363.625" style="stroke:#181818;stroke-width:1;"/><text fill="#000000" font-family="sans-serif" font-size="13" font-weight="bold" lengthAdjust="spacing" textLength="9.0454" x="817.9761" y="345.5591">8</text><text fill="#000000" font-family="sans-serif" font-size="13" lengthAdjust="spacing" textLength="178.5596" x="831.0215" y="345.5591">Validate content not empty</text></g><g class="message" data-entity-1="part4" data-entity-2="part5" id="msg9"><polygon fill="#181818" points="1151.4575,388.7578,1161.4575,392.7578,1151.4575,396.7578,1155.4575,392.7578" style="stroke:#181818;stroke-width:1;"/><line style="stroke:#181818;stroke-width:1;" x1="810.9761" x2="1157.4575" y1="392.7578" y2="392.7578"/><text fill="#000000" font-family="sans-serif" font-size="13" font-weight="bold" lengthAdjust="spacing" textLength="9.0454" x="817.9761" y="387.6919">9</text><text fill="#000000" font-family="sans-serif" font-size="13" lengthAdjust="spacing" textLength="320.436" x="831.0215" y="387.6919">ReplyPostComment(commentId, userID, content)</text></g><g class="message" data-entity-1="part5" data-entity-2="part7" id="msg10"><polygon fill="#181818" points="1609.5693,417.8906,1619.5693,421.8906,1609.5693,425.8906,1613.5693,421.8906" style="stroke:#181818;stroke-width:1;"/><line style="stroke:#181818;stroke-width:1;" x1="1173.4575" x2="1615.5693" y1="421.8906" y2="421.8906"/><text fill="#000000" font-family="sans-serif" font-size="13" font-weight="bold" lengthAdjust="spacing" textLength="18.0908" x="1180.4575" y="416.8247">10</text><text fill="#000000" font-family="sans-serif" font-size="13" lengthAdjust="spacing" textLength="140.5054" x="1202.5483" y="416.8247">Find parent comment</text></g><g class="message" data-entity-1="part7" data-entity-2="part5" id="msg11"><polygon fill="#181818" points="1184.4575,447.0234,1174.4575,451.0234,1184.4575,455.0234,1180.4575,451.0234" style="stroke:#181818;stroke-width:1;"/><line style="stroke:#181818;stroke-width:1;stroke-dasharray:2,2;" x1="1178.4575" x2="1625.5693" y1="451.0234" y2="451.0234"/><text fill="#000000" font-family="sans-serif" font-size="13" font-weight="bold" lengthAdjust="spacing" textLength="18.0908" x="1190.4575" y="445.9575">11</text><text fill="#000000" font-family="sans-serif" font-size="13" lengthAdjust="spacing" textLength="141.7939" x="1212.5483" y="445.9575">Parent comment data</text></g><path d="M10,466.0234 L74.4429,466.0234 L74.4429,473.1563 L64.4429,483.1563 L10,483.1563 L10,466.0234" fill="#EEEEEE" style="stroke:#000000;stroke-width:1.5;"/><rect fill="none" height="626.7266" style="stroke:#000000;stroke-width:1.5;" width="1929.022" x="10" y="466.0234"/><text fill="#000000" font-family="sans-serif" font-size="13" font-weight="bold" lengthAdjust="spacing" textLength="19.4429" x="25" y="479.0903">alt</text><text fill="#000000" font-family="sans-serif" font-size="11" font-weight="bold" lengthAdjust="spacing" textLength="177.0796" x="89.4429" y="478.2339">[Parent comment not found]</text><g class="message" data-entity-1="part5" data-entity-2="part4" id="msg12"><polygon fill="#181818" points="821.9761,500.2891,811.9761,504.2891,821.9761,508.2891,817.9761,504.2891" style="stroke:#181818;stroke-width:1;"/><line style="stroke:#181818;stroke-width:1;stroke-dasharray:2,2;" x1="815.9761" x2="1162.4575" y1="504.2891" y2="504.2891"/><text fill="#000000" font-family="sans-serif" font-size="13" font-weight="bold" lengthAdjust="spacing" textLength="18.0908" x="827.9761" y="499.2231">12</text><text fill="#000000" font-family="sans-serif" font-size="13" lengthAdjust="spacing" textLength="96.0146" x="850.0669" y="499.2231">404 Not Found</text></g><g class="message" data-entity-1="part4" data-entity-2="part3" id="msg13"><polygon fill="#181818" points="591.8325,529.4219,581.8325,533.4219,591.8325,537.4219,587.8325,533.4219" style="stroke:#181818;stroke-width:1;"/><line style="stroke:#181818;stroke-width:1;stroke-dasharray:2,2;" x1="585.8325" x2="804.9761" y1="533.4219" y2="533.4219"/><text fill="#000000" font-family="sans-serif" font-size="13" font-weight="bold" lengthAdjust="spacing" textLength="18.0908" x="597.8325" y="528.356">13</text><text fill="#000000" font-family="sans-serif" font-size="13" lengthAdjust="spacing" textLength="32.2017" x="619.9233" y="528.356">Error</text></g><g class="message" data-entity-1="part3" data-entity-2="part2" id="msg14"><polygon fill="#181818" points="273.9751,558.5547,263.9751,562.5547,273.9751,566.5547,269.9751,562.5547" style="stroke:#181818;stroke-width:1;"/><line style="stroke:#181818;stroke-width:1;stroke-dasharray:2,2;" x1="267.9751" x2="574.8325" y1="562.5547" y2="562.5547"/><text fill="#000000" font-family="sans-serif" font-size="13" font-weight="bold" lengthAdjust="spacing" textLength="18.0908" x="279.9751" y="557.4888">14</text><text fill="#000000" font-family="sans-serif" font-size="13" lengthAdjust="spacing" textLength="32.2017" x="302.0659" y="557.4888">Error</text></g><g class="message" data-entity-1="part2" data-entity-2="part1" id="msg15"><polygon fill="#181818" points="49.9551,587.6875,39.9551,591.6875,49.9551,595.6875,45.9551,591.6875" style="stroke:#181818;stroke-width:1;"/><line style="stroke:#181818;stroke-width:1;" x1="43.9551" x2="256.9751" y1="591.6875" y2="591.6875"/><text fill="#000000" font-family="sans-serif" font-size="13" font-weight="bold" lengthAdjust="spacing" textLength="18.0908" x="55.9551" y="586.6216">15</text><text fill="#000000" font-family="sans-serif" font-size="13" lengthAdjust="spacing" textLength="71.1953" x="78.0459" y="586.6216">Show error</text></g><line style="stroke:#000000;stroke-width:1;stroke-dasharray:2,2;" x1="10" x2="1939.022" y1="600.6875" y2="600.6875"/><text fill="#000000" font-family="sans-serif" font-size="11" font-weight="bold" lengthAdjust="spacing" textLength="153.4038" x="15" y="610.8979">[Parent comment exists]</text><g class="message" data-entity-1="part5" data-entity-2="part6" id="msg16"><polygon fill="#181818" points="1340.0386,631.625,1350.0386,635.625,1340.0386,639.625,1344.0386,635.625" style="stroke:#181818;stroke-width:1;"/><line style="stroke:#181818;stroke-width:1;" x1="1173.4575" x2="1346.0386" y1="635.625" y2="635.625"/><text fill="#000000" font-family="sans-serif" font-size="13" font-weight="bold" lengthAdjust="spacing" textLength="18.0908" x="1180.4575" y="630.5591">16</text><text fill="#000000" font-family="sans-serif" font-size="13" lengthAdjust="spacing" textLength="137.4902" x="1202.5483" y="630.5591">Build reply Comment</text></g><g class="message" data-entity-1="part6" data-entity-2="part6" id="msg17"><line style="stroke:#181818;stroke-width:1;" x1="1362.0386" x2="1404.0386" y1="725.2891" y2="725.2891"/><line style="stroke:#181818;stroke-width:1;" x1="1404.0386" x2="1404.0386" y1="725.2891" y2="738.2891"/><line style="stroke:#181818;stroke-width:1;" x1="1363.0386" x2="1404.0386" y1="738.2891" y2="738.2891"/><polygon fill="#181818" points="1373.0386,734.2891,1363.0386,738.2891,1373.0386,742.2891,1369.0386,738.2891" style="stroke:#181818;stroke-width:1;"/><text fill="#000000" font-family="sans-serif" font-size="13" font-weight="bold" lengthAdjust="spacing" textLength="18.0908" x="1369.0386" y="689.9575">17</text><text fill="#000000" font-family="sans-serif" font-size="13" lengthAdjust="spacing" textLength="93.5073" x="1391.1294" y="659.6919">Set id = UUID,</text><text fill="#000000" font-family="sans-serif" font-size="13" lengthAdjust="spacing" textLength="154.1592" x="1391.1294" y="674.8247">postID = parent.postID,</text><text fill="#000000" font-family="sans-serif" font-size="13" lengthAdjust="spacing" textLength="122.1733" x="1391.1294" y="689.9575">authorID = userID,</text><text fill="#000000" font-family="sans-serif" font-size="13" lengthAdjust="spacing" textLength="122.8335" x="1391.1294" y="705.0903">content = content,</text><text fill="#000000" font-family="sans-serif" font-size="13" lengthAdjust="spacing" textLength="213.4399" x="1391.1294" y="720.2231">parentCommentID = commentId</text></g><g class="message" data-entity-1="part6" data-entity-2="part5" id="msg18"><polygon fill="#181818" points="1184.4575,763.4219,1174.4575,767.4219,1184.4575,771.4219,1180.4575,767.4219" style="stroke:#181818;stroke-width:1;"/><line style="stroke:#181818;stroke-width:1;stroke-dasharray:2,2;" x1="1178.4575" x2="1356.0386" y1="767.4219" y2="767.4219"/><text fill="#000000" font-family="sans-serif" font-size="13" font-weight="bold" lengthAdjust="spacing" textLength="18.0908" x="1190.4575" y="762.356">18</text><text fill="#000000" font-family="sans-serif" font-size="13" lengthAdjust="spacing" textLength="78.457" x="1212.5483" y="762.356">Reply entity</text></g><g class="message" data-entity-1="part5" data-entity-2="part7" id="msg19"><polygon fill="#181818" points="1609.5693,792.5547,1619.5693,796.5547,1609.5693,800.5547,1613.5693,796.5547" style="stroke:#181818;stroke-width:1;"/><line style="stroke:#181818;stroke-width:1;" x1="1173.4575" x2="1615.5693" y1="796.5547" y2="796.5547"/><text fill="#000000" font-family="sans-serif" font-size="13" font-weight="bold" lengthAdjust="spacing" textLength="18.0908" x="1180.4575" y="791.4888">19</text><text fill="#000000" font-family="sans-serif" font-size="13" lengthAdjust="spacing" textLength="68.9419" x="1202.5483" y="791.4888">Save reply</text></g><g class="message" data-entity-1="part7" data-entity-2="part5" id="msg20"><polygon fill="#181818" points="1184.4575,821.6875,1174.4575,825.6875,1184.4575,829.6875,1180.4575,825.6875" style="stroke:#181818;stroke-width:1;"/><line style="stroke:#181818;stroke-width:1;stroke-dasharray:2,2;" x1="1178.4575" x2="1625.5693" y1="825.6875" y2="825.6875"/><text fill="#000000" font-family="sans-serif" font-size="13" font-weight="bold" lengthAdjust="spacing" textLength="18.0908" x="1190.4575" y="820.6216">20</text><text fill="#000000" font-family="sans-serif" font-size="13" lengthAdjust="spacing" textLength="54.5645" x="1212.5483" y="820.6216">Reply ID</text></g><g class="message" data-entity-1="part5" data-entity-2="part4" id="msg21"><polygon fill="#181818" points="816.9761,850.8203,806.9761,854.8203,816.9761,858.8203,812.9761,854.8203" style="stroke:#181818;stroke-width:1;"/><line style="stroke:#181818;stroke-width:1;stroke-dasharray:2,2;" x1="810.9761" x2="1167.4575" y1="854.8203" y2="854.8203"/><text fill="#000000" font-family="sans-serif" font-size="13" font-weight="bold" lengthAdjust="spacing" textLength="18.0908" x="822.9761" y="849.7544">21</text><text fill="#000000" font-family="sans-serif" font-size="13" lengthAdjust="spacing" textLength="90.5239" x="845.0669" y="849.7544">Reply created</text></g><g class="message" data-entity-1="part4" data-entity-2="part3" id="msg22"><polygon fill="#181818" points="586.8325,879.9531,576.8325,883.9531,586.8325,887.9531,582.8325,883.9531" style="stroke:#181818;stroke-width:1;"/><line style="stroke:#181818;stroke-width:1;stroke-dasharray:2,2;" x1="580.8325" x2="804.9761" y1="883.9531" y2="883.9531"/><text fill="#000000" font-family="sans-serif" font-size="13" font-weight="bold" lengthAdjust="spacing" textLength="18.0908" x="592.8325" y="878.8872">22</text><text fill="#000000" font-family="sans-serif" font-size="13" lengthAdjust="spacing" textLength="80.6787" x="614.9233" y="878.8872">201 Created</text></g><g class="message" data-entity-1="part3" data-entity-2="part8" id="msg23"><line style="stroke:#181818;stroke-width:1;" x1="1755.9858" x2="1745.9858" y1="913.0859" y2="909.0859"/><line style="stroke:#181818;stroke-width:1;" x1="1755.9858" x2="1745.9858" y1="913.0859" y2="917.0859"/><line style="stroke:#181818;stroke-width:1;" x1="575.8325" x2="1756.9858" y1="913.0859" y2="913.0859"/><text fill="#000000" font-family="sans-serif" font-size="13" font-weight="bold" lengthAdjust="spacing" textLength="18.0908" x="582.8325" y="908.02">23</text><text fill="#000000" font-family="sans-serif" font-size="13" lengthAdjust="spacing" textLength="198.5547" x="604.9233" y="908.02">Notify parent comment author</text></g><g class="message" data-entity-1="part8" data-entity-2="part8" id="msg24"><line style="stroke:#181818;stroke-width:1;" x1="1767.9858" x2="1809.9858" y1="942.2188" y2="942.2188"/><line style="stroke:#181818;stroke-width:1;" x1="1809.9858" x2="1809.9858" y1="942.2188" y2="955.2188"/><line style="stroke:#181818;stroke-width:1;" x1="1768.9858" x2="1809.9858" y1="955.2188" y2="955.2188"/><polygon fill="#181818" points="1778.9858,951.2188,1768.9858,955.2188,1778.9858,959.2188,1774.9858,955.2188" style="stroke:#181818;stroke-width:1;"/><text fill="#000000" font-family="sans-serif" font-size="13" font-weight="bold" lengthAdjust="spacing" textLength="18.0908" x="1774.9858" y="937.1528">24</text><text fill="#000000" font-family="sans-serif" font-size="13" lengthAdjust="spacing" textLength="119.9453" x="1797.0767" y="937.1528">Queue notification</text></g><g class="message" data-entity-1="part8" data-entity-2="part3" id="msg25"><line style="stroke:#181818;stroke-width:1;" x1="576.8325" x2="586.8325" y1="984.3516" y2="980.3516"/><line style="stroke:#181818;stroke-width:1;" x1="576.8325" x2="586.8325" y1="984.3516" y2="988.3516"/><line style="stroke:#181818;stroke-width:1;stroke-dasharray:2,2;" x1="575.8325" x2="1761.9858" y1="984.3516" y2="984.3516"/><text fill="#000000" font-family="sans-serif" font-size="13" font-weight="bold" lengthAdjust="spacing" textLength="18.0908" x="592.8325" y="979.2856">25</text><text fill="#000000" font-family="sans-serif" font-size="13" lengthAdjust="spacing" textLength="60.7852" x="614.9233" y="979.2856">Accepted</text></g><g class="message" data-entity-1="part3" data-entity-2="part2" id="msg26"><polygon fill="#181818" points="268.9751,1009.4844,258.9751,1013.4844,268.9751,1017.4844,264.9751,1013.4844" style="stroke:#181818;stroke-width:1;"/><line style="stroke:#181818;stroke-width:1;stroke-dasharray:2,2;" x1="262.9751" x2="574.8325" y1="1013.4844" y2="1013.4844"/><text fill="#000000" font-family="sans-serif" font-size="13" font-weight="bold" lengthAdjust="spacing" textLength="18.0908" x="274.9751" y="1008.4185">26</text><text fill="#000000" font-family="sans-serif" font-size="13" lengthAdjust="spacing" textLength="70.002" x="297.0659" y="1008.4185">Reply data</text></g><g class="message" data-entity-1="part2" data-entity-2="part2" id="msg27"><line style="stroke:#181818;stroke-width:1;" x1="257.9751" x2="299.9751" y1="1042.6172" y2="1042.6172"/><line style="stroke:#181818;stroke-width:1;" x1="299.9751" x2="299.9751" y1="1042.6172" y2="1055.6172"/><line style="stroke:#181818;stroke-width:1;" x1="258.9751" x2="299.9751" y1="1055.6172" y2="1055.6172"/><polygon fill="#181818" points="268.9751,1051.6172,258.9751,1055.6172,268.9751,1059.6172,264.9751,1055.6172" style="stroke:#181818;stroke-width:1;"/><text fill="#000000" font-family="sans-serif" font-size="13" font-weight="bold" lengthAdjust="spacing" textLength="18.0908" x="264.9751" y="1037.5513">27</text><text fill="#000000" font-family="sans-serif" font-size="13" lengthAdjust="spacing" textLength="229.4487" x="287.0659" y="1037.5513">Insert reply under parent comment</text></g><g class="message" data-entity-1="part2" data-entity-2="part1" id="msg28"><polygon fill="#181818" points="49.9551,1080.75,39.9551,1084.75,49.9551,1088.75,45.9551,1084.75" style="stroke:#181818;stroke-width:1;"/><line style="stroke:#181818;stroke-width:1;" x1="43.9551" x2="256.9751" y1="1084.75" y2="1084.75"/><text fill="#000000" font-family="sans-serif" font-size="13" font-weight="bold" lengthAdjust="spacing" textLength="18.0908" x="55.9551" y="1079.6841">28</text><text fill="#000000" font-family="sans-serif" font-size="13" lengthAdjust="spacing" textLength="115.9526" x="78.0459" y="1079.6841">Display new reply</text></g><?plantuml-src VLJHJjim57tFLrnrBvi4AqmyLGCfIRUgqzILbIullBZ91InIEtCSsWZnxxlNSK8IqDuI-_Zu-9nZYyfgLUrtQ8AWV9Ig44Ri8TB7jSWogUxX_2m8H6grWMs91aG9ss2dAvK9KqE2kx0eU3090ne-mYHSBs4XB1v4FO4FF-NzWuto2WE0L2jhT3w2qDf54g3AW9PxZYZNzx11yoHJR4dYMgWU2KFYvZjlP4NnQDehYq8QHsMbhI7M-przyZ2ZCs75JfJeuFF8eUVHICnAMtadKs6bLcDH2uFOLzN73jMjubVQBPnUaM4pY7EPFiBaDnOvEK7qWfYSGhPSFf57v7RtIHud8Q_Tpc3pe0zWU25GQ9Lz9Rsf2_GpB8l9nXjkgjrUsadWwHR93DQ_DZSmtP4FKo-Xd3xxhsNsCdM4j-hPKxwyggBq5abByqVaCkFH7ydD2U3H6i91HSrPpZqiYcVmNPk3C1d9_5jXsJijXHX4SGlhsFokeBG5t1UsRa5q9kVUMfVMX_knKttYDpvfrt_gRKHzZTpfAN4I92aSwZvlyYO2xWHXlvwUDk3r0ETQ56GuW0SYjsCSYx_ZcqE58VcEZlHVd5rmRyYJPefSSbDq_c_6QCCznRv1G54w21l-3eG2SP1UKV0jAWc7_zi0Sxe98yrubAKjMR3Z8qrH9VFCzyixJjCT3SkBFNI35cG6bx3TKWYtgg2GbdFwRup-tFpJXAZiWpPkoYTsgzh8BzlmcC2jyxiwU9Tr8v5TYNqb_9qVdfBgrPx5HRaHJ_woz0_12NPy3jSmKeU7ON3IWp0RN6gGfhCHE1o6--Ni7E9tWKwakonNz6xCcbUb7jKJ6jFwibTi_igvpykkAwoGMzSzILu0As10cAPOlDb-vRRlLQmvaslvk6TTqVXnMIhAplfgK9VfuHlTg5ujvx8iSb63maFd___RIPVZ7m00?></g></svg>