<?plantuml 1.2026.1?><svg xmlns="http://www.w3.org/2000/svg" xmlns:xlink="http://www.w3.org/1999/xlink" contentStyleType="text/css" data-diagram-type="SEQUENCE" height="1024px" preserveAspectRatio="none" style="width:1851px;height:1024px;background:#FFFFFF;" version="1.1" viewBox="0 0 1851 1024" width="1851px" zoomAndPan="magnify"><defs/><g><rect fill="#ADD8E6" height="1012.5156" style="stroke:#181818;stroke-width:0.5;" width="102.4434" x="572.5308" y="6"/><text fill="#000000" font-family="sans-serif" font-size="13" font-weight="bold" lengthAdjust="spacing" textLength="92.6821" x="577.4114" y="18.0669">API Gateway</text><rect fill="#FFB6C1" height="1012.5156" style="stroke:#181818;stroke-width:0.5;" width="637.5425" x="790.8481" y="6"/><text fill="#000000" font-family="sans-serif" font-size="13" font-weight="bold" lengthAdjust="spacing" textLength="104.8633" x="1057.1877" y="18.0669">Billing Service</text><rect fill="#FFFFE0" height="1012.5156" style="stroke:#181818;stroke-width:0.5;" width="132.0498" x="1450.3906" y="6"/><text fill="#000000" font-family="sans-serif" font-size="13" font-weight="bold" lengthAdjust="spacing" textLength="109.2622" x="1461.7844" y="18.0669">Course Service</text><rect fill="#90EE90" height="1012.5156" style="stroke:#181818;stroke-width:0.5;" width="115.083" x="1630.5747" y="6"/><text fill="#000000" font-family="sans-serif" font-size="13" font-weight="bold" lengthAdjust="spacing" textLength="92.0918" x="1642.0703" y="18.0669">User Service</text><g><title>Learner</title><rect fill="#FFFFFF" height="328.4609" style="stroke:#181818;stroke-width:1;" width="10" x="44.9951" y="118.5625"/></g><g><title>WebApp</title><rect fill="#FFFFFF" height="328.4609" style="stroke:#181818;stroke-width:1;" width="10" x="311.7432" y="118.5625"/></g><g><title>API Gateway</title><rect fill="#FFFFFF" height="270.1953" style="stroke:#181818;stroke-width:1;" width="10" x="618.7524" y="147.6953"/></g><g><title>BillingController</title><rect fill="#FFFFFF" height="169.7969" style="stroke:#181818;stroke-width:1;" width="10" x="848.896" y="218.9609"/></g><g><title>BillingApp</title><rect fill="#FFFFFF" height="272" style="stroke:#181818;stroke-width:1;" width="10" x="1223.9521" y="248.0938"/></g><g><title>BillingDB</title><rect fill="#FFFFFF" height="53.2656" style="stroke:#181818;stroke-width:1;" width="10" x="1384.7368" y="277.2266"/></g><g><title>CourseController</title><rect fill="#FFFFFF" height="71.2656" style="stroke:#181818;stroke-width:1;" width="10" x="1511.4155" y="578.3594"/></g><g><title>UserController</title><rect fill="#FFFFFF" height="71.2656" style="stroke:#181818;stroke-width:1;" width="10" x="1683.1162" y="678.7578"/></g><rect fill="none" height="629.9922" style="stroke:#000000;stroke-width:1.5;" width="1834.7158" x="10" y="292.2266"/><g class="participant-lifeline" data-entity-uid="part1" data-qualified-name="L" id="part1-lifeline"><g><title>Learner</title><rect fill="#000000" fill-opacity="0.00000" height="851.7891" width="8" x="45.9951" y="87.4297"/><line style="stroke:#181818;stroke-width:0.5;stroke-dasharray:5,5;" x1="49" x2="49" y1="87.4297" y2="939.2188"/></g></g><g class="participant-lifeline" data-entity-uid="part2" data-qualified-name="WA" id="part2-lifeline"><g><title>WebApp</title><rect fill="#000000" fill-opacity="0.00000" height="851.7891" width="8" x="312.7432" y="87.4297"/><line style="stroke:#181818;stroke-width:0.5;stroke-dasharray:5,5;" x1="316.3965" x2="316.3965" y1="87.4297" y2="939.2188"/></g></g><g class="participant-lifeline" data-entity-uid="part3" data-qualified-name="GW" id="part3-lifeline"><g><title>API Gateway</title><rect fill="#000000" fill-opacity="0.00000" height="851.7891" width="8" x="619.7524" y="87.4297"/><line style="stroke:#181818;stroke-width:0.5;stroke-dasharray:5,5;" x1="623.5308" x2="623.5308" y1="87.4297" y2="939.2188"/></g></g><g class="participant-lifeline" data-entity-uid="part4" data-qualified-name="BC" id="part4-lifeline"><g><title>BillingController</title><rect fill="#000000" fill-opacity="0.00000" height="851.7891" width="8" x="849.896" y="87.4297"/><line style="stroke:#181818;stroke-width:0.5;stroke-dasharray:5,5;" x1="853.8481" x2="853.8481" y1="87.4297" y2="939.2188"/></g></g><g class="participant-lifeline" data-entity-uid="part5" data-qualified-name="BA" id="part5-lifeline"><g><title>BillingApp</title><rect fill="#000000" fill-opacity="0.00000" height="851.7891" width="8" x="1224.9521" y="87.4297"/><line style="stroke:#181818;stroke-width:0.5;stroke-dasharray:5,5;" x1="1228.8154" x2="1228.8154" y1="87.4297" y2="939.2188"/></g></g><g class="participant-lifeline" data-entity-uid="part6" data-qualified-name="BDB" id="part6-lifeline"><g><title>BillingDB</title><rect fill="#000000" fill-opacity="0.00000" height="851.7891" width="8" x="1385.7368" y="87.4297"/><line style="stroke:#181818;stroke-width:0.5;stroke-dasharray:5,5;" x1="1389.083" x2="1389.083" y1="87.4297" y2="939.2188"/></g></g><g class="participant-lifeline" data-entity-uid="part7" data-qualified-name="CC" id="part7-lifeline"><g><title>CourseController</title><rect fill="#000000" fill-opacity="0.00000" height="851.7891" width="8" x="1512.4155" y="87.4297"/><line style="stroke:#181818;stroke-width:0.5;stroke-dasharray:5,5;" x1="1516.3906" x2="1516.3906" y1="87.4297" y2="939.2188"/></g></g><g class="participant-lifeline" data-entity-uid="part8" data-qualified-name="UC" id="part8-lifeline"><g><title>UserController</title><rect fill="#000000" fill-opacity="0.00000" height="851.7891" width="8" x="1684.1162" y="87.4297"/><line style="stroke:#181818;stroke-width:0.5;stroke-dasharray:5,5;" x1="1687.5747" x2="1687.5747" y1="87.4297" y2="939.2188"/></g></g><g class="participant participant-head" data-entity-uid="part1" data-qualified-name="L" id="part1-head"><text fill="#000000" font-family="sans-serif" font-size="14" lengthAdjust="spacing" textLength="53.9902" x="20" y="84.1279">Learner</text><ellipse cx="49.9951" cy="19.6328" fill="#E2E2F0" rx="8" ry="8" style="stroke:#181818;stroke-width:0.5;"/><path d="M49.9951,27.6328 L49.9951,54.6328 M36.9951,35.6328 L62.9951,35.6328 M49.9951,54.6328 L36.9951,69.6328 M49.9951,54.6328 L62.9951,69.6328" fill="none" style="stroke:#181818;stroke-width:0.5;"/></g><g class="participant participant-tail" data-entity-uid="part1" data-qualified-name="L" id="part1-tail"><text fill="#000000" font-family="sans-serif" font-size="14" lengthAdjust="spacing" textLength="53.9902" x="20" y="951.2139">Learner</text><ellipse cx="49.9951" cy="963.0156" fill="#E2E2F0" rx="8" ry="8" style="stroke:#181818;stroke-width:0.5;"/><path d="M49.9951,971.0156 L49.9951,998.0156 M36.9951,979.0156 L62.9951,979.0156 M49.9951,998.0156 L36.9951,1013.0156 M49.9951,998.0156 L62.9951,1013.0156" fill="none" style="stroke:#181818;stroke-width:0.5;"/></g><g class="participant participant-head" data-entity-uid="part2" data-qualified-name="WA" id="part2-head"><text fill="#000000" font-family="sans-serif" font-size="14" lengthAdjust="spacing" textLength="58.6934" x="284.3965" y="84.1279">WebApp</text><path d="M296.2432,43.1328 L296.2432,67.1328 M296.2432,55.1328 L313.2432,55.1328" fill="none" style="stroke:#181818;stroke-width:0.5;"/><ellipse cx="325.2432" cy="55.1328" fill="#E2E2F0" rx="12" ry="12" style="stroke:#181818;stroke-width:0.5;"/></g><g class="participant participant-tail" data-entity-uid="part2" data-qualified-name="WA" id="part2-tail"><text fill="#000000" font-family="sans-serif" font-size="14" lengthAdjust="spacing" textLength="58.6934" x="284.3965" y="951.2139">WebApp</text><path d="M296.2432,958.5156 L296.2432,982.5156 M296.2432,970.5156 L313.2432,970.5156" fill="none" style="stroke:#181818;stroke-width:0.5;"/><ellipse cx="325.2432" cy="970.5156" fill="#E2E2F0" rx="12" ry="12" style="stroke:#181818;stroke-width:0.5;"/></g><g class="participant participant-head" data-entity-uid="part3" data-qualified-name="GW" id="part3-head"><text fill="#000000" font-family="sans-serif" font-size="14" lengthAdjust="spacing" textLength="88.4434" x="576.5308" y="84.1279">API Gateway</text><ellipse cx="623.7524" cy="55.1328" fill="#E2E2F0" rx="12" ry="12" style="stroke:#181818;stroke-width:0.5;"/><polygon fill="#181818" points="619.7524,43.1328,625.7524,38.1328,623.7524,43.1328,625.7524,48.1328,619.7524,43.1328" style="stroke:#181818;stroke-width:1;"/></g><g class="participant participant-tail" data-entity-uid="part3" data-qualified-name="GW" id="part3-tail"><text fill="#000000" font-family="sans-serif" font-size="14" lengthAdjust="spacing" textLength="88.4434" x="576.5308" y="951.2139">API Gateway</text><ellipse cx="623.7524" cy="970.5156" fill="#E2E2F0" rx="12" ry="12" style="stroke:#181818;stroke-width:0.5;"/><polygon fill="#181818" points="619.7524,958.5156,625.7524,953.5156,623.7524,958.5156,625.7524,963.5156,619.7524,958.5156" style="stroke:#181818;stroke-width:1;"/></g><g class="participant participant-head" data-entity-uid="part4" data-qualified-name="BC" id="part4-head"><text fill="#000000" font-family="sans-serif" font-size="14" lengthAdjust="spacing" textLength="112.0957" x="794.8481" y="84.1279">BillingController</text><ellipse cx="853.896" cy="55.1328" fill="#E2E2F0" rx="12" ry="12" style="stroke:#181818;stroke-width:0.5;"/><polygon fill="#181818" points="849.896,43.1328,855.896,38.1328,853.896,43.1328,855.896,48.1328,849.896,43.1328" style="stroke:#181818;stroke-width:1;"/></g><g class="participant participant-tail" data-entity-uid="part4" data-qualified-name="BC" id="part4-tail"><text fill="#000000" font-family="sans-serif" font-size="14" lengthAdjust="spacing" textLength="112.0957" x="794.8481" y="951.2139">BillingController</text><ellipse cx="853.896" cy="970.5156" fill="#E2E2F0" rx="12" ry="12" style="stroke:#181818;stroke-width:0.5;"/><polygon fill="#181818" points="849.896,958.5156,855.896,953.5156,853.896,958.5156,855.896,963.5156,849.896,958.5156" style="stroke:#181818;stroke-width:1;"/></g><g class="participant participant-head" data-entity-uid="part5" data-qualified-name="BA" id="part5-head"><text fill="#000000" font-family="sans-serif" font-size="14" lengthAdjust="spacing" textLength="70.2734" x="1190.8154" y="84.1279">BillingApp</text><ellipse cx="1228.9521" cy="55.1328" fill="#E2E2F0" rx="12" ry="12" style="stroke:#181818;stroke-width:0.5;"/><polygon fill="#181818" points="1224.9521,43.1328,1230.9521,38.1328,1228.9521,43.1328,1230.9521,48.1328,1224.9521,43.1328" style="stroke:#181818;stroke-width:1;"/></g><g class="participant participant-tail" data-entity-uid="part5" data-qualified-name="BA" id="part5-tail"><text fill="#000000" font-family="sans-serif" font-size="14" lengthAdjust="spacing" textLength="70.2734" x="1190.8154" y="951.2139">BillingApp</text><ellipse cx="1228.9521" cy="970.5156" fill="#E2E2F0" rx="12" ry="12" style="stroke:#181818;stroke-width:0.5;"/><polygon fill="#181818" points="1224.9521,958.5156,1230.9521,953.5156,1228.9521,958.5156,1230.9521,963.5156,1224.9521,958.5156" style="stroke:#181818;stroke-width:1;"/></g><g class="participant participant-head" data-entity-uid="part6" data-qualified-name="BDB" id="part6-head"><text fill="#000000" font-family="sans-serif" font-size="14" lengthAdjust="spacing" textLength="63.3076" x="1355.083" y="84.1279">BillingDB</text><path d="M1371.7368,35.1328 C1371.7368,25.1328 1389.7368,25.1328 1389.7368,25.1328 C1389.7368,25.1328 1407.7368,25.1328 1407.7368,35.1328 L1407.7368,61.1328 C1407.7368,71.1328 1389.7368,71.1328 1389.7368,71.1328 C1389.7368,71.1328 1371.7368,71.1328 1371.7368,61.1328 L1371.7368,35.1328" fill="#E2E2F0" style="stroke:#181818;stroke-width:0.5;"/><path d="M1371.7368,35.1328 C1371.7368,45.1328 1389.7368,45.1328 1389.7368,45.1328 C1389.7368,45.1328 1407.7368,45.1328 1407.7368,35.1328" fill="none" style="stroke:#181818;stroke-width:0.5;"/></g><g class="participant participant-tail" data-entity-uid="part6" data-qualified-name="BDB" id="part6-tail"><text fill="#000000" font-family="sans-serif" font-size="14" lengthAdjust="spacing" textLength="63.3076" x="1355.083" y="951.2139">BillingDB</text><path d="M1371.7368,964.5156 C1371.7368,954.5156 1389.7368,954.5156 1389.7368,954.5156 C1389.7368,954.5156 1407.7368,954.5156 1407.7368,964.5156 L1407.7368,990.5156 C1407.7368,1000.5156 1389.7368,1000.5156 1389.7368,1000.5156 C1389.7368,1000.5156 1371.7368,1000.5156 1371.7368,990.5156 L1371.7368,964.5156" fill="#E2E2F0" style="stroke:#181818;stroke-width:0.5;"/><path d="M1371.7368,964.5156 C1371.7368,974.5156 1389.7368,974.5156 1389.7368,974.5156 C1389.7368,974.5156 1407.7368,974.5156 1407.7368,964.5156" fill="none" style="stroke:#181818;stroke-width:0.5;"/></g><g class="participant participant-head" data-entity-uid="part7" data-qualified-name="CC" id="part7-head"><text fill="#000000" font-family="sans-serif" font-size="14" lengthAdjust="spacing" textLength="118.0498" x="1454.3906" y="84.1279">CourseController</text><ellipse cx="1516.4155" cy="55.1328" fill="#E2E2F0" rx="12" ry="12" style="stroke:#181818;stroke-width:0.5;"/><polygon fill="#181818" points="1512.4155,43.1328,1518.4155,38.1328,1516.4155,43.1328,1518.4155,48.1328,1512.4155,43.1328" style="stroke:#181818;stroke-width:1;"/></g><g class="participant participant-tail" data-entity-uid="part7" data-qualified-name="CC" id="part7-tail"><text fill="#000000" font-family="sans-serif" font-size="14" lengthAdjust="spacing" textLength="118.0498" x="1454.3906" y="951.2139">CourseController</text><ellipse cx="1516.4155" cy="970.5156" fill="#E2E2F0" rx="12" ry="12" style="stroke:#181818;stroke-width:0.5;"/><polygon fill="#181818" points="1512.4155,958.5156,1518.4155,953.5156,1516.4155,958.5156,1518.4155,963.5156,1512.4155,958.5156" style="stroke:#181818;stroke-width:1;"/></g><g class="participant participant-head" data-entity-uid="part8" data-qualified-name="UC" id="part8-head"><text fill="#000000" font-family="sans-serif" font-size="14" lengthAdjust="spacing" textLength="101.083" x="1634.5747" y="84.1279">UserController</text><ellipse cx="1688.1162" cy="55.1328" fill="#E2E2F0" rx="12" ry="12" style="stroke:#181818;stroke-width:0.5;"/><polygon fill="#181818" points="1684.1162,43.1328,1690.1162,38.1328,1688.1162,43.1328,1690.1162,48.1328,1684.1162,43.1328" style="stroke:#181818;stroke-width:1;"/></g><g class="participant participant-tail" data-entity-uid="part8" data-qualified-name="UC" id="part8-tail"><text fill="#000000" font-family="sans-serif" font-size="14" lengthAdjust="spacing" textLength="101.083" x="1634.5747" y="951.2139">UserController</text><ellipse cx="1688.1162" cy="970.5156" fill="#E2E2F0" rx="12" ry="12" style="stroke:#181818;stroke-width:0.5;"/><polygon fill="#181818" points="1684.1162,958.5156,1690.1162,953.5156,1688.1162,958.5156,1690.1162,963.5156,1684.1162,958.5156" style="stroke:#181818;stroke-width:1;"/></g><g><title>Learner</title><rect fill="#FFFFFF" height="328.4609" style="stroke:#181818;stroke-width:1;" width="10" x="44.9951" y="118.5625"/></g><g><title>WebApp</title><rect fill="#FFFFFF" height="328.4609" style="stroke:#181818;stroke-width:1;" width="10" x="311.7432" y="118.5625"/></g><g><title>API Gateway</title><rect fill="#FFFFFF" height="270.1953" style="stroke:#181818;stroke-width:1;" width="10" x="618.7524" y="147.6953"/></g><g><title>BillingController</title><rect fill="#FFFFFF" height="169.7969" style="stroke:#181818;stroke-width:1;" width="10" x="848.896" y="218.9609"/></g><g><title>BillingApp</title><rect fill="#FFFFFF" height="272" style="stroke:#181818;stroke-width:1;" width="10" x="1223.9521" y="248.0938"/></g><g><title>BillingDB</title><rect fill="#FFFFFF" height="53.2656" style="stroke:#181818;stroke-width:1;" width="10" x="1384.7368" y="277.2266"/></g><g><title>CourseController</title><rect fill="#FFFFFF" height="71.2656" style="stroke:#181818;stroke-width:1;" width="10" x="1511.4155" y="578.3594"/></g><g><title>UserController</title><rect fill="#FFFFFF" height="71.2656" style="stroke:#181818;stroke-width:1;" width="10" x="1683.1162" y="678.7578"/></g><g class="message" data-entity-1="part1" data-entity-2="part2" id="msg1"><polygon fill="#181818" points="299.7432,114.5625,309.7432,118.5625,299.7432,122.5625,303.7432,118.5625" style="stroke:#181818;stroke-width:1;"/><line style="stroke:#181818;stroke-width:1;" x1="54.9951" x2="305.7432" y1="118.5625" y2="118.5625"/><text fill="#000000" font-family="sans-serif" font-size="13" font-weight="bold" lengthAdjust="spacing" textLength="9.0454" x="61.9951" y="113.4966">1</text><text fill="#000000" font-family="sans-serif" font-size="13" lengthAdjust="spacing" textLength="229.7026" x="75.0405" y="113.4966">Click on transaction to view receipt</text></g><g class="message" data-entity-1="part2" data-entity-2="part3" id="msg2"><polygon fill="#181818" points="606.7524,143.6953,616.7524,147.6953,606.7524,151.6953,610.7524,147.6953" style="stroke:#181818;stroke-width:1;"/><line style="stroke:#181818;stroke-width:1;" x1="321.7432" x2="612.7524" y1="147.6953" y2="147.6953"/><text fill="#000000" font-family="sans-serif" font-size="13" font-weight="bold" lengthAdjust="spacing" textLength="9.0454" x="328.7432" y="142.6294">2</text><text fill="#000000" font-family="sans-serif" font-size="13" lengthAdjust="spacing" textLength="264.9639" x="341.7886" y="142.6294">GET /billing/transactions/{transactionId}</text></g><g class="message" data-entity-1="part3" data-entity-2="part3" id="msg3"><line style="stroke:#181818;stroke-width:1;" x1="628.7524" x2="670.7524" y1="176.8281" y2="176.8281"/><line style="stroke:#181818;stroke-width:1;" x1="670.7524" x2="670.7524" y1="176.8281" y2="189.8281"/><line style="stroke:#181818;stroke-width:1;" x1="629.7524" x2="670.7524" y1="189.8281" y2="189.8281"/><polygon fill="#181818" points="639.7524,185.8281,629.7524,189.8281,639.7524,193.8281,635.7524,189.8281" style="stroke:#181818;stroke-width:1;"/><text fill="#000000" font-family="sans-serif" font-size="13" font-weight="bold" lengthAdjust="spacing" textLength="9.0454" x="635.7524" y="171.7622">3</text><text fill="#000000" font-family="sans-serif" font-size="13" lengthAdjust="spacing" textLength="183.0981" x="648.7979" y="171.7622">Validate JWT, extract userID</text></g><g class="message" data-entity-1="part3" data-entity-2="part4" id="msg4"><polygon fill="#181818" points="836.896,214.9609,846.896,218.9609,836.896,222.9609,840.896,218.9609" style="stroke:#181818;stroke-width:1;"/><line style="stroke:#181818;stroke-width:1;" x1="628.7524" x2="842.896" y1="218.9609" y2="218.9609"/><text fill="#000000" font-family="sans-serif" font-size="13" font-weight="bold" lengthAdjust="spacing" textLength="9.0454" x="635.7524" y="213.895">4</text><text fill="#000000" font-family="sans-serif" font-size="13" lengthAdjust="spacing" textLength="106.8057" x="648.7979" y="213.895">Forward request</text></g><g class="message" data-entity-1="part4" data-entity-2="part5" id="msg5"><polygon fill="#181818" points="1211.9521,244.0938,1221.9521,248.0938,1211.9521,252.0938,1215.9521,248.0938" style="stroke:#181818;stroke-width:1;"/><line style="stroke:#181818;stroke-width:1;" x1="858.896" x2="1217.9521" y1="248.0938" y2="248.0938"/><text fill="#000000" font-family="sans-serif" font-size="13" font-weight="bold" lengthAdjust="spacing" textLength="9.0454" x="865.896" y="243.0278">5</text><text fill="#000000" font-family="sans-serif" font-size="13" lengthAdjust="spacing" textLength="333.0107" x="878.9414" y="243.0278">GetTransactionReceiptDetail(transactionId, userID)</text></g><g class="message" data-entity-1="part5" data-entity-2="part6" id="msg6"><polygon fill="#181818" points="1372.7368,273.2266,1382.7368,277.2266,1372.7368,281.2266,1376.7368,277.2266" style="stroke:#181818;stroke-width:1;"/><line style="stroke:#181818;stroke-width:1;" x1="1233.9521" x2="1378.7368" y1="277.2266" y2="277.2266"/><text fill="#000000" font-family="sans-serif" font-size="13" font-weight="bold" lengthAdjust="spacing" textLength="9.0454" x="1240.9521" y="272.1606">6</text><text fill="#000000" font-family="sans-serif" font-size="13" lengthAdjust="spacing" textLength="105.1489" x="1253.9976" y="272.1606">Find transaction</text></g><path d="M10,292.2266 L74.4429,292.2266 L74.4429,299.3594 L64.4429,309.3594 L10,309.3594 L10,292.2266" fill="#EEEEEE" style="stroke:#000000;stroke-width:1.5;"/><rect fill="none" height="629.9922" style="stroke:#000000;stroke-width:1.5;" width="1834.7158" x="10" y="292.2266"/><text fill="#000000" font-family="sans-serif" font-size="13" font-weight="bold" lengthAdjust="spacing" textLength="19.4429" x="25" y="305.2935">alt</text><text fill="#000000" font-family="sans-serif" font-size="11" font-weight="bold" lengthAdjust="spacing" textLength="233.3311" x="89.4429" y="304.437">[Transaction not found or not owned]</text><g class="message" data-entity-1="part6" data-entity-2="part5" id="msg7"><polygon fill="#181818" points="1244.9521,326.4922,1234.9521,330.4922,1244.9521,334.4922,1240.9521,330.4922" style="stroke:#181818;stroke-width:1;"/><line style="stroke:#181818;stroke-width:1;stroke-dasharray:2,2;" x1="1238.9521" x2="1388.7368" y1="330.4922" y2="330.4922"/><text fill="#000000" font-family="sans-serif" font-size="13" font-weight="bold" lengthAdjust="spacing" textLength="9.0454" x="1250.9521" y="325.4263">7</text><text fill="#000000" font-family="sans-serif" font-size="13" lengthAdjust="spacing" textLength="64.1685" x="1263.9976" y="325.4263">Not found</text></g><g class="message" data-entity-1="part5" data-entity-2="part4" id="msg8"><polygon fill="#181818" points="869.896,355.625,859.896,359.625,869.896,363.625,865.896,359.625" style="stroke:#181818;stroke-width:1;"/><line style="stroke:#181818;stroke-width:1;stroke-dasharray:2,2;" x1="863.896" x2="1222.9521" y1="359.625" y2="359.625"/><text fill="#000000" font-family="sans-serif" font-size="13" font-weight="bold" lengthAdjust="spacing" textLength="9.0454" x="875.896" y="354.5591">8</text><text fill="#000000" font-family="sans-serif" font-size="13" lengthAdjust="spacing" textLength="96.0146" x="888.9414" y="354.5591">404 Not Found</text></g><g class="message" data-entity-1="part4" data-entity-2="part3" id="msg9"><polygon fill="#181818" points="639.7524,384.7578,629.7524,388.7578,639.7524,392.7578,635.7524,388.7578" style="stroke:#181818;stroke-width:1;"/><line style="stroke:#181818;stroke-width:1;stroke-dasharray:2,2;" x1="633.7524" x2="852.896" y1="388.7578" y2="388.7578"/><text fill="#000000" font-family="sans-serif" font-size="13" font-weight="bold" lengthAdjust="spacing" textLength="9.0454" x="645.7524" y="383.6919">9</text><text fill="#000000" font-family="sans-serif" font-size="13" lengthAdjust="spacing" textLength="32.2017" x="658.7979" y="383.6919">Error</text></g><g class="message" data-entity-1="part3" data-entity-2="part2" id="msg10"><polygon fill="#181818" points="332.7432,413.8906,322.7432,417.8906,332.7432,421.8906,328.7432,417.8906" style="stroke:#181818;stroke-width:1;"/><line style="stroke:#181818;stroke-width:1;stroke-dasharray:2,2;" x1="326.7432" x2="622.7524" y1="417.8906" y2="417.8906"/><text fill="#000000" font-family="sans-serif" font-size="13" font-weight="bold" lengthAdjust="spacing" textLength="18.0908" x="338.7432" y="412.8247">10</text><text fill="#000000" font-family="sans-serif" font-size="13" lengthAdjust="spacing" textLength="32.2017" x="360.834" y="412.8247">Error</text></g><g class="message" data-entity-1="part2" data-entity-2="part1" id="msg11"><polygon fill="#181818" points="60.9951,443.0234,50.9951,447.0234,60.9951,451.0234,56.9951,447.0234" style="stroke:#181818;stroke-width:1;"/><line style="stroke:#181818;stroke-width:1;" x1="54.9951" x2="315.7432" y1="447.0234" y2="447.0234"/><text fill="#000000" font-family="sans-serif" font-size="13" font-weight="bold" lengthAdjust="spacing" textLength="18.0908" x="66.9951" y="441.9575">11</text><text fill="#000000" font-family="sans-serif" font-size="13" lengthAdjust="spacing" textLength="84.0366" x="89.0859" y="441.9575">Display error</text></g><line style="stroke:#000000;stroke-width:1;stroke-dasharray:2,2;" x1="10" x2="1844.7158" y1="456.0234" y2="456.0234"/><text fill="#000000" font-family="sans-serif" font-size="11" font-weight="bold" lengthAdjust="spacing" textLength="122.853" x="15" y="466.2339">[Transaction found]</text><g class="message" data-entity-1="part6" data-entity-2="part5" id="msg12"><polygon fill="#181818" points="1244.9521,486.9609,1234.9521,490.9609,1244.9521,494.9609,1240.9521,490.9609" style="stroke:#181818;stroke-width:1;"/><line style="stroke:#181818;stroke-width:1;stroke-dasharray:2,2;" x1="1238.9521" x2="1388.7368" y1="490.9609" y2="490.9609"/><text fill="#000000" font-family="sans-serif" font-size="13" font-weight="bold" lengthAdjust="spacing" textLength="18.0908" x="1250.9521" y="485.895">12</text><text fill="#000000" font-family="sans-serif" font-size="13" lengthAdjust="spacing" textLength="109.6938" x="1273.043" y="485.895">Transaction data</text></g><g class="message" data-entity-1="part5" data-entity-2="part4" id="msg13"><polygon fill="#181818" points="864.896,516.0938,854.896,520.0938,864.896,524.0938,860.896,520.0938" style="stroke:#181818;stroke-width:1;"/><line style="stroke:#181818;stroke-width:1;stroke-dasharray:2,2;" x1="858.896" x2="1227.9521" y1="520.0938" y2="520.0938"/><text fill="#000000" font-family="sans-serif" font-size="13" font-weight="bold" lengthAdjust="spacing" textLength="18.0908" x="870.896" y="515.0278">13</text><text fill="#000000" font-family="sans-serif" font-size="13" lengthAdjust="spacing" textLength="104.4634" x="892.9868" y="515.0278">TransactionDTO</text></g><g class="message" data-entity-1="part4" data-entity-2="part3" id="msg14"><polygon fill="#181818" points="634.7524,545.2266,624.7524,549.2266,634.7524,553.2266,630.7524,549.2266" style="stroke:#181818;stroke-width:1;"/><line style="stroke:#181818;stroke-width:1;stroke-dasharray:2,2;" x1="628.7524" x2="852.896" y1="549.2266" y2="549.2266"/><text fill="#000000" font-family="sans-serif" font-size="13" font-weight="bold" lengthAdjust="spacing" textLength="18.0908" x="640.7524" y="544.1606">14</text><text fill="#000000" font-family="sans-serif" font-size="13" lengthAdjust="spacing" textLength="109.6938" x="662.8433" y="544.1606">Transaction data</text></g><g class="message" data-entity-1="part3" data-entity-2="part7" id="msg15"><polygon fill="#181818" points="1499.4155,574.3594,1509.4155,578.3594,1499.4155,582.3594,1503.4155,578.3594" style="stroke:#181818;stroke-width:1;"/><line style="stroke:#181818;stroke-width:1;" x1="623.7524" x2="1505.4155" y1="578.3594" y2="578.3594"/><text fill="#000000" font-family="sans-serif" font-size="13" font-weight="bold" lengthAdjust="spacing" textLength="18.0908" x="630.7524" y="573.2935">15</text><text fill="#000000" font-family="sans-serif" font-size="13" lengthAdjust="spacing" textLength="215.249" x="652.8433" y="573.2935">gRPC: GetCourseDetail(courseId)</text></g><g class="message" data-entity-1="part7" data-entity-2="part7" id="msg16"><line style="stroke:#181818;stroke-width:1;" x1="1521.4155" x2="1563.4155" y1="607.4922" y2="607.4922"/><line style="stroke:#181818;stroke-width:1;" x1="1563.4155" x2="1563.4155" y1="607.4922" y2="620.4922"/><line style="stroke:#181818;stroke-width:1;" x1="1522.4155" x2="1563.4155" y1="620.4922" y2="620.4922"/><polygon fill="#181818" points="1532.4155,616.4922,1522.4155,620.4922,1532.4155,624.4922,1528.4155,620.4922" style="stroke:#181818;stroke-width:1;"/><text fill="#000000" font-family="sans-serif" font-size="13" font-weight="bold" lengthAdjust="spacing" textLength="18.0908" x="1528.4155" y="602.4263">16</text><text fill="#000000" font-family="sans-serif" font-size="13" lengthAdjust="spacing" textLength="115.6099" x="1550.5063" y="602.4263">Query course info</text></g><g class="message" data-entity-1="part7" data-entity-2="part3" id="msg17"><polygon fill="#181818" points="634.7524,645.625,624.7524,649.625,634.7524,653.625,630.7524,649.625" style="stroke:#181818;stroke-width:1;"/><line style="stroke:#181818;stroke-width:1;stroke-dasharray:2,2;" x1="628.7524" x2="1515.4155" y1="649.625" y2="649.625"/><text fill="#000000" font-family="sans-serif" font-size="13" font-weight="bold" lengthAdjust="spacing" textLength="18.0908" x="640.7524" y="644.5591">17</text><text fill="#000000" font-family="sans-serif" font-size="13" lengthAdjust="spacing" textLength="92.8281" x="662.8433" y="644.5591">Course details</text></g><g class="message" data-entity-1="part3" data-entity-2="part8" id="msg18"><polygon fill="#181818" points="1671.1162,674.7578,1681.1162,678.7578,1671.1162,682.7578,1675.1162,678.7578" style="stroke:#181818;stroke-width:1;"/><line style="stroke:#181818;stroke-width:1;" x1="623.7524" x2="1677.1162" y1="678.7578" y2="678.7578"/><text fill="#000000" font-family="sans-serif" font-size="13" font-weight="bold" lengthAdjust="spacing" textLength="18.0908" x="630.7524" y="673.6919">18</text><text fill="#000000" font-family="sans-serif" font-size="13" lengthAdjust="spacing" textLength="188.792" x="652.8433" y="673.6919">gRPC: GetUserProfile(userID)</text></g><g class="message" data-entity-1="part8" data-entity-2="part8" id="msg19"><line style="stroke:#181818;stroke-width:1;" x1="1693.1162" x2="1735.1162" y1="707.8906" y2="707.8906"/><line style="stroke:#181818;stroke-width:1;" x1="1735.1162" x2="1735.1162" y1="707.8906" y2="720.8906"/><line style="stroke:#181818;stroke-width:1;" x1="1694.1162" x2="1735.1162" y1="720.8906" y2="720.8906"/><polygon fill="#181818" points="1704.1162,716.8906,1694.1162,720.8906,1704.1162,724.8906,1700.1162,720.8906" style="stroke:#181818;stroke-width:1;"/><text fill="#000000" font-family="sans-serif" font-size="13" font-weight="bold" lengthAdjust="spacing" textLength="18.0908" x="1700.1162" y="702.8247">19</text><text fill="#000000" font-family="sans-serif" font-size="13" lengthAdjust="spacing" textLength="100.5088" x="1722.207" y="702.8247">Query user info</text></g><g class="message" data-entity-1="part8" data-entity-2="part3" id="msg20"><polygon fill="#181818" points="634.7524,746.0234,624.7524,750.0234,634.7524,754.0234,630.7524,750.0234" style="stroke:#181818;stroke-width:1;"/><line style="stroke:#181818;stroke-width:1;stroke-dasharray:2,2;" x1="628.7524" x2="1687.1162" y1="750.0234" y2="750.0234"/><text fill="#000000" font-family="sans-serif" font-size="13" font-weight="bold" lengthAdjust="spacing" textLength="18.0908" x="640.7524" y="744.9575">20</text><text fill="#000000" font-family="sans-serif" font-size="13" lengthAdjust="spacing" textLength="75.1118" x="662.8433" y="744.9575">User profile</text></g><g class="message" data-entity-1="part3" data-entity-2="part2" id="msg21"><polygon fill="#181818" points="327.7432,775.1563,317.7432,779.1563,327.7432,783.1563,323.7432,779.1563" style="stroke:#181818;stroke-width:1;"/><line style="stroke:#181818;stroke-width:1;stroke-dasharray:2,2;" x1="321.7432" x2="622.7524" y1="779.1563" y2="779.1563"/><text fill="#000000" font-family="sans-serif" font-size="13" font-weight="bold" lengthAdjust="spacing" textLength="18.0908" x="333.7432" y="774.0903">21</text><text fill="#000000" font-family="sans-serif" font-size="13" lengthAdjust="spacing" textLength="105.936" x="355.834" y="774.0903">Full receipt data</text></g><g class="message" data-entity-1="part2" data-entity-2="part1" id="msg22"><polygon fill="#181818" points="60.9951,910.2188,50.9951,914.2188,60.9951,918.2188,56.9951,914.2188" style="stroke:#181818;stroke-width:1;"/><line style="stroke:#181818;stroke-width:1;" x1="54.9951" x2="315.7432" y1="914.2188" y2="914.2188"/><text fill="#000000" font-family="sans-serif" font-size="13" font-weight="bold" lengthAdjust="spacing" textLength="18.0908" x="66.9951" y="856.188">22</text><text fill="#000000" font-family="sans-serif" font-size="13" lengthAdjust="spacing" textLength="101.8799" x="89.0859" y="803.2231">Display receipt:</text><text fill="#000000" font-family="sans-serif" font-size="13" lengthAdjust="spacing" textLength="103.0796" x="89.0859" y="818.356">- Transaction ID</text><text fill="#000000" font-family="sans-serif" font-size="13" lengthAdjust="spacing" textLength="119.6851" x="89.0859" y="833.4888">- User name/email</text><text fill="#000000" font-family="sans-serif" font-size="13" lengthAdjust="spacing" textLength="95.2085" x="89.0859" y="848.6216">- Course name</text><text fill="#000000" font-family="sans-serif" font-size="13" lengthAdjust="spacing" textLength="59.9092" x="89.0859" y="863.7544">- Amount</text><text fill="#000000" font-family="sans-serif" font-size="13" lengthAdjust="spacing" textLength="120.6563" x="89.0859" y="878.8872">- Payment method</text><text fill="#000000" font-family="sans-serif" font-size="13" lengthAdjust="spacing" textLength="73.6455" x="89.0859" y="894.02">- Date/time</text><text fill="#000000" font-family="sans-serif" font-size="13" lengthAdjust="spacing" textLength="50.248" x="89.0859" y="909.1528">- Status</text></g><?plantuml-src XLHHQzim47xthpYwbnOQqa6VmXZOSciomfQroSnWBufzQKLbAPFbfc7il_TasOti1lfcwRxxxllkJkQDrQgfDcYYg7uIQiSDho3HBqjUba8zmEUhAEA5rGOMo8r20xo6HRJHZIgvEK2EctYtSvTv7D7r2vp5opbatEAU7yxWqq8yFDf4DXW155fPe-K8GhbP7g4gWT8xZaH8wShVetaM1VOyIw6U0fuEnVnHUd49Uu_e92OnXKfk-ORNsCVIf0sboKW2quqXr4Z1RvHIxuCA7ZQKmDY8QrrJOCIK6KGL43dCa6OTq2nWyfLQF0CcHV44Me4rNDKq6k6-DJmBt8F10iNEkec9P-elJUhjqyqdZnrDbiyWkrd1TECxC0sewkc_u3Gl_ny9Q4XPtkV_ubAKxlPRlhe4VA6ama937kPf1qlO36wrsNDJah2_3TQ1C9fIbB0MHgOojAjZrJll8aNBXJmVoBdiIbm4JEGhQNtH3AcYe9O5EG6GHXnnQI4e1KfRsBfb1bfnTz1xXIMDXIY_J2QUytiFSkk30q82CWya6zTNrotsjiDI7zeGDUB666r6wMvHSr_6jVG4X5hUGiZSOWQfg7UI7m3V0_DuU5v4A6bvGwUzWT1O67Vluhs_eS40dwv-ZD3nqF47t2poSBB62FrmjsJj7lZtrCs-Q0_pyeAmRwdCzOsnFlDdW_GVyaWGQgkFCbouUyPbIrWFHR10n3eKuTxYqkYja7ZUBroWOEqKh5cVvXKutAY-2xPFV-UvXjNNRVLW0MuRAVidVA9bj0odjg5BcFrHaq7FvwcxQSihNk4KAsg0k-ewuYxTCQveCQpxMl93XSf2XVPHb-ucfRfJAppmtdBRr1_k7ItPAm00?></g></svg>