<?plantuml 1.2026.1?><svg xmlns="http://www.w3.org/2000/svg" xmlns:xlink="http://www.w3.org/1999/xlink" contentStyleType="text/css" data-diagram-type="SEQUENCE" height="1083px" preserveAspectRatio="none" style="width:1694px;height:1083px;background:#FFFFFF;" version="1.1" viewBox="0 0 1694 1083" width="1694px" zoomAndPan="magnify"><defs/><g><rect fill="#ADD8E6" height="1071.3203" style="stroke:#181818;stroke-width:0.5;" width="102.4434" x="554.8062" y="6"/><text fill="#000000" font-family="sans-serif" font-size="13" font-weight="bold" lengthAdjust="spacing" textLength="92.6821" x="559.6868" y="18.0669">API Gateway</text><rect fill="#FFFFE0" height="1071.3203" style="stroke:#181818;stroke-width:0.5;" width="911.4209" x="760.2891" y="6"/><text fill="#000000" font-family="sans-serif" font-size="13" font-weight="bold" lengthAdjust="spacing" textLength="109.2622" x="1161.3684" y="18.0669">Course Service</text><g><title>Learner</title><rect fill="#FFFFFF" height="124.5313" style="stroke:#181818;stroke-width:1;" width="10" x="54.9951" y="118.5625"/></g><g><title>WebApp</title><rect fill="#FFFFFF" height="124.5313" style="stroke:#181818;stroke-width:1;" width="10" x="325.812" y="118.5625"/></g><g><title>API Gateway</title><rect fill="#FFFFFF" height="270.1953" style="stroke:#181818;stroke-width:1;" width="10" x="601.0278" y="302.1641"/></g><g><title>CommentController</title><rect fill="#FFFFFF" height="169.7969" style="stroke:#181818;stroke-width:1;" width="10" x="831.1714" y="373.4297"/></g><g><title>CourseApp</title><rect fill="#FFFFFF" height="460.9297" style="stroke:#181818;stroke-width:1;" width="10" x="1172.439" y="402.5625"/></g><g><title>LessonComment</title><rect fill="#FFFFFF" height="101.5313" style="stroke:#181818;stroke-width:1;" width="10" x="1379.8154" y="674.5625"/></g><g><title>CourseDB</title><rect fill="#FFFFFF" height="53.2656" style="stroke:#181818;stroke-width:1;" width="10" x="1625.0791" y="431.6953"/></g><g><title>CourseDB</title><rect fill="#FFFFFF" height="29.1328" style="stroke:#181818;stroke-width:1;" width="10" x="1625.0791" y="805.2266"/></g><rect fill="none" height="776.1953" style="stroke:#000000;stroke-width:1.5;" width="1677.71" x="10" y="204.8281"/><rect fill="none" height="527.3281" style="stroke:#000000;stroke-width:1.5;" width="1657.71" x="20" y="446.6953"/><g class="participant-lifeline" data-entity-uid="part1" data-qualified-name="L" id="part1-lifeline"><g><title>Learner</title><rect fill="#000000" fill-opacity="0.00000" height="910.5938" width="8" x="55.9951" y="87.4297"/><line style="stroke:#181818;stroke-width:0.5;stroke-dasharray:5,5;" x1="59" x2="59" y1="87.4297" y2="998.0234"/></g></g><g class="participant-lifeline" data-entity-uid="part2" data-qualified-name="WA" id="part2-lifeline"><g><title>WebApp</title><rect fill="#000000" fill-opacity="0.00000" height="910.5938" width="8" x="326.812" y="87.4297"/><line style="stroke:#181818;stroke-width:0.5;stroke-dasharray:5,5;" x1="330.4653" x2="330.4653" y1="87.4297" y2="998.0234"/></g></g><g class="participant-lifeline" data-entity-uid="part3" data-qualified-name="GW" id="part3-lifeline"><g><title>API Gateway</title><rect fill="#000000" fill-opacity="0.00000" height="910.5938" width="8" x="602.0278" y="87.4297"/><line style="stroke:#181818;stroke-width:0.5;stroke-dasharray:5,5;" x1="605.8062" x2="605.8062" y1="87.4297" y2="998.0234"/></g></g><g class="participant-lifeline" data-entity-uid="part4" data-qualified-name="CC" id="part4-lifeline"><g><title>CommentController</title><rect fill="#000000" fill-opacity="0.00000" height="910.5938" width="8" x="832.1714" y="87.4297"/><line style="stroke:#181818;stroke-width:0.5;stroke-dasharray:5,5;" x1="835.2891" x2="835.2891" y1="87.4297" y2="998.0234"/></g></g><g class="participant-lifeline" data-entity-uid="part5" data-qualified-name="CA" id="part5-lifeline"><g><title>CourseApp</title><rect fill="#000000" fill-opacity="0.00000" height="910.5938" width="8" x="1173.439" y="87.4297"/><line style="stroke:#181818;stroke-width:0.5;stroke-dasharray:5,5;" x1="1177.3252" x2="1177.3252" y1="87.4297" y2="998.0234"/></g></g><g class="participant-lifeline" data-entity-uid="part6" data-qualified-name="LC" id="part6-lifeline"><g><title>LessonComment</title><rect fill="#000000" fill-opacity="0.00000" height="910.5938" width="8" x="1380.8154" y="87.4297"/><line style="stroke:#181818;stroke-width:0.5;stroke-dasharray:5,5;" x1="1384.2998" x2="1384.2998" y1="87.4297" y2="998.0234"/></g></g><g class="participant-lifeline" data-entity-uid="part7" data-qualified-name="CDB" id="part7-lifeline"><g><title>CourseDB</title><rect fill="#000000" fill-opacity="0.00000" height="910.5938" width="8" x="1626.0791" y="87.4297"/><line style="stroke:#181818;stroke-width:0.5;stroke-dasharray:5,5;" x1="1629.4482" x2="1629.4482" y1="87.4297" y2="998.0234"/></g></g><g class="participant participant-head" data-entity-uid="part1" data-qualified-name="L" id="part1-head"><text fill="#000000" font-family="sans-serif" font-size="14" lengthAdjust="spacing" textLength="53.9902" x="30" y="84.1279">Learner</text><ellipse cx="59.9951" cy="19.6328" fill="#E2E2F0" rx="8" ry="8" style="stroke:#181818;stroke-width:0.5;"/><path d="M59.9951,27.6328 L59.9951,54.6328 M46.9951,35.6328 L72.9951,35.6328 M59.9951,54.6328 L46.9951,69.6328 M59.9951,54.6328 L72.9951,69.6328" fill="none" style="stroke:#181818;stroke-width:0.5;"/></g><g class="participant participant-tail" data-entity-uid="part1" data-qualified-name="L" id="part1-tail"><text fill="#000000" font-family="sans-serif" font-size="14" lengthAdjust="spacing" textLength="53.9902" x="30" y="1010.0186">Learner</text><ellipse cx="59.9951" cy="1021.8203" fill="#E2E2F0" rx="8" ry="8" style="stroke:#181818;stroke-width:0.5;"/><path d="M59.9951,1029.8203 L59.9951,1056.8203 M46.9951,1037.8203 L72.9951,1037.8203 M59.9951,1056.8203 L46.9951,1071.8203 M59.9951,1056.8203 L72.9951,1071.8203" fill="none" style="stroke:#181818;stroke-width:0.5;"/></g><g class="participant participant-head" data-entity-uid="part2" data-qualified-name="WA" id="part2-head"><text fill="#000000" font-family="sans-serif" font-size="14" lengthAdjust="spacing" textLength="58.6934" x="298.4653" y="84.1279">WebApp</text><path d="M310.312,43.1328 L310.312,67.1328 M310.312,55.1328 L327.312,55.1328" fill="none" style="stroke:#181818;stroke-width:0.5;"/><ellipse cx="339.312" cy="55.1328" fill="#E2E2F0" rx="12" ry="12" style="stroke:#181818;stroke-width:0.5;"/></g><g class="participant participant-tail" data-entity-uid="part2" data-qualified-name="WA" id="part2-tail"><text fill="#000000" font-family="sans-serif" font-size="14" lengthAdjust="spacing" textLength="58.6934" x="298.4653" y="1010.0186">WebApp</text><path d="M310.312,1017.3203 L310.312,1041.3203 M310.312,1029.3203 L327.312,1029.3203" fill="none" style="stroke:#181818;stroke-width:0.5;"/><ellipse cx="339.312" cy="1029.3203" fill="#E2E2F0" rx="12" ry="12" style="stroke:#181818;stroke-width:0.5;"/></g><g class="participant participant-head" data-entity-uid="part3" data-qualified-name="GW" id="part3-head"><text fill="#000000" font-family="sans-serif" font-size="14" lengthAdjust="spacing" textLength="88.4434" x="558.8062" y="84.1279">API Gateway</text><ellipse cx="606.0278" cy="55.1328" fill="#E2E2F0" rx="12" ry="12" style="stroke:#181818;stroke-width:0.5;"/><polygon fill="#181818" points="602.0278,43.1328,608.0278,38.1328,606.0278,43.1328,608.0278,48.1328,602.0278,43.1328" style="stroke:#181818;stroke-width:1;"/></g><g class="participant participant-tail" data-entity-uid="part3" data-qualified-name="GW" id="part3-tail"><text fill="#000000" font-family="sans-serif" font-size="14" lengthAdjust="spacing" textLength="88.4434" x="558.8062" y="1010.0186">API Gateway</text><ellipse cx="606.0278" cy="1029.3203" fill="#E2E2F0" rx="12" ry="12" style="stroke:#181818;stroke-width:0.5;"/><polygon fill="#181818" points="602.0278,1017.3203,608.0278,1012.3203,606.0278,1017.3203,608.0278,1022.3203,602.0278,1017.3203" style="stroke:#181818;stroke-width:1;"/></g><g class="participant participant-head" data-entity-uid="part4" data-qualified-name="CC" id="part4-head"><text fill="#000000" font-family="sans-serif" font-size="14" lengthAdjust="spacing" textLength="137.7646" x="764.2891" y="84.1279">CommentController</text><ellipse cx="836.1714" cy="55.1328" fill="#E2E2F0" rx="12" ry="12" style="stroke:#181818;stroke-width:0.5;"/><polygon fill="#181818" points="832.1714,43.1328,838.1714,38.1328,836.1714,43.1328,838.1714,48.1328,832.1714,43.1328" style="stroke:#181818;stroke-width:1;"/></g><g class="participant participant-tail" data-entity-uid="part4" data-qualified-name="CC" id="part4-tail"><text fill="#000000" font-family="sans-serif" font-size="14" lengthAdjust="spacing" textLength="137.7646" x="764.2891" y="1010.0186">CommentController</text><ellipse cx="836.1714" cy="1029.3203" fill="#E2E2F0" rx="12" ry="12" style="stroke:#181818;stroke-width:0.5;"/><polygon fill="#181818" points="832.1714,1017.3203,838.1714,1012.3203,836.1714,1017.3203,838.1714,1022.3203,832.1714,1017.3203" style="stroke:#181818;stroke-width:1;"/></g><g class="participant participant-head" data-entity-uid="part5" data-qualified-name="CA" id="part5-head"><text fill="#000000" font-family="sans-serif" font-size="14" lengthAdjust="spacing" textLength="76.2275" x="1136.3252" y="84.1279">CourseApp</text><ellipse cx="1177.439" cy="55.1328" fill="#E2E2F0" rx="12" ry="12" style="stroke:#181818;stroke-width:0.5;"/><polygon fill="#181818" points="1173.439,43.1328,1179.439,38.1328,1177.439,43.1328,1179.439,48.1328,1173.439,43.1328" style="stroke:#181818;stroke-width:1;"/></g><g class="participant participant-tail" data-entity-uid="part5" data-qualified-name="CA" id="part5-tail"><text fill="#000000" font-family="sans-serif" font-size="14" lengthAdjust="spacing" textLength="76.2275" x="1136.3252" y="1010.0186">CourseApp</text><ellipse cx="1177.439" cy="1029.3203" fill="#E2E2F0" rx="12" ry="12" style="stroke:#181818;stroke-width:0.5;"/><polygon fill="#181818" points="1173.439,1017.3203,1179.439,1012.3203,1177.439,1017.3203,1179.439,1022.3203,1173.439,1017.3203" style="stroke:#181818;stroke-width:1;"/></g><g class="participant participant-head" data-entity-uid="part6" data-qualified-name="LC" id="part6-head"><text fill="#000000" font-family="sans-serif" font-size="14" lengthAdjust="spacing" textLength="117.0313" x="1323.2998" y="84.1279">LessonComment</text><ellipse cx="1384.8154" cy="55.1328" fill="#E2E2F0" rx="12" ry="12" style="stroke:#181818;stroke-width:0.5;"/><line style="stroke:#181818;stroke-width:0.5;" x1="1372.8154" x2="1396.8154" y1="69.1328" y2="69.1328"/></g><g class="participant participant-tail" data-entity-uid="part6" data-qualified-name="LC" id="part6-tail"><text fill="#000000" font-family="sans-serif" font-size="14" lengthAdjust="spacing" textLength="117.0313" x="1323.2998" y="1010.0186">LessonComment</text><ellipse cx="1384.8154" cy="1029.3203" fill="#E2E2F0" rx="12" ry="12" style="stroke:#181818;stroke-width:0.5;"/><line style="stroke:#181818;stroke-width:0.5;" x1="1372.8154" x2="1396.8154" y1="1043.3203" y2="1043.3203"/></g><g class="participant participant-head" data-entity-uid="part7" data-qualified-name="CDB" id="part7-head"><text fill="#000000" font-family="sans-serif" font-size="14" lengthAdjust="spacing" textLength="69.2617" x="1592.4482" y="84.1279">CourseDB</text><path d="M1612.0791,35.1328 C1612.0791,25.1328 1630.0791,25.1328 1630.0791,25.1328 C1630.0791,25.1328 1648.0791,25.1328 1648.0791,35.1328 L1648.0791,61.1328 C1648.0791,71.1328 1630.0791,71.1328 1630.0791,71.1328 C1630.0791,71.1328 1612.0791,71.1328 1612.0791,61.1328 L1612.0791,35.1328" fill="#E2E2F0" style="stroke:#181818;stroke-width:0.5;"/><path d="M1612.0791,35.1328 C1612.0791,45.1328 1630.0791,45.1328 1630.0791,45.1328 C1630.0791,45.1328 1648.0791,45.1328 1648.0791,35.1328" fill="none" style="stroke:#181818;stroke-width:0.5;"/></g><g class="participant participant-tail" data-entity-uid="part7" data-qualified-name="CDB" id="part7-tail"><text fill="#000000" font-family="sans-serif" font-size="14" lengthAdjust="spacing" textLength="69.2617" x="1592.4482" y="1010.0186">CourseDB</text><path d="M1612.0791,1023.3203 C1612.0791,1013.3203 1630.0791,1013.3203 1630.0791,1013.3203 C1630.0791,1013.3203 1648.0791,1013.3203 1648.0791,1023.3203 L1648.0791,1049.3203 C1648.0791,1059.3203 1630.0791,1059.3203 1630.0791,1059.3203 C1630.0791,1059.3203 1612.0791,1059.3203 1612.0791,1049.3203 L1612.0791,1023.3203" fill="#E2E2F0" style="stroke:#181818;stroke-width:0.5;"/><path d="M1612.0791,1023.3203 C1612.0791,1033.3203 1630.0791,1033.3203 1630.0791,1033.3203 C1630.0791,1033.3203 1648.0791,1033.3203 1648.0791,1023.3203" fill="none" style="stroke:#181818;stroke-width:0.5;"/></g><g><title>Learner</title><rect fill="#FFFFFF" height="124.5313" style="stroke:#181818;stroke-width:1;" width="10" x="54.9951" y="118.5625"/></g><g><title>WebApp</title><rect fill="#FFFFFF" height="124.5313" style="stroke:#181818;stroke-width:1;" width="10" x="325.812" y="118.5625"/></g><g><title>API Gateway</title><rect fill="#FFFFFF" height="270.1953" style="stroke:#181818;stroke-width:1;" width="10" x="601.0278" y="302.1641"/></g><g><title>CommentController</title><rect fill="#FFFFFF" height="169.7969" style="stroke:#181818;stroke-width:1;" width="10" x="831.1714" y="373.4297"/></g><g><title>CourseApp</title><rect fill="#FFFFFF" height="460.9297" style="stroke:#181818;stroke-width:1;" width="10" x="1172.439" y="402.5625"/></g><g><title>LessonComment</title><rect fill="#FFFFFF" height="101.5313" style="stroke:#181818;stroke-width:1;" width="10" x="1379.8154" y="674.5625"/></g><g><title>CourseDB</title><rect fill="#FFFFFF" height="53.2656" style="stroke:#181818;stroke-width:1;" width="10" x="1625.0791" y="431.6953"/></g><g><title>CourseDB</title><rect fill="#FFFFFF" height="29.1328" style="stroke:#181818;stroke-width:1;" width="10" x="1625.0791" y="805.2266"/></g><g class="message" data-entity-1="part1" data-entity-2="part2" id="msg1"><polygon fill="#181818" points="313.812,114.5625,323.812,118.5625,313.812,122.5625,317.812,118.5625" style="stroke:#181818;stroke-width:1;"/><line style="stroke:#181818;stroke-width:1;" x1="64.9951" x2="319.812" y1="118.5625" y2="118.5625"/><text fill="#000000" font-family="sans-serif" font-size="13" font-weight="bold" lengthAdjust="spacing" textLength="9.0454" x="71.9951" y="113.4966">1</text><text fill="#000000" font-family="sans-serif" font-size="13" lengthAdjust="spacing" textLength="233.7715" x="85.0405" y="113.4966">Write comment in lesson discussion</text></g><g class="message" data-entity-1="part1" data-entity-2="part2" id="msg2"><polygon fill="#181818" points="313.812,143.6953,323.812,147.6953,313.812,151.6953,317.812,147.6953" style="stroke:#181818;stroke-width:1;"/><line style="stroke:#181818;stroke-width:1;" x1="64.9951" x2="319.812" y1="147.6953" y2="147.6953"/><text fill="#000000" font-family="sans-serif" font-size="13" font-weight="bold" lengthAdjust="spacing" textLength="9.0454" x="71.9951" y="142.6294">2</text><text fill="#000000" font-family="sans-serif" font-size="13" lengthAdjust="spacing" textLength="142.5557" x="85.0405" y="142.6294">Click "Post Comment"</text></g><g class="message" data-entity-1="part2" data-entity-2="part2" id="msg3"><line style="stroke:#181818;stroke-width:1;" x1="335.812" x2="377.812" y1="176.8281" y2="176.8281"/><line style="stroke:#181818;stroke-width:1;" x1="377.812" x2="377.812" y1="176.8281" y2="189.8281"/><line style="stroke:#181818;stroke-width:1;" x1="336.812" x2="377.812" y1="189.8281" y2="189.8281"/><polygon fill="#181818" points="346.812,185.8281,336.812,189.8281,346.812,193.8281,342.812,189.8281" style="stroke:#181818;stroke-width:1;"/><text fill="#000000" font-family="sans-serif" font-size="13" font-weight="bold" lengthAdjust="spacing" textLength="9.0454" x="342.812" y="171.7622">3</text><text fill="#000000" font-family="sans-serif" font-size="13" lengthAdjust="spacing" textLength="190.5503" x="355.8574" y="171.7622">Validate comment not empty</text></g><path d="M10,204.8281 L74.4429,204.8281 L74.4429,211.9609 L64.4429,221.9609 L10,221.9609 L10,204.8281" fill="#EEEEEE" style="stroke:#000000;stroke-width:1.5;"/><rect fill="none" height="776.1953" style="stroke:#000000;stroke-width:1.5;" width="1677.71" x="10" y="204.8281"/><text fill="#000000" font-family="sans-serif" font-size="13" font-weight="bold" lengthAdjust="spacing" textLength="19.4429" x="25" y="217.895">alt</text><text fill="#000000" font-family="sans-serif" font-size="11" font-weight="bold" lengthAdjust="spacing" textLength="110.7144" x="89.4429" y="217.0386">[Empty comment]</text><g class="message" data-entity-1="part2" data-entity-2="part1" id="msg4"><polygon fill="#181818" points="70.9951,239.0938,60.9951,243.0938,70.9951,247.0938,66.9951,243.0938" style="stroke:#181818;stroke-width:1;"/><line style="stroke:#181818;stroke-width:1;" x1="64.9951" x2="329.812" y1="243.0938" y2="243.0938"/><text fill="#000000" font-family="sans-serif" font-size="13" font-weight="bold" lengthAdjust="spacing" textLength="9.0454" x="76.9951" y="238.0278">4</text><text fill="#000000" font-family="sans-serif" font-size="13" lengthAdjust="spacing" textLength="152.1724" x="90.0405" y="238.0278">Display validation error</text></g><line style="stroke:#000000;stroke-width:1;stroke-dasharray:2,2;" x1="10" x2="1687.71" y1="252.0938" y2="252.0938"/><text fill="#000000" font-family="sans-serif" font-size="11" font-weight="bold" lengthAdjust="spacing" textLength="102.7866" x="15" y="262.3042">[Valid comment]</text><g class="message" data-entity-1="part2" data-entity-2="part3" id="msg5"><polygon fill="#181818" points="589.0278,298.1641,599.0278,302.1641,589.0278,306.1641,593.0278,302.1641" style="stroke:#181818;stroke-width:1;"/><line style="stroke:#181818;stroke-width:1;" x1="330.812" x2="595.0278" y1="302.1641" y2="302.1641"/><text fill="#000000" font-family="sans-serif" font-size="13" font-weight="bold" lengthAdjust="spacing" textLength="9.0454" x="337.812" y="289.5317">5</text><text fill="#000000" font-family="sans-serif" font-size="13" lengthAdjust="spacing" textLength="238.1704" x="350.8574" y="281.9653">POST /lessons/{lessonId}/comments</text><text fill="#000000" font-family="sans-serif" font-size="13" lengthAdjust="spacing" textLength="66.314" x="350.8574" y="297.0981">{content}</text></g><g class="message" data-entity-1="part3" data-entity-2="part3" id="msg6"><line style="stroke:#181818;stroke-width:1;" x1="611.0278" x2="653.0278" y1="331.2969" y2="331.2969"/><line style="stroke:#181818;stroke-width:1;" x1="653.0278" x2="653.0278" y1="331.2969" y2="344.2969"/><line style="stroke:#181818;stroke-width:1;" x1="612.0278" x2="653.0278" y1="344.2969" y2="344.2969"/><polygon fill="#181818" points="622.0278,340.2969,612.0278,344.2969,622.0278,348.2969,618.0278,344.2969" style="stroke:#181818;stroke-width:1;"/><text fill="#000000" font-family="sans-serif" font-size="13" font-weight="bold" lengthAdjust="spacing" textLength="9.0454" x="618.0278" y="326.231">6</text><text fill="#000000" font-family="sans-serif" font-size="13" lengthAdjust="spacing" textLength="183.0981" x="631.0732" y="326.231">Validate JWT, extract userID</text></g><g class="message" data-entity-1="part3" data-entity-2="part4" id="msg7"><polygon fill="#181818" points="819.1714,369.4297,829.1714,373.4297,819.1714,377.4297,823.1714,373.4297" style="stroke:#181818;stroke-width:1;"/><line style="stroke:#181818;stroke-width:1;" x1="611.0278" x2="825.1714" y1="373.4297" y2="373.4297"/><text fill="#000000" font-family="sans-serif" font-size="13" font-weight="bold" lengthAdjust="spacing" textLength="9.0454" x="618.0278" y="368.3638">7</text><text fill="#000000" font-family="sans-serif" font-size="13" lengthAdjust="spacing" textLength="106.8057" x="631.0732" y="368.3638">Forward request</text></g><g class="message" data-entity-1="part4" data-entity-2="part5" id="msg8"><polygon fill="#181818" points="1160.439,398.5625,1170.439,402.5625,1160.439,406.5625,1164.439,402.5625" style="stroke:#181818;stroke-width:1;"/><line style="stroke:#181818;stroke-width:1;" x1="841.1714" x2="1166.439" y1="402.5625" y2="402.5625"/><text fill="#000000" font-family="sans-serif" font-size="13" font-weight="bold" lengthAdjust="spacing" textLength="9.0454" x="848.1714" y="397.4966">8</text><text fill="#000000" font-family="sans-serif" font-size="13" lengthAdjust="spacing" textLength="299.2222" x="861.2168" y="397.4966">CommentOnLesson(lessonId, userID, content)</text></g><g class="message" data-entity-1="part5" data-entity-2="part7" id="msg9"><polygon fill="#181818" points="1613.0791,427.6953,1623.0791,431.6953,1613.0791,435.6953,1617.0791,431.6953" style="stroke:#181818;stroke-width:1;"/><line style="stroke:#181818;stroke-width:1;" x1="1182.439" x2="1619.0791" y1="431.6953" y2="431.6953"/><text fill="#000000" font-family="sans-serif" font-size="13" font-weight="bold" lengthAdjust="spacing" textLength="9.0454" x="1189.439" y="426.6294">9</text><text fill="#000000" font-family="sans-serif" font-size="13" lengthAdjust="spacing" textLength="224.1294" x="1202.4844" y="426.6294">Verify enrollment (through lesson)</text></g><path d="M20,446.6953 L84.4429,446.6953 L84.4429,453.8281 L74.4429,463.8281 L20,463.8281 L20,446.6953" fill="#EEEEEE" style="stroke:#000000;stroke-width:1.5;"/><rect fill="none" height="527.3281" style="stroke:#000000;stroke-width:1.5;" width="1657.71" x="20" y="446.6953"/><text fill="#000000" font-family="sans-serif" font-size="13" font-weight="bold" lengthAdjust="spacing" textLength="19.4429" x="35" y="459.7622">alt</text><text fill="#000000" font-family="sans-serif" font-size="11" font-weight="bold" lengthAdjust="spacing" textLength="87.0547" x="99.4429" y="458.9058">[Not enrolled]</text><g class="message" data-entity-1="part7" data-entity-2="part5" id="msg10"><polygon fill="#181818" points="1193.439,480.9609,1183.439,484.9609,1193.439,488.9609,1189.439,484.9609" style="stroke:#181818;stroke-width:1;"/><line style="stroke:#181818;stroke-width:1;stroke-dasharray:2,2;" x1="1187.439" x2="1629.0791" y1="484.9609" y2="484.9609"/><text fill="#000000" font-family="sans-serif" font-size="13" font-weight="bold" lengthAdjust="spacing" textLength="18.0908" x="1199.439" y="479.895">10</text><text fill="#000000" font-family="sans-serif" font-size="13" lengthAdjust="spacing" textLength="64.1685" x="1221.5298" y="479.895">Not found</text></g><g class="message" data-entity-1="part5" data-entity-2="part4" id="msg11"><polygon fill="#181818" points="852.1714,510.0938,842.1714,514.0938,852.1714,518.0938,848.1714,514.0938" style="stroke:#181818;stroke-width:1;"/><line style="stroke:#181818;stroke-width:1;stroke-dasharray:2,2;" x1="846.1714" x2="1171.439" y1="514.0938" y2="514.0938"/><text fill="#000000" font-family="sans-serif" font-size="13" font-weight="bold" lengthAdjust="spacing" textLength="18.0908" x="858.1714" y="509.0278">11</text><text fill="#000000" font-family="sans-serif" font-size="13" lengthAdjust="spacing" textLength="94.3262" x="880.2622" y="509.0278">403 Forbidden</text></g><g class="message" data-entity-1="part4" data-entity-2="part3" id="msg12"><polygon fill="#181818" points="622.0278,539.2266,612.0278,543.2266,622.0278,547.2266,618.0278,543.2266" style="stroke:#181818;stroke-width:1;"/><line style="stroke:#181818;stroke-width:1;stroke-dasharray:2,2;" x1="616.0278" x2="835.1714" y1="543.2266" y2="543.2266"/><text fill="#000000" font-family="sans-serif" font-size="13" font-weight="bold" lengthAdjust="spacing" textLength="18.0908" x="628.0278" y="538.1606">12</text><text fill="#000000" font-family="sans-serif" font-size="13" lengthAdjust="spacing" textLength="32.2017" x="650.1187" y="538.1606">Error</text></g><g class="message" data-entity-1="part3" data-entity-2="part2" id="msg13"><polygon fill="#181818" points="341.812,568.3594,331.812,572.3594,341.812,576.3594,337.812,572.3594" style="stroke:#181818;stroke-width:1;"/><line style="stroke:#181818;stroke-width:1;stroke-dasharray:2,2;" x1="335.812" x2="605.0278" y1="572.3594" y2="572.3594"/><text fill="#000000" font-family="sans-serif" font-size="13" font-weight="bold" lengthAdjust="spacing" textLength="18.0908" x="347.812" y="567.2935">13</text><text fill="#000000" font-family="sans-serif" font-size="13" lengthAdjust="spacing" textLength="32.2017" x="369.9028" y="567.2935">Error</text></g><g class="message" data-entity-1="part2" data-entity-2="part1" id="msg14"><polygon fill="#181818" points="70.9951,597.4922,60.9951,601.4922,70.9951,605.4922,66.9951,601.4922" style="stroke:#181818;stroke-width:1;"/><line style="stroke:#181818;stroke-width:1;" x1="64.9951" x2="329.812" y1="601.4922" y2="601.4922"/><text fill="#000000" font-family="sans-serif" font-size="13" font-weight="bold" lengthAdjust="spacing" textLength="18.0908" x="76.9951" y="596.4263">14</text><text fill="#000000" font-family="sans-serif" font-size="13" lengthAdjust="spacing" textLength="172.8594" x="99.0859" y="596.4263">Display "Must be enrolled"</text></g><line style="stroke:#000000;stroke-width:1;stroke-dasharray:2,2;" x1="20" x2="1677.71" y1="610.4922" y2="610.4922"/><text fill="#000000" font-family="sans-serif" font-size="11" font-weight="bold" lengthAdjust="spacing" textLength="61.2573" x="25" y="620.7026">[Enrolled]</text><g class="message" data-entity-1="part7" data-entity-2="part5" id="msg15"><polygon fill="#181818" points="1193.439,641.4297,1183.439,645.4297,1193.439,649.4297,1189.439,645.4297" style="stroke:#181818;stroke-width:1;"/><line style="stroke:#181818;stroke-width:1;stroke-dasharray:2,2;" x1="1187.439" x2="1629.0791" y1="645.4297" y2="645.4297"/><text fill="#000000" font-family="sans-serif" font-size="13" font-weight="bold" lengthAdjust="spacing" textLength="18.0908" x="1199.439" y="640.3638">15</text><text fill="#000000" font-family="sans-serif" font-size="13" lengthAdjust="spacing" textLength="140.8926" x="1221.5298" y="640.3638">Enrollment confirmed</text></g><g class="message" data-entity-1="part5" data-entity-2="part6" id="msg16"><polygon fill="#181818" points="1367.8154,670.5625,1377.8154,674.5625,1367.8154,678.5625,1371.8154,674.5625" style="stroke:#181818;stroke-width:1;"/><line style="stroke:#181818;stroke-width:1;" x1="1182.439" x2="1373.8154" y1="674.5625" y2="674.5625"/><text fill="#000000" font-family="sans-serif" font-size="13" font-weight="bold" lengthAdjust="spacing" textLength="18.0908" x="1189.439" y="669.4966">16</text><text fill="#000000" font-family="sans-serif" font-size="13" lengthAdjust="spacing" textLength="156.2856" x="1211.5298" y="669.4966">Create LessonComment</text></g><g class="message" data-entity-1="part6" data-entity-2="part6" id="msg17"><line style="stroke:#181818;stroke-width:1;" x1="1389.8154" x2="1431.8154" y1="733.9609" y2="733.9609"/><line style="stroke:#181818;stroke-width:1;" x1="1431.8154" x2="1431.8154" y1="733.9609" y2="746.9609"/><line style="stroke:#181818;stroke-width:1;" x1="1390.8154" x2="1431.8154" y1="746.9609" y2="746.9609"/><polygon fill="#181818" points="1400.8154,742.9609,1390.8154,746.9609,1400.8154,750.9609,1396.8154,746.9609" style="stroke:#181818;stroke-width:1;"/><text fill="#000000" font-family="sans-serif" font-size="13" font-weight="bold" lengthAdjust="spacing" textLength="18.0908" x="1396.8154" y="713.7622">17</text><text fill="#000000" font-family="sans-serif" font-size="13" lengthAdjust="spacing" textLength="189.1729" x="1418.9063" y="698.6294">Set lessonID, userID, content</text><text fill="#000000" font-family="sans-serif" font-size="13" lengthAdjust="spacing" textLength="125.9058" x="1418.9063" y="713.7622">createdAt = NOW()</text><text fill="#000000" font-family="sans-serif" font-size="13" lengthAdjust="spacing" textLength="163.2935" x="1418.9063" y="728.895">parentCommentID = null</text></g><g class="message" data-entity-1="part6" data-entity-2="part5" id="msg18"><polygon fill="#181818" points="1193.439,772.0938,1183.439,776.0938,1193.439,780.0938,1189.439,776.0938" style="stroke:#181818;stroke-width:1;"/><line style="stroke:#181818;stroke-width:1;stroke-dasharray:2,2;" x1="1187.439" x2="1383.8154" y1="776.0938" y2="776.0938"/><text fill="#000000" font-family="sans-serif" font-size="13" font-weight="bold" lengthAdjust="spacing" textLength="18.0908" x="1199.439" y="771.0278">18</text><text fill="#000000" font-family="sans-serif" font-size="13" lengthAdjust="spacing" textLength="105.5615" x="1221.5298" y="771.0278">Comment entity</text></g><g class="message" data-entity-1="part5" data-entity-2="part7" id="msg19"><polygon fill="#181818" points="1613.0791,801.2266,1623.0791,805.2266,1613.0791,809.2266,1617.0791,805.2266" style="stroke:#181818;stroke-width:1;"/><line style="stroke:#181818;stroke-width:1;" x1="1182.439" x2="1619.0791" y1="805.2266" y2="805.2266"/><text fill="#000000" font-family="sans-serif" font-size="13" font-weight="bold" lengthAdjust="spacing" textLength="18.0908" x="1189.439" y="800.1606">19</text><text fill="#000000" font-family="sans-serif" font-size="13" lengthAdjust="spacing" textLength="97.8047" x="1211.5298" y="800.1606">Save comment</text></g><g class="message" data-entity-1="part7" data-entity-2="part5" id="msg20"><polygon fill="#181818" points="1193.439,830.3594,1183.439,834.3594,1193.439,838.3594,1189.439,834.3594" style="stroke:#181818;stroke-width:1;"/><line style="stroke:#181818;stroke-width:1;stroke-dasharray:2,2;" x1="1187.439" x2="1629.0791" y1="834.3594" y2="834.3594"/><text fill="#000000" font-family="sans-serif" font-size="13" font-weight="bold" lengthAdjust="spacing" textLength="18.0908" x="1199.439" y="829.2935">20</text><text fill="#000000" font-family="sans-serif" font-size="13" lengthAdjust="spacing" textLength="106.5073" x="1221.5298" y="829.2935">Comment saved</text></g><g class="message" data-entity-1="part5" data-entity-2="part4" id="msg21"><polygon fill="#181818" points="847.1714,859.4922,837.1714,863.4922,847.1714,867.4922,843.1714,863.4922" style="stroke:#181818;stroke-width:1;"/><line style="stroke:#181818;stroke-width:1;stroke-dasharray:2,2;" x1="841.1714" x2="1176.439" y1="863.4922" y2="863.4922"/><text fill="#000000" font-family="sans-serif" font-size="13" font-weight="bold" lengthAdjust="spacing" textLength="18.0908" x="853.1714" y="858.4263">21</text><text fill="#000000" font-family="sans-serif" font-size="13" lengthAdjust="spacing" textLength="136.8555" x="875.2622" y="858.4263">LessonCommentDTO</text></g><g class="message" data-entity-1="part4" data-entity-2="part3" id="msg22"><polygon fill="#181818" points="617.0278,888.625,607.0278,892.625,617.0278,896.625,613.0278,892.625" style="stroke:#181818;stroke-width:1;"/><line style="stroke:#181818;stroke-width:1;stroke-dasharray:2,2;" x1="611.0278" x2="835.1714" y1="892.625" y2="892.625"/><text fill="#000000" font-family="sans-serif" font-size="13" font-weight="bold" lengthAdjust="spacing" textLength="18.0908" x="623.0278" y="887.5591">22</text><text fill="#000000" font-family="sans-serif" font-size="13" lengthAdjust="spacing" textLength="80.6787" x="645.1187" y="887.5591">201 Created</text></g><g class="message" data-entity-1="part3" data-entity-2="part2" id="msg23"><polygon fill="#181818" points="341.812,917.7578,331.812,921.7578,341.812,925.7578,337.812,921.7578" style="stroke:#181818;stroke-width:1;"/><line style="stroke:#181818;stroke-width:1;stroke-dasharray:2,2;" x1="335.812" x2="605.0278" y1="921.7578" y2="921.7578"/><text fill="#000000" font-family="sans-serif" font-size="13" font-weight="bold" lengthAdjust="spacing" textLength="18.0908" x="347.812" y="916.6919">23</text><text fill="#000000" font-family="sans-serif" font-size="13" lengthAdjust="spacing" textLength="127.6641" x="369.9028" y="916.6919">New comment data</text></g><g class="message" data-entity-1="part2" data-entity-2="part1" id="msg24"><polygon fill="#181818" points="70.9951,962.0234,60.9951,966.0234,70.9951,970.0234,66.9951,966.0234" style="stroke:#181818;stroke-width:1;"/><line style="stroke:#181818;stroke-width:1;" x1="64.9951" x2="329.812" y1="966.0234" y2="966.0234"/><text fill="#000000" font-family="sans-serif" font-size="13" font-weight="bold" lengthAdjust="spacing" textLength="18.0908" x="76.9951" y="953.3911">24</text><text fill="#000000" font-family="sans-serif" font-size="13" lengthAdjust="spacing" textLength="179.9814" x="99.0859" y="945.8247">Add comment to discussion</text><text fill="#000000" font-family="sans-serif" font-size="13" lengthAdjust="spacing" textLength="205.9116" x="99.0859" y="960.9575">with author info and timestamp</text></g><?plantuml-src ZLLDRnen4BtlhnZHIo8bIjBsXDfAYw4H5Gr8eAugSJ5u25PsRMfx8IZAV-_OtbqMGZyE8DipypplpNYMbqwhibYWIHBx9DM66rv0JpzFk11IFSBTRPBmfTC6HiYDGWFSmYXPw589RlQGuIBTRFnXbYPq_0oTT3A4U-vmn_STU3UIZslNoqjC09PQEQFp4nUAlSyIL08elC9WkZGMOOfcAvTOm_p4FDUx5X3JHO7AiRZDOtQC7Nbue2f5bfA5_ANR4nrhjQe00YaV9hZZ2qutnxX-BuJrUuVqHd3zXRXs8JFI8TqJ0QI2F222a7PPMYkryiB9BT4amPgbbwd1OBbSFa5degshkNII94jh-m-UIy5RroZj08kDsrDLSWS3lwoDb7wC77MXB-qcvtlOHW1A1j0ORJn5REToj1ybc1FtSEiRrFki2vFnT0OtaQYzUOcBeNYzgPpjNBruvMdvIe4DCDKNwA-6QMXzosPNWC_Ea2UK5ismtpWoreMlskou4M3mLudMjI6fohHbBBXwAMC6OnKBUr7dTbNXNa6LsEKHIXfG0a4gCwM6Hgxsr2I-duBa5svjTFcuhkfx74wTuVTKYWTVcH25Weu2wAVhwuZgZIl_P8AbfRW72CuiEXEHZxSVFE-5509LC98UmKY23AeY7eEmS9B52xt0Pzr24SxqIETxIUstm2Rzpcbaw9EJJg67v7jby2VAWuE29FnAcWBFigy3VKv4a1aC-EtN6LmELqUs8rQ7JD5LjV5LFgdsN2q3eaWTV8Q7SNPnEVTJBaoDW3xiaq6LUTwc45AftbmS66yKOEtK0-KftsBhsPpqoQb0DRobgByeSsYC8qtwi_6RcFIqMzxVtbM2Yd_tp0FkcZ7Zn-2PzZdkdrGqGmASRiszkTf9jmPUkZLzDwHQQU0qFfqiw0tpOlEVxKMlnVz-0m00?></g></svg>