<?plantuml 1.2026.1?><svg xmlns="http://www.w3.org/2000/svg" xmlns:xlink="http://www.w3.org/1999/xlink" contentStyleType="text/css" data-diagram-type="SEQUENCE" height="1020px" preserveAspectRatio="none" style="width:1374px;height:1020px;background:#FFFFFF;" version="1.1" viewBox="0 0 1374 1020" width="1374px" zoomAndPan="magnify"><defs/><g><rect fill="#ADD8E6" height="1008.1172" style="stroke:#181818;stroke-width:0.5;" width="102.4434" x="423.4141" y="6"/><text fill="#000000" font-family="sans-serif" font-size="13" font-weight="bold" lengthAdjust="spacing" textLength="92.6821" x="428.2947" y="18.0669">API Gateway</text><rect fill="#FFFFE0" height="1008.1172" style="stroke:#181818;stroke-width:0.5;" width="803.5063" x="557.6807" y="6"/><text fill="#000000" font-family="sans-serif" font-size="13" font-weight="bold" lengthAdjust="spacing" textLength="109.2622" x="904.8027" y="18.0669">Course Service</text><g><title>Instructor</title><rect fill="#FFFFFF" height="501.2578" style="stroke:#181818;stroke-width:1;" width="10" x="51.9609" y="118.5625"/></g><g><title>WebApp</title><rect fill="#FFFFFF" height="501.2578" style="stroke:#181818;stroke-width:1;" width="10" x="253.0742" y="118.5625"/></g><g><title>API Gateway</title><rect fill="#FFFFFF" height="312.3281" style="stroke:#181818;stroke-width:1;" width="10" x="469.6357" y="278.3594"/></g><g><title>LessonController</title><rect fill="#FFFFFF" height="211.9297" style="stroke:#181818;stroke-width:1;" width="10" x="618.4868" y="349.625"/></g><g><title>CourseApp</title><rect fill="#FFFFFF" height="443.6641" style="stroke:#181818;stroke-width:1;" width="10" x="940.064" y="378.7578"/></g><g><title>Lesson</title><rect fill="#FFFFFF" height="71.2656" style="stroke:#181818;stroke-width:1;" width="10" x="1172.4292" y="663.7578"/></g><g><title>CourseDB</title><rect fill="#FFFFFF" height="29.1328" style="stroke:#181818;stroke-width:1;" width="10" x="1314.5562" y="407.8906"/></g><g><title>CourseDB</title><rect fill="#FFFFFF" height="29.1328" style="stroke:#181818;stroke-width:1;" width="10" x="1314.5562" y="764.1563"/></g><rect fill="none" height="423.6641" style="stroke:#000000;stroke-width:1.5;" width="1357.187" x="10" y="494.1563"/><g class="participant-lifeline" data-entity-uid="part1" data-qualified-name="I" id="part1-lifeline"><g><title>Instructor</title><rect fill="#000000" fill-opacity="0.00000" height="847.3906" width="8" x="52.9609" y="87.4297"/><line style="stroke:#181818;stroke-width:0.5;stroke-dasharray:5,5;" x1="56" x2="56" y1="87.4297" y2="934.8203"/></g></g><g class="participant-lifeline" data-entity-uid="part2" data-qualified-name="WA" id="part2-lifeline"><g><title>WebApp</title><rect fill="#000000" fill-opacity="0.00000" height="847.3906" width="8" x="254.0742" y="87.4297"/><line style="stroke:#181818;stroke-width:0.5;stroke-dasharray:5,5;" x1="257.7275" x2="257.7275" y1="87.4297" y2="934.8203"/></g></g><g class="participant-lifeline" data-entity-uid="part3" data-qualified-name="GW" id="part3-lifeline"><g><title>API Gateway</title><rect fill="#000000" fill-opacity="0.00000" height="847.3906" width="8" x="470.6357" y="87.4297"/><line style="stroke:#181818;stroke-width:0.5;stroke-dasharray:5,5;" x1="474.4141" x2="474.4141" y1="87.4297" y2="934.8203"/></g></g><g class="participant-lifeline" data-entity-uid="part4" data-qualified-name="LC" id="part4-lifeline"><g><title>LessonController</title><rect fill="#000000" fill-opacity="0.00000" height="847.3906" width="8" x="619.4868" y="87.4297"/><line style="stroke:#181818;stroke-width:0.5;stroke-dasharray:5,5;" x1="622.6807" x2="622.6807" y1="87.4297" y2="934.8203"/></g></g><g class="participant-lifeline" data-entity-uid="part5" data-qualified-name="CA" id="part5-lifeline"><g><title>CourseApp</title><rect fill="#000000" fill-opacity="0.00000" height="847.3906" width="8" x="941.064" y="87.4297"/><line style="stroke:#181818;stroke-width:0.5;stroke-dasharray:5,5;" x1="944.9502" x2="944.9502" y1="87.4297" y2="934.8203"/></g></g><g class="participant-lifeline" data-entity-uid="part6" data-qualified-name="L" id="part6-lifeline"><g><title>Lesson</title><rect fill="#000000" fill-opacity="0.00000" height="847.3906" width="8" x="1173.4292" y="87.4297"/><line style="stroke:#181818;stroke-width:0.5;stroke-dasharray:5,5;" x1="1177.2095" x2="1177.2095" y1="87.4297" y2="934.8203"/></g></g><g class="participant-lifeline" data-entity-uid="part7" data-qualified-name="CDB" id="part7-lifeline"><g><title>CourseDB</title><rect fill="#000000" fill-opacity="0.00000" height="847.3906" width="8" x="1315.5562" y="87.4297"/><line style="stroke:#181818;stroke-width:0.5;stroke-dasharray:5,5;" x1="1318.9253" x2="1318.9253" y1="87.4297" y2="934.8203"/></g></g><g class="participant participant-head" data-entity-uid="part1" data-qualified-name="I" id="part1-head"><text fill="#000000" font-family="sans-serif" font-size="14" lengthAdjust="spacing" textLength="67.9219" x="20" y="84.1279">Instructor</text><ellipse cx="56.9609" cy="19.6328" fill="#E2E2F0" rx="8" ry="8" style="stroke:#181818;stroke-width:0.5;"/><path d="M56.9609,27.6328 L56.9609,54.6328 M43.9609,35.6328 L69.9609,35.6328 M56.9609,54.6328 L43.9609,69.6328 M56.9609,54.6328 L69.9609,69.6328" fill="none" style="stroke:#181818;stroke-width:0.5;"/></g><g class="participant participant-tail" data-entity-uid="part1" data-qualified-name="I" id="part1-tail"><text fill="#000000" font-family="sans-serif" font-size="14" lengthAdjust="spacing" textLength="67.9219" x="20" y="946.8154">Instructor</text><ellipse cx="56.9609" cy="958.6172" fill="#E2E2F0" rx="8" ry="8" style="stroke:#181818;stroke-width:0.5;"/><path d="M56.9609,966.6172 L56.9609,993.6172 M43.9609,974.6172 L69.9609,974.6172 M56.9609,993.6172 L43.9609,1008.6172 M56.9609,993.6172 L69.9609,1008.6172" fill="none" style="stroke:#181818;stroke-width:0.5;"/></g><g class="participant participant-head" data-entity-uid="part2" data-qualified-name="WA" id="part2-head"><text fill="#000000" font-family="sans-serif" font-size="14" lengthAdjust="spacing" textLength="58.6934" x="225.7275" y="84.1279">WebApp</text><path d="M237.5742,43.1328 L237.5742,67.1328 M237.5742,55.1328 L254.5742,55.1328" fill="none" style="stroke:#181818;stroke-width:0.5;"/><ellipse cx="266.5742" cy="55.1328" fill="#E2E2F0" rx="12" ry="12" style="stroke:#181818;stroke-width:0.5;"/></g><g class="participant participant-tail" data-entity-uid="part2" data-qualified-name="WA" id="part2-tail"><text fill="#000000" font-family="sans-serif" font-size="14" lengthAdjust="spacing" textLength="58.6934" x="225.7275" y="946.8154">WebApp</text><path d="M237.5742,954.1172 L237.5742,978.1172 M237.5742,966.1172 L254.5742,966.1172" fill="none" style="stroke:#181818;stroke-width:0.5;"/><ellipse cx="266.5742" cy="966.1172" fill="#E2E2F0" rx="12" ry="12" style="stroke:#181818;stroke-width:0.5;"/></g><g class="participant participant-head" data-entity-uid="part3" data-qualified-name="GW" id="part3-head"><text fill="#000000" font-family="sans-serif" font-size="14" lengthAdjust="spacing" textLength="88.4434" x="427.4141" y="84.1279">API Gateway</text><ellipse cx="474.6357" cy="55.1328" fill="#E2E2F0" rx="12" ry="12" style="stroke:#181818;stroke-width:0.5;"/><polygon fill="#181818" points="470.6357,43.1328,476.6357,38.1328,474.6357,43.1328,476.6357,48.1328,470.6357,43.1328" style="stroke:#181818;stroke-width:1;"/></g><g class="participant participant-tail" data-entity-uid="part3" data-qualified-name="GW" id="part3-tail"><text fill="#000000" font-family="sans-serif" font-size="14" lengthAdjust="spacing" textLength="88.4434" x="427.4141" y="946.8154">API Gateway</text><ellipse cx="474.6357" cy="966.1172" fill="#E2E2F0" rx="12" ry="12" style="stroke:#181818;stroke-width:0.5;"/><polygon fill="#181818" points="470.6357,954.1172,476.6357,949.1172,474.6357,954.1172,476.6357,959.1172,470.6357,954.1172" style="stroke:#181818;stroke-width:1;"/></g><g class="participant participant-head" data-entity-uid="part4" data-qualified-name="LC" id="part4-head"><text fill="#000000" font-family="sans-serif" font-size="14" lengthAdjust="spacing" textLength="117.6123" x="561.6807" y="84.1279">LessonController</text><ellipse cx="623.4868" cy="55.1328" fill="#E2E2F0" rx="12" ry="12" style="stroke:#181818;stroke-width:0.5;"/><polygon fill="#181818" points="619.4868,43.1328,625.4868,38.1328,623.4868,43.1328,625.4868,48.1328,619.4868,43.1328" style="stroke:#181818;stroke-width:1;"/></g><g class="participant participant-tail" data-entity-uid="part4" data-qualified-name="LC" id="part4-tail"><text fill="#000000" font-family="sans-serif" font-size="14" lengthAdjust="spacing" textLength="117.6123" x="561.6807" y="946.8154">LessonController</text><ellipse cx="623.4868" cy="966.1172" fill="#E2E2F0" rx="12" ry="12" style="stroke:#181818;stroke-width:0.5;"/><polygon fill="#181818" points="619.4868,954.1172,625.4868,949.1172,623.4868,954.1172,625.4868,959.1172,619.4868,954.1172" style="stroke:#181818;stroke-width:1;"/></g><g class="participant participant-head" data-entity-uid="part5" data-qualified-name="CA" id="part5-head"><text fill="#000000" font-family="sans-serif" font-size="14" lengthAdjust="spacing" textLength="76.2275" x="903.9502" y="84.1279">CourseApp</text><ellipse cx="945.064" cy="55.1328" fill="#E2E2F0" rx="12" ry="12" style="stroke:#181818;stroke-width:0.5;"/><polygon fill="#181818" points="941.064,43.1328,947.064,38.1328,945.064,43.1328,947.064,48.1328,941.064,43.1328" style="stroke:#181818;stroke-width:1;"/></g><g class="participant participant-tail" data-entity-uid="part5" data-qualified-name="CA" id="part5-tail"><text fill="#000000" font-family="sans-serif" font-size="14" lengthAdjust="spacing" textLength="76.2275" x="903.9502" y="946.8154">CourseApp</text><ellipse cx="945.064" cy="966.1172" fill="#E2E2F0" rx="12" ry="12" style="stroke:#181818;stroke-width:0.5;"/><polygon fill="#181818" points="941.064,954.1172,947.064,949.1172,945.064,954.1172,947.064,959.1172,941.064,954.1172" style="stroke:#181818;stroke-width:1;"/></g><g class="participant participant-head" data-entity-uid="part6" data-qualified-name="L" id="part6-head"><text fill="#000000" font-family="sans-serif" font-size="14" lengthAdjust="spacing" textLength="48.4395" x="1150.2095" y="84.1279">Lesson</text><ellipse cx="1177.4292" cy="55.1328" fill="#E2E2F0" rx="12" ry="12" style="stroke:#181818;stroke-width:0.5;"/><line style="stroke:#181818;stroke-width:0.5;" x1="1165.4292" x2="1189.4292" y1="69.1328" y2="69.1328"/></g><g class="participant participant-tail" data-entity-uid="part6" data-qualified-name="L" id="part6-tail"><text fill="#000000" font-family="sans-serif" font-size="14" lengthAdjust="spacing" textLength="48.4395" x="1150.2095" y="946.8154">Lesson</text><ellipse cx="1177.4292" cy="966.1172" fill="#E2E2F0" rx="12" ry="12" style="stroke:#181818;stroke-width:0.5;"/><line style="stroke:#181818;stroke-width:0.5;" x1="1165.4292" x2="1189.4292" y1="980.1172" y2="980.1172"/></g><g class="participant participant-head" data-entity-uid="part7" data-qualified-name="CDB" id="part7-head"><text fill="#000000" font-family="sans-serif" font-size="14" lengthAdjust="spacing" textLength="69.2617" x="1281.9253" y="84.1279">CourseDB</text><path d="M1301.5562,35.1328 C1301.5562,25.1328 1319.5562,25.1328 1319.5562,25.1328 C1319.5562,25.1328 1337.5562,25.1328 1337.5562,35.1328 L1337.5562,61.1328 C1337.5562,71.1328 1319.5562,71.1328 1319.5562,71.1328 C1319.5562,71.1328 1301.5562,71.1328 1301.5562,61.1328 L1301.5562,35.1328" fill="#E2E2F0" style="stroke:#181818;stroke-width:0.5;"/><path d="M1301.5562,35.1328 C1301.5562,45.1328 1319.5562,45.1328 1319.5562,45.1328 C1319.5562,45.1328 1337.5562,45.1328 1337.5562,35.1328" fill="none" style="stroke:#181818;stroke-width:0.5;"/></g><g class="participant participant-tail" data-entity-uid="part7" data-qualified-name="CDB" id="part7-tail"><text fill="#000000" font-family="sans-serif" font-size="14" lengthAdjust="spacing" textLength="69.2617" x="1281.9253" y="946.8154">CourseDB</text><path d="M1301.5562,960.1172 C1301.5562,950.1172 1319.5562,950.1172 1319.5562,950.1172 C1319.5562,950.1172 1337.5562,950.1172 1337.5562,960.1172 L1337.5562,986.1172 C1337.5562,996.1172 1319.5562,996.1172 1319.5562,996.1172 C1319.5562,996.1172 1301.5562,996.1172 1301.5562,986.1172 L1301.5562,960.1172" fill="#E2E2F0" style="stroke:#181818;stroke-width:0.5;"/><path d="M1301.5562,960.1172 C1301.5562,970.1172 1319.5562,970.1172 1319.5562,970.1172 C1319.5562,970.1172 1337.5562,970.1172 1337.5562,960.1172" fill="none" style="stroke:#181818;stroke-width:0.5;"/></g><g><title>Instructor</title><rect fill="#FFFFFF" height="501.2578" style="stroke:#181818;stroke-width:1;" width="10" x="51.9609" y="118.5625"/></g><g><title>WebApp</title><rect fill="#FFFFFF" height="501.2578" style="stroke:#181818;stroke-width:1;" width="10" x="253.0742" y="118.5625"/></g><g><title>API Gateway</title><rect fill="#FFFFFF" height="312.3281" style="stroke:#181818;stroke-width:1;" width="10" x="469.6357" y="278.3594"/></g><g><title>LessonController</title><rect fill="#FFFFFF" height="211.9297" style="stroke:#181818;stroke-width:1;" width="10" x="618.4868" y="349.625"/></g><g><title>CourseApp</title><rect fill="#FFFFFF" height="443.6641" style="stroke:#181818;stroke-width:1;" width="10" x="940.064" y="378.7578"/></g><g><title>Lesson</title><rect fill="#FFFFFF" height="71.2656" style="stroke:#181818;stroke-width:1;" width="10" x="1172.4292" y="663.7578"/></g><g><title>CourseDB</title><rect fill="#FFFFFF" height="29.1328" style="stroke:#181818;stroke-width:1;" width="10" x="1314.5562" y="407.8906"/></g><g><title>CourseDB</title><rect fill="#FFFFFF" height="29.1328" style="stroke:#181818;stroke-width:1;" width="10" x="1314.5562" y="764.1563"/></g><g class="message" data-entity-1="part1" data-entity-2="part2" id="msg1"><polygon fill="#181818" points="241.0742,114.5625,251.0742,118.5625,241.0742,122.5625,245.0742,118.5625" style="stroke:#181818;stroke-width:1;"/><line style="stroke:#181818;stroke-width:1;" x1="61.9609" x2="247.0742" y1="118.5625" y2="118.5625"/><text fill="#000000" font-family="sans-serif" font-size="13" font-weight="bold" lengthAdjust="spacing" textLength="9.0454" x="68.9609" y="113.4966">1</text><text fill="#000000" font-family="sans-serif" font-size="13" lengthAdjust="spacing" textLength="138.0488" x="82.0063" y="113.4966">Click "Edit" on lesson</text></g><g class="message" data-entity-1="part2" data-entity-2="part2" id="msg2"><line style="stroke:#181818;stroke-width:1;" x1="263.0742" x2="305.0742" y1="147.6953" y2="147.6953"/><line style="stroke:#181818;stroke-width:1;" x1="305.0742" x2="305.0742" y1="147.6953" y2="160.6953"/><line style="stroke:#181818;stroke-width:1;" x1="264.0742" x2="305.0742" y1="160.6953" y2="160.6953"/><polygon fill="#181818" points="274.0742,156.6953,264.0742,160.6953,274.0742,164.6953,270.0742,160.6953" style="stroke:#181818;stroke-width:1;"/><text fill="#000000" font-family="sans-serif" font-size="13" font-weight="bold" lengthAdjust="spacing" textLength="9.0454" x="270.0742" y="142.6294">2</text><text fill="#000000" font-family="sans-serif" font-size="13" lengthAdjust="spacing" textLength="157.1616" x="283.1196" y="142.6294">Display lesson edit form</text></g><g class="message" data-entity-1="part1" data-entity-2="part2" id="msg3"><polygon fill="#181818" points="241.0742,200.9609,251.0742,204.9609,241.0742,208.9609,245.0742,204.9609" style="stroke:#181818;stroke-width:1;"/><line style="stroke:#181818;stroke-width:1;" x1="61.9609" x2="247.0742" y1="204.9609" y2="204.9609"/><text fill="#000000" font-family="sans-serif" font-size="13" font-weight="bold" lengthAdjust="spacing" textLength="9.0454" x="68.9609" y="192.3286">3</text><text fill="#000000" font-family="sans-serif" font-size="13" lengthAdjust="spacing" textLength="121.0752" x="82.0063" y="184.7622">Update lesson info</text><text fill="#000000" font-family="sans-serif" font-size="13" lengthAdjust="spacing" textLength="141.8955" x="82.0063" y="199.895">(title, video URL, etc.)</text></g><g class="message" data-entity-1="part1" data-entity-2="part2" id="msg4"><polygon fill="#181818" points="241.0742,230.0938,251.0742,234.0938,241.0742,238.0938,245.0742,234.0938" style="stroke:#181818;stroke-width:1;"/><line style="stroke:#181818;stroke-width:1;" x1="61.9609" x2="247.0742" y1="234.0938" y2="234.0938"/><text fill="#000000" font-family="sans-serif" font-size="13" font-weight="bold" lengthAdjust="spacing" textLength="9.0454" x="68.9609" y="229.0278">4</text><text fill="#000000" font-family="sans-serif" font-size="13" lengthAdjust="spacing" textLength="78.9775" x="82.0063" y="229.0278">Click "Save"</text></g><g class="message" data-entity-1="part2" data-entity-2="part3" id="msg5"><polygon fill="#181818" points="457.6357,274.3594,467.6357,278.3594,457.6357,282.3594,461.6357,278.3594" style="stroke:#181818;stroke-width:1;"/><line style="stroke:#181818;stroke-width:1;" x1="263.0742" x2="463.6357" y1="278.3594" y2="278.3594"/><text fill="#000000" font-family="sans-serif" font-size="13" font-weight="bold" lengthAdjust="spacing" textLength="9.0454" x="270.0742" y="265.7271">5</text><text fill="#000000" font-family="sans-serif" font-size="13" lengthAdjust="spacing" textLength="174.5161" x="283.1196" y="258.1606">PATCH /lessons/{lessonId}</text><text fill="#000000" font-family="sans-serif" font-size="13" lengthAdjust="spacing" textLength="111.522" x="283.1196" y="273.2935">{title, videoURL}</text></g><g class="message" data-entity-1="part3" data-entity-2="part3" id="msg6"><line style="stroke:#181818;stroke-width:1;" x1="479.6357" x2="521.6357" y1="307.4922" y2="307.4922"/><line style="stroke:#181818;stroke-width:1;" x1="521.6357" x2="521.6357" y1="307.4922" y2="320.4922"/><line style="stroke:#181818;stroke-width:1;" x1="480.6357" x2="521.6357" y1="320.4922" y2="320.4922"/><polygon fill="#181818" points="490.6357,316.4922,480.6357,320.4922,490.6357,324.4922,486.6357,320.4922" style="stroke:#181818;stroke-width:1;"/><text fill="#000000" font-family="sans-serif" font-size="13" font-weight="bold" lengthAdjust="spacing" textLength="9.0454" x="486.6357" y="302.4263">6</text><text fill="#000000" font-family="sans-serif" font-size="13" lengthAdjust="spacing" textLength="82.1577" x="499.6812" y="302.4263">Validate JWT</text></g><g class="message" data-entity-1="part3" data-entity-2="part4" id="msg7"><polygon fill="#181818" points="606.4868,345.625,616.4868,349.625,606.4868,353.625,610.4868,349.625" style="stroke:#181818;stroke-width:1;"/><line style="stroke:#181818;stroke-width:1;" x1="479.6357" x2="612.4868" y1="349.625" y2="349.625"/><text fill="#000000" font-family="sans-serif" font-size="13" font-weight="bold" lengthAdjust="spacing" textLength="9.0454" x="486.6357" y="344.5591">7</text><text fill="#000000" font-family="sans-serif" font-size="13" lengthAdjust="spacing" textLength="106.8057" x="499.6812" y="344.5591">Forward request</text></g><g class="message" data-entity-1="part4" data-entity-2="part5" id="msg8"><polygon fill="#181818" points="928.064,374.7578,938.064,378.7578,928.064,382.7578,932.064,378.7578" style="stroke:#181818;stroke-width:1;"/><line style="stroke:#181818;stroke-width:1;" x1="628.4868" x2="934.064" y1="378.7578" y2="378.7578"/><text fill="#000000" font-family="sans-serif" font-size="13" font-weight="bold" lengthAdjust="spacing" textLength="9.0454" x="635.4868" y="373.6919">8</text><text fill="#000000" font-family="sans-serif" font-size="13" lengthAdjust="spacing" textLength="279.5317" x="648.5322" y="373.6919">EditLesson(lessonId, updates, instructorID)</text></g><g class="message" data-entity-1="part5" data-entity-2="part7" id="msg9"><polygon fill="#181818" points="1302.5562,403.8906,1312.5562,407.8906,1302.5562,411.8906,1306.5562,407.8906" style="stroke:#181818;stroke-width:1;"/><line style="stroke:#181818;stroke-width:1;" x1="950.064" x2="1308.5562" y1="407.8906" y2="407.8906"/><text fill="#000000" font-family="sans-serif" font-size="13" font-weight="bold" lengthAdjust="spacing" textLength="9.0454" x="957.064" y="402.8247">9</text><text fill="#000000" font-family="sans-serif" font-size="13" lengthAdjust="spacing" textLength="180.8765" x="970.1094" y="402.8247">Find lesson with course info</text></g><g class="message" data-entity-1="part7" data-entity-2="part5" id="msg10"><polygon fill="#181818" points="961.064,433.0234,951.064,437.0234,961.064,441.0234,957.064,437.0234" style="stroke:#181818;stroke-width:1;"/><line style="stroke:#181818;stroke-width:1;stroke-dasharray:2,2;" x1="955.064" x2="1318.5562" y1="437.0234" y2="437.0234"/><text fill="#000000" font-family="sans-serif" font-size="13" font-weight="bold" lengthAdjust="spacing" textLength="18.0908" x="967.064" y="431.9575">10</text><text fill="#000000" font-family="sans-serif" font-size="13" lengthAdjust="spacing" textLength="78.3936" x="989.1548" y="431.9575">Lesson data</text></g><g class="message" data-entity-1="part5" data-entity-2="part5" id="msg11"><line style="stroke:#181818;stroke-width:1;" x1="950.064" x2="992.064" y1="466.1563" y2="466.1563"/><line style="stroke:#181818;stroke-width:1;" x1="992.064" x2="992.064" y1="466.1563" y2="479.1563"/><line style="stroke:#181818;stroke-width:1;" x1="951.064" x2="992.064" y1="479.1563" y2="479.1563"/><polygon fill="#181818" points="961.064,475.1563,951.064,479.1563,961.064,483.1563,957.064,479.1563" style="stroke:#181818;stroke-width:1;"/><text fill="#000000" font-family="sans-serif" font-size="13" font-weight="bold" lengthAdjust="spacing" textLength="18.0908" x="957.064" y="461.0903">11</text><text fill="#000000" font-family="sans-serif" font-size="13" lengthAdjust="spacing" textLength="176.2744" x="979.1548" y="461.0903">Verify instructor ownership</text></g><path d="M10,494.1563 L74.4429,494.1563 L74.4429,501.2891 L64.4429,511.2891 L10,511.2891 L10,494.1563" fill="#EEEEEE" style="stroke:#000000;stroke-width:1.5;"/><rect fill="none" height="423.6641" style="stroke:#000000;stroke-width:1.5;" width="1357.187" x="10" y="494.1563"/><text fill="#000000" font-family="sans-serif" font-size="13" font-weight="bold" lengthAdjust="spacing" textLength="19.4429" x="25" y="507.2231">alt</text><text fill="#000000" font-family="sans-serif" font-size="11" font-weight="bold" lengthAdjust="spacing" textLength="119.5122" x="89.4429" y="506.3667">[Not course owner]</text><g class="message" data-entity-1="part5" data-entity-2="part4" id="msg12"><polygon fill="#181818" points="639.4868,528.4219,629.4868,532.4219,639.4868,536.4219,635.4868,532.4219" style="stroke:#181818;stroke-width:1;"/><line style="stroke:#181818;stroke-width:1;stroke-dasharray:2,2;" x1="633.4868" x2="939.064" y1="532.4219" y2="532.4219"/><text fill="#000000" font-family="sans-serif" font-size="13" font-weight="bold" lengthAdjust="spacing" textLength="18.0908" x="645.4868" y="527.356">12</text><text fill="#000000" font-family="sans-serif" font-size="13" lengthAdjust="spacing" textLength="94.3262" x="667.5776" y="527.356">403 Forbidden</text></g><g class="message" data-entity-1="part4" data-entity-2="part3" id="msg13"><polygon fill="#181818" points="490.6357,557.5547,480.6357,561.5547,490.6357,565.5547,486.6357,561.5547" style="stroke:#181818;stroke-width:1;"/><line style="stroke:#181818;stroke-width:1;stroke-dasharray:2,2;" x1="484.6357" x2="622.4868" y1="561.5547" y2="561.5547"/><text fill="#000000" font-family="sans-serif" font-size="13" font-weight="bold" lengthAdjust="spacing" textLength="18.0908" x="496.6357" y="556.4888">13</text><text fill="#000000" font-family="sans-serif" font-size="13" lengthAdjust="spacing" textLength="32.2017" x="518.7266" y="556.4888">Error</text></g><g class="message" data-entity-1="part3" data-entity-2="part2" id="msg14"><polygon fill="#181818" points="274.0742,586.6875,264.0742,590.6875,274.0742,594.6875,270.0742,590.6875" style="stroke:#181818;stroke-width:1;"/><line style="stroke:#181818;stroke-width:1;stroke-dasharray:2,2;" x1="268.0742" x2="473.6357" y1="590.6875" y2="590.6875"/><text fill="#000000" font-family="sans-serif" font-size="13" font-weight="bold" lengthAdjust="spacing" textLength="18.0908" x="280.0742" y="585.6216">14</text><text fill="#000000" font-family="sans-serif" font-size="13" lengthAdjust="spacing" textLength="32.2017" x="302.165" y="585.6216">Error</text></g><g class="message" data-entity-1="part2" data-entity-2="part1" id="msg15"><polygon fill="#181818" points="67.9609,615.8203,57.9609,619.8203,67.9609,623.8203,63.9609,619.8203" style="stroke:#181818;stroke-width:1;"/><line style="stroke:#181818;stroke-width:1;" x1="61.9609" x2="257.0742" y1="619.8203" y2="619.8203"/><text fill="#000000" font-family="sans-serif" font-size="13" font-weight="bold" lengthAdjust="spacing" textLength="18.0908" x="73.9609" y="614.7544">15</text><text fill="#000000" font-family="sans-serif" font-size="13" lengthAdjust="spacing" textLength="84.0366" x="96.0518" y="614.7544">Display error</text></g><line style="stroke:#000000;stroke-width:1;stroke-dasharray:2,2;" x1="10" x2="1367.187" y1="628.8203" y2="628.8203"/><text fill="#000000" font-family="sans-serif" font-size="11" font-weight="bold" lengthAdjust="spacing" textLength="62.96" x="15" y="639.0308">[Is owner]</text><g class="message" data-entity-1="part5" data-entity-2="part6" id="msg16"><polygon fill="#181818" points="1160.4292,659.7578,1170.4292,663.7578,1160.4292,667.7578,1164.4292,663.7578" style="stroke:#181818;stroke-width:1;"/><line style="stroke:#181818;stroke-width:1;" x1="950.064" x2="1166.4292" y1="663.7578" y2="663.7578"/><text fill="#000000" font-family="sans-serif" font-size="13" font-weight="bold" lengthAdjust="spacing" textLength="18.0908" x="957.064" y="658.6919">16</text><text fill="#000000" font-family="sans-serif" font-size="13" lengthAdjust="spacing" textLength="156.0762" x="979.1548" y="658.6919">Apply updates to lesson</text></g><g class="message" data-entity-1="part6" data-entity-2="part6" id="msg17"><line style="stroke:#181818;stroke-width:1;" x1="1182.4292" x2="1224.4292" y1="692.8906" y2="692.8906"/><line style="stroke:#181818;stroke-width:1;" x1="1224.4292" x2="1224.4292" y1="692.8906" y2="705.8906"/><line style="stroke:#181818;stroke-width:1;" x1="1183.4292" x2="1224.4292" y1="705.8906" y2="705.8906"/><polygon fill="#181818" points="1193.4292,701.8906,1183.4292,705.8906,1193.4292,709.8906,1189.4292,705.8906" style="stroke:#181818;stroke-width:1;"/><text fill="#000000" font-family="sans-serif" font-size="13" font-weight="bold" lengthAdjust="spacing" textLength="18.0908" x="1189.4292" y="687.8247">17</text><text fill="#000000" font-family="sans-serif" font-size="13" lengthAdjust="spacing" textLength="86.0361" x="1211.52" y="687.8247">Update fields</text></g><g class="message" data-entity-1="part6" data-entity-2="part5" id="msg18"><polygon fill="#181818" points="961.064,731.0234,951.064,735.0234,961.064,739.0234,957.064,735.0234" style="stroke:#181818;stroke-width:1;"/><line style="stroke:#181818;stroke-width:1;stroke-dasharray:2,2;" x1="955.064" x2="1176.4292" y1="735.0234" y2="735.0234"/><text fill="#000000" font-family="sans-serif" font-size="13" font-weight="bold" lengthAdjust="spacing" textLength="18.0908" x="967.064" y="729.9575">18</text><text fill="#000000" font-family="sans-serif" font-size="13" lengthAdjust="spacing" textLength="100.8135" x="989.1548" y="729.9575">Updated lesson</text></g><g class="message" data-entity-1="part5" data-entity-2="part7" id="msg19"><polygon fill="#181818" points="1302.5562,760.1563,1312.5562,764.1563,1302.5562,768.1563,1306.5562,764.1563" style="stroke:#181818;stroke-width:1;"/><line style="stroke:#181818;stroke-width:1;" x1="950.064" x2="1308.5562" y1="764.1563" y2="764.1563"/><text fill="#000000" font-family="sans-serif" font-size="13" font-weight="bold" lengthAdjust="spacing" textLength="18.0908" x="957.064" y="759.0903">19</text><text fill="#000000" font-family="sans-serif" font-size="13" lengthAdjust="spacing" textLength="90.6572" x="979.1548" y="759.0903">Save changes</text></g><g class="message" data-entity-1="part7" data-entity-2="part5" id="msg20"><polygon fill="#181818" points="961.064,789.2891,951.064,793.2891,961.064,797.2891,957.064,793.2891" style="stroke:#181818;stroke-width:1;"/><line style="stroke:#181818;stroke-width:1;stroke-dasharray:2,2;" x1="955.064" x2="1318.5562" y1="793.2891" y2="793.2891"/><text fill="#000000" font-family="sans-serif" font-size="13" font-weight="bold" lengthAdjust="spacing" textLength="18.0908" x="967.064" y="788.2231">20</text><text fill="#000000" font-family="sans-serif" font-size="13" lengthAdjust="spacing" textLength="52.3301" x="989.1548" y="788.2231">Success</text></g><g class="message" data-entity-1="part5" data-entity-2="part4" id="msg21"><polygon fill="#181818" points="634.4868,818.4219,624.4868,822.4219,634.4868,826.4219,630.4868,822.4219" style="stroke:#181818;stroke-width:1;"/><line style="stroke:#181818;stroke-width:1;stroke-dasharray:2,2;" x1="628.4868" x2="944.064" y1="822.4219" y2="822.4219"/><text fill="#000000" font-family="sans-serif" font-size="13" font-weight="bold" lengthAdjust="spacing" textLength="18.0908" x="640.4868" y="817.356">21</text><text fill="#000000" font-family="sans-serif" font-size="13" lengthAdjust="spacing" textLength="73.1631" x="662.5776" y="817.356">LessonDTO</text></g><g class="message" data-entity-1="part4" data-entity-2="part3" id="msg22"><polygon fill="#181818" points="485.6357,847.5547,475.6357,851.5547,485.6357,855.5547,481.6357,851.5547" style="stroke:#181818;stroke-width:1;"/><line style="stroke:#181818;stroke-width:1;stroke-dasharray:2,2;" x1="479.6357" x2="622.4868" y1="851.5547" y2="851.5547"/><text fill="#000000" font-family="sans-serif" font-size="13" font-weight="bold" lengthAdjust="spacing" textLength="18.0908" x="491.6357" y="846.4888">22</text><text fill="#000000" font-family="sans-serif" font-size="13" lengthAdjust="spacing" textLength="47.7026" x="513.7266" y="846.4888">200 OK</text></g><g class="message" data-entity-1="part3" data-entity-2="part2" id="msg23"><polygon fill="#181818" points="269.0742,876.6875,259.0742,880.6875,269.0742,884.6875,265.0742,880.6875" style="stroke:#181818;stroke-width:1;"/><line style="stroke:#181818;stroke-width:1;stroke-dasharray:2,2;" x1="263.0742" x2="473.6357" y1="880.6875" y2="880.6875"/><text fill="#000000" font-family="sans-serif" font-size="13" font-weight="bold" lengthAdjust="spacing" textLength="18.0908" x="275.0742" y="875.6216">23</text><text fill="#000000" font-family="sans-serif" font-size="13" lengthAdjust="spacing" textLength="100.8135" x="297.165" y="875.6216">Updated lesson</text></g><g class="message" data-entity-1="part2" data-entity-2="part1" id="msg24"><polygon fill="#181818" points="67.9609,905.8203,57.9609,909.8203,67.9609,913.8203,63.9609,909.8203" style="stroke:#181818;stroke-width:1;"/><line style="stroke:#181818;stroke-width:1;" x1="61.9609" x2="257.0742" y1="909.8203" y2="909.8203"/><text fill="#000000" font-family="sans-serif" font-size="13" font-weight="bold" lengthAdjust="spacing" textLength="18.0908" x="73.9609" y="904.7544">24</text><text fill="#000000" font-family="sans-serif" font-size="13" lengthAdjust="spacing" textLength="155.0225" x="96.0518" y="904.7544">Update UI with changes</text></g><?plantuml-src VLBBRjim4BppAnRk9G6SndsSZAA0BAUkMg49ceTG81TQNDj46D8bAJj6a7_laf8iEIbyusDcTdPsUUMDhXxdQ1bp3rAlkUMFC35FLrm8gPVmOSGOBxsna6ddRHMFt476vgRIWjiT53XFrklmM2ICdfzWa5nbCECUjtmtW7UvNAxyH5N804gZlJNg5OIuiuAX5a3qHYCrbNK8rsWtiiHMvWygPROzeHoTCpgjRmgZkJpj0MgTnc6Qq0zgB_skOKOyFGhk-PnJmHe_dKJuTDAvok3iAxKuXbJ9yW465qBw0P22Ya8X9hcXZYYR_P4IAPAMDvLkhVYkmGCI7nR6FlQaRzSYq1g4r0jphq_8hS8XRAH00xU_yo6WBz-VlZ5qpJSuO4t1MJ66g-Gc_GxdjPexVwuFcNYvryzzKT9ywJpJ96P5At77bOoMVXGtpNEUZk6RiLjk1LZyMw7p7PcYPtaQO2aP2n7LCP-qjOTGnHxTaDfhDogRddOID2EMnXueVYebQG1D85lfLpJOk1WXd1w99aMaBsTdDQiPRfWg4tW0QyN9tnrQkTZrZ83PQhHk9TUqzih3B-FRUl675eMwYrM8_ddqAIGnbqAWfY_A9to5W2wiDG7TgnstigWzXcZ_0w7e8uJiPTs-u5jWaHpUCuQAF6PkRxDkCXy3RRxQjQ63D-sw0dJEGbiDlDd0XKGbNAqJUsf_HCVlzyRs9MFyOHMXN76zHDUl5FBVQzR8gYn9y50kZkaWwdgUqvlBLy3aCFQFen5S_ZoU-x4-3WVGP76RDOktx-Vu9BHW_m00?></g></svg>