<?plantuml 1.2026.1?><svg xmlns="http://www.w3.org/2000/svg" xmlns:xlink="http://www.w3.org/1999/xlink" contentStyleType="text/css" data-diagram-type="SEQUENCE" height="735px" preserveAspectRatio="none" style="width:1476px;height:735px;background:#FFFFFF;" version="1.1" viewBox="0 0 1476 735" width="1476px" zoomAndPan="magnify"><defs/><g><rect fill="#ADD8E6" height="723.1172" style="stroke:#181818;stroke-width:0.5;" width="102.4434" x="537.5254" y="6"/><text fill="#000000" font-family="sans-serif" font-size="13" font-weight="bold" lengthAdjust="spacing" textLength="92.6821" x="542.406" y="18.0669">API Gateway</text><rect fill="#FFFFE0" height="723.1172" style="stroke:#181818;stroke-width:0.5;" width="805.1089" x="665.708" y="6"/><text fill="#000000" font-family="sans-serif" font-size="13" font-weight="bold" lengthAdjust="spacing" textLength="109.2622" x="1013.6313" y="18.0669">Course Service</text><g><title>Learner</title><rect fill="#FFFFFF" height="513.2578" style="stroke:#181818;stroke-width:1;" width="10" x="29.9951" y="118.5625"/></g><g><title>WebApp</title><rect fill="#FFFFFF" height="513.2578" style="stroke:#181818;stroke-width:1;" width="10" x="311.3452" y="118.5625"/></g><g><title>API Gateway</title><rect fill="#FFFFFF" height="404.7266" style="stroke:#181818;stroke-width:1;" width="10" x="583.7471" y="197.9609"/></g><g><title>ProgressController</title><rect fill="#FFFFFF" height="304.3281" style="stroke:#181818;stroke-width:1;" width="10" x="732.5981" y="269.2266"/></g><g><title>CourseApp</title><rect fill="#FFFFFF" height="246.0625" style="stroke:#181818;stroke-width:1;" width="10" x="1052.29" y="298.3594"/></g><g><title>LessonProgress</title><rect fill="#FFFFFF" height="71.2656" style="stroke:#181818;stroke-width:1;" width="10" x="1224.5366" y="385.7578"/></g><g><title>CourseDB</title><rect fill="#FFFFFF" height="29.1328" style="stroke:#181818;stroke-width:1;" width="10" x="1424.186" y="327.4922"/></g><g><title>CourseDB</title><rect fill="#FFFFFF" height="29.1328" style="stroke:#181818;stroke-width:1;" width="10" x="1424.186" y="486.1563"/></g><g class="participant-lifeline" data-entity-uid="part1" data-qualified-name="L" id="part1-lifeline"><g><title>Learner</title><rect fill="#000000" fill-opacity="0.00000" height="562.3906" width="8" x="30.9951" y="87.4297"/><line style="stroke:#181818;stroke-width:0.5;stroke-dasharray:5,5;" x1="34" x2="34" y1="87.4297" y2="649.8203"/></g></g><g class="participant-lifeline" data-entity-uid="part2" data-qualified-name="WA" id="part2-lifeline"><g><title>WebApp</title><rect fill="#000000" fill-opacity="0.00000" height="562.3906" width="8" x="312.3452" y="87.4297"/><line style="stroke:#181818;stroke-width:0.5;stroke-dasharray:5,5;" x1="315.9985" x2="315.9985" y1="87.4297" y2="649.8203"/></g></g><g class="participant-lifeline" data-entity-uid="part3" data-qualified-name="GW" id="part3-lifeline"><g><title>API Gateway</title><rect fill="#000000" fill-opacity="0.00000" height="562.3906" width="8" x="584.7471" y="87.4297"/><line style="stroke:#181818;stroke-width:0.5;stroke-dasharray:5,5;" x1="588.5254" x2="588.5254" y1="87.4297" y2="649.8203"/></g></g><g class="participant-lifeline" data-entity-uid="part4" data-qualified-name="PC" id="part4-lifeline"><g><title>ProgressController</title><rect fill="#000000" fill-opacity="0.00000" height="562.3906" width="8" x="733.5981" y="87.4297"/><line style="stroke:#181818;stroke-width:0.5;stroke-dasharray:5,5;" x1="736.708" x2="736.708" y1="87.4297" y2="649.8203"/></g></g><g class="participant-lifeline" data-entity-uid="part5" data-qualified-name="CA" id="part5-lifeline"><g><title>CourseApp</title><rect fill="#000000" fill-opacity="0.00000" height="562.3906" width="8" x="1053.29" y="87.4297"/><line style="stroke:#181818;stroke-width:0.5;stroke-dasharray:5,5;" x1="1057.1763" x2="1057.1763" y1="87.4297" y2="649.8203"/></g></g><g class="participant-lifeline" data-entity-uid="part6" data-qualified-name="LP" id="part6-lifeline"><g><title>LessonProgress</title><rect fill="#000000" fill-opacity="0.00000" height="562.3906" width="8" x="1225.5366" y="87.4297"/><line style="stroke:#181818;stroke-width:0.5;stroke-dasharray:5,5;" x1="1229.0132" x2="1229.0132" y1="87.4297" y2="649.8203"/></g></g><g class="participant-lifeline" data-entity-uid="part7" data-qualified-name="CDB" id="part7-lifeline"><g><title>CourseDB</title><rect fill="#000000" fill-opacity="0.00000" height="562.3906" width="8" x="1425.186" y="87.4297"/><line style="stroke:#181818;stroke-width:0.5;stroke-dasharray:5,5;" x1="1428.5552" x2="1428.5552" y1="87.4297" y2="649.8203"/></g></g><g class="participant participant-head" data-entity-uid="part1" data-qualified-name="L" id="part1-head"><text fill="#000000" font-family="sans-serif" font-size="14" lengthAdjust="spacing" textLength="53.9902" x="5" y="84.1279">Learner</text><ellipse cx="34.9951" cy="19.6328" fill="#E2E2F0" rx="8" ry="8" style="stroke:#181818;stroke-width:0.5;"/><path d="M34.9951,27.6328 L34.9951,54.6328 M21.9951,35.6328 L47.9951,35.6328 M34.9951,54.6328 L21.9951,69.6328 M34.9951,54.6328 L47.9951,69.6328" fill="none" style="stroke:#181818;stroke-width:0.5;"/></g><g class="participant participant-tail" data-entity-uid="part1" data-qualified-name="L" id="part1-tail"><text fill="#000000" font-family="sans-serif" font-size="14" lengthAdjust="spacing" textLength="53.9902" x="5" y="661.8154">Learner</text><ellipse cx="34.9951" cy="673.6172" fill="#E2E2F0" rx="8" ry="8" style="stroke:#181818;stroke-width:0.5;"/><path d="M34.9951,681.6172 L34.9951,708.6172 M21.9951,689.6172 L47.9951,689.6172 M34.9951,708.6172 L21.9951,723.6172 M34.9951,708.6172 L47.9951,723.6172" fill="none" style="stroke:#181818;stroke-width:0.5;"/></g><g class="participant participant-head" data-entity-uid="part2" data-qualified-name="WA" id="part2-head"><text fill="#000000" font-family="sans-serif" font-size="14" lengthAdjust="spacing" textLength="58.6934" x="283.9985" y="84.1279">WebApp</text><path d="M295.8452,43.1328 L295.8452,67.1328 M295.8452,55.1328 L312.8452,55.1328" fill="none" style="stroke:#181818;stroke-width:0.5;"/><ellipse cx="324.8452" cy="55.1328" fill="#E2E2F0" rx="12" ry="12" style="stroke:#181818;stroke-width:0.5;"/></g><g class="participant participant-tail" data-entity-uid="part2" data-qualified-name="WA" id="part2-tail"><text fill="#000000" font-family="sans-serif" font-size="14" lengthAdjust="spacing" textLength="58.6934" x="283.9985" y="661.8154">WebApp</text><path d="M295.8452,669.1172 L295.8452,693.1172 M295.8452,681.1172 L312.8452,681.1172" fill="none" style="stroke:#181818;stroke-width:0.5;"/><ellipse cx="324.8452" cy="681.1172" fill="#E2E2F0" rx="12" ry="12" style="stroke:#181818;stroke-width:0.5;"/></g><g class="participant participant-head" data-entity-uid="part3" data-qualified-name="GW" id="part3-head"><text fill="#000000" font-family="sans-serif" font-size="14" lengthAdjust="spacing" textLength="88.4434" x="541.5254" y="84.1279">API Gateway</text><ellipse cx="588.7471" cy="55.1328" fill="#E2E2F0" rx="12" ry="12" style="stroke:#181818;stroke-width:0.5;"/><polygon fill="#181818" points="584.7471,43.1328,590.7471,38.1328,588.7471,43.1328,590.7471,48.1328,584.7471,43.1328" style="stroke:#181818;stroke-width:1;"/></g><g class="participant participant-tail" data-entity-uid="part3" data-qualified-name="GW" id="part3-tail"><text fill="#000000" font-family="sans-serif" font-size="14" lengthAdjust="spacing" textLength="88.4434" x="541.5254" y="661.8154">API Gateway</text><ellipse cx="588.7471" cy="681.1172" fill="#E2E2F0" rx="12" ry="12" style="stroke:#181818;stroke-width:0.5;"/><polygon fill="#181818" points="584.7471,669.1172,590.7471,664.1172,588.7471,669.1172,590.7471,674.1172,584.7471,669.1172" style="stroke:#181818;stroke-width:1;"/></g><g class="participant participant-head" data-entity-uid="part4" data-qualified-name="PC" id="part4-head"><text fill="#000000" font-family="sans-serif" font-size="14" lengthAdjust="spacing" textLength="129.7803" x="669.708" y="84.1279">ProgressController</text><ellipse cx="737.5981" cy="55.1328" fill="#E2E2F0" rx="12" ry="12" style="stroke:#181818;stroke-width:0.5;"/><polygon fill="#181818" points="733.5981,43.1328,739.5981,38.1328,737.5981,43.1328,739.5981,48.1328,733.5981,43.1328" style="stroke:#181818;stroke-width:1;"/></g><g class="participant participant-tail" data-entity-uid="part4" data-qualified-name="PC" id="part4-tail"><text fill="#000000" font-family="sans-serif" font-size="14" lengthAdjust="spacing" textLength="129.7803" x="669.708" y="661.8154">ProgressController</text><ellipse cx="737.5981" cy="681.1172" fill="#E2E2F0" rx="12" ry="12" style="stroke:#181818;stroke-width:0.5;"/><polygon fill="#181818" points="733.5981,669.1172,739.5981,664.1172,737.5981,669.1172,739.5981,674.1172,733.5981,669.1172" style="stroke:#181818;stroke-width:1;"/></g><g class="participant participant-head" data-entity-uid="part5" data-qualified-name="CA" id="part5-head"><text fill="#000000" font-family="sans-serif" font-size="14" lengthAdjust="spacing" textLength="76.2275" x="1016.1763" y="84.1279">CourseApp</text><ellipse cx="1057.29" cy="55.1328" fill="#E2E2F0" rx="12" ry="12" style="stroke:#181818;stroke-width:0.5;"/><polygon fill="#181818" points="1053.29,43.1328,1059.29,38.1328,1057.29,43.1328,1059.29,48.1328,1053.29,43.1328" style="stroke:#181818;stroke-width:1;"/></g><g class="participant participant-tail" data-entity-uid="part5" data-qualified-name="CA" id="part5-tail"><text fill="#000000" font-family="sans-serif" font-size="14" lengthAdjust="spacing" textLength="76.2275" x="1016.1763" y="661.8154">CourseApp</text><ellipse cx="1057.29" cy="681.1172" fill="#E2E2F0" rx="12" ry="12" style="stroke:#181818;stroke-width:0.5;"/><polygon fill="#181818" points="1053.29,669.1172,1059.29,664.1172,1057.29,669.1172,1059.29,674.1172,1053.29,669.1172" style="stroke:#181818;stroke-width:1;"/></g><g class="participant participant-head" data-entity-uid="part6" data-qualified-name="LP" id="part6-head"><text fill="#000000" font-family="sans-serif" font-size="14" lengthAdjust="spacing" textLength="109.0469" x="1172.0132" y="84.1279">LessonProgress</text><ellipse cx="1229.5366" cy="55.1328" fill="#E2E2F0" rx="12" ry="12" style="stroke:#181818;stroke-width:0.5;"/><line style="stroke:#181818;stroke-width:0.5;" x1="1217.5366" x2="1241.5366" y1="69.1328" y2="69.1328"/></g><g class="participant participant-tail" data-entity-uid="part6" data-qualified-name="LP" id="part6-tail"><text fill="#000000" font-family="sans-serif" font-size="14" lengthAdjust="spacing" textLength="109.0469" x="1172.0132" y="661.8154">LessonProgress</text><ellipse cx="1229.5366" cy="681.1172" fill="#E2E2F0" rx="12" ry="12" style="stroke:#181818;stroke-width:0.5;"/><line style="stroke:#181818;stroke-width:0.5;" x1="1217.5366" x2="1241.5366" y1="695.1172" y2="695.1172"/></g><g class="participant participant-head" data-entity-uid="part7" data-qualified-name="CDB" id="part7-head"><text fill="#000000" font-family="sans-serif" font-size="14" lengthAdjust="spacing" textLength="69.2617" x="1391.5552" y="84.1279">CourseDB</text><path d="M1411.186,35.1328 C1411.186,25.1328 1429.186,25.1328 1429.186,25.1328 C1429.186,25.1328 1447.186,25.1328 1447.186,35.1328 L1447.186,61.1328 C1447.186,71.1328 1429.186,71.1328 1429.186,71.1328 C1429.186,71.1328 1411.186,71.1328 1411.186,61.1328 L1411.186,35.1328" fill="#E2E2F0" style="stroke:#181818;stroke-width:0.5;"/><path d="M1411.186,35.1328 C1411.186,45.1328 1429.186,45.1328 1429.186,45.1328 C1429.186,45.1328 1447.186,45.1328 1447.186,35.1328" fill="none" style="stroke:#181818;stroke-width:0.5;"/></g><g class="participant participant-tail" data-entity-uid="part7" data-qualified-name="CDB" id="part7-tail"><text fill="#000000" font-family="sans-serif" font-size="14" lengthAdjust="spacing" textLength="69.2617" x="1391.5552" y="661.8154">CourseDB</text><path d="M1411.186,675.1172 C1411.186,665.1172 1429.186,665.1172 1429.186,665.1172 C1429.186,665.1172 1447.186,665.1172 1447.186,675.1172 L1447.186,701.1172 C1447.186,711.1172 1429.186,711.1172 1429.186,711.1172 C1429.186,711.1172 1411.186,711.1172 1411.186,701.1172 L1411.186,675.1172" fill="#E2E2F0" style="stroke:#181818;stroke-width:0.5;"/><path d="M1411.186,675.1172 C1411.186,685.1172 1429.186,685.1172 1429.186,685.1172 C1429.186,685.1172 1447.186,685.1172 1447.186,675.1172" fill="none" style="stroke:#181818;stroke-width:0.5;"/></g><g><title>Learner</title><rect fill="#FFFFFF" height="513.2578" style="stroke:#181818;stroke-width:1;" width="10" x="29.9951" y="118.5625"/></g><g><title>WebApp</title><rect fill="#FFFFFF" height="513.2578" style="stroke:#181818;stroke-width:1;" width="10" x="311.3452" y="118.5625"/></g><g><title>API Gateway</title><rect fill="#FFFFFF" height="404.7266" style="stroke:#181818;stroke-width:1;" width="10" x="583.7471" y="197.9609"/></g><g><title>ProgressController</title><rect fill="#FFFFFF" height="304.3281" style="stroke:#181818;stroke-width:1;" width="10" x="732.5981" y="269.2266"/></g><g><title>CourseApp</title><rect fill="#FFFFFF" height="246.0625" style="stroke:#181818;stroke-width:1;" width="10" x="1052.29" y="298.3594"/></g><g><title>LessonProgress</title><rect fill="#FFFFFF" height="71.2656" style="stroke:#181818;stroke-width:1;" width="10" x="1224.5366" y="385.7578"/></g><g><title>CourseDB</title><rect fill="#FFFFFF" height="29.1328" style="stroke:#181818;stroke-width:1;" width="10" x="1424.186" y="327.4922"/></g><g><title>CourseDB</title><rect fill="#FFFFFF" height="29.1328" style="stroke:#181818;stroke-width:1;" width="10" x="1424.186" y="486.1563"/></g><g class="message" data-entity-1="part1" data-entity-2="part2" id="msg1"><polygon fill="#181818" points="299.3452,114.5625,309.3452,118.5625,299.3452,122.5625,303.3452,118.5625" style="stroke:#181818;stroke-width:1;"/><line style="stroke:#181818;stroke-width:1;" x1="39.9951" x2="305.3452" y1="118.5625" y2="118.5625"/><text fill="#000000" font-family="sans-serif" font-size="13" font-weight="bold" lengthAdjust="spacing" textLength="9.0454" x="46.9951" y="113.4966">1</text><text fill="#000000" font-family="sans-serif" font-size="13" lengthAdjust="spacing" textLength="230.5659" x="60.0405" y="113.4966">Complete watching video (&gt;=80%)</text></g><path d="M209,131.5625 L209,171.5625 L422,171.5625 L422,141.5625 L412,131.5625 L209,131.5625" fill="#FEFFDD" style="stroke:#181818;stroke-width:0.5;"/><path d="M412,131.5625 L412,141.5625 L422,141.5625 L412,131.5625" fill="#FEFFDD" style="stroke:#181818;stroke-width:0.5;"/><text fill="#000000" font-family="sans-serif" font-size="13" lengthAdjust="spacing" textLength="157.6567" x="215" y="148.6294">Auto-trigger when video</text><text fill="#000000" font-family="sans-serif" font-size="13" lengthAdjust="spacing" textLength="192.3784" x="215" y="163.7622">reaches 80% or manual mark</text><g class="message" data-entity-1="part2" data-entity-2="part3" id="msg2"><polygon fill="#181818" points="571.7471,193.9609,581.7471,197.9609,571.7471,201.9609,575.7471,197.9609" style="stroke:#181818;stroke-width:1;"/><line style="stroke:#181818;stroke-width:1;" x1="321.3452" x2="577.7471" y1="197.9609" y2="197.9609"/><text fill="#000000" font-family="sans-serif" font-size="13" font-weight="bold" lengthAdjust="spacing" textLength="9.0454" x="328.3452" y="192.895">2</text><text fill="#000000" font-family="sans-serif" font-size="13" lengthAdjust="spacing" textLength="230.3564" x="341.3906" y="192.895">POST /lessons/{lessonId}/complete</text></g><g class="message" data-entity-1="part3" data-entity-2="part3" id="msg3"><line style="stroke:#181818;stroke-width:1;" x1="593.7471" x2="635.7471" y1="227.0938" y2="227.0938"/><line style="stroke:#181818;stroke-width:1;" x1="635.7471" x2="635.7471" y1="227.0938" y2="240.0938"/><line style="stroke:#181818;stroke-width:1;" x1="594.7471" x2="635.7471" y1="240.0938" y2="240.0938"/><polygon fill="#181818" points="604.7471,236.0938,594.7471,240.0938,604.7471,244.0938,600.7471,240.0938" style="stroke:#181818;stroke-width:1;"/><text fill="#000000" font-family="sans-serif" font-size="13" font-weight="bold" lengthAdjust="spacing" textLength="9.0454" x="600.7471" y="222.0278">3</text><text fill="#000000" font-family="sans-serif" font-size="13" lengthAdjust="spacing" textLength="82.1577" x="613.7925" y="222.0278">Validate JWT</text></g><g class="message" data-entity-1="part3" data-entity-2="part4" id="msg4"><polygon fill="#181818" points="720.5981,265.2266,730.5981,269.2266,720.5981,273.2266,724.5981,269.2266" style="stroke:#181818;stroke-width:1;"/><line style="stroke:#181818;stroke-width:1;" x1="593.7471" x2="726.5981" y1="269.2266" y2="269.2266"/><text fill="#000000" font-family="sans-serif" font-size="13" font-weight="bold" lengthAdjust="spacing" textLength="9.0454" x="600.7471" y="264.1606">4</text><text fill="#000000" font-family="sans-serif" font-size="13" lengthAdjust="spacing" textLength="106.8057" x="613.7925" y="264.1606">Forward request</text></g><g class="message" data-entity-1="part4" data-entity-2="part5" id="msg5"><polygon fill="#181818" points="1040.29,294.3594,1050.29,298.3594,1040.29,302.3594,1044.29,298.3594" style="stroke:#181818;stroke-width:1;"/><line style="stroke:#181818;stroke-width:1;" x1="742.5981" x2="1046.29" y1="298.3594" y2="298.3594"/><text fill="#000000" font-family="sans-serif" font-size="13" font-weight="bold" lengthAdjust="spacing" textLength="9.0454" x="749.5981" y="293.2935">5</text><text fill="#000000" font-family="sans-serif" font-size="13" lengthAdjust="spacing" textLength="277.6465" x="762.6436" y="293.2935">MarkLessonAsCompleted(lessonId, userID)</text></g><g class="message" data-entity-1="part5" data-entity-2="part7" id="msg6"><polygon fill="#181818" points="1412.186,323.4922,1422.186,327.4922,1412.186,331.4922,1416.186,327.4922" style="stroke:#181818;stroke-width:1;"/><line style="stroke:#181818;stroke-width:1;" x1="1062.29" x2="1418.186" y1="327.4922" y2="327.4922"/><text fill="#000000" font-family="sans-serif" font-size="13" font-weight="bold" lengthAdjust="spacing" textLength="9.0454" x="1069.29" y="322.4263">6</text><text fill="#000000" font-family="sans-serif" font-size="13" lengthAdjust="spacing" textLength="133.8848" x="1082.3354" y="322.4263">Find lesson progress</text></g><g class="message" data-entity-1="part7" data-entity-2="part5" id="msg7"><polygon fill="#181818" points="1073.29,352.625,1063.29,356.625,1073.29,360.625,1069.29,356.625" style="stroke:#181818;stroke-width:1;"/><line style="stroke:#181818;stroke-width:1;stroke-dasharray:2,2;" x1="1067.29" x2="1428.186" y1="356.625" y2="356.625"/><text fill="#000000" font-family="sans-serif" font-size="13" font-weight="bold" lengthAdjust="spacing" textLength="9.0454" x="1079.29" y="351.5591">7</text><text fill="#000000" font-family="sans-serif" font-size="13" lengthAdjust="spacing" textLength="89.6924" x="1092.3354" y="351.5591">Progress data</text></g><g class="message" data-entity-1="part5" data-entity-2="part6" id="msg8"><polygon fill="#181818" points="1212.5366,381.7578,1222.5366,385.7578,1212.5366,389.7578,1216.5366,385.7578" style="stroke:#181818;stroke-width:1;"/><line style="stroke:#181818;stroke-width:1;" x1="1062.29" x2="1218.5366" y1="385.7578" y2="385.7578"/><text fill="#000000" font-family="sans-serif" font-size="13" font-weight="bold" lengthAdjust="spacing" textLength="9.0454" x="1069.29" y="380.6919">8</text><text fill="#000000" font-family="sans-serif" font-size="13" lengthAdjust="spacing" textLength="124.0332" x="1082.3354" y="380.6919">Mark as completed</text></g><g class="message" data-entity-1="part6" data-entity-2="part6" id="msg9"><line style="stroke:#181818;stroke-width:1;" x1="1234.5366" x2="1276.5366" y1="414.8906" y2="414.8906"/><line style="stroke:#181818;stroke-width:1;" x1="1276.5366" x2="1276.5366" y1="414.8906" y2="427.8906"/><line style="stroke:#181818;stroke-width:1;" x1="1235.5366" x2="1276.5366" y1="427.8906" y2="427.8906"/><polygon fill="#181818" points="1245.5366,423.8906,1235.5366,427.8906,1245.5366,431.8906,1241.5366,427.8906" style="stroke:#181818;stroke-width:1;"/><text fill="#000000" font-family="sans-serif" font-size="13" font-weight="bold" lengthAdjust="spacing" textLength="9.0454" x="1241.5366" y="409.8247">9</text><text fill="#000000" font-family="sans-serif" font-size="13" lengthAdjust="spacing" textLength="152.604" x="1254.582" y="409.8247">Set isCompleted = true</text></g><g class="message" data-entity-1="part6" data-entity-2="part5" id="msg10"><polygon fill="#181818" points="1073.29,453.0234,1063.29,457.0234,1073.29,461.0234,1069.29,457.0234" style="stroke:#181818;stroke-width:1;"/><line style="stroke:#181818;stroke-width:1;stroke-dasharray:2,2;" x1="1067.29" x2="1228.5366" y1="457.0234" y2="457.0234"/><text fill="#000000" font-family="sans-serif" font-size="13" font-weight="bold" lengthAdjust="spacing" textLength="18.0908" x="1079.29" y="451.9575">10</text><text fill="#000000" font-family="sans-serif" font-size="13" lengthAdjust="spacing" textLength="116.1558" x="1101.3809" y="451.9575">Updated progress</text></g><g class="message" data-entity-1="part5" data-entity-2="part7" id="msg11"><polygon fill="#181818" points="1412.186,482.1563,1422.186,486.1563,1412.186,490.1563,1416.186,486.1563" style="stroke:#181818;stroke-width:1;"/><line style="stroke:#181818;stroke-width:1;" x1="1062.29" x2="1418.186" y1="486.1563" y2="486.1563"/><text fill="#000000" font-family="sans-serif" font-size="13" font-weight="bold" lengthAdjust="spacing" textLength="18.0908" x="1069.29" y="481.0903">11</text><text fill="#000000" font-family="sans-serif" font-size="13" lengthAdjust="spacing" textLength="107.9038" x="1091.3809" y="481.0903">Update progress</text></g><g class="message" data-entity-1="part7" data-entity-2="part5" id="msg12"><polygon fill="#181818" points="1073.29,511.2891,1063.29,515.2891,1073.29,519.2891,1069.29,515.2891" style="stroke:#181818;stroke-width:1;"/><line style="stroke:#181818;stroke-width:1;stroke-dasharray:2,2;" x1="1067.29" x2="1428.186" y1="515.2891" y2="515.2891"/><text fill="#000000" font-family="sans-serif" font-size="13" font-weight="bold" lengthAdjust="spacing" textLength="18.0908" x="1079.29" y="510.2231">12</text><text fill="#000000" font-family="sans-serif" font-size="13" lengthAdjust="spacing" textLength="52.3301" x="1101.3809" y="510.2231">Success</text></g><g class="message" data-entity-1="part5" data-entity-2="part4" id="msg13"><polygon fill="#181818" points="753.5981,540.4219,743.5981,544.4219,753.5981,548.4219,749.5981,544.4219" style="stroke:#181818;stroke-width:1;"/><line style="stroke:#181818;stroke-width:1;stroke-dasharray:2,2;" x1="747.5981" x2="1056.29" y1="544.4219" y2="544.4219"/><text fill="#000000" font-family="sans-serif" font-size="13" font-weight="bold" lengthAdjust="spacing" textLength="18.0908" x="759.5981" y="539.356">13</text><text fill="#000000" font-family="sans-serif" font-size="13" lengthAdjust="spacing" textLength="84.4619" x="781.689" y="539.356">ProgressDTO</text></g><g class="message" data-entity-1="part4" data-entity-2="part3" id="msg14"><polygon fill="#181818" points="604.7471,569.5547,594.7471,573.5547,604.7471,577.5547,600.7471,573.5547" style="stroke:#181818;stroke-width:1;"/><line style="stroke:#181818;stroke-width:1;stroke-dasharray:2,2;" x1="598.7471" x2="736.5981" y1="573.5547" y2="573.5547"/><text fill="#000000" font-family="sans-serif" font-size="13" font-weight="bold" lengthAdjust="spacing" textLength="18.0908" x="610.7471" y="568.4888">14</text><text fill="#000000" font-family="sans-serif" font-size="13" lengthAdjust="spacing" textLength="47.7026" x="632.8379" y="568.4888">200 OK</text></g><g class="message" data-entity-1="part3" data-entity-2="part2" id="msg15"><polygon fill="#181818" points="332.3452,598.6875,322.3452,602.6875,332.3452,606.6875,328.3452,602.6875" style="stroke:#181818;stroke-width:1;"/><line style="stroke:#181818;stroke-width:1;stroke-dasharray:2,2;" x1="326.3452" x2="587.7471" y1="602.6875" y2="602.6875"/><text fill="#000000" font-family="sans-serif" font-size="13" font-weight="bold" lengthAdjust="spacing" textLength="18.0908" x="338.3452" y="597.6216">15</text><text fill="#000000" font-family="sans-serif" font-size="13" lengthAdjust="spacing" textLength="52.3301" x="360.436" y="597.6216">Success</text></g><g class="message" data-entity-1="part2" data-entity-2="part1" id="msg16"><polygon fill="#181818" points="45.9951,627.8203,35.9951,631.8203,45.9951,635.8203,41.9951,631.8203" style="stroke:#181818;stroke-width:1;"/><line style="stroke:#181818;stroke-width:1;" x1="39.9951" x2="315.3452" y1="631.8203" y2="631.8203"/><text fill="#000000" font-family="sans-serif" font-size="13" font-weight="bold" lengthAdjust="spacing" textLength="18.0908" x="51.9951" y="626.7544">16</text><text fill="#000000" font-family="sans-serif" font-size="13" lengthAdjust="spacing" textLength="225.2593" x="74.0859" y="626.7544">Update UI: show lesson completed</text></g><?plantuml-src ZLB1Yjim4BthAuOjXIqq9EsfXEw2uz2GrYM2P6iAlIZMa8Xr95UIumsb_xuZouwzImyzMHwzUVFcFOdQ6rsVzcWPSuzALyAA4opC4nTIAds03pF6HE6DXGo5rMX1ECZOtjHQ2dk17FT9LOLYdZ0gFy5DmjUm4XuRSRc1Dvaw7FsYh94154PxQyfN4EfTvGor16hlE59JMuUmHNjM1VOqFx4iJJCYujOSB3gNnlyookFf21APEerfGZUelV8NsiSvetk6TYrEjr9uiHSqEpOk5stVSZ48p61oJzlE2N6gIlG8ZV35CRXrLX8DtDxVVPgzVHTyKsVQalow7eDBsj31d4biO4aeWectwd2WGdD47Lb-QOkYEA83uWBo_oHqBKhws4V6yYI8MELpu9lj3gPbkuoR_ec7jVmxBJfrmsnoUPNtVJz4gMIeVirtNPcdS_XYR2Ei18k_QtH-Q2PJ6Ky3B2NHtqb5D31nlGtojX_-7cg7ThqSMK3EixGLJLxI64LkHZXKNGGZCDbDuC-JIKHVGmhXC8alW1rjngEg45U_kXn5m5d6UzmMFQX1Dzo1j_H0kv41yL05R-IWRJIKgCQhHEX_RB6jY-8LLQkVN6qnoR3eShTv0Kj2GW4K8leucy7cs_YUiidZe93iF-PGyjsJoQw27zPpS4VJz34CfeqQwRcEDsVF?></g></svg>