<?plantuml 1.2026.1?><svg xmlns="http://www.w3.org/2000/svg" xmlns:xlink="http://www.w3.org/1999/xlink" contentStyleType="text/css" data-diagram-type="SEQUENCE" height="1282px" preserveAspectRatio="none" style="width:2051px;height:1282px;background:#FFFFFF;" version="1.1" viewBox="0 0 2051 1282" width="2051px" zoomAndPan="magnify"><defs/><g><rect fill="#ADD8E6" height="1270.9844" style="stroke:#181818;stroke-width:0.5;" width="102.4434" x="569.6968" y="6"/><text fill="#000000" font-family="sans-serif" font-size="13" font-weight="bold" lengthAdjust="spacing" textLength="92.6821" x="574.5774" y="18.0669">API Gateway</text><rect fill="#FFFFE0" height="1270.9844" style="stroke:#181818;stroke-width:0.5;" width="878.7031" x="781.8955" y="6"/><text fill="#000000" font-family="sans-serif" font-size="13" font-weight="bold" lengthAdjust="spacing" textLength="109.2622" x="1166.616" y="18.0669">Course Service</text><rect fill="#E0FFFF" height="1270.9844" style="stroke:#181818;stroke-width:0.5;" width="163.502" x="1682.5986" y="6"/><text fill="#000000" font-family="sans-serif" font-size="13" font-weight="bold" lengthAdjust="spacing" textLength="144.498" x="1692.1006" y="18.0669">Notification Service</text><g><title>Admin</title><rect fill="#FFFFFF" height="459.125" style="stroke:#181818;stroke-width:1;" width="10" x="50.4321" y="118.5625"/></g><g><title>WebApp</title><rect fill="#FFFFFF" height="459.125" style="stroke:#181818;stroke-width:1;" width="10" x="308.0522" y="118.5625"/></g><g><title>API Gateway</title><rect fill="#FFFFFF" height="270.1953" style="stroke:#181818;stroke-width:1;" width="10" x="615.9185" y="278.3594"/></g><g><title>AdminCourseController</title><rect fill="#FFFFFF" height="169.7969" style="stroke:#181818;stroke-width:1;" width="10" x="865.3525" y="349.625"/></g><g><title>CourseApp</title><rect fill="#FFFFFF" height="628.2656" style="stroke:#181818;stroke-width:1;" width="10" x="1182.4673" y="378.7578"/></g><g><title>Course</title><rect fill="#FFFFFF" height="71.2656" style="stroke:#181818;stroke-width:1;" width="10" x="1411.0366" y="848.3594"/></g><g><title>CourseDB</title><rect fill="#FFFFFF" height="53.2656" style="stroke:#181818;stroke-width:1;" width="10" x="1613.9678" y="407.8906"/></g><g><title>CourseDB</title><rect fill="#FFFFFF" height="29.1328" style="stroke:#181818;stroke-width:1;" width="10" x="1613.9678" y="948.7578"/></g><g><title>NotificationController</title><rect fill="#FFFFFF" height="35.1328" style="stroke:#181818;stroke-width:1;" width="10" x="1759.3496" y="1065.2891"/></g><rect fill="none" height="757.7969" style="stroke:#000000;stroke-width:1.5;" width="2034.2422" x="10" y="422.8906"/><rect fill="none" height="494.9297" style="stroke:#000000;stroke-width:1.5;" width="2014.2422" x="20" y="678.7578"/><g class="participant-lifeline" data-entity-uid="part1" data-qualified-name="A" id="part1-lifeline"><g><title>Admin</title><rect fill="#000000" fill-opacity="0.00000" height="1110.2578" width="8" x="51.4321" y="87.4297"/><line style="stroke:#181818;stroke-width:0.5;stroke-dasharray:5,5;" x1="55" x2="55" y1="87.4297" y2="1197.6875"/></g></g><g class="participant-lifeline" data-entity-uid="part2" data-qualified-name="WA" id="part2-lifeline"><g><title>WebApp</title><rect fill="#000000" fill-opacity="0.00000" height="1110.2578" width="8" x="309.0522" y="87.4297"/><line style="stroke:#181818;stroke-width:0.5;stroke-dasharray:5,5;" x1="312.7056" x2="312.7056" y1="87.4297" y2="1197.6875"/></g></g><g class="participant-lifeline" data-entity-uid="part3" data-qualified-name="GW" id="part3-lifeline"><g><title>API Gateway</title><rect fill="#000000" fill-opacity="0.00000" height="1110.2578" width="8" x="616.9185" y="87.4297"/><line style="stroke:#181818;stroke-width:0.5;stroke-dasharray:5,5;" x1="620.6968" x2="620.6968" y1="87.4297" y2="1197.6875"/></g></g><g class="participant-lifeline" data-entity-uid="part4" data-qualified-name="ACC" id="part4-lifeline"><g><title>AdminCourseController</title><rect fill="#000000" fill-opacity="0.00000" height="1110.2578" width="8" x="866.3525" y="87.4297"/><line style="stroke:#181818;stroke-width:0.5;stroke-dasharray:5,5;" x1="869.8955" x2="869.8955" y1="87.4297" y2="1197.6875"/></g></g><g class="participant-lifeline" data-entity-uid="part5" data-qualified-name="CA" id="part5-lifeline"><g><title>CourseApp</title><rect fill="#000000" fill-opacity="0.00000" height="1110.2578" width="8" x="1183.4673" y="87.4297"/><line style="stroke:#181818;stroke-width:0.5;stroke-dasharray:5,5;" x1="1187.3535" x2="1187.3535" y1="87.4297" y2="1197.6875"/></g></g><g class="participant-lifeline" data-entity-uid="part6" data-qualified-name="C" id="part6-lifeline"><g><title>Course</title><rect fill="#000000" fill-opacity="0.00000" height="1110.2578" width="8" x="1412.0366" y="87.4297"/><line style="stroke:#181818;stroke-width:0.5;stroke-dasharray:5,5;" x1="1415.5981" x2="1415.5981" y1="87.4297" y2="1197.6875"/></g></g><g class="participant-lifeline" data-entity-uid="part7" data-qualified-name="CDB" id="part7-lifeline"><g><title>CourseDB</title><rect fill="#000000" fill-opacity="0.00000" height="1110.2578" width="8" x="1614.9678" y="87.4297"/><line style="stroke:#181818;stroke-width:0.5;stroke-dasharray:5,5;" x1="1618.3369" x2="1618.3369" y1="87.4297" y2="1197.6875"/></g></g><g class="participant-lifeline" data-entity-uid="part8" data-qualified-name="NC" id="part8-lifeline"><g><title>NotificationController</title><rect fill="#000000" fill-opacity="0.00000" height="1110.2578" width="8" x="1760.3496" y="87.4297"/><line style="stroke:#181818;stroke-width:0.5;stroke-dasharray:5,5;" x1="1763.5986" x2="1763.5986" y1="87.4297" y2="1197.6875"/></g></g><g class="participant participant-head" data-entity-uid="part1" data-qualified-name="A" id="part1-head"><text fill="#000000" font-family="sans-serif" font-size="14" lengthAdjust="spacing" textLength="44.8643" x="30" y="84.1279">Admin</text><ellipse cx="55.4321" cy="19.6328" fill="#E2E2F0" rx="8" ry="8" style="stroke:#181818;stroke-width:0.5;"/><path d="M55.4321,27.6328 L55.4321,54.6328 M42.4321,35.6328 L68.4321,35.6328 M55.4321,54.6328 L42.4321,69.6328 M55.4321,54.6328 L68.4321,69.6328" fill="none" style="stroke:#181818;stroke-width:0.5;"/></g><g class="participant participant-tail" data-entity-uid="part1" data-qualified-name="A" id="part1-tail"><text fill="#000000" font-family="sans-serif" font-size="14" lengthAdjust="spacing" textLength="44.8643" x="30" y="1209.6826">Admin</text><ellipse cx="55.4321" cy="1221.4844" fill="#E2E2F0" rx="8" ry="8" style="stroke:#181818;stroke-width:0.5;"/><path d="M55.4321,1229.4844 L55.4321,1256.4844 M42.4321,1237.4844 L68.4321,1237.4844 M55.4321,1256.4844 L42.4321,1271.4844 M55.4321,1256.4844 L68.4321,1271.4844" fill="none" style="stroke:#181818;stroke-width:0.5;"/></g><g class="participant participant-head" data-entity-uid="part2" data-qualified-name="WA" id="part2-head"><text fill="#000000" font-family="sans-serif" font-size="14" lengthAdjust="spacing" textLength="58.6934" x="280.7056" y="84.1279">WebApp</text><path d="M292.5522,43.1328 L292.5522,67.1328 M292.5522,55.1328 L309.5522,55.1328" fill="none" style="stroke:#181818;stroke-width:0.5;"/><ellipse cx="321.5522" cy="55.1328" fill="#E2E2F0" rx="12" ry="12" style="stroke:#181818;stroke-width:0.5;"/></g><g class="participant participant-tail" data-entity-uid="part2" data-qualified-name="WA" id="part2-tail"><text fill="#000000" font-family="sans-serif" font-size="14" lengthAdjust="spacing" textLength="58.6934" x="280.7056" y="1209.6826">WebApp</text><path d="M292.5522,1216.9844 L292.5522,1240.9844 M292.5522,1228.9844 L309.5522,1228.9844" fill="none" style="stroke:#181818;stroke-width:0.5;"/><ellipse cx="321.5522" cy="1228.9844" fill="#E2E2F0" rx="12" ry="12" style="stroke:#181818;stroke-width:0.5;"/></g><g class="participant participant-head" data-entity-uid="part3" data-qualified-name="GW" id="part3-head"><text fill="#000000" font-family="sans-serif" font-size="14" lengthAdjust="spacing" textLength="88.4434" x="573.6968" y="84.1279">API Gateway</text><ellipse cx="620.9185" cy="55.1328" fill="#E2E2F0" rx="12" ry="12" style="stroke:#181818;stroke-width:0.5;"/><polygon fill="#181818" points="616.9185,43.1328,622.9185,38.1328,620.9185,43.1328,622.9185,48.1328,616.9185,43.1328" style="stroke:#181818;stroke-width:1;"/></g><g class="participant participant-tail" data-entity-uid="part3" data-qualified-name="GW" id="part3-tail"><text fill="#000000" font-family="sans-serif" font-size="14" lengthAdjust="spacing" textLength="88.4434" x="573.6968" y="1209.6826">API Gateway</text><ellipse cx="620.9185" cy="1228.9844" fill="#E2E2F0" rx="12" ry="12" style="stroke:#181818;stroke-width:0.5;"/><polygon fill="#181818" points="616.9185,1216.9844,622.9185,1211.9844,620.9185,1216.9844,622.9185,1221.9844,616.9185,1216.9844" style="stroke:#181818;stroke-width:1;"/></g><g class="participant participant-head" data-entity-uid="part4" data-qualified-name="ACC" id="part4-head"><text fill="#000000" font-family="sans-serif" font-size="14" lengthAdjust="spacing" textLength="162.9141" x="785.8955" y="84.1279">AdminCourseController</text><ellipse cx="870.3525" cy="55.1328" fill="#E2E2F0" rx="12" ry="12" style="stroke:#181818;stroke-width:0.5;"/><polygon fill="#181818" points="866.3525,43.1328,872.3525,38.1328,870.3525,43.1328,872.3525,48.1328,866.3525,43.1328" style="stroke:#181818;stroke-width:1;"/></g><g class="participant participant-tail" data-entity-uid="part4" data-qualified-name="ACC" id="part4-tail"><text fill="#000000" font-family="sans-serif" font-size="14" lengthAdjust="spacing" textLength="162.9141" x="785.8955" y="1209.6826">AdminCourseController</text><ellipse cx="870.3525" cy="1228.9844" fill="#E2E2F0" rx="12" ry="12" style="stroke:#181818;stroke-width:0.5;"/><polygon fill="#181818" points="866.3525,1216.9844,872.3525,1211.9844,870.3525,1216.9844,872.3525,1221.9844,866.3525,1216.9844" style="stroke:#181818;stroke-width:1;"/></g><g class="participant participant-head" data-entity-uid="part5" data-qualified-name="CA" id="part5-head"><text fill="#000000" font-family="sans-serif" font-size="14" lengthAdjust="spacing" textLength="76.2275" x="1146.3535" y="84.1279">CourseApp</text><ellipse cx="1187.4673" cy="55.1328" fill="#E2E2F0" rx="12" ry="12" style="stroke:#181818;stroke-width:0.5;"/><polygon fill="#181818" points="1183.4673,43.1328,1189.4673,38.1328,1187.4673,43.1328,1189.4673,48.1328,1183.4673,43.1328" style="stroke:#181818;stroke-width:1;"/></g><g class="participant participant-tail" data-entity-uid="part5" data-qualified-name="CA" id="part5-tail"><text fill="#000000" font-family="sans-serif" font-size="14" lengthAdjust="spacing" textLength="76.2275" x="1146.3535" y="1209.6826">CourseApp</text><ellipse cx="1187.4673" cy="1228.9844" fill="#E2E2F0" rx="12" ry="12" style="stroke:#181818;stroke-width:0.5;"/><polygon fill="#181818" points="1183.4673,1216.9844,1189.4673,1211.9844,1187.4673,1216.9844,1189.4673,1221.9844,1183.4673,1216.9844" style="stroke:#181818;stroke-width:1;"/></g><g class="participant participant-head" data-entity-uid="part6" data-qualified-name="C" id="part6-head"><text fill="#000000" font-family="sans-serif" font-size="14" lengthAdjust="spacing" textLength="48.877" x="1388.5981" y="84.1279">Course</text><ellipse cx="1416.0366" cy="55.1328" fill="#E2E2F0" rx="12" ry="12" style="stroke:#181818;stroke-width:0.5;"/><line style="stroke:#181818;stroke-width:0.5;" x1="1404.0366" x2="1428.0366" y1="69.1328" y2="69.1328"/></g><g class="participant participant-tail" data-entity-uid="part6" data-qualified-name="C" id="part6-tail"><text fill="#000000" font-family="sans-serif" font-size="14" lengthAdjust="spacing" textLength="48.877" x="1388.5981" y="1209.6826">Course</text><ellipse cx="1416.0366" cy="1228.9844" fill="#E2E2F0" rx="12" ry="12" style="stroke:#181818;stroke-width:0.5;"/><line style="stroke:#181818;stroke-width:0.5;" x1="1404.0366" x2="1428.0366" y1="1242.9844" y2="1242.9844"/></g><g class="participant participant-head" data-entity-uid="part7" data-qualified-name="CDB" id="part7-head"><text fill="#000000" font-family="sans-serif" font-size="14" lengthAdjust="spacing" textLength="69.2617" x="1581.3369" y="84.1279">CourseDB</text><path d="M1600.9678,35.1328 C1600.9678,25.1328 1618.9678,25.1328 1618.9678,25.1328 C1618.9678,25.1328 1636.9678,25.1328 1636.9678,35.1328 L1636.9678,61.1328 C1636.9678,71.1328 1618.9678,71.1328 1618.9678,71.1328 C1618.9678,71.1328 1600.9678,71.1328 1600.9678,61.1328 L1600.9678,35.1328" fill="#E2E2F0" style="stroke:#181818;stroke-width:0.5;"/><path d="M1600.9678,35.1328 C1600.9678,45.1328 1618.9678,45.1328 1618.9678,45.1328 C1618.9678,45.1328 1636.9678,45.1328 1636.9678,35.1328" fill="none" style="stroke:#181818;stroke-width:0.5;"/></g><g class="participant participant-tail" data-entity-uid="part7" data-qualified-name="CDB" id="part7-tail"><text fill="#000000" font-family="sans-serif" font-size="14" lengthAdjust="spacing" textLength="69.2617" x="1581.3369" y="1209.6826">CourseDB</text><path d="M1600.9678,1222.9844 C1600.9678,1212.9844 1618.9678,1212.9844 1618.9678,1212.9844 C1618.9678,1212.9844 1636.9678,1212.9844 1636.9678,1222.9844 L1636.9678,1248.9844 C1636.9678,1258.9844 1618.9678,1258.9844 1618.9678,1258.9844 C1618.9678,1258.9844 1600.9678,1258.9844 1600.9678,1248.9844 L1600.9678,1222.9844" fill="#E2E2F0" style="stroke:#181818;stroke-width:0.5;"/><path d="M1600.9678,1222.9844 C1600.9678,1232.9844 1618.9678,1232.9844 1618.9678,1232.9844 C1618.9678,1232.9844 1636.9678,1232.9844 1636.9678,1222.9844" fill="none" style="stroke:#181818;stroke-width:0.5;"/></g><g class="participant participant-head" data-entity-uid="part8" data-qualified-name="NC" id="part8-head"><text fill="#000000" font-family="sans-serif" font-size="14" lengthAdjust="spacing" textLength="149.502" x="1686.5986" y="84.1279">NotificationController</text><ellipse cx="1764.3496" cy="55.1328" fill="#E2E2F0" rx="12" ry="12" style="stroke:#181818;stroke-width:0.5;"/><polygon fill="#181818" points="1760.3496,43.1328,1766.3496,38.1328,1764.3496,43.1328,1766.3496,48.1328,1760.3496,43.1328" style="stroke:#181818;stroke-width:1;"/></g><g class="participant participant-tail" data-entity-uid="part8" data-qualified-name="NC" id="part8-tail"><text fill="#000000" font-family="sans-serif" font-size="14" lengthAdjust="spacing" textLength="149.502" x="1686.5986" y="1209.6826">NotificationController</text><ellipse cx="1764.3496" cy="1228.9844" fill="#E2E2F0" rx="12" ry="12" style="stroke:#181818;stroke-width:0.5;"/><polygon fill="#181818" points="1760.3496,1216.9844,1766.3496,1211.9844,1764.3496,1216.9844,1766.3496,1221.9844,1760.3496,1216.9844" style="stroke:#181818;stroke-width:1;"/></g><g><title>Admin</title><rect fill="#FFFFFF" height="459.125" style="stroke:#181818;stroke-width:1;" width="10" x="50.4321" y="118.5625"/></g><g><title>WebApp</title><rect fill="#FFFFFF" height="459.125" style="stroke:#181818;stroke-width:1;" width="10" x="308.0522" y="118.5625"/></g><g><title>API Gateway</title><rect fill="#FFFFFF" height="270.1953" style="stroke:#181818;stroke-width:1;" width="10" x="615.9185" y="278.3594"/></g><g><title>AdminCourseController</title><rect fill="#FFFFFF" height="169.7969" style="stroke:#181818;stroke-width:1;" width="10" x="865.3525" y="349.625"/></g><g><title>CourseApp</title><rect fill="#FFFFFF" height="628.2656" style="stroke:#181818;stroke-width:1;" width="10" x="1182.4673" y="378.7578"/></g><g><title>Course</title><rect fill="#FFFFFF" height="71.2656" style="stroke:#181818;stroke-width:1;" width="10" x="1411.0366" y="848.3594"/></g><g><title>CourseDB</title><rect fill="#FFFFFF" height="53.2656" style="stroke:#181818;stroke-width:1;" width="10" x="1613.9678" y="407.8906"/></g><g><title>CourseDB</title><rect fill="#FFFFFF" height="29.1328" style="stroke:#181818;stroke-width:1;" width="10" x="1613.9678" y="948.7578"/></g><g><title>NotificationController</title><rect fill="#FFFFFF" height="35.1328" style="stroke:#181818;stroke-width:1;" width="10" x="1759.3496" y="1065.2891"/></g><g class="message" data-entity-1="part1" data-entity-2="part2" id="msg1"><polygon fill="#181818" points="296.0522,114.5625,306.0522,118.5625,296.0522,122.5625,300.0522,118.5625" style="stroke:#181818;stroke-width:1;"/><line style="stroke:#181818;stroke-width:1;" x1="60.4321" x2="302.0522" y1="118.5625" y2="118.5625"/><text fill="#000000" font-family="sans-serif" font-size="13" font-weight="bold" lengthAdjust="spacing" textLength="9.0454" x="67.4321" y="113.4966">1</text><text fill="#000000" font-family="sans-serif" font-size="13" lengthAdjust="spacing" textLength="220.5747" x="80.4775" y="113.4966">Click "Decline" on pending course</text></g><g class="message" data-entity-1="part2" data-entity-2="part2" id="msg2"><line style="stroke:#181818;stroke-width:1;" x1="318.0522" x2="360.0522" y1="162.8281" y2="162.8281"/><line style="stroke:#181818;stroke-width:1;" x1="360.0522" x2="360.0522" y1="162.8281" y2="175.8281"/><line style="stroke:#181818;stroke-width:1;" x1="319.0522" x2="360.0522" y1="175.8281" y2="175.8281"/><polygon fill="#181818" points="329.0522,171.8281,319.0522,175.8281,329.0522,179.8281,325.0522,175.8281" style="stroke:#181818;stroke-width:1;"/><text fill="#000000" font-family="sans-serif" font-size="13" font-weight="bold" lengthAdjust="spacing" textLength="9.0454" x="325.0522" y="150.1958">2</text><text fill="#000000" font-family="sans-serif" font-size="13" lengthAdjust="spacing" textLength="142.689" x="338.0977" y="142.6294">Display decline dialog</text><text fill="#000000" font-family="sans-serif" font-size="13" lengthAdjust="spacing" textLength="113.5596" x="338.0977" y="157.7622">with reason input</text></g><g class="message" data-entity-1="part1" data-entity-2="part2" id="msg3"><polygon fill="#181818" points="296.0522,200.9609,306.0522,204.9609,296.0522,208.9609,300.0522,204.9609" style="stroke:#181818;stroke-width:1;"/><line style="stroke:#181818;stroke-width:1;" x1="60.4321" x2="302.0522" y1="204.9609" y2="204.9609"/><text fill="#000000" font-family="sans-serif" font-size="13" font-weight="bold" lengthAdjust="spacing" textLength="9.0454" x="67.4321" y="199.895">3</text><text fill="#000000" font-family="sans-serif" font-size="13" lengthAdjust="spacing" textLength="134.291" x="80.4775" y="199.895">Enter decline reason</text></g><g class="message" data-entity-1="part1" data-entity-2="part2" id="msg4"><polygon fill="#181818" points="296.0522,230.0938,306.0522,234.0938,296.0522,238.0938,300.0522,234.0938" style="stroke:#181818;stroke-width:1;"/><line style="stroke:#181818;stroke-width:1;" x1="60.4321" x2="302.0522" y1="234.0938" y2="234.0938"/><text fill="#000000" font-family="sans-serif" font-size="13" font-weight="bold" lengthAdjust="spacing" textLength="9.0454" x="67.4321" y="229.0278">4</text><text fill="#000000" font-family="sans-serif" font-size="13" lengthAdjust="spacing" textLength="102.4575" x="80.4775" y="229.0278">Confirm decline</text></g><g class="message" data-entity-1="part2" data-entity-2="part3" id="msg5"><polygon fill="#181818" points="603.9185,274.3594,613.9185,278.3594,603.9185,282.3594,607.9185,278.3594" style="stroke:#181818;stroke-width:1;"/><line style="stroke:#181818;stroke-width:1;" x1="318.0522" x2="609.9185" y1="278.3594" y2="278.3594"/><text fill="#000000" font-family="sans-serif" font-size="13" font-weight="bold" lengthAdjust="spacing" textLength="9.0454" x="325.0522" y="265.7271">5</text><text fill="#000000" font-family="sans-serif" font-size="13" lengthAdjust="spacing" textLength="265.8208" x="338.0977" y="258.1606">POST /admin/courses/{courseId}/decline</text><text fill="#000000" font-family="sans-serif" font-size="13" lengthAdjust="spacing" textLength="60.8169" x="338.0977" y="273.2935">{reason}</text></g><g class="message" data-entity-1="part3" data-entity-2="part3" id="msg6"><line style="stroke:#181818;stroke-width:1;" x1="625.9185" x2="667.9185" y1="307.4922" y2="307.4922"/><line style="stroke:#181818;stroke-width:1;" x1="667.9185" x2="667.9185" y1="307.4922" y2="320.4922"/><line style="stroke:#181818;stroke-width:1;" x1="626.9185" x2="667.9185" y1="320.4922" y2="320.4922"/><polygon fill="#181818" points="636.9185,316.4922,626.9185,320.4922,636.9185,324.4922,632.9185,320.4922" style="stroke:#181818;stroke-width:1;"/><text fill="#000000" font-family="sans-serif" font-size="13" font-weight="bold" lengthAdjust="spacing" textLength="9.0454" x="632.9185" y="302.4263">6</text><text fill="#000000" font-family="sans-serif" font-size="13" lengthAdjust="spacing" textLength="202.3887" x="645.9639" y="302.4263">Validate JWT, check admin role</text></g><g class="message" data-entity-1="part3" data-entity-2="part4" id="msg7"><polygon fill="#181818" points="853.3525,345.625,863.3525,349.625,853.3525,353.625,857.3525,349.625" style="stroke:#181818;stroke-width:1;"/><line style="stroke:#181818;stroke-width:1;" x1="625.9185" x2="859.3525" y1="349.625" y2="349.625"/><text fill="#000000" font-family="sans-serif" font-size="13" font-weight="bold" lengthAdjust="spacing" textLength="9.0454" x="632.9185" y="344.5591">7</text><text fill="#000000" font-family="sans-serif" font-size="13" lengthAdjust="spacing" textLength="106.8057" x="645.9639" y="344.5591">Forward request</text></g><g class="message" data-entity-1="part4" data-entity-2="part5" id="msg8"><polygon fill="#181818" points="1170.4673,374.7578,1180.4673,378.7578,1170.4673,382.7578,1174.4673,378.7578" style="stroke:#181818;stroke-width:1;"/><line style="stroke:#181818;stroke-width:1;" x1="875.3525" x2="1176.4673" y1="378.7578" y2="378.7578"/><text fill="#000000" font-family="sans-serif" font-size="13" font-weight="bold" lengthAdjust="spacing" textLength="9.0454" x="882.3525" y="373.6919">8</text><text fill="#000000" font-family="sans-serif" font-size="13" lengthAdjust="spacing" textLength="275.0693" x="895.3979" y="373.6919">DeclineCourse(courseId, adminID, reason)</text></g><g class="message" data-entity-1="part5" data-entity-2="part7" id="msg9"><polygon fill="#181818" points="1601.9678,403.8906,1611.9678,407.8906,1601.9678,411.8906,1605.9678,407.8906" style="stroke:#181818;stroke-width:1;"/><line style="stroke:#181818;stroke-width:1;" x1="1192.4673" x2="1607.9678" y1="407.8906" y2="407.8906"/><text fill="#000000" font-family="sans-serif" font-size="13" font-weight="bold" lengthAdjust="spacing" textLength="9.0454" x="1199.4673" y="402.8247">9</text><text fill="#000000" font-family="sans-serif" font-size="13" lengthAdjust="spacing" textLength="75.1689" x="1212.5127" y="402.8247">Find course</text></g><path d="M10,422.8906 L74.4429,422.8906 L74.4429,430.0234 L64.4429,440.0234 L10,440.0234 L10,422.8906" fill="#EEEEEE" style="stroke:#000000;stroke-width:1.5;"/><rect fill="none" height="757.7969" style="stroke:#000000;stroke-width:1.5;" width="2034.2422" x="10" y="422.8906"/><text fill="#000000" font-family="sans-serif" font-size="13" font-weight="bold" lengthAdjust="spacing" textLength="19.4429" x="25" y="435.9575">alt</text><text fill="#000000" font-family="sans-serif" font-size="11" font-weight="bold" lengthAdjust="spacing" textLength="117.1328" x="89.4429" y="435.1011">[Course not found]</text><g class="message" data-entity-1="part7" data-entity-2="part5" id="msg10"><polygon fill="#181818" points="1203.4673,457.1563,1193.4673,461.1563,1203.4673,465.1563,1199.4673,461.1563" style="stroke:#181818;stroke-width:1;"/><line style="stroke:#181818;stroke-width:1;stroke-dasharray:2,2;" x1="1197.4673" x2="1617.9678" y1="461.1563" y2="461.1563"/><text fill="#000000" font-family="sans-serif" font-size="13" font-weight="bold" lengthAdjust="spacing" textLength="18.0908" x="1209.4673" y="456.0903">10</text><text fill="#000000" font-family="sans-serif" font-size="13" lengthAdjust="spacing" textLength="64.1685" x="1231.5581" y="456.0903">Not found</text></g><g class="message" data-entity-1="part5" data-entity-2="part4" id="msg11"><polygon fill="#181818" points="886.3525,486.2891,876.3525,490.2891,886.3525,494.2891,882.3525,490.2891" style="stroke:#181818;stroke-width:1;"/><line style="stroke:#181818;stroke-width:1;stroke-dasharray:2,2;" x1="880.3525" x2="1181.4673" y1="490.2891" y2="490.2891"/><text fill="#000000" font-family="sans-serif" font-size="13" font-weight="bold" lengthAdjust="spacing" textLength="18.0908" x="892.3525" y="485.2231">11</text><text fill="#000000" font-family="sans-serif" font-size="13" lengthAdjust="spacing" textLength="96.0146" x="914.4434" y="485.2231">404 Not Found</text></g><g class="message" data-entity-1="part4" data-entity-2="part3" id="msg12"><polygon fill="#181818" points="636.9185,515.4219,626.9185,519.4219,636.9185,523.4219,632.9185,519.4219" style="stroke:#181818;stroke-width:1;"/><line style="stroke:#181818;stroke-width:1;stroke-dasharray:2,2;" x1="630.9185" x2="869.3525" y1="519.4219" y2="519.4219"/><text fill="#000000" font-family="sans-serif" font-size="13" font-weight="bold" lengthAdjust="spacing" textLength="18.0908" x="642.9185" y="514.356">12</text><text fill="#000000" font-family="sans-serif" font-size="13" lengthAdjust="spacing" textLength="32.2017" x="665.0093" y="514.356">Error</text></g><g class="message" data-entity-1="part3" data-entity-2="part2" id="msg13"><polygon fill="#181818" points="329.0522,544.5547,319.0522,548.5547,329.0522,552.5547,325.0522,548.5547" style="stroke:#181818;stroke-width:1;"/><line style="stroke:#181818;stroke-width:1;stroke-dasharray:2,2;" x1="323.0522" x2="619.9185" y1="548.5547" y2="548.5547"/><text fill="#000000" font-family="sans-serif" font-size="13" font-weight="bold" lengthAdjust="spacing" textLength="18.0908" x="335.0522" y="543.4888">13</text><text fill="#000000" font-family="sans-serif" font-size="13" lengthAdjust="spacing" textLength="32.2017" x="357.1431" y="543.4888">Error</text></g><g class="message" data-entity-1="part2" data-entity-2="part1" id="msg14"><polygon fill="#181818" points="66.4321,573.6875,56.4321,577.6875,66.4321,581.6875,62.4321,577.6875" style="stroke:#181818;stroke-width:1;"/><line style="stroke:#181818;stroke-width:1;" x1="60.4321" x2="312.0522" y1="577.6875" y2="577.6875"/><text fill="#000000" font-family="sans-serif" font-size="13" font-weight="bold" lengthAdjust="spacing" textLength="18.0908" x="72.4321" y="572.6216">14</text><text fill="#000000" font-family="sans-serif" font-size="13" lengthAdjust="spacing" textLength="84.0366" x="94.5229" y="572.6216">Display error</text></g><line style="stroke:#000000;stroke-width:1;stroke-dasharray:2,2;" x1="10" x2="2044.2422" y1="586.6875" y2="586.6875"/><text fill="#000000" font-family="sans-serif" font-size="11" font-weight="bold" lengthAdjust="spacing" textLength="92.6567" x="15" y="596.8979">[Course found]</text><g class="message" data-entity-1="part7" data-entity-2="part5" id="msg15"><polygon fill="#181818" points="1203.4673,617.625,1193.4673,621.625,1203.4673,625.625,1199.4673,621.625" style="stroke:#181818;stroke-width:1;"/><line style="stroke:#181818;stroke-width:1;stroke-dasharray:2,2;" x1="1197.4673" x2="1617.9678" y1="621.625" y2="621.625"/><text fill="#000000" font-family="sans-serif" font-size="13" font-weight="bold" lengthAdjust="spacing" textLength="18.0908" x="1209.4673" y="616.5591">15</text><text fill="#000000" font-family="sans-serif" font-size="13" lengthAdjust="spacing" textLength="78.7998" x="1231.5581" y="616.5591">Course data</text></g><g class="message" data-entity-1="part5" data-entity-2="part5" id="msg16"><line style="stroke:#181818;stroke-width:1;" x1="1192.4673" x2="1234.4673" y1="650.7578" y2="650.7578"/><line style="stroke:#181818;stroke-width:1;" x1="1234.4673" x2="1234.4673" y1="650.7578" y2="663.7578"/><line style="stroke:#181818;stroke-width:1;" x1="1193.4673" x2="1234.4673" y1="663.7578" y2="663.7578"/><polygon fill="#181818" points="1203.4673,659.7578,1193.4673,663.7578,1203.4673,667.7578,1199.4673,663.7578" style="stroke:#181818;stroke-width:1;"/><text fill="#000000" font-family="sans-serif" font-size="13" font-weight="bold" lengthAdjust="spacing" textLength="18.0908" x="1199.4673" y="645.6919">16</text><text fill="#000000" font-family="sans-serif" font-size="13" lengthAdjust="spacing" textLength="172.4785" x="1221.5581" y="645.6919">Validate course is pending</text></g><path d="M20,678.7578 L84.4429,678.7578 L84.4429,685.8906 L74.4429,695.8906 L20,695.8906 L20,678.7578" fill="#EEEEEE" style="stroke:#000000;stroke-width:1.5;"/><rect fill="none" height="494.9297" style="stroke:#000000;stroke-width:1.5;" width="2014.2422" x="20" y="678.7578"/><text fill="#000000" font-family="sans-serif" font-size="13" font-weight="bold" lengthAdjust="spacing" textLength="19.4429" x="35" y="691.8247">alt</text><text fill="#000000" font-family="sans-serif" font-size="11" font-weight="bold" lengthAdjust="spacing" textLength="131.769" x="99.4429" y="690.9683">[Course not pending]</text><g class="message" data-entity-1="part5" data-entity-2="part4" id="msg17"><polygon fill="#181818" points="881.3525,713.0234,871.3525,717.0234,881.3525,721.0234,877.3525,717.0234" style="stroke:#181818;stroke-width:1;"/><line style="stroke:#181818;stroke-width:1;stroke-dasharray:2,2;" x1="875.3525" x2="1181.4673" y1="717.0234" y2="717.0234"/><text fill="#000000" font-family="sans-serif" font-size="13" font-weight="bold" lengthAdjust="spacing" textLength="18.0908" x="887.3525" y="711.9575">17</text><text fill="#000000" font-family="sans-serif" font-size="13" lengthAdjust="spacing" textLength="111.6045" x="909.4434" y="711.9575">400 Bad Request</text></g><g class="message" data-entity-1="part4" data-entity-2="part3" id="msg18"><polygon fill="#181818" points="631.9185,742.1563,621.9185,746.1563,631.9185,750.1563,627.9185,746.1563" style="stroke:#181818;stroke-width:1;"/><line style="stroke:#181818;stroke-width:1;stroke-dasharray:2,2;" x1="625.9185" x2="869.3525" y1="746.1563" y2="746.1563"/><text fill="#000000" font-family="sans-serif" font-size="13" font-weight="bold" lengthAdjust="spacing" textLength="18.0908" x="637.9185" y="741.0903">18</text><text fill="#000000" font-family="sans-serif" font-size="13" lengthAdjust="spacing" textLength="32.2017" x="660.0093" y="741.0903">Error</text></g><g class="message" data-entity-1="part3" data-entity-2="part2" id="msg19"><polygon fill="#181818" points="324.0522,771.2891,314.0522,775.2891,324.0522,779.2891,320.0522,775.2891" style="stroke:#181818;stroke-width:1;"/><line style="stroke:#181818;stroke-width:1;stroke-dasharray:2,2;" x1="318.0522" x2="619.9185" y1="775.2891" y2="775.2891"/><text fill="#000000" font-family="sans-serif" font-size="13" font-weight="bold" lengthAdjust="spacing" textLength="18.0908" x="330.0522" y="770.2231">19</text><text fill="#000000" font-family="sans-serif" font-size="13" lengthAdjust="spacing" textLength="171.6089" x="352.1431" y="770.2231">"Course must be pending"</text></g><g class="message" data-entity-1="part2" data-entity-2="part1" id="msg20"><polygon fill="#181818" points="66.4321,800.4219,56.4321,804.4219,66.4321,808.4219,62.4321,804.4219" style="stroke:#181818;stroke-width:1;"/><line style="stroke:#181818;stroke-width:1;" x1="60.4321" x2="312.0522" y1="804.4219" y2="804.4219"/><text fill="#000000" font-family="sans-serif" font-size="13" font-weight="bold" lengthAdjust="spacing" textLength="18.0908" x="72.4321" y="799.356">20</text><text fill="#000000" font-family="sans-serif" font-size="13" lengthAdjust="spacing" textLength="84.0366" x="94.5229" y="799.356">Display error</text></g><line style="stroke:#000000;stroke-width:1;stroke-dasharray:2,2;" x1="20" x2="2034.2422" y1="813.4219" y2="813.4219"/><text fill="#000000" font-family="sans-serif" font-size="11" font-weight="bold" lengthAdjust="spacing" textLength="121.4404" x="25" y="823.6323">[Course is pending]</text><g class="message" data-entity-1="part5" data-entity-2="part6" id="msg21"><polygon fill="#181818" points="1399.0366,844.3594,1409.0366,848.3594,1399.0366,852.3594,1403.0366,848.3594" style="stroke:#181818;stroke-width:1;"/><line style="stroke:#181818;stroke-width:1;" x1="1192.4673" x2="1405.0366" y1="848.3594" y2="848.3594"/><text fill="#000000" font-family="sans-serif" font-size="13" font-weight="bold" lengthAdjust="spacing" textLength="18.0908" x="1199.4673" y="843.2935">21</text><text fill="#000000" font-family="sans-serif" font-size="13" lengthAdjust="spacing" textLength="167.5845" x="1221.5581" y="843.2935">Update status to declined</text></g><g class="message" data-entity-1="part6" data-entity-2="part6" id="msg22"><line style="stroke:#181818;stroke-width:1;" x1="1421.0366" x2="1463.0366" y1="877.4922" y2="877.4922"/><line style="stroke:#181818;stroke-width:1;" x1="1463.0366" x2="1463.0366" y1="877.4922" y2="890.4922"/><line style="stroke:#181818;stroke-width:1;" x1="1422.0366" x2="1463.0366" y1="890.4922" y2="890.4922"/><polygon fill="#181818" points="1432.0366,886.4922,1422.0366,890.4922,1432.0366,894.4922,1428.0366,890.4922" style="stroke:#181818;stroke-width:1;"/><text fill="#000000" font-family="sans-serif" font-size="13" font-weight="bold" lengthAdjust="spacing" textLength="18.0908" x="1428.0366" y="872.4263">22</text><text fill="#000000" font-family="sans-serif" font-size="13" lengthAdjust="spacing" textLength="146.8403" x="1450.1274" y="872.4263">Set status = 'declined'</text></g><g class="message" data-entity-1="part6" data-entity-2="part5" id="msg23"><polygon fill="#181818" points="1203.4673,915.625,1193.4673,919.625,1203.4673,923.625,1199.4673,919.625" style="stroke:#181818;stroke-width:1;"/><line style="stroke:#181818;stroke-width:1;stroke-dasharray:2,2;" x1="1197.4673" x2="1415.0366" y1="919.625" y2="919.625"/><text fill="#000000" font-family="sans-serif" font-size="13" font-weight="bold" lengthAdjust="spacing" textLength="18.0908" x="1209.4673" y="914.5591">23</text><text fill="#000000" font-family="sans-serif" font-size="13" lengthAdjust="spacing" textLength="102.9209" x="1231.5581" y="914.5591">Updated course</text></g><g class="message" data-entity-1="part5" data-entity-2="part7" id="msg24"><polygon fill="#181818" points="1601.9678,944.7578,1611.9678,948.7578,1601.9678,952.7578,1605.9678,948.7578" style="stroke:#181818;stroke-width:1;"/><line style="stroke:#181818;stroke-width:1;" x1="1192.4673" x2="1607.9678" y1="948.7578" y2="948.7578"/><text fill="#000000" font-family="sans-serif" font-size="13" font-weight="bold" lengthAdjust="spacing" textLength="18.0908" x="1199.4673" y="943.6919">24</text><text fill="#000000" font-family="sans-serif" font-size="13" lengthAdjust="spacing" textLength="127.9624" x="1221.5581" y="943.6919">Save status change</text></g><g class="message" data-entity-1="part7" data-entity-2="part5" id="msg25"><polygon fill="#181818" points="1203.4673,973.8906,1193.4673,977.8906,1203.4673,981.8906,1199.4673,977.8906" style="stroke:#181818;stroke-width:1;"/><line style="stroke:#181818;stroke-width:1;stroke-dasharray:2,2;" x1="1197.4673" x2="1617.9678" y1="977.8906" y2="977.8906"/><text fill="#000000" font-family="sans-serif" font-size="13" font-weight="bold" lengthAdjust="spacing" textLength="18.0908" x="1209.4673" y="972.8247">25</text><text fill="#000000" font-family="sans-serif" font-size="13" lengthAdjust="spacing" textLength="52.3301" x="1231.5581" y="972.8247">Success</text></g><g class="message" data-entity-1="part5" data-entity-2="part4" id="msg26"><polygon fill="#181818" points="881.3525,1003.0234,871.3525,1007.0234,881.3525,1011.0234,877.3525,1007.0234" style="stroke:#181818;stroke-width:1;"/><line style="stroke:#181818;stroke-width:1;stroke-dasharray:2,2;" x1="875.3525" x2="1186.4673" y1="1007.0234" y2="1007.0234"/><text fill="#000000" font-family="sans-serif" font-size="13" font-weight="bold" lengthAdjust="spacing" textLength="18.0908" x="887.3525" y="1001.9575">26</text><text fill="#000000" font-family="sans-serif" font-size="13" lengthAdjust="spacing" textLength="73.5693" x="909.4434" y="1001.9575">CourseDTO</text></g><g class="message" data-entity-1="part4" data-entity-2="part3" id="msg27"><polygon fill="#181818" points="631.9185,1032.1563,621.9185,1036.1563,631.9185,1040.1563,627.9185,1036.1563" style="stroke:#181818;stroke-width:1;"/><line style="stroke:#181818;stroke-width:1;stroke-dasharray:2,2;" x1="625.9185" x2="869.3525" y1="1036.1563" y2="1036.1563"/><text fill="#000000" font-family="sans-serif" font-size="13" font-weight="bold" lengthAdjust="spacing" textLength="18.0908" x="637.9185" y="1031.0903">27</text><text fill="#000000" font-family="sans-serif" font-size="13" lengthAdjust="spacing" textLength="47.7026" x="660.0093" y="1031.0903">200 OK</text></g><g class="message" data-entity-1="part3" data-entity-2="part8" id="msg28"><line style="stroke:#181818;stroke-width:1;" x1="1757.3496" x2="1747.3496" y1="1065.2891" y2="1061.2891"/><line style="stroke:#181818;stroke-width:1;" x1="1757.3496" x2="1747.3496" y1="1065.2891" y2="1069.2891"/><line style="stroke:#181818;stroke-width:1;" x1="620.9185" x2="1758.3496" y1="1065.2891" y2="1065.2891"/><text fill="#000000" font-family="sans-serif" font-size="13" font-weight="bold" lengthAdjust="spacing" textLength="18.0908" x="627.9185" y="1060.2231">28</text><text fill="#000000" font-family="sans-serif" font-size="13" lengthAdjust="spacing" textLength="288.3486" x="650.0093" y="1060.2231">Async: Send decline notification with reason</text></g><g class="message" data-entity-1="part8" data-entity-2="part8" id="msg29"><line style="stroke:#181818;stroke-width:1;" x1="1769.3496" x2="1811.3496" y1="1099.4219" y2="1099.4219"/><line style="stroke:#181818;stroke-width:1;" x1="1811.3496" x2="1811.3496" y1="1099.4219" y2="1112.4219"/><line style="stroke:#181818;stroke-width:1;" x1="1764.3496" x2="1811.3496" y1="1112.4219" y2="1112.4219"/><polygon fill="#181818" points="1774.3496,1108.4219,1764.3496,1112.4219,1774.3496,1116.4219,1770.3496,1112.4219" style="stroke:#181818;stroke-width:1;"/><text fill="#000000" font-family="sans-serif" font-size="13" font-weight="bold" lengthAdjust="spacing" textLength="18.0908" x="1776.3496" y="1094.356">29</text><text fill="#000000" font-family="sans-serif" font-size="13" lengthAdjust="spacing" textLength="213.8018" x="1798.4404" y="1094.356">Queue email with decline reason</text></g><g class="message" data-entity-1="part3" data-entity-2="part2" id="msg30"><polygon fill="#181818" points="324.0522,1132.5547,314.0522,1136.5547,324.0522,1140.5547,320.0522,1136.5547" style="stroke:#181818;stroke-width:1;"/><line style="stroke:#181818;stroke-width:1;stroke-dasharray:2,2;" x1="318.0522" x2="619.9185" y1="1136.5547" y2="1136.5547"/><text fill="#000000" font-family="sans-serif" font-size="13" font-weight="bold" lengthAdjust="spacing" textLength="18.0908" x="330.0522" y="1131.4888">30</text><text fill="#000000" font-family="sans-serif" font-size="13" lengthAdjust="spacing" textLength="103.6001" x="352.1431" y="1131.4888">Decline success</text></g><g class="message" data-entity-1="part2" data-entity-2="part1" id="msg31"><polygon fill="#181818" points="66.4321,1161.6875,56.4321,1165.6875,66.4321,1169.6875,62.4321,1165.6875" style="stroke:#181818;stroke-width:1;"/><line style="stroke:#181818;stroke-width:1;" x1="60.4321" x2="312.0522" y1="1165.6875" y2="1165.6875"/><text fill="#000000" font-family="sans-serif" font-size="13" font-weight="bold" lengthAdjust="spacing" textLength="18.0908" x="72.4321" y="1160.6216">31</text><text fill="#000000" font-family="sans-serif" font-size="13" lengthAdjust="spacing" textLength="172.2119" x="94.5229" y="1160.6216">Update course status in UI</text></g><?plantuml-src ZLHDRnen5BpxLppHGrefYBJA2RMHbYL1j1MX9UcgKYvcrm4hYqrjRmYAyj_x_0MBGLKF8B3dZSSppuysHefcDMUA4Ft4nPegkeA1V9dIgk9Y0Hyl2A6baGgoQiK5K0qPcSj6L5HjeM3pRBssYqL6SFa5Ejbq32Dgs8PkE_3kEryipQ1k604efJ1ArWa4QqS5OQ82B0ySkMoKPZ1ZwfcNBDByPdKjDoqYfyXZSxzKC-KKvdaBvX51PvxX3XE6cstOSAkuM553vnJ_--NXm6qC1ucsYJJyaPVKS2bIXVcMYjR1RUYXm4c-PysWUuNszI6lUVa4dI4hQowG4_dNYB8fb4wI3O8_et4OmUud6b_iA8PShskwXSfpGCLfBHSFOiFD4XIZ6ZanvCQqZhqM1aN52WzgYPBYaQjLt2VXi57HX-djx0vwr8RGym9rxzN_65TllL3n85uzvzjUCmO-AYBDBrhpogv-BUxEeLmoDC6H0lh50X0JxSEDL1kgAjJufs7QjEp0l0b-MMHkRV17-o3VHqddddOyF0-t_B1dmBOWkRiP9eudSKmdDTts0g6rYNqZf857-n8mSgpztEtwuabhlM87vM2bUYJAlBouTE2R0CQhsYrtrskbf3eay5rT-9EiSoSmwAo3MClsxS2EWKMMa1DMxth_vBN2bdqcnnVps63_Bb7l870T6zdY4WVZ3a1gpWKCQ0K_GzXs_vH19omwC2aEarMZ3SnPFA-JbZhd_k7TiNk9VpXMMWwsxcoHmPm-tA-TCzfGqsWmCZwioi7sdlggK3HZ9bPyWRDOSHQPdMMHUjUtYS2Sj8NOG6VqUIUaN5AnO8a6rx27JJ1hof9fVKJkM-0mmJ17xswFqDbHcfymxTjlf-ACqExL5OxDFcHwAqfh2RxGEBH4UoQtPjtXVIRUr8bprLBzQ5Z3WAqehtrLCWGJDPCWfjLSOT20FcrBsbCX_F0iWlKuwEx7_zbW-2Zjvoy0?></g></svg>