<?plantuml 1.2026.1?><svg xmlns="http://www.w3.org/2000/svg" xmlns:xlink="http://www.w3.org/1999/xlink" contentStyleType="text/css" data-diagram-type="SEQUENCE" height="630px" preserveAspectRatio="none" style="width:1208px;height:630px;background:#FFFFFF;" version="1.1" viewBox="0 0 1208 630" width="1208px" zoomAndPan="magnify"><defs/><g><rect fill="#ADD8E6" height="618.3906" style="stroke:#181818;stroke-width:0.5;" width="102.4434" x="502.8799" y="6"/><text fill="#000000" font-family="sans-serif" font-size="13" font-weight="bold" lengthAdjust="spacing" textLength="92.6821" x="507.7605" y="18.0669">API Gateway</text><rect fill="#FFFFE0" height="618.3906" style="stroke:#181818;stroke-width:0.5;" width="564.5679" x="631.0625" y="6"/><text fill="#000000" font-family="sans-serif" font-size="13" font-weight="bold" lengthAdjust="spacing" textLength="109.2622" x="858.7153" y="18.0669">Course Service</text><g><title>Learner</title><rect fill="#FFFFFF" height="408.5313" style="stroke:#181818;stroke-width:1;" width="10" x="29.9951" y="118.5625"/></g><g><title>WebApp</title><rect fill="#FFFFFF" height="408.5313" style="stroke:#181818;stroke-width:1;" width="10" x="288.7666" y="118.5625"/></g><g><title>API Gateway</title><rect fill="#FFFFFF" height="350.2656" style="stroke:#181818;stroke-width:1;" width="10" x="549.1016" y="147.6953"/></g><g><title>ProgressController</title><rect fill="#FFFFFF" height="249.8672" style="stroke:#181818;stroke-width:1;" width="10" x="697.9526" y="218.9609"/></g><g><title>CourseApp</title><rect fill="#FFFFFF" height="199.6016" style="stroke:#181818;stroke-width:1;" width="10" x="1017.2617" y="248.0938"/></g><g><title>CourseDB</title><rect fill="#FFFFFF" height="53.2656" style="stroke:#181818;stroke-width:1;" width="10" x="1148.9995" y="277.2266"/></g><rect fill="none" height="148.4688" style="stroke:#000000;stroke-width:1.5;" width="576.5679" x="625.0625" y="292.2266"/><g class="participant-lifeline" data-entity-uid="part1" data-qualified-name="L" id="part1-lifeline"><g><title>Learner</title><rect fill="#000000" fill-opacity="0.00000" height="457.6641" width="8" x="30.9951" y="87.4297"/><line style="stroke:#181818;stroke-width:0.5;stroke-dasharray:5,5;" x1="34" x2="34" y1="87.4297" y2="545.0938"/></g></g><g class="participant-lifeline" data-entity-uid="part2" data-qualified-name="WA" id="part2-lifeline"><g><title>WebApp</title><rect fill="#000000" fill-opacity="0.00000" height="457.6641" width="8" x="289.7666" y="87.4297"/><line style="stroke:#181818;stroke-width:0.5;stroke-dasharray:5,5;" x1="293.4199" x2="293.4199" y1="87.4297" y2="545.0938"/></g></g><g class="participant-lifeline" data-entity-uid="part3" data-qualified-name="GW" id="part3-lifeline"><g><title>API Gateway</title><rect fill="#000000" fill-opacity="0.00000" height="457.6641" width="8" x="550.1016" y="87.4297"/><line style="stroke:#181818;stroke-width:0.5;stroke-dasharray:5,5;" x1="553.8799" x2="553.8799" y1="87.4297" y2="545.0938"/></g></g><g class="participant-lifeline" data-entity-uid="part4" data-qualified-name="PC" id="part4-lifeline"><g><title>ProgressController</title><rect fill="#000000" fill-opacity="0.00000" height="457.6641" width="8" x="698.9526" y="87.4297"/><line style="stroke:#181818;stroke-width:0.5;stroke-dasharray:5,5;" x1="702.0625" x2="702.0625" y1="87.4297" y2="545.0938"/></g></g><g class="participant-lifeline" data-entity-uid="part5" data-qualified-name="CA" id="part5-lifeline"><g><title>CourseApp</title><rect fill="#000000" fill-opacity="0.00000" height="457.6641" width="8" x="1018.2617" y="87.4297"/><line style="stroke:#181818;stroke-width:0.5;stroke-dasharray:5,5;" x1="1022.1479" x2="1022.1479" y1="87.4297" y2="545.0938"/></g></g><g class="participant-lifeline" data-entity-uid="part6" data-qualified-name="CDB" id="part6-lifeline"><g><title>CourseDB</title><rect fill="#000000" fill-opacity="0.00000" height="457.6641" width="8" x="1149.9995" y="87.4297"/><line style="stroke:#181818;stroke-width:0.5;stroke-dasharray:5,5;" x1="1153.3687" x2="1153.3687" y1="87.4297" y2="545.0938"/></g></g><g class="participant participant-head" data-entity-uid="part1" data-qualified-name="L" id="part1-head"><text fill="#000000" font-family="sans-serif" font-size="14" lengthAdjust="spacing" textLength="53.9902" x="5" y="84.1279">Learner</text><ellipse cx="34.9951" cy="19.6328" fill="#E2E2F0" rx="8" ry="8" style="stroke:#181818;stroke-width:0.5;"/><path d="M34.9951,27.6328 L34.9951,54.6328 M21.9951,35.6328 L47.9951,35.6328 M34.9951,54.6328 L21.9951,69.6328 M34.9951,54.6328 L47.9951,69.6328" fill="none" style="stroke:#181818;stroke-width:0.5;"/></g><g class="participant participant-tail" data-entity-uid="part1" data-qualified-name="L" id="part1-tail"><text fill="#000000" font-family="sans-serif" font-size="14" lengthAdjust="spacing" textLength="53.9902" x="5" y="557.0889">Learner</text><ellipse cx="34.9951" cy="568.8906" fill="#E2E2F0" rx="8" ry="8" style="stroke:#181818;stroke-width:0.5;"/><path d="M34.9951,576.8906 L34.9951,603.8906 M21.9951,584.8906 L47.9951,584.8906 M34.9951,603.8906 L21.9951,618.8906 M34.9951,603.8906 L47.9951,618.8906" fill="none" style="stroke:#181818;stroke-width:0.5;"/></g><g class="participant participant-head" data-entity-uid="part2" data-qualified-name="WA" id="part2-head"><text fill="#000000" font-family="sans-serif" font-size="14" lengthAdjust="spacing" textLength="58.6934" x="261.4199" y="84.1279">WebApp</text><path d="M273.2666,43.1328 L273.2666,67.1328 M273.2666,55.1328 L290.2666,55.1328" fill="none" style="stroke:#181818;stroke-width:0.5;"/><ellipse cx="302.2666" cy="55.1328" fill="#E2E2F0" rx="12" ry="12" style="stroke:#181818;stroke-width:0.5;"/></g><g class="participant participant-tail" data-entity-uid="part2" data-qualified-name="WA" id="part2-tail"><text fill="#000000" font-family="sans-serif" font-size="14" lengthAdjust="spacing" textLength="58.6934" x="261.4199" y="557.0889">WebApp</text><path d="M273.2666,564.3906 L273.2666,588.3906 M273.2666,576.3906 L290.2666,576.3906" fill="none" style="stroke:#181818;stroke-width:0.5;"/><ellipse cx="302.2666" cy="576.3906" fill="#E2E2F0" rx="12" ry="12" style="stroke:#181818;stroke-width:0.5;"/></g><g class="participant participant-head" data-entity-uid="part3" data-qualified-name="GW" id="part3-head"><text fill="#000000" font-family="sans-serif" font-size="14" lengthAdjust="spacing" textLength="88.4434" x="506.8799" y="84.1279">API Gateway</text><ellipse cx="554.1016" cy="55.1328" fill="#E2E2F0" rx="12" ry="12" style="stroke:#181818;stroke-width:0.5;"/><polygon fill="#181818" points="550.1016,43.1328,556.1016,38.1328,554.1016,43.1328,556.1016,48.1328,550.1016,43.1328" style="stroke:#181818;stroke-width:1;"/></g><g class="participant participant-tail" data-entity-uid="part3" data-qualified-name="GW" id="part3-tail"><text fill="#000000" font-family="sans-serif" font-size="14" lengthAdjust="spacing" textLength="88.4434" x="506.8799" y="557.0889">API Gateway</text><ellipse cx="554.1016" cy="576.3906" fill="#E2E2F0" rx="12" ry="12" style="stroke:#181818;stroke-width:0.5;"/><polygon fill="#181818" points="550.1016,564.3906,556.1016,559.3906,554.1016,564.3906,556.1016,569.3906,550.1016,564.3906" style="stroke:#181818;stroke-width:1;"/></g><g class="participant participant-head" data-entity-uid="part4" data-qualified-name="PC" id="part4-head"><text fill="#000000" font-family="sans-serif" font-size="14" lengthAdjust="spacing" textLength="129.7803" x="635.0625" y="84.1279">ProgressController</text><ellipse cx="702.9526" cy="55.1328" fill="#E2E2F0" rx="12" ry="12" style="stroke:#181818;stroke-width:0.5;"/><polygon fill="#181818" points="698.9526,43.1328,704.9526,38.1328,702.9526,43.1328,704.9526,48.1328,698.9526,43.1328" style="stroke:#181818;stroke-width:1;"/></g><g class="participant participant-tail" data-entity-uid="part4" data-qualified-name="PC" id="part4-tail"><text fill="#000000" font-family="sans-serif" font-size="14" lengthAdjust="spacing" textLength="129.7803" x="635.0625" y="557.0889">ProgressController</text><ellipse cx="702.9526" cy="576.3906" fill="#E2E2F0" rx="12" ry="12" style="stroke:#181818;stroke-width:0.5;"/><polygon fill="#181818" points="698.9526,564.3906,704.9526,559.3906,702.9526,564.3906,704.9526,569.3906,698.9526,564.3906" style="stroke:#181818;stroke-width:1;"/></g><g class="participant participant-head" data-entity-uid="part5" data-qualified-name="CA" id="part5-head"><text fill="#000000" font-family="sans-serif" font-size="14" lengthAdjust="spacing" textLength="76.2275" x="981.1479" y="84.1279">CourseApp</text><ellipse cx="1022.2617" cy="55.1328" fill="#E2E2F0" rx="12" ry="12" style="stroke:#181818;stroke-width:0.5;"/><polygon fill="#181818" points="1018.2617,43.1328,1024.2617,38.1328,1022.2617,43.1328,1024.2617,48.1328,1018.2617,43.1328" style="stroke:#181818;stroke-width:1;"/></g><g class="participant participant-tail" data-entity-uid="part5" data-qualified-name="CA" id="part5-tail"><text fill="#000000" font-family="sans-serif" font-size="14" lengthAdjust="spacing" textLength="76.2275" x="981.1479" y="557.0889">CourseApp</text><ellipse cx="1022.2617" cy="576.3906" fill="#E2E2F0" rx="12" ry="12" style="stroke:#181818;stroke-width:0.5;"/><polygon fill="#181818" points="1018.2617,564.3906,1024.2617,559.3906,1022.2617,564.3906,1024.2617,569.3906,1018.2617,564.3906" style="stroke:#181818;stroke-width:1;"/></g><g class="participant participant-head" data-entity-uid="part6" data-qualified-name="CDB" id="part6-head"><text fill="#000000" font-family="sans-serif" font-size="14" lengthAdjust="spacing" textLength="69.2617" x="1116.3687" y="84.1279">CourseDB</text><path d="M1135.9995,35.1328 C1135.9995,25.1328 1153.9995,25.1328 1153.9995,25.1328 C1153.9995,25.1328 1171.9995,25.1328 1171.9995,35.1328 L1171.9995,61.1328 C1171.9995,71.1328 1153.9995,71.1328 1153.9995,71.1328 C1153.9995,71.1328 1135.9995,71.1328 1135.9995,61.1328 L1135.9995,35.1328" fill="#E2E2F0" style="stroke:#181818;stroke-width:0.5;"/><path d="M1135.9995,35.1328 C1135.9995,45.1328 1153.9995,45.1328 1153.9995,45.1328 C1153.9995,45.1328 1171.9995,45.1328 1171.9995,35.1328" fill="none" style="stroke:#181818;stroke-width:0.5;"/></g><g class="participant participant-tail" data-entity-uid="part6" data-qualified-name="CDB" id="part6-tail"><text fill="#000000" font-family="sans-serif" font-size="14" lengthAdjust="spacing" textLength="69.2617" x="1116.3687" y="557.0889">CourseDB</text><path d="M1135.9995,570.3906 C1135.9995,560.3906 1153.9995,560.3906 1153.9995,560.3906 C1153.9995,560.3906 1171.9995,560.3906 1171.9995,570.3906 L1171.9995,596.3906 C1171.9995,606.3906 1153.9995,606.3906 1153.9995,606.3906 C1153.9995,606.3906 1135.9995,606.3906 1135.9995,596.3906 L1135.9995,570.3906" fill="#E2E2F0" style="stroke:#181818;stroke-width:0.5;"/><path d="M1135.9995,570.3906 C1135.9995,580.3906 1153.9995,580.3906 1153.9995,580.3906 C1153.9995,580.3906 1171.9995,580.3906 1171.9995,570.3906" fill="none" style="stroke:#181818;stroke-width:0.5;"/></g><g><title>Learner</title><rect fill="#FFFFFF" height="408.5313" style="stroke:#181818;stroke-width:1;" width="10" x="29.9951" y="118.5625"/></g><g><title>WebApp</title><rect fill="#FFFFFF" height="408.5313" style="stroke:#181818;stroke-width:1;" width="10" x="288.7666" y="118.5625"/></g><g><title>API Gateway</title><rect fill="#FFFFFF" height="350.2656" style="stroke:#181818;stroke-width:1;" width="10" x="549.1016" y="147.6953"/></g><g><title>ProgressController</title><rect fill="#FFFFFF" height="249.8672" style="stroke:#181818;stroke-width:1;" width="10" x="697.9526" y="218.9609"/></g><g><title>CourseApp</title><rect fill="#FFFFFF" height="199.6016" style="stroke:#181818;stroke-width:1;" width="10" x="1017.2617" y="248.0938"/></g><g><title>CourseDB</title><rect fill="#FFFFFF" height="53.2656" style="stroke:#181818;stroke-width:1;" width="10" x="1148.9995" y="277.2266"/></g><g class="message" data-entity-1="part1" data-entity-2="part2" id="msg1"><polygon fill="#181818" points="276.7666,114.5625,286.7666,118.5625,276.7666,122.5625,280.7666,118.5625" style="stroke:#181818;stroke-width:1;"/><line style="stroke:#181818;stroke-width:1;" x1="39.9951" x2="282.7666" y1="118.5625" y2="118.5625"/><text fill="#000000" font-family="sans-serif" font-size="13" font-weight="bold" lengthAdjust="spacing" textLength="9.0454" x="46.9951" y="113.4966">1</text><text fill="#000000" font-family="sans-serif" font-size="13" lengthAdjust="spacing" textLength="137.8267" x="60.0405" y="113.4966">Resume video lesson</text></g><g class="message" data-entity-1="part2" data-entity-2="part3" id="msg2"><polygon fill="#181818" points="537.1016,143.6953,547.1016,147.6953,537.1016,151.6953,541.1016,147.6953" style="stroke:#181818;stroke-width:1;"/><line style="stroke:#181818;stroke-width:1;" x1="298.7666" x2="543.1016" y1="147.6953" y2="147.6953"/><text fill="#000000" font-family="sans-serif" font-size="13" font-weight="bold" lengthAdjust="spacing" textLength="9.0454" x="305.7666" y="142.6294">2</text><text fill="#000000" font-family="sans-serif" font-size="13" lengthAdjust="spacing" textLength="218.2896" x="318.812" y="142.6294">GET /lessons/{lessonId}/progress</text></g><g class="message" data-entity-1="part3" data-entity-2="part3" id="msg3"><line style="stroke:#181818;stroke-width:1;" x1="559.1016" x2="601.1016" y1="176.8281" y2="176.8281"/><line style="stroke:#181818;stroke-width:1;" x1="601.1016" x2="601.1016" y1="176.8281" y2="189.8281"/><line style="stroke:#181818;stroke-width:1;" x1="560.1016" x2="601.1016" y1="189.8281" y2="189.8281"/><polygon fill="#181818" points="570.1016,185.8281,560.1016,189.8281,570.1016,193.8281,566.1016,189.8281" style="stroke:#181818;stroke-width:1;"/><text fill="#000000" font-family="sans-serif" font-size="13" font-weight="bold" lengthAdjust="spacing" textLength="9.0454" x="566.1016" y="171.7622">3</text><text fill="#000000" font-family="sans-serif" font-size="13" lengthAdjust="spacing" textLength="82.1577" x="579.147" y="171.7622">Validate JWT</text></g><g class="message" data-entity-1="part3" data-entity-2="part4" id="msg4"><polygon fill="#181818" points="685.9526,214.9609,695.9526,218.9609,685.9526,222.9609,689.9526,218.9609" style="stroke:#181818;stroke-width:1;"/><line style="stroke:#181818;stroke-width:1;" x1="559.1016" x2="691.9526" y1="218.9609" y2="218.9609"/><text fill="#000000" font-family="sans-serif" font-size="13" font-weight="bold" lengthAdjust="spacing" textLength="9.0454" x="566.1016" y="213.895">4</text><text fill="#000000" font-family="sans-serif" font-size="13" lengthAdjust="spacing" textLength="106.8057" x="579.147" y="213.895">Forward request</text></g><g class="message" data-entity-1="part4" data-entity-2="part5" id="msg5"><polygon fill="#181818" points="1005.2617,244.0938,1015.2617,248.0938,1005.2617,252.0938,1009.2617,248.0938" style="stroke:#181818;stroke-width:1;"/><line style="stroke:#181818;stroke-width:1;" x1="707.9526" x2="1011.2617" y1="248.0938" y2="248.0938"/><text fill="#000000" font-family="sans-serif" font-size="13" font-weight="bold" lengthAdjust="spacing" textLength="9.0454" x="714.9526" y="243.0278">5</text><text fill="#000000" font-family="sans-serif" font-size="13" lengthAdjust="spacing" textLength="238.4688" x="727.998" y="243.0278">GetLessonProgress(lessonId, userID)</text></g><g class="message" data-entity-1="part5" data-entity-2="part6" id="msg6"><polygon fill="#181818" points="1136.9995,273.2266,1146.9995,277.2266,1136.9995,281.2266,1140.9995,277.2266" style="stroke:#181818;stroke-width:1;"/><line style="stroke:#181818;stroke-width:1;" x1="1027.2617" x2="1142.9995" y1="277.2266" y2="277.2266"/><text fill="#000000" font-family="sans-serif" font-size="13" font-weight="bold" lengthAdjust="spacing" textLength="9.0454" x="1034.2617" y="272.1606">6</text><text fill="#000000" font-family="sans-serif" font-size="13" lengthAdjust="spacing" textLength="83.9922" x="1047.3071" y="272.1606">Get progress</text></g><path d="M625.0625,292.2266 L689.5054,292.2266 L689.5054,299.3594 L679.5054,309.3594 L625.0625,309.3594 L625.0625,292.2266" fill="#EEEEEE" style="stroke:#000000;stroke-width:1.5;"/><rect fill="none" height="148.4688" style="stroke:#000000;stroke-width:1.5;" width="576.5679" x="625.0625" y="292.2266"/><text fill="#000000" font-family="sans-serif" font-size="13" font-weight="bold" lengthAdjust="spacing" textLength="19.4429" x="640.0625" y="305.2935">alt</text><text fill="#000000" font-family="sans-serif" font-size="11" font-weight="bold" lengthAdjust="spacing" textLength="125.0659" x="704.5054" y="304.437">[No progress found]</text><g class="message" data-entity-1="part6" data-entity-2="part5" id="msg7"><polygon fill="#181818" points="1038.2617,326.4922,1028.2617,330.4922,1038.2617,334.4922,1034.2617,330.4922" style="stroke:#181818;stroke-width:1;"/><line style="stroke:#181818;stroke-width:1;stroke-dasharray:2,2;" x1="1032.2617" x2="1152.9995" y1="330.4922" y2="330.4922"/><text fill="#000000" font-family="sans-serif" font-size="13" font-weight="bold" lengthAdjust="spacing" textLength="9.0454" x="1044.2617" y="325.4263">7</text><text fill="#000000" font-family="sans-serif" font-size="13" lengthAdjust="spacing" textLength="23.7021" x="1057.3071" y="325.4263">null</text></g><g class="message" data-entity-1="part5" data-entity-2="part4" id="msg8"><polygon fill="#181818" points="718.9526,355.625,708.9526,359.625,718.9526,363.625,714.9526,359.625" style="stroke:#181818;stroke-width:1;"/><line style="stroke:#181818;stroke-width:1;stroke-dasharray:2,2;" x1="712.9526" x2="1016.2617" y1="359.625" y2="359.625"/><text fill="#000000" font-family="sans-serif" font-size="13" font-weight="bold" lengthAdjust="spacing" textLength="9.0454" x="724.9526" y="354.5591">8</text><text fill="#000000" font-family="sans-serif" font-size="13" lengthAdjust="spacing" textLength="272.2637" x="737.998" y="354.5591">{watchedSeconds: 0, isCompleted: false}</text></g><line style="stroke:#000000;stroke-width:1;stroke-dasharray:2,2;" x1="625.0625" x2="1201.6304" y1="368.625" y2="368.625"/><text fill="#000000" font-family="sans-serif" font-size="11" font-weight="bold" lengthAdjust="spacing" textLength="105.4614" x="630.0625" y="378.8354">[Progress exists]</text><g class="message" data-entity-1="part6" data-entity-2="part5" id="msg9"><polygon fill="#181818" points="1038.2617,399.5625,1028.2617,403.5625,1038.2617,407.5625,1034.2617,403.5625" style="stroke:#181818;stroke-width:1;"/><line style="stroke:#181818;stroke-width:1;stroke-dasharray:2,2;" x1="1032.2617" x2="1152.9995" y1="403.5625" y2="403.5625"/><text fill="#000000" font-family="sans-serif" font-size="13" font-weight="bold" lengthAdjust="spacing" textLength="9.0454" x="1044.2617" y="398.4966">9</text><text fill="#000000" font-family="sans-serif" font-size="13" lengthAdjust="spacing" textLength="89.6924" x="1057.3071" y="398.4966">Progress data</text></g><g class="message" data-entity-1="part5" data-entity-2="part4" id="msg10"><polygon fill="#181818" points="718.9526,428.6953,708.9526,432.6953,718.9526,436.6953,714.9526,432.6953" style="stroke:#181818;stroke-width:1;"/><line style="stroke:#181818;stroke-width:1;stroke-dasharray:2,2;" x1="712.9526" x2="1016.2617" y1="432.6953" y2="432.6953"/><text fill="#000000" font-family="sans-serif" font-size="13" font-weight="bold" lengthAdjust="spacing" textLength="18.0908" x="724.9526" y="427.6294">10</text><text fill="#000000" font-family="sans-serif" font-size="13" lengthAdjust="spacing" textLength="84.4619" x="747.0435" y="427.6294">ProgressDTO</text></g><g class="message" data-entity-1="part4" data-entity-2="part3" id="msg11"><polygon fill="#181818" points="570.1016,464.8281,560.1016,468.8281,570.1016,472.8281,566.1016,468.8281" style="stroke:#181818;stroke-width:1;"/><line style="stroke:#181818;stroke-width:1;stroke-dasharray:2,2;" x1="564.1016" x2="701.9526" y1="468.8281" y2="468.8281"/><text fill="#000000" font-family="sans-serif" font-size="13" font-weight="bold" lengthAdjust="spacing" textLength="18.0908" x="576.1016" y="463.7622">11</text><text fill="#000000" font-family="sans-serif" font-size="13" lengthAdjust="spacing" textLength="47.7026" x="598.1924" y="463.7622">200 OK</text></g><g class="message" data-entity-1="part3" data-entity-2="part2" id="msg12"><polygon fill="#181818" points="309.7666,493.9609,299.7666,497.9609,309.7666,501.9609,305.7666,497.9609" style="stroke:#181818;stroke-width:1;"/><line style="stroke:#181818;stroke-width:1;stroke-dasharray:2,2;" x1="303.7666" x2="553.1016" y1="497.9609" y2="497.9609"/><text fill="#000000" font-family="sans-serif" font-size="13" font-weight="bold" lengthAdjust="spacing" textLength="18.0908" x="315.7666" y="492.895">12</text><text fill="#000000" font-family="sans-serif" font-size="13" lengthAdjust="spacing" textLength="89.6924" x="337.8574" y="492.895">Progress data</text></g><g class="message" data-entity-1="part2" data-entity-2="part1" id="msg13"><polygon fill="#181818" points="45.9951,523.0938,35.9951,527.0938,45.9951,531.0938,41.9951,527.0938" style="stroke:#181818;stroke-width:1;"/><line style="stroke:#181818;stroke-width:1;" x1="39.9951" x2="292.7666" y1="527.0938" y2="527.0938"/><text fill="#000000" font-family="sans-serif" font-size="13" font-weight="bold" lengthAdjust="spacing" textLength="18.0908" x="51.9951" y="522.0278">13</text><text fill="#000000" font-family="sans-serif" font-size="13" lengthAdjust="spacing" textLength="202.6807" x="74.0859" y="522.0278">Seek video to watchedSeconds</text></g><?plantuml-src XLBBRjim4BppAnR99GLYsEbHA0h8SYku5HgXCIBaI9iRXmXDgdpO3eByUvUcPCl98HU1uixipiwG1szqs2pHCkQUfMwvvHkOcdtDXP1w3JSJnlZA6miLSglH0dTGiQK9Md3x0WqkyxQDbqtEw7eF5tazXv9xtF6N2xYivFh9JrL01h0osbkZta68MpOCjG2YTpqA4wn3k4ExbIlispoWKcOtQ5HRixReN97-LP9N5mD8wjHfB7Ag2ExvabFtL9fD3vNPz2IXWj5tsYU3l-Z21c4h1HfGDCZew8RSadPouNYCkpTvP9LD1kMF1OmJserVqs4ktiPjf_R4extBfgVTSoL5lFtLBBhhkiZWfx4xRWLO_1VG-HEPrcHr4M45IItHLuT9lITN_U1h20xjVFRbH2KVM77GItiVkF1HNBI4SUNXZpbMuJ46JoOI-zjebEWwA1LznJCgaC248NMlE-vNJoZka78HBeF9DKYARTCgz2WoUEJAuHj3-XvJ1TnBvzsxQSTgpF6JiJrsjhYDwJ8s1EVHv8YCBd-TJE3szx1EzZPfR0pdVEe0HX5sqLSPlLTyxbwBDt2-yv14xsNmLx7_?></g></svg>