<?plantuml 1.2026.1?><svg xmlns="http://www.w3.org/2000/svg" xmlns:xlink="http://www.w3.org/1999/xlink" contentStyleType="text/css" data-diagram-type="SEQUENCE" height="843px" preserveAspectRatio="none" style="width:1582px;height:843px;background:#FFFFFF;" version="1.1" viewBox="0 0 1582 843" width="1582px" zoomAndPan="magnify"><defs/><g><rect fill="#ADD8E6" height="831.3125" style="stroke:#181818;stroke-width:0.5;" width="102.4434" x="482.2373" y="6"/><text fill="#000000" font-family="sans-serif" font-size="13" font-weight="bold" lengthAdjust="spacing" textLength="92.6821" x="487.1179" y="18.0669">API Gateway</text><rect fill="#FFFFE0" height="831.3125" style="stroke:#181818;stroke-width:0.5;" width="675.1484" x="616.2852" y="6"/><text fill="#000000" font-family="sans-serif" font-size="13" font-weight="bold" lengthAdjust="spacing" textLength="109.2622" x="899.2283" y="18.0669">Course Service</text><g><title>Learner</title><rect fill="#FFFFFF" height="621.4531" style="stroke:#181818;stroke-width:1;" width="10" x="29.9951" y="118.5625"/></g><g><title>WebApp</title><rect fill="#FFFFFF" height="621.4531" style="stroke:#181818;stroke-width:1;" width="10" x="268.0415" y="118.5625"/></g><g><title>API Gateway</title><rect fill="#FFFFFF" height="532.9219" style="stroke:#181818;stroke-width:1;" width="10" x="528.459" y="162.8281"/></g><g><title>CourseController</title><rect fill="#FFFFFF" height="439.5234" style="stroke:#181818;stroke-width:1;" width="10" x="677.3101" y="227.0938"/></g><g><title>CourseApp</title><rect fill="#FFFFFF" height="381.2578" style="stroke:#181818;stroke-width:1;" width="10" x="1004.4648" y="256.2266"/></g><g><title>CourseDB</title><rect fill="#FFFFFF" height="222.5938" style="stroke:#181818;stroke-width:1;" width="10" x="1244.8027" y="285.3594"/></g><g><title>CourseDB</title><rect fill="#FFFFFF" height="29.1328" style="stroke:#181818;stroke-width:1;" width="10" x="1244.8027" y="537.0859"/></g><g class="participant-lifeline" data-entity-uid="part1" data-qualified-name="L" id="part1-lifeline"><g><title>Learner</title><rect fill="#000000" fill-opacity="0.00000" height="670.5859" width="8" x="30.9951" y="87.4297"/><line style="stroke:#181818;stroke-width:0.5;stroke-dasharray:5,5;" x1="34" x2="34" y1="87.4297" y2="758.0156"/></g></g><g class="participant-lifeline" data-entity-uid="part2" data-qualified-name="WA" id="part2-lifeline"><g><title>WebApp</title><rect fill="#000000" fill-opacity="0.00000" height="670.5859" width="8" x="269.0415" y="87.4297"/><line style="stroke:#181818;stroke-width:0.5;stroke-dasharray:5,5;" x1="272.6948" x2="272.6948" y1="87.4297" y2="758.0156"/></g></g><g class="participant-lifeline" data-entity-uid="part3" data-qualified-name="GW" id="part3-lifeline"><g><title>API Gateway</title><rect fill="#000000" fill-opacity="0.00000" height="670.5859" width="8" x="529.459" y="87.4297"/><line style="stroke:#181818;stroke-width:0.5;stroke-dasharray:5,5;" x1="533.2373" x2="533.2373" y1="87.4297" y2="758.0156"/></g></g><g class="participant-lifeline" data-entity-uid="part4" data-qualified-name="CC" id="part4-lifeline"><g><title>CourseController</title><rect fill="#000000" fill-opacity="0.00000" height="670.5859" width="8" x="678.3101" y="87.4297"/><line style="stroke:#181818;stroke-width:0.5;stroke-dasharray:5,5;" x1="682.2852" x2="682.2852" y1="87.4297" y2="758.0156"/></g></g><g class="participant-lifeline" data-entity-uid="part5" data-qualified-name="CA" id="part5-lifeline"><g><title>CourseApp</title><rect fill="#000000" fill-opacity="0.00000" height="670.5859" width="8" x="1005.4648" y="87.4297"/><line style="stroke:#181818;stroke-width:0.5;stroke-dasharray:5,5;" x1="1009.3511" x2="1009.3511" y1="87.4297" y2="758.0156"/></g></g><g class="participant-lifeline" data-entity-uid="part6" data-qualified-name="CDB" id="part6-lifeline"><g><title>CourseDB</title><rect fill="#000000" fill-opacity="0.00000" height="670.5859" width="8" x="1245.8027" y="87.4297"/><line style="stroke:#181818;stroke-width:0.5;stroke-dasharray:5,5;" x1="1249.1719" x2="1249.1719" y1="87.4297" y2="758.0156"/></g></g><g class="participant participant-head" data-entity-uid="part1" data-qualified-name="L" id="part1-head"><text fill="#000000" font-family="sans-serif" font-size="14" lengthAdjust="spacing" textLength="53.9902" x="5" y="84.1279">Learner</text><ellipse cx="34.9951" cy="19.6328" fill="#E2E2F0" rx="8" ry="8" style="stroke:#181818;stroke-width:0.5;"/><path d="M34.9951,27.6328 L34.9951,54.6328 M21.9951,35.6328 L47.9951,35.6328 M34.9951,54.6328 L21.9951,69.6328 M34.9951,54.6328 L47.9951,69.6328" fill="none" style="stroke:#181818;stroke-width:0.5;"/></g><g class="participant participant-tail" data-entity-uid="part1" data-qualified-name="L" id="part1-tail"><text fill="#000000" font-family="sans-serif" font-size="14" lengthAdjust="spacing" textLength="53.9902" x="5" y="770.0107">Learner</text><ellipse cx="34.9951" cy="781.8125" fill="#E2E2F0" rx="8" ry="8" style="stroke:#181818;stroke-width:0.5;"/><path d="M34.9951,789.8125 L34.9951,816.8125 M21.9951,797.8125 L47.9951,797.8125 M34.9951,816.8125 L21.9951,831.8125 M34.9951,816.8125 L47.9951,831.8125" fill="none" style="stroke:#181818;stroke-width:0.5;"/></g><g class="participant participant-head" data-entity-uid="part2" data-qualified-name="WA" id="part2-head"><text fill="#000000" font-family="sans-serif" font-size="14" lengthAdjust="spacing" textLength="58.6934" x="240.6948" y="84.1279">WebApp</text><path d="M252.5415,43.1328 L252.5415,67.1328 M252.5415,55.1328 L269.5415,55.1328" fill="none" style="stroke:#181818;stroke-width:0.5;"/><ellipse cx="281.5415" cy="55.1328" fill="#E2E2F0" rx="12" ry="12" style="stroke:#181818;stroke-width:0.5;"/></g><g class="participant participant-tail" data-entity-uid="part2" data-qualified-name="WA" id="part2-tail"><text fill="#000000" font-family="sans-serif" font-size="14" lengthAdjust="spacing" textLength="58.6934" x="240.6948" y="770.0107">WebApp</text><path d="M252.5415,777.3125 L252.5415,801.3125 M252.5415,789.3125 L269.5415,789.3125" fill="none" style="stroke:#181818;stroke-width:0.5;"/><ellipse cx="281.5415" cy="789.3125" fill="#E2E2F0" rx="12" ry="12" style="stroke:#181818;stroke-width:0.5;"/></g><g class="participant participant-head" data-entity-uid="part3" data-qualified-name="GW" id="part3-head"><text fill="#000000" font-family="sans-serif" font-size="14" lengthAdjust="spacing" textLength="88.4434" x="486.2373" y="84.1279">API Gateway</text><ellipse cx="533.459" cy="55.1328" fill="#E2E2F0" rx="12" ry="12" style="stroke:#181818;stroke-width:0.5;"/><polygon fill="#181818" points="529.459,43.1328,535.459,38.1328,533.459,43.1328,535.459,48.1328,529.459,43.1328" style="stroke:#181818;stroke-width:1;"/></g><g class="participant participant-tail" data-entity-uid="part3" data-qualified-name="GW" id="part3-tail"><text fill="#000000" font-family="sans-serif" font-size="14" lengthAdjust="spacing" textLength="88.4434" x="486.2373" y="770.0107">API Gateway</text><ellipse cx="533.459" cy="789.3125" fill="#E2E2F0" rx="12" ry="12" style="stroke:#181818;stroke-width:0.5;"/><polygon fill="#181818" points="529.459,777.3125,535.459,772.3125,533.459,777.3125,535.459,782.3125,529.459,777.3125" style="stroke:#181818;stroke-width:1;"/></g><g class="participant participant-head" data-entity-uid="part4" data-qualified-name="CC" id="part4-head"><text fill="#000000" font-family="sans-serif" font-size="14" lengthAdjust="spacing" textLength="118.0498" x="620.2852" y="84.1279">CourseController</text><ellipse cx="682.3101" cy="55.1328" fill="#E2E2F0" rx="12" ry="12" style="stroke:#181818;stroke-width:0.5;"/><polygon fill="#181818" points="678.3101,43.1328,684.3101,38.1328,682.3101,43.1328,684.3101,48.1328,678.3101,43.1328" style="stroke:#181818;stroke-width:1;"/></g><g class="participant participant-tail" data-entity-uid="part4" data-qualified-name="CC" id="part4-tail"><text fill="#000000" font-family="sans-serif" font-size="14" lengthAdjust="spacing" textLength="118.0498" x="620.2852" y="770.0107">CourseController</text><ellipse cx="682.3101" cy="789.3125" fill="#E2E2F0" rx="12" ry="12" style="stroke:#181818;stroke-width:0.5;"/><polygon fill="#181818" points="678.3101,777.3125,684.3101,772.3125,682.3101,777.3125,684.3101,782.3125,678.3101,777.3125" style="stroke:#181818;stroke-width:1;"/></g><g class="participant participant-head" data-entity-uid="part5" data-qualified-name="CA" id="part5-head"><text fill="#000000" font-family="sans-serif" font-size="14" lengthAdjust="spacing" textLength="76.2275" x="968.3511" y="84.1279">CourseApp</text><ellipse cx="1009.4648" cy="55.1328" fill="#E2E2F0" rx="12" ry="12" style="stroke:#181818;stroke-width:0.5;"/><polygon fill="#181818" points="1005.4648,43.1328,1011.4648,38.1328,1009.4648,43.1328,1011.4648,48.1328,1005.4648,43.1328" style="stroke:#181818;stroke-width:1;"/></g><g class="participant participant-tail" data-entity-uid="part5" data-qualified-name="CA" id="part5-tail"><text fill="#000000" font-family="sans-serif" font-size="14" lengthAdjust="spacing" textLength="76.2275" x="968.3511" y="770.0107">CourseApp</text><ellipse cx="1009.4648" cy="789.3125" fill="#E2E2F0" rx="12" ry="12" style="stroke:#181818;stroke-width:0.5;"/><polygon fill="#181818" points="1005.4648,777.3125,1011.4648,772.3125,1009.4648,777.3125,1011.4648,782.3125,1005.4648,777.3125" style="stroke:#181818;stroke-width:1;"/></g><g class="participant participant-head" data-entity-uid="part6" data-qualified-name="CDB" id="part6-head"><text fill="#000000" font-family="sans-serif" font-size="14" lengthAdjust="spacing" textLength="69.2617" x="1212.1719" y="84.1279">CourseDB</text><path d="M1231.8027,35.1328 C1231.8027,25.1328 1249.8027,25.1328 1249.8027,25.1328 C1249.8027,25.1328 1267.8027,25.1328 1267.8027,35.1328 L1267.8027,61.1328 C1267.8027,71.1328 1249.8027,71.1328 1249.8027,71.1328 C1249.8027,71.1328 1231.8027,71.1328 1231.8027,61.1328 L1231.8027,35.1328" fill="#E2E2F0" style="stroke:#181818;stroke-width:0.5;"/><path d="M1231.8027,35.1328 C1231.8027,45.1328 1249.8027,45.1328 1249.8027,45.1328 C1249.8027,45.1328 1267.8027,45.1328 1267.8027,35.1328" fill="none" style="stroke:#181818;stroke-width:0.5;"/></g><g class="participant participant-tail" data-entity-uid="part6" data-qualified-name="CDB" id="part6-tail"><text fill="#000000" font-family="sans-serif" font-size="14" lengthAdjust="spacing" textLength="69.2617" x="1212.1719" y="770.0107">CourseDB</text><path d="M1231.8027,783.3125 C1231.8027,773.3125 1249.8027,773.3125 1249.8027,773.3125 C1249.8027,773.3125 1267.8027,773.3125 1267.8027,783.3125 L1267.8027,809.3125 C1267.8027,819.3125 1249.8027,819.3125 1249.8027,819.3125 C1249.8027,819.3125 1231.8027,819.3125 1231.8027,809.3125 L1231.8027,783.3125" fill="#E2E2F0" style="stroke:#181818;stroke-width:0.5;"/><path d="M1231.8027,783.3125 C1231.8027,793.3125 1249.8027,793.3125 1249.8027,793.3125 C1249.8027,793.3125 1267.8027,793.3125 1267.8027,783.3125" fill="none" style="stroke:#181818;stroke-width:0.5;"/></g><g><title>Learner</title><rect fill="#FFFFFF" height="621.4531" style="stroke:#181818;stroke-width:1;" width="10" x="29.9951" y="118.5625"/></g><g><title>WebApp</title><rect fill="#FFFFFF" height="621.4531" style="stroke:#181818;stroke-width:1;" width="10" x="268.0415" y="118.5625"/></g><g><title>API Gateway</title><rect fill="#FFFFFF" height="532.9219" style="stroke:#181818;stroke-width:1;" width="10" x="528.459" y="162.8281"/></g><g><title>CourseController</title><rect fill="#FFFFFF" height="439.5234" style="stroke:#181818;stroke-width:1;" width="10" x="677.3101" y="227.0938"/></g><g><title>CourseApp</title><rect fill="#FFFFFF" height="381.2578" style="stroke:#181818;stroke-width:1;" width="10" x="1004.4648" y="256.2266"/></g><g><title>CourseDB</title><rect fill="#FFFFFF" height="222.5938" style="stroke:#181818;stroke-width:1;" width="10" x="1244.8027" y="285.3594"/></g><g><title>CourseDB</title><rect fill="#FFFFFF" height="29.1328" style="stroke:#181818;stroke-width:1;" width="10" x="1244.8027" y="537.0859"/></g><g class="message" data-entity-1="part1" data-entity-2="part2" id="msg1"><polygon fill="#181818" points="256.0415,114.5625,266.0415,118.5625,256.0415,122.5625,260.0415,118.5625" style="stroke:#181818;stroke-width:1;"/><line style="stroke:#181818;stroke-width:1;" x1="39.9951" x2="262.0415" y1="118.5625" y2="118.5625"/><text fill="#000000" font-family="sans-serif" font-size="13" font-weight="bold" lengthAdjust="spacing" textLength="9.0454" x="46.9951" y="113.4966">1</text><text fill="#000000" font-family="sans-serif" font-size="13" lengthAdjust="spacing" textLength="179.0674" x="60.0405" y="113.4966">Navigate to Course Catalog</text></g><g class="message" data-entity-1="part2" data-entity-2="part3" id="msg2"><polygon fill="#181818" points="516.459,158.8281,526.459,162.8281,516.459,166.8281,520.459,162.8281" style="stroke:#181818;stroke-width:1;"/><line style="stroke:#181818;stroke-width:1;" x1="278.0415" x2="522.459" y1="162.8281" y2="162.8281"/><text fill="#000000" font-family="sans-serif" font-size="13" font-weight="bold" lengthAdjust="spacing" textLength="9.0454" x="285.0415" y="150.1958">2</text><text fill="#000000" font-family="sans-serif" font-size="13" lengthAdjust="spacing" textLength="152.5786" x="298.0869" y="142.6294">GET /courses/published</text><text fill="#000000" font-family="sans-serif" font-size="13" lengthAdjust="spacing" textLength="218.3721" x="298.0869" y="157.7622">?page=1&amp;limit=12&amp;category=all</text></g><path d="M403,175.8281 L403,200.8281 L662,200.8281 L662,185.8281 L652,175.8281 L403,175.8281" fill="#FEFFDD" style="stroke:#181818;stroke-width:0.5;"/><path d="M652,175.8281 L652,185.8281 L662,185.8281 L652,175.8281" fill="#FEFFDD" style="stroke:#181818;stroke-width:0.5;"/><text fill="#000000" font-family="sans-serif" font-size="13" lengthAdjust="spacing" textLength="238.9702" x="409" y="192.895">No auth required for public browsing</text><g class="message" data-entity-1="part3" data-entity-2="part4" id="msg3"><polygon fill="#181818" points="665.3101,223.0938,675.3101,227.0938,665.3101,231.0938,669.3101,227.0938" style="stroke:#181818;stroke-width:1;"/><line style="stroke:#181818;stroke-width:1;" x1="538.459" x2="671.3101" y1="227.0938" y2="227.0938"/><text fill="#000000" font-family="sans-serif" font-size="13" font-weight="bold" lengthAdjust="spacing" textLength="9.0454" x="545.459" y="222.0278">3</text><text fill="#000000" font-family="sans-serif" font-size="13" lengthAdjust="spacing" textLength="106.8057" x="558.5044" y="222.0278">Forward request</text></g><g class="message" data-entity-1="part4" data-entity-2="part5" id="msg4"><polygon fill="#181818" points="992.4648,252.2266,1002.4648,256.2266,992.4648,260.2266,996.4648,256.2266" style="stroke:#181818;stroke-width:1;"/><line style="stroke:#181818;stroke-width:1;" x1="687.3101" x2="998.4648" y1="256.2266" y2="256.2266"/><text fill="#000000" font-family="sans-serif" font-size="13" font-weight="bold" lengthAdjust="spacing" textLength="9.0454" x="694.3101" y="251.1606">4</text><text fill="#000000" font-family="sans-serif" font-size="13" lengthAdjust="spacing" textLength="185.3008" x="707.3555" y="251.1606">GetPublishedCourses(filters)</text></g><g class="message" data-entity-1="part5" data-entity-2="part6" id="msg5"><polygon fill="#181818" points="1232.8027,281.3594,1242.8027,285.3594,1232.8027,289.3594,1236.8027,285.3594" style="stroke:#181818;stroke-width:1;"/><line style="stroke:#181818;stroke-width:1;" x1="1014.4648" x2="1238.8027" y1="285.3594" y2="285.3594"/><text fill="#000000" font-family="sans-serif" font-size="13" font-weight="bold" lengthAdjust="spacing" textLength="9.0454" x="1021.4648" y="280.2935">5</text><text fill="#000000" font-family="sans-serif" font-size="13" lengthAdjust="spacing" textLength="161.2305" x="1034.5103" y="280.2935">Query published courses</text></g><g class="message" data-entity-1="part6" data-entity-2="part6" id="msg6"><line style="stroke:#181818;stroke-width:1;" x1="1254.8027" x2="1296.8027" y1="465.8203" y2="465.8203"/><line style="stroke:#181818;stroke-width:1;" x1="1296.8027" x2="1296.8027" y1="465.8203" y2="478.8203"/><line style="stroke:#181818;stroke-width:1;" x1="1255.8027" x2="1296.8027" y1="478.8203" y2="478.8203"/><polygon fill="#181818" points="1265.8027,474.8203,1255.8027,478.8203,1265.8027,482.8203,1261.8027,478.8203" style="stroke:#181818;stroke-width:1;"/><text fill="#000000" font-family="sans-serif" font-size="13" font-weight="bold" lengthAdjust="spacing" textLength="9.0454" x="1261.8027" y="385.0903">6</text><text fill="#000000" font-family="sans-serif" font-size="13" lengthAdjust="spacing" textLength="74.9849" x="1274.8481" y="309.4263">SELECT c.*,</text><text fill="#000000" font-family="sans-serif" font-size="13" lengthAdjust="spacing" textLength="184.4565" x="1283.1128" y="324.5591">AVG(r.rating) AS avg_rating,</text><text fill="#000000" font-family="sans-serif" font-size="13" lengthAdjust="spacing" textLength="284.7178" x="1283.1128" y="339.6919">COUNT(DISTINCT e.id) AS enrollment_count</text><text fill="#000000" font-family="sans-serif" font-size="13" lengthAdjust="spacing" textLength="103.6001" x="1274.8481" y="354.8247">FROM courses c</text><text fill="#000000" font-family="sans-serif" font-size="13" lengthAdjust="spacing" textLength="268.1123" x="1274.8481" y="369.9575">LEFT JOIN reviews r ON c.id = r.course_id</text><text fill="#000000" font-family="sans-serif" font-size="13" lengthAdjust="spacing" textLength="300.8979" x="1274.8481" y="385.0903">LEFT JOIN enrollments e ON c.id = e.course_id</text><text fill="#000000" font-family="sans-serif" font-size="13" lengthAdjust="spacing" textLength="192.9814" x="1274.8481" y="400.2231">WHERE c.status = 'published'</text><text fill="#000000" font-family="sans-serif" font-size="13" lengthAdjust="spacing" textLength="166.8862" x="1283.1128" y="415.356">AND c.deleted_at IS NULL</text><text fill="#000000" font-family="sans-serif" font-size="13" lengthAdjust="spacing" textLength="94.9609" x="1274.8481" y="430.4888">GROUP BY c.id</text><text fill="#000000" font-family="sans-serif" font-size="13" lengthAdjust="spacing" textLength="191.9785" x="1274.8481" y="445.6216">ORDER BY c.created_at DESC</text><text fill="#000000" font-family="sans-serif" font-size="13" lengthAdjust="spacing" textLength="109.8589" x="1274.8481" y="460.7544">LIMIT ? OFFSET ?</text></g><g class="message" data-entity-1="part6" data-entity-2="part5" id="msg7"><polygon fill="#181818" points="1025.4648,503.9531,1015.4648,507.9531,1025.4648,511.9531,1021.4648,507.9531" style="stroke:#181818;stroke-width:1;"/><line style="stroke:#181818;stroke-width:1;stroke-dasharray:2,2;" x1="1019.4648" x2="1248.8027" y1="507.9531" y2="507.9531"/><text fill="#000000" font-family="sans-serif" font-size="13" font-weight="bold" lengthAdjust="spacing" textLength="9.0454" x="1031.4648" y="502.8872">7</text><text fill="#000000" font-family="sans-serif" font-size="13" lengthAdjust="spacing" textLength="119.7104" x="1044.5103" y="502.8872">Courses with stats</text></g><g class="message" data-entity-1="part5" data-entity-2="part6" id="msg8"><polygon fill="#181818" points="1232.8027,533.0859,1242.8027,537.0859,1232.8027,541.0859,1236.8027,537.0859" style="stroke:#181818;stroke-width:1;"/><line style="stroke:#181818;stroke-width:1;" x1="1014.4648" x2="1238.8027" y1="537.0859" y2="537.0859"/><text fill="#000000" font-family="sans-serif" font-size="13" font-weight="bold" lengthAdjust="spacing" textLength="9.0454" x="1021.4648" y="532.02">8</text><text fill="#000000" font-family="sans-serif" font-size="13" lengthAdjust="spacing" textLength="97.8364" x="1034.5103" y="532.02">Get total count</text></g><g class="message" data-entity-1="part6" data-entity-2="part5" id="msg9"><polygon fill="#181818" points="1025.4648,562.2188,1015.4648,566.2188,1025.4648,570.2188,1021.4648,566.2188" style="stroke:#181818;stroke-width:1;"/><line style="stroke:#181818;stroke-width:1;stroke-dasharray:2,2;" x1="1019.4648" x2="1248.8027" y1="566.2188" y2="566.2188"/><text fill="#000000" font-family="sans-serif" font-size="13" font-weight="bold" lengthAdjust="spacing" textLength="9.0454" x="1031.4648" y="561.1528">9</text><text fill="#000000" font-family="sans-serif" font-size="13" lengthAdjust="spacing" textLength="73.3789" x="1044.5103" y="561.1528">Total count</text></g><g class="message" data-entity-1="part5" data-entity-2="part5" id="msg10"><line style="stroke:#181818;stroke-width:1;" x1="1014.4648" x2="1056.4648" y1="595.3516" y2="595.3516"/><line style="stroke:#181818;stroke-width:1;" x1="1056.4648" x2="1056.4648" y1="595.3516" y2="608.3516"/><line style="stroke:#181818;stroke-width:1;" x1="1015.4648" x2="1056.4648" y1="608.3516" y2="608.3516"/><polygon fill="#181818" points="1025.4648,604.3516,1015.4648,608.3516,1025.4648,612.3516,1021.4648,608.3516" style="stroke:#181818;stroke-width:1;"/><text fill="#000000" font-family="sans-serif" font-size="13" font-weight="bold" lengthAdjust="spacing" textLength="18.0908" x="1021.4648" y="590.2856">10</text><text fill="#000000" font-family="sans-serif" font-size="13" lengthAdjust="spacing" textLength="184.2471" x="1043.5557" y="590.2856">Map to PublicCourseDTO list</text></g><g class="message" data-entity-1="part5" data-entity-2="part4" id="msg11"><polygon fill="#181818" points="698.3101,633.4844,688.3101,637.4844,698.3101,641.4844,694.3101,637.4844" style="stroke:#181818;stroke-width:1;"/><line style="stroke:#181818;stroke-width:1;stroke-dasharray:2,2;" x1="692.3101" x2="1008.4648" y1="637.4844" y2="637.4844"/><text fill="#000000" font-family="sans-serif" font-size="13" font-weight="bold" lengthAdjust="spacing" textLength="18.0908" x="704.3101" y="632.4185">11</text><text fill="#000000" font-family="sans-serif" font-size="13" lengthAdjust="spacing" textLength="271.064" x="726.4009" y="632.4185">{courses[], totalCount, page, totalPages}</text></g><g class="message" data-entity-1="part4" data-entity-2="part3" id="msg12"><polygon fill="#181818" points="549.459,662.6172,539.459,666.6172,549.459,670.6172,545.459,666.6172" style="stroke:#181818;stroke-width:1;"/><line style="stroke:#181818;stroke-width:1;stroke-dasharray:2,2;" x1="543.459" x2="681.3101" y1="666.6172" y2="666.6172"/><text fill="#000000" font-family="sans-serif" font-size="13" font-weight="bold" lengthAdjust="spacing" textLength="18.0908" x="555.459" y="661.5513">12</text><text fill="#000000" font-family="sans-serif" font-size="13" lengthAdjust="spacing" textLength="47.7026" x="577.5498" y="661.5513">200 OK</text></g><g class="message" data-entity-1="part3" data-entity-2="part2" id="msg13"><polygon fill="#181818" points="289.0415,691.75,279.0415,695.75,289.0415,699.75,285.0415,695.75" style="stroke:#181818;stroke-width:1;"/><line style="stroke:#181818;stroke-width:1;stroke-dasharray:2,2;" x1="283.0415" x2="532.459" y1="695.75" y2="695.75"/><text fill="#000000" font-family="sans-serif" font-size="13" font-weight="bold" lengthAdjust="spacing" textLength="18.0908" x="295.0415" y="690.6841">13</text><text fill="#000000" font-family="sans-serif" font-size="13" lengthAdjust="spacing" textLength="119.5835" x="317.1323" y="690.6841">Paginated courses</text></g><g class="message" data-entity-1="part2" data-entity-2="part1" id="msg14"><polygon fill="#181818" points="45.9951,736.0156,35.9951,740.0156,45.9951,744.0156,41.9951,740.0156" style="stroke:#181818;stroke-width:1;"/><line style="stroke:#181818;stroke-width:1;" x1="39.9951" x2="272.0415" y1="740.0156" y2="740.0156"/><text fill="#000000" font-family="sans-serif" font-size="13" font-weight="bold" lengthAdjust="spacing" textLength="18.0908" x="51.9951" y="727.3833">14</text><text fill="#000000" font-family="sans-serif" font-size="13" lengthAdjust="spacing" textLength="164.7153" x="74.0859" y="719.8169">Display course cards grid</text><text fill="#000000" font-family="sans-serif" font-size="13" lengthAdjust="spacing" textLength="181.9556" x="74.0859" y="734.9497">with price, rating, instructor</text></g><?plantuml-src TLHjRvim4FxEhpXrKb-cD7tv62shY4DODW9PGXTLonGvu59hn6QsIHfD--yx0qreftr0mjnpZ--UUmvQ6YdApPefnz4_kIYeeXiOoESfJLCkChYvTXoQ6AaWO5G9fe1g29orB4LArHuMREqMXVsuS1ty_0mdxdGCFZLiH_Sdy2xWsPCPv2Lp018fZ9Bv6mZc-Wk7YHGmlU4WibIQmPofBK_O2yq3otEvQn7LC5AVyheuGlu1D1KI5oCfDNHDaRiE3GTLP3Wu5X30vKVifWSXtV8CgmGZ6pGGpCvbPYNXMniAZgzMW8Lha_r53tmlXgkaoj9NHRdEkNvYwLBS5JHZ_PlJd6-uwT_SdYQOcqcrxzCyFvAX8ewG-2Ats9Ob32NGqZo1OhzAhbWAZpYKYZY1jP8xZUDo77zX2o2a1oEfTbIb5PvfSwH6WHn2AXWswJCpVQckRbAVF_BSCAKlMZdO6wbwGwbwyBLaEFj3Lz3qsSAZeFWS4kPUu94Oakxx3Ym5WFlDFrTTHGqMVG7k7EWsMzN7ZesJw3wCpuVZUJmECOzrULh1cB23tZ1XLdYdC4incaMJb_iXMOh06yNmEHg7sFYMivq61L68D_CK-g2wDNJ5qpRqIAk1jU2i3LzyycOUHhIXfjGOFJi8S5Rr50unchAS6PQkg87n7CBx85WAVnRTJs7mKD4kHJGRUhFwc2X66_JGcnEiQJmPnt07qMWqHmVTMTK_N5xMAZRpWHr77zWoj9EoLvgtXuIJHUUYNw6IwirmMhHn2_GVFZJAX1Ps4Igp9Cton16W0ARoKqM7kD_DCBx_wDJN4qlS0UlxviiKN_MVLtUvrhaL1LhtzleQeY-luiIkbetRLS1yBgnk1-Ere7PpwZKCUZ3akiZfli51WWkX8LDs2fM8XSBVImSQvm4NsgZI_kxQZBZOhLFW_0K0?></g></svg>