<?plantuml 1.2026.1?><svg xmlns="http://www.w3.org/2000/svg" xmlns:xlink="http://www.w3.org/1999/xlink" contentStyleType="text/css" data-diagram-type="SEQUENCE" height="999px" preserveAspectRatio="none" style="width:1031px;height:999px;background:#FFFFFF;" version="1.1" viewBox="0 0 1031 999" width="1031px" zoomAndPan="magnify"><defs/><g><rect fill="#ADD8E6" height="987.5234" style="stroke:#181818;stroke-width:0.5;" width="102.4434" x="486.7246" y="6"/><text fill="#000000" font-family="sans-serif" font-size="13" font-weight="bold" lengthAdjust="spacing" textLength="92.6821" x="491.6052" y="18.0669">API Gateway</text><rect fill="#90EE90" height="987.5234" style="stroke:#181818;stroke-width:0.5;" width="300.1177" x="708.2266" y="6"/><text fill="#000000" font-family="sans-serif" font-size="13" font-weight="bold" lengthAdjust="spacing" textLength="130.7427" x="792.9141" y="18.0669">Authentik Service</text><g><title>User</title><rect fill="#FFFFFF" height="769.7969" style="stroke:#181818;stroke-width:1;" width="10" x="43.9551" y="112.4297"/></g><g><title>WebApp</title><rect fill="#FFFFFF" height="769.7969" style="stroke:#181818;stroke-width:1;" width="10" x="323.8896" y="112.4297"/></g><g><title>API Gateway</title><rect fill="#FFFFFF" height="169.7969" style="stroke:#181818;stroke-width:1;" width="10" x="532.9463" y="367.2969"/></g><g><title>AuthController</title><rect fill="#FFFFFF" height="111.5313" style="stroke:#181818;stroke-width:1;" width="10" x="761.2192" y="396.4297"/></g><g><title>UserStore</title><rect fill="#FFFFFF" height="53.2656" style="stroke:#181818;stroke-width:1;" width="10" x="961.7339" y="425.5625"/></g><g><title>UserStore</title><rect fill="#FFFFFF" height="29.1328" style="stroke:#181818;stroke-width:1;" width="10" x="961.7339" y="681.4297"/></g><rect fill="none" height="612.1328" style="stroke:#000000;stroke-width:1.5;" width="1014.3442" x="10" y="285.0938"/><rect fill="none" height="449.6641" style="stroke:#000000;stroke-width:1.5;" width="994.3442" x="20" y="440.5625"/><g class="participant-lifeline" data-entity-uid="part1" data-qualified-name="U" id="part1-lifeline"><g><title>User</title><rect fill="#000000" fill-opacity="0.00000" height="832.9297" width="8" x="44.9551" y="81.2969"/><line style="stroke:#181818;stroke-width:0.5;stroke-dasharray:5,5;" x1="48" x2="48" y1="81.2969" y2="914.2266"/></g></g><g class="participant-lifeline" data-entity-uid="part2" data-qualified-name="WA" id="part2-lifeline"><g><title>WebApp</title><rect fill="#000000" fill-opacity="0.00000" height="832.9297" width="8" x="324.8896" y="81.2969"/><line style="stroke:#181818;stroke-width:0.5;stroke-dasharray:5,5;" x1="328.543" x2="328.543" y1="81.2969" y2="914.2266"/></g></g><g class="participant-lifeline" data-entity-uid="part3" data-qualified-name="GW" id="part3-lifeline"><g><title>API Gateway</title><rect fill="#000000" fill-opacity="0.00000" height="832.9297" width="8" x="533.9463" y="81.2969"/><line style="stroke:#181818;stroke-width:0.5;stroke-dasharray:5,5;" x1="537.7246" x2="537.7246" y1="81.2969" y2="914.2266"/></g></g><g class="participant-lifeline" data-entity-uid="part4" data-qualified-name="AC" id="part4-lifeline"><g><title>AuthController</title><rect fill="#000000" fill-opacity="0.00000" height="832.9297" width="8" x="762.2192" y="81.2969"/><line style="stroke:#181818;stroke-width:0.5;stroke-dasharray:5,5;" x1="765.2266" x2="765.2266" y1="81.2969" y2="914.2266"/></g></g><g class="participant-lifeline" data-entity-uid="part5" data-qualified-name="US" id="part5-lifeline"><g><title>UserStore</title><rect fill="#000000" fill-opacity="0.00000" height="832.9297" width="8" x="962.7339" y="81.2969"/><line style="stroke:#181818;stroke-width:0.5;stroke-dasharray:5,5;" x1="966.1235" x2="966.1235" y1="81.2969" y2="914.2266"/></g></g><g class="participant participant-head" data-entity-uid="part1" data-qualified-name="U" id="part1-head"><text fill="#000000" font-family="sans-serif" font-size="14" lengthAdjust="spacing" textLength="31.9102" x="30" y="77.9951">User</text><ellipse cx="48.9551" cy="13.5" fill="#E2E2F0" rx="8" ry="8" style="stroke:#181818;stroke-width:0.5;"/><path d="M48.9551,21.5 L48.9551,48.5 M35.9551,29.5 L61.9551,29.5 M48.9551,48.5 L35.9551,63.5 M48.9551,48.5 L61.9551,63.5" fill="none" style="stroke:#181818;stroke-width:0.5;"/></g><g class="participant participant-tail" data-entity-uid="part1" data-qualified-name="U" id="part1-tail"><text fill="#000000" font-family="sans-serif" font-size="14" lengthAdjust="spacing" textLength="31.9102" x="30" y="926.2217">User</text><ellipse cx="48.9551" cy="938.0234" fill="#E2E2F0" rx="8" ry="8" style="stroke:#181818;stroke-width:0.5;"/><path d="M48.9551,946.0234 L48.9551,973.0234 M35.9551,954.0234 L61.9551,954.0234 M48.9551,973.0234 L35.9551,988.0234 M48.9551,973.0234 L61.9551,988.0234" fill="none" style="stroke:#181818;stroke-width:0.5;"/></g><g class="participant participant-head" data-entity-uid="part2" data-qualified-name="WA" id="part2-head"><text fill="#000000" font-family="sans-serif" font-size="14" lengthAdjust="spacing" textLength="58.6934" x="296.543" y="77.9951">WebApp</text><path d="M308.3896,37 L308.3896,61 M308.3896,49 L325.3896,49" fill="none" style="stroke:#181818;stroke-width:0.5;"/><ellipse cx="337.3896" cy="49" fill="#E2E2F0" rx="12" ry="12" style="stroke:#181818;stroke-width:0.5;"/></g><g class="participant participant-tail" data-entity-uid="part2" data-qualified-name="WA" id="part2-tail"><text fill="#000000" font-family="sans-serif" font-size="14" lengthAdjust="spacing" textLength="58.6934" x="296.543" y="926.2217">WebApp</text><path d="M308.3896,933.5234 L308.3896,957.5234 M308.3896,945.5234 L325.3896,945.5234" fill="none" style="stroke:#181818;stroke-width:0.5;"/><ellipse cx="337.3896" cy="945.5234" fill="#E2E2F0" rx="12" ry="12" style="stroke:#181818;stroke-width:0.5;"/></g><g class="participant participant-head" data-entity-uid="part3" data-qualified-name="GW" id="part3-head"><text fill="#000000" font-family="sans-serif" font-size="14" lengthAdjust="spacing" textLength="88.4434" x="490.7246" y="77.9951">API Gateway</text><ellipse cx="537.9463" cy="49" fill="#E2E2F0" rx="12" ry="12" style="stroke:#181818;stroke-width:0.5;"/><polygon fill="#181818" points="533.9463,37,539.9463,32,537.9463,37,539.9463,42,533.9463,37" style="stroke:#181818;stroke-width:1;"/></g><g class="participant participant-tail" data-entity-uid="part3" data-qualified-name="GW" id="part3-tail"><text fill="#000000" font-family="sans-serif" font-size="14" lengthAdjust="spacing" textLength="88.4434" x="490.7246" y="926.2217">API Gateway</text><ellipse cx="537.9463" cy="945.5234" fill="#E2E2F0" rx="12" ry="12" style="stroke:#181818;stroke-width:0.5;"/><polygon fill="#181818" points="533.9463,933.5234,539.9463,928.5234,537.9463,933.5234,539.9463,938.5234,533.9463,933.5234" style="stroke:#181818;stroke-width:1;"/></g><g class="participant participant-head" data-entity-uid="part4" data-qualified-name="AC" id="part4-head"><text fill="#000000" font-family="sans-serif" font-size="14" lengthAdjust="spacing" textLength="101.9854" x="712.2266" y="77.9951">AuthController</text><ellipse cx="766.2192" cy="49" fill="#E2E2F0" rx="12" ry="12" style="stroke:#181818;stroke-width:0.5;"/><polygon fill="#181818" points="762.2192,37,768.2192,32,766.2192,37,768.2192,42,762.2192,37" style="stroke:#181818;stroke-width:1;"/></g><g class="participant participant-tail" data-entity-uid="part4" data-qualified-name="AC" id="part4-tail"><text fill="#000000" font-family="sans-serif" font-size="14" lengthAdjust="spacing" textLength="101.9854" x="712.2266" y="926.2217">AuthController</text><ellipse cx="766.2192" cy="945.5234" fill="#E2E2F0" rx="12" ry="12" style="stroke:#181818;stroke-width:0.5;"/><polygon fill="#181818" points="762.2192,933.5234,768.2192,928.5234,766.2192,933.5234,768.2192,938.5234,762.2192,933.5234" style="stroke:#181818;stroke-width:1;"/></g><g class="participant participant-head" data-entity-uid="part5" data-qualified-name="US" id="part5-head"><text fill="#000000" font-family="sans-serif" font-size="14" lengthAdjust="spacing" textLength="69.2207" x="929.1235" y="77.9951">UserStore</text><ellipse cx="966.7339" cy="49" fill="#E2E2F0" rx="12" ry="12" style="stroke:#181818;stroke-width:0.5;"/><line style="stroke:#181818;stroke-width:0.5;" x1="954.7339" x2="978.7339" y1="63" y2="63"/></g><g class="participant participant-tail" data-entity-uid="part5" data-qualified-name="US" id="part5-tail"><text fill="#000000" font-family="sans-serif" font-size="14" lengthAdjust="spacing" textLength="69.2207" x="929.1235" y="926.2217">UserStore</text><ellipse cx="966.7339" cy="945.5234" fill="#E2E2F0" rx="12" ry="12" style="stroke:#181818;stroke-width:0.5;"/><line style="stroke:#181818;stroke-width:0.5;" x1="954.7339" x2="978.7339" y1="959.5234" y2="959.5234"/></g><g><title>User</title><rect fill="#FFFFFF" height="769.7969" style="stroke:#181818;stroke-width:1;" width="10" x="43.9551" y="112.4297"/></g><g><title>WebApp</title><rect fill="#FFFFFF" height="769.7969" style="stroke:#181818;stroke-width:1;" width="10" x="323.8896" y="112.4297"/></g><g><title>API Gateway</title><rect fill="#FFFFFF" height="169.7969" style="stroke:#181818;stroke-width:1;" width="10" x="532.9463" y="367.2969"/></g><g><title>AuthController</title><rect fill="#FFFFFF" height="111.5313" style="stroke:#181818;stroke-width:1;" width="10" x="761.2192" y="396.4297"/></g><g><title>UserStore</title><rect fill="#FFFFFF" height="53.2656" style="stroke:#181818;stroke-width:1;" width="10" x="961.7339" y="425.5625"/></g><g><title>UserStore</title><rect fill="#FFFFFF" height="29.1328" style="stroke:#181818;stroke-width:1;" width="10" x="961.7339" y="681.4297"/></g><g class="message" data-entity-1="part1" data-entity-2="part2" id="msg1"><polygon fill="#181818" points="311.8896,108.4297,321.8896,112.4297,311.8896,116.4297,315.8896,112.4297" style="stroke:#181818;stroke-width:1;"/><line style="stroke:#181818;stroke-width:1;" x1="53.9551" x2="317.8896" y1="112.4297" y2="112.4297"/><text fill="#000000" font-family="sans-serif" font-size="13" font-weight="bold" lengthAdjust="spacing" textLength="9.0454" x="60.9551" y="107.3638">1</text><text fill="#000000" font-family="sans-serif" font-size="13" lengthAdjust="spacing" textLength="160.7544" x="74.0005" y="107.3638">Access registration page</text></g><g class="message" data-entity-1="part2" data-entity-2="part2" id="msg2"><line style="stroke:#181818;stroke-width:1;" x1="333.8896" x2="375.8896" y1="141.5625" y2="141.5625"/><line style="stroke:#181818;stroke-width:1;" x1="375.8896" x2="375.8896" y1="141.5625" y2="154.5625"/><line style="stroke:#181818;stroke-width:1;" x1="334.8896" x2="375.8896" y1="154.5625" y2="154.5625"/><polygon fill="#181818" points="344.8896,150.5625,334.8896,154.5625,344.8896,158.5625,340.8896,154.5625" style="stroke:#181818;stroke-width:1;"/><text fill="#000000" font-family="sans-serif" font-size="13" font-weight="bold" lengthAdjust="spacing" textLength="9.0454" x="340.8896" y="136.4966">2</text><text fill="#000000" font-family="sans-serif" font-size="13" lengthAdjust="spacing" textLength="162.0112" x="353.9351" y="136.4966">Display registration form</text></g><g class="message" data-entity-1="part1" data-entity-2="part2" id="msg3"><polygon fill="#181818" points="311.8896,194.8281,321.8896,198.8281,311.8896,202.8281,315.8896,198.8281" style="stroke:#181818;stroke-width:1;"/><line style="stroke:#181818;stroke-width:1;" x1="53.9551" x2="317.8896" y1="198.8281" y2="198.8281"/><text fill="#000000" font-family="sans-serif" font-size="13" font-weight="bold" lengthAdjust="spacing" textLength="9.0454" x="60.9551" y="186.1958">3</text><text fill="#000000" font-family="sans-serif" font-size="13" lengthAdjust="spacing" textLength="142.8286" x="74.0005" y="178.6294">Enter registration info</text><text fill="#000000" font-family="sans-serif" font-size="13" lengthAdjust="spacing" textLength="161.3384" x="74.0005" y="193.7622">(email, name, password)</text></g><g class="message" data-entity-1="part1" data-entity-2="part2" id="msg4"><polygon fill="#181818" points="311.8896,223.9609,321.8896,227.9609,311.8896,231.9609,315.8896,227.9609" style="stroke:#181818;stroke-width:1;"/><line style="stroke:#181818;stroke-width:1;" x1="53.9551" x2="317.8896" y1="227.9609" y2="227.9609"/><text fill="#000000" font-family="sans-serif" font-size="13" font-weight="bold" lengthAdjust="spacing" textLength="9.0454" x="60.9551" y="222.895">4</text><text fill="#000000" font-family="sans-serif" font-size="13" lengthAdjust="spacing" textLength="97.3223" x="74.0005" y="222.895">Click "Sign Up"</text></g><g class="message" data-entity-1="part2" data-entity-2="part2" id="msg5"><line style="stroke:#181818;stroke-width:1;" x1="333.8896" x2="375.8896" y1="257.0938" y2="257.0938"/><line style="stroke:#181818;stroke-width:1;" x1="375.8896" x2="375.8896" y1="257.0938" y2="270.0938"/><line style="stroke:#181818;stroke-width:1;" x1="334.8896" x2="375.8896" y1="270.0938" y2="270.0938"/><polygon fill="#181818" points="344.8896,266.0938,334.8896,270.0938,344.8896,274.0938,340.8896,270.0938" style="stroke:#181818;stroke-width:1;"/><text fill="#000000" font-family="sans-serif" font-size="13" font-weight="bold" lengthAdjust="spacing" textLength="9.0454" x="340.8896" y="252.0278">5</text><text fill="#000000" font-family="sans-serif" font-size="13" lengthAdjust="spacing" textLength="138.7026" x="353.9351" y="252.0278">Validate input format</text></g><path d="M10,285.0938 L74.4429,285.0938 L74.4429,292.2266 L64.4429,302.2266 L10,302.2266 L10,285.0938" fill="#EEEEEE" style="stroke:#000000;stroke-width:1.5;"/><rect fill="none" height="612.1328" style="stroke:#000000;stroke-width:1.5;" width="1014.3442" x="10" y="285.0938"/><text fill="#000000" font-family="sans-serif" font-size="13" font-weight="bold" lengthAdjust="spacing" textLength="19.4429" x="25" y="298.1606">alt</text><text fill="#000000" font-family="sans-serif" font-size="11" font-weight="bold" lengthAdjust="spacing" textLength="134.1216" x="89.4429" y="297.3042">[Invalid input format]</text><g class="message" data-entity-1="part2" data-entity-2="part1" id="msg6"><polygon fill="#181818" points="64.9551,319.3594,54.9551,323.3594,64.9551,327.3594,60.9551,323.3594" style="stroke:#181818;stroke-width:1;"/><line style="stroke:#181818;stroke-width:1;" x1="58.9551" x2="322.8896" y1="323.3594" y2="323.3594"/><text fill="#000000" font-family="sans-serif" font-size="13" font-weight="bold" lengthAdjust="spacing" textLength="9.0454" x="70.9551" y="318.2935">6</text><text fill="#000000" font-family="sans-serif" font-size="13" lengthAdjust="spacing" textLength="158.9453" x="84.0005" y="318.2935">Display validation errors</text></g><line style="stroke:#000000;stroke-width:1;stroke-dasharray:2,2;" x1="10" x2="1024.3442" y1="332.3594" y2="332.3594"/><text fill="#000000" font-family="sans-serif" font-size="11" font-weight="bold" lengthAdjust="spacing" textLength="87.146" x="15" y="342.5698">[Valid format]</text><g class="message" data-entity-1="part2" data-entity-2="part3" id="msg7"><polygon fill="#181818" points="520.9463,363.2969,530.9463,367.2969,520.9463,371.2969,524.9463,367.2969" style="stroke:#181818;stroke-width:1;"/><line style="stroke:#181818;stroke-width:1;" x1="333.8896" x2="526.9463" y1="367.2969" y2="367.2969"/><text fill="#000000" font-family="sans-serif" font-size="13" font-weight="bold" lengthAdjust="spacing" textLength="9.0454" x="340.8896" y="362.231">7</text><text fill="#000000" font-family="sans-serif" font-size="13" lengthAdjust="spacing" textLength="127.1182" x="353.9351" y="362.231">POST /auth/register</text></g><g class="message" data-entity-1="part3" data-entity-2="part4" id="msg8"><polygon fill="#181818" points="749.2192,392.4297,759.2192,396.4297,749.2192,400.4297,753.2192,396.4297" style="stroke:#181818;stroke-width:1;"/><line style="stroke:#181818;stroke-width:1;" x1="542.9463" x2="755.2192" y1="396.4297" y2="396.4297"/><text fill="#000000" font-family="sans-serif" font-size="13" font-weight="bold" lengthAdjust="spacing" textLength="9.0454" x="549.9463" y="391.3638">8</text><text fill="#000000" font-family="sans-serif" font-size="13" lengthAdjust="spacing" textLength="186.2275" x="562.9917" y="391.3638">Forward registration request</text></g><g class="message" data-entity-1="part4" data-entity-2="part5" id="msg9"><polygon fill="#181818" points="949.7339,421.5625,959.7339,425.5625,949.7339,429.5625,953.7339,425.5625" style="stroke:#181818;stroke-width:1;"/><line style="stroke:#181818;stroke-width:1;" x1="771.2192" x2="955.7339" y1="425.5625" y2="425.5625"/><text fill="#000000" font-family="sans-serif" font-size="13" font-weight="bold" lengthAdjust="spacing" textLength="9.0454" x="778.2192" y="420.4966">9</text><text fill="#000000" font-family="sans-serif" font-size="13" lengthAdjust="spacing" textLength="158.4692" x="791.2646" y="420.4966">Check email uniqueness</text></g><path d="M20,440.5625 L84.4429,440.5625 L84.4429,447.6953 L74.4429,457.6953 L20,457.6953 L20,440.5625" fill="#EEEEEE" style="stroke:#000000;stroke-width:1.5;"/><rect fill="none" height="449.6641" style="stroke:#000000;stroke-width:1.5;" width="994.3442" x="20" y="440.5625"/><text fill="#000000" font-family="sans-serif" font-size="13" font-weight="bold" lengthAdjust="spacing" textLength="19.4429" x="35" y="453.6294">alt</text><text fill="#000000" font-family="sans-serif" font-size="11" font-weight="bold" lengthAdjust="spacing" textLength="134.8789" x="99.4429" y="452.7729">[Email already exists]</text><g class="message" data-entity-1="part5" data-entity-2="part4" id="msg10"><polygon fill="#181818" points="782.2192,474.8281,772.2192,478.8281,782.2192,482.8281,778.2192,478.8281" style="stroke:#181818;stroke-width:1;"/><line style="stroke:#181818;stroke-width:1;stroke-dasharray:2,2;" x1="776.2192" x2="965.7339" y1="478.8281" y2="478.8281"/><text fill="#000000" font-family="sans-serif" font-size="13" font-weight="bold" lengthAdjust="spacing" textLength="18.0908" x="788.2192" y="473.7622">10</text><text fill="#000000" font-family="sans-serif" font-size="13" lengthAdjust="spacing" textLength="78.146" x="810.3101" y="473.7622">Email exists</text></g><g class="message" data-entity-1="part4" data-entity-2="part3" id="msg11"><polygon fill="#181818" points="553.9463,503.9609,543.9463,507.9609,553.9463,511.9609,549.9463,507.9609" style="stroke:#181818;stroke-width:1;"/><line style="stroke:#181818;stroke-width:1;stroke-dasharray:2,2;" x1="547.9463" x2="765.2192" y1="507.9609" y2="507.9609"/><text fill="#000000" font-family="sans-serif" font-size="13" font-weight="bold" lengthAdjust="spacing" textLength="18.0908" x="559.9463" y="502.895">11</text><text fill="#000000" font-family="sans-serif" font-size="13" lengthAdjust="spacing" textLength="78.2603" x="582.0371" y="502.895">409 Conflict</text></g><g class="message" data-entity-1="part3" data-entity-2="part2" id="msg12"><polygon fill="#181818" points="344.8896,533.0938,334.8896,537.0938,344.8896,541.0938,340.8896,537.0938" style="stroke:#181818;stroke-width:1;"/><line style="stroke:#181818;stroke-width:1;stroke-dasharray:2,2;" x1="338.8896" x2="536.9463" y1="537.0938" y2="537.0938"/><text fill="#000000" font-family="sans-serif" font-size="13" font-weight="bold" lengthAdjust="spacing" textLength="18.0908" x="350.8896" y="532.0278">12</text><text fill="#000000" font-family="sans-serif" font-size="13" lengthAdjust="spacing" textLength="95.6655" x="372.9805" y="532.0278">Error response</text></g><g class="message" data-entity-1="part2" data-entity-2="part1" id="msg13"><polygon fill="#181818" points="64.9551,562.2266,54.9551,566.2266,64.9551,570.2266,60.9551,566.2266" style="stroke:#181818;stroke-width:1;"/><line style="stroke:#181818;stroke-width:1;" x1="58.9551" x2="322.8896" y1="566.2266" y2="566.2266"/><text fill="#000000" font-family="sans-serif" font-size="13" font-weight="bold" lengthAdjust="spacing" textLength="18.0908" x="70.9551" y="561.1606">13</text><text fill="#000000" font-family="sans-serif" font-size="13" lengthAdjust="spacing" textLength="223.8438" x="93.0459" y="561.1606">Display "Email already registered"</text></g><line style="stroke:#000000;stroke-width:1;stroke-dasharray:2,2;" x1="20" x2="1014.3442" y1="575.2266" y2="575.2266"/><text fill="#000000" font-family="sans-serif" font-size="11" font-weight="bold" lengthAdjust="spacing" textLength="103.9092" x="25" y="585.437">[Email available]</text><g class="message" data-entity-1="part5" data-entity-2="part4" id="msg14"><polygon fill="#181818" points="777.2192,606.1641,767.2192,610.1641,777.2192,614.1641,773.2192,610.1641" style="stroke:#181818;stroke-width:1;"/><line style="stroke:#181818;stroke-width:1;stroke-dasharray:2,2;" x1="771.2192" x2="965.7339" y1="610.1641" y2="610.1641"/><text fill="#000000" font-family="sans-serif" font-size="13" font-weight="bold" lengthAdjust="spacing" textLength="18.0908" x="783.2192" y="605.0981">14</text><text fill="#000000" font-family="sans-serif" font-size="13" lengthAdjust="spacing" textLength="98.8774" x="805.3101" y="605.0981">Email available</text></g><g class="message" data-entity-1="part4" data-entity-2="part4" id="msg15"><line style="stroke:#181818;stroke-width:1;" x1="766.2192" x2="808.2192" y1="639.2969" y2="639.2969"/><line style="stroke:#181818;stroke-width:1;" x1="808.2192" x2="808.2192" y1="639.2969" y2="652.2969"/><line style="stroke:#181818;stroke-width:1;" x1="767.2192" x2="808.2192" y1="652.2969" y2="652.2969"/><polygon fill="#181818" points="777.2192,648.2969,767.2192,652.2969,777.2192,656.2969,773.2192,652.2969" style="stroke:#181818;stroke-width:1;"/><text fill="#000000" font-family="sans-serif" font-size="13" font-weight="bold" lengthAdjust="spacing" textLength="18.0908" x="773.2192" y="634.231">15</text><text fill="#000000" font-family="sans-serif" font-size="13" lengthAdjust="spacing" textLength="154.8955" x="795.3101" y="634.231">Hash password (bcrypt)</text></g><g class="message" data-entity-1="part4" data-entity-2="part5" id="msg16"><polygon fill="#181818" points="949.7339,677.4297,959.7339,681.4297,949.7339,685.4297,953.7339,681.4297" style="stroke:#181818;stroke-width:1;"/><line style="stroke:#181818;stroke-width:1;" x1="766.2192" x2="955.7339" y1="681.4297" y2="681.4297"/><text fill="#000000" font-family="sans-serif" font-size="13" font-weight="bold" lengthAdjust="spacing" textLength="18.0908" x="773.2192" y="676.3638">16</text><text fill="#000000" font-family="sans-serif" font-size="13" lengthAdjust="spacing" textLength="106.9707" x="795.3101" y="676.3638">Create new user</text></g><g class="message" data-entity-1="part5" data-entity-2="part4" id="msg17"><polygon fill="#181818" points="777.2192,706.5625,767.2192,710.5625,777.2192,714.5625,773.2192,710.5625" style="stroke:#181818;stroke-width:1;"/><line style="stroke:#181818;stroke-width:1;stroke-dasharray:2,2;" x1="771.2192" x2="965.7339" y1="710.5625" y2="710.5625"/><text fill="#000000" font-family="sans-serif" font-size="13" font-weight="bold" lengthAdjust="spacing" textLength="18.0908" x="783.2192" y="705.4966">17</text><text fill="#000000" font-family="sans-serif" font-size="13" lengthAdjust="spacing" textLength="83.5669" x="805.3101" y="705.4966">User created</text></g><g class="message" data-entity-1="part4" data-entity-2="part4" id="msg18"><line style="stroke:#181818;stroke-width:1;" x1="766.2192" x2="808.2192" y1="739.6953" y2="739.6953"/><line style="stroke:#181818;stroke-width:1;" x1="808.2192" x2="808.2192" y1="739.6953" y2="752.6953"/><line style="stroke:#181818;stroke-width:1;" x1="767.2192" x2="808.2192" y1="752.6953" y2="752.6953"/><polygon fill="#181818" points="777.2192,748.6953,767.2192,752.6953,777.2192,756.6953,773.2192,752.6953" style="stroke:#181818;stroke-width:1;"/><text fill="#000000" font-family="sans-serif" font-size="13" font-weight="bold" lengthAdjust="spacing" textLength="18.0908" x="773.2192" y="734.6294">18</text><text fill="#000000" font-family="sans-serif" font-size="13" lengthAdjust="spacing" textLength="137.1982" x="795.3101" y="734.6294">Generate JWT tokens</text></g><g class="message" data-entity-1="part4" data-entity-2="part3" id="msg19"><polygon fill="#181818" points="548.9463,777.8281,538.9463,781.8281,548.9463,785.8281,544.9463,781.8281" style="stroke:#181818;stroke-width:1;"/><line style="stroke:#181818;stroke-width:1;stroke-dasharray:2,2;" x1="542.9463" x2="765.2192" y1="781.8281" y2="781.8281"/><text fill="#000000" font-family="sans-serif" font-size="13" font-weight="bold" lengthAdjust="spacing" textLength="18.0908" x="554.9463" y="776.7622">19</text><text fill="#000000" font-family="sans-serif" font-size="13" lengthAdjust="spacing" textLength="131.7646" x="577.0371" y="776.7622">Success with tokens</text></g><g class="message" data-entity-1="part3" data-entity-2="part2" id="msg20"><polygon fill="#181818" points="344.8896,806.9609,334.8896,810.9609,344.8896,814.9609,340.8896,810.9609" style="stroke:#181818;stroke-width:1;"/><line style="stroke:#181818;stroke-width:1;stroke-dasharray:2,2;" x1="338.8896" x2="536.9463" y1="810.9609" y2="810.9609"/><text fill="#000000" font-family="sans-serif" font-size="13" font-weight="bold" lengthAdjust="spacing" textLength="18.0908" x="350.8896" y="805.895">20</text><text fill="#000000" font-family="sans-serif" font-size="13" lengthAdjust="spacing" textLength="148.3765" x="372.9805" y="805.895">JWT tokens + user info</text></g><g class="message" data-entity-1="part2" data-entity-2="part2" id="msg21"><line style="stroke:#181818;stroke-width:1;" x1="333.8896" x2="375.8896" y1="840.0938" y2="840.0938"/><line style="stroke:#181818;stroke-width:1;" x1="375.8896" x2="375.8896" y1="840.0938" y2="853.0938"/><line style="stroke:#181818;stroke-width:1;" x1="334.8896" x2="375.8896" y1="853.0938" y2="853.0938"/><polygon fill="#181818" points="344.8896,849.0938,334.8896,853.0938,344.8896,857.0938,340.8896,853.0938" style="stroke:#181818;stroke-width:1;"/><text fill="#000000" font-family="sans-serif" font-size="13" font-weight="bold" lengthAdjust="spacing" textLength="18.0908" x="340.8896" y="835.0278">21</text><text fill="#000000" font-family="sans-serif" font-size="13" lengthAdjust="spacing" textLength="82.3672" x="362.9805" y="835.0278">Store tokens</text></g><g class="message" data-entity-1="part2" data-entity-2="part1" id="msg22"><polygon fill="#181818" points="59.9551,878.2266,49.9551,882.2266,59.9551,886.2266,55.9551,882.2266" style="stroke:#181818;stroke-width:1;"/><line style="stroke:#181818;stroke-width:1;" x1="53.9551" x2="327.8896" y1="882.2266" y2="882.2266"/><text fill="#000000" font-family="sans-serif" font-size="13" font-weight="bold" lengthAdjust="spacing" textLength="18.0908" x="65.9551" y="877.1606">22</text><text fill="#000000" font-family="sans-serif" font-size="13" lengthAdjust="spacing" textLength="114.188" x="88.0459" y="877.1606">Redirect to Home</text></g><?plantuml-src XLH1Rjim4Bpp5Glrag0naWAzr2WAAAxhf2XGeuggIo-qkBO9KwHAKhRr-owfs9QK8Bq8adPcEJDBaZVUwAPQeMNCxQIkkUKLt9lZaWiXzGO-t376Isyiv0ujS0SvMvb62svRA72LrdNuMQICVXyXIPUFiE0U3xnDuDqFkTdwUzKW0oYDzjQe4OIuYuAX5a3qKu_6Rr5xkOCCxLwMUEgqi8Ywroe0PzsxwiIbCoe7hc-Zu8oKOrITNHR9OVA554yXBKjq3YnkfFEMUsaqr7o3mR7SaqGoUtubYqLwOdwLhbQy7LBNnbQzxdFjITG08VNQ_D5NM76fRa3p2czeGUSEnehh2tEcPBc399CR3NcTiDx2lxcI8iYXMJK-BiazZKXvUDJxK1nM03fkVj6yxre4FMYjiOwXSjXr7jCMnHIMFxCdkEMKzMrdXZOBm3aN6X_G8w3JsHI-6NlWLWnzM_pReFDz6asAFjDP59UHvosIvvWCD5eINjDi-WmQOVWaf_E8uieY5otWaHOAoDZkysGI-tMONarWlrFuGw83EgZ-UFS9Q2UjANW_HiSz5GC9w938FCH6fbnjjCCnFWRoIkx9KFOfInH9sBDX1C-0FJtvIk7hbeRbbwwwI8Ef1-wsv-q5LwlIjhM_xe5YxgI6o1eFqBWusM7a8mtn5YWZH_nNm89cQ4FbU_44tknGkt7mMTETmOFqspxapVmlxU1zL1qFrfjp26UdkmnwYvn7z0k5j5XwAiA3gLv4IsT_x3NUCo9SAkmV?></g></svg>