<?plantuml 1.2026.1?><svg xmlns="http://www.w3.org/2000/svg" xmlns:xlink="http://www.w3.org/1999/xlink" contentStyleType="text/css" data-diagram-type="SEQUENCE" height="1472px" preserveAspectRatio="none" style="width:1789px;height:1472px;background:#FFFFFF;" version="1.1" viewBox="0 0 1789 1472" width="1789px" zoomAndPan="magnify"><defs/><g><rect fill="#ADD8E6" height="1460.9141" style="stroke:#181818;stroke-width:0.5;" width="102.4434" x="501.6704" y="6"/><text fill="#000000" font-family="sans-serif" font-size="13" font-weight="bold" lengthAdjust="spacing" textLength="92.6821" x="506.551" y="18.0669">API Gateway</text><rect fill="#FFFFE0" height="1460.9141" style="stroke:#181818;stroke-width:0.5;" width="1121.9902" x="644.7637" y="6"/><text fill="#000000" font-family="sans-serif" font-size="13" font-weight="bold" lengthAdjust="spacing" textLength="109.2622" x="1151.1277" y="18.0669">Course Service</text><g><title>Instructor</title><rect fill="#FFFFFF" height="734.3203" style="stroke:#181818;stroke-width:1;" width="10" x="61.9609" y="118.5625"/></g><g><title>WebApp</title><rect fill="#FFFFFF" height="734.3203" style="stroke:#181818;stroke-width:1;" width="10" x="288.1919" y="118.5625"/></g><g><title>API Gateway</title><rect fill="#FFFFFF" height="203.9297" style="stroke:#181818;stroke-width:1;" width="10" x="547.8921" y="147.6953"/></g><g><title>API Gateway</title><rect fill="#FFFFFF" height="312.3281" style="stroke:#181818;stroke-width:1;" width="10" x="547.8921" y="511.4219"/></g><g><title>CourseController</title><rect fill="#FFFFFF" height="145.6641" style="stroke:#181818;stroke-width:1;" width="10" x="705.7886" y="176.8281"/></g><g><title>CourseController</title><rect fill="#FFFFFF" height="211.9297" style="stroke:#181818;stroke-width:1;" width="10" x="705.7886" y="582.6875"/></g><g><title>CourseApp</title><rect fill="#FFFFFF" height="87.3984" style="stroke:#181818;stroke-width:1;" width="10" x="1122.5425" y="205.9609"/></g><g><title>CourseApp</title><rect fill="#FFFFFF" height="656.3984" style="stroke:#181818;stroke-width:1;" width="10" x="1122.5425" y="611.8203"/></g><g><title>Course</title><rect fill="#FFFFFF" height="71.2656" style="stroke:#181818;stroke-width:1;" width="10" x="1364.3911" y="1109.5547"/></g><g><title>CourseDB</title><rect fill="#FFFFFF" height="29.1328" style="stroke:#181818;stroke-width:1;" width="10" x="1720.123" y="235.0938"/></g><g><title>CourseDB</title><rect fill="#FFFFFF" height="29.1328" style="stroke:#181818;stroke-width:1;" width="10" x="1720.123" y="640.9531"/></g><g><title>CourseDB</title><rect fill="#FFFFFF" height="29.1328" style="stroke:#181818;stroke-width:1;" width="10" x="1720.123" y="1209.9531"/></g><rect fill="none" height="643.3984" style="stroke:#000000;stroke-width:1.5;" width="1772.7539" x="10" y="727.2188"/><rect fill="none" height="423.6641" style="stroke:#000000;stroke-width:1.5;" width="1752.7539" x="20" y="939.9531"/><g class="participant-lifeline" data-entity-uid="part1" data-qualified-name="I" id="part1-lifeline"><g><title>Instructor</title><rect fill="#000000" fill-opacity="0.00000" height="1300.1875" width="8" x="62.9609" y="87.4297"/><line style="stroke:#181818;stroke-width:0.5;stroke-dasharray:5,5;" x1="66" x2="66" y1="87.4297" y2="1387.6172"/></g></g><g class="participant-lifeline" data-entity-uid="part2" data-qualified-name="WA" id="part2-lifeline"><g><title>WebApp</title><rect fill="#000000" fill-opacity="0.00000" height="1300.1875" width="8" x="289.1919" y="87.4297"/><line style="stroke:#181818;stroke-width:0.5;stroke-dasharray:5,5;" x1="292.8452" x2="292.8452" y1="87.4297" y2="1387.6172"/></g></g><g class="participant-lifeline" data-entity-uid="part3" data-qualified-name="GW" id="part3-lifeline"><g><title>API Gateway</title><rect fill="#000000" fill-opacity="0.00000" height="1300.1875" width="8" x="548.8921" y="87.4297"/><line style="stroke:#181818;stroke-width:0.5;stroke-dasharray:5,5;" x1="552.6704" x2="552.6704" y1="87.4297" y2="1387.6172"/></g></g><g class="participant-lifeline" data-entity-uid="part4" data-qualified-name="CC" id="part4-lifeline"><g><title>CourseController</title><rect fill="#000000" fill-opacity="0.00000" height="1300.1875" width="8" x="706.7886" y="87.4297"/><line style="stroke:#181818;stroke-width:0.5;stroke-dasharray:5,5;" x1="710.7637" x2="710.7637" y1="87.4297" y2="1387.6172"/></g></g><g class="participant-lifeline" data-entity-uid="part5" data-qualified-name="CA" id="part5-lifeline"><g><title>CourseApp</title><rect fill="#000000" fill-opacity="0.00000" height="1300.1875" width="8" x="1123.5425" y="87.4297"/><line style="stroke:#181818;stroke-width:0.5;stroke-dasharray:5,5;" x1="1127.4287" x2="1127.4287" y1="87.4297" y2="1387.6172"/></g></g><g class="participant-lifeline" data-entity-uid="part6" data-qualified-name="C" id="part6-lifeline"><g><title>Course</title><rect fill="#000000" fill-opacity="0.00000" height="1300.1875" width="8" x="1365.3911" y="87.4297"/><line style="stroke:#181818;stroke-width:0.5;stroke-dasharray:5,5;" x1="1368.9526" x2="1368.9526" y1="87.4297" y2="1387.6172"/></g></g><g class="participant-lifeline" data-entity-uid="part7" data-qualified-name="CDB" id="part7-lifeline"><g><title>CourseDB</title><rect fill="#000000" fill-opacity="0.00000" height="1300.1875" width="8" x="1721.123" y="87.4297"/><line style="stroke:#181818;stroke-width:0.5;stroke-dasharray:5,5;" x1="1724.4922" x2="1724.4922" y1="87.4297" y2="1387.6172"/></g></g><g class="participant participant-head" data-entity-uid="part1" data-qualified-name="I" id="part1-head"><text fill="#000000" font-family="sans-serif" font-size="14" lengthAdjust="spacing" textLength="67.9219" x="30" y="84.1279">Instructor</text><ellipse cx="66.9609" cy="19.6328" fill="#E2E2F0" rx="8" ry="8" style="stroke:#181818;stroke-width:0.5;"/><path d="M66.9609,27.6328 L66.9609,54.6328 M53.9609,35.6328 L79.9609,35.6328 M66.9609,54.6328 L53.9609,69.6328 M66.9609,54.6328 L79.9609,69.6328" fill="none" style="stroke:#181818;stroke-width:0.5;"/></g><g class="participant participant-tail" data-entity-uid="part1" data-qualified-name="I" id="part1-tail"><text fill="#000000" font-family="sans-serif" font-size="14" lengthAdjust="spacing" textLength="67.9219" x="30" y="1399.6123">Instructor</text><ellipse cx="66.9609" cy="1411.4141" fill="#E2E2F0" rx="8" ry="8" style="stroke:#181818;stroke-width:0.5;"/><path d="M66.9609,1419.4141 L66.9609,1446.4141 M53.9609,1427.4141 L79.9609,1427.4141 M66.9609,1446.4141 L53.9609,1461.4141 M66.9609,1446.4141 L79.9609,1461.4141" fill="none" style="stroke:#181818;stroke-width:0.5;"/></g><g class="participant participant-head" data-entity-uid="part2" data-qualified-name="WA" id="part2-head"><text fill="#000000" font-family="sans-serif" font-size="14" lengthAdjust="spacing" textLength="58.6934" x="260.8452" y="84.1279">WebApp</text><path d="M272.6919,43.1328 L272.6919,67.1328 M272.6919,55.1328 L289.6919,55.1328" fill="none" style="stroke:#181818;stroke-width:0.5;"/><ellipse cx="301.6919" cy="55.1328" fill="#E2E2F0" rx="12" ry="12" style="stroke:#181818;stroke-width:0.5;"/></g><g class="participant participant-tail" data-entity-uid="part2" data-qualified-name="WA" id="part2-tail"><text fill="#000000" font-family="sans-serif" font-size="14" lengthAdjust="spacing" textLength="58.6934" x="260.8452" y="1399.6123">WebApp</text><path d="M272.6919,1406.9141 L272.6919,1430.9141 M272.6919,1418.9141 L289.6919,1418.9141" fill="none" style="stroke:#181818;stroke-width:0.5;"/><ellipse cx="301.6919" cy="1418.9141" fill="#E2E2F0" rx="12" ry="12" style="stroke:#181818;stroke-width:0.5;"/></g><g class="participant participant-head" data-entity-uid="part3" data-qualified-name="GW" id="part3-head"><text fill="#000000" font-family="sans-serif" font-size="14" lengthAdjust="spacing" textLength="88.4434" x="505.6704" y="84.1279">API Gateway</text><ellipse cx="552.8921" cy="55.1328" fill="#E2E2F0" rx="12" ry="12" style="stroke:#181818;stroke-width:0.5;"/><polygon fill="#181818" points="548.8921,43.1328,554.8921,38.1328,552.8921,43.1328,554.8921,48.1328,548.8921,43.1328" style="stroke:#181818;stroke-width:1;"/></g><g class="participant participant-tail" data-entity-uid="part3" data-qualified-name="GW" id="part3-tail"><text fill="#000000" font-family="sans-serif" font-size="14" lengthAdjust="spacing" textLength="88.4434" x="505.6704" y="1399.6123">API Gateway</text><ellipse cx="552.8921" cy="1418.9141" fill="#E2E2F0" rx="12" ry="12" style="stroke:#181818;stroke-width:0.5;"/><polygon fill="#181818" points="548.8921,1406.9141,554.8921,1401.9141,552.8921,1406.9141,554.8921,1411.9141,548.8921,1406.9141" style="stroke:#181818;stroke-width:1;"/></g><g class="participant participant-head" data-entity-uid="part4" data-qualified-name="CC" id="part4-head"><text fill="#000000" font-family="sans-serif" font-size="14" lengthAdjust="spacing" textLength="118.0498" x="648.7637" y="84.1279">CourseController</text><ellipse cx="710.7886" cy="55.1328" fill="#E2E2F0" rx="12" ry="12" style="stroke:#181818;stroke-width:0.5;"/><polygon fill="#181818" points="706.7886,43.1328,712.7886,38.1328,710.7886,43.1328,712.7886,48.1328,706.7886,43.1328" style="stroke:#181818;stroke-width:1;"/></g><g class="participant participant-tail" data-entity-uid="part4" data-qualified-name="CC" id="part4-tail"><text fill="#000000" font-family="sans-serif" font-size="14" lengthAdjust="spacing" textLength="118.0498" x="648.7637" y="1399.6123">CourseController</text><ellipse cx="710.7886" cy="1418.9141" fill="#E2E2F0" rx="12" ry="12" style="stroke:#181818;stroke-width:0.5;"/><polygon fill="#181818" points="706.7886,1406.9141,712.7886,1401.9141,710.7886,1406.9141,712.7886,1411.9141,706.7886,1406.9141" style="stroke:#181818;stroke-width:1;"/></g><g class="participant participant-head" data-entity-uid="part5" data-qualified-name="CA" id="part5-head"><text fill="#000000" font-family="sans-serif" font-size="14" lengthAdjust="spacing" textLength="76.2275" x="1086.4287" y="84.1279">CourseApp</text><ellipse cx="1127.5425" cy="55.1328" fill="#E2E2F0" rx="12" ry="12" style="stroke:#181818;stroke-width:0.5;"/><polygon fill="#181818" points="1123.5425,43.1328,1129.5425,38.1328,1127.5425,43.1328,1129.5425,48.1328,1123.5425,43.1328" style="stroke:#181818;stroke-width:1;"/></g><g class="participant participant-tail" data-entity-uid="part5" data-qualified-name="CA" id="part5-tail"><text fill="#000000" font-family="sans-serif" font-size="14" lengthAdjust="spacing" textLength="76.2275" x="1086.4287" y="1399.6123">CourseApp</text><ellipse cx="1127.5425" cy="1418.9141" fill="#E2E2F0" rx="12" ry="12" style="stroke:#181818;stroke-width:0.5;"/><polygon fill="#181818" points="1123.5425,1406.9141,1129.5425,1401.9141,1127.5425,1406.9141,1129.5425,1411.9141,1123.5425,1406.9141" style="stroke:#181818;stroke-width:1;"/></g><g class="participant participant-head" data-entity-uid="part6" data-qualified-name="C" id="part6-head"><text fill="#000000" font-family="sans-serif" font-size="14" lengthAdjust="spacing" textLength="48.877" x="1341.9526" y="84.1279">Course</text><ellipse cx="1369.3911" cy="55.1328" fill="#E2E2F0" rx="12" ry="12" style="stroke:#181818;stroke-width:0.5;"/><line style="stroke:#181818;stroke-width:0.5;" x1="1357.3911" x2="1381.3911" y1="69.1328" y2="69.1328"/></g><g class="participant participant-tail" data-entity-uid="part6" data-qualified-name="C" id="part6-tail"><text fill="#000000" font-family="sans-serif" font-size="14" lengthAdjust="spacing" textLength="48.877" x="1341.9526" y="1399.6123">Course</text><ellipse cx="1369.3911" cy="1418.9141" fill="#E2E2F0" rx="12" ry="12" style="stroke:#181818;stroke-width:0.5;"/><line style="stroke:#181818;stroke-width:0.5;" x1="1357.3911" x2="1381.3911" y1="1432.9141" y2="1432.9141"/></g><g class="participant participant-head" data-entity-uid="part7" data-qualified-name="CDB" id="part7-head"><text fill="#000000" font-family="sans-serif" font-size="14" lengthAdjust="spacing" textLength="69.2617" x="1687.4922" y="84.1279">CourseDB</text><path d="M1707.123,35.1328 C1707.123,25.1328 1725.123,25.1328 1725.123,25.1328 C1725.123,25.1328 1743.123,25.1328 1743.123,35.1328 L1743.123,61.1328 C1743.123,71.1328 1725.123,71.1328 1725.123,71.1328 C1725.123,71.1328 1707.123,71.1328 1707.123,61.1328 L1707.123,35.1328" fill="#E2E2F0" style="stroke:#181818;stroke-width:0.5;"/><path d="M1707.123,35.1328 C1707.123,45.1328 1725.123,45.1328 1725.123,45.1328 C1725.123,45.1328 1743.123,45.1328 1743.123,35.1328" fill="none" style="stroke:#181818;stroke-width:0.5;"/></g><g class="participant participant-tail" data-entity-uid="part7" data-qualified-name="CDB" id="part7-tail"><text fill="#000000" font-family="sans-serif" font-size="14" lengthAdjust="spacing" textLength="69.2617" x="1687.4922" y="1399.6123">CourseDB</text><path d="M1707.123,1412.9141 C1707.123,1402.9141 1725.123,1402.9141 1725.123,1402.9141 C1725.123,1402.9141 1743.123,1402.9141 1743.123,1412.9141 L1743.123,1438.9141 C1743.123,1448.9141 1725.123,1448.9141 1725.123,1448.9141 C1725.123,1448.9141 1707.123,1448.9141 1707.123,1438.9141 L1707.123,1412.9141" fill="#E2E2F0" style="stroke:#181818;stroke-width:0.5;"/><path d="M1707.123,1412.9141 C1707.123,1422.9141 1725.123,1422.9141 1725.123,1422.9141 C1725.123,1422.9141 1743.123,1422.9141 1743.123,1412.9141" fill="none" style="stroke:#181818;stroke-width:0.5;"/></g><g><title>Instructor</title><rect fill="#FFFFFF" height="734.3203" style="stroke:#181818;stroke-width:1;" width="10" x="61.9609" y="118.5625"/></g><g><title>WebApp</title><rect fill="#FFFFFF" height="734.3203" style="stroke:#181818;stroke-width:1;" width="10" x="288.1919" y="118.5625"/></g><g><title>API Gateway</title><rect fill="#FFFFFF" height="203.9297" style="stroke:#181818;stroke-width:1;" width="10" x="547.8921" y="147.6953"/></g><g><title>API Gateway</title><rect fill="#FFFFFF" height="312.3281" style="stroke:#181818;stroke-width:1;" width="10" x="547.8921" y="511.4219"/></g><g><title>CourseController</title><rect fill="#FFFFFF" height="145.6641" style="stroke:#181818;stroke-width:1;" width="10" x="705.7886" y="176.8281"/></g><g><title>CourseController</title><rect fill="#FFFFFF" height="211.9297" style="stroke:#181818;stroke-width:1;" width="10" x="705.7886" y="582.6875"/></g><g><title>CourseApp</title><rect fill="#FFFFFF" height="87.3984" style="stroke:#181818;stroke-width:1;" width="10" x="1122.5425" y="205.9609"/></g><g><title>CourseApp</title><rect fill="#FFFFFF" height="656.3984" style="stroke:#181818;stroke-width:1;" width="10" x="1122.5425" y="611.8203"/></g><g><title>Course</title><rect fill="#FFFFFF" height="71.2656" style="stroke:#181818;stroke-width:1;" width="10" x="1364.3911" y="1109.5547"/></g><g><title>CourseDB</title><rect fill="#FFFFFF" height="29.1328" style="stroke:#181818;stroke-width:1;" width="10" x="1720.123" y="235.0938"/></g><g><title>CourseDB</title><rect fill="#FFFFFF" height="29.1328" style="stroke:#181818;stroke-width:1;" width="10" x="1720.123" y="640.9531"/></g><g><title>CourseDB</title><rect fill="#FFFFFF" height="29.1328" style="stroke:#181818;stroke-width:1;" width="10" x="1720.123" y="1209.9531"/></g><g class="message" data-entity-1="part1" data-entity-2="part2" id="msg1"><polygon fill="#181818" points="276.1919,114.5625,286.1919,118.5625,276.1919,122.5625,280.1919,118.5625" style="stroke:#181818;stroke-width:1;"/><line style="stroke:#181818;stroke-width:1;" x1="71.9609" x2="282.1919" y1="118.5625" y2="118.5625"/><text fill="#000000" font-family="sans-serif" font-size="13" font-weight="bold" lengthAdjust="spacing" textLength="9.0454" x="78.9609" y="113.4966">1</text><text fill="#000000" font-family="sans-serif" font-size="13" lengthAdjust="spacing" textLength="182.4634" x="92.0063" y="113.4966">Navigate to Course Settings</text></g><g class="message" data-entity-1="part2" data-entity-2="part3" id="msg2"><polygon fill="#181818" points="535.8921,143.6953,545.8921,147.6953,535.8921,151.6953,539.8921,147.6953" style="stroke:#181818;stroke-width:1;"/><line style="stroke:#181818;stroke-width:1;" x1="298.1919" x2="541.8921" y1="147.6953" y2="147.6953"/><text fill="#000000" font-family="sans-serif" font-size="13" font-weight="bold" lengthAdjust="spacing" textLength="9.0454" x="305.1919" y="142.6294">2</text><text fill="#000000" font-family="sans-serif" font-size="13" lengthAdjust="spacing" textLength="217.6548" x="318.2373" y="142.6294">GET /courses/{courseId}/settings</text></g><g class="message" data-entity-1="part3" data-entity-2="part4" id="msg3"><polygon fill="#181818" points="693.7886,172.8281,703.7886,176.8281,693.7886,180.8281,697.7886,176.8281" style="stroke:#181818;stroke-width:1;"/><line style="stroke:#181818;stroke-width:1;" x1="557.8921" x2="699.7886" y1="176.8281" y2="176.8281"/><text fill="#000000" font-family="sans-serif" font-size="13" font-weight="bold" lengthAdjust="spacing" textLength="9.0454" x="564.8921" y="171.7622">3</text><text fill="#000000" font-family="sans-serif" font-size="13" lengthAdjust="spacing" textLength="106.8057" x="577.9375" y="171.7622">Forward request</text></g><g class="message" data-entity-1="part4" data-entity-2="part5" id="msg4"><polygon fill="#181818" points="1110.5425,201.9609,1120.5425,205.9609,1110.5425,209.9609,1114.5425,205.9609" style="stroke:#181818;stroke-width:1;"/><line style="stroke:#181818;stroke-width:1;" x1="715.7886" x2="1116.5425" y1="205.9609" y2="205.9609"/><text fill="#000000" font-family="sans-serif" font-size="13" font-weight="bold" lengthAdjust="spacing" textLength="9.0454" x="722.7886" y="200.895">4</text><text fill="#000000" font-family="sans-serif" font-size="13" lengthAdjust="spacing" textLength="278.2178" x="735.834" y="200.895">GetCourseBasicInfo(courseId, instructorID)</text></g><g class="message" data-entity-1="part5" data-entity-2="part7" id="msg5"><polygon fill="#181818" points="1708.123,231.0938,1718.123,235.0938,1708.123,239.0938,1712.123,235.0938" style="stroke:#181818;stroke-width:1;"/><line style="stroke:#181818;stroke-width:1;" x1="1132.5425" x2="1714.123" y1="235.0938" y2="235.0938"/><text fill="#000000" font-family="sans-serif" font-size="13" font-weight="bold" lengthAdjust="spacing" textLength="9.0454" x="1139.5425" y="230.0278">5</text><text fill="#000000" font-family="sans-serif" font-size="13" lengthAdjust="spacing" textLength="137.1538" x="1152.5879" y="230.0278">Get course basic info</text></g><g class="message" data-entity-1="part7" data-entity-2="part5" id="msg6"><polygon fill="#181818" points="1143.5425,260.2266,1133.5425,264.2266,1143.5425,268.2266,1139.5425,264.2266" style="stroke:#181818;stroke-width:1;"/><line style="stroke:#181818;stroke-width:1;stroke-dasharray:2,2;" x1="1137.5425" x2="1724.123" y1="264.2266" y2="264.2266"/><text fill="#000000" font-family="sans-serif" font-size="13" font-weight="bold" lengthAdjust="spacing" textLength="9.0454" x="1149.5425" y="259.1606">6</text><text fill="#000000" font-family="sans-serif" font-size="13" lengthAdjust="spacing" textLength="112.5249" x="1162.5879" y="259.1606">Course metadata</text></g><g class="message" data-entity-1="part5" data-entity-2="part4" id="msg7"><polygon fill="#181818" points="726.7886,289.3594,716.7886,293.3594,726.7886,297.3594,722.7886,293.3594" style="stroke:#181818;stroke-width:1;"/><line style="stroke:#181818;stroke-width:1;stroke-dasharray:2,2;" x1="720.7886" x2="1126.5425" y1="293.3594" y2="293.3594"/><text fill="#000000" font-family="sans-serif" font-size="13" font-weight="bold" lengthAdjust="spacing" textLength="9.0454" x="732.7886" y="288.2935">7</text><text fill="#000000" font-family="sans-serif" font-size="13" lengthAdjust="spacing" textLength="126.8896" x="745.834" y="288.2935">CourseSettingsDTO</text></g><g class="message" data-entity-1="part4" data-entity-2="part3" id="msg8"><polygon fill="#181818" points="568.8921,318.4922,558.8921,322.4922,568.8921,326.4922,564.8921,322.4922" style="stroke:#181818;stroke-width:1;"/><line style="stroke:#181818;stroke-width:1;stroke-dasharray:2,2;" x1="562.8921" x2="709.7886" y1="322.4922" y2="322.4922"/><text fill="#000000" font-family="sans-serif" font-size="13" font-weight="bold" lengthAdjust="spacing" textLength="9.0454" x="574.8921" y="317.4263">8</text><text fill="#000000" font-family="sans-serif" font-size="13" lengthAdjust="spacing" textLength="47.7026" x="587.9375" y="317.4263">200 OK</text></g><g class="message" data-entity-1="part3" data-entity-2="part2" id="msg9"><polygon fill="#181818" points="309.1919,347.625,299.1919,351.625,309.1919,355.625,305.1919,351.625" style="stroke:#181818;stroke-width:1;"/><line style="stroke:#181818;stroke-width:1;stroke-dasharray:2,2;" x1="303.1919" x2="551.8921" y1="351.625" y2="351.625"/><text fill="#000000" font-family="sans-serif" font-size="13" font-weight="bold" lengthAdjust="spacing" textLength="9.0454" x="315.1919" y="346.5591">9</text><text fill="#000000" font-family="sans-serif" font-size="13" lengthAdjust="spacing" textLength="105.314" x="328.2373" y="346.5591">Current settings</text></g><g class="message" data-entity-1="part2" data-entity-2="part2" id="msg10"><line style="stroke:#181818;stroke-width:1;" x1="298.1919" x2="340.1919" y1="380.7578" y2="380.7578"/><line style="stroke:#181818;stroke-width:1;" x1="340.1919" x2="340.1919" y1="380.7578" y2="393.7578"/><line style="stroke:#181818;stroke-width:1;" x1="299.1919" x2="340.1919" y1="393.7578" y2="393.7578"/><polygon fill="#181818" points="309.1919,389.7578,299.1919,393.7578,309.1919,397.7578,305.1919,393.7578" style="stroke:#181818;stroke-width:1;"/><text fill="#000000" font-family="sans-serif" font-size="13" font-weight="bold" lengthAdjust="spacing" textLength="18.0908" x="305.1919" y="375.6919">10</text><text fill="#000000" font-family="sans-serif" font-size="13" lengthAdjust="spacing" textLength="138.563" x="327.2827" y="375.6919">Display settings form</text></g><g class="message" data-entity-1="part1" data-entity-2="part2" id="msg11"><polygon fill="#181818" points="276.1919,434.0234,286.1919,438.0234,276.1919,442.0234,280.1919,438.0234" style="stroke:#181818;stroke-width:1;"/><line style="stroke:#181818;stroke-width:1;" x1="71.9609" x2="282.1919" y1="438.0234" y2="438.0234"/><text fill="#000000" font-family="sans-serif" font-size="13" font-weight="bold" lengthAdjust="spacing" textLength="18.0908" x="78.9609" y="425.3911">11</text><text fill="#000000" font-family="sans-serif" font-size="13" lengthAdjust="spacing" textLength="123.1826" x="101.0518" y="417.8247">Update course info</text><text fill="#000000" font-family="sans-serif" font-size="13" lengthAdjust="spacing" textLength="156.7236" x="101.0518" y="432.9575">(title, description, price)</text></g><g class="message" data-entity-1="part1" data-entity-2="part2" id="msg12"><polygon fill="#181818" points="276.1919,463.1563,286.1919,467.1563,276.1919,471.1563,280.1919,467.1563" style="stroke:#181818;stroke-width:1;"/><line style="stroke:#181818;stroke-width:1;" x1="71.9609" x2="282.1919" y1="467.1563" y2="467.1563"/><text fill="#000000" font-family="sans-serif" font-size="13" font-weight="bold" lengthAdjust="spacing" textLength="18.0908" x="78.9609" y="462.0903">12</text><text fill="#000000" font-family="sans-serif" font-size="13" lengthAdjust="spacing" textLength="139.6548" x="101.0518" y="462.0903">Click "Save Changes"</text></g><g class="message" data-entity-1="part2" data-entity-2="part3" id="msg13"><polygon fill="#181818" points="535.8921,507.4219,545.8921,511.4219,535.8921,515.4219,539.8921,511.4219" style="stroke:#181818;stroke-width:1;"/><line style="stroke:#181818;stroke-width:1;" x1="298.1919" x2="541.8921" y1="511.4219" y2="511.4219"/><text fill="#000000" font-family="sans-serif" font-size="13" font-weight="bold" lengthAdjust="spacing" textLength="18.0908" x="305.1919" y="498.7896">13</text><text fill="#000000" font-family="sans-serif" font-size="13" lengthAdjust="spacing" textLength="178.731" x="327.2827" y="491.2231">PATCH /courses/{courseId}</text><text fill="#000000" font-family="sans-serif" font-size="13" lengthAdjust="spacing" textLength="163.1221" x="327.2827" y="506.356">{title, description, price}</text></g><g class="message" data-entity-1="part3" data-entity-2="part3" id="msg14"><line style="stroke:#181818;stroke-width:1;" x1="557.8921" x2="599.8921" y1="540.5547" y2="540.5547"/><line style="stroke:#181818;stroke-width:1;" x1="599.8921" x2="599.8921" y1="540.5547" y2="553.5547"/><line style="stroke:#181818;stroke-width:1;" x1="558.8921" x2="599.8921" y1="553.5547" y2="553.5547"/><polygon fill="#181818" points="568.8921,549.5547,558.8921,553.5547,568.8921,557.5547,564.8921,553.5547" style="stroke:#181818;stroke-width:1;"/><text fill="#000000" font-family="sans-serif" font-size="13" font-weight="bold" lengthAdjust="spacing" textLength="18.0908" x="564.8921" y="535.4888">14</text><text fill="#000000" font-family="sans-serif" font-size="13" lengthAdjust="spacing" textLength="82.1577" x="586.9829" y="535.4888">Validate JWT</text></g><g class="message" data-entity-1="part3" data-entity-2="part4" id="msg15"><polygon fill="#181818" points="693.7886,578.6875,703.7886,582.6875,693.7886,586.6875,697.7886,582.6875" style="stroke:#181818;stroke-width:1;"/><line style="stroke:#181818;stroke-width:1;" x1="557.8921" x2="699.7886" y1="582.6875" y2="582.6875"/><text fill="#000000" font-family="sans-serif" font-size="13" font-weight="bold" lengthAdjust="spacing" textLength="18.0908" x="564.8921" y="577.6216">15</text><text fill="#000000" font-family="sans-serif" font-size="13" lengthAdjust="spacing" textLength="106.8057" x="586.9829" y="577.6216">Forward request</text></g><g class="message" data-entity-1="part4" data-entity-2="part5" id="msg16"><polygon fill="#181818" points="1110.5425,607.8203,1120.5425,611.8203,1110.5425,615.8203,1114.5425,611.8203" style="stroke:#181818;stroke-width:1;"/><line style="stroke:#181818;stroke-width:1;" x1="715.7886" x2="1116.5425" y1="611.8203" y2="611.8203"/><text fill="#000000" font-family="sans-serif" font-size="13" font-weight="bold" lengthAdjust="spacing" textLength="18.0908" x="722.7886" y="606.7544">16</text><text fill="#000000" font-family="sans-serif" font-size="13" lengthAdjust="spacing" textLength="365.6631" x="744.8794" y="606.7544">ChangeBasicCourseInfo(courseId, updates, instructorID)</text></g><g class="message" data-entity-1="part5" data-entity-2="part7" id="msg17"><polygon fill="#181818" points="1708.123,636.9531,1718.123,640.9531,1708.123,644.9531,1712.123,640.9531" style="stroke:#181818;stroke-width:1;"/><line style="stroke:#181818;stroke-width:1;" x1="1132.5425" x2="1714.123" y1="640.9531" y2="640.9531"/><text fill="#000000" font-family="sans-serif" font-size="13" font-weight="bold" lengthAdjust="spacing" textLength="18.0908" x="1139.5425" y="635.8872">17</text><text fill="#000000" font-family="sans-serif" font-size="13" lengthAdjust="spacing" textLength="75.1689" x="1161.6333" y="635.8872">Find course</text></g><g class="message" data-entity-1="part7" data-entity-2="part5" id="msg18"><polygon fill="#181818" points="1143.5425,666.0859,1133.5425,670.0859,1143.5425,674.0859,1139.5425,670.0859" style="stroke:#181818;stroke-width:1;"/><line style="stroke:#181818;stroke-width:1;stroke-dasharray:2,2;" x1="1137.5425" x2="1724.123" y1="670.0859" y2="670.0859"/><text fill="#000000" font-family="sans-serif" font-size="13" font-weight="bold" lengthAdjust="spacing" textLength="18.0908" x="1149.5425" y="665.02">18</text><text fill="#000000" font-family="sans-serif" font-size="13" lengthAdjust="spacing" textLength="78.7998" x="1171.6333" y="665.02">Course data</text></g><g class="message" data-entity-1="part5" data-entity-2="part5" id="msg19"><line style="stroke:#181818;stroke-width:1;" x1="1132.5425" x2="1174.5425" y1="699.2188" y2="699.2188"/><line style="stroke:#181818;stroke-width:1;" x1="1174.5425" x2="1174.5425" y1="699.2188" y2="712.2188"/><line style="stroke:#181818;stroke-width:1;" x1="1133.5425" x2="1174.5425" y1="712.2188" y2="712.2188"/><polygon fill="#181818" points="1143.5425,708.2188,1133.5425,712.2188,1143.5425,716.2188,1139.5425,712.2188" style="stroke:#181818;stroke-width:1;"/><text fill="#000000" font-family="sans-serif" font-size="13" font-weight="bold" lengthAdjust="spacing" textLength="18.0908" x="1139.5425" y="694.1528">19</text><text fill="#000000" font-family="sans-serif" font-size="13" lengthAdjust="spacing" textLength="176.2744" x="1161.6333" y="694.1528">Verify instructor ownership</text></g><path d="M10,727.2188 L74.4429,727.2188 L74.4429,734.3516 L64.4429,744.3516 L10,744.3516 L10,727.2188" fill="#EEEEEE" style="stroke:#000000;stroke-width:1.5;"/><rect fill="none" height="643.3984" style="stroke:#000000;stroke-width:1.5;" width="1772.7539" x="10" y="727.2188"/><text fill="#000000" font-family="sans-serif" font-size="13" font-weight="bold" lengthAdjust="spacing" textLength="19.4429" x="25" y="740.2856">alt</text><text fill="#000000" font-family="sans-serif" font-size="11" font-weight="bold" lengthAdjust="spacing" textLength="119.5122" x="89.4429" y="739.4292">[Not course owner]</text><g class="message" data-entity-1="part5" data-entity-2="part4" id="msg20"><polygon fill="#181818" points="726.7886,761.4844,716.7886,765.4844,726.7886,769.4844,722.7886,765.4844" style="stroke:#181818;stroke-width:1;"/><line style="stroke:#181818;stroke-width:1;stroke-dasharray:2,2;" x1="720.7886" x2="1121.5425" y1="765.4844" y2="765.4844"/><text fill="#000000" font-family="sans-serif" font-size="13" font-weight="bold" lengthAdjust="spacing" textLength="18.0908" x="732.7886" y="760.4185">20</text><text fill="#000000" font-family="sans-serif" font-size="13" lengthAdjust="spacing" textLength="94.3262" x="754.8794" y="760.4185">403 Forbidden</text></g><g class="message" data-entity-1="part4" data-entity-2="part3" id="msg21"><polygon fill="#181818" points="568.8921,790.6172,558.8921,794.6172,568.8921,798.6172,564.8921,794.6172" style="stroke:#181818;stroke-width:1;"/><line style="stroke:#181818;stroke-width:1;stroke-dasharray:2,2;" x1="562.8921" x2="709.7886" y1="794.6172" y2="794.6172"/><text fill="#000000" font-family="sans-serif" font-size="13" font-weight="bold" lengthAdjust="spacing" textLength="18.0908" x="574.8921" y="789.5513">21</text><text fill="#000000" font-family="sans-serif" font-size="13" lengthAdjust="spacing" textLength="32.2017" x="596.9829" y="789.5513">Error</text></g><g class="message" data-entity-1="part3" data-entity-2="part2" id="msg22"><polygon fill="#181818" points="309.1919,819.75,299.1919,823.75,309.1919,827.75,305.1919,823.75" style="stroke:#181818;stroke-width:1;"/><line style="stroke:#181818;stroke-width:1;stroke-dasharray:2,2;" x1="303.1919" x2="551.8921" y1="823.75" y2="823.75"/><text fill="#000000" font-family="sans-serif" font-size="13" font-weight="bold" lengthAdjust="spacing" textLength="18.0908" x="315.1919" y="818.6841">22</text><text fill="#000000" font-family="sans-serif" font-size="13" lengthAdjust="spacing" textLength="32.2017" x="337.2827" y="818.6841">Error</text></g><g class="message" data-entity-1="part2" data-entity-2="part1" id="msg23"><polygon fill="#181818" points="77.9609,848.8828,67.9609,852.8828,77.9609,856.8828,73.9609,852.8828" style="stroke:#181818;stroke-width:1;"/><line style="stroke:#181818;stroke-width:1;" x1="71.9609" x2="292.1919" y1="852.8828" y2="852.8828"/><text fill="#000000" font-family="sans-serif" font-size="13" font-weight="bold" lengthAdjust="spacing" textLength="18.0908" x="83.9609" y="847.8169">23</text><text fill="#000000" font-family="sans-serif" font-size="13" lengthAdjust="spacing" textLength="84.0366" x="106.0518" y="847.8169">Display error</text></g><line style="stroke:#000000;stroke-width:1;stroke-dasharray:2,2;" x1="10" x2="1782.7539" y1="861.8828" y2="861.8828"/><text fill="#000000" font-family="sans-serif" font-size="11" font-weight="bold" lengthAdjust="spacing" textLength="62.96" x="15" y="872.0933">[Is owner]</text><g class="message" data-entity-1="part5" data-entity-2="part5" id="msg24"><line style="stroke:#181818;stroke-width:1;" x1="1132.5425" x2="1174.5425" y1="911.9531" y2="911.9531"/><line style="stroke:#181818;stroke-width:1;" x1="1174.5425" x2="1174.5425" y1="911.9531" y2="924.9531"/><line style="stroke:#181818;stroke-width:1;" x1="1133.5425" x2="1174.5425" y1="924.9531" y2="924.9531"/><polygon fill="#181818" points="1143.5425,920.9531,1133.5425,924.9531,1143.5425,928.9531,1139.5425,924.9531" style="stroke:#181818;stroke-width:1;"/><text fill="#000000" font-family="sans-serif" font-size="13" font-weight="bold" lengthAdjust="spacing" textLength="18.0908" x="1139.5425" y="899.3208">24</text><text fill="#000000" font-family="sans-serif" font-size="13" lengthAdjust="spacing" textLength="110.1064" x="1161.6333" y="891.7544">Validate updates</text><text fill="#000000" font-family="sans-serif" font-size="13" lengthAdjust="spacing" textLength="185.7578" x="1161.6333" y="906.8872">(price &gt;= 0, title not empty)</text></g><path d="M20,939.9531 L84.4429,939.9531 L84.4429,947.0859 L74.4429,957.0859 L20,957.0859 L20,939.9531" fill="#EEEEEE" style="stroke:#000000;stroke-width:1.5;"/><rect fill="none" height="423.6641" style="stroke:#000000;stroke-width:1.5;" width="1752.7539" x="20" y="939.9531"/><text fill="#000000" font-family="sans-serif" font-size="13" font-weight="bold" lengthAdjust="spacing" textLength="19.4429" x="35" y="953.02">alt</text><text fill="#000000" font-family="sans-serif" font-size="11" font-weight="bold" lengthAdjust="spacing" textLength="112.1592" x="99.4429" y="952.1636">[Validation failed]</text><g class="message" data-entity-1="part5" data-entity-2="part4" id="msg25"><polygon fill="#181818" points="721.7886,974.2188,711.7886,978.2188,721.7886,982.2188,717.7886,978.2188" style="stroke:#181818;stroke-width:1;"/><line style="stroke:#181818;stroke-width:1;stroke-dasharray:2,2;" x1="715.7886" x2="1121.5425" y1="978.2188" y2="978.2188"/><text fill="#000000" font-family="sans-serif" font-size="13" font-weight="bold" lengthAdjust="spacing" textLength="18.0908" x="727.7886" y="973.1528">25</text><text fill="#000000" font-family="sans-serif" font-size="13" lengthAdjust="spacing" textLength="111.6045" x="749.8794" y="973.1528">400 Bad Request</text></g><g class="message" data-entity-1="part4" data-entity-2="part3" id="msg26"><polygon fill="#181818" points="563.8921,1003.3516,553.8921,1007.3516,563.8921,1011.3516,559.8921,1007.3516" style="stroke:#181818;stroke-width:1;"/><line style="stroke:#181818;stroke-width:1;stroke-dasharray:2,2;" x1="557.8921" x2="709.7886" y1="1007.3516" y2="1007.3516"/><text fill="#000000" font-family="sans-serif" font-size="13" font-weight="bold" lengthAdjust="spacing" textLength="18.0908" x="569.8921" y="1002.2856">26</text><text fill="#000000" font-family="sans-serif" font-size="13" lengthAdjust="spacing" textLength="32.2017" x="591.9829" y="1002.2856">Error</text></g><g class="message" data-entity-1="part3" data-entity-2="part2" id="msg27"><polygon fill="#181818" points="304.1919,1032.4844,294.1919,1036.4844,304.1919,1040.4844,300.1919,1036.4844" style="stroke:#181818;stroke-width:1;"/><line style="stroke:#181818;stroke-width:1;stroke-dasharray:2,2;" x1="298.1919" x2="551.8921" y1="1036.4844" y2="1036.4844"/><text fill="#000000" font-family="sans-serif" font-size="13" font-weight="bold" lengthAdjust="spacing" textLength="18.0908" x="310.1919" y="1031.4185">27</text><text fill="#000000" font-family="sans-serif" font-size="13" lengthAdjust="spacing" textLength="101.3213" x="332.2827" y="1031.4185">Validation error</text></g><g class="message" data-entity-1="part2" data-entity-2="part1" id="msg28"><polygon fill="#181818" points="77.9609,1061.6172,67.9609,1065.6172,77.9609,1069.6172,73.9609,1065.6172" style="stroke:#181818;stroke-width:1;"/><line style="stroke:#181818;stroke-width:1;" x1="71.9609" x2="292.1919" y1="1065.6172" y2="1065.6172"/><text fill="#000000" font-family="sans-serif" font-size="13" font-weight="bold" lengthAdjust="spacing" textLength="18.0908" x="83.9609" y="1060.5513">28</text><text fill="#000000" font-family="sans-serif" font-size="13" lengthAdjust="spacing" textLength="84.0366" x="106.0518" y="1060.5513">Display error</text></g><line style="stroke:#000000;stroke-width:1;stroke-dasharray:2,2;" x1="20" x2="1772.7539" y1="1074.6172" y2="1074.6172"/><text fill="#000000" font-family="sans-serif" font-size="11" font-weight="bold" lengthAdjust="spacing" textLength="120.8013" x="25" y="1084.8276">[Validation passed]</text><g class="message" data-entity-1="part5" data-entity-2="part6" id="msg29"><polygon fill="#181818" points="1352.3911,1105.5547,1362.3911,1109.5547,1352.3911,1113.5547,1356.3911,1109.5547" style="stroke:#181818;stroke-width:1;"/><line style="stroke:#181818;stroke-width:1;" x1="1132.5425" x2="1358.3911" y1="1109.5547" y2="1109.5547"/><text fill="#000000" font-family="sans-serif" font-size="13" font-weight="bold" lengthAdjust="spacing" textLength="18.0908" x="1139.5425" y="1104.4888">29</text><text fill="#000000" font-family="sans-serif" font-size="13" lengthAdjust="spacing" textLength="93.4121" x="1161.6333" y="1104.4888">Apply updates</text></g><g class="message" data-entity-1="part6" data-entity-2="part6" id="msg30"><line style="stroke:#181818;stroke-width:1;" x1="1374.3911" x2="1416.3911" y1="1138.6875" y2="1138.6875"/><line style="stroke:#181818;stroke-width:1;" x1="1416.3911" x2="1416.3911" y1="1138.6875" y2="1151.6875"/><line style="stroke:#181818;stroke-width:1;" x1="1375.3911" x2="1416.3911" y1="1151.6875" y2="1151.6875"/><polygon fill="#181818" points="1385.3911,1147.6875,1375.3911,1151.6875,1385.3911,1155.6875,1381.3911,1151.6875" style="stroke:#181818;stroke-width:1;"/><text fill="#000000" font-family="sans-serif" font-size="13" font-weight="bold" lengthAdjust="spacing" textLength="18.0908" x="1381.3911" y="1133.6216">30</text><text fill="#000000" font-family="sans-serif" font-size="13" lengthAdjust="spacing" textLength="299.6411" x="1403.4819" y="1133.6216">Update fields, regenerate slug if title changed</text></g><g class="message" data-entity-1="part6" data-entity-2="part5" id="msg31"><polygon fill="#181818" points="1143.5425,1176.8203,1133.5425,1180.8203,1143.5425,1184.8203,1139.5425,1180.8203" style="stroke:#181818;stroke-width:1;"/><line style="stroke:#181818;stroke-width:1;stroke-dasharray:2,2;" x1="1137.5425" x2="1368.3911" y1="1180.8203" y2="1180.8203"/><text fill="#000000" font-family="sans-serif" font-size="13" font-weight="bold" lengthAdjust="spacing" textLength="18.0908" x="1149.5425" y="1175.7544">31</text><text fill="#000000" font-family="sans-serif" font-size="13" lengthAdjust="spacing" textLength="102.9209" x="1171.6333" y="1175.7544">Updated course</text></g><g class="message" data-entity-1="part5" data-entity-2="part7" id="msg32"><polygon fill="#181818" points="1708.123,1205.9531,1718.123,1209.9531,1708.123,1213.9531,1712.123,1209.9531" style="stroke:#181818;stroke-width:1;"/><line style="stroke:#181818;stroke-width:1;" x1="1132.5425" x2="1714.123" y1="1209.9531" y2="1209.9531"/><text fill="#000000" font-family="sans-serif" font-size="13" font-weight="bold" lengthAdjust="spacing" textLength="18.0908" x="1139.5425" y="1204.8872">32</text><text fill="#000000" font-family="sans-serif" font-size="13" lengthAdjust="spacing" textLength="90.6572" x="1161.6333" y="1204.8872">Save changes</text></g><g class="message" data-entity-1="part7" data-entity-2="part5" id="msg33"><polygon fill="#181818" points="1143.5425,1235.0859,1133.5425,1239.0859,1143.5425,1243.0859,1139.5425,1239.0859" style="stroke:#181818;stroke-width:1;"/><line style="stroke:#181818;stroke-width:1;stroke-dasharray:2,2;" x1="1137.5425" x2="1724.123" y1="1239.0859" y2="1239.0859"/><text fill="#000000" font-family="sans-serif" font-size="13" font-weight="bold" lengthAdjust="spacing" textLength="18.0908" x="1149.5425" y="1234.02">33</text><text fill="#000000" font-family="sans-serif" font-size="13" lengthAdjust="spacing" textLength="52.3301" x="1171.6333" y="1234.02">Success</text></g><g class="message" data-entity-1="part5" data-entity-2="part4" id="msg34"><polygon fill="#181818" points="721.7886,1264.2188,711.7886,1268.2188,721.7886,1272.2188,717.7886,1268.2188" style="stroke:#181818;stroke-width:1;"/><line style="stroke:#181818;stroke-width:1;stroke-dasharray:2,2;" x1="715.7886" x2="1126.5425" y1="1268.2188" y2="1268.2188"/><text fill="#000000" font-family="sans-serif" font-size="13" font-weight="bold" lengthAdjust="spacing" textLength="18.0908" x="727.7886" y="1263.1528">34</text><text fill="#000000" font-family="sans-serif" font-size="13" lengthAdjust="spacing" textLength="73.5693" x="749.8794" y="1263.1528">CourseDTO</text></g><g class="message" data-entity-1="part4" data-entity-2="part3" id="msg35"><polygon fill="#181818" points="563.8921,1293.3516,553.8921,1297.3516,563.8921,1301.3516,559.8921,1297.3516" style="stroke:#181818;stroke-width:1;"/><line style="stroke:#181818;stroke-width:1;stroke-dasharray:2,2;" x1="557.8921" x2="709.7886" y1="1297.3516" y2="1297.3516"/><text fill="#000000" font-family="sans-serif" font-size="13" font-weight="bold" lengthAdjust="spacing" textLength="18.0908" x="569.8921" y="1292.2856">35</text><text fill="#000000" font-family="sans-serif" font-size="13" lengthAdjust="spacing" textLength="47.7026" x="591.9829" y="1292.2856">200 OK</text></g><g class="message" data-entity-1="part3" data-entity-2="part2" id="msg36"><polygon fill="#181818" points="304.1919,1322.4844,294.1919,1326.4844,304.1919,1330.4844,300.1919,1326.4844" style="stroke:#181818;stroke-width:1;"/><line style="stroke:#181818;stroke-width:1;stroke-dasharray:2,2;" x1="298.1919" x2="551.8921" y1="1326.4844" y2="1326.4844"/><text fill="#000000" font-family="sans-serif" font-size="13" font-weight="bold" lengthAdjust="spacing" textLength="18.0908" x="310.1919" y="1321.4185">36</text><text fill="#000000" font-family="sans-serif" font-size="13" lengthAdjust="spacing" textLength="102.9209" x="332.2827" y="1321.4185">Updated course</text></g><g class="message" data-entity-1="part2" data-entity-2="part1" id="msg37"><polygon fill="#181818" points="77.9609,1351.6172,67.9609,1355.6172,77.9609,1359.6172,73.9609,1355.6172" style="stroke:#181818;stroke-width:1;"/><line style="stroke:#181818;stroke-width:1;" x1="71.9609" x2="292.1919" y1="1355.6172" y2="1355.6172"/><text fill="#000000" font-family="sans-serif" font-size="13" font-weight="bold" lengthAdjust="spacing" textLength="18.0908" x="83.9609" y="1350.5513">37</text><text fill="#000000" font-family="sans-serif" font-size="13" lengthAdjust="spacing" textLength="180.1401" x="106.0518" y="1350.5513">Display success notification</text></g><?plantuml-src ZLNBRjim4BphAnRk9G4Sn7sSZ3Q0B2UksY896ZT2WLneaNA8oAHAKdQC8F_U9VMYPUTn4xcpozdP8KLA8qMvMZ0L1Fg1Yu8eieA9VBmcb7AnX8-Z822faGfYeOqgtIVH40SBMGfAr1OIjWYBmcucOO3RZp08hsEO4SCsP3k03x_uyjvCyf850AaKHicy1y7SMH8mGG7JwngHB9LcSCFKcgUiAVENvRdSU8KgM5IjSkR8HT4Ue6OOXHXXmd2phGDk5pSfCMH1S5rjJoSkC9rqh68uESCMnt19rdo9rC58Q5aQWt9fgnLVsrZSVLfPaj1cpv8npCxdS9gwD7twL7t4zFbKxvL0IMQ9JOkYCLn8jI6AWcB_IgPDXy9ceyYXaDgCcOhHX6YUnYAJHyq9G-3j1EFfiLSW32B73hjr5Q1AWOMjWLcPzC2e2AA_dfnKyBh_5JF4AXXGjWkDAcZO81kXflEh7MneMtLGxFNJQ0HNFtVYaLNGngs4KQaK3X5QoJmaYbQBRKSrvRh8oRP5GYRLoXlbduBQfBfXs-gTE49tv6m8bEbKyS9mAOPGA3JXSPSOvJnzWC4DMIEvUoAMJ0_yAL-7y-ZxeJdVYQSNwpyVcBqjTajoxdZ-IERlj8JdYOgUCqGrWvujIgU1ViqVla4kE5w8AljDMnooH5CBcTqonREjTox8ZM1At_C2NvtSmALipUWYU4yzHtqPVROQB3YbJ638Sz2vKjAYToq4u9de00H5Tn2a5tVUOVl09DnTnm7BaMEiEvfTaytmQftHO6xOSFODHaDmPW21ZR9LORR70IRRrkiqD0TaXEUCudwl-n5C28NVzVHj-802-nhigE0TmmvbE4bU4MLVbfum-DnQQRnp2g9rqqwbqXZmUSwtZK8kr76ka3Mmlh0PPpb5oogsP2YutT9vkGIUrOAcplJjAKwL9hkrRr-Tm2TbRUokTrMgpmgTxDTsw39DcTPxPQtfUyEhVpBu2FR1ON-GzMFuvYHVx-sbEUgAipKWptZg9lJEiGfg_ut1Vm00?></g></svg>