<?plantuml 1.2026.1?><svg xmlns="http://www.w3.org/2000/svg" xmlns:xlink="http://www.w3.org/1999/xlink" contentStyleType="text/css" data-diagram-type="SEQUENCE" height="1119px" preserveAspectRatio="none" style="width:1882px;height:1119px;background:#FFFFFF;" version="1.1" viewBox="0 0 1882 1119" width="1882px" zoomAndPan="magnify"><defs/><g><rect fill="#ADD8E6" height="1107.3828" style="stroke:#181818;stroke-width:0.5;" width="102.4434" x="573.1616" y="6"/><text fill="#000000" font-family="sans-serif" font-size="13" font-weight="bold" lengthAdjust="spacing" textLength="92.6821" x="578.0422" y="18.0669">API Gateway</text><rect fill="#FFFFE0" height="1107.3828" style="stroke:#181818;stroke-width:0.5;" width="1163.9287" x="705.6406" y="6"/><text fill="#000000" font-family="sans-serif" font-size="13" font-weight="bold" lengthAdjust="spacing" textLength="109.2622" x="1232.9739" y="18.0669">Course Service</text><g><title>Instructor</title><rect fill="#FFFFFF" height="441.8594" style="stroke:#181818;stroke-width:1;" width="10" x="51.9609" y="118.5625"/></g><g><title>WebApp</title><rect fill="#FFFFFF" height="441.8594" style="stroke:#181818;stroke-width:1;" width="10" x="254.4961" y="118.5625"/></g><g><title>API Gateway</title><rect fill="#FFFFFF" height="312.3281" style="stroke:#181818;stroke-width:1;" width="10" x="619.3833" y="218.9609"/></g><g><title>SectionController</title><rect fill="#FFFFFF" height="211.9297" style="stroke:#181818;stroke-width:1;" width="10" x="768.2344" y="290.2266"/></g><g><title>CourseApp</title><rect fill="#FFFFFF" height="602.3281" style="stroke:#181818;stroke-width:1;" width="10" x="1119.106" y="319.3594"/></g><g><title>Section</title><rect fill="#FFFFFF" height="71.2656" style="stroke:#181818;stroke-width:1;" width="10" x="1409.1797" y="763.0234"/></g><g><title>Lesson</title><rect fill="#FFFFFF" height="71.2656" style="stroke:#181818;stroke-width:1;" width="10" x="1616.0591" y="604.3594"/></g><g><title>CourseDB</title><rect fill="#FFFFFF" height="29.1328" style="stroke:#181818;stroke-width:1;" width="10" x="1822.9385" y="348.4922"/></g><g><title>CourseDB</title><rect fill="#FFFFFF" height="29.1328" style="stroke:#181818;stroke-width:1;" width="10" x="1822.9385" y="704.7578"/></g><g><title>CourseDB</title><rect fill="#FFFFFF" height="29.1328" style="stroke:#181818;stroke-width:1;" width="10" x="1822.9385" y="863.4219"/></g><rect fill="none" height="582.3281" style="stroke:#000000;stroke-width:1.5;" width="1865.5693" x="10" y="434.7578"/><g class="participant-lifeline" data-entity-uid="part1" data-qualified-name="I" id="part1-lifeline"><g><title>Instructor</title><rect fill="#000000" fill-opacity="0.00000" height="946.6563" width="8" x="52.9609" y="87.4297"/><line style="stroke:#181818;stroke-width:0.5;stroke-dasharray:5,5;" x1="56" x2="56" y1="87.4297" y2="1034.0859"/></g></g><g class="participant-lifeline" data-entity-uid="part2" data-qualified-name="WA" id="part2-lifeline"><g><title>WebApp</title><rect fill="#000000" fill-opacity="0.00000" height="946.6563" width="8" x="255.4961" y="87.4297"/><line style="stroke:#181818;stroke-width:0.5;stroke-dasharray:5,5;" x1="259.1494" x2="259.1494" y1="87.4297" y2="1034.0859"/></g></g><g class="participant-lifeline" data-entity-uid="part3" data-qualified-name="GW" id="part3-lifeline"><g><title>API Gateway</title><rect fill="#000000" fill-opacity="0.00000" height="946.6563" width="8" x="620.3833" y="87.4297"/><line style="stroke:#181818;stroke-width:0.5;stroke-dasharray:5,5;" x1="624.1616" x2="624.1616" y1="87.4297" y2="1034.0859"/></g></g><g class="participant-lifeline" data-entity-uid="part4" data-qualified-name="SC" id="part4-lifeline"><g><title>SectionController</title><rect fill="#000000" fill-opacity="0.00000" height="946.6563" width="8" x="769.2344" y="87.4297"/><line style="stroke:#181818;stroke-width:0.5;stroke-dasharray:5,5;" x1="772.6406" x2="772.6406" y1="87.4297" y2="1034.0859"/></g></g><g class="participant-lifeline" data-entity-uid="part5" data-qualified-name="CA" id="part5-lifeline"><g><title>CourseApp</title><rect fill="#000000" fill-opacity="0.00000" height="946.6563" width="8" x="1120.106" y="87.4297"/><line style="stroke:#181818;stroke-width:0.5;stroke-dasharray:5,5;" x1="1123.9922" x2="1123.9922" y1="87.4297" y2="1034.0859"/></g></g><g class="participant-lifeline" data-entity-uid="part6" data-qualified-name="S" id="part6-lifeline"><g><title>Section</title><rect fill="#000000" fill-opacity="0.00000" height="946.6563" width="8" x="1410.1797" y="87.4297"/><line style="stroke:#181818;stroke-width:0.5;stroke-dasharray:5,5;" x1="1414.1724" x2="1414.1724" y1="87.4297" y2="1034.0859"/></g></g><g class="participant-lifeline" data-entity-uid="part7" data-qualified-name="L" id="part7-lifeline"><g><title>Lesson</title><rect fill="#000000" fill-opacity="0.00000" height="946.6563" width="8" x="1617.0591" y="87.4297"/><line style="stroke:#181818;stroke-width:0.5;stroke-dasharray:5,5;" x1="1620.8394" x2="1620.8394" y1="87.4297" y2="1034.0859"/></g></g><g class="participant-lifeline" data-entity-uid="part8" data-qualified-name="CDB" id="part8-lifeline"><g><title>CourseDB</title><rect fill="#000000" fill-opacity="0.00000" height="946.6563" width="8" x="1823.9385" y="87.4297"/><line style="stroke:#181818;stroke-width:0.5;stroke-dasharray:5,5;" x1="1827.3076" x2="1827.3076" y1="87.4297" y2="1034.0859"/></g></g><g class="participant participant-head" data-entity-uid="part1" data-qualified-name="I" id="part1-head"><text fill="#000000" font-family="sans-serif" font-size="14" lengthAdjust="spacing" textLength="67.9219" x="20" y="84.1279">Instructor</text><ellipse cx="56.9609" cy="19.6328" fill="#E2E2F0" rx="8" ry="8" style="stroke:#181818;stroke-width:0.5;"/><path d="M56.9609,27.6328 L56.9609,54.6328 M43.9609,35.6328 L69.9609,35.6328 M56.9609,54.6328 L43.9609,69.6328 M56.9609,54.6328 L69.9609,69.6328" fill="none" style="stroke:#181818;stroke-width:0.5;"/></g><g class="participant participant-tail" data-entity-uid="part1" data-qualified-name="I" id="part1-tail"><text fill="#000000" font-family="sans-serif" font-size="14" lengthAdjust="spacing" textLength="67.9219" x="20" y="1046.0811">Instructor</text><ellipse cx="56.9609" cy="1057.8828" fill="#E2E2F0" rx="8" ry="8" style="stroke:#181818;stroke-width:0.5;"/><path d="M56.9609,1065.8828 L56.9609,1092.8828 M43.9609,1073.8828 L69.9609,1073.8828 M56.9609,1092.8828 L43.9609,1107.8828 M56.9609,1092.8828 L69.9609,1107.8828" fill="none" style="stroke:#181818;stroke-width:0.5;"/></g><g class="participant participant-head" data-entity-uid="part2" data-qualified-name="WA" id="part2-head"><text fill="#000000" font-family="sans-serif" font-size="14" lengthAdjust="spacing" textLength="58.6934" x="227.1494" y="84.1279">WebApp</text><path d="M238.9961,43.1328 L238.9961,67.1328 M238.9961,55.1328 L255.9961,55.1328" fill="none" style="stroke:#181818;stroke-width:0.5;"/><ellipse cx="267.9961" cy="55.1328" fill="#E2E2F0" rx="12" ry="12" style="stroke:#181818;stroke-width:0.5;"/></g><g class="participant participant-tail" data-entity-uid="part2" data-qualified-name="WA" id="part2-tail"><text fill="#000000" font-family="sans-serif" font-size="14" lengthAdjust="spacing" textLength="58.6934" x="227.1494" y="1046.0811">WebApp</text><path d="M238.9961,1053.3828 L238.9961,1077.3828 M238.9961,1065.3828 L255.9961,1065.3828" fill="none" style="stroke:#181818;stroke-width:0.5;"/><ellipse cx="267.9961" cy="1065.3828" fill="#E2E2F0" rx="12" ry="12" style="stroke:#181818;stroke-width:0.5;"/></g><g class="participant participant-head" data-entity-uid="part3" data-qualified-name="GW" id="part3-head"><text fill="#000000" font-family="sans-serif" font-size="14" lengthAdjust="spacing" textLength="88.4434" x="577.1616" y="84.1279">API Gateway</text><ellipse cx="624.3833" cy="55.1328" fill="#E2E2F0" rx="12" ry="12" style="stroke:#181818;stroke-width:0.5;"/><polygon fill="#181818" points="620.3833,43.1328,626.3833,38.1328,624.3833,43.1328,626.3833,48.1328,620.3833,43.1328" style="stroke:#181818;stroke-width:1;"/></g><g class="participant participant-tail" data-entity-uid="part3" data-qualified-name="GW" id="part3-tail"><text fill="#000000" font-family="sans-serif" font-size="14" lengthAdjust="spacing" textLength="88.4434" x="577.1616" y="1046.0811">API Gateway</text><ellipse cx="624.3833" cy="1065.3828" fill="#E2E2F0" rx="12" ry="12" style="stroke:#181818;stroke-width:0.5;"/><polygon fill="#181818" points="620.3833,1053.3828,626.3833,1048.3828,624.3833,1053.3828,626.3833,1058.3828,620.3833,1053.3828" style="stroke:#181818;stroke-width:1;"/></g><g class="participant participant-head" data-entity-uid="part4" data-qualified-name="SC" id="part4-head"><text fill="#000000" font-family="sans-serif" font-size="14" lengthAdjust="spacing" textLength="121.1875" x="709.6406" y="84.1279">SectionController</text><ellipse cx="773.2344" cy="55.1328" fill="#E2E2F0" rx="12" ry="12" style="stroke:#181818;stroke-width:0.5;"/><polygon fill="#181818" points="769.2344,43.1328,775.2344,38.1328,773.2344,43.1328,775.2344,48.1328,769.2344,43.1328" style="stroke:#181818;stroke-width:1;"/></g><g class="participant participant-tail" data-entity-uid="part4" data-qualified-name="SC" id="part4-tail"><text fill="#000000" font-family="sans-serif" font-size="14" lengthAdjust="spacing" textLength="121.1875" x="709.6406" y="1046.0811">SectionController</text><ellipse cx="773.2344" cy="1065.3828" fill="#E2E2F0" rx="12" ry="12" style="stroke:#181818;stroke-width:0.5;"/><polygon fill="#181818" points="769.2344,1053.3828,775.2344,1048.3828,773.2344,1053.3828,775.2344,1058.3828,769.2344,1053.3828" style="stroke:#181818;stroke-width:1;"/></g><g class="participant participant-head" data-entity-uid="part5" data-qualified-name="CA" id="part5-head"><text fill="#000000" font-family="sans-serif" font-size="14" lengthAdjust="spacing" textLength="76.2275" x="1082.9922" y="84.1279">CourseApp</text><ellipse cx="1124.106" cy="55.1328" fill="#E2E2F0" rx="12" ry="12" style="stroke:#181818;stroke-width:0.5;"/><polygon fill="#181818" points="1120.106,43.1328,1126.106,38.1328,1124.106,43.1328,1126.106,48.1328,1120.106,43.1328" style="stroke:#181818;stroke-width:1;"/></g><g class="participant participant-tail" data-entity-uid="part5" data-qualified-name="CA" id="part5-tail"><text fill="#000000" font-family="sans-serif" font-size="14" lengthAdjust="spacing" textLength="76.2275" x="1082.9922" y="1046.0811">CourseApp</text><ellipse cx="1124.106" cy="1065.3828" fill="#E2E2F0" rx="12" ry="12" style="stroke:#181818;stroke-width:0.5;"/><polygon fill="#181818" points="1120.106,1053.3828,1126.106,1048.3828,1124.106,1053.3828,1126.106,1058.3828,1120.106,1053.3828" style="stroke:#181818;stroke-width:1;"/></g><g class="participant participant-head" data-entity-uid="part6" data-qualified-name="S" id="part6-head"><text fill="#000000" font-family="sans-serif" font-size="14" lengthAdjust="spacing" textLength="52.0146" x="1385.1724" y="84.1279">Section</text><ellipse cx="1414.1797" cy="55.1328" fill="#E2E2F0" rx="12" ry="12" style="stroke:#181818;stroke-width:0.5;"/><line style="stroke:#181818;stroke-width:0.5;" x1="1402.1797" x2="1426.1797" y1="69.1328" y2="69.1328"/></g><g class="participant participant-tail" data-entity-uid="part6" data-qualified-name="S" id="part6-tail"><text fill="#000000" font-family="sans-serif" font-size="14" lengthAdjust="spacing" textLength="52.0146" x="1385.1724" y="1046.0811">Section</text><ellipse cx="1414.1797" cy="1065.3828" fill="#E2E2F0" rx="12" ry="12" style="stroke:#181818;stroke-width:0.5;"/><line style="stroke:#181818;stroke-width:0.5;" x1="1402.1797" x2="1426.1797" y1="1079.3828" y2="1079.3828"/></g><g class="participant participant-head" data-entity-uid="part7" data-qualified-name="L" id="part7-head"><text fill="#000000" font-family="sans-serif" font-size="14" lengthAdjust="spacing" textLength="48.4395" x="1593.8394" y="84.1279">Lesson</text><ellipse cx="1621.0591" cy="55.1328" fill="#E2E2F0" rx="12" ry="12" style="stroke:#181818;stroke-width:0.5;"/><line style="stroke:#181818;stroke-width:0.5;" x1="1609.0591" x2="1633.0591" y1="69.1328" y2="69.1328"/></g><g class="participant participant-tail" data-entity-uid="part7" data-qualified-name="L" id="part7-tail"><text fill="#000000" font-family="sans-serif" font-size="14" lengthAdjust="spacing" textLength="48.4395" x="1593.8394" y="1046.0811">Lesson</text><ellipse cx="1621.0591" cy="1065.3828" fill="#E2E2F0" rx="12" ry="12" style="stroke:#181818;stroke-width:0.5;"/><line style="stroke:#181818;stroke-width:0.5;" x1="1609.0591" x2="1633.0591" y1="1079.3828" y2="1079.3828"/></g><g class="participant participant-head" data-entity-uid="part8" data-qualified-name="CDB" id="part8-head"><text fill="#000000" font-family="sans-serif" font-size="14" lengthAdjust="spacing" textLength="69.2617" x="1790.3076" y="84.1279">CourseDB</text><path d="M1809.9385,35.1328 C1809.9385,25.1328 1827.9385,25.1328 1827.9385,25.1328 C1827.9385,25.1328 1845.9385,25.1328 1845.9385,35.1328 L1845.9385,61.1328 C1845.9385,71.1328 1827.9385,71.1328 1827.9385,71.1328 C1827.9385,71.1328 1809.9385,71.1328 1809.9385,61.1328 L1809.9385,35.1328" fill="#E2E2F0" style="stroke:#181818;stroke-width:0.5;"/><path d="M1809.9385,35.1328 C1809.9385,45.1328 1827.9385,45.1328 1827.9385,45.1328 C1827.9385,45.1328 1845.9385,45.1328 1845.9385,35.1328" fill="none" style="stroke:#181818;stroke-width:0.5;"/></g><g class="participant participant-tail" data-entity-uid="part8" data-qualified-name="CDB" id="part8-tail"><text fill="#000000" font-family="sans-serif" font-size="14" lengthAdjust="spacing" textLength="69.2617" x="1790.3076" y="1046.0811">CourseDB</text><path d="M1809.9385,1059.3828 C1809.9385,1049.3828 1827.9385,1049.3828 1827.9385,1049.3828 C1827.9385,1049.3828 1845.9385,1049.3828 1845.9385,1059.3828 L1845.9385,1085.3828 C1845.9385,1095.3828 1827.9385,1095.3828 1827.9385,1095.3828 C1827.9385,1095.3828 1809.9385,1095.3828 1809.9385,1085.3828 L1809.9385,1059.3828" fill="#E2E2F0" style="stroke:#181818;stroke-width:0.5;"/><path d="M1809.9385,1059.3828 C1809.9385,1069.3828 1827.9385,1069.3828 1827.9385,1069.3828 C1827.9385,1069.3828 1845.9385,1069.3828 1845.9385,1059.3828" fill="none" style="stroke:#181818;stroke-width:0.5;"/></g><g><title>Instructor</title><rect fill="#FFFFFF" height="441.8594" style="stroke:#181818;stroke-width:1;" width="10" x="51.9609" y="118.5625"/></g><g><title>WebApp</title><rect fill="#FFFFFF" height="441.8594" style="stroke:#181818;stroke-width:1;" width="10" x="254.4961" y="118.5625"/></g><g><title>API Gateway</title><rect fill="#FFFFFF" height="312.3281" style="stroke:#181818;stroke-width:1;" width="10" x="619.3833" y="218.9609"/></g><g><title>SectionController</title><rect fill="#FFFFFF" height="211.9297" style="stroke:#181818;stroke-width:1;" width="10" x="768.2344" y="290.2266"/></g><g><title>CourseApp</title><rect fill="#FFFFFF" height="602.3281" style="stroke:#181818;stroke-width:1;" width="10" x="1119.106" y="319.3594"/></g><g><title>Section</title><rect fill="#FFFFFF" height="71.2656" style="stroke:#181818;stroke-width:1;" width="10" x="1409.1797" y="763.0234"/></g><g><title>Lesson</title><rect fill="#FFFFFF" height="71.2656" style="stroke:#181818;stroke-width:1;" width="10" x="1616.0591" y="604.3594"/></g><g><title>CourseDB</title><rect fill="#FFFFFF" height="29.1328" style="stroke:#181818;stroke-width:1;" width="10" x="1822.9385" y="348.4922"/></g><g><title>CourseDB</title><rect fill="#FFFFFF" height="29.1328" style="stroke:#181818;stroke-width:1;" width="10" x="1822.9385" y="704.7578"/></g><g><title>CourseDB</title><rect fill="#FFFFFF" height="29.1328" style="stroke:#181818;stroke-width:1;" width="10" x="1822.9385" y="863.4219"/></g><g class="message" data-entity-1="part1" data-entity-2="part2" id="msg1"><polygon fill="#181818" points="242.4961,114.5625,252.4961,118.5625,242.4961,122.5625,246.4961,118.5625" style="stroke:#181818;stroke-width:1;"/><line style="stroke:#181818;stroke-width:1;" x1="61.9609" x2="248.4961" y1="118.5625" y2="118.5625"/><text fill="#000000" font-family="sans-serif" font-size="13" font-weight="bold" lengthAdjust="spacing" textLength="9.0454" x="68.9609" y="113.4966">1</text><text fill="#000000" font-family="sans-serif" font-size="13" lengthAdjust="spacing" textLength="161.0591" x="82.0063" y="113.4966">Click "Delete" on section</text></g><g class="message" data-entity-1="part2" data-entity-2="part2" id="msg2"><line style="stroke:#181818;stroke-width:1;" x1="264.4961" x2="306.4961" y1="147.6953" y2="147.6953"/><line style="stroke:#181818;stroke-width:1;" x1="306.4961" x2="306.4961" y1="147.6953" y2="160.6953"/><line style="stroke:#181818;stroke-width:1;" x1="265.4961" x2="306.4961" y1="160.6953" y2="160.6953"/><polygon fill="#181818" points="275.4961,156.6953,265.4961,160.6953,275.4961,164.6953,271.4961,160.6953" style="stroke:#181818;stroke-width:1;"/><text fill="#000000" font-family="sans-serif" font-size="13" font-weight="bold" lengthAdjust="spacing" textLength="9.0454" x="271.4961" y="142.6294">2</text><text fill="#000000" font-family="sans-serif" font-size="13" lengthAdjust="spacing" textLength="178.2358" x="284.5415" y="142.6294">Display confirmation dialog</text></g><g class="message" data-entity-1="part1" data-entity-2="part2" id="msg3"><polygon fill="#181818" points="242.4961,185.8281,252.4961,189.8281,242.4961,193.8281,246.4961,189.8281" style="stroke:#181818;stroke-width:1;"/><line style="stroke:#181818;stroke-width:1;" x1="61.9609" x2="248.4961" y1="189.8281" y2="189.8281"/><text fill="#000000" font-family="sans-serif" font-size="13" font-weight="bold" lengthAdjust="spacing" textLength="9.0454" x="68.9609" y="184.7622">3</text><text fill="#000000" font-family="sans-serif" font-size="13" lengthAdjust="spacing" textLength="108.3608" x="82.0063" y="184.7622">Confirm deletion</text></g><g class="message" data-entity-1="part2" data-entity-2="part3" id="msg4"><polygon fill="#181818" points="607.3833,214.9609,617.3833,218.9609,607.3833,222.9609,611.3833,218.9609" style="stroke:#181818;stroke-width:1;"/><line style="stroke:#181818;stroke-width:1;" x1="264.4961" x2="613.3833" y1="218.9609" y2="218.9609"/><text fill="#000000" font-family="sans-serif" font-size="13" font-weight="bold" lengthAdjust="spacing" textLength="9.0454" x="271.4961" y="213.895">4</text><text fill="#000000" font-family="sans-serif" font-size="13" lengthAdjust="spacing" textLength="322.8418" x="284.5415" y="213.895">DELETE /courses/{courseId}/sections/{sectionId}</text></g><g class="message" data-entity-1="part3" data-entity-2="part3" id="msg5"><line style="stroke:#181818;stroke-width:1;" x1="629.3833" x2="671.3833" y1="248.0938" y2="248.0938"/><line style="stroke:#181818;stroke-width:1;" x1="671.3833" x2="671.3833" y1="248.0938" y2="261.0938"/><line style="stroke:#181818;stroke-width:1;" x1="630.3833" x2="671.3833" y1="261.0938" y2="261.0938"/><polygon fill="#181818" points="640.3833,257.0938,630.3833,261.0938,640.3833,265.0938,636.3833,261.0938" style="stroke:#181818;stroke-width:1;"/><text fill="#000000" font-family="sans-serif" font-size="13" font-weight="bold" lengthAdjust="spacing" textLength="9.0454" x="636.3833" y="243.0278">5</text><text fill="#000000" font-family="sans-serif" font-size="13" lengthAdjust="spacing" textLength="82.1577" x="649.4287" y="243.0278">Validate JWT</text></g><g class="message" data-entity-1="part3" data-entity-2="part4" id="msg6"><polygon fill="#181818" points="756.2344,286.2266,766.2344,290.2266,756.2344,294.2266,760.2344,290.2266" style="stroke:#181818;stroke-width:1;"/><line style="stroke:#181818;stroke-width:1;" x1="629.3833" x2="762.2344" y1="290.2266" y2="290.2266"/><text fill="#000000" font-family="sans-serif" font-size="13" font-weight="bold" lengthAdjust="spacing" textLength="9.0454" x="636.3833" y="285.1606">6</text><text fill="#000000" font-family="sans-serif" font-size="13" lengthAdjust="spacing" textLength="106.8057" x="649.4287" y="285.1606">Forward request</text></g><g class="message" data-entity-1="part4" data-entity-2="part5" id="msg7"><polygon fill="#181818" points="1107.106,315.3594,1117.106,319.3594,1107.106,323.3594,1111.106,319.3594" style="stroke:#181818;stroke-width:1;"/><line style="stroke:#181818;stroke-width:1;" x1="778.2344" x2="1113.106" y1="319.3594" y2="319.3594"/><text fill="#000000" font-family="sans-serif" font-size="13" font-weight="bold" lengthAdjust="spacing" textLength="9.0454" x="785.2344" y="314.2935">7</text><text fill="#000000" font-family="sans-serif" font-size="13" lengthAdjust="spacing" textLength="308.8262" x="798.2798" y="314.2935">DeleteSection(courseId, sectionId, instructorID)</text></g><g class="message" data-entity-1="part5" data-entity-2="part8" id="msg8"><polygon fill="#181818" points="1810.9385,344.4922,1820.9385,348.4922,1810.9385,352.4922,1814.9385,348.4922" style="stroke:#181818;stroke-width:1;"/><line style="stroke:#181818;stroke-width:1;" x1="1129.106" x2="1816.9385" y1="348.4922" y2="348.4922"/><text fill="#000000" font-family="sans-serif" font-size="13" font-weight="bold" lengthAdjust="spacing" textLength="9.0454" x="1136.106" y="343.4263">8</text><text fill="#000000" font-family="sans-serif" font-size="13" lengthAdjust="spacing" textLength="162.5" x="1149.1514" y="343.4263">Find section with lessons</text></g><g class="message" data-entity-1="part8" data-entity-2="part5" id="msg9"><polygon fill="#181818" points="1140.106,373.625,1130.106,377.625,1140.106,381.625,1136.106,377.625" style="stroke:#181818;stroke-width:1;"/><line style="stroke:#181818;stroke-width:1;stroke-dasharray:2,2;" x1="1134.106" x2="1826.9385" y1="377.625" y2="377.625"/><text fill="#000000" font-family="sans-serif" font-size="13" font-weight="bold" lengthAdjust="spacing" textLength="9.0454" x="1146.106" y="372.5591">9</text><text fill="#000000" font-family="sans-serif" font-size="13" lengthAdjust="spacing" textLength="81.7134" x="1159.1514" y="372.5591">Section data</text></g><g class="message" data-entity-1="part5" data-entity-2="part5" id="msg10"><line style="stroke:#181818;stroke-width:1;" x1="1129.106" x2="1171.106" y1="406.7578" y2="406.7578"/><line style="stroke:#181818;stroke-width:1;" x1="1171.106" x2="1171.106" y1="406.7578" y2="419.7578"/><line style="stroke:#181818;stroke-width:1;" x1="1130.106" x2="1171.106" y1="419.7578" y2="419.7578"/><polygon fill="#181818" points="1140.106,415.7578,1130.106,419.7578,1140.106,423.7578,1136.106,419.7578" style="stroke:#181818;stroke-width:1;"/><text fill="#000000" font-family="sans-serif" font-size="13" font-weight="bold" lengthAdjust="spacing" textLength="18.0908" x="1136.106" y="401.6919">10</text><text fill="#000000" font-family="sans-serif" font-size="13" lengthAdjust="spacing" textLength="176.2744" x="1158.1968" y="401.6919">Verify instructor ownership</text></g><path d="M10,434.7578 L74.4429,434.7578 L74.4429,441.8906 L64.4429,451.8906 L10,451.8906 L10,434.7578" fill="#EEEEEE" style="stroke:#000000;stroke-width:1.5;"/><rect fill="none" height="582.3281" style="stroke:#000000;stroke-width:1.5;" width="1865.5693" x="10" y="434.7578"/><text fill="#000000" font-family="sans-serif" font-size="13" font-weight="bold" lengthAdjust="spacing" textLength="19.4429" x="25" y="447.8247">alt</text><text fill="#000000" font-family="sans-serif" font-size="11" font-weight="bold" lengthAdjust="spacing" textLength="119.5122" x="89.4429" y="446.9683">[Not course owner]</text><g class="message" data-entity-1="part5" data-entity-2="part4" id="msg11"><polygon fill="#181818" points="789.2344,469.0234,779.2344,473.0234,789.2344,477.0234,785.2344,473.0234" style="stroke:#181818;stroke-width:1;"/><line style="stroke:#181818;stroke-width:1;stroke-dasharray:2,2;" x1="783.2344" x2="1118.106" y1="473.0234" y2="473.0234"/><text fill="#000000" font-family="sans-serif" font-size="13" font-weight="bold" lengthAdjust="spacing" textLength="18.0908" x="795.2344" y="467.9575">11</text><text fill="#000000" font-family="sans-serif" font-size="13" lengthAdjust="spacing" textLength="94.3262" x="817.3252" y="467.9575">403 Forbidden</text></g><g class="message" data-entity-1="part4" data-entity-2="part3" id="msg12"><polygon fill="#181818" points="640.3833,498.1563,630.3833,502.1563,640.3833,506.1563,636.3833,502.1563" style="stroke:#181818;stroke-width:1;"/><line style="stroke:#181818;stroke-width:1;stroke-dasharray:2,2;" x1="634.3833" x2="772.2344" y1="502.1563" y2="502.1563"/><text fill="#000000" font-family="sans-serif" font-size="13" font-weight="bold" lengthAdjust="spacing" textLength="18.0908" x="646.3833" y="497.0903">12</text><text fill="#000000" font-family="sans-serif" font-size="13" lengthAdjust="spacing" textLength="32.2017" x="668.4741" y="497.0903">Error</text></g><g class="message" data-entity-1="part3" data-entity-2="part2" id="msg13"><polygon fill="#181818" points="275.4961,527.2891,265.4961,531.2891,275.4961,535.2891,271.4961,531.2891" style="stroke:#181818;stroke-width:1;"/><line style="stroke:#181818;stroke-width:1;stroke-dasharray:2,2;" x1="269.4961" x2="623.3833" y1="531.2891" y2="531.2891"/><text fill="#000000" font-family="sans-serif" font-size="13" font-weight="bold" lengthAdjust="spacing" textLength="18.0908" x="281.4961" y="526.2231">13</text><text fill="#000000" font-family="sans-serif" font-size="13" lengthAdjust="spacing" textLength="32.2017" x="303.5869" y="526.2231">Error</text></g><g class="message" data-entity-1="part2" data-entity-2="part1" id="msg14"><polygon fill="#181818" points="67.9609,556.4219,57.9609,560.4219,67.9609,564.4219,63.9609,560.4219" style="stroke:#181818;stroke-width:1;"/><line style="stroke:#181818;stroke-width:1;" x1="61.9609" x2="258.4961" y1="560.4219" y2="560.4219"/><text fill="#000000" font-family="sans-serif" font-size="13" font-weight="bold" lengthAdjust="spacing" textLength="18.0908" x="73.9609" y="555.356">14</text><text fill="#000000" font-family="sans-serif" font-size="13" lengthAdjust="spacing" textLength="84.0366" x="96.0518" y="555.356">Display error</text></g><line style="stroke:#000000;stroke-width:1;stroke-dasharray:2,2;" x1="10" x2="1875.5693" y1="569.4219" y2="569.4219"/><text fill="#000000" font-family="sans-serif" font-size="11" font-weight="bold" lengthAdjust="spacing" textLength="62.96" x="15" y="579.6323">[Is owner]</text><g class="message" data-entity-1="part5" data-entity-2="part7" id="msg15"><polygon fill="#181818" points="1604.0591,600.3594,1614.0591,604.3594,1604.0591,608.3594,1608.0591,604.3594" style="stroke:#181818;stroke-width:1;"/><line style="stroke:#181818;stroke-width:1;" x1="1129.106" x2="1610.0591" y1="604.3594" y2="604.3594"/><text fill="#000000" font-family="sans-serif" font-size="13" font-weight="bold" lengthAdjust="spacing" textLength="18.0908" x="1136.106" y="599.2935">15</text><text fill="#000000" font-family="sans-serif" font-size="13" lengthAdjust="spacing" textLength="259.6064" x="1158.1968" y="599.2935">Mark all lessons as deleted (soft delete)</text></g><g class="message" data-entity-1="part7" data-entity-2="part7" id="msg16"><line style="stroke:#181818;stroke-width:1;" x1="1626.0591" x2="1668.0591" y1="633.4922" y2="633.4922"/><line style="stroke:#181818;stroke-width:1;" x1="1668.0591" x2="1668.0591" y1="633.4922" y2="646.4922"/><line style="stroke:#181818;stroke-width:1;" x1="1627.0591" x2="1668.0591" y1="646.4922" y2="646.4922"/><polygon fill="#181818" points="1637.0591,642.4922,1627.0591,646.4922,1637.0591,650.4922,1633.0591,646.4922" style="stroke:#181818;stroke-width:1;"/><text fill="#000000" font-family="sans-serif" font-size="13" font-weight="bold" lengthAdjust="spacing" textLength="18.0908" x="1633.0591" y="628.4263">16</text><text fill="#000000" font-family="sans-serif" font-size="13" lengthAdjust="spacing" textLength="150.7886" x="1655.1499" y="628.4263">Set deletedAt = NOW()</text></g><g class="message" data-entity-1="part7" data-entity-2="part5" id="msg17"><polygon fill="#181818" points="1140.106,671.625,1130.106,675.625,1140.106,679.625,1136.106,675.625" style="stroke:#181818;stroke-width:1;"/><line style="stroke:#181818;stroke-width:1;stroke-dasharray:2,2;" x1="1134.106" x2="1620.0591" y1="675.625" y2="675.625"/><text fill="#000000" font-family="sans-serif" font-size="13" font-weight="bold" lengthAdjust="spacing" textLength="18.0908" x="1146.106" y="670.5591">17</text><text fill="#000000" font-family="sans-serif" font-size="13" lengthAdjust="spacing" textLength="105.6377" x="1168.1968" y="670.5591">Lessons marked</text></g><g class="message" data-entity-1="part5" data-entity-2="part8" id="msg18"><polygon fill="#181818" points="1810.9385,700.7578,1820.9385,704.7578,1810.9385,708.7578,1814.9385,704.7578" style="stroke:#181818;stroke-width:1;"/><line style="stroke:#181818;stroke-width:1;" x1="1129.106" x2="1816.9385" y1="704.7578" y2="704.7578"/><text fill="#000000" font-family="sans-serif" font-size="13" font-weight="bold" lengthAdjust="spacing" textLength="18.0908" x="1136.106" y="699.6919">18</text><text fill="#000000" font-family="sans-serif" font-size="13" lengthAdjust="spacing" textLength="123.2207" x="1158.1968" y="699.6919">Soft delete lessons</text></g><g class="message" data-entity-1="part8" data-entity-2="part5" id="msg19"><polygon fill="#181818" points="1140.106,729.8906,1130.106,733.8906,1140.106,737.8906,1136.106,733.8906" style="stroke:#181818;stroke-width:1;"/><line style="stroke:#181818;stroke-width:1;stroke-dasharray:2,2;" x1="1134.106" x2="1826.9385" y1="733.8906" y2="733.8906"/><text fill="#000000" font-family="sans-serif" font-size="13" font-weight="bold" lengthAdjust="spacing" textLength="18.0908" x="1146.106" y="728.8247">19</text><text fill="#000000" font-family="sans-serif" font-size="13" lengthAdjust="spacing" textLength="52.3301" x="1168.1968" y="728.8247">Success</text></g><g class="message" data-entity-1="part5" data-entity-2="part6" id="msg20"><polygon fill="#181818" points="1397.1797,759.0234,1407.1797,763.0234,1397.1797,767.0234,1401.1797,763.0234" style="stroke:#181818;stroke-width:1;"/><line style="stroke:#181818;stroke-width:1;" x1="1129.106" x2="1403.1797" y1="763.0234" y2="763.0234"/><text fill="#000000" font-family="sans-serif" font-size="13" font-weight="bold" lengthAdjust="spacing" textLength="18.0908" x="1136.106" y="757.9575">20</text><text fill="#000000" font-family="sans-serif" font-size="13" lengthAdjust="spacing" textLength="238.9829" x="1158.1968" y="757.9575">Mark section as deleted (soft delete)</text></g><g class="message" data-entity-1="part6" data-entity-2="part6" id="msg21"><line style="stroke:#181818;stroke-width:1;" x1="1419.1797" x2="1461.1797" y1="792.1563" y2="792.1563"/><line style="stroke:#181818;stroke-width:1;" x1="1461.1797" x2="1461.1797" y1="792.1563" y2="805.1563"/><line style="stroke:#181818;stroke-width:1;" x1="1420.1797" x2="1461.1797" y1="805.1563" y2="805.1563"/><polygon fill="#181818" points="1430.1797,801.1563,1420.1797,805.1563,1430.1797,809.1563,1426.1797,805.1563" style="stroke:#181818;stroke-width:1;"/><text fill="#000000" font-family="sans-serif" font-size="13" font-weight="bold" lengthAdjust="spacing" textLength="18.0908" x="1426.1797" y="787.0903">21</text><text fill="#000000" font-family="sans-serif" font-size="13" lengthAdjust="spacing" textLength="150.7886" x="1448.2705" y="787.0903">Set deletedAt = NOW()</text></g><g class="message" data-entity-1="part6" data-entity-2="part5" id="msg22"><polygon fill="#181818" points="1140.106,830.2891,1130.106,834.2891,1140.106,838.2891,1136.106,834.2891" style="stroke:#181818;stroke-width:1;"/><line style="stroke:#181818;stroke-width:1;stroke-dasharray:2,2;" x1="1134.106" x2="1413.1797" y1="834.2891" y2="834.2891"/><text fill="#000000" font-family="sans-serif" font-size="13" font-weight="bold" lengthAdjust="spacing" textLength="18.0908" x="1146.106" y="829.2231">22</text><text fill="#000000" font-family="sans-serif" font-size="13" lengthAdjust="spacing" textLength="102.1846" x="1168.1968" y="829.2231">Section marked</text></g><g class="message" data-entity-1="part5" data-entity-2="part8" id="msg23"><polygon fill="#181818" points="1810.9385,859.4219,1820.9385,863.4219,1810.9385,867.4219,1814.9385,863.4219" style="stroke:#181818;stroke-width:1;"/><line style="stroke:#181818;stroke-width:1;" x1="1129.106" x2="1816.9385" y1="863.4219" y2="863.4219"/><text fill="#000000" font-family="sans-serif" font-size="13" font-weight="bold" lengthAdjust="spacing" textLength="18.0908" x="1136.106" y="858.356">23</text><text fill="#000000" font-family="sans-serif" font-size="13" lengthAdjust="spacing" textLength="121.9194" x="1158.1968" y="858.356">Soft delete section</text></g><g class="message" data-entity-1="part8" data-entity-2="part5" id="msg24"><polygon fill="#181818" points="1140.106,888.5547,1130.106,892.5547,1140.106,896.5547,1136.106,892.5547" style="stroke:#181818;stroke-width:1;"/><line style="stroke:#181818;stroke-width:1;stroke-dasharray:2,2;" x1="1134.106" x2="1826.9385" y1="892.5547" y2="892.5547"/><text fill="#000000" font-family="sans-serif" font-size="13" font-weight="bold" lengthAdjust="spacing" textLength="18.0908" x="1146.106" y="887.4888">24</text><text fill="#000000" font-family="sans-serif" font-size="13" lengthAdjust="spacing" textLength="52.3301" x="1168.1968" y="887.4888">Success</text></g><g class="message" data-entity-1="part5" data-entity-2="part4" id="msg25"><polygon fill="#181818" points="784.2344,917.6875,774.2344,921.6875,784.2344,925.6875,780.2344,921.6875" style="stroke:#181818;stroke-width:1;"/><line style="stroke:#181818;stroke-width:1;stroke-dasharray:2,2;" x1="778.2344" x2="1123.106" y1="921.6875" y2="921.6875"/><text fill="#000000" font-family="sans-serif" font-size="13" font-weight="bold" lengthAdjust="spacing" textLength="18.0908" x="790.2344" y="916.6216">25</text><text fill="#000000" font-family="sans-serif" font-size="13" lengthAdjust="spacing" textLength="52.3301" x="812.3252" y="916.6216">Success</text></g><g class="message" data-entity-1="part4" data-entity-2="part3" id="msg26"><polygon fill="#181818" points="635.3833,946.8203,625.3833,950.8203,635.3833,954.8203,631.3833,950.8203" style="stroke:#181818;stroke-width:1;"/><line style="stroke:#181818;stroke-width:1;stroke-dasharray:2,2;" x1="629.3833" x2="772.2344" y1="950.8203" y2="950.8203"/><text fill="#000000" font-family="sans-serif" font-size="13" font-weight="bold" lengthAdjust="spacing" textLength="18.0908" x="641.3833" y="945.7544">26</text><text fill="#000000" font-family="sans-serif" font-size="13" lengthAdjust="spacing" textLength="102.4575" x="663.4741" y="945.7544">204 No Content</text></g><g class="message" data-entity-1="part3" data-entity-2="part2" id="msg27"><polygon fill="#181818" points="270.4961,975.9531,260.4961,979.9531,270.4961,983.9531,266.4961,979.9531" style="stroke:#181818;stroke-width:1;"/><line style="stroke:#181818;stroke-width:1;stroke-dasharray:2,2;" x1="264.4961" x2="623.3833" y1="979.9531" y2="979.9531"/><text fill="#000000" font-family="sans-serif" font-size="13" font-weight="bold" lengthAdjust="spacing" textLength="18.0908" x="276.4961" y="974.8872">27</text><text fill="#000000" font-family="sans-serif" font-size="13" lengthAdjust="spacing" textLength="52.3301" x="298.5869" y="974.8872">Success</text></g><g class="message" data-entity-1="part2" data-entity-2="part1" id="msg28"><polygon fill="#181818" points="67.9609,1005.0859,57.9609,1009.0859,67.9609,1013.0859,63.9609,1009.0859" style="stroke:#181818;stroke-width:1;"/><line style="stroke:#181818;stroke-width:1;" x1="61.9609" x2="258.4961" y1="1009.0859" y2="1009.0859"/><text fill="#000000" font-family="sans-serif" font-size="13" font-weight="bold" lengthAdjust="spacing" textLength="18.0908" x="73.9609" y="1004.02">28</text><text fill="#000000" font-family="sans-serif" font-size="13" lengthAdjust="spacing" textLength="156.4443" x="96.0518" y="1004.02">Remove section from UI</text></g><?plantuml-src dLHDRzim3BthLn3TfGKQjDjwAhO1ZfC57hokcBiQEoeMqmfLh4oIcmR5_lieoL_PWXROJQB8n_V8P_F6wRfPBz4mPXzalU66hs6gdwwv4BA-WxVdZF7AQGDPRPrfmf5RoDXIDxNWPWSbBfFDnWVBX57u2OwIwmmMtE6MxuxWJIxlxjrKDSW0AbqxezLVALIxA1dM0gYynKXrOon2WUPHLjZ1_4Ibz7O4L63bfAxJU5KOs1NfA2C2jHJJX5wmTjBjkj9GC4Hpj3O6SmeAxlYI4u-8Cfi6aDbq89l1v1CfluHKoUe1ZcQeq15Vmh2nWH-WV2IjDBN-IBCgawvq9kr6yPsdl99cpGCj8RdIT-C6yHM4x-1nMuH5IGZpV7upXxCgqBHdp_6GYTzdBGkAjISA3ZnexekoGxdbIWeV_LBUjE4YlOJFscov4M3mLuFM3SKqPrQaFYtrAeBoTgh77O5JwDkUWknDbCrE1XpQ2ak35XejzPCqtBOAjjBTWmfBiQCAMW5LV9XCOactIxyl9d0lhuCcYhTev6eteW5wMwEnzt93FbSEhhI3o3o-a0L8O6X3vHVdx_qmbb88hEc9HkIV_8pcncYVFUeTN5X6adww1r9e-Y65w6M33V3Vn3BPlsSC5N7CR4ypYimluIit3y2LweRc7HiiWmAEhLwvzdP2HJsUzthU0XJOfOZ4mKUu-bOUdyGENWfbv2tocbgXs6UMivvCtCpGiL_ZgB5VK0yT2vggehnzrB373hTeHThX0tvLeF_2YxRu5O75OAT30eiN17PV_7yB79djS5goRxjtvnVaMVzhSFJ_Ujb_1m7t7VWTr_gnbm4hezVm8tlLYhLWVm00?></g></svg>