<?plantuml 1.2026.1?><svg xmlns="http://www.w3.org/2000/svg" xmlns:xlink="http://www.w3.org/1999/xlink" contentStyleType="text/css" data-diagram-type="SEQUENCE" height="1009px" preserveAspectRatio="none" style="width:1656px;height:1009px;background:#FFFFFF;" version="1.1" viewBox="0 0 1656 1009" width="1656px" zoomAndPan="magnify"><defs/><g><rect fill="#ADD8E6" height="997.3828" style="stroke:#181818;stroke-width:0.5;" width="102.4434" x="502.9351" y="6"/><text fill="#000000" font-family="sans-serif" font-size="13" font-weight="bold" lengthAdjust="spacing" textLength="92.6821" x="507.8157" y="18.0669">API Gateway</text><rect fill="#FFFFE0" height="997.3828" style="stroke:#181818;stroke-width:0.5;" width="670.4595" x="718.2754" y="6"/><text fill="#000000" font-family="sans-serif" font-size="13" font-weight="bold" lengthAdjust="spacing" textLength="109.2622" x="998.874" y="18.0669">Course Service</text><g><title>Learner</title><rect fill="#FFFFFF" height="328.4609" style="stroke:#181818;stroke-width:1;" width="10" x="44.9951" y="118.5625"/></g><g><title>WebApp</title><rect fill="#FFFFFF" height="328.4609" style="stroke:#181818;stroke-width:1;" width="10" x="291.5259" y="118.5625"/></g><g><title>API Gateway</title><rect fill="#FFFFFF" height="270.1953" style="stroke:#181818;stroke-width:1;" width="10" x="549.1567" y="147.6953"/></g><g><title>CourseController</title><rect fill="#FFFFFF" height="169.7969" style="stroke:#181818;stroke-width:1;" width="10" x="779.3003" y="218.9609"/></g><g><title>CourseApp</title><rect fill="#FFFFFF" height="518.1953" style="stroke:#181818;stroke-width:1;" width="10" x="1044.3452" y="248.0938"/></g><g><title>CourseDB</title><rect fill="#FFFFFF" height="53.2656" style="stroke:#181818;stroke-width:1;" width="10" x="1342.104" y="277.2266"/></g><g><title>CourseDB</title><rect fill="#FFFFFF" height="116.6641" style="stroke:#181818;stroke-width:1;" width="10" x="1342.104" y="520.0938"/></g><g><title>CourseDB</title><rect fill="#FFFFFF" height="29.1328" style="stroke:#181818;stroke-width:1;" width="10" x="1342.104" y="665.8906"/></g><rect fill="none" height="614.8594" style="stroke:#000000;stroke-width:1.5;" width="1639.3252" x="10" y="292.2266"/><g class="participant-lifeline" data-entity-uid="part1" data-qualified-name="L" id="part1-lifeline"><g><title>Learner</title><rect fill="#000000" fill-opacity="0.00000" height="836.6563" width="8" x="45.9951" y="87.4297"/><line style="stroke:#181818;stroke-width:0.5;stroke-dasharray:5,5;" x1="49" x2="49" y1="87.4297" y2="924.0859"/></g></g><g class="participant-lifeline" data-entity-uid="part2" data-qualified-name="WA" id="part2-lifeline"><g><title>WebApp</title><rect fill="#000000" fill-opacity="0.00000" height="836.6563" width="8" x="292.5259" y="87.4297"/><line style="stroke:#181818;stroke-width:0.5;stroke-dasharray:5,5;" x1="296.1792" x2="296.1792" y1="87.4297" y2="924.0859"/></g></g><g class="participant-lifeline" data-entity-uid="part3" data-qualified-name="GW" id="part3-lifeline"><g><title>API Gateway</title><rect fill="#000000" fill-opacity="0.00000" height="836.6563" width="8" x="550.1567" y="87.4297"/><line style="stroke:#181818;stroke-width:0.5;stroke-dasharray:5,5;" x1="553.9351" x2="553.9351" y1="87.4297" y2="924.0859"/></g></g><g class="participant-lifeline" data-entity-uid="part4" data-qualified-name="CC" id="part4-lifeline"><g><title>CourseController</title><rect fill="#000000" fill-opacity="0.00000" height="836.6563" width="8" x="780.3003" y="87.4297"/><line style="stroke:#181818;stroke-width:0.5;stroke-dasharray:5,5;" x1="784.2754" x2="784.2754" y1="87.4297" y2="924.0859"/></g></g><g class="participant-lifeline" data-entity-uid="part5" data-qualified-name="CA" id="part5-lifeline"><g><title>CourseApp</title><rect fill="#000000" fill-opacity="0.00000" height="836.6563" width="8" x="1045.3452" y="87.4297"/><line style="stroke:#181818;stroke-width:0.5;stroke-dasharray:5,5;" x1="1049.2314" x2="1049.2314" y1="87.4297" y2="924.0859"/></g></g><g class="participant-lifeline" data-entity-uid="part6" data-qualified-name="CDB" id="part6-lifeline"><g><title>CourseDB</title><rect fill="#000000" fill-opacity="0.00000" height="836.6563" width="8" x="1343.104" y="87.4297"/><line style="stroke:#181818;stroke-width:0.5;stroke-dasharray:5,5;" x1="1346.4731" x2="1346.4731" y1="87.4297" y2="924.0859"/></g></g><g class="participant participant-head" data-entity-uid="part1" data-qualified-name="L" id="part1-head"><text fill="#000000" font-family="sans-serif" font-size="14" lengthAdjust="spacing" textLength="53.9902" x="20" y="84.1279">Learner</text><ellipse cx="49.9951" cy="19.6328" fill="#E2E2F0" rx="8" ry="8" style="stroke:#181818;stroke-width:0.5;"/><path d="M49.9951,27.6328 L49.9951,54.6328 M36.9951,35.6328 L62.9951,35.6328 M49.9951,54.6328 L36.9951,69.6328 M49.9951,54.6328 L62.9951,69.6328" fill="none" style="stroke:#181818;stroke-width:0.5;"/></g><g class="participant participant-tail" data-entity-uid="part1" data-qualified-name="L" id="part1-tail"><text fill="#000000" font-family="sans-serif" font-size="14" lengthAdjust="spacing" textLength="53.9902" x="20" y="936.0811">Learner</text><ellipse cx="49.9951" cy="947.8828" fill="#E2E2F0" rx="8" ry="8" style="stroke:#181818;stroke-width:0.5;"/><path d="M49.9951,955.8828 L49.9951,982.8828 M36.9951,963.8828 L62.9951,963.8828 M49.9951,982.8828 L36.9951,997.8828 M49.9951,982.8828 L62.9951,997.8828" fill="none" style="stroke:#181818;stroke-width:0.5;"/></g><g class="participant participant-head" data-entity-uid="part2" data-qualified-name="WA" id="part2-head"><text fill="#000000" font-family="sans-serif" font-size="14" lengthAdjust="spacing" textLength="58.6934" x="264.1792" y="84.1279">WebApp</text><path d="M276.0259,43.1328 L276.0259,67.1328 M276.0259,55.1328 L293.0259,55.1328" fill="none" style="stroke:#181818;stroke-width:0.5;"/><ellipse cx="305.0259" cy="55.1328" fill="#E2E2F0" rx="12" ry="12" style="stroke:#181818;stroke-width:0.5;"/></g><g class="participant participant-tail" data-entity-uid="part2" data-qualified-name="WA" id="part2-tail"><text fill="#000000" font-family="sans-serif" font-size="14" lengthAdjust="spacing" textLength="58.6934" x="264.1792" y="936.0811">WebApp</text><path d="M276.0259,943.3828 L276.0259,967.3828 M276.0259,955.3828 L293.0259,955.3828" fill="none" style="stroke:#181818;stroke-width:0.5;"/><ellipse cx="305.0259" cy="955.3828" fill="#E2E2F0" rx="12" ry="12" style="stroke:#181818;stroke-width:0.5;"/></g><g class="participant participant-head" data-entity-uid="part3" data-qualified-name="GW" id="part3-head"><text fill="#000000" font-family="sans-serif" font-size="14" lengthAdjust="spacing" textLength="88.4434" x="506.9351" y="84.1279">API Gateway</text><ellipse cx="554.1567" cy="55.1328" fill="#E2E2F0" rx="12" ry="12" style="stroke:#181818;stroke-width:0.5;"/><polygon fill="#181818" points="550.1567,43.1328,556.1567,38.1328,554.1567,43.1328,556.1567,48.1328,550.1567,43.1328" style="stroke:#181818;stroke-width:1;"/></g><g class="participant participant-tail" data-entity-uid="part3" data-qualified-name="GW" id="part3-tail"><text fill="#000000" font-family="sans-serif" font-size="14" lengthAdjust="spacing" textLength="88.4434" x="506.9351" y="936.0811">API Gateway</text><ellipse cx="554.1567" cy="955.3828" fill="#E2E2F0" rx="12" ry="12" style="stroke:#181818;stroke-width:0.5;"/><polygon fill="#181818" points="550.1567,943.3828,556.1567,938.3828,554.1567,943.3828,556.1567,948.3828,550.1567,943.3828" style="stroke:#181818;stroke-width:1;"/></g><g class="participant participant-head" data-entity-uid="part4" data-qualified-name="CC" id="part4-head"><text fill="#000000" font-family="sans-serif" font-size="14" lengthAdjust="spacing" textLength="118.0498" x="722.2754" y="84.1279">CourseController</text><ellipse cx="784.3003" cy="55.1328" fill="#E2E2F0" rx="12" ry="12" style="stroke:#181818;stroke-width:0.5;"/><polygon fill="#181818" points="780.3003,43.1328,786.3003,38.1328,784.3003,43.1328,786.3003,48.1328,780.3003,43.1328" style="stroke:#181818;stroke-width:1;"/></g><g class="participant participant-tail" data-entity-uid="part4" data-qualified-name="CC" id="part4-tail"><text fill="#000000" font-family="sans-serif" font-size="14" lengthAdjust="spacing" textLength="118.0498" x="722.2754" y="936.0811">CourseController</text><ellipse cx="784.3003" cy="955.3828" fill="#E2E2F0" rx="12" ry="12" style="stroke:#181818;stroke-width:0.5;"/><polygon fill="#181818" points="780.3003,943.3828,786.3003,938.3828,784.3003,943.3828,786.3003,948.3828,780.3003,943.3828" style="stroke:#181818;stroke-width:1;"/></g><g class="participant participant-head" data-entity-uid="part5" data-qualified-name="CA" id="part5-head"><text fill="#000000" font-family="sans-serif" font-size="14" lengthAdjust="spacing" textLength="76.2275" x="1008.2314" y="84.1279">CourseApp</text><ellipse cx="1049.3452" cy="55.1328" fill="#E2E2F0" rx="12" ry="12" style="stroke:#181818;stroke-width:0.5;"/><polygon fill="#181818" points="1045.3452,43.1328,1051.3452,38.1328,1049.3452,43.1328,1051.3452,48.1328,1045.3452,43.1328" style="stroke:#181818;stroke-width:1;"/></g><g class="participant participant-tail" data-entity-uid="part5" data-qualified-name="CA" id="part5-tail"><text fill="#000000" font-family="sans-serif" font-size="14" lengthAdjust="spacing" textLength="76.2275" x="1008.2314" y="936.0811">CourseApp</text><ellipse cx="1049.3452" cy="955.3828" fill="#E2E2F0" rx="12" ry="12" style="stroke:#181818;stroke-width:0.5;"/><polygon fill="#181818" points="1045.3452,943.3828,1051.3452,938.3828,1049.3452,943.3828,1051.3452,948.3828,1045.3452,943.3828" style="stroke:#181818;stroke-width:1;"/></g><g class="participant participant-head" data-entity-uid="part6" data-qualified-name="CDB" id="part6-head"><text fill="#000000" font-family="sans-serif" font-size="14" lengthAdjust="spacing" textLength="69.2617" x="1309.4731" y="84.1279">CourseDB</text><path d="M1329.104,35.1328 C1329.104,25.1328 1347.104,25.1328 1347.104,25.1328 C1347.104,25.1328 1365.104,25.1328 1365.104,35.1328 L1365.104,61.1328 C1365.104,71.1328 1347.104,71.1328 1347.104,71.1328 C1347.104,71.1328 1329.104,71.1328 1329.104,61.1328 L1329.104,35.1328" fill="#E2E2F0" style="stroke:#181818;stroke-width:0.5;"/><path d="M1329.104,35.1328 C1329.104,45.1328 1347.104,45.1328 1347.104,45.1328 C1347.104,45.1328 1365.104,45.1328 1365.104,35.1328" fill="none" style="stroke:#181818;stroke-width:0.5;"/></g><g class="participant participant-tail" data-entity-uid="part6" data-qualified-name="CDB" id="part6-tail"><text fill="#000000" font-family="sans-serif" font-size="14" lengthAdjust="spacing" textLength="69.2617" x="1309.4731" y="936.0811">CourseDB</text><path d="M1329.104,949.3828 C1329.104,939.3828 1347.104,939.3828 1347.104,939.3828 C1347.104,939.3828 1365.104,939.3828 1365.104,949.3828 L1365.104,975.3828 C1365.104,985.3828 1347.104,985.3828 1347.104,985.3828 C1347.104,985.3828 1329.104,985.3828 1329.104,975.3828 L1329.104,949.3828" fill="#E2E2F0" style="stroke:#181818;stroke-width:0.5;"/><path d="M1329.104,949.3828 C1329.104,959.3828 1347.104,959.3828 1347.104,959.3828 C1347.104,959.3828 1365.104,959.3828 1365.104,949.3828" fill="none" style="stroke:#181818;stroke-width:0.5;"/></g><g><title>Learner</title><rect fill="#FFFFFF" height="328.4609" style="stroke:#181818;stroke-width:1;" width="10" x="44.9951" y="118.5625"/></g><g><title>WebApp</title><rect fill="#FFFFFF" height="328.4609" style="stroke:#181818;stroke-width:1;" width="10" x="291.5259" y="118.5625"/></g><g><title>API Gateway</title><rect fill="#FFFFFF" height="270.1953" style="stroke:#181818;stroke-width:1;" width="10" x="549.1567" y="147.6953"/></g><g><title>CourseController</title><rect fill="#FFFFFF" height="169.7969" style="stroke:#181818;stroke-width:1;" width="10" x="779.3003" y="218.9609"/></g><g><title>CourseApp</title><rect fill="#FFFFFF" height="518.1953" style="stroke:#181818;stroke-width:1;" width="10" x="1044.3452" y="248.0938"/></g><g><title>CourseDB</title><rect fill="#FFFFFF" height="53.2656" style="stroke:#181818;stroke-width:1;" width="10" x="1342.104" y="277.2266"/></g><g><title>CourseDB</title><rect fill="#FFFFFF" height="116.6641" style="stroke:#181818;stroke-width:1;" width="10" x="1342.104" y="520.0938"/></g><g><title>CourseDB</title><rect fill="#FFFFFF" height="29.1328" style="stroke:#181818;stroke-width:1;" width="10" x="1342.104" y="665.8906"/></g><g class="message" data-entity-1="part1" data-entity-2="part2" id="msg1"><polygon fill="#181818" points="279.5259,114.5625,289.5259,118.5625,279.5259,122.5625,283.5259,118.5625" style="stroke:#181818;stroke-width:1;"/><line style="stroke:#181818;stroke-width:1;" x1="54.9951" x2="285.5259" y1="118.5625" y2="118.5625"/><text fill="#000000" font-family="sans-serif" font-size="13" font-weight="bold" lengthAdjust="spacing" textLength="9.0454" x="61.9951" y="113.4966">1</text><text fill="#000000" font-family="sans-serif" font-size="13" lengthAdjust="spacing" textLength="149.4619" x="75.0405" y="113.4966">Access enrolled course</text></g><g class="message" data-entity-1="part2" data-entity-2="part3" id="msg2"><polygon fill="#181818" points="537.1567,143.6953,547.1567,147.6953,537.1567,151.6953,541.1567,147.6953" style="stroke:#181818;stroke-width:1;"/><line style="stroke:#181818;stroke-width:1;" x1="301.5259" x2="543.1567" y1="147.6953" y2="147.6953"/><text fill="#000000" font-family="sans-serif" font-size="13" font-weight="bold" lengthAdjust="spacing" textLength="9.0454" x="308.5259" y="142.6294">2</text><text fill="#000000" font-family="sans-serif" font-size="13" lengthAdjust="spacing" textLength="215.5854" x="321.5713" y="142.6294">GET /courses/{courseId}/content</text></g><g class="message" data-entity-1="part3" data-entity-2="part3" id="msg3"><line style="stroke:#181818;stroke-width:1;" x1="559.1567" x2="601.1567" y1="176.8281" y2="176.8281"/><line style="stroke:#181818;stroke-width:1;" x1="601.1567" x2="601.1567" y1="176.8281" y2="189.8281"/><line style="stroke:#181818;stroke-width:1;" x1="560.1567" x2="601.1567" y1="189.8281" y2="189.8281"/><polygon fill="#181818" points="570.1567,185.8281,560.1567,189.8281,570.1567,193.8281,566.1567,189.8281" style="stroke:#181818;stroke-width:1;"/><text fill="#000000" font-family="sans-serif" font-size="13" font-weight="bold" lengthAdjust="spacing" textLength="9.0454" x="566.1567" y="171.7622">3</text><text fill="#000000" font-family="sans-serif" font-size="13" lengthAdjust="spacing" textLength="183.0981" x="579.2021" y="171.7622">Validate JWT, extract userID</text></g><g class="message" data-entity-1="part3" data-entity-2="part4" id="msg4"><polygon fill="#181818" points="767.3003,214.9609,777.3003,218.9609,767.3003,222.9609,771.3003,218.9609" style="stroke:#181818;stroke-width:1;"/><line style="stroke:#181818;stroke-width:1;" x1="559.1567" x2="773.3003" y1="218.9609" y2="218.9609"/><text fill="#000000" font-family="sans-serif" font-size="13" font-weight="bold" lengthAdjust="spacing" textLength="9.0454" x="566.1567" y="213.895">4</text><text fill="#000000" font-family="sans-serif" font-size="13" lengthAdjust="spacing" textLength="106.8057" x="579.2021" y="213.895">Forward request</text></g><g class="message" data-entity-1="part4" data-entity-2="part5" id="msg5"><polygon fill="#181818" points="1032.3452,244.0938,1042.3452,248.0938,1032.3452,252.0938,1036.3452,248.0938" style="stroke:#181818;stroke-width:1;"/><line style="stroke:#181818;stroke-width:1;" x1="789.3003" x2="1038.3452" y1="248.0938" y2="248.0938"/><text fill="#000000" font-family="sans-serif" font-size="13" font-weight="bold" lengthAdjust="spacing" textLength="9.0454" x="796.3003" y="243.0278">5</text><text fill="#000000" font-family="sans-serif" font-size="13" lengthAdjust="spacing" textLength="222.9995" x="809.3457" y="243.0278">GetCourseDetail(courseId, userID)</text></g><g class="message" data-entity-1="part5" data-entity-2="part6" id="msg6"><polygon fill="#181818" points="1330.104,273.2266,1340.104,277.2266,1330.104,281.2266,1334.104,277.2266" style="stroke:#181818;stroke-width:1;"/><line style="stroke:#181818;stroke-width:1;" x1="1054.3452" x2="1336.104" y1="277.2266" y2="277.2266"/><text fill="#000000" font-family="sans-serif" font-size="13" font-weight="bold" lengthAdjust="spacing" textLength="9.0454" x="1061.3452" y="272.1606">6</text><text fill="#000000" font-family="sans-serif" font-size="13" lengthAdjust="spacing" textLength="113.0073" x="1074.3906" y="272.1606">Verify enrollment</text></g><path d="M10,292.2266 L74.4429,292.2266 L74.4429,299.3594 L64.4429,309.3594 L10,309.3594 L10,292.2266" fill="#EEEEEE" style="stroke:#000000;stroke-width:1.5;"/><rect fill="none" height="614.8594" style="stroke:#000000;stroke-width:1.5;" width="1639.3252" x="10" y="292.2266"/><text fill="#000000" font-family="sans-serif" font-size="13" font-weight="bold" lengthAdjust="spacing" textLength="19.4429" x="25" y="305.2935">alt</text><text fill="#000000" font-family="sans-serif" font-size="11" font-weight="bold" lengthAdjust="spacing" textLength="87.0547" x="89.4429" y="304.437">[Not enrolled]</text><g class="message" data-entity-1="part6" data-entity-2="part5" id="msg7"><polygon fill="#181818" points="1065.3452,326.4922,1055.3452,330.4922,1065.3452,334.4922,1061.3452,330.4922" style="stroke:#181818;stroke-width:1;"/><line style="stroke:#181818;stroke-width:1;stroke-dasharray:2,2;" x1="1059.3452" x2="1346.104" y1="330.4922" y2="330.4922"/><text fill="#000000" font-family="sans-serif" font-size="13" font-weight="bold" lengthAdjust="spacing" textLength="9.0454" x="1071.3452" y="325.4263">7</text><text fill="#000000" font-family="sans-serif" font-size="13" lengthAdjust="spacing" textLength="64.1685" x="1084.3906" y="325.4263">Not found</text></g><g class="message" data-entity-1="part5" data-entity-2="part4" id="msg8"><polygon fill="#181818" points="800.3003,355.625,790.3003,359.625,800.3003,363.625,796.3003,359.625" style="stroke:#181818;stroke-width:1;"/><line style="stroke:#181818;stroke-width:1;stroke-dasharray:2,2;" x1="794.3003" x2="1043.3452" y1="359.625" y2="359.625"/><text fill="#000000" font-family="sans-serif" font-size="13" font-weight="bold" lengthAdjust="spacing" textLength="9.0454" x="806.3003" y="354.5591">8</text><text fill="#000000" font-family="sans-serif" font-size="13" lengthAdjust="spacing" textLength="94.3262" x="819.3457" y="354.5591">403 Forbidden</text></g><g class="message" data-entity-1="part4" data-entity-2="part3" id="msg9"><polygon fill="#181818" points="570.1567,384.7578,560.1567,388.7578,570.1567,392.7578,566.1567,388.7578" style="stroke:#181818;stroke-width:1;"/><line style="stroke:#181818;stroke-width:1;stroke-dasharray:2,2;" x1="564.1567" x2="783.3003" y1="388.7578" y2="388.7578"/><text fill="#000000" font-family="sans-serif" font-size="13" font-weight="bold" lengthAdjust="spacing" textLength="9.0454" x="576.1567" y="383.6919">9</text><text fill="#000000" font-family="sans-serif" font-size="13" lengthAdjust="spacing" textLength="32.2017" x="589.2021" y="383.6919">Error</text></g><g class="message" data-entity-1="part3" data-entity-2="part2" id="msg10"><polygon fill="#181818" points="312.5259,413.8906,302.5259,417.8906,312.5259,421.8906,308.5259,417.8906" style="stroke:#181818;stroke-width:1;"/><line style="stroke:#181818;stroke-width:1;stroke-dasharray:2,2;" x1="306.5259" x2="553.1567" y1="417.8906" y2="417.8906"/><text fill="#000000" font-family="sans-serif" font-size="13" font-weight="bold" lengthAdjust="spacing" textLength="18.0908" x="318.5259" y="412.8247">10</text><text fill="#000000" font-family="sans-serif" font-size="13" lengthAdjust="spacing" textLength="32.2017" x="340.6167" y="412.8247">Error</text></g><g class="message" data-entity-1="part2" data-entity-2="part1" id="msg11"><polygon fill="#181818" points="60.9951,443.0234,50.9951,447.0234,60.9951,451.0234,56.9951,447.0234" style="stroke:#181818;stroke-width:1;"/><line style="stroke:#181818;stroke-width:1;" x1="54.9951" x2="295.5259" y1="447.0234" y2="447.0234"/><text fill="#000000" font-family="sans-serif" font-size="13" font-weight="bold" lengthAdjust="spacing" textLength="18.0908" x="66.9951" y="441.9575">11</text><text fill="#000000" font-family="sans-serif" font-size="13" lengthAdjust="spacing" textLength="160.5703" x="89.0859" y="441.9575">Redirect to landing page</text></g><line style="stroke:#000000;stroke-width:1;stroke-dasharray:2,2;" x1="10" x2="1649.3252" y1="456.0234" y2="456.0234"/><text fill="#000000" font-family="sans-serif" font-size="11" font-weight="bold" lengthAdjust="spacing" textLength="61.2573" x="15" y="466.2339">[Enrolled]</text><g class="message" data-entity-1="part6" data-entity-2="part5" id="msg12"><polygon fill="#181818" points="1065.3452,486.9609,1055.3452,490.9609,1065.3452,494.9609,1061.3452,490.9609" style="stroke:#181818;stroke-width:1;"/><line style="stroke:#181818;stroke-width:1;stroke-dasharray:2,2;" x1="1059.3452" x2="1346.104" y1="490.9609" y2="490.9609"/><text fill="#000000" font-family="sans-serif" font-size="13" font-weight="bold" lengthAdjust="spacing" textLength="18.0908" x="1071.3452" y="485.895">12</text><text fill="#000000" font-family="sans-serif" font-size="13" lengthAdjust="spacing" textLength="140.8926" x="1093.436" y="485.895">Enrollment confirmed</text></g><g class="message" data-entity-1="part5" data-entity-2="part6" id="msg13"><polygon fill="#181818" points="1330.104,516.0938,1340.104,520.0938,1330.104,524.0938,1334.104,520.0938" style="stroke:#181818;stroke-width:1;"/><line style="stroke:#181818;stroke-width:1;" x1="1054.3452" x2="1336.104" y1="520.0938" y2="520.0938"/><text fill="#000000" font-family="sans-serif" font-size="13" font-weight="bold" lengthAdjust="spacing" textLength="18.0908" x="1061.3452" y="515.0278">13</text><text fill="#000000" font-family="sans-serif" font-size="13" lengthAdjust="spacing" textLength="148.8335" x="1083.436" y="515.0278">Get full course content</text></g><g class="message" data-entity-1="part6" data-entity-2="part6" id="msg14"><line style="stroke:#181818;stroke-width:1;" x1="1352.104" x2="1394.104" y1="594.625" y2="594.625"/><line style="stroke:#181818;stroke-width:1;" x1="1394.104" x2="1394.104" y1="594.625" y2="607.625"/><line style="stroke:#181818;stroke-width:1;" x1="1353.104" x2="1394.104" y1="607.625" y2="607.625"/><polygon fill="#181818" points="1363.104,603.625,1353.104,607.625,1363.104,611.625,1359.104,607.625" style="stroke:#181818;stroke-width:1;"/><text fill="#000000" font-family="sans-serif" font-size="13" font-weight="bold" lengthAdjust="spacing" textLength="18.0908" x="1359.104" y="566.8599">14</text><text fill="#000000" font-family="sans-serif" font-size="13" lengthAdjust="spacing" textLength="156.0254" x="1381.1948" y="544.1606">SELECT * FROM courses</text><text fill="#000000" font-family="sans-serif" font-size="13" lengthAdjust="spacing" textLength="85.3506" x="1381.1948" y="559.2935">JOIN sections</text><text fill="#000000" font-family="sans-serif" font-size="13" lengthAdjust="spacing" textLength="79.8789" x="1381.1948" y="574.4263">JOIN lessons</text><text fill="#000000" font-family="sans-serif" font-size="13" lengthAdjust="spacing" textLength="246.1304" x="1381.1948" y="589.5591">ORDER BY section.order, lesson.order</text></g><g class="message" data-entity-1="part6" data-entity-2="part5" id="msg15"><polygon fill="#181818" points="1065.3452,632.7578,1055.3452,636.7578,1065.3452,640.7578,1061.3452,636.7578" style="stroke:#181818;stroke-width:1;"/><line style="stroke:#181818;stroke-width:1;stroke-dasharray:2,2;" x1="1059.3452" x2="1346.104" y1="636.7578" y2="636.7578"/><text fill="#000000" font-family="sans-serif" font-size="13" font-weight="bold" lengthAdjust="spacing" textLength="18.0908" x="1071.3452" y="631.6919">15</text><text fill="#000000" font-family="sans-serif" font-size="13" lengthAdjust="spacing" textLength="155.1748" x="1093.436" y="631.6919">Course with full content</text></g><g class="message" data-entity-1="part5" data-entity-2="part6" id="msg16"><polygon fill="#181818" points="1330.104,661.8906,1340.104,665.8906,1330.104,669.8906,1334.104,665.8906" style="stroke:#181818;stroke-width:1;"/><line style="stroke:#181818;stroke-width:1;" x1="1054.3452" x2="1336.104" y1="665.8906" y2="665.8906"/><text fill="#000000" font-family="sans-serif" font-size="13" font-weight="bold" lengthAdjust="spacing" textLength="18.0908" x="1061.3452" y="660.8247">16</text><text fill="#000000" font-family="sans-serif" font-size="13" lengthAdjust="spacing" textLength="172.3071" x="1083.436" y="660.8247">Get user's lesson progress</text></g><g class="message" data-entity-1="part6" data-entity-2="part5" id="msg17"><polygon fill="#181818" points="1065.3452,691.0234,1055.3452,695.0234,1065.3452,699.0234,1061.3452,695.0234" style="stroke:#181818;stroke-width:1;"/><line style="stroke:#181818;stroke-width:1;stroke-dasharray:2,2;" x1="1059.3452" x2="1346.104" y1="695.0234" y2="695.0234"/><text fill="#000000" font-family="sans-serif" font-size="13" font-weight="bold" lengthAdjust="spacing" textLength="18.0908" x="1071.3452" y="689.9575">17</text><text fill="#000000" font-family="sans-serif" font-size="13" lengthAdjust="spacing" textLength="89.6924" x="1093.436" y="689.9575">Progress data</text></g><g class="message" data-entity-1="part5" data-entity-2="part5" id="msg18"><line style="stroke:#181818;stroke-width:1;" x1="1054.3452" x2="1096.3452" y1="724.1563" y2="724.1563"/><line style="stroke:#181818;stroke-width:1;" x1="1096.3452" x2="1096.3452" y1="724.1563" y2="737.1563"/><line style="stroke:#181818;stroke-width:1;" x1="1055.3452" x2="1096.3452" y1="737.1563" y2="737.1563"/><polygon fill="#181818" points="1065.3452,733.1563,1055.3452,737.1563,1065.3452,741.1563,1061.3452,737.1563" style="stroke:#181818;stroke-width:1;"/><text fill="#000000" font-family="sans-serif" font-size="13" font-weight="bold" lengthAdjust="spacing" textLength="18.0908" x="1061.3452" y="719.0903">18</text><text fill="#000000" font-family="sans-serif" font-size="13" lengthAdjust="spacing" textLength="241.668" x="1083.436" y="719.0903">Merge progress into course structure</text></g><g class="message" data-entity-1="part5" data-entity-2="part4" id="msg19"><polygon fill="#181818" points="795.3003,762.2891,785.3003,766.2891,795.3003,770.2891,791.3003,766.2891" style="stroke:#181818;stroke-width:1;"/><line style="stroke:#181818;stroke-width:1;stroke-dasharray:2,2;" x1="789.3003" x2="1048.3452" y1="766.2891" y2="766.2891"/><text fill="#000000" font-family="sans-serif" font-size="13" font-weight="bold" lengthAdjust="spacing" textLength="18.0908" x="801.3003" y="761.2231">19</text><text fill="#000000" font-family="sans-serif" font-size="13" lengthAdjust="spacing" textLength="204.4009" x="823.3911" y="761.2231">CourseDetailDTO with progress</text></g><g class="message" data-entity-1="part4" data-entity-2="part3" id="msg20"><polygon fill="#181818" points="565.1567,791.4219,555.1567,795.4219,565.1567,799.4219,561.1567,795.4219" style="stroke:#181818;stroke-width:1;"/><line style="stroke:#181818;stroke-width:1;stroke-dasharray:2,2;" x1="559.1567" x2="783.3003" y1="795.4219" y2="795.4219"/><text fill="#000000" font-family="sans-serif" font-size="13" font-weight="bold" lengthAdjust="spacing" textLength="18.0908" x="571.1567" y="790.356">20</text><text fill="#000000" font-family="sans-serif" font-size="13" lengthAdjust="spacing" textLength="47.7026" x="593.2476" y="790.356">200 OK</text></g><g class="message" data-entity-1="part3" data-entity-2="part2" id="msg21"><polygon fill="#181818" points="307.5259,820.5547,297.5259,824.5547,307.5259,828.5547,303.5259,824.5547" style="stroke:#181818;stroke-width:1;"/><line style="stroke:#181818;stroke-width:1;stroke-dasharray:2,2;" x1="301.5259" x2="553.1567" y1="824.5547" y2="824.5547"/><text fill="#000000" font-family="sans-serif" font-size="13" font-weight="bold" lengthAdjust="spacing" textLength="18.0908" x="313.5259" y="819.4888">21</text><text fill="#000000" font-family="sans-serif" font-size="13" lengthAdjust="spacing" textLength="124.4331" x="335.6167" y="819.4888">Full course content</text></g><g class="message" data-entity-1="part2" data-entity-2="part1" id="msg22"><polygon fill="#181818" points="60.9951,895.0859,50.9951,899.0859,60.9951,903.0859,56.9951,899.0859" style="stroke:#181818;stroke-width:1;"/><line style="stroke:#181818;stroke-width:1;" x1="54.9951" x2="295.5259" y1="899.0859" y2="899.0859"/><text fill="#000000" font-family="sans-serif" font-size="13" font-weight="bold" lengthAdjust="spacing" textLength="18.0908" x="66.9951" y="871.3208">22</text><text fill="#000000" font-family="sans-serif" font-size="13" lengthAdjust="spacing" textLength="162.3667" x="89.0859" y="848.6216">Display course player UI:</text><text fill="#000000" font-family="sans-serif" font-size="13" lengthAdjust="spacing" textLength="200.4399" x="89.0859" y="863.7544">- Sidebar with sections/lessons</text><text fill="#000000" font-family="sans-serif" font-size="13" lengthAdjust="spacing" textLength="133.231" x="89.0859" y="878.8872">- Progress indicators</text><text fill="#000000" font-family="sans-serif" font-size="13" lengthAdjust="spacing" textLength="157.5488" x="89.0859" y="894.02">- Current lesson content</text></g><?plantuml-src XLJBRjim4BphAnRfeG_4jViu6KK1MLOCfquSE6w50BdGujeXAfFkYefZ5FttBYNAaLmXlP7SdUNCS2HHMAEBxGef2FAVIky4YIsCpDEDa5Bf3NmO1858hI6OeI2D12A7MR0oXPQ23f3WAjpjt64I1dpy16VXpHGcmk9U7CxWrKnj7kmeAp00I8ssPBAJ5iPEaW2r18Rx6P4fA4UuHNfKATPZxZ3BpBung6gBgbrMaOkYVneymoZaYXHMh0JFhahZKLaPZvu9pA3tbTKC8KnJp7D0NGwNFDGXd1tgaScp3SUb4v-43ZX9XZ29bz2lklF-xsenbN_wZXLg-mnZtPEaHlqGcPBkz39PdWC-MU8-A7AawTYtHT4GBWpj1KaW_5LWtXZ6meCeAjkO_0IjLuXMgEnDpUBSJtpR03Bvg2JFFZ0F9BK-UDdR5b_dKo0o2zV67drXKndzfTUhuAwqTl5mPcCBoerHrSW4Fmy-EIqh9ILgBh72iiGIOo939t3tgabrZJEheuNDB5jOnsm82vIAa0sq1ZAXop3ln0RRc2HixsS1PfoDk5jQVBJ41MojQ8iTAYjGxIQ_0woBBFFfWJe30AVMS1Hhq6qyYwCbl8EBnVpA8_DxVJcVNaFEefJHzJRZY9Qx-M8SBs1qLpUyDoIHpdr3jJlHux-olR8FDSUQt7yrkHIzplrqs97P42yxP3Nkk_5TvKVuqYKSZoka3HxdWjByZjx2t5AHse8mQ2UgcVVnSbxfQZ1hNXUs4_TnC83vjvSZTz7vYkq0DXCuLlak4uSQujRyX_e-7Txh7jmgYIj15SVwIVl7n-mzUwKukwdWFt1v71L4Bd_UzquU7Q7ch_4l?></g></svg>