<?plantuml 1.2026.1?><svg xmlns="http://www.w3.org/2000/svg" xmlns:xlink="http://www.w3.org/1999/xlink" contentStyleType="text/css" data-diagram-type="SEQUENCE" height="1167px" preserveAspectRatio="none" style="width:1621px;height:1167px;background:#FFFFFF;" version="1.1" viewBox="0 0 1621 1167" width="1621px" zoomAndPan="magnify"><defs/><g><rect fill="#ADD8E6" height="1155.4531" style="stroke:#181818;stroke-width:0.5;" width="102.4434" x="556.4048" y="6"/><text fill="#000000" font-family="sans-serif" font-size="13" font-weight="bold" lengthAdjust="spacing" textLength="92.6821" x="561.2854" y="18.0669">API Gateway</text><rect fill="#FFFFE0" height="1155.4531" style="stroke:#181818;stroke-width:0.5;" width="829.7456" x="768.6035" y="6"/><text fill="#000000" font-family="sans-serif" font-size="13" font-weight="bold" lengthAdjust="spacing" textLength="109.2622" x="1128.8452" y="18.0669">Course Service</text><g><title>Admin</title><rect fill="#FFFFFF" height="399.7266" style="stroke:#181818;stroke-width:1;" width="10" x="50.4321" y="118.5625"/></g><g><title>WebApp</title><rect fill="#FFFFFF" height="399.7266" style="stroke:#181818;stroke-width:1;" width="10" x="297.0391" y="118.5625"/></g><g><title>API Gateway</title><rect fill="#FFFFFF" height="270.1953" style="stroke:#181818;stroke-width:1;" width="10" x="602.6265" y="218.9609"/></g><g><title>AdminCourseController</title><rect fill="#FFFFFF" height="169.7969" style="stroke:#181818;stroke-width:1;" width="10" x="852.0605" y="290.2266"/></g><g><title>CourseApp</title><rect fill="#FFFFFF" height="628.2656" style="stroke:#181818;stroke-width:1;" width="10" x="1113.8745" y="319.3594"/></g><g><title>Course</title><rect fill="#FFFFFF" height="71.2656" style="stroke:#181818;stroke-width:1;" width="10" x="1340.6685" y="788.9609"/></g><g><title>CourseDB</title><rect fill="#FFFFFF" height="53.2656" style="stroke:#181818;stroke-width:1;" width="10" x="1551.7183" y="348.4922"/></g><g><title>CourseDB</title><rect fill="#FFFFFF" height="29.1328" style="stroke:#181818;stroke-width:1;" width="10" x="1551.7183" y="889.3594"/></g><rect fill="none" height="701.6641" style="stroke:#000000;stroke-width:1.5;" width="1604.3491" x="10" y="363.4922"/><rect fill="none" height="438.7969" style="stroke:#000000;stroke-width:1.5;" width="1584.3491" x="20" y="619.3594"/><g class="participant-lifeline" data-entity-uid="part1" data-qualified-name="A" id="part1-lifeline"><g><title>Admin</title><rect fill="#000000" fill-opacity="0.00000" height="994.7266" width="8" x="51.4321" y="87.4297"/><line style="stroke:#181818;stroke-width:0.5;stroke-dasharray:5,5;" x1="55" x2="55" y1="87.4297" y2="1082.1563"/></g></g><g class="participant-lifeline" data-entity-uid="part2" data-qualified-name="WA" id="part2-lifeline"><g><title>WebApp</title><rect fill="#000000" fill-opacity="0.00000" height="994.7266" width="8" x="298.0391" y="87.4297"/><line style="stroke:#181818;stroke-width:0.5;stroke-dasharray:5,5;" x1="301.6924" x2="301.6924" y1="87.4297" y2="1082.1563"/></g></g><g class="participant-lifeline" data-entity-uid="part3" data-qualified-name="GW" id="part3-lifeline"><g><title>API Gateway</title><rect fill="#000000" fill-opacity="0.00000" height="994.7266" width="8" x="603.6265" y="87.4297"/><line style="stroke:#181818;stroke-width:0.5;stroke-dasharray:5,5;" x1="607.4048" x2="607.4048" y1="87.4297" y2="1082.1563"/></g></g><g class="participant-lifeline" data-entity-uid="part4" data-qualified-name="ACC" id="part4-lifeline"><g><title>AdminCourseController</title><rect fill="#000000" fill-opacity="0.00000" height="994.7266" width="8" x="853.0605" y="87.4297"/><line style="stroke:#181818;stroke-width:0.5;stroke-dasharray:5,5;" x1="856.6035" x2="856.6035" y1="87.4297" y2="1082.1563"/></g></g><g class="participant-lifeline" data-entity-uid="part5" data-qualified-name="CA" id="part5-lifeline"><g><title>CourseApp</title><rect fill="#000000" fill-opacity="0.00000" height="994.7266" width="8" x="1114.8745" y="87.4297"/><line style="stroke:#181818;stroke-width:0.5;stroke-dasharray:5,5;" x1="1118.7607" x2="1118.7607" y1="87.4297" y2="1082.1563"/></g></g><g class="participant-lifeline" data-entity-uid="part6" data-qualified-name="C" id="part6-lifeline"><g><title>Course</title><rect fill="#000000" fill-opacity="0.00000" height="994.7266" width="8" x="1341.6685" y="87.4297"/><line style="stroke:#181818;stroke-width:0.5;stroke-dasharray:5,5;" x1="1345.23" x2="1345.23" y1="87.4297" y2="1082.1563"/></g></g><g class="participant-lifeline" data-entity-uid="part7" data-qualified-name="CDB" id="part7-lifeline"><g><title>CourseDB</title><rect fill="#000000" fill-opacity="0.00000" height="994.7266" width="8" x="1552.7183" y="87.4297"/><line style="stroke:#181818;stroke-width:0.5;stroke-dasharray:5,5;" x1="1556.0874" x2="1556.0874" y1="87.4297" y2="1082.1563"/></g></g><g class="participant participant-head" data-entity-uid="part1" data-qualified-name="A" id="part1-head"><text fill="#000000" font-family="sans-serif" font-size="14" lengthAdjust="spacing" textLength="44.8643" x="30" y="84.1279">Admin</text><ellipse cx="55.4321" cy="19.6328" fill="#E2E2F0" rx="8" ry="8" style="stroke:#181818;stroke-width:0.5;"/><path d="M55.4321,27.6328 L55.4321,54.6328 M42.4321,35.6328 L68.4321,35.6328 M55.4321,54.6328 L42.4321,69.6328 M55.4321,54.6328 L68.4321,69.6328" fill="none" style="stroke:#181818;stroke-width:0.5;"/></g><g class="participant participant-tail" data-entity-uid="part1" data-qualified-name="A" id="part1-tail"><text fill="#000000" font-family="sans-serif" font-size="14" lengthAdjust="spacing" textLength="44.8643" x="30" y="1094.1514">Admin</text><ellipse cx="55.4321" cy="1105.9531" fill="#E2E2F0" rx="8" ry="8" style="stroke:#181818;stroke-width:0.5;"/><path d="M55.4321,1113.9531 L55.4321,1140.9531 M42.4321,1121.9531 L68.4321,1121.9531 M55.4321,1140.9531 L42.4321,1155.9531 M55.4321,1140.9531 L68.4321,1155.9531" fill="none" style="stroke:#181818;stroke-width:0.5;"/></g><g class="participant participant-head" data-entity-uid="part2" data-qualified-name="WA" id="part2-head"><text fill="#000000" font-family="sans-serif" font-size="14" lengthAdjust="spacing" textLength="58.6934" x="269.6924" y="84.1279">WebApp</text><path d="M281.5391,43.1328 L281.5391,67.1328 M281.5391,55.1328 L298.5391,55.1328" fill="none" style="stroke:#181818;stroke-width:0.5;"/><ellipse cx="310.5391" cy="55.1328" fill="#E2E2F0" rx="12" ry="12" style="stroke:#181818;stroke-width:0.5;"/></g><g class="participant participant-tail" data-entity-uid="part2" data-qualified-name="WA" id="part2-tail"><text fill="#000000" font-family="sans-serif" font-size="14" lengthAdjust="spacing" textLength="58.6934" x="269.6924" y="1094.1514">WebApp</text><path d="M281.5391,1101.4531 L281.5391,1125.4531 M281.5391,1113.4531 L298.5391,1113.4531" fill="none" style="stroke:#181818;stroke-width:0.5;"/><ellipse cx="310.5391" cy="1113.4531" fill="#E2E2F0" rx="12" ry="12" style="stroke:#181818;stroke-width:0.5;"/></g><g class="participant participant-head" data-entity-uid="part3" data-qualified-name="GW" id="part3-head"><text fill="#000000" font-family="sans-serif" font-size="14" lengthAdjust="spacing" textLength="88.4434" x="560.4048" y="84.1279">API Gateway</text><ellipse cx="607.6265" cy="55.1328" fill="#E2E2F0" rx="12" ry="12" style="stroke:#181818;stroke-width:0.5;"/><polygon fill="#181818" points="603.6265,43.1328,609.6265,38.1328,607.6265,43.1328,609.6265,48.1328,603.6265,43.1328" style="stroke:#181818;stroke-width:1;"/></g><g class="participant participant-tail" data-entity-uid="part3" data-qualified-name="GW" id="part3-tail"><text fill="#000000" font-family="sans-serif" font-size="14" lengthAdjust="spacing" textLength="88.4434" x="560.4048" y="1094.1514">API Gateway</text><ellipse cx="607.6265" cy="1113.4531" fill="#E2E2F0" rx="12" ry="12" style="stroke:#181818;stroke-width:0.5;"/><polygon fill="#181818" points="603.6265,1101.4531,609.6265,1096.4531,607.6265,1101.4531,609.6265,1106.4531,603.6265,1101.4531" style="stroke:#181818;stroke-width:1;"/></g><g class="participant participant-head" data-entity-uid="part4" data-qualified-name="ACC" id="part4-head"><text fill="#000000" font-family="sans-serif" font-size="14" lengthAdjust="spacing" textLength="162.9141" x="772.6035" y="84.1279">AdminCourseController</text><ellipse cx="857.0605" cy="55.1328" fill="#E2E2F0" rx="12" ry="12" style="stroke:#181818;stroke-width:0.5;"/><polygon fill="#181818" points="853.0605,43.1328,859.0605,38.1328,857.0605,43.1328,859.0605,48.1328,853.0605,43.1328" style="stroke:#181818;stroke-width:1;"/></g><g class="participant participant-tail" data-entity-uid="part4" data-qualified-name="ACC" id="part4-tail"><text fill="#000000" font-family="sans-serif" font-size="14" lengthAdjust="spacing" textLength="162.9141" x="772.6035" y="1094.1514">AdminCourseController</text><ellipse cx="857.0605" cy="1113.4531" fill="#E2E2F0" rx="12" ry="12" style="stroke:#181818;stroke-width:0.5;"/><polygon fill="#181818" points="853.0605,1101.4531,859.0605,1096.4531,857.0605,1101.4531,859.0605,1106.4531,853.0605,1101.4531" style="stroke:#181818;stroke-width:1;"/></g><g class="participant participant-head" data-entity-uid="part5" data-qualified-name="CA" id="part5-head"><text fill="#000000" font-family="sans-serif" font-size="14" lengthAdjust="spacing" textLength="76.2275" x="1077.7607" y="84.1279">CourseApp</text><ellipse cx="1118.8745" cy="55.1328" fill="#E2E2F0" rx="12" ry="12" style="stroke:#181818;stroke-width:0.5;"/><polygon fill="#181818" points="1114.8745,43.1328,1120.8745,38.1328,1118.8745,43.1328,1120.8745,48.1328,1114.8745,43.1328" style="stroke:#181818;stroke-width:1;"/></g><g class="participant participant-tail" data-entity-uid="part5" data-qualified-name="CA" id="part5-tail"><text fill="#000000" font-family="sans-serif" font-size="14" lengthAdjust="spacing" textLength="76.2275" x="1077.7607" y="1094.1514">CourseApp</text><ellipse cx="1118.8745" cy="1113.4531" fill="#E2E2F0" rx="12" ry="12" style="stroke:#181818;stroke-width:0.5;"/><polygon fill="#181818" points="1114.8745,1101.4531,1120.8745,1096.4531,1118.8745,1101.4531,1120.8745,1106.4531,1114.8745,1101.4531" style="stroke:#181818;stroke-width:1;"/></g><g class="participant participant-head" data-entity-uid="part6" data-qualified-name="C" id="part6-head"><text fill="#000000" font-family="sans-serif" font-size="14" lengthAdjust="spacing" textLength="48.877" x="1318.23" y="84.1279">Course</text><ellipse cx="1345.6685" cy="55.1328" fill="#E2E2F0" rx="12" ry="12" style="stroke:#181818;stroke-width:0.5;"/><line style="stroke:#181818;stroke-width:0.5;" x1="1333.6685" x2="1357.6685" y1="69.1328" y2="69.1328"/></g><g class="participant participant-tail" data-entity-uid="part6" data-qualified-name="C" id="part6-tail"><text fill="#000000" font-family="sans-serif" font-size="14" lengthAdjust="spacing" textLength="48.877" x="1318.23" y="1094.1514">Course</text><ellipse cx="1345.6685" cy="1113.4531" fill="#E2E2F0" rx="12" ry="12" style="stroke:#181818;stroke-width:0.5;"/><line style="stroke:#181818;stroke-width:0.5;" x1="1333.6685" x2="1357.6685" y1="1127.4531" y2="1127.4531"/></g><g class="participant participant-head" data-entity-uid="part7" data-qualified-name="CDB" id="part7-head"><text fill="#000000" font-family="sans-serif" font-size="14" lengthAdjust="spacing" textLength="69.2617" x="1519.0874" y="84.1279">CourseDB</text><path d="M1538.7183,35.1328 C1538.7183,25.1328 1556.7183,25.1328 1556.7183,25.1328 C1556.7183,25.1328 1574.7183,25.1328 1574.7183,35.1328 L1574.7183,61.1328 C1574.7183,71.1328 1556.7183,71.1328 1556.7183,71.1328 C1556.7183,71.1328 1538.7183,71.1328 1538.7183,61.1328 L1538.7183,35.1328" fill="#E2E2F0" style="stroke:#181818;stroke-width:0.5;"/><path d="M1538.7183,35.1328 C1538.7183,45.1328 1556.7183,45.1328 1556.7183,45.1328 C1556.7183,45.1328 1574.7183,45.1328 1574.7183,35.1328" fill="none" style="stroke:#181818;stroke-width:0.5;"/></g><g class="participant participant-tail" data-entity-uid="part7" data-qualified-name="CDB" id="part7-tail"><text fill="#000000" font-family="sans-serif" font-size="14" lengthAdjust="spacing" textLength="69.2617" x="1519.0874" y="1094.1514">CourseDB</text><path d="M1538.7183,1107.4531 C1538.7183,1097.4531 1556.7183,1097.4531 1556.7183,1097.4531 C1556.7183,1097.4531 1574.7183,1097.4531 1574.7183,1107.4531 L1574.7183,1133.4531 C1574.7183,1143.4531 1556.7183,1143.4531 1556.7183,1143.4531 C1556.7183,1143.4531 1538.7183,1143.4531 1538.7183,1133.4531 L1538.7183,1107.4531" fill="#E2E2F0" style="stroke:#181818;stroke-width:0.5;"/><path d="M1538.7183,1107.4531 C1538.7183,1117.4531 1556.7183,1117.4531 1556.7183,1117.4531 C1556.7183,1117.4531 1574.7183,1117.4531 1574.7183,1107.4531" fill="none" style="stroke:#181818;stroke-width:0.5;"/></g><g><title>Admin</title><rect fill="#FFFFFF" height="399.7266" style="stroke:#181818;stroke-width:1;" width="10" x="50.4321" y="118.5625"/></g><g><title>WebApp</title><rect fill="#FFFFFF" height="399.7266" style="stroke:#181818;stroke-width:1;" width="10" x="297.0391" y="118.5625"/></g><g><title>API Gateway</title><rect fill="#FFFFFF" height="270.1953" style="stroke:#181818;stroke-width:1;" width="10" x="602.6265" y="218.9609"/></g><g><title>AdminCourseController</title><rect fill="#FFFFFF" height="169.7969" style="stroke:#181818;stroke-width:1;" width="10" x="852.0605" y="290.2266"/></g><g><title>CourseApp</title><rect fill="#FFFFFF" height="628.2656" style="stroke:#181818;stroke-width:1;" width="10" x="1113.8745" y="319.3594"/></g><g><title>Course</title><rect fill="#FFFFFF" height="71.2656" style="stroke:#181818;stroke-width:1;" width="10" x="1340.6685" y="788.9609"/></g><g><title>CourseDB</title><rect fill="#FFFFFF" height="53.2656" style="stroke:#181818;stroke-width:1;" width="10" x="1551.7183" y="348.4922"/></g><g><title>CourseDB</title><rect fill="#FFFFFF" height="29.1328" style="stroke:#181818;stroke-width:1;" width="10" x="1551.7183" y="889.3594"/></g><g class="message" data-entity-1="part1" data-entity-2="part2" id="msg1"><polygon fill="#181818" points="285.0391,114.5625,295.0391,118.5625,285.0391,122.5625,289.0391,118.5625" style="stroke:#181818;stroke-width:1;"/><line style="stroke:#181818;stroke-width:1;" x1="60.4321" x2="291.0391" y1="118.5625" y2="118.5625"/><text fill="#000000" font-family="sans-serif" font-size="13" font-weight="bold" lengthAdjust="spacing" textLength="9.0454" x="67.4321" y="113.4966">1</text><text fill="#000000" font-family="sans-serif" font-size="13" lengthAdjust="spacing" textLength="209.5615" x="80.4775" y="113.4966">Click "Unhide" on hidden course</text></g><g class="message" data-entity-1="part2" data-entity-2="part2" id="msg2"><line style="stroke:#181818;stroke-width:1;" x1="307.0391" x2="349.0391" y1="147.6953" y2="147.6953"/><line style="stroke:#181818;stroke-width:1;" x1="349.0391" x2="349.0391" y1="147.6953" y2="160.6953"/><line style="stroke:#181818;stroke-width:1;" x1="308.0391" x2="349.0391" y1="160.6953" y2="160.6953"/><polygon fill="#181818" points="318.0391,156.6953,308.0391,160.6953,318.0391,164.6953,314.0391,160.6953" style="stroke:#181818;stroke-width:1;"/><text fill="#000000" font-family="sans-serif" font-size="13" font-weight="bold" lengthAdjust="spacing" textLength="9.0454" x="314.0391" y="142.6294">2</text><text fill="#000000" font-family="sans-serif" font-size="13" lengthAdjust="spacing" textLength="178.2358" x="327.0845" y="142.6294">Display confirmation dialog</text></g><g class="message" data-entity-1="part1" data-entity-2="part2" id="msg3"><polygon fill="#181818" points="285.0391,185.8281,295.0391,189.8281,285.0391,193.8281,289.0391,189.8281" style="stroke:#181818;stroke-width:1;"/><line style="stroke:#181818;stroke-width:1;" x1="60.4321" x2="291.0391" y1="189.8281" y2="189.8281"/><text fill="#000000" font-family="sans-serif" font-size="13" font-weight="bold" lengthAdjust="spacing" textLength="9.0454" x="67.4321" y="184.7622">3</text><text fill="#000000" font-family="sans-serif" font-size="13" lengthAdjust="spacing" textLength="100.1787" x="80.4775" y="184.7622">Confirm unhide</text></g><g class="message" data-entity-1="part2" data-entity-2="part3" id="msg4"><polygon fill="#181818" points="590.6265,214.9609,600.6265,218.9609,590.6265,222.9609,594.6265,218.9609" style="stroke:#181818;stroke-width:1;"/><line style="stroke:#181818;stroke-width:1;" x1="307.0391" x2="596.6265" y1="218.9609" y2="218.9609"/><text fill="#000000" font-family="sans-serif" font-size="13" font-weight="bold" lengthAdjust="spacing" textLength="9.0454" x="314.0391" y="213.895">4</text><text fill="#000000" font-family="sans-serif" font-size="13" lengthAdjust="spacing" textLength="263.542" x="327.0845" y="213.895">POST /admin/courses/{courseId}/unhide</text></g><g class="message" data-entity-1="part3" data-entity-2="part3" id="msg5"><line style="stroke:#181818;stroke-width:1;" x1="612.6265" x2="654.6265" y1="248.0938" y2="248.0938"/><line style="stroke:#181818;stroke-width:1;" x1="654.6265" x2="654.6265" y1="248.0938" y2="261.0938"/><line style="stroke:#181818;stroke-width:1;" x1="613.6265" x2="654.6265" y1="261.0938" y2="261.0938"/><polygon fill="#181818" points="623.6265,257.0938,613.6265,261.0938,623.6265,265.0938,619.6265,261.0938" style="stroke:#181818;stroke-width:1;"/><text fill="#000000" font-family="sans-serif" font-size="13" font-weight="bold" lengthAdjust="spacing" textLength="9.0454" x="619.6265" y="243.0278">5</text><text fill="#000000" font-family="sans-serif" font-size="13" lengthAdjust="spacing" textLength="202.3887" x="632.6719" y="243.0278">Validate JWT, check admin role</text></g><g class="message" data-entity-1="part3" data-entity-2="part4" id="msg6"><polygon fill="#181818" points="840.0605,286.2266,850.0605,290.2266,840.0605,294.2266,844.0605,290.2266" style="stroke:#181818;stroke-width:1;"/><line style="stroke:#181818;stroke-width:1;" x1="612.6265" x2="846.0605" y1="290.2266" y2="290.2266"/><text fill="#000000" font-family="sans-serif" font-size="13" font-weight="bold" lengthAdjust="spacing" textLength="9.0454" x="619.6265" y="285.1606">6</text><text fill="#000000" font-family="sans-serif" font-size="13" lengthAdjust="spacing" textLength="106.8057" x="632.6719" y="285.1606">Forward request</text></g><g class="message" data-entity-1="part4" data-entity-2="part5" id="msg7"><polygon fill="#181818" points="1101.8745,315.3594,1111.8745,319.3594,1101.8745,323.3594,1105.8745,319.3594" style="stroke:#181818;stroke-width:1;"/><line style="stroke:#181818;stroke-width:1;" x1="862.0605" x2="1107.8745" y1="319.3594" y2="319.3594"/><text fill="#000000" font-family="sans-serif" font-size="13" font-weight="bold" lengthAdjust="spacing" textLength="9.0454" x="869.0605" y="314.2935">7</text><text fill="#000000" font-family="sans-serif" font-size="13" lengthAdjust="spacing" textLength="219.7686" x="882.106" y="314.2935">UnhideCourse(courseId, adminID)</text></g><g class="message" data-entity-1="part5" data-entity-2="part7" id="msg8"><polygon fill="#181818" points="1539.7183,344.4922,1549.7183,348.4922,1539.7183,352.4922,1543.7183,348.4922" style="stroke:#181818;stroke-width:1;"/><line style="stroke:#181818;stroke-width:1;" x1="1123.8745" x2="1545.7183" y1="348.4922" y2="348.4922"/><text fill="#000000" font-family="sans-serif" font-size="13" font-weight="bold" lengthAdjust="spacing" textLength="9.0454" x="1130.8745" y="343.4263">8</text><text fill="#000000" font-family="sans-serif" font-size="13" lengthAdjust="spacing" textLength="75.1689" x="1143.9199" y="343.4263">Find course</text></g><path d="M10,363.4922 L74.4429,363.4922 L74.4429,370.625 L64.4429,380.625 L10,380.625 L10,363.4922" fill="#EEEEEE" style="stroke:#000000;stroke-width:1.5;"/><rect fill="none" height="701.6641" style="stroke:#000000;stroke-width:1.5;" width="1604.3491" x="10" y="363.4922"/><text fill="#000000" font-family="sans-serif" font-size="13" font-weight="bold" lengthAdjust="spacing" textLength="19.4429" x="25" y="376.5591">alt</text><text fill="#000000" font-family="sans-serif" font-size="11" font-weight="bold" lengthAdjust="spacing" textLength="117.1328" x="89.4429" y="375.7026">[Course not found]</text><g class="message" data-entity-1="part7" data-entity-2="part5" id="msg9"><polygon fill="#181818" points="1134.8745,397.7578,1124.8745,401.7578,1134.8745,405.7578,1130.8745,401.7578" style="stroke:#181818;stroke-width:1;"/><line style="stroke:#181818;stroke-width:1;stroke-dasharray:2,2;" x1="1128.8745" x2="1555.7183" y1="401.7578" y2="401.7578"/><text fill="#000000" font-family="sans-serif" font-size="13" font-weight="bold" lengthAdjust="spacing" textLength="9.0454" x="1140.8745" y="396.6919">9</text><text fill="#000000" font-family="sans-serif" font-size="13" lengthAdjust="spacing" textLength="64.1685" x="1153.9199" y="396.6919">Not found</text></g><g class="message" data-entity-1="part5" data-entity-2="part4" id="msg10"><polygon fill="#181818" points="873.0605,426.8906,863.0605,430.8906,873.0605,434.8906,869.0605,430.8906" style="stroke:#181818;stroke-width:1;"/><line style="stroke:#181818;stroke-width:1;stroke-dasharray:2,2;" x1="867.0605" x2="1112.8745" y1="430.8906" y2="430.8906"/><text fill="#000000" font-family="sans-serif" font-size="13" font-weight="bold" lengthAdjust="spacing" textLength="18.0908" x="879.0605" y="425.8247">10</text><text fill="#000000" font-family="sans-serif" font-size="13" lengthAdjust="spacing" textLength="96.0146" x="901.1514" y="425.8247">404 Not Found</text></g><g class="message" data-entity-1="part4" data-entity-2="part3" id="msg11"><polygon fill="#181818" points="623.6265,456.0234,613.6265,460.0234,623.6265,464.0234,619.6265,460.0234" style="stroke:#181818;stroke-width:1;"/><line style="stroke:#181818;stroke-width:1;stroke-dasharray:2,2;" x1="617.6265" x2="856.0605" y1="460.0234" y2="460.0234"/><text fill="#000000" font-family="sans-serif" font-size="13" font-weight="bold" lengthAdjust="spacing" textLength="18.0908" x="629.6265" y="454.9575">11</text><text fill="#000000" font-family="sans-serif" font-size="13" lengthAdjust="spacing" textLength="32.2017" x="651.7173" y="454.9575">Error</text></g><g class="message" data-entity-1="part3" data-entity-2="part2" id="msg12"><polygon fill="#181818" points="318.0391,485.1563,308.0391,489.1563,318.0391,493.1563,314.0391,489.1563" style="stroke:#181818;stroke-width:1;"/><line style="stroke:#181818;stroke-width:1;stroke-dasharray:2,2;" x1="312.0391" x2="606.6265" y1="489.1563" y2="489.1563"/><text fill="#000000" font-family="sans-serif" font-size="13" font-weight="bold" lengthAdjust="spacing" textLength="18.0908" x="324.0391" y="484.0903">12</text><text fill="#000000" font-family="sans-serif" font-size="13" lengthAdjust="spacing" textLength="32.2017" x="346.1299" y="484.0903">Error</text></g><g class="message" data-entity-1="part2" data-entity-2="part1" id="msg13"><polygon fill="#181818" points="66.4321,514.2891,56.4321,518.2891,66.4321,522.2891,62.4321,518.2891" style="stroke:#181818;stroke-width:1;"/><line style="stroke:#181818;stroke-width:1;" x1="60.4321" x2="301.0391" y1="518.2891" y2="518.2891"/><text fill="#000000" font-family="sans-serif" font-size="13" font-weight="bold" lengthAdjust="spacing" textLength="18.0908" x="72.4321" y="513.2231">13</text><text fill="#000000" font-family="sans-serif" font-size="13" lengthAdjust="spacing" textLength="84.0366" x="94.5229" y="513.2231">Display error</text></g><line style="stroke:#000000;stroke-width:1;stroke-dasharray:2,2;" x1="10" x2="1614.3491" y1="527.2891" y2="527.2891"/><text fill="#000000" font-family="sans-serif" font-size="11" font-weight="bold" lengthAdjust="spacing" textLength="92.6567" x="15" y="537.4995">[Course found]</text><g class="message" data-entity-1="part7" data-entity-2="part5" id="msg14"><polygon fill="#181818" points="1134.8745,558.2266,1124.8745,562.2266,1134.8745,566.2266,1130.8745,562.2266" style="stroke:#181818;stroke-width:1;"/><line style="stroke:#181818;stroke-width:1;stroke-dasharray:2,2;" x1="1128.8745" x2="1555.7183" y1="562.2266" y2="562.2266"/><text fill="#000000" font-family="sans-serif" font-size="13" font-weight="bold" lengthAdjust="spacing" textLength="18.0908" x="1140.8745" y="557.1606">14</text><text fill="#000000" font-family="sans-serif" font-size="13" lengthAdjust="spacing" textLength="78.7998" x="1162.9653" y="557.1606">Course data</text></g><g class="message" data-entity-1="part5" data-entity-2="part5" id="msg15"><line style="stroke:#181818;stroke-width:1;" x1="1123.8745" x2="1165.8745" y1="591.3594" y2="591.3594"/><line style="stroke:#181818;stroke-width:1;" x1="1165.8745" x2="1165.8745" y1="591.3594" y2="604.3594"/><line style="stroke:#181818;stroke-width:1;" x1="1124.8745" x2="1165.8745" y1="604.3594" y2="604.3594"/><polygon fill="#181818" points="1134.8745,600.3594,1124.8745,604.3594,1134.8745,608.3594,1130.8745,604.3594" style="stroke:#181818;stroke-width:1;"/><text fill="#000000" font-family="sans-serif" font-size="13" font-weight="bold" lengthAdjust="spacing" textLength="18.0908" x="1130.8745" y="586.2935">15</text><text fill="#000000" font-family="sans-serif" font-size="13" lengthAdjust="spacing" textLength="164.2266" x="1152.9653" y="586.2935">Validate course is hidden</text></g><path d="M20,619.3594 L84.4429,619.3594 L84.4429,626.4922 L74.4429,636.4922 L20,636.4922 L20,619.3594" fill="#EEEEEE" style="stroke:#000000;stroke-width:1.5;"/><rect fill="none" height="438.7969" style="stroke:#000000;stroke-width:1.5;" width="1584.3491" x="20" y="619.3594"/><text fill="#000000" font-family="sans-serif" font-size="13" font-weight="bold" lengthAdjust="spacing" textLength="19.4429" x="35" y="632.4263">alt</text><text fill="#000000" font-family="sans-serif" font-size="11" font-weight="bold" lengthAdjust="spacing" textLength="123.895" x="99.4429" y="631.5698">[Course not hidden]</text><g class="message" data-entity-1="part5" data-entity-2="part4" id="msg16"><polygon fill="#181818" points="868.0605,653.625,858.0605,657.625,868.0605,661.625,864.0605,657.625" style="stroke:#181818;stroke-width:1;"/><line style="stroke:#181818;stroke-width:1;stroke-dasharray:2,2;" x1="862.0605" x2="1112.8745" y1="657.625" y2="657.625"/><text fill="#000000" font-family="sans-serif" font-size="13" font-weight="bold" lengthAdjust="spacing" textLength="18.0908" x="874.0605" y="652.5591">16</text><text fill="#000000" font-family="sans-serif" font-size="13" lengthAdjust="spacing" textLength="111.6045" x="896.1514" y="652.5591">400 Bad Request</text></g><g class="message" data-entity-1="part4" data-entity-2="part3" id="msg17"><polygon fill="#181818" points="618.6265,682.7578,608.6265,686.7578,618.6265,690.7578,614.6265,686.7578" style="stroke:#181818;stroke-width:1;"/><line style="stroke:#181818;stroke-width:1;stroke-dasharray:2,2;" x1="612.6265" x2="856.0605" y1="686.7578" y2="686.7578"/><text fill="#000000" font-family="sans-serif" font-size="13" font-weight="bold" lengthAdjust="spacing" textLength="18.0908" x="624.6265" y="681.6919">17</text><text fill="#000000" font-family="sans-serif" font-size="13" lengthAdjust="spacing" textLength="32.2017" x="646.7173" y="681.6919">Error</text></g><g class="message" data-entity-1="part3" data-entity-2="part2" id="msg18"><polygon fill="#181818" points="313.0391,711.8906,303.0391,715.8906,313.0391,719.8906,309.0391,715.8906" style="stroke:#181818;stroke-width:1;"/><line style="stroke:#181818;stroke-width:1;stroke-dasharray:2,2;" x1="307.0391" x2="606.6265" y1="715.8906" y2="715.8906"/><text fill="#000000" font-family="sans-serif" font-size="13" font-weight="bold" lengthAdjust="spacing" textLength="18.0908" x="319.0391" y="710.8247">18</text><text fill="#000000" font-family="sans-serif" font-size="13" lengthAdjust="spacing" textLength="146.0088" x="341.1299" y="710.8247">"Course is not hidden"</text></g><g class="message" data-entity-1="part2" data-entity-2="part1" id="msg19"><polygon fill="#181818" points="66.4321,741.0234,56.4321,745.0234,66.4321,749.0234,62.4321,745.0234" style="stroke:#181818;stroke-width:1;"/><line style="stroke:#181818;stroke-width:1;" x1="60.4321" x2="301.0391" y1="745.0234" y2="745.0234"/><text fill="#000000" font-family="sans-serif" font-size="13" font-weight="bold" lengthAdjust="spacing" textLength="18.0908" x="72.4321" y="739.9575">19</text><text fill="#000000" font-family="sans-serif" font-size="13" lengthAdjust="spacing" textLength="84.0366" x="94.5229" y="739.9575">Display error</text></g><line style="stroke:#000000;stroke-width:1;stroke-dasharray:2,2;" x1="20" x2="1604.3491" y1="754.0234" y2="754.0234"/><text fill="#000000" font-family="sans-serif" font-size="11" font-weight="bold" lengthAdjust="spacing" textLength="113.5664" x="25" y="764.2339">[Course is hidden]</text><g class="message" data-entity-1="part5" data-entity-2="part6" id="msg20"><polygon fill="#181818" points="1328.6685,784.9609,1338.6685,788.9609,1328.6685,792.9609,1332.6685,788.9609" style="stroke:#181818;stroke-width:1;"/><line style="stroke:#181818;stroke-width:1;" x1="1123.8745" x2="1334.6685" y1="788.9609" y2="788.9609"/><text fill="#000000" font-family="sans-serif" font-size="13" font-weight="bold" lengthAdjust="spacing" textLength="18.0908" x="1130.8745" y="783.895">20</text><text fill="#000000" font-family="sans-serif" font-size="13" lengthAdjust="spacing" textLength="175.7031" x="1152.9653" y="783.895">Update status to published</text></g><g class="message" data-entity-1="part6" data-entity-2="part6" id="msg21"><line style="stroke:#181818;stroke-width:1;" x1="1350.6685" x2="1392.6685" y1="818.0938" y2="818.0938"/><line style="stroke:#181818;stroke-width:1;" x1="1392.6685" x2="1392.6685" y1="818.0938" y2="831.0938"/><line style="stroke:#181818;stroke-width:1;" x1="1351.6685" x2="1392.6685" y1="831.0938" y2="831.0938"/><polygon fill="#181818" points="1361.6685,827.0938,1351.6685,831.0938,1361.6685,835.0938,1357.6685,831.0938" style="stroke:#181818;stroke-width:1;"/><text fill="#000000" font-family="sans-serif" font-size="13" font-weight="bold" lengthAdjust="spacing" textLength="18.0908" x="1357.6685" y="813.0278">21</text><text fill="#000000" font-family="sans-serif" font-size="13" lengthAdjust="spacing" textLength="154.959" x="1379.7593" y="813.0278">Set status = 'published'</text></g><g class="message" data-entity-1="part6" data-entity-2="part5" id="msg22"><polygon fill="#181818" points="1134.8745,856.2266,1124.8745,860.2266,1134.8745,864.2266,1130.8745,860.2266" style="stroke:#181818;stroke-width:1;"/><line style="stroke:#181818;stroke-width:1;stroke-dasharray:2,2;" x1="1128.8745" x2="1344.6685" y1="860.2266" y2="860.2266"/><text fill="#000000" font-family="sans-serif" font-size="13" font-weight="bold" lengthAdjust="spacing" textLength="18.0908" x="1140.8745" y="855.1606">22</text><text fill="#000000" font-family="sans-serif" font-size="13" lengthAdjust="spacing" textLength="102.9209" x="1162.9653" y="855.1606">Updated course</text></g><g class="message" data-entity-1="part5" data-entity-2="part7" id="msg23"><polygon fill="#181818" points="1539.7183,885.3594,1549.7183,889.3594,1539.7183,893.3594,1543.7183,889.3594" style="stroke:#181818;stroke-width:1;"/><line style="stroke:#181818;stroke-width:1;" x1="1123.8745" x2="1545.7183" y1="889.3594" y2="889.3594"/><text fill="#000000" font-family="sans-serif" font-size="13" font-weight="bold" lengthAdjust="spacing" textLength="18.0908" x="1130.8745" y="884.2935">23</text><text fill="#000000" font-family="sans-serif" font-size="13" lengthAdjust="spacing" textLength="127.9624" x="1152.9653" y="884.2935">Save status change</text></g><g class="message" data-entity-1="part7" data-entity-2="part5" id="msg24"><polygon fill="#181818" points="1134.8745,914.4922,1124.8745,918.4922,1134.8745,922.4922,1130.8745,918.4922" style="stroke:#181818;stroke-width:1;"/><line style="stroke:#181818;stroke-width:1;stroke-dasharray:2,2;" x1="1128.8745" x2="1555.7183" y1="918.4922" y2="918.4922"/><text fill="#000000" font-family="sans-serif" font-size="13" font-weight="bold" lengthAdjust="spacing" textLength="18.0908" x="1140.8745" y="913.4263">24</text><text fill="#000000" font-family="sans-serif" font-size="13" lengthAdjust="spacing" textLength="52.3301" x="1162.9653" y="913.4263">Success</text></g><g class="message" data-entity-1="part5" data-entity-2="part4" id="msg25"><polygon fill="#181818" points="868.0605,943.625,858.0605,947.625,868.0605,951.625,864.0605,947.625" style="stroke:#181818;stroke-width:1;"/><line style="stroke:#181818;stroke-width:1;stroke-dasharray:2,2;" x1="862.0605" x2="1117.8745" y1="947.625" y2="947.625"/><text fill="#000000" font-family="sans-serif" font-size="13" font-weight="bold" lengthAdjust="spacing" textLength="18.0908" x="874.0605" y="942.5591">25</text><text fill="#000000" font-family="sans-serif" font-size="13" lengthAdjust="spacing" textLength="73.5693" x="896.1514" y="942.5591">CourseDTO</text></g><g class="message" data-entity-1="part4" data-entity-2="part3" id="msg26"><polygon fill="#181818" points="618.6265,972.7578,608.6265,976.7578,618.6265,980.7578,614.6265,976.7578" style="stroke:#181818;stroke-width:1;"/><line style="stroke:#181818;stroke-width:1;stroke-dasharray:2,2;" x1="612.6265" x2="856.0605" y1="976.7578" y2="976.7578"/><text fill="#000000" font-family="sans-serif" font-size="13" font-weight="bold" lengthAdjust="spacing" textLength="18.0908" x="624.6265" y="971.6919">26</text><text fill="#000000" font-family="sans-serif" font-size="13" lengthAdjust="spacing" textLength="47.7026" x="646.7173" y="971.6919">200 OK</text></g><g class="message" data-entity-1="part3" data-entity-2="part2" id="msg27"><polygon fill="#181818" points="313.0391,1001.8906,303.0391,1005.8906,313.0391,1009.8906,309.0391,1005.8906" style="stroke:#181818;stroke-width:1;"/><line style="stroke:#181818;stroke-width:1;stroke-dasharray:2,2;" x1="307.0391" x2="606.6265" y1="1005.8906" y2="1005.8906"/><text fill="#000000" font-family="sans-serif" font-size="13" font-weight="bold" lengthAdjust="spacing" textLength="18.0908" x="319.0391" y="1000.8247">27</text><text fill="#000000" font-family="sans-serif" font-size="13" lengthAdjust="spacing" textLength="100.8389" x="341.1299" y="1000.8247">Unhide success</text></g><g class="message" data-entity-1="part2" data-entity-2="part1" id="msg28"><polygon fill="#181818" points="66.4321,1046.1563,56.4321,1050.1563,66.4321,1054.1563,62.4321,1050.1563" style="stroke:#181818;stroke-width:1;"/><line style="stroke:#181818;stroke-width:1;" x1="60.4321" x2="301.0391" y1="1050.1563" y2="1050.1563"/><text fill="#000000" font-family="sans-serif" font-size="13" font-weight="bold" lengthAdjust="spacing" textLength="18.0908" x="72.4321" y="1037.5239">28</text><text fill="#000000" font-family="sans-serif" font-size="13" lengthAdjust="spacing" textLength="172.2119" x="94.5229" y="1029.9575">Update course status in UI</text><text fill="#000000" font-family="sans-serif" font-size="13" lengthAdjust="spacing" textLength="188.2461" x="94.5229" y="1045.0903">(now visible to new learners)</text></g><?plantuml-src ZPHDRnen48Rl_XKZUaWY9O9MEQ6sqh8qYBPgK4cwgjIBMJjWnTZKza9GrV_UySSkouAg743Bp3jVpyn2AwTLjLvmGuXz5cf33Lt3IB_CA6D2BU7jW11QEcqWOskXW5h8o49NYb6pXu8liit66ukCeFa5Ujbi2XFg-8xkU_3cgrYkt4XMd02KMZcZPKU2iPE2SCK0mrEEN5V6SfXpinKbhzFyv5BgNIjHw2XgysYIt8GEyxmbYuhKPvwXXoidt3uvWXMDZ3gweFWxciUZu1YF3hrbSFCH1nr2BaNv3Br7jH8CszCAy85nXILzg0ScjZWWeceU4L3H91WBkv5qxrjy4cPDdS0SJ52fb-qoqGjLg4DI_AGOmkn-_W1zwkVlnvgs_oS-JDdVVWfeQYFWIL77_g1IC6_zN3nSGxdYE4h810YB9o4I7CATDZjg61Z-k-BMjSP2lWI_l3B7HYE8oEsoRkCwPfsEhmw1I9_aOGe4YmK4ekqoyyW9bQvUZz8Edlp1uOumzltDJGp-rh8pVXGEliEenEvk1xT1V9V4EA5tXH4_6QFDSO9uF4Miv86TqI3G8F6a3jlafy8YwoGdN3OdTdQivFBNU3fOr2RgpI8ZGH0sdQ6NTG0c1q0NpG16bC7tj67lFuVd3A0ZHFKRYoqSglMwWO7QVxYTakkmmpUtHUymhnScBdYCcm35Ekeg2qx3fbf8OLUS1Ts1PmnBKNFkwf0FSD64NDIv0x4wUNEqdGvpqcx5RtDEjqqhvOgg9Uyq4Qxr-0BcLLboQq-In_qVBp3zLptSdwYpasM-msNVVtd5DkFh3FPy7zqj9jxf2DEi-6_oEFsbBfNUmLPOiP3ShqBn7KXEZUB6Nhrou_Y6-Cy_?></g></svg>