<?plantuml 1.2026.1?><svg xmlns="http://www.w3.org/2000/svg" xmlns:xlink="http://www.w3.org/1999/xlink" contentStyleType="text/css" data-diagram-type="SEQUENCE" height="689px" preserveAspectRatio="none" style="width:1431px;height:689px;background:#FFFFFF;" version="1.1" viewBox="0 0 1431 689" width="1431px" zoomAndPan="magnify"><defs/><g><rect fill="#ADD8E6" height="677.3828" style="stroke:#181818;stroke-width:0.5;" width="102.4434" x="440.8569" y="6"/><text fill="#000000" font-family="sans-serif" font-size="13" font-weight="bold" lengthAdjust="spacing" textLength="92.6821" x="445.7375" y="18.0669">API Gateway</text><rect fill="#FFFFE0" height="677.3828" style="stroke:#181818;stroke-width:0.5;" width="622.709" x="565.3003" y="6"/><text fill="#000000" font-family="sans-serif" font-size="13" font-weight="bold" lengthAdjust="spacing" textLength="109.2622" x="822.0237" y="18.0669">Course Service</text><g><title>Learner</title><rect fill="#FFFFFF" height="467.5234" style="stroke:#181818;stroke-width:1;" width="10" x="29.9951" y="118.5625"/></g><g><title>WebApp</title><rect fill="#FFFFFF" height="467.5234" style="stroke:#181818;stroke-width:1;" width="10" x="273.3735" y="118.5625"/></g><g><title>API Gateway</title><rect fill="#FFFFFF" height="394.125" style="stroke:#181818;stroke-width:1;" width="10" x="487.0786" y="147.6953"/></g><g><title>CertificateController</title><rect fill="#FFFFFF" height="293.7266" style="stroke:#181818;stroke-width:1;" width="10" x="638.2471" y="218.9609"/></g><g><title>CourseApp</title><rect fill="#FFFFFF" height="235.4609" style="stroke:#181818;stroke-width:1;" width="10" x="849.0132" y="248.0938"/></g><g><title>CourseDB</title><rect fill="#FFFFFF" height="177.1953" style="stroke:#181818;stroke-width:1;" width="10" x="1141.3784" y="277.2266"/></g><g class="participant-lifeline" data-entity-uid="part1" data-qualified-name="L" id="part1-lifeline"><g><title>Learner</title><rect fill="#000000" fill-opacity="0.00000" height="516.6563" width="8" x="30.9951" y="87.4297"/><line style="stroke:#181818;stroke-width:0.5;stroke-dasharray:5,5;" x1="34" x2="34" y1="87.4297" y2="604.0859"/></g></g><g class="participant-lifeline" data-entity-uid="part2" data-qualified-name="WA" id="part2-lifeline"><g><title>WebApp</title><rect fill="#000000" fill-opacity="0.00000" height="516.6563" width="8" x="274.3735" y="87.4297"/><line style="stroke:#181818;stroke-width:0.5;stroke-dasharray:5,5;" x1="278.0269" x2="278.0269" y1="87.4297" y2="604.0859"/></g></g><g class="participant-lifeline" data-entity-uid="part3" data-qualified-name="GW" id="part3-lifeline"><g><title>API Gateway</title><rect fill="#000000" fill-opacity="0.00000" height="516.6563" width="8" x="488.0786" y="87.4297"/><line style="stroke:#181818;stroke-width:0.5;stroke-dasharray:5,5;" x1="491.8569" x2="491.8569" y1="87.4297" y2="604.0859"/></g></g><g class="participant-lifeline" data-entity-uid="part4" data-qualified-name="CertC" id="part4-lifeline"><g><title>CertificateController</title><rect fill="#000000" fill-opacity="0.00000" height="516.6563" width="8" x="639.2471" y="87.4297"/><line style="stroke:#181818;stroke-width:0.5;stroke-dasharray:5,5;" x1="642.3003" x2="642.3003" y1="87.4297" y2="604.0859"/></g></g><g class="participant-lifeline" data-entity-uid="part5" data-qualified-name="CA" id="part5-lifeline"><g><title>CourseApp</title><rect fill="#000000" fill-opacity="0.00000" height="516.6563" width="8" x="850.0132" y="87.4297"/><line style="stroke:#181818;stroke-width:0.5;stroke-dasharray:5,5;" x1="853.8994" x2="853.8994" y1="87.4297" y2="604.0859"/></g></g><g class="participant-lifeline" data-entity-uid="part6" data-qualified-name="CDB" id="part6-lifeline"><g><title>CourseDB</title><rect fill="#000000" fill-opacity="0.00000" height="516.6563" width="8" x="1142.3784" y="87.4297"/><line style="stroke:#181818;stroke-width:0.5;stroke-dasharray:5,5;" x1="1145.7476" x2="1145.7476" y1="87.4297" y2="604.0859"/></g></g><g class="participant participant-head" data-entity-uid="part1" data-qualified-name="L" id="part1-head"><text fill="#000000" font-family="sans-serif" font-size="14" lengthAdjust="spacing" textLength="53.9902" x="5" y="84.1279">Learner</text><ellipse cx="34.9951" cy="19.6328" fill="#E2E2F0" rx="8" ry="8" style="stroke:#181818;stroke-width:0.5;"/><path d="M34.9951,27.6328 L34.9951,54.6328 M21.9951,35.6328 L47.9951,35.6328 M34.9951,54.6328 L21.9951,69.6328 M34.9951,54.6328 L47.9951,69.6328" fill="none" style="stroke:#181818;stroke-width:0.5;"/></g><g class="participant participant-tail" data-entity-uid="part1" data-qualified-name="L" id="part1-tail"><text fill="#000000" font-family="sans-serif" font-size="14" lengthAdjust="spacing" textLength="53.9902" x="5" y="616.0811">Learner</text><ellipse cx="34.9951" cy="627.8828" fill="#E2E2F0" rx="8" ry="8" style="stroke:#181818;stroke-width:0.5;"/><path d="M34.9951,635.8828 L34.9951,662.8828 M21.9951,643.8828 L47.9951,643.8828 M34.9951,662.8828 L21.9951,677.8828 M34.9951,662.8828 L47.9951,677.8828" fill="none" style="stroke:#181818;stroke-width:0.5;"/></g><g class="participant participant-head" data-entity-uid="part2" data-qualified-name="WA" id="part2-head"><text fill="#000000" font-family="sans-serif" font-size="14" lengthAdjust="spacing" textLength="58.6934" x="246.0269" y="84.1279">WebApp</text><path d="M257.8735,43.1328 L257.8735,67.1328 M257.8735,55.1328 L274.8735,55.1328" fill="none" style="stroke:#181818;stroke-width:0.5;"/><ellipse cx="286.8735" cy="55.1328" fill="#E2E2F0" rx="12" ry="12" style="stroke:#181818;stroke-width:0.5;"/></g><g class="participant participant-tail" data-entity-uid="part2" data-qualified-name="WA" id="part2-tail"><text fill="#000000" font-family="sans-serif" font-size="14" lengthAdjust="spacing" textLength="58.6934" x="246.0269" y="616.0811">WebApp</text><path d="M257.8735,623.3828 L257.8735,647.3828 M257.8735,635.3828 L274.8735,635.3828" fill="none" style="stroke:#181818;stroke-width:0.5;"/><ellipse cx="286.8735" cy="635.3828" fill="#E2E2F0" rx="12" ry="12" style="stroke:#181818;stroke-width:0.5;"/></g><g class="participant participant-head" data-entity-uid="part3" data-qualified-name="GW" id="part3-head"><text fill="#000000" font-family="sans-serif" font-size="14" lengthAdjust="spacing" textLength="88.4434" x="444.8569" y="84.1279">API Gateway</text><ellipse cx="492.0786" cy="55.1328" fill="#E2E2F0" rx="12" ry="12" style="stroke:#181818;stroke-width:0.5;"/><polygon fill="#181818" points="488.0786,43.1328,494.0786,38.1328,492.0786,43.1328,494.0786,48.1328,488.0786,43.1328" style="stroke:#181818;stroke-width:1;"/></g><g class="participant participant-tail" data-entity-uid="part3" data-qualified-name="GW" id="part3-tail"><text fill="#000000" font-family="sans-serif" font-size="14" lengthAdjust="spacing" textLength="88.4434" x="444.8569" y="616.0811">API Gateway</text><ellipse cx="492.0786" cy="635.3828" fill="#E2E2F0" rx="12" ry="12" style="stroke:#181818;stroke-width:0.5;"/><polygon fill="#181818" points="488.0786,623.3828,494.0786,618.3828,492.0786,623.3828,494.0786,628.3828,488.0786,623.3828" style="stroke:#181818;stroke-width:1;"/></g><g class="participant participant-head" data-entity-uid="part4" data-qualified-name="CertC" id="part4-head"><text fill="#000000" font-family="sans-serif" font-size="14" lengthAdjust="spacing" textLength="141.8936" x="569.3003" y="84.1279">CertificateController</text><ellipse cx="643.2471" cy="55.1328" fill="#E2E2F0" rx="12" ry="12" style="stroke:#181818;stroke-width:0.5;"/><polygon fill="#181818" points="639.2471,43.1328,645.2471,38.1328,643.2471,43.1328,645.2471,48.1328,639.2471,43.1328" style="stroke:#181818;stroke-width:1;"/></g><g class="participant participant-tail" data-entity-uid="part4" data-qualified-name="CertC" id="part4-tail"><text fill="#000000" font-family="sans-serif" font-size="14" lengthAdjust="spacing" textLength="141.8936" x="569.3003" y="616.0811">CertificateController</text><ellipse cx="643.2471" cy="635.3828" fill="#E2E2F0" rx="12" ry="12" style="stroke:#181818;stroke-width:0.5;"/><polygon fill="#181818" points="639.2471,623.3828,645.2471,618.3828,643.2471,623.3828,645.2471,628.3828,639.2471,623.3828" style="stroke:#181818;stroke-width:1;"/></g><g class="participant participant-head" data-entity-uid="part5" data-qualified-name="CA" id="part5-head"><text fill="#000000" font-family="sans-serif" font-size="14" lengthAdjust="spacing" textLength="76.2275" x="812.8994" y="84.1279">CourseApp</text><ellipse cx="854.0132" cy="55.1328" fill="#E2E2F0" rx="12" ry="12" style="stroke:#181818;stroke-width:0.5;"/><polygon fill="#181818" points="850.0132,43.1328,856.0132,38.1328,854.0132,43.1328,856.0132,48.1328,850.0132,43.1328" style="stroke:#181818;stroke-width:1;"/></g><g class="participant participant-tail" data-entity-uid="part5" data-qualified-name="CA" id="part5-tail"><text fill="#000000" font-family="sans-serif" font-size="14" lengthAdjust="spacing" textLength="76.2275" x="812.8994" y="616.0811">CourseApp</text><ellipse cx="854.0132" cy="635.3828" fill="#E2E2F0" rx="12" ry="12" style="stroke:#181818;stroke-width:0.5;"/><polygon fill="#181818" points="850.0132,623.3828,856.0132,618.3828,854.0132,623.3828,856.0132,628.3828,850.0132,623.3828" style="stroke:#181818;stroke-width:1;"/></g><g class="participant participant-head" data-entity-uid="part6" data-qualified-name="CDB" id="part6-head"><text fill="#000000" font-family="sans-serif" font-size="14" lengthAdjust="spacing" textLength="69.2617" x="1108.7476" y="84.1279">CourseDB</text><path d="M1128.3784,35.1328 C1128.3784,25.1328 1146.3784,25.1328 1146.3784,25.1328 C1146.3784,25.1328 1164.3784,25.1328 1164.3784,35.1328 L1164.3784,61.1328 C1164.3784,71.1328 1146.3784,71.1328 1146.3784,71.1328 C1146.3784,71.1328 1128.3784,71.1328 1128.3784,61.1328 L1128.3784,35.1328" fill="#E2E2F0" style="stroke:#181818;stroke-width:0.5;"/><path d="M1128.3784,35.1328 C1128.3784,45.1328 1146.3784,45.1328 1146.3784,45.1328 C1146.3784,45.1328 1164.3784,45.1328 1164.3784,35.1328" fill="none" style="stroke:#181818;stroke-width:0.5;"/></g><g class="participant participant-tail" data-entity-uid="part6" data-qualified-name="CDB" id="part6-tail"><text fill="#000000" font-family="sans-serif" font-size="14" lengthAdjust="spacing" textLength="69.2617" x="1108.7476" y="616.0811">CourseDB</text><path d="M1128.3784,629.3828 C1128.3784,619.3828 1146.3784,619.3828 1146.3784,619.3828 C1146.3784,619.3828 1164.3784,619.3828 1164.3784,629.3828 L1164.3784,655.3828 C1164.3784,665.3828 1146.3784,665.3828 1146.3784,665.3828 C1146.3784,665.3828 1128.3784,665.3828 1128.3784,655.3828 L1128.3784,629.3828" fill="#E2E2F0" style="stroke:#181818;stroke-width:0.5;"/><path d="M1128.3784,629.3828 C1128.3784,639.3828 1146.3784,639.3828 1146.3784,639.3828 C1146.3784,639.3828 1164.3784,639.3828 1164.3784,629.3828" fill="none" style="stroke:#181818;stroke-width:0.5;"/></g><g><title>Learner</title><rect fill="#FFFFFF" height="467.5234" style="stroke:#181818;stroke-width:1;" width="10" x="29.9951" y="118.5625"/></g><g><title>WebApp</title><rect fill="#FFFFFF" height="467.5234" style="stroke:#181818;stroke-width:1;" width="10" x="273.3735" y="118.5625"/></g><g><title>API Gateway</title><rect fill="#FFFFFF" height="394.125" style="stroke:#181818;stroke-width:1;" width="10" x="487.0786" y="147.6953"/></g><g><title>CertificateController</title><rect fill="#FFFFFF" height="293.7266" style="stroke:#181818;stroke-width:1;" width="10" x="638.2471" y="218.9609"/></g><g><title>CourseApp</title><rect fill="#FFFFFF" height="235.4609" style="stroke:#181818;stroke-width:1;" width="10" x="849.0132" y="248.0938"/></g><g><title>CourseDB</title><rect fill="#FFFFFF" height="177.1953" style="stroke:#181818;stroke-width:1;" width="10" x="1141.3784" y="277.2266"/></g><g class="message" data-entity-1="part1" data-entity-2="part2" id="msg1"><polygon fill="#181818" points="261.3735,114.5625,271.3735,118.5625,261.3735,122.5625,265.3735,118.5625" style="stroke:#181818;stroke-width:1;"/><line style="stroke:#181818;stroke-width:1;" x1="39.9951" x2="267.3735" y1="118.5625" y2="118.5625"/><text fill="#000000" font-family="sans-serif" font-size="13" font-weight="bold" lengthAdjust="spacing" textLength="9.0454" x="46.9951" y="113.4966">1</text><text fill="#000000" font-family="sans-serif" font-size="13" lengthAdjust="spacing" textLength="188.9253" x="60.0405" y="113.4966">Navigate to "My Certificates"</text></g><g class="message" data-entity-1="part2" data-entity-2="part3" id="msg2"><polygon fill="#181818" points="475.0786,143.6953,485.0786,147.6953,475.0786,151.6953,479.0786,147.6953" style="stroke:#181818;stroke-width:1;"/><line style="stroke:#181818;stroke-width:1;" x1="283.3735" x2="481.0786" y1="147.6953" y2="147.6953"/><text fill="#000000" font-family="sans-serif" font-size="13" font-weight="bold" lengthAdjust="spacing" textLength="9.0454" x="290.3735" y="142.6294">2</text><text fill="#000000" font-family="sans-serif" font-size="13" lengthAdjust="spacing" textLength="171.6597" x="303.4189" y="142.6294">GET /users/me/certificates</text></g><g class="message" data-entity-1="part3" data-entity-2="part3" id="msg3"><line style="stroke:#181818;stroke-width:1;" x1="497.0786" x2="539.0786" y1="176.8281" y2="176.8281"/><line style="stroke:#181818;stroke-width:1;" x1="539.0786" x2="539.0786" y1="176.8281" y2="189.8281"/><line style="stroke:#181818;stroke-width:1;" x1="498.0786" x2="539.0786" y1="189.8281" y2="189.8281"/><polygon fill="#181818" points="508.0786,185.8281,498.0786,189.8281,508.0786,193.8281,504.0786,189.8281" style="stroke:#181818;stroke-width:1;"/><text fill="#000000" font-family="sans-serif" font-size="13" font-weight="bold" lengthAdjust="spacing" textLength="9.0454" x="504.0786" y="171.7622">3</text><text fill="#000000" font-family="sans-serif" font-size="13" lengthAdjust="spacing" textLength="82.1577" x="517.124" y="171.7622">Validate JWT</text></g><g class="message" data-entity-1="part3" data-entity-2="part4" id="msg4"><polygon fill="#181818" points="626.2471,214.9609,636.2471,218.9609,626.2471,222.9609,630.2471,218.9609" style="stroke:#181818;stroke-width:1;"/><line style="stroke:#181818;stroke-width:1;" x1="497.0786" x2="632.2471" y1="218.9609" y2="218.9609"/><text fill="#000000" font-family="sans-serif" font-size="13" font-weight="bold" lengthAdjust="spacing" textLength="9.0454" x="504.0786" y="213.895">4</text><text fill="#000000" font-family="sans-serif" font-size="13" lengthAdjust="spacing" textLength="106.8057" x="517.124" y="213.895">Forward request</text></g><g class="message" data-entity-1="part4" data-entity-2="part5" id="msg5"><polygon fill="#181818" points="837.0132,244.0938,847.0132,248.0938,837.0132,252.0938,841.0132,248.0938" style="stroke:#181818;stroke-width:1;"/><line style="stroke:#181818;stroke-width:1;" x1="648.2471" x2="843.0132" y1="248.0938" y2="248.0938"/><text fill="#000000" font-family="sans-serif" font-size="13" font-weight="bold" lengthAdjust="spacing" textLength="9.0454" x="655.2471" y="243.0278">5</text><text fill="#000000" font-family="sans-serif" font-size="13" lengthAdjust="spacing" textLength="168.7207" x="668.2925" y="243.0278">GetMyCertificates(userID)</text></g><g class="message" data-entity-1="part5" data-entity-2="part6" id="msg6"><polygon fill="#181818" points="1129.3784,273.2266,1139.3784,277.2266,1129.3784,281.2266,1133.3784,277.2266" style="stroke:#181818;stroke-width:1;"/><line style="stroke:#181818;stroke-width:1;" x1="859.0132" x2="1135.3784" y1="277.2266" y2="277.2266"/><text fill="#000000" font-family="sans-serif" font-size="13" font-weight="bold" lengthAdjust="spacing" textLength="9.0454" x="866.0132" y="272.1606">6</text><text fill="#000000" font-family="sans-serif" font-size="13" lengthAdjust="spacing" textLength="250.3198" x="879.0586" y="272.1606">Get user's certificates with course info</text></g><g class="message" data-entity-1="part6" data-entity-2="part6" id="msg7"><line style="stroke:#181818;stroke-width:1;" x1="1151.3784" x2="1193.3784" y1="412.2891" y2="412.2891"/><line style="stroke:#181818;stroke-width:1;" x1="1193.3784" x2="1193.3784" y1="412.2891" y2="425.2891"/><line style="stroke:#181818;stroke-width:1;" x1="1152.3784" x2="1193.3784" y1="425.2891" y2="425.2891"/><polygon fill="#181818" points="1162.3784,421.2891,1152.3784,425.2891,1162.3784,429.2891,1158.3784,425.2891" style="stroke:#181818;stroke-width:1;"/><text fill="#000000" font-family="sans-serif" font-size="13" font-weight="bold" lengthAdjust="spacing" textLength="9.0454" x="1158.3784" y="354.2583">7</text><text fill="#000000" font-family="sans-serif" font-size="13" lengthAdjust="spacing" textLength="74.9849" x="1171.4238" y="301.2935">SELECT c.*,</text><text fill="#000000" font-family="sans-serif" font-size="13" lengthAdjust="spacing" textLength="147.1577" x="1179.6885" y="316.4263">co.title as course_title,</text><text fill="#000000" font-family="sans-serif" font-size="13" lengthAdjust="spacing" textLength="145.9453" x="1179.6885" y="331.5591">co.slug as course_slug</text><text fill="#000000" font-family="sans-serif" font-size="13" lengthAdjust="spacing" textLength="125.7407" x="1171.4238" y="346.6919">FROM certificates c</text><text fill="#000000" font-family="sans-serif" font-size="13" lengthAdjust="spacing" textLength="252.7954" x="1171.4238" y="361.8247">JOIN courses co ON c.course_id = co.id</text><text fill="#000000" font-family="sans-serif" font-size="13" lengthAdjust="spacing" textLength="136.2778" x="1171.4238" y="376.9575">WHERE c.user_id = ?</text><text fill="#000000" font-family="sans-serif" font-size="13" lengthAdjust="spacing" textLength="166.8862" x="1179.6885" y="392.0903">AND c.deleted_at IS NULL</text><text fill="#000000" font-family="sans-serif" font-size="13" lengthAdjust="spacing" textLength="183.8218" x="1171.4238" y="407.2231">ORDER BY c.issued_at DESC</text></g><g class="message" data-entity-1="part6" data-entity-2="part5" id="msg8"><polygon fill="#181818" points="870.0132,450.4219,860.0132,454.4219,870.0132,458.4219,866.0132,454.4219" style="stroke:#181818;stroke-width:1;"/><line style="stroke:#181818;stroke-width:1;stroke-dasharray:2,2;" x1="864.0132" x2="1145.3784" y1="454.4219" y2="454.4219"/><text fill="#000000" font-family="sans-serif" font-size="13" font-weight="bold" lengthAdjust="spacing" textLength="9.0454" x="876.0132" y="449.356">8</text><text fill="#000000" font-family="sans-serif" font-size="13" lengthAdjust="spacing" textLength="97.5254" x="889.0586" y="449.356">Certificates list</text></g><g class="message" data-entity-1="part5" data-entity-2="part4" id="msg9"><polygon fill="#181818" points="659.2471,479.5547,649.2471,483.5547,659.2471,487.5547,655.2471,483.5547" style="stroke:#181818;stroke-width:1;"/><line style="stroke:#181818;stroke-width:1;stroke-dasharray:2,2;" x1="653.2471" x2="853.0132" y1="483.5547" y2="483.5547"/><text fill="#000000" font-family="sans-serif" font-size="13" font-weight="bold" lengthAdjust="spacing" textLength="9.0454" x="665.2471" y="478.4888">9</text><text fill="#000000" font-family="sans-serif" font-size="13" lengthAdjust="spacing" textLength="105.8535" x="678.2925" y="478.4888">CertificateDTO[]</text></g><g class="message" data-entity-1="part4" data-entity-2="part3" id="msg10"><polygon fill="#181818" points="508.0786,508.6875,498.0786,512.6875,508.0786,516.6875,504.0786,512.6875" style="stroke:#181818;stroke-width:1;"/><line style="stroke:#181818;stroke-width:1;stroke-dasharray:2,2;" x1="502.0786" x2="642.2471" y1="512.6875" y2="512.6875"/><text fill="#000000" font-family="sans-serif" font-size="13" font-weight="bold" lengthAdjust="spacing" textLength="18.0908" x="514.0786" y="507.6216">10</text><text fill="#000000" font-family="sans-serif" font-size="13" lengthAdjust="spacing" textLength="47.7026" x="536.1694" y="507.6216">200 OK</text></g><g class="message" data-entity-1="part3" data-entity-2="part2" id="msg11"><polygon fill="#181818" points="294.3735,537.8203,284.3735,541.8203,294.3735,545.8203,290.3735,541.8203" style="stroke:#181818;stroke-width:1;"/><line style="stroke:#181818;stroke-width:1;stroke-dasharray:2,2;" x1="288.3735" x2="491.0786" y1="541.8203" y2="541.8203"/><text fill="#000000" font-family="sans-serif" font-size="13" font-weight="bold" lengthAdjust="spacing" textLength="18.0908" x="300.3735" y="536.7544">11</text><text fill="#000000" font-family="sans-serif" font-size="13" lengthAdjust="spacing" textLength="107.7134" x="322.4644" y="536.7544">Certificates data</text></g><g class="message" data-entity-1="part2" data-entity-2="part1" id="msg12"><polygon fill="#181818" points="45.9951,582.0859,35.9951,586.0859,45.9951,590.0859,41.9951,586.0859" style="stroke:#181818;stroke-width:1;"/><line style="stroke:#181818;stroke-width:1;" x1="39.9951" x2="277.3735" y1="586.0859" y2="586.0859"/><text fill="#000000" font-family="sans-serif" font-size="13" font-weight="bold" lengthAdjust="spacing" textLength="18.0908" x="51.9951" y="573.4536">12</text><text fill="#000000" font-family="sans-serif" font-size="13" lengthAdjust="spacing" textLength="157.2632" x="74.0859" y="565.8872">Display certificate cards</text><text fill="#000000" font-family="sans-serif" font-size="13" lengthAdjust="spacing" textLength="187.2876" x="74.0859" y="581.02">with download/share options</text></g><?plantuml-src NLBRZjem47tFLupeGozQBkqZwaKXoQPi0ra1RRHggfM9Py5giAdjmFBtjPriSVg0WkUSCvSpGnejU7FOeWm2zPln8v7a03FnV4yePNm7xoT1G2ej96H894S9H44MR4N3AP4NA70R7eysM8I12J_38BoVGqeqdibb0AyojjlhMTrW0509hgMe_wCORLe4o2aOUPSZ4erK26kK9rRXIve7h6jnzX95A3LxOfL95RMXkktG0f5FTFcwJgFG89HeiYMcHWl5CuV4isiZ6Gm_cwcci2GdjZCbG0iOB2v-LJMmxh2JHRFhN-j54LfzMamXJJOmRXHADJxWkFBKLuLn82rU13z8pQYDtXMRBkm6ciAja6SYAKZyqw3ILtqxSE0-Zc_wJb4lBdwpRsmJy_Yj9pEDHgvHCxfJWEMyLk2t2MUczyPBjnF6duINm3XcVlyoh9CiYJPGZTxTGCdj0aQQwHgjkss2H_U-wK1LDpiFiy-ItwxoHR-1gkHt-NpPqImTSlCQTJ96uPFDncZ9Yw_9AZ6GdQC5ljXQuJ8sGOerQgIFHCDy3SllMLRoV1KdAvWz69WfrRHedAmZwyp7uR0TpFSHQcQyfzXpeVFU2S8UFzxaFt_rwA7TgcEsQ_qmcK3-hKTn-opQ1knDzEhRu_NPvdgwUykc43DrhCd5Dn0gSpIgv6wFL9nvBGWTgpsH2EAecU3AJsVErtjbmLy0?></g></svg>