<?plantuml 1.2026.1?><svg xmlns="http://www.w3.org/2000/svg" xmlns:xlink="http://www.w3.org/1999/xlink" contentStyleType="text/css" data-diagram-type="SEQUENCE" height="771px" preserveAspectRatio="none" style="width:1476px;height:771px;background:#FFFFFF;" version="1.1" viewBox="0 0 1476 771" width="1476px" zoomAndPan="magnify"><defs/><g><rect fill="#D3D3D3" height="752.7813" style="stroke:#181818;stroke-width:0.5;" width="137.9551" x="11" y="6"/><text fill="#000000" font-family="sans-serif" font-size="13" font-weight="bold" lengthAdjust="spacing" textLength="131.9551" x="14" y="18.0669">Scheduler Service</text><rect fill="#FFFFE0" height="752.7813" style="stroke:#181818;stroke-width:0.5;" width="599.3745" x="237.917" y="6"/><text fill="#000000" font-family="sans-serif" font-size="13" font-weight="bold" lengthAdjust="spacing" textLength="109.2622" x="482.9731" y="18.0669">Course Service</text><rect fill="#E0FFFF" height="752.7813" style="stroke:#181818;stroke-width:0.5;" width="163.502" x="1078.1284" y="6"/><text fill="#000000" font-family="sans-serif" font-size="13" font-weight="bold" lengthAdjust="spacing" textLength="144.498" x="1087.6304" y="18.0669">Notification Service</text><rect fill="#90EE90" height="752.7813" style="stroke:#181818;stroke-width:0.5;" width="115.083" x="1349.6011" y="6"/><text fill="#000000" font-family="sans-serif" font-size="13" font-weight="bold" lengthAdjust="spacing" textLength="92.0918" x="1361.0967" y="18.0669">User Service</text><g><title>Scheduler</title><rect fill="#FFFFFF" height="556.9219" style="stroke:#181818;stroke-width:1;" width="10" x="74.9775" y="118.5625"/></g><g><title>ReminderController</title><rect fill="#FFFFFF" height="556.9219" style="stroke:#181818;stroke-width:1;" width="10" x="308.502" y="118.5625"/></g><g><title>CourseApp</title><rect fill="#FFFFFF" height="498.6563" style="stroke:#181818;stroke-width:1;" width="10" x="527.4692" y="147.6953"/></g><g><title>CourseDB</title><rect fill="#FFFFFF" height="146.9297" style="stroke:#181818;stroke-width:1;" width="10" x="790.6606" y="191.9609"/></g><g><title>CourseDB</title><rect fill="#FFFFFF" height="29.1328" style="stroke:#181818;stroke-width:1;" width="10" x="790.6606" y="392.1563"/></g><g><title>NotificationController</title><rect fill="#FFFFFF" height="101.5313" style="stroke:#181818;stroke-width:1;" width="10" x="1154.8794" y="508.6875"/></g><g><title>UserController</title><rect fill="#FFFFFF" height="29.1328" style="stroke:#181818;stroke-width:1;" width="10" x="1402.1426" y="450.4219"/></g><rect fill="none" height="264.3281" style="stroke:#000000;stroke-width:1.5;" width="989.3286" x="481.3555" y="353.8906"/><g class="participant-lifeline" data-entity-uid="part1" data-qualified-name="SCH" id="part1-lifeline"><g><title>Scheduler</title><rect fill="#000000" fill-opacity="0.00000" height="606.0547" width="8" x="75.9775" y="87.4297"/><line style="stroke:#181818;stroke-width:0.5;stroke-dasharray:5,5;" x1="79.9331" x2="79.9331" y1="87.4297" y2="693.4844"/></g></g><g class="participant-lifeline" data-entity-uid="part2" data-qualified-name="RC" id="part2-lifeline"><g><title>ReminderController</title><rect fill="#000000" fill-opacity="0.00000" height="606.0547" width="8" x="309.502" y="87.4297"/><line style="stroke:#181818;stroke-width:0.5;stroke-dasharray:5,5;" x1="312.917" x2="312.917" y1="87.4297" y2="693.4844"/></g></g><g class="participant-lifeline" data-entity-uid="part3" data-qualified-name="CA" id="part3-lifeline"><g><title>CourseApp</title><rect fill="#000000" fill-opacity="0.00000" height="606.0547" width="8" x="528.4692" y="87.4297"/><line style="stroke:#181818;stroke-width:0.5;stroke-dasharray:5,5;" x1="532.3555" x2="532.3555" y1="87.4297" y2="693.4844"/></g></g><g class="participant-lifeline" data-entity-uid="part4" data-qualified-name="CDB" id="part4-lifeline"><g><title>CourseDB</title><rect fill="#000000" fill-opacity="0.00000" height="606.0547" width="8" x="791.6606" y="87.4297"/><line style="stroke:#181818;stroke-width:0.5;stroke-dasharray:5,5;" x1="795.0298" x2="795.0298" y1="87.4297" y2="693.4844"/></g></g><g class="participant-lifeline" data-entity-uid="part5" data-qualified-name="NC" id="part5-lifeline"><g><title>NotificationController</title><rect fill="#000000" fill-opacity="0.00000" height="606.0547" width="8" x="1155.8794" y="87.4297"/><line style="stroke:#181818;stroke-width:0.5;stroke-dasharray:5,5;" x1="1159.1284" x2="1159.1284" y1="87.4297" y2="693.4844"/></g></g><g class="participant-lifeline" data-entity-uid="part6" data-qualified-name="UC" id="part6-lifeline"><g><title>UserController</title><rect fill="#000000" fill-opacity="0.00000" height="606.0547" width="8" x="1403.1426" y="87.4297"/><line style="stroke:#181818;stroke-width:0.5;stroke-dasharray:5,5;" x1="1406.6011" x2="1406.6011" y1="87.4297" y2="693.4844"/></g></g><g class="participant participant-head" data-entity-uid="part1" data-qualified-name="SCH" id="part1-head"><text fill="#000000" font-family="sans-serif" font-size="14" lengthAdjust="spacing" textLength="70.0889" x="41.9331" y="84.1279">Scheduler</text><ellipse cx="79.9775" cy="55.1328" fill="#E2E2F0" rx="12" ry="12" style="stroke:#181818;stroke-width:0.5;"/><polygon fill="#181818" points="75.9775,43.1328,81.9775,38.1328,79.9775,43.1328,81.9775,48.1328,75.9775,43.1328" style="stroke:#181818;stroke-width:1;"/></g><g class="participant participant-tail" data-entity-uid="part1" data-qualified-name="SCH" id="part1-tail"><text fill="#000000" font-family="sans-serif" font-size="14" lengthAdjust="spacing" textLength="70.0889" x="41.9331" y="705.4795">Scheduler</text><ellipse cx="79.9775" cy="724.7813" fill="#E2E2F0" rx="12" ry="12" style="stroke:#181818;stroke-width:0.5;"/><polygon fill="#181818" points="75.9775,712.7813,81.9775,707.7813,79.9775,712.7813,81.9775,717.7813,75.9775,712.7813" style="stroke:#181818;stroke-width:1;"/></g><g class="participant participant-head" data-entity-uid="part2" data-qualified-name="RC" id="part2-head"><text fill="#000000" font-family="sans-serif" font-size="14" lengthAdjust="spacing" textLength="137.1699" x="241.917" y="84.1279">ReminderController</text><ellipse cx="313.502" cy="55.1328" fill="#E2E2F0" rx="12" ry="12" style="stroke:#181818;stroke-width:0.5;"/><polygon fill="#181818" points="309.502,43.1328,315.502,38.1328,313.502,43.1328,315.502,48.1328,309.502,43.1328" style="stroke:#181818;stroke-width:1;"/></g><g class="participant participant-tail" data-entity-uid="part2" data-qualified-name="RC" id="part2-tail"><text fill="#000000" font-family="sans-serif" font-size="14" lengthAdjust="spacing" textLength="137.1699" x="241.917" y="705.4795">ReminderController</text><ellipse cx="313.502" cy="724.7813" fill="#E2E2F0" rx="12" ry="12" style="stroke:#181818;stroke-width:0.5;"/><polygon fill="#181818" points="309.502,712.7813,315.502,707.7813,313.502,712.7813,315.502,717.7813,309.502,712.7813" style="stroke:#181818;stroke-width:1;"/></g><g class="participant participant-head" data-entity-uid="part3" data-qualified-name="CA" id="part3-head"><text fill="#000000" font-family="sans-serif" font-size="14" lengthAdjust="spacing" textLength="76.2275" x="491.3555" y="84.1279">CourseApp</text><ellipse cx="532.4692" cy="55.1328" fill="#E2E2F0" rx="12" ry="12" style="stroke:#181818;stroke-width:0.5;"/><polygon fill="#181818" points="528.4692,43.1328,534.4692,38.1328,532.4692,43.1328,534.4692,48.1328,528.4692,43.1328" style="stroke:#181818;stroke-width:1;"/></g><g class="participant participant-tail" data-entity-uid="part3" data-qualified-name="CA" id="part3-tail"><text fill="#000000" font-family="sans-serif" font-size="14" lengthAdjust="spacing" textLength="76.2275" x="491.3555" y="705.4795">CourseApp</text><ellipse cx="532.4692" cy="724.7813" fill="#E2E2F0" rx="12" ry="12" style="stroke:#181818;stroke-width:0.5;"/><polygon fill="#181818" points="528.4692,712.7813,534.4692,707.7813,532.4692,712.7813,534.4692,717.7813,528.4692,712.7813" style="stroke:#181818;stroke-width:1;"/></g><g class="participant participant-head" data-entity-uid="part4" data-qualified-name="CDB" id="part4-head"><text fill="#000000" font-family="sans-serif" font-size="14" lengthAdjust="spacing" textLength="69.2617" x="758.0298" y="84.1279">CourseDB</text><path d="M777.6606,35.1328 C777.6606,25.1328 795.6606,25.1328 795.6606,25.1328 C795.6606,25.1328 813.6606,25.1328 813.6606,35.1328 L813.6606,61.1328 C813.6606,71.1328 795.6606,71.1328 795.6606,71.1328 C795.6606,71.1328 777.6606,71.1328 777.6606,61.1328 L777.6606,35.1328" fill="#E2E2F0" style="stroke:#181818;stroke-width:0.5;"/><path d="M777.6606,35.1328 C777.6606,45.1328 795.6606,45.1328 795.6606,45.1328 C795.6606,45.1328 813.6606,45.1328 813.6606,35.1328" fill="none" style="stroke:#181818;stroke-width:0.5;"/></g><g class="participant participant-tail" data-entity-uid="part4" data-qualified-name="CDB" id="part4-tail"><text fill="#000000" font-family="sans-serif" font-size="14" lengthAdjust="spacing" textLength="69.2617" x="758.0298" y="705.4795">CourseDB</text><path d="M777.6606,718.7813 C777.6606,708.7813 795.6606,708.7813 795.6606,708.7813 C795.6606,708.7813 813.6606,708.7813 813.6606,718.7813 L813.6606,744.7813 C813.6606,754.7813 795.6606,754.7813 795.6606,754.7813 C795.6606,754.7813 777.6606,754.7813 777.6606,744.7813 L777.6606,718.7813" fill="#E2E2F0" style="stroke:#181818;stroke-width:0.5;"/><path d="M777.6606,718.7813 C777.6606,728.7813 795.6606,728.7813 795.6606,728.7813 C795.6606,728.7813 813.6606,728.7813 813.6606,718.7813" fill="none" style="stroke:#181818;stroke-width:0.5;"/></g><g class="participant participant-head" data-entity-uid="part5" data-qualified-name="NC" id="part5-head"><text fill="#000000" font-family="sans-serif" font-size="14" lengthAdjust="spacing" textLength="149.502" x="1082.1284" y="84.1279">NotificationController</text><ellipse cx="1159.8794" cy="55.1328" fill="#E2E2F0" rx="12" ry="12" style="stroke:#181818;stroke-width:0.5;"/><polygon fill="#181818" points="1155.8794,43.1328,1161.8794,38.1328,1159.8794,43.1328,1161.8794,48.1328,1155.8794,43.1328" style="stroke:#181818;stroke-width:1;"/></g><g class="participant participant-tail" data-entity-uid="part5" data-qualified-name="NC" id="part5-tail"><text fill="#000000" font-family="sans-serif" font-size="14" lengthAdjust="spacing" textLength="149.502" x="1082.1284" y="705.4795">NotificationController</text><ellipse cx="1159.8794" cy="724.7813" fill="#E2E2F0" rx="12" ry="12" style="stroke:#181818;stroke-width:0.5;"/><polygon fill="#181818" points="1155.8794,712.7813,1161.8794,707.7813,1159.8794,712.7813,1161.8794,717.7813,1155.8794,712.7813" style="stroke:#181818;stroke-width:1;"/></g><g class="participant participant-head" data-entity-uid="part6" data-qualified-name="UC" id="part6-head"><text fill="#000000" font-family="sans-serif" font-size="14" lengthAdjust="spacing" textLength="101.083" x="1353.6011" y="84.1279">UserController</text><ellipse cx="1407.1426" cy="55.1328" fill="#E2E2F0" rx="12" ry="12" style="stroke:#181818;stroke-width:0.5;"/><polygon fill="#181818" points="1403.1426,43.1328,1409.1426,38.1328,1407.1426,43.1328,1409.1426,48.1328,1403.1426,43.1328" style="stroke:#181818;stroke-width:1;"/></g><g class="participant participant-tail" data-entity-uid="part6" data-qualified-name="UC" id="part6-tail"><text fill="#000000" font-family="sans-serif" font-size="14" lengthAdjust="spacing" textLength="101.083" x="1353.6011" y="705.4795">UserController</text><ellipse cx="1407.1426" cy="724.7813" fill="#E2E2F0" rx="12" ry="12" style="stroke:#181818;stroke-width:0.5;"/><polygon fill="#181818" points="1403.1426,712.7813,1409.1426,707.7813,1407.1426,712.7813,1409.1426,717.7813,1403.1426,712.7813" style="stroke:#181818;stroke-width:1;"/></g><g><title>Scheduler</title><rect fill="#FFFFFF" height="556.9219" style="stroke:#181818;stroke-width:1;" width="10" x="74.9775" y="118.5625"/></g><g><title>ReminderController</title><rect fill="#FFFFFF" height="556.9219" style="stroke:#181818;stroke-width:1;" width="10" x="308.502" y="118.5625"/></g><g><title>CourseApp</title><rect fill="#FFFFFF" height="498.6563" style="stroke:#181818;stroke-width:1;" width="10" x="527.4692" y="147.6953"/></g><g><title>CourseDB</title><rect fill="#FFFFFF" height="146.9297" style="stroke:#181818;stroke-width:1;" width="10" x="790.6606" y="191.9609"/></g><g><title>CourseDB</title><rect fill="#FFFFFF" height="29.1328" style="stroke:#181818;stroke-width:1;" width="10" x="790.6606" y="392.1563"/></g><g><title>NotificationController</title><rect fill="#FFFFFF" height="101.5313" style="stroke:#181818;stroke-width:1;" width="10" x="1154.8794" y="508.6875"/></g><g><title>UserController</title><rect fill="#FFFFFF" height="29.1328" style="stroke:#181818;stroke-width:1;" width="10" x="1402.1426" y="450.4219"/></g><g class="message" data-entity-1="part1" data-entity-2="part2" id="msg1"><polygon fill="#181818" points="296.502,114.5625,306.502,118.5625,296.502,122.5625,300.502,118.5625" style="stroke:#181818;stroke-width:1;"/><line style="stroke:#181818;stroke-width:1;" x1="84.9775" x2="302.502" y1="118.5625" y2="118.5625"/><text fill="#000000" font-family="sans-serif" font-size="13" font-weight="bold" lengthAdjust="spacing" textLength="9.0454" x="91.9775" y="113.4966">1</text><text fill="#000000" font-family="sans-serif" font-size="13" lengthAdjust="spacing" textLength="169.5459" x="105.0229" y="113.4966">Trigger daily reminder job</text></g><g class="message" data-entity-1="part2" data-entity-2="part3" id="msg2"><polygon fill="#181818" points="515.4692,143.6953,525.4692,147.6953,515.4692,151.6953,519.4692,147.6953" style="stroke:#181818;stroke-width:1;"/><line style="stroke:#181818;stroke-width:1;" x1="318.502" x2="521.4692" y1="147.6953" y2="147.6953"/><text fill="#000000" font-family="sans-serif" font-size="13" font-weight="bold" lengthAdjust="spacing" textLength="9.0454" x="325.502" y="142.6294">2</text><text fill="#000000" font-family="sans-serif" font-size="13" lengthAdjust="spacing" textLength="176.9219" x="338.5474" y="142.6294">TriggerLearningReminder()</text></g><g class="message" data-entity-1="part3" data-entity-2="part4" id="msg3"><polygon fill="#181818" points="778.6606,187.9609,788.6606,191.9609,778.6606,195.9609,782.6606,191.9609" style="stroke:#181818;stroke-width:1;"/><line style="stroke:#181818;stroke-width:1;" x1="537.4692" x2="784.6606" y1="191.9609" y2="191.9609"/><text fill="#000000" font-family="sans-serif" font-size="13" font-weight="bold" lengthAdjust="spacing" textLength="9.0454" x="544.4692" y="179.3286">3</text><text fill="#000000" font-family="sans-serif" font-size="13" lengthAdjust="spacing" textLength="140.4863" x="557.5146" y="171.7622">Find inactive learners</text><text fill="#000000" font-family="sans-serif" font-size="13" lengthAdjust="spacing" textLength="221.146" x="557.5146" y="186.895">(enrolled but not active in 7 days)</text></g><g class="message" data-entity-1="part4" data-entity-2="part4" id="msg4"><line style="stroke:#181818;stroke-width:1;" x1="800.6606" x2="842.6606" y1="296.7578" y2="296.7578"/><line style="stroke:#181818;stroke-width:1;" x1="842.6606" x2="842.6606" y1="296.7578" y2="309.7578"/><line style="stroke:#181818;stroke-width:1;" x1="801.6606" x2="842.6606" y1="309.7578" y2="309.7578"/><polygon fill="#181818" points="811.6606,305.7578,801.6606,309.7578,811.6606,313.7578,807.6606,309.7578" style="stroke:#181818;stroke-width:1;"/><text fill="#000000" font-family="sans-serif" font-size="13" font-weight="bold" lengthAdjust="spacing" textLength="9.0454" x="807.6606" y="253.8599">4</text><text fill="#000000" font-family="sans-serif" font-size="13" lengthAdjust="spacing" textLength="194.1367" x="820.7061" y="216.0278">SELECT e.user_id, e.course_id</text><text fill="#000000" font-family="sans-serif" font-size="13" lengthAdjust="spacing" textLength="131.752" x="820.7061" y="231.1606">FROM enrollments e</text><text fill="#000000" font-family="sans-serif" font-size="13" lengthAdjust="spacing" textLength="227.9189" x="820.7061" y="246.2935">LEFT JOIN lesson_progress lp ON ...</text><text fill="#000000" font-family="sans-serif" font-size="13" lengthAdjust="spacing" textLength="206.9653" x="820.7061" y="261.4263">WHERE e.completed_at IS NULL</text><text fill="#000000" font-family="sans-serif" font-size="13" lengthAdjust="spacing" textLength="308.9087" x="828.9707" y="276.5591">AND (last_activity &lt; NOW() - INTERVAL '7 days'</text><text fill="#000000" font-family="sans-serif" font-size="13" lengthAdjust="spacing" textLength="160.4116" x="849.6323" y="291.6919">OR last_activity IS NULL)</text></g><g class="message" data-entity-1="part4" data-entity-2="part3" id="msg5"><polygon fill="#181818" points="548.4692,334.8906,538.4692,338.8906,548.4692,342.8906,544.4692,338.8906" style="stroke:#181818;stroke-width:1;"/><line style="stroke:#181818;stroke-width:1;stroke-dasharray:2,2;" x1="542.4692" x2="794.6606" y1="338.8906" y2="338.8906"/><text fill="#000000" font-family="sans-serif" font-size="13" font-weight="bold" lengthAdjust="spacing" textLength="9.0454" x="554.4692" y="333.8247">5</text><text fill="#000000" font-family="sans-serif" font-size="13" lengthAdjust="spacing" textLength="176.5474" x="567.5146" y="333.8247">List of inactive enrollments</text></g><path d="M481.3555,353.8906 L557.9795,353.8906 L557.9795,361.0234 L547.9795,371.0234 L481.3555,371.0234 L481.3555,353.8906" fill="#EEEEEE" style="stroke:#000000;stroke-width:1.5;"/><rect fill="none" height="264.3281" style="stroke:#000000;stroke-width:1.5;" width="989.3286" x="481.3555" y="353.8906"/><text fill="#000000" font-family="sans-serif" font-size="13" font-weight="bold" lengthAdjust="spacing" textLength="31.624" x="496.3555" y="366.9575">loop</text><text fill="#000000" font-family="sans-serif" font-size="11" font-weight="bold" lengthAdjust="spacing" textLength="185.5767" x="572.9795" y="366.1011">[for each inactive enrollment]</text><g class="message" data-entity-1="part3" data-entity-2="part4" id="msg6"><polygon fill="#181818" points="778.6606,388.1563,788.6606,392.1563,778.6606,396.1563,782.6606,392.1563" style="stroke:#181818;stroke-width:1;"/><line style="stroke:#181818;stroke-width:1;" x1="537.4692" x2="784.6606" y1="392.1563" y2="392.1563"/><text fill="#000000" font-family="sans-serif" font-size="13" font-weight="bold" lengthAdjust="spacing" textLength="9.0454" x="544.4692" y="387.0903">6</text><text fill="#000000" font-family="sans-serif" font-size="13" lengthAdjust="spacing" textLength="118.1997" x="557.5146" y="387.0903">Get course details</text></g><g class="message" data-entity-1="part4" data-entity-2="part3" id="msg7"><polygon fill="#181818" points="548.4692,417.2891,538.4692,421.2891,548.4692,425.2891,544.4692,421.2891" style="stroke:#181818;stroke-width:1;"/><line style="stroke:#181818;stroke-width:1;stroke-dasharray:2,2;" x1="542.4692" x2="794.6606" y1="421.2891" y2="421.2891"/><text fill="#000000" font-family="sans-serif" font-size="13" font-weight="bold" lengthAdjust="spacing" textLength="9.0454" x="554.4692" y="416.2231">7</text><text fill="#000000" font-family="sans-serif" font-size="13" lengthAdjust="spacing" textLength="139.8896" x="567.5146" y="416.2231">Course title, progress</text></g><g class="message" data-entity-1="part3" data-entity-2="part6" id="msg8"><polygon fill="#181818" points="1390.1426,446.4219,1400.1426,450.4219,1390.1426,454.4219,1394.1426,450.4219" style="stroke:#181818;stroke-width:1;"/><line style="stroke:#181818;stroke-width:1;" x1="537.4692" x2="1396.1426" y1="450.4219" y2="450.4219"/><text fill="#000000" font-family="sans-serif" font-size="13" font-weight="bold" lengthAdjust="spacing" textLength="9.0454" x="544.4692" y="445.356">8</text><text fill="#000000" font-family="sans-serif" font-size="13" lengthAdjust="spacing" textLength="183.9233" x="557.5146" y="445.356">gRPC: GetUserEmail(userID)</text></g><g class="message" data-entity-1="part6" data-entity-2="part3" id="msg9"><polygon fill="#181818" points="548.4692,475.5547,538.4692,479.5547,548.4692,483.5547,544.4692,479.5547" style="stroke:#181818;stroke-width:1;"/><line style="stroke:#181818;stroke-width:1;stroke-dasharray:2,2;" x1="542.4692" x2="1406.1426" y1="479.5547" y2="479.5547"/><text fill="#000000" font-family="sans-serif" font-size="13" font-weight="bold" lengthAdjust="spacing" textLength="9.0454" x="554.4692" y="474.4888">9</text><text fill="#000000" font-family="sans-serif" font-size="13" lengthAdjust="spacing" textLength="139.2041" x="567.5146" y="474.4888">User email and name</text></g><g class="message" data-entity-1="part3" data-entity-2="part5" id="msg10"><polygon fill="#181818" points="1142.8794,504.6875,1152.8794,508.6875,1142.8794,512.6875,1146.8794,508.6875" style="stroke:#181818;stroke-width:1;"/><line style="stroke:#181818;stroke-width:1;" x1="537.4692" x2="1148.8794" y1="508.6875" y2="508.6875"/><text fill="#000000" font-family="sans-serif" font-size="13" font-weight="bold" lengthAdjust="spacing" textLength="18.0908" x="544.4692" y="503.6216">10</text><text fill="#000000" font-family="sans-serif" font-size="13" lengthAdjust="spacing" textLength="173.564" x="566.5601" y="503.6216">Send reminder notification</text></g><g class="message" data-entity-1="part5" data-entity-2="part5" id="msg11"><line style="stroke:#181818;stroke-width:1;" x1="1164.8794" x2="1206.8794" y1="568.0859" y2="568.0859"/><line style="stroke:#181818;stroke-width:1;" x1="1206.8794" x2="1206.8794" y1="568.0859" y2="581.0859"/><line style="stroke:#181818;stroke-width:1;" x1="1165.8794" x2="1206.8794" y1="581.0859" y2="581.0859"/><polygon fill="#181818" points="1175.8794,577.0859,1165.8794,581.0859,1175.8794,585.0859,1171.8794,581.0859" style="stroke:#181818;stroke-width:1;"/><text fill="#000000" font-family="sans-serif" font-size="13" font-weight="bold" lengthAdjust="spacing" textLength="18.0908" x="1171.8794" y="547.8872">11</text><text fill="#000000" font-family="sans-serif" font-size="13" lengthAdjust="spacing" textLength="87.0708" x="1193.9702" y="532.7544">Queue email:</text><text fill="#000000" font-family="sans-serif" font-size="13" lengthAdjust="spacing" textLength="191.1724" x="1193.9702" y="547.8872">"Continue learning {course}!</text><text fill="#000000" font-family="sans-serif" font-size="13" lengthAdjust="spacing" textLength="173.3228" x="1193.9702" y="563.02">You're {progress}% done"</text></g><g class="message" data-entity-1="part5" data-entity-2="part3" id="msg12"><polygon fill="#181818" points="548.4692,606.2188,538.4692,610.2188,548.4692,614.2188,544.4692,610.2188" style="stroke:#181818;stroke-width:1;"/><line style="stroke:#181818;stroke-width:1;stroke-dasharray:2,2;" x1="542.4692" x2="1158.8794" y1="610.2188" y2="610.2188"/><text fill="#000000" font-family="sans-serif" font-size="13" font-weight="bold" lengthAdjust="spacing" textLength="18.0908" x="554.4692" y="605.1528">12</text><text fill="#000000" font-family="sans-serif" font-size="13" lengthAdjust="spacing" textLength="127.7021" x="576.5601" y="605.1528">Notification queued</text></g><g class="message" data-entity-1="part3" data-entity-2="part2" id="msg13"><polygon fill="#181818" points="329.502,642.3516,319.502,646.3516,329.502,650.3516,325.502,646.3516" style="stroke:#181818;stroke-width:1;"/><line style="stroke:#181818;stroke-width:1;stroke-dasharray:2,2;" x1="323.502" x2="531.4692" y1="646.3516" y2="646.3516"/><text fill="#000000" font-family="sans-serif" font-size="13" font-weight="bold" lengthAdjust="spacing" textLength="18.0908" x="335.502" y="641.2856">13</text><text fill="#000000" font-family="sans-serif" font-size="13" lengthAdjust="spacing" textLength="139.6104" x="357.5928" y="641.2856">{remindersCount: N}</text></g><g class="message" data-entity-1="part2" data-entity-2="part1" id="msg14"><polygon fill="#181818" points="90.9775,671.4844,80.9775,675.4844,90.9775,679.4844,86.9775,675.4844" style="stroke:#181818;stroke-width:1;"/><line style="stroke:#181818;stroke-width:1;stroke-dasharray:2,2;" x1="84.9775" x2="312.502" y1="675.4844" y2="675.4844"/><text fill="#000000" font-family="sans-serif" font-size="13" font-weight="bold" lengthAdjust="spacing" textLength="18.0908" x="96.9775" y="670.4185">14</text><text fill="#000000" font-family="sans-serif" font-size="13" lengthAdjust="spacing" textLength="93.1455" x="119.0684" y="670.4185">Job completed</text></g><?plantuml-src RLHXQzim4FtkNt7B64sW2TkdGIa3nt7R5C_fd6IbO0XAV4srsL8cosr3wN_VINOSETHWi79txvxUtGkhj1HLiKRbUULVBdPCiGB6ylMEPHaNM_ZsrVFMyXLwyyqJPbME2kQedla6U_0vujidVQtOtWFOIA6LpE6OnqgO1pSUYWm8eO49PALAFCLum3oNBmvAWWKN6QgWFZTmIU2ar4Z-RcSYWK-HZ6csPeHUXoPZ6vcCJoZ4KlD7lc6QIt5A9DWpuVHmKxjKuk04TLb-90sY2sTokZ1B1uR4Wk4FkkG5B1JVRYaZOppVWsh4W3zoxR6DvizCezMsFP0oNXAOyi1looDaIj0G3sBs1yS24imBV5im6L_05IK05pQCa9j2L6Kg-YWiMQ9OQH1IGvF21NmdUllInIIfwMr1vs4K1Wl0KKNtNl7id3utTZHqICLLCli9DNw1GfU0gOZ2gmNSpgOnSIXBALOx9RUAFY7VmIo6qMYKYlkRC0ajLh7BKMEsOXgcSuYNKPGA03-UG3zdfLvPQbpluHBYsNr_04EOneim-Ur7S5RpFpCLzfabq2rg80T6gClXiBvKn4iDyl4ebdC3ByEE65ukvGuUfGBw_UcZ4beEPmhNgA4M23BKDFkIuXr4czvoQSoakSxn70vI6IUSy3XqMT9kRPExmBOosnWMrALlvZET3Dnco-3OorJPzKQJ3OnMHR02ktsee6qJKy7Sx7MxkS8najicDctYu53qgy8AwpONgUWPht1HDGjf_exUQddUFwNYGLPd2k7jSEttBv19WRqZRuFOCVi_0vzrUTT6jkwnkf9ztWwqIn9OQ09vxqpMjrOrsSQhjt8DxIQwUUH9vsJi-Xy0?></g></svg>