<?plantuml 1.2026.1?><svg xmlns="http://www.w3.org/2000/svg" xmlns:xlink="http://www.w3.org/1999/xlink" contentStyleType="text/css" data-diagram-type="SEQUENCE" height="1101px" preserveAspectRatio="none" style="width:1870px;height:1101px;background:#FFFFFF;" version="1.1" viewBox="0 0 1870 1101" width="1870px" zoomAndPan="magnify"><defs/><g><rect fill="#ADD8E6" height="1089.1797" style="stroke:#181818;stroke-width:0.5;" width="102.4434" x="503.3755" y="6"/><text fill="#000000" font-family="sans-serif" font-size="13" font-weight="bold" lengthAdjust="spacing" textLength="92.6821" x="508.2561" y="18.0669">API Gateway</text><rect fill="#FFFFE0" height="1089.1797" style="stroke:#181818;stroke-width:0.5;" width="718.2827" x="637.4233" y="6"/><text fill="#000000" font-family="sans-serif" font-size="13" font-weight="bold" lengthAdjust="spacing" textLength="109.2622" x="941.9336" y="18.0669">Course Service</text><rect fill="#90EE90" height="1089.1797" style="stroke:#181818;stroke-width:0.5;" width="186.6733" x="1578.3311" y="6"/><text fill="#000000" font-family="sans-serif" font-size="13" font-weight="bold" lengthAdjust="spacing" textLength="180.6733" x="1581.3311" y="18.0669">User Service (Authentik)</text><g><title>Learner</title><rect fill="#FFFFFF" height="286.3281" style="stroke:#181818;stroke-width:1;" width="10" x="44.9951" y="118.5625"/></g><g><title>WebApp</title><rect fill="#FFFFFF" height="286.3281" style="stroke:#181818;stroke-width:1;" width="10" x="277.2969" y="118.5625"/></g><g><title>API Gateway</title><rect fill="#FFFFFF" height="228.0625" style="stroke:#181818;stroke-width:1;" width="10" x="549.5972" y="147.6953"/></g><g><title>CourseController</title><rect fill="#FFFFFF" height="169.7969" style="stroke:#181818;stroke-width:1;" width="10" x="698.4482" y="176.8281"/></g><g><title>CourseApp</title><rect fill="#FFFFFF" height="536.5938" style="stroke:#181818;stroke-width:1;" width="10" x="974.8618" y="205.9609"/></g><g><title>CourseDB</title><rect fill="#FFFFFF" height="53.2656" style="stroke:#181818;stroke-width:1;" width="10" x="1309.0752" y="235.0938"/></g><g><title>CourseDB</title><rect fill="#FFFFFF" height="162.0625" style="stroke:#181818;stroke-width:1;" width="10" x="1309.0752" y="477.9609"/></g><g><title>CourseDB</title><rect fill="#FFFFFF" height="29.1328" style="stroke:#181818;stroke-width:1;" width="10" x="1309.0752" y="669.1563"/></g><g><title>UserController</title><rect fill="#FFFFFF" height="71.2656" style="stroke:#181818;stroke-width:1;" width="10" x="1666.6677" y="800.8203"/></g><rect fill="none" height="748.7891" style="stroke:#000000;stroke-width:1.5;" width="1853.3889" x="10" y="250.0938"/><g class="participant-lifeline" data-entity-uid="part1" data-qualified-name="L" id="part1-lifeline"><g><title>Learner</title><rect fill="#000000" fill-opacity="0.00000" height="928.4531" width="8" x="45.9951" y="87.4297"/><line style="stroke:#181818;stroke-width:0.5;stroke-dasharray:5,5;" x1="49" x2="49" y1="87.4297" y2="1015.8828"/></g></g><g class="participant-lifeline" data-entity-uid="part2" data-qualified-name="WA" id="part2-lifeline"><g><title>WebApp</title><rect fill="#000000" fill-opacity="0.00000" height="928.4531" width="8" x="278.2969" y="87.4297"/><line style="stroke:#181818;stroke-width:0.5;stroke-dasharray:5,5;" x1="281.9502" x2="281.9502" y1="87.4297" y2="1015.8828"/></g></g><g class="participant-lifeline" data-entity-uid="part3" data-qualified-name="GW" id="part3-lifeline"><g><title>API Gateway</title><rect fill="#000000" fill-opacity="0.00000" height="928.4531" width="8" x="550.5972" y="87.4297"/><line style="stroke:#181818;stroke-width:0.5;stroke-dasharray:5,5;" x1="554.3755" x2="554.3755" y1="87.4297" y2="1015.8828"/></g></g><g class="participant-lifeline" data-entity-uid="part4" data-qualified-name="CC" id="part4-lifeline"><g><title>CourseController</title><rect fill="#000000" fill-opacity="0.00000" height="928.4531" width="8" x="699.4482" y="87.4297"/><line style="stroke:#181818;stroke-width:0.5;stroke-dasharray:5,5;" x1="703.4233" x2="703.4233" y1="87.4297" y2="1015.8828"/></g></g><g class="participant-lifeline" data-entity-uid="part5" data-qualified-name="CA" id="part5-lifeline"><g><title>CourseApp</title><rect fill="#000000" fill-opacity="0.00000" height="928.4531" width="8" x="975.8618" y="87.4297"/><line style="stroke:#181818;stroke-width:0.5;stroke-dasharray:5,5;" x1="979.748" x2="979.748" y1="87.4297" y2="1015.8828"/></g></g><g class="participant-lifeline" data-entity-uid="part6" data-qualified-name="CDB" id="part6-lifeline"><g><title>CourseDB</title><rect fill="#000000" fill-opacity="0.00000" height="928.4531" width="8" x="1310.0752" y="87.4297"/><line style="stroke:#181818;stroke-width:0.5;stroke-dasharray:5,5;" x1="1313.4443" x2="1313.4443" y1="87.4297" y2="1015.8828"/></g></g><g class="participant-lifeline" data-entity-uid="part7" data-qualified-name="UC" id="part7-lifeline"><g><title>UserController</title><rect fill="#000000" fill-opacity="0.00000" height="928.4531" width="8" x="1667.6677" y="87.4297"/><line style="stroke:#181818;stroke-width:0.5;stroke-dasharray:5,5;" x1="1671.1262" x2="1671.1262" y1="87.4297" y2="1015.8828"/></g></g><g class="participant participant-head" data-entity-uid="part1" data-qualified-name="L" id="part1-head"><text fill="#000000" font-family="sans-serif" font-size="14" lengthAdjust="spacing" textLength="53.9902" x="20" y="84.1279">Learner</text><ellipse cx="49.9951" cy="19.6328" fill="#E2E2F0" rx="8" ry="8" style="stroke:#181818;stroke-width:0.5;"/><path d="M49.9951,27.6328 L49.9951,54.6328 M36.9951,35.6328 L62.9951,35.6328 M49.9951,54.6328 L36.9951,69.6328 M49.9951,54.6328 L62.9951,69.6328" fill="none" style="stroke:#181818;stroke-width:0.5;"/></g><g class="participant participant-tail" data-entity-uid="part1" data-qualified-name="L" id="part1-tail"><text fill="#000000" font-family="sans-serif" font-size="14" lengthAdjust="spacing" textLength="53.9902" x="20" y="1027.8779">Learner</text><ellipse cx="49.9951" cy="1039.6797" fill="#E2E2F0" rx="8" ry="8" style="stroke:#181818;stroke-width:0.5;"/><path d="M49.9951,1047.6797 L49.9951,1074.6797 M36.9951,1055.6797 L62.9951,1055.6797 M49.9951,1074.6797 L36.9951,1089.6797 M49.9951,1074.6797 L62.9951,1089.6797" fill="none" style="stroke:#181818;stroke-width:0.5;"/></g><g class="participant participant-head" data-entity-uid="part2" data-qualified-name="WA" id="part2-head"><text fill="#000000" font-family="sans-serif" font-size="14" lengthAdjust="spacing" textLength="58.6934" x="249.9502" y="84.1279">WebApp</text><path d="M261.7969,43.1328 L261.7969,67.1328 M261.7969,55.1328 L278.7969,55.1328" fill="none" style="stroke:#181818;stroke-width:0.5;"/><ellipse cx="290.7969" cy="55.1328" fill="#E2E2F0" rx="12" ry="12" style="stroke:#181818;stroke-width:0.5;"/></g><g class="participant participant-tail" data-entity-uid="part2" data-qualified-name="WA" id="part2-tail"><text fill="#000000" font-family="sans-serif" font-size="14" lengthAdjust="spacing" textLength="58.6934" x="249.9502" y="1027.8779">WebApp</text><path d="M261.7969,1035.1797 L261.7969,1059.1797 M261.7969,1047.1797 L278.7969,1047.1797" fill="none" style="stroke:#181818;stroke-width:0.5;"/><ellipse cx="290.7969" cy="1047.1797" fill="#E2E2F0" rx="12" ry="12" style="stroke:#181818;stroke-width:0.5;"/></g><g class="participant participant-head" data-entity-uid="part3" data-qualified-name="GW" id="part3-head"><text fill="#000000" font-family="sans-serif" font-size="14" lengthAdjust="spacing" textLength="88.4434" x="507.3755" y="84.1279">API Gateway</text><ellipse cx="554.5972" cy="55.1328" fill="#E2E2F0" rx="12" ry="12" style="stroke:#181818;stroke-width:0.5;"/><polygon fill="#181818" points="550.5972,43.1328,556.5972,38.1328,554.5972,43.1328,556.5972,48.1328,550.5972,43.1328" style="stroke:#181818;stroke-width:1;"/></g><g class="participant participant-tail" data-entity-uid="part3" data-qualified-name="GW" id="part3-tail"><text fill="#000000" font-family="sans-serif" font-size="14" lengthAdjust="spacing" textLength="88.4434" x="507.3755" y="1027.8779">API Gateway</text><ellipse cx="554.5972" cy="1047.1797" fill="#E2E2F0" rx="12" ry="12" style="stroke:#181818;stroke-width:0.5;"/><polygon fill="#181818" points="550.5972,1035.1797,556.5972,1030.1797,554.5972,1035.1797,556.5972,1040.1797,550.5972,1035.1797" style="stroke:#181818;stroke-width:1;"/></g><g class="participant participant-head" data-entity-uid="part4" data-qualified-name="CC" id="part4-head"><text fill="#000000" font-family="sans-serif" font-size="14" lengthAdjust="spacing" textLength="118.0498" x="641.4233" y="84.1279">CourseController</text><ellipse cx="703.4482" cy="55.1328" fill="#E2E2F0" rx="12" ry="12" style="stroke:#181818;stroke-width:0.5;"/><polygon fill="#181818" points="699.4482,43.1328,705.4482,38.1328,703.4482,43.1328,705.4482,48.1328,699.4482,43.1328" style="stroke:#181818;stroke-width:1;"/></g><g class="participant participant-tail" data-entity-uid="part4" data-qualified-name="CC" id="part4-tail"><text fill="#000000" font-family="sans-serif" font-size="14" lengthAdjust="spacing" textLength="118.0498" x="641.4233" y="1027.8779">CourseController</text><ellipse cx="703.4482" cy="1047.1797" fill="#E2E2F0" rx="12" ry="12" style="stroke:#181818;stroke-width:0.5;"/><polygon fill="#181818" points="699.4482,1035.1797,705.4482,1030.1797,703.4482,1035.1797,705.4482,1040.1797,699.4482,1035.1797" style="stroke:#181818;stroke-width:1;"/></g><g class="participant participant-head" data-entity-uid="part5" data-qualified-name="CA" id="part5-head"><text fill="#000000" font-family="sans-serif" font-size="14" lengthAdjust="spacing" textLength="76.2275" x="938.748" y="84.1279">CourseApp</text><ellipse cx="979.8618" cy="55.1328" fill="#E2E2F0" rx="12" ry="12" style="stroke:#181818;stroke-width:0.5;"/><polygon fill="#181818" points="975.8618,43.1328,981.8618,38.1328,979.8618,43.1328,981.8618,48.1328,975.8618,43.1328" style="stroke:#181818;stroke-width:1;"/></g><g class="participant participant-tail" data-entity-uid="part5" data-qualified-name="CA" id="part5-tail"><text fill="#000000" font-family="sans-serif" font-size="14" lengthAdjust="spacing" textLength="76.2275" x="938.748" y="1027.8779">CourseApp</text><ellipse cx="979.8618" cy="1047.1797" fill="#E2E2F0" rx="12" ry="12" style="stroke:#181818;stroke-width:0.5;"/><polygon fill="#181818" points="975.8618,1035.1797,981.8618,1030.1797,979.8618,1035.1797,981.8618,1040.1797,975.8618,1035.1797" style="stroke:#181818;stroke-width:1;"/></g><g class="participant participant-head" data-entity-uid="part6" data-qualified-name="CDB" id="part6-head"><text fill="#000000" font-family="sans-serif" font-size="14" lengthAdjust="spacing" textLength="69.2617" x="1276.4443" y="84.1279">CourseDB</text><path d="M1296.0752,35.1328 C1296.0752,25.1328 1314.0752,25.1328 1314.0752,25.1328 C1314.0752,25.1328 1332.0752,25.1328 1332.0752,35.1328 L1332.0752,61.1328 C1332.0752,71.1328 1314.0752,71.1328 1314.0752,71.1328 C1314.0752,71.1328 1296.0752,71.1328 1296.0752,61.1328 L1296.0752,35.1328" fill="#E2E2F0" style="stroke:#181818;stroke-width:0.5;"/><path d="M1296.0752,35.1328 C1296.0752,45.1328 1314.0752,45.1328 1314.0752,45.1328 C1314.0752,45.1328 1332.0752,45.1328 1332.0752,35.1328" fill="none" style="stroke:#181818;stroke-width:0.5;"/></g><g class="participant participant-tail" data-entity-uid="part6" data-qualified-name="CDB" id="part6-tail"><text fill="#000000" font-family="sans-serif" font-size="14" lengthAdjust="spacing" textLength="69.2617" x="1276.4443" y="1027.8779">CourseDB</text><path d="M1296.0752,1041.1797 C1296.0752,1031.1797 1314.0752,1031.1797 1314.0752,1031.1797 C1314.0752,1031.1797 1332.0752,1031.1797 1332.0752,1041.1797 L1332.0752,1067.1797 C1332.0752,1077.1797 1314.0752,1077.1797 1314.0752,1077.1797 C1314.0752,1077.1797 1296.0752,1077.1797 1296.0752,1067.1797 L1296.0752,1041.1797" fill="#E2E2F0" style="stroke:#181818;stroke-width:0.5;"/><path d="M1296.0752,1041.1797 C1296.0752,1051.1797 1314.0752,1051.1797 1314.0752,1051.1797 C1314.0752,1051.1797 1332.0752,1051.1797 1332.0752,1041.1797" fill="none" style="stroke:#181818;stroke-width:0.5;"/></g><g class="participant participant-head" data-entity-uid="part7" data-qualified-name="UC" id="part7-head"><text fill="#000000" font-family="sans-serif" font-size="14" lengthAdjust="spacing" textLength="101.083" x="1618.1262" y="84.1279">UserController</text><ellipse cx="1671.6677" cy="55.1328" fill="#E2E2F0" rx="12" ry="12" style="stroke:#181818;stroke-width:0.5;"/><polygon fill="#181818" points="1667.6677,43.1328,1673.6677,38.1328,1671.6677,43.1328,1673.6677,48.1328,1667.6677,43.1328" style="stroke:#181818;stroke-width:1;"/></g><g class="participant participant-tail" data-entity-uid="part7" data-qualified-name="UC" id="part7-tail"><text fill="#000000" font-family="sans-serif" font-size="14" lengthAdjust="spacing" textLength="101.083" x="1618.1262" y="1027.8779">UserController</text><ellipse cx="1671.6677" cy="1047.1797" fill="#E2E2F0" rx="12" ry="12" style="stroke:#181818;stroke-width:0.5;"/><polygon fill="#181818" points="1667.6677,1035.1797,1673.6677,1030.1797,1671.6677,1035.1797,1673.6677,1040.1797,1667.6677,1035.1797" style="stroke:#181818;stroke-width:1;"/></g><g><title>Learner</title><rect fill="#FFFFFF" height="286.3281" style="stroke:#181818;stroke-width:1;" width="10" x="44.9951" y="118.5625"/></g><g><title>WebApp</title><rect fill="#FFFFFF" height="286.3281" style="stroke:#181818;stroke-width:1;" width="10" x="277.2969" y="118.5625"/></g><g><title>API Gateway</title><rect fill="#FFFFFF" height="228.0625" style="stroke:#181818;stroke-width:1;" width="10" x="549.5972" y="147.6953"/></g><g><title>CourseController</title><rect fill="#FFFFFF" height="169.7969" style="stroke:#181818;stroke-width:1;" width="10" x="698.4482" y="176.8281"/></g><g><title>CourseApp</title><rect fill="#FFFFFF" height="536.5938" style="stroke:#181818;stroke-width:1;" width="10" x="974.8618" y="205.9609"/></g><g><title>CourseDB</title><rect fill="#FFFFFF" height="53.2656" style="stroke:#181818;stroke-width:1;" width="10" x="1309.0752" y="235.0938"/></g><g><title>CourseDB</title><rect fill="#FFFFFF" height="162.0625" style="stroke:#181818;stroke-width:1;" width="10" x="1309.0752" y="477.9609"/></g><g><title>CourseDB</title><rect fill="#FFFFFF" height="29.1328" style="stroke:#181818;stroke-width:1;" width="10" x="1309.0752" y="669.1563"/></g><g><title>UserController</title><rect fill="#FFFFFF" height="71.2656" style="stroke:#181818;stroke-width:1;" width="10" x="1666.6677" y="800.8203"/></g><g class="message" data-entity-1="part1" data-entity-2="part2" id="msg1"><polygon fill="#181818" points="265.2969,114.5625,275.2969,118.5625,265.2969,122.5625,269.2969,118.5625" style="stroke:#181818;stroke-width:1;"/><line style="stroke:#181818;stroke-width:1;" x1="54.9951" x2="271.2969" y1="118.5625" y2="118.5625"/><text fill="#000000" font-family="sans-serif" font-size="13" font-weight="bold" lengthAdjust="spacing" textLength="9.0454" x="61.9951" y="113.4966">1</text><text fill="#000000" font-family="sans-serif" font-size="13" lengthAdjust="spacing" textLength="131.7329" x="75.0405" y="113.4966">Click on course card</text></g><g class="message" data-entity-1="part2" data-entity-2="part3" id="msg2"><polygon fill="#181818" points="537.5972,143.6953,547.5972,147.6953,537.5972,151.6953,541.5972,147.6953" style="stroke:#181818;stroke-width:1;"/><line style="stroke:#181818;stroke-width:1;" x1="287.2969" x2="543.5972" y1="147.6953" y2="147.6953"/><text fill="#000000" font-family="sans-serif" font-size="13" font-weight="bold" lengthAdjust="spacing" textLength="9.0454" x="294.2969" y="142.6294">2</text><text fill="#000000" font-family="sans-serif" font-size="13" lengthAdjust="spacing" textLength="230.2549" x="307.3423" y="142.6294">GET /courses/{courseSlug}/landing</text></g><g class="message" data-entity-1="part3" data-entity-2="part4" id="msg3"><polygon fill="#181818" points="686.4482,172.8281,696.4482,176.8281,686.4482,180.8281,690.4482,176.8281" style="stroke:#181818;stroke-width:1;"/><line style="stroke:#181818;stroke-width:1;" x1="559.5972" x2="692.4482" y1="176.8281" y2="176.8281"/><text fill="#000000" font-family="sans-serif" font-size="13" font-weight="bold" lengthAdjust="spacing" textLength="9.0454" x="566.5972" y="171.7622">3</text><text fill="#000000" font-family="sans-serif" font-size="13" lengthAdjust="spacing" textLength="106.8057" x="579.6426" y="171.7622">Forward request</text></g><g class="message" data-entity-1="part4" data-entity-2="part5" id="msg4"><polygon fill="#181818" points="962.8618,201.9609,972.8618,205.9609,962.8618,209.9609,966.8618,205.9609" style="stroke:#181818;stroke-width:1;"/><line style="stroke:#181818;stroke-width:1;" x1="708.4482" x2="968.8618" y1="205.9609" y2="205.9609"/><text fill="#000000" font-family="sans-serif" font-size="13" font-weight="bold" lengthAdjust="spacing" textLength="9.0454" x="715.4482" y="200.895">4</text><text fill="#000000" font-family="sans-serif" font-size="13" lengthAdjust="spacing" textLength="234.3682" x="728.4937" y="200.895">GetCourseLandingPage(courseSlug)</text></g><g class="message" data-entity-1="part5" data-entity-2="part6" id="msg5"><polygon fill="#181818" points="1297.0752,231.0938,1307.0752,235.0938,1297.0752,239.0938,1301.0752,235.0938" style="stroke:#181818;stroke-width:1;"/><line style="stroke:#181818;stroke-width:1;" x1="984.8618" x2="1303.0752" y1="235.0938" y2="235.0938"/><text fill="#000000" font-family="sans-serif" font-size="13" font-weight="bold" lengthAdjust="spacing" textLength="9.0454" x="991.8618" y="230.0278">5</text><text fill="#000000" font-family="sans-serif" font-size="13" lengthAdjust="spacing" textLength="126.2549" x="1004.9072" y="230.0278">Find course by slug</text></g><path d="M10,250.0938 L74.4429,250.0938 L74.4429,257.2266 L64.4429,267.2266 L10,267.2266 L10,250.0938" fill="#EEEEEE" style="stroke:#000000;stroke-width:1.5;"/><rect fill="none" height="748.7891" style="stroke:#000000;stroke-width:1.5;" width="1853.3889" x="10" y="250.0938"/><text fill="#000000" font-family="sans-serif" font-size="13" font-weight="bold" lengthAdjust="spacing" textLength="19.4429" x="25" y="263.1606">alt</text><text fill="#000000" font-family="sans-serif" font-size="11" font-weight="bold" lengthAdjust="spacing" textLength="223.083" x="89.4429" y="262.3042">[Course not found or not published]</text><g class="message" data-entity-1="part6" data-entity-2="part5" id="msg6"><polygon fill="#181818" points="995.8618,284.3594,985.8618,288.3594,995.8618,292.3594,991.8618,288.3594" style="stroke:#181818;stroke-width:1;"/><line style="stroke:#181818;stroke-width:1;stroke-dasharray:2,2;" x1="989.8618" x2="1313.0752" y1="288.3594" y2="288.3594"/><text fill="#000000" font-family="sans-serif" font-size="13" font-weight="bold" lengthAdjust="spacing" textLength="9.0454" x="1001.8618" y="283.2935">6</text><text fill="#000000" font-family="sans-serif" font-size="13" lengthAdjust="spacing" textLength="64.1685" x="1014.9072" y="283.2935">Not found</text></g><g class="message" data-entity-1="part5" data-entity-2="part4" id="msg7"><polygon fill="#181818" points="719.4482,313.4922,709.4482,317.4922,719.4482,321.4922,715.4482,317.4922" style="stroke:#181818;stroke-width:1;"/><line style="stroke:#181818;stroke-width:1;stroke-dasharray:2,2;" x1="713.4482" x2="973.8618" y1="317.4922" y2="317.4922"/><text fill="#000000" font-family="sans-serif" font-size="13" font-weight="bold" lengthAdjust="spacing" textLength="9.0454" x="725.4482" y="312.4263">7</text><text fill="#000000" font-family="sans-serif" font-size="13" lengthAdjust="spacing" textLength="96.0146" x="738.4937" y="312.4263">404 Not Found</text></g><g class="message" data-entity-1="part4" data-entity-2="part3" id="msg8"><polygon fill="#181818" points="570.5972,342.625,560.5972,346.625,570.5972,350.625,566.5972,346.625" style="stroke:#181818;stroke-width:1;"/><line style="stroke:#181818;stroke-width:1;stroke-dasharray:2,2;" x1="564.5972" x2="702.4482" y1="346.625" y2="346.625"/><text fill="#000000" font-family="sans-serif" font-size="13" font-weight="bold" lengthAdjust="spacing" textLength="9.0454" x="576.5972" y="341.5591">8</text><text fill="#000000" font-family="sans-serif" font-size="13" lengthAdjust="spacing" textLength="32.2017" x="589.6426" y="341.5591">Error</text></g><g class="message" data-entity-1="part3" data-entity-2="part2" id="msg9"><polygon fill="#181818" points="298.2969,371.7578,288.2969,375.7578,298.2969,379.7578,294.2969,375.7578" style="stroke:#181818;stroke-width:1;"/><line style="stroke:#181818;stroke-width:1;stroke-dasharray:2,2;" x1="292.2969" x2="553.5972" y1="375.7578" y2="375.7578"/><text fill="#000000" font-family="sans-serif" font-size="13" font-weight="bold" lengthAdjust="spacing" textLength="9.0454" x="304.2969" y="370.6919">9</text><text fill="#000000" font-family="sans-serif" font-size="13" lengthAdjust="spacing" textLength="32.2017" x="317.3423" y="370.6919">Error</text></g><g class="message" data-entity-1="part2" data-entity-2="part1" id="msg10"><polygon fill="#181818" points="60.9951,400.8906,50.9951,404.8906,60.9951,408.8906,56.9951,404.8906" style="stroke:#181818;stroke-width:1;"/><line style="stroke:#181818;stroke-width:1;" x1="54.9951" x2="281.2969" y1="404.8906" y2="404.8906"/><text fill="#000000" font-family="sans-serif" font-size="13" font-weight="bold" lengthAdjust="spacing" textLength="18.0908" x="66.9951" y="399.8247">10</text><text fill="#000000" font-family="sans-serif" font-size="13" lengthAdjust="spacing" textLength="176.2109" x="89.0859" y="399.8247">Display "Course not found"</text></g><line style="stroke:#000000;stroke-width:1;stroke-dasharray:2,2;" x1="10" x2="1863.3889" y1="413.8906" y2="413.8906"/><text fill="#000000" font-family="sans-serif" font-size="11" font-weight="bold" lengthAdjust="spacing" textLength="92.6567" x="15" y="424.1011">[Course found]</text><g class="message" data-entity-1="part6" data-entity-2="part5" id="msg11"><polygon fill="#181818" points="995.8618,444.8281,985.8618,448.8281,995.8618,452.8281,991.8618,448.8281" style="stroke:#181818;stroke-width:1;"/><line style="stroke:#181818;stroke-width:1;stroke-dasharray:2,2;" x1="989.8618" x2="1313.0752" y1="448.8281" y2="448.8281"/><text fill="#000000" font-family="sans-serif" font-size="13" font-weight="bold" lengthAdjust="spacing" textLength="18.0908" x="1001.8618" y="443.7622">11</text><text fill="#000000" font-family="sans-serif" font-size="13" lengthAdjust="spacing" textLength="78.7998" x="1023.9526" y="443.7622">Course data</text></g><g class="message" data-entity-1="part5" data-entity-2="part6" id="msg12"><polygon fill="#181818" points="1297.0752,473.9609,1307.0752,477.9609,1297.0752,481.9609,1301.0752,477.9609" style="stroke:#181818;stroke-width:1;"/><line style="stroke:#181818;stroke-width:1;" x1="984.8618" x2="1303.0752" y1="477.9609" y2="477.9609"/><text fill="#000000" font-family="sans-serif" font-size="13" font-weight="bold" lengthAdjust="spacing" textLength="18.0908" x="991.8618" y="472.895">12</text><text fill="#000000" font-family="sans-serif" font-size="13" lengthAdjust="spacing" textLength="233.6699" x="1013.9526" y="472.895">Get course sections (structure only)</text></g><g class="message" data-entity-1="part6" data-entity-2="part6" id="msg13"><line style="stroke:#181818;stroke-width:1;" x1="1319.0752" x2="1361.0752" y1="597.8906" y2="597.8906"/><line style="stroke:#181818;stroke-width:1;" x1="1361.0752" x2="1361.0752" y1="597.8906" y2="610.8906"/><line style="stroke:#181818;stroke-width:1;" x1="1320.0752" x2="1361.0752" y1="610.8906" y2="610.8906"/><polygon fill="#181818" points="1330.0752,606.8906,1320.0752,610.8906,1330.0752,614.8906,1326.0752,610.8906" style="stroke:#181818;stroke-width:1;"/><text fill="#000000" font-family="sans-serif" font-size="13" font-weight="bold" lengthAdjust="spacing" textLength="18.0908" x="1326.0752" y="547.4263">13</text><text fill="#000000" font-family="sans-serif" font-size="13" lengthAdjust="spacing" textLength="178.623" x="1348.166" y="502.0278">SELECT s.id, s.title, s.order,</text><text fill="#000000" font-family="sans-serif" font-size="13" lengthAdjust="spacing" textLength="187.9033" x="1356.4307" y="517.1606">COUNT(l.id) as lesson_count,</text><text fill="#000000" font-family="sans-serif" font-size="13" lengthAdjust="spacing" textLength="215.5093" x="1356.4307" y="532.2935">SUM(l.duration) as total_duration</text><text fill="#000000" font-family="sans-serif" font-size="13" lengthAdjust="spacing" textLength="106.5898" x="1348.166" y="547.4263">FROM sections s</text><text fill="#000000" font-family="sans-serif" font-size="13" lengthAdjust="spacing" textLength="265.7065" x="1348.166" y="562.5591">LEFT JOIN lessons l ON s.id = l.section_id</text><text fill="#000000" font-family="sans-serif" font-size="13" lengthAdjust="spacing" textLength="151.0044" x="1348.166" y="577.6919">WHERE s.course_id = ?</text><text fill="#000000" font-family="sans-serif" font-size="13" lengthAdjust="spacing" textLength="94.5864" x="1348.166" y="592.8247">GROUP BY s.id</text></g><g class="message" data-entity-1="part6" data-entity-2="part5" id="msg14"><polygon fill="#181818" points="995.8618,636.0234,985.8618,640.0234,995.8618,644.0234,991.8618,640.0234" style="stroke:#181818;stroke-width:1;"/><line style="stroke:#181818;stroke-width:1;stroke-dasharray:2,2;" x1="989.8618" x2="1313.0752" y1="640.0234" y2="640.0234"/><text fill="#000000" font-family="sans-serif" font-size="13" font-weight="bold" lengthAdjust="spacing" textLength="18.0908" x="1001.8618" y="634.9575">14</text><text fill="#000000" font-family="sans-serif" font-size="13" lengthAdjust="spacing" textLength="124.4648" x="1023.9526" y="634.9575">Section summaries</text></g><g class="message" data-entity-1="part5" data-entity-2="part6" id="msg15"><polygon fill="#181818" points="1297.0752,665.1563,1307.0752,669.1563,1297.0752,673.1563,1301.0752,669.1563" style="stroke:#181818;stroke-width:1;"/><line style="stroke:#181818;stroke-width:1;" x1="984.8618" x2="1303.0752" y1="669.1563" y2="669.1563"/><text fill="#000000" font-family="sans-serif" font-size="13" font-weight="bold" lengthAdjust="spacing" textLength="18.0908" x="991.8618" y="664.0903">15</text><text fill="#000000" font-family="sans-serif" font-size="13" lengthAdjust="spacing" textLength="106.5962" x="1013.9526" y="664.0903">Get course stats</text></g><g class="message" data-entity-1="part6" data-entity-2="part5" id="msg16"><polygon fill="#181818" points="995.8618,694.2891,985.8618,698.2891,995.8618,702.2891,991.8618,698.2891" style="stroke:#181818;stroke-width:1;"/><line style="stroke:#181818;stroke-width:1;stroke-dasharray:2,2;" x1="989.8618" x2="1313.0752" y1="698.2891" y2="698.2891"/><text fill="#000000" font-family="sans-serif" font-size="13" font-weight="bold" lengthAdjust="spacing" textLength="18.0908" x="1001.8618" y="693.2231">16</text><text fill="#000000" font-family="sans-serif" font-size="13" lengthAdjust="spacing" textLength="278.1226" x="1023.9526" y="693.2231">Course stats (rating, reviews, enrollments)</text></g><g class="message" data-entity-1="part5" data-entity-2="part4" id="msg17"><polygon fill="#181818" points="714.4482,738.5547,704.4482,742.5547,714.4482,746.5547,710.4482,742.5547" style="stroke:#181818;stroke-width:1;"/><line style="stroke:#181818;stroke-width:1;stroke-dasharray:2,2;" x1="708.4482" x2="978.8618" y1="742.5547" y2="742.5547"/><text fill="#000000" font-family="sans-serif" font-size="13" font-weight="bold" lengthAdjust="spacing" textLength="18.0908" x="720.4482" y="729.9224">17</text><text fill="#000000" font-family="sans-serif" font-size="13" lengthAdjust="spacing" textLength="125.3726" x="742.5391" y="722.356">CourseLandingDTO</text><text fill="#000000" font-family="sans-serif" font-size="13" lengthAdjust="spacing" textLength="224.8975" x="742.5391" y="737.4888">(no lesson content, only structure)</text></g><g class="message" data-entity-1="part4" data-entity-2="part3" id="msg18"><polygon fill="#181818" points="565.5972,767.6875,555.5972,771.6875,565.5972,775.6875,561.5972,771.6875" style="stroke:#181818;stroke-width:1;"/><line style="stroke:#181818;stroke-width:1;stroke-dasharray:2,2;" x1="559.5972" x2="702.4482" y1="771.6875" y2="771.6875"/><text fill="#000000" font-family="sans-serif" font-size="13" font-weight="bold" lengthAdjust="spacing" textLength="18.0908" x="571.5972" y="766.6216">18</text><text fill="#000000" font-family="sans-serif" font-size="13" lengthAdjust="spacing" textLength="47.7026" x="593.688" y="766.6216">200 OK</text></g><g class="message" data-entity-1="part3" data-entity-2="part7" id="msg19"><polygon fill="#181818" points="1654.6677,796.8203,1664.6677,800.8203,1654.6677,804.8203,1658.6677,800.8203" style="stroke:#181818;stroke-width:1;"/><line style="stroke:#181818;stroke-width:1;" x1="554.5972" x2="1660.6677" y1="800.8203" y2="800.8203"/><text fill="#000000" font-family="sans-serif" font-size="13" font-weight="bold" lengthAdjust="spacing" textLength="18.0908" x="561.5972" y="795.7544">19</text><text fill="#000000" font-family="sans-serif" font-size="13" lengthAdjust="spacing" textLength="231.8672" x="583.688" y="795.7544">GET /users/{instructorID} (internal)</text></g><g class="message" data-entity-1="part7" data-entity-2="part7" id="msg20"><line style="stroke:#181818;stroke-width:1;" x1="1676.6677" x2="1718.6677" y1="829.9531" y2="829.9531"/><line style="stroke:#181818;stroke-width:1;" x1="1718.6677" x2="1718.6677" y1="829.9531" y2="842.9531"/><line style="stroke:#181818;stroke-width:1;" x1="1677.6677" x2="1718.6677" y1="842.9531" y2="842.9531"/><polygon fill="#181818" points="1687.6677,838.9531,1677.6677,842.9531,1687.6677,846.9531,1683.6677,842.9531" style="stroke:#181818;stroke-width:1;"/><text fill="#000000" font-family="sans-serif" font-size="13" font-weight="bold" lengthAdjust="spacing" textLength="18.0908" x="1683.6677" y="824.8872">20</text><text fill="#000000" font-family="sans-serif" font-size="13" lengthAdjust="spacing" textLength="135.6304" x="1705.7585" y="824.8872">Get instructor profile</text></g><g class="message" data-entity-1="part7" data-entity-2="part3" id="msg21"><polygon fill="#181818" points="565.5972,868.0859,555.5972,872.0859,565.5972,876.0859,561.5972,872.0859" style="stroke:#181818;stroke-width:1;"/><line style="stroke:#181818;stroke-width:1;stroke-dasharray:2,2;" x1="559.5972" x2="1670.6677" y1="872.0859" y2="872.0859"/><text fill="#000000" font-family="sans-serif" font-size="13" font-weight="bold" lengthAdjust="spacing" textLength="18.0908" x="571.5972" y="867.02">21</text><text fill="#000000" font-family="sans-serif" font-size="13" lengthAdjust="spacing" textLength="91.584" x="593.688" y="867.02">Instructor info</text></g><g class="message" data-entity-1="part3" data-entity-2="part2" id="msg22"><polygon fill="#181818" points="293.2969,897.2188,283.2969,901.2188,293.2969,905.2188,289.2969,901.2188" style="stroke:#181818;stroke-width:1;"/><line style="stroke:#181818;stroke-width:1;stroke-dasharray:2,2;" x1="287.2969" x2="553.5972" y1="901.2188" y2="901.2188"/><text fill="#000000" font-family="sans-serif" font-size="13" font-weight="bold" lengthAdjust="spacing" textLength="18.0908" x="299.2969" y="896.1528">22</text><text fill="#000000" font-family="sans-serif" font-size="13" lengthAdjust="spacing" textLength="121.8179" x="321.3877" y="896.1528">Landing page data</text></g><g class="message" data-entity-1="part2" data-entity-2="part1" id="msg23"><polygon fill="#181818" points="60.9951,986.8828,50.9951,990.8828,60.9951,994.8828,56.9951,990.8828" style="stroke:#181818;stroke-width:1;"/><line style="stroke:#181818;stroke-width:1;" x1="54.9951" x2="281.2969" y1="990.8828" y2="990.8828"/><text fill="#000000" font-family="sans-serif" font-size="13" font-weight="bold" lengthAdjust="spacing" textLength="18.0908" x="66.9951" y="955.5513">23</text><text fill="#000000" font-family="sans-serif" font-size="13" lengthAdjust="spacing" textLength="141.2036" x="89.0859" y="925.2856">Display landing page:</text><text fill="#000000" font-family="sans-serif" font-size="13" lengthAdjust="spacing" textLength="117.2666" x="89.0859" y="940.4185">- Course overview</text><text fill="#000000" font-family="sans-serif" font-size="13" lengthAdjust="spacing" textLength="100.4072" x="89.0859" y="955.5513">- Instructor info</text><text fill="#000000" font-family="sans-serif" font-size="13" lengthAdjust="spacing" textLength="143.7554" x="89.0859" y="970.6841">- Curriculum structure</text><text fill="#000000" font-family="sans-serif" font-size="13" lengthAdjust="spacing" textLength="143.1523" x="89.0859" y="985.8169">- Price &amp; Enroll button</text></g><?plantuml-src bLLjYnen4Fw-lsAuGb7GErlka_G5NLzgkwTokYm7WaGtvuMBYSsBdfJxxvraLzTLeVIBP3FFF3FpP6OaraXXrmkgWa2_Ch4XYgoXBT_694sPMC6dHX2GfP4A8agKe0g8XYXOI2jIelQGq4Lhit6NIIl0wpUuQOq7q2U6xiZ-1Zv4RFLYsjpI060fXL6Idq7Gjvy4LAI0xZb7AAtI52PKRTcI7cYUAEToTqAKmSBiYsV9XU458CymRA4b9OOi279dfaxRMphjimHYZMnvUAYqh7cXmh3NwY6Llg9Kd0Ho-78USLXGHb3_XW8r8UHi-GfIe9ylS4bKwlHbMrG3TJqUdPf9oxdraoRqkrEuorpqtP_iCE5szNx7YN3lL3YYbFt4-OLX4tfIxJ02AFhRKcqA58eKXA67OLPzQZ8reenjJ5QqKaIfdlXXMg5F2oL3VeOLvgKizg0HV895KGF2JQuq26dWsVKDO3UvZurTSAPVQ8ew8kcNUZrZ7Hw0xhbeYG-1OGR4jEyRznxRox5OjpTXuLsbf3fpTtsHP66SfbSWg9s7O7bH4pfCRpZP7vlncFzDsIjfbR-ZWF9ZVnqBEIqmDxbMl2mnmnuKngSv2AmfmgJGKD56sQMnYc8dyNqLFSv5mhO-C4owKJUSWhvbQGr_3JESkeDKALMrcK3qA1vEAnm1LTUud6ejnHoZ2kFja_W1hQbLnCNt62CDuVF3rKpq7aSFHO9w9g9kRme_HuDXJeUqC1hwBE0hyDiSEsVfJ2G_kezTD6LrpZtY-qpq7qVn6DfFtkbCmKdc3jgkrqGnglz7HqEClgBPvGDv95HSaM9LmodQChhJDQ32ZVaQDuAkNWzSD6bfi3hJqKnKXCn5yTi3MMh-7U7uhEUahN9pVsuqOFJhehip41OSX_d6iBYKS5ymaJ5BDUYyGuLXJ2K8B_LDxAOZ3e_kA5VX1XibdncdHHeECoZiJ3pBSZwnp-Tat785O8ExvKhdu-XTcpr-ujMSYVhXPUJMhMQwSrTdUNYKLOejBRVhGbHtFrPkdN-4hdz0M5Y3Vt__d6QStxy0?></g></svg>