<?plantuml 1.2026.1?><svg xmlns="http://www.w3.org/2000/svg" xmlns:xlink="http://www.w3.org/1999/xlink" contentStyleType="text/css" data-diagram-type="SEQUENCE" height="1267px" preserveAspectRatio="none" style="width:1809px;height:1267px;background:#FFFFFF;" version="1.1" viewBox="0 0 1809 1267" width="1809px" zoomAndPan="magnify"><defs/><g><rect fill="#ADD8E6" height="1255.9844" style="stroke:#181818;stroke-width:0.5;" width="102.4434" x="584.3784" y="6"/><text fill="#000000" font-family="sans-serif" font-size="13" font-weight="bold" lengthAdjust="spacing" textLength="92.6821" x="589.259" y="18.0669">API Gateway</text><rect fill="#FFFFE0" height="1255.9844" style="stroke:#181818;stroke-width:0.5;" width="834.4434" x="718.4263" y="6"/><text fill="#000000" font-family="sans-serif" font-size="13" font-weight="bold" lengthAdjust="spacing" textLength="109.2622" x="1081.0168" y="18.0669">Course Service</text><g><title>Instructor</title><rect fill="#FFFFFF" height="456.9922" style="stroke:#181818;stroke-width:1;" width="10" x="61.9609" y="118.5625"/></g><g><title>WebApp</title><rect fill="#FFFFFF" height="456.9922" style="stroke:#181818;stroke-width:1;" width="10" x="378.6714" y="118.5625"/></g><g><title>API Gateway</title><rect fill="#FFFFFF" height="312.3281" style="stroke:#181818;stroke-width:1;" width="10" x="630.6001" y="234.0938"/></g><g><title>CourseController</title><rect fill="#FFFFFF" height="211.9297" style="stroke:#181818;stroke-width:1;" width="10" x="779.4512" y="305.3594"/></g><g><title>CourseApp</title><rect fill="#FFFFFF" height="728.7969" style="stroke:#181818;stroke-width:1;" width="10" x="1060.2383" y="334.4922"/></g><g><title>Course</title><rect fill="#FFFFFF" height="71.2656" style="stroke:#181818;stroke-width:1;" width="10" x="1299.3594" y="847.3594"/></g><g><title>CourseDB</title><rect fill="#FFFFFF" height="29.1328" style="stroke:#181818;stroke-width:1;" width="10" x="1506.2388" y="363.625"/></g><g><title>CourseDB</title><rect fill="#FFFFFF" height="86.3984" style="stroke:#181818;stroke-width:1;" width="10" x="1506.2388" y="947.7578"/></g><rect fill="none" height="715.7969" style="stroke:#000000;stroke-width:1.5;" width="1792.3477" x="10" y="449.8906"/><rect fill="none" height="496.0625" style="stroke:#000000;stroke-width:1.5;" width="1772.3477" x="20" y="662.625"/><g class="participant-lifeline" data-entity-uid="part1" data-qualified-name="I" id="part1-lifeline"><g><title>Instructor</title><rect fill="#000000" fill-opacity="0.00000" height="1095.2578" width="8" x="62.9609" y="87.4297"/><line style="stroke:#181818;stroke-width:0.5;stroke-dasharray:5,5;" x1="66" x2="66" y1="87.4297" y2="1182.6875"/></g></g><g class="participant-lifeline" data-entity-uid="part2" data-qualified-name="WA" id="part2-lifeline"><g><title>WebApp</title><rect fill="#000000" fill-opacity="0.00000" height="1095.2578" width="8" x="379.6714" y="87.4297"/><line style="stroke:#181818;stroke-width:0.5;stroke-dasharray:5,5;" x1="383.3247" x2="383.3247" y1="87.4297" y2="1182.6875"/></g></g><g class="participant-lifeline" data-entity-uid="part3" data-qualified-name="GW" id="part3-lifeline"><g><title>API Gateway</title><rect fill="#000000" fill-opacity="0.00000" height="1095.2578" width="8" x="631.6001" y="87.4297"/><line style="stroke:#181818;stroke-width:0.5;stroke-dasharray:5,5;" x1="635.3784" x2="635.3784" y1="87.4297" y2="1182.6875"/></g></g><g class="participant-lifeline" data-entity-uid="part4" data-qualified-name="CC" id="part4-lifeline"><g><title>CourseController</title><rect fill="#000000" fill-opacity="0.00000" height="1095.2578" width="8" x="780.4512" y="87.4297"/><line style="stroke:#181818;stroke-width:0.5;stroke-dasharray:5,5;" x1="784.4263" x2="784.4263" y1="87.4297" y2="1182.6875"/></g></g><g class="participant-lifeline" data-entity-uid="part5" data-qualified-name="CA" id="part5-lifeline"><g><title>CourseApp</title><rect fill="#000000" fill-opacity="0.00000" height="1095.2578" width="8" x="1061.2383" y="87.4297"/><line style="stroke:#181818;stroke-width:0.5;stroke-dasharray:5,5;" x1="1065.1245" x2="1065.1245" y1="87.4297" y2="1182.6875"/></g></g><g class="participant-lifeline" data-entity-uid="part6" data-qualified-name="C" id="part6-lifeline"><g><title>Course</title><rect fill="#000000" fill-opacity="0.00000" height="1095.2578" width="8" x="1300.3594" y="87.4297"/><line style="stroke:#181818;stroke-width:0.5;stroke-dasharray:5,5;" x1="1303.9209" x2="1303.9209" y1="87.4297" y2="1182.6875"/></g></g><g class="participant-lifeline" data-entity-uid="part7" data-qualified-name="CDB" id="part7-lifeline"><g><title>CourseDB</title><rect fill="#000000" fill-opacity="0.00000" height="1095.2578" width="8" x="1507.2388" y="87.4297"/><line style="stroke:#181818;stroke-width:0.5;stroke-dasharray:5,5;" x1="1510.6079" x2="1510.6079" y1="87.4297" y2="1182.6875"/></g></g><g class="participant participant-head" data-entity-uid="part1" data-qualified-name="I" id="part1-head"><text fill="#000000" font-family="sans-serif" font-size="14" lengthAdjust="spacing" textLength="67.9219" x="30" y="84.1279">Instructor</text><ellipse cx="66.9609" cy="19.6328" fill="#E2E2F0" rx="8" ry="8" style="stroke:#181818;stroke-width:0.5;"/><path d="M66.9609,27.6328 L66.9609,54.6328 M53.9609,35.6328 L79.9609,35.6328 M66.9609,54.6328 L53.9609,69.6328 M66.9609,54.6328 L79.9609,69.6328" fill="none" style="stroke:#181818;stroke-width:0.5;"/></g><g class="participant participant-tail" data-entity-uid="part1" data-qualified-name="I" id="part1-tail"><text fill="#000000" font-family="sans-serif" font-size="14" lengthAdjust="spacing" textLength="67.9219" x="30" y="1194.6826">Instructor</text><ellipse cx="66.9609" cy="1206.4844" fill="#E2E2F0" rx="8" ry="8" style="stroke:#181818;stroke-width:0.5;"/><path d="M66.9609,1214.4844 L66.9609,1241.4844 M53.9609,1222.4844 L79.9609,1222.4844 M66.9609,1241.4844 L53.9609,1256.4844 M66.9609,1241.4844 L79.9609,1256.4844" fill="none" style="stroke:#181818;stroke-width:0.5;"/></g><g class="participant participant-head" data-entity-uid="part2" data-qualified-name="WA" id="part2-head"><text fill="#000000" font-family="sans-serif" font-size="14" lengthAdjust="spacing" textLength="58.6934" x="351.3247" y="84.1279">WebApp</text><path d="M363.1714,43.1328 L363.1714,67.1328 M363.1714,55.1328 L380.1714,55.1328" fill="none" style="stroke:#181818;stroke-width:0.5;"/><ellipse cx="392.1714" cy="55.1328" fill="#E2E2F0" rx="12" ry="12" style="stroke:#181818;stroke-width:0.5;"/></g><g class="participant participant-tail" data-entity-uid="part2" data-qualified-name="WA" id="part2-tail"><text fill="#000000" font-family="sans-serif" font-size="14" lengthAdjust="spacing" textLength="58.6934" x="351.3247" y="1194.6826">WebApp</text><path d="M363.1714,1201.9844 L363.1714,1225.9844 M363.1714,1213.9844 L380.1714,1213.9844" fill="none" style="stroke:#181818;stroke-width:0.5;"/><ellipse cx="392.1714" cy="1213.9844" fill="#E2E2F0" rx="12" ry="12" style="stroke:#181818;stroke-width:0.5;"/></g><g class="participant participant-head" data-entity-uid="part3" data-qualified-name="GW" id="part3-head"><text fill="#000000" font-family="sans-serif" font-size="14" lengthAdjust="spacing" textLength="88.4434" x="588.3784" y="84.1279">API Gateway</text><ellipse cx="635.6001" cy="55.1328" fill="#E2E2F0" rx="12" ry="12" style="stroke:#181818;stroke-width:0.5;"/><polygon fill="#181818" points="631.6001,43.1328,637.6001,38.1328,635.6001,43.1328,637.6001,48.1328,631.6001,43.1328" style="stroke:#181818;stroke-width:1;"/></g><g class="participant participant-tail" data-entity-uid="part3" data-qualified-name="GW" id="part3-tail"><text fill="#000000" font-family="sans-serif" font-size="14" lengthAdjust="spacing" textLength="88.4434" x="588.3784" y="1194.6826">API Gateway</text><ellipse cx="635.6001" cy="1213.9844" fill="#E2E2F0" rx="12" ry="12" style="stroke:#181818;stroke-width:0.5;"/><polygon fill="#181818" points="631.6001,1201.9844,637.6001,1196.9844,635.6001,1201.9844,637.6001,1206.9844,631.6001,1201.9844" style="stroke:#181818;stroke-width:1;"/></g><g class="participant participant-head" data-entity-uid="part4" data-qualified-name="CC" id="part4-head"><text fill="#000000" font-family="sans-serif" font-size="14" lengthAdjust="spacing" textLength="118.0498" x="722.4263" y="84.1279">CourseController</text><ellipse cx="784.4512" cy="55.1328" fill="#E2E2F0" rx="12" ry="12" style="stroke:#181818;stroke-width:0.5;"/><polygon fill="#181818" points="780.4512,43.1328,786.4512,38.1328,784.4512,43.1328,786.4512,48.1328,780.4512,43.1328" style="stroke:#181818;stroke-width:1;"/></g><g class="participant participant-tail" data-entity-uid="part4" data-qualified-name="CC" id="part4-tail"><text fill="#000000" font-family="sans-serif" font-size="14" lengthAdjust="spacing" textLength="118.0498" x="722.4263" y="1194.6826">CourseController</text><ellipse cx="784.4512" cy="1213.9844" fill="#E2E2F0" rx="12" ry="12" style="stroke:#181818;stroke-width:0.5;"/><polygon fill="#181818" points="780.4512,1201.9844,786.4512,1196.9844,784.4512,1201.9844,786.4512,1206.9844,780.4512,1201.9844" style="stroke:#181818;stroke-width:1;"/></g><g class="participant participant-head" data-entity-uid="part5" data-qualified-name="CA" id="part5-head"><text fill="#000000" font-family="sans-serif" font-size="14" lengthAdjust="spacing" textLength="76.2275" x="1024.1245" y="84.1279">CourseApp</text><ellipse cx="1065.2383" cy="55.1328" fill="#E2E2F0" rx="12" ry="12" style="stroke:#181818;stroke-width:0.5;"/><polygon fill="#181818" points="1061.2383,43.1328,1067.2383,38.1328,1065.2383,43.1328,1067.2383,48.1328,1061.2383,43.1328" style="stroke:#181818;stroke-width:1;"/></g><g class="participant participant-tail" data-entity-uid="part5" data-qualified-name="CA" id="part5-tail"><text fill="#000000" font-family="sans-serif" font-size="14" lengthAdjust="spacing" textLength="76.2275" x="1024.1245" y="1194.6826">CourseApp</text><ellipse cx="1065.2383" cy="1213.9844" fill="#E2E2F0" rx="12" ry="12" style="stroke:#181818;stroke-width:0.5;"/><polygon fill="#181818" points="1061.2383,1201.9844,1067.2383,1196.9844,1065.2383,1201.9844,1067.2383,1206.9844,1061.2383,1201.9844" style="stroke:#181818;stroke-width:1;"/></g><g class="participant participant-head" data-entity-uid="part6" data-qualified-name="C" id="part6-head"><text fill="#000000" font-family="sans-serif" font-size="14" lengthAdjust="spacing" textLength="48.877" x="1276.9209" y="84.1279">Course</text><ellipse cx="1304.3594" cy="55.1328" fill="#E2E2F0" rx="12" ry="12" style="stroke:#181818;stroke-width:0.5;"/><line style="stroke:#181818;stroke-width:0.5;" x1="1292.3594" x2="1316.3594" y1="69.1328" y2="69.1328"/></g><g class="participant participant-tail" data-entity-uid="part6" data-qualified-name="C" id="part6-tail"><text fill="#000000" font-family="sans-serif" font-size="14" lengthAdjust="spacing" textLength="48.877" x="1276.9209" y="1194.6826">Course</text><ellipse cx="1304.3594" cy="1213.9844" fill="#E2E2F0" rx="12" ry="12" style="stroke:#181818;stroke-width:0.5;"/><line style="stroke:#181818;stroke-width:0.5;" x1="1292.3594" x2="1316.3594" y1="1227.9844" y2="1227.9844"/></g><g class="participant participant-head" data-entity-uid="part7" data-qualified-name="CDB" id="part7-head"><text fill="#000000" font-family="sans-serif" font-size="14" lengthAdjust="spacing" textLength="69.2617" x="1473.6079" y="84.1279">CourseDB</text><path d="M1493.2388,35.1328 C1493.2388,25.1328 1511.2388,25.1328 1511.2388,25.1328 C1511.2388,25.1328 1529.2388,25.1328 1529.2388,35.1328 L1529.2388,61.1328 C1529.2388,71.1328 1511.2388,71.1328 1511.2388,71.1328 C1511.2388,71.1328 1493.2388,71.1328 1493.2388,61.1328 L1493.2388,35.1328" fill="#E2E2F0" style="stroke:#181818;stroke-width:0.5;"/><path d="M1493.2388,35.1328 C1493.2388,45.1328 1511.2388,45.1328 1511.2388,45.1328 C1511.2388,45.1328 1529.2388,45.1328 1529.2388,35.1328" fill="none" style="stroke:#181818;stroke-width:0.5;"/></g><g class="participant participant-tail" data-entity-uid="part7" data-qualified-name="CDB" id="part7-tail"><text fill="#000000" font-family="sans-serif" font-size="14" lengthAdjust="spacing" textLength="69.2617" x="1473.6079" y="1194.6826">CourseDB</text><path d="M1493.2388,1207.9844 C1493.2388,1197.9844 1511.2388,1197.9844 1511.2388,1197.9844 C1511.2388,1197.9844 1529.2388,1197.9844 1529.2388,1207.9844 L1529.2388,1233.9844 C1529.2388,1243.9844 1511.2388,1243.9844 1511.2388,1243.9844 C1511.2388,1243.9844 1493.2388,1243.9844 1493.2388,1233.9844 L1493.2388,1207.9844" fill="#E2E2F0" style="stroke:#181818;stroke-width:0.5;"/><path d="M1493.2388,1207.9844 C1493.2388,1217.9844 1511.2388,1217.9844 1511.2388,1217.9844 C1511.2388,1217.9844 1529.2388,1217.9844 1529.2388,1207.9844" fill="none" style="stroke:#181818;stroke-width:0.5;"/></g><g><title>Instructor</title><rect fill="#FFFFFF" height="456.9922" style="stroke:#181818;stroke-width:1;" width="10" x="61.9609" y="118.5625"/></g><g><title>WebApp</title><rect fill="#FFFFFF" height="456.9922" style="stroke:#181818;stroke-width:1;" width="10" x="378.6714" y="118.5625"/></g><g><title>API Gateway</title><rect fill="#FFFFFF" height="312.3281" style="stroke:#181818;stroke-width:1;" width="10" x="630.6001" y="234.0938"/></g><g><title>CourseController</title><rect fill="#FFFFFF" height="211.9297" style="stroke:#181818;stroke-width:1;" width="10" x="779.4512" y="305.3594"/></g><g><title>CourseApp</title><rect fill="#FFFFFF" height="728.7969" style="stroke:#181818;stroke-width:1;" width="10" x="1060.2383" y="334.4922"/></g><g><title>Course</title><rect fill="#FFFFFF" height="71.2656" style="stroke:#181818;stroke-width:1;" width="10" x="1299.3594" y="847.3594"/></g><g><title>CourseDB</title><rect fill="#FFFFFF" height="29.1328" style="stroke:#181818;stroke-width:1;" width="10" x="1506.2388" y="363.625"/></g><g><title>CourseDB</title><rect fill="#FFFFFF" height="86.3984" style="stroke:#181818;stroke-width:1;" width="10" x="1506.2388" y="947.7578"/></g><g class="message" data-entity-1="part1" data-entity-2="part2" id="msg1"><polygon fill="#181818" points="366.6714,114.5625,376.6714,118.5625,366.6714,122.5625,370.6714,118.5625" style="stroke:#181818;stroke-width:1;"/><line style="stroke:#181818;stroke-width:1;" x1="71.9609" x2="372.6714" y1="118.5625" y2="118.5625"/><text fill="#000000" font-family="sans-serif" font-size="13" font-weight="bold" lengthAdjust="spacing" textLength="9.0454" x="78.9609" y="113.4966">1</text><text fill="#000000" font-family="sans-serif" font-size="13" lengthAdjust="spacing" textLength="139.2993" x="92.0063" y="113.4966">Click "Delete Course"</text></g><g class="message" data-entity-1="part2" data-entity-2="part2" id="msg2"><line style="stroke:#181818;stroke-width:1;" x1="388.6714" x2="430.6714" y1="162.8281" y2="162.8281"/><line style="stroke:#181818;stroke-width:1;" x1="430.6714" x2="430.6714" y1="162.8281" y2="175.8281"/><line style="stroke:#181818;stroke-width:1;" x1="389.6714" x2="430.6714" y1="175.8281" y2="175.8281"/><polygon fill="#181818" points="399.6714,171.8281,389.6714,175.8281,399.6714,179.8281,395.6714,175.8281" style="stroke:#181818;stroke-width:1;"/><text fill="#000000" font-family="sans-serif" font-size="13" font-weight="bold" lengthAdjust="spacing" textLength="9.0454" x="395.6714" y="150.1958">2</text><text fill="#000000" font-family="sans-serif" font-size="13" lengthAdjust="spacing" textLength="178.2358" x="408.7168" y="142.6294">Display confirmation dialog</text><text fill="#000000" font-family="sans-serif" font-size="13" lengthAdjust="spacing" textLength="204.8833" x="408.7168" y="157.7622">"This action cannot be undone"</text></g><g class="message" data-entity-1="part1" data-entity-2="part2" id="msg3"><polygon fill="#181818" points="366.6714,200.9609,376.6714,204.9609,366.6714,208.9609,370.6714,204.9609" style="stroke:#181818;stroke-width:1;"/><line style="stroke:#181818;stroke-width:1;" x1="71.9609" x2="372.6714" y1="204.9609" y2="204.9609"/><text fill="#000000" font-family="sans-serif" font-size="13" font-weight="bold" lengthAdjust="spacing" textLength="9.0454" x="78.9609" y="199.895">3</text><text fill="#000000" font-family="sans-serif" font-size="13" lengthAdjust="spacing" textLength="108.3608" x="92.0063" y="199.895">Confirm deletion</text></g><g class="message" data-entity-1="part2" data-entity-2="part3" id="msg4"><polygon fill="#181818" points="618.6001,230.0938,628.6001,234.0938,618.6001,238.0938,622.6001,234.0938" style="stroke:#181818;stroke-width:1;"/><line style="stroke:#181818;stroke-width:1;" x1="388.6714" x2="624.6001" y1="234.0938" y2="234.0938"/><text fill="#000000" font-family="sans-serif" font-size="13" font-weight="bold" lengthAdjust="spacing" textLength="9.0454" x="395.6714" y="229.0278">4</text><text fill="#000000" font-family="sans-serif" font-size="13" lengthAdjust="spacing" textLength="185.0405" x="408.7168" y="229.0278">DELETE /courses/{courseId}</text></g><g class="message" data-entity-1="part3" data-entity-2="part3" id="msg5"><line style="stroke:#181818;stroke-width:1;" x1="640.6001" x2="682.6001" y1="263.2266" y2="263.2266"/><line style="stroke:#181818;stroke-width:1;" x1="682.6001" x2="682.6001" y1="263.2266" y2="276.2266"/><line style="stroke:#181818;stroke-width:1;" x1="641.6001" x2="682.6001" y1="276.2266" y2="276.2266"/><polygon fill="#181818" points="651.6001,272.2266,641.6001,276.2266,651.6001,280.2266,647.6001,276.2266" style="stroke:#181818;stroke-width:1;"/><text fill="#000000" font-family="sans-serif" font-size="13" font-weight="bold" lengthAdjust="spacing" textLength="9.0454" x="647.6001" y="258.1606">5</text><text fill="#000000" font-family="sans-serif" font-size="13" lengthAdjust="spacing" textLength="82.1577" x="660.6455" y="258.1606">Validate JWT</text></g><g class="message" data-entity-1="part3" data-entity-2="part4" id="msg6"><polygon fill="#181818" points="767.4512,301.3594,777.4512,305.3594,767.4512,309.3594,771.4512,305.3594" style="stroke:#181818;stroke-width:1;"/><line style="stroke:#181818;stroke-width:1;" x1="640.6001" x2="773.4512" y1="305.3594" y2="305.3594"/><text fill="#000000" font-family="sans-serif" font-size="13" font-weight="bold" lengthAdjust="spacing" textLength="9.0454" x="647.6001" y="300.2935">6</text><text fill="#000000" font-family="sans-serif" font-size="13" lengthAdjust="spacing" textLength="106.8057" x="660.6455" y="300.2935">Forward request</text></g><g class="message" data-entity-1="part4" data-entity-2="part5" id="msg7"><polygon fill="#181818" points="1048.2383,330.4922,1058.2383,334.4922,1048.2383,338.4922,1052.2383,334.4922" style="stroke:#181818;stroke-width:1;"/><line style="stroke:#181818;stroke-width:1;" x1="789.4512" x2="1054.2383" y1="334.4922" y2="334.4922"/><text fill="#000000" font-family="sans-serif" font-size="13" font-weight="bold" lengthAdjust="spacing" textLength="9.0454" x="796.4512" y="329.4263">7</text><text fill="#000000" font-family="sans-serif" font-size="13" lengthAdjust="spacing" textLength="238.7417" x="809.4966" y="329.4263">DeleteCourse(courseId, instructorID)</text></g><g class="message" data-entity-1="part5" data-entity-2="part7" id="msg8"><polygon fill="#181818" points="1494.2388,359.625,1504.2388,363.625,1494.2388,367.625,1498.2388,363.625" style="stroke:#181818;stroke-width:1;"/><line style="stroke:#181818;stroke-width:1;" x1="1070.2383" x2="1500.2388" y1="363.625" y2="363.625"/><text fill="#000000" font-family="sans-serif" font-size="13" font-weight="bold" lengthAdjust="spacing" textLength="9.0454" x="1077.2383" y="358.5591">8</text><text fill="#000000" font-family="sans-serif" font-size="13" lengthAdjust="spacing" textLength="75.1689" x="1090.2837" y="358.5591">Find course</text></g><g class="message" data-entity-1="part7" data-entity-2="part5" id="msg9"><polygon fill="#181818" points="1081.2383,388.7578,1071.2383,392.7578,1081.2383,396.7578,1077.2383,392.7578" style="stroke:#181818;stroke-width:1;"/><line style="stroke:#181818;stroke-width:1;stroke-dasharray:2,2;" x1="1075.2383" x2="1510.2388" y1="392.7578" y2="392.7578"/><text fill="#000000" font-family="sans-serif" font-size="13" font-weight="bold" lengthAdjust="spacing" textLength="9.0454" x="1087.2383" y="387.6919">9</text><text fill="#000000" font-family="sans-serif" font-size="13" lengthAdjust="spacing" textLength="78.7998" x="1100.2837" y="387.6919">Course data</text></g><g class="message" data-entity-1="part5" data-entity-2="part5" id="msg10"><line style="stroke:#181818;stroke-width:1;" x1="1070.2383" x2="1112.2383" y1="421.8906" y2="421.8906"/><line style="stroke:#181818;stroke-width:1;" x1="1112.2383" x2="1112.2383" y1="421.8906" y2="434.8906"/><line style="stroke:#181818;stroke-width:1;" x1="1071.2383" x2="1112.2383" y1="434.8906" y2="434.8906"/><polygon fill="#181818" points="1081.2383,430.8906,1071.2383,434.8906,1081.2383,438.8906,1077.2383,434.8906" style="stroke:#181818;stroke-width:1;"/><text fill="#000000" font-family="sans-serif" font-size="13" font-weight="bold" lengthAdjust="spacing" textLength="18.0908" x="1077.2383" y="416.8247">10</text><text fill="#000000" font-family="sans-serif" font-size="13" lengthAdjust="spacing" textLength="176.2744" x="1099.3291" y="416.8247">Verify instructor ownership</text></g><path d="M10,449.8906 L74.4429,449.8906 L74.4429,457.0234 L64.4429,467.0234 L10,467.0234 L10,449.8906" fill="#EEEEEE" style="stroke:#000000;stroke-width:1.5;"/><rect fill="none" height="715.7969" style="stroke:#000000;stroke-width:1.5;" width="1792.3477" x="10" y="449.8906"/><text fill="#000000" font-family="sans-serif" font-size="13" font-weight="bold" lengthAdjust="spacing" textLength="19.4429" x="25" y="462.9575">alt</text><text fill="#000000" font-family="sans-serif" font-size="11" font-weight="bold" lengthAdjust="spacing" textLength="119.5122" x="89.4429" y="462.1011">[Not course owner]</text><g class="message" data-entity-1="part5" data-entity-2="part4" id="msg11"><polygon fill="#181818" points="800.4512,484.1563,790.4512,488.1563,800.4512,492.1563,796.4512,488.1563" style="stroke:#181818;stroke-width:1;"/><line style="stroke:#181818;stroke-width:1;stroke-dasharray:2,2;" x1="794.4512" x2="1059.2383" y1="488.1563" y2="488.1563"/><text fill="#000000" font-family="sans-serif" font-size="13" font-weight="bold" lengthAdjust="spacing" textLength="18.0908" x="806.4512" y="483.0903">11</text><text fill="#000000" font-family="sans-serif" font-size="13" lengthAdjust="spacing" textLength="94.3262" x="828.542" y="483.0903">403 Forbidden</text></g><g class="message" data-entity-1="part4" data-entity-2="part3" id="msg12"><polygon fill="#181818" points="651.6001,513.2891,641.6001,517.2891,651.6001,521.2891,647.6001,517.2891" style="stroke:#181818;stroke-width:1;"/><line style="stroke:#181818;stroke-width:1;stroke-dasharray:2,2;" x1="645.6001" x2="783.4512" y1="517.2891" y2="517.2891"/><text fill="#000000" font-family="sans-serif" font-size="13" font-weight="bold" lengthAdjust="spacing" textLength="18.0908" x="657.6001" y="512.2231">12</text><text fill="#000000" font-family="sans-serif" font-size="13" lengthAdjust="spacing" textLength="32.2017" x="679.6909" y="512.2231">Error</text></g><g class="message" data-entity-1="part3" data-entity-2="part2" id="msg13"><polygon fill="#181818" points="399.6714,542.4219,389.6714,546.4219,399.6714,550.4219,395.6714,546.4219" style="stroke:#181818;stroke-width:1;"/><line style="stroke:#181818;stroke-width:1;stroke-dasharray:2,2;" x1="393.6714" x2="634.6001" y1="546.4219" y2="546.4219"/><text fill="#000000" font-family="sans-serif" font-size="13" font-weight="bold" lengthAdjust="spacing" textLength="18.0908" x="405.6714" y="541.356">13</text><text fill="#000000" font-family="sans-serif" font-size="13" lengthAdjust="spacing" textLength="32.2017" x="427.7622" y="541.356">Error</text></g><g class="message" data-entity-1="part2" data-entity-2="part1" id="msg14"><polygon fill="#181818" points="77.9609,571.5547,67.9609,575.5547,77.9609,579.5547,73.9609,575.5547" style="stroke:#181818;stroke-width:1;"/><line style="stroke:#181818;stroke-width:1;" x1="71.9609" x2="382.6714" y1="575.5547" y2="575.5547"/><text fill="#000000" font-family="sans-serif" font-size="13" font-weight="bold" lengthAdjust="spacing" textLength="18.0908" x="83.9609" y="570.4888">14</text><text fill="#000000" font-family="sans-serif" font-size="13" lengthAdjust="spacing" textLength="84.0366" x="106.0518" y="570.4888">Display error</text></g><line style="stroke:#000000;stroke-width:1;stroke-dasharray:2,2;" x1="10" x2="1802.3477" y1="584.5547" y2="584.5547"/><text fill="#000000" font-family="sans-serif" font-size="11" font-weight="bold" lengthAdjust="spacing" textLength="62.96" x="15" y="594.7651">[Is owner]</text><g class="message" data-entity-1="part5" data-entity-2="part5" id="msg15"><line style="stroke:#181818;stroke-width:1;" x1="1070.2383" x2="1112.2383" y1="634.625" y2="634.625"/><line style="stroke:#181818;stroke-width:1;" x1="1112.2383" x2="1112.2383" y1="634.625" y2="647.625"/><line style="stroke:#181818;stroke-width:1;" x1="1071.2383" x2="1112.2383" y1="647.625" y2="647.625"/><polygon fill="#181818" points="1081.2383,643.625,1071.2383,647.625,1081.2383,651.625,1077.2383,647.625" style="stroke:#181818;stroke-width:1;"/><text fill="#000000" font-family="sans-serif" font-size="13" font-weight="bold" lengthAdjust="spacing" textLength="18.0908" x="1077.2383" y="621.9927">15</text><text fill="#000000" font-family="sans-serif" font-size="13" lengthAdjust="spacing" textLength="131.6567" x="1099.3291" y="614.4263">Check course status</text><text fill="#000000" font-family="sans-serif" font-size="13" lengthAdjust="spacing" textLength="175.3413" x="1099.3291" y="629.5591">(must be draft or declined)</text></g><path d="M20,662.625 L84.4429,662.625 L84.4429,669.7578 L74.4429,679.7578 L20,679.7578 L20,662.625" fill="#EEEEEE" style="stroke:#000000;stroke-width:1.5;"/><rect fill="none" height="496.0625" style="stroke:#000000;stroke-width:1.5;" width="1772.3477" x="20" y="662.625"/><text fill="#000000" font-family="sans-serif" font-size="13" font-weight="bold" lengthAdjust="spacing" textLength="19.4429" x="35" y="675.6919">alt</text><text fill="#000000" font-family="sans-serif" font-size="11" font-weight="bold" lengthAdjust="spacing" textLength="131.7583" x="99.4429" y="674.8354">[Course is published]</text><g class="message" data-entity-1="part5" data-entity-2="part4" id="msg16"><polygon fill="#181818" points="795.4512,712.0234,785.4512,716.0234,795.4512,720.0234,791.4512,716.0234" style="stroke:#181818;stroke-width:1;"/><line style="stroke:#181818;stroke-width:1;stroke-dasharray:2,2;" x1="789.4512" x2="1059.2383" y1="716.0234" y2="716.0234"/><text fill="#000000" font-family="sans-serif" font-size="13" font-weight="bold" lengthAdjust="spacing" textLength="18.0908" x="801.4512" y="703.3911">16</text><text fill="#000000" font-family="sans-serif" font-size="13" lengthAdjust="spacing" textLength="111.6045" x="823.542" y="695.8247">400 Bad Request</text><text fill="#000000" font-family="sans-serif" font-size="13" lengthAdjust="spacing" textLength="218.5688" x="823.542" y="710.9575">"Cannot delete published course"</text></g><g class="message" data-entity-1="part4" data-entity-2="part3" id="msg17"><polygon fill="#181818" points="646.6001,741.1563,636.6001,745.1563,646.6001,749.1563,642.6001,745.1563" style="stroke:#181818;stroke-width:1;"/><line style="stroke:#181818;stroke-width:1;stroke-dasharray:2,2;" x1="640.6001" x2="783.4512" y1="745.1563" y2="745.1563"/><text fill="#000000" font-family="sans-serif" font-size="13" font-weight="bold" lengthAdjust="spacing" textLength="18.0908" x="652.6001" y="740.0903">17</text><text fill="#000000" font-family="sans-serif" font-size="13" lengthAdjust="spacing" textLength="32.2017" x="674.6909" y="740.0903">Error</text></g><g class="message" data-entity-1="part3" data-entity-2="part2" id="msg18"><polygon fill="#181818" points="394.6714,770.2891,384.6714,774.2891,394.6714,778.2891,390.6714,774.2891" style="stroke:#181818;stroke-width:1;"/><line style="stroke:#181818;stroke-width:1;stroke-dasharray:2,2;" x1="388.6714" x2="634.6001" y1="774.2891" y2="774.2891"/><text fill="#000000" font-family="sans-serif" font-size="13" font-weight="bold" lengthAdjust="spacing" textLength="18.0908" x="400.6714" y="769.2231">18</text><text fill="#000000" font-family="sans-serif" font-size="13" lengthAdjust="spacing" textLength="32.2017" x="422.7622" y="769.2231">Error</text></g><g class="message" data-entity-1="part2" data-entity-2="part1" id="msg19"><polygon fill="#181818" points="77.9609,799.4219,67.9609,803.4219,77.9609,807.4219,73.9609,803.4219" style="stroke:#181818;stroke-width:1;"/><line style="stroke:#181818;stroke-width:1;" x1="71.9609" x2="382.6714" y1="803.4219" y2="803.4219"/><text fill="#000000" font-family="sans-serif" font-size="13" font-weight="bold" lengthAdjust="spacing" textLength="18.0908" x="83.9609" y="798.356">19</text><text fill="#000000" font-family="sans-serif" font-size="13" lengthAdjust="spacing" textLength="270.6196" x="106.0518" y="798.356">Display "Cannot delete published course"</text></g><line style="stroke:#000000;stroke-width:1;stroke-dasharray:2,2;" x1="20" x2="1792.3477" y1="812.4219" y2="812.4219"/><text fill="#000000" font-family="sans-serif" font-size="11" font-weight="bold" lengthAdjust="spacing" textLength="76.4951" x="25" y="822.6323">[Can delete]</text><g class="message" data-entity-1="part5" data-entity-2="part6" id="msg20"><polygon fill="#181818" points="1287.3594,843.3594,1297.3594,847.3594,1287.3594,851.3594,1291.3594,847.3594" style="stroke:#181818;stroke-width:1;"/><line style="stroke:#181818;stroke-width:1;" x1="1070.2383" x2="1293.3594" y1="847.3594" y2="847.3594"/><text fill="#000000" font-family="sans-serif" font-size="13" font-weight="bold" lengthAdjust="spacing" textLength="18.0908" x="1077.2383" y="842.2935">20</text><text fill="#000000" font-family="sans-serif" font-size="13" lengthAdjust="spacing" textLength="188.0303" x="1099.3291" y="842.2935">Mark as deleted (soft delete)</text></g><g class="message" data-entity-1="part6" data-entity-2="part6" id="msg21"><line style="stroke:#181818;stroke-width:1;" x1="1309.3594" x2="1351.3594" y1="876.4922" y2="876.4922"/><line style="stroke:#181818;stroke-width:1;" x1="1351.3594" x2="1351.3594" y1="876.4922" y2="889.4922"/><line style="stroke:#181818;stroke-width:1;" x1="1310.3594" x2="1351.3594" y1="889.4922" y2="889.4922"/><polygon fill="#181818" points="1320.3594,885.4922,1310.3594,889.4922,1320.3594,893.4922,1316.3594,889.4922" style="stroke:#181818;stroke-width:1;"/><text fill="#000000" font-family="sans-serif" font-size="13" font-weight="bold" lengthAdjust="spacing" textLength="18.0908" x="1316.3594" y="871.4263">21</text><text fill="#000000" font-family="sans-serif" font-size="13" lengthAdjust="spacing" textLength="150.7886" x="1338.4502" y="871.4263">Set deletedAt = NOW()</text></g><g class="message" data-entity-1="part6" data-entity-2="part5" id="msg22"><polygon fill="#181818" points="1081.2383,914.625,1071.2383,918.625,1081.2383,922.625,1077.2383,918.625" style="stroke:#181818;stroke-width:1;"/><line style="stroke:#181818;stroke-width:1;stroke-dasharray:2,2;" x1="1075.2383" x2="1303.3594" y1="918.625" y2="918.625"/><text fill="#000000" font-family="sans-serif" font-size="13" font-weight="bold" lengthAdjust="spacing" textLength="18.0908" x="1087.2383" y="913.5591">22</text><text fill="#000000" font-family="sans-serif" font-size="13" lengthAdjust="spacing" textLength="98.5537" x="1109.3291" y="913.5591">Deleted course</text></g><g class="message" data-entity-1="part5" data-entity-2="part7" id="msg23"><polygon fill="#181818" points="1494.2388,943.7578,1504.2388,947.7578,1494.2388,951.7578,1498.2388,947.7578" style="stroke:#181818;stroke-width:1;"/><line style="stroke:#181818;stroke-width:1;" x1="1070.2383" x2="1500.2388" y1="947.7578" y2="947.7578"/><text fill="#000000" font-family="sans-serif" font-size="13" font-weight="bold" lengthAdjust="spacing" textLength="18.0908" x="1077.2383" y="942.6919">23</text><text fill="#000000" font-family="sans-serif" font-size="13" lengthAdjust="spacing" textLength="230.9595" x="1099.3291" y="942.6919">Soft delete course and related data</text></g><g class="message" data-entity-1="part7" data-entity-2="part7" id="msg24"><line style="stroke:#181818;stroke-width:1;" x1="1516.2388" x2="1558.2388" y1="992.0234" y2="992.0234"/><line style="stroke:#181818;stroke-width:1;" x1="1558.2388" x2="1558.2388" y1="992.0234" y2="1005.0234"/><line style="stroke:#181818;stroke-width:1;" x1="1517.2388" x2="1558.2388" y1="1005.0234" y2="1005.0234"/><polygon fill="#181818" points="1527.2388,1001.0234,1517.2388,1005.0234,1527.2388,1009.0234,1523.2388,1005.0234" style="stroke:#181818;stroke-width:1;"/><text fill="#000000" font-family="sans-serif" font-size="13" font-weight="bold" lengthAdjust="spacing" textLength="18.0908" x="1523.2388" y="979.3911">24</text><text fill="#000000" font-family="sans-serif" font-size="13" lengthAdjust="spacing" textLength="225.0181" x="1545.3296" y="971.8247">UPDATE courses, sections, lessons</text><text fill="#000000" font-family="sans-serif" font-size="13" lengthAdjust="spacing" textLength="159.4214" x="1545.3296" y="986.9575">SET deleted_at = NOW()</text></g><g class="message" data-entity-1="part7" data-entity-2="part5" id="msg25"><polygon fill="#181818" points="1081.2383,1030.1563,1071.2383,1034.1563,1081.2383,1038.1563,1077.2383,1034.1563" style="stroke:#181818;stroke-width:1;"/><line style="stroke:#181818;stroke-width:1;stroke-dasharray:2,2;" x1="1075.2383" x2="1510.2388" y1="1034.1563" y2="1034.1563"/><text fill="#000000" font-family="sans-serif" font-size="13" font-weight="bold" lengthAdjust="spacing" textLength="18.0908" x="1087.2383" y="1029.0903">25</text><text fill="#000000" font-family="sans-serif" font-size="13" lengthAdjust="spacing" textLength="52.3301" x="1109.3291" y="1029.0903">Success</text></g><g class="message" data-entity-1="part5" data-entity-2="part4" id="msg26"><polygon fill="#181818" points="795.4512,1059.2891,785.4512,1063.2891,795.4512,1067.2891,791.4512,1063.2891" style="stroke:#181818;stroke-width:1;"/><line style="stroke:#181818;stroke-width:1;stroke-dasharray:2,2;" x1="789.4512" x2="1064.2383" y1="1063.2891" y2="1063.2891"/><text fill="#000000" font-family="sans-serif" font-size="13" font-weight="bold" lengthAdjust="spacing" textLength="18.0908" x="801.4512" y="1058.2231">26</text><text fill="#000000" font-family="sans-serif" font-size="13" lengthAdjust="spacing" textLength="52.3301" x="823.542" y="1058.2231">Success</text></g><g class="message" data-entity-1="part4" data-entity-2="part3" id="msg27"><polygon fill="#181818" points="646.6001,1088.4219,636.6001,1092.4219,646.6001,1096.4219,642.6001,1092.4219" style="stroke:#181818;stroke-width:1;"/><line style="stroke:#181818;stroke-width:1;stroke-dasharray:2,2;" x1="640.6001" x2="783.4512" y1="1092.4219" y2="1092.4219"/><text fill="#000000" font-family="sans-serif" font-size="13" font-weight="bold" lengthAdjust="spacing" textLength="18.0908" x="652.6001" y="1087.356">27</text><text fill="#000000" font-family="sans-serif" font-size="13" lengthAdjust="spacing" textLength="102.4575" x="674.6909" y="1087.356">204 No Content</text></g><g class="message" data-entity-1="part3" data-entity-2="part2" id="msg28"><polygon fill="#181818" points="394.6714,1117.5547,384.6714,1121.5547,394.6714,1125.5547,390.6714,1121.5547" style="stroke:#181818;stroke-width:1;"/><line style="stroke:#181818;stroke-width:1;stroke-dasharray:2,2;" x1="388.6714" x2="634.6001" y1="1121.5547" y2="1121.5547"/><text fill="#000000" font-family="sans-serif" font-size="13" font-weight="bold" lengthAdjust="spacing" textLength="18.0908" x="400.6714" y="1116.4888">28</text><text fill="#000000" font-family="sans-serif" font-size="13" lengthAdjust="spacing" textLength="52.3301" x="422.7622" y="1116.4888">Success</text></g><g class="message" data-entity-1="part2" data-entity-2="part1" id="msg29"><polygon fill="#181818" points="77.9609,1146.6875,67.9609,1150.6875,77.9609,1154.6875,73.9609,1150.6875" style="stroke:#181818;stroke-width:1;"/><line style="stroke:#181818;stroke-width:1;" x1="71.9609" x2="382.6714" y1="1150.6875" y2="1150.6875"/><text fill="#000000" font-family="sans-serif" font-size="13" font-weight="bold" lengthAdjust="spacing" textLength="18.0908" x="83.9609" y="1145.6216">29</text><text fill="#000000" font-family="sans-serif" font-size="13" lengthAdjust="spacing" textLength="150.998" x="106.0518" y="1145.6216">Redirect to My Courses</text></g><?plantuml-src ZLHTRnen47o_Nx6YBo0b2ctp5BMLZeEYgv8q2ZIdIf4gSrw25MDJsnU2glxthkqx80THy-QFsTtPyQnPvRIgbZCqIM8VXLenmvOmqCytZ7EX7k1zFqbOwRI1N5bdgh1a5l9afYl5cTb0WRDqjVA7HPhGyJDqqfiSnipXccqwyEvIF2pSG5QO09HQEQDb2qAnuo91nO72wnoPhen5cA1v4YKsQNwYb7gzboZ2ihYJ6CXbsG6WPfYbT8FA2RUfBy8f7NBcs8pHFXuF1-5YEDYnok7q2xLu0PaKvIDqXYZHDVYELqayKKCapNP9WXHf4pOKTYNPnXER2xDaJcW5N32f7-vLPxeG5dmW7PPCAUrWXa0IQqN9zuh7QE2-Ee6JkiAue0gZoz5q16Tbe6JF_iH5pl_kA97Euw89k6DIS7_whPZMnrbs0L-rMJF3mU3l2gtR1PEmIPO5c6ye213xxpQbJa1iZP8FUtknP8uiK2LLgOOWNMFG7eRq9iodqzC8gf_8lqt2yGMioKKyxj28-MQlBkYrGcCNOaNcbGwkISnOAjxGSrCNeGg5d_S_-evdWdDKT4KwX2iIOcICzkZzsjuiHUJe9Jm28Oa3XEZbksV7Gs2Hljpd2KhYcDiTpMsJsGB9T7KNrZ5NsNlLNLOs-8GRDdT0dNCifL38Umb5-zvh2SbSgsecXLqWfvkM07qOC0wtyRd9Z5aq88yEtmRMvJiXmH6P3eKwAjMXM4VaUXE7jfOjDMdKlPwKgKuJEu-QNi0LCuz-okCTXwxLywPWBq1tpSJ8Ed223Ood3Zx3zVUYssjo1r6QuTXQl2rEia_5MtsogzsyCbD-12NpQS88lAH4Gn1oq5VL9FbnCqpf0wZd_mGiXW-5LXAjfSMzceoc3VTVx3ZvGASgImevuEqdhsMVrw1fsoOV-kSqYlu7S_G5_zylhoHkE-OMkJ3KA3WDLystRj_e3yNz1v_y0m00?></g></svg>