<?plantuml 1.2026.1?><svg xmlns="http://www.w3.org/2000/svg" xmlns:xlink="http://www.w3.org/1999/xlink" contentStyleType="text/css" data-diagram-type="SEQUENCE" height="717px" preserveAspectRatio="none" style="width:1396px;height:717px;background:#FFFFFF;" version="1.1" viewBox="0 0 1396 717" width="1396px" zoomAndPan="magnify"><defs/><g><rect fill="#ADD8E6" height="705.7891" style="stroke:#181818;stroke-width:0.5;" width="102.4434" x="561.2192" y="6"/><text fill="#000000" font-family="sans-serif" font-size="13" font-weight="bold" lengthAdjust="spacing" textLength="92.6821" x="566.0999" y="18.0669">API Gateway</text><rect fill="#FFFFE0" height="705.7891" style="stroke:#181818;stroke-width:0.5;" width="617.8301" x="765.5366" y="6"/><text fill="#000000" font-family="sans-serif" font-size="13" font-weight="bold" lengthAdjust="spacing" textLength="109.2622" x="1019.8206" y="18.0669">Course Service</text><g><title>Learner</title><rect fill="#FFFFFF" height="328.4609" style="stroke:#181818;stroke-width:1;" width="10" x="44.9951" y="118.5625"/></g><g><title>WebApp</title><rect fill="#FFFFFF" height="328.4609" style="stroke:#181818;stroke-width:1;" width="10" x="310.7847" y="118.5625"/></g><g><title>API Gateway</title><rect fill="#FFFFFF" height="270.1953" style="stroke:#181818;stroke-width:1;" width="10" x="607.4409" y="147.6953"/></g><g><title>BookmarkController</title><rect fill="#FFFFFF" height="169.7969" style="stroke:#181818;stroke-width:1;" width="10" x="837.5845" y="218.9609"/></g><g><title>CourseApp</title><rect fill="#FFFFFF" height="272" style="stroke:#181818;stroke-width:1;" width="10" x="1124.1099" y="248.0938"/></g><g><title>CourseDB</title><rect fill="#FFFFFF" height="53.2656" style="stroke:#181818;stroke-width:1;" width="10" x="1336.7358" y="277.2266"/></g><rect fill="none" height="323.2656" style="stroke:#000000;stroke-width:1.5;" width="1379.3667" x="10" y="292.2266"/><g class="participant-lifeline" data-entity-uid="part1" data-qualified-name="L" id="part1-lifeline"><g><title>Learner</title><rect fill="#000000" fill-opacity="0.00000" height="545.0625" width="8" x="45.9951" y="87.4297"/><line style="stroke:#181818;stroke-width:0.5;stroke-dasharray:5,5;" x1="49" x2="49" y1="87.4297" y2="632.4922"/></g></g><g class="participant-lifeline" data-entity-uid="part2" data-qualified-name="WA" id="part2-lifeline"><g><title>WebApp</title><rect fill="#000000" fill-opacity="0.00000" height="545.0625" width="8" x="311.7847" y="87.4297"/><line style="stroke:#181818;stroke-width:0.5;stroke-dasharray:5,5;" x1="315.438" x2="315.438" y1="87.4297" y2="632.4922"/></g></g><g class="participant-lifeline" data-entity-uid="part3" data-qualified-name="GW" id="part3-lifeline"><g><title>API Gateway</title><rect fill="#000000" fill-opacity="0.00000" height="545.0625" width="8" x="608.4409" y="87.4297"/><line style="stroke:#181818;stroke-width:0.5;stroke-dasharray:5,5;" x1="612.2192" x2="612.2192" y1="87.4297" y2="632.4922"/></g></g><g class="participant-lifeline" data-entity-uid="part4" data-qualified-name="BC" id="part4-lifeline"><g><title>BookmarkController</title><rect fill="#000000" fill-opacity="0.00000" height="545.0625" width="8" x="838.5845" y="87.4297"/><line style="stroke:#181818;stroke-width:0.5;stroke-dasharray:5,5;" x1="842.5366" x2="842.5366" y1="87.4297" y2="632.4922"/></g></g><g class="participant-lifeline" data-entity-uid="part5" data-qualified-name="CA" id="part5-lifeline"><g><title>CourseApp</title><rect fill="#000000" fill-opacity="0.00000" height="545.0625" width="8" x="1125.1099" y="87.4297"/><line style="stroke:#181818;stroke-width:0.5;stroke-dasharray:5,5;" x1="1128.9961" x2="1128.9961" y1="87.4297" y2="632.4922"/></g></g><g class="participant-lifeline" data-entity-uid="part6" data-qualified-name="CDB" id="part6-lifeline"><g><title>CourseDB</title><rect fill="#000000" fill-opacity="0.00000" height="545.0625" width="8" x="1337.7358" y="87.4297"/><line style="stroke:#181818;stroke-width:0.5;stroke-dasharray:5,5;" x1="1341.105" x2="1341.105" y1="87.4297" y2="632.4922"/></g></g><g class="participant participant-head" data-entity-uid="part1" data-qualified-name="L" id="part1-head"><text fill="#000000" font-family="sans-serif" font-size="14" lengthAdjust="spacing" textLength="53.9902" x="20" y="84.1279">Learner</text><ellipse cx="49.9951" cy="19.6328" fill="#E2E2F0" rx="8" ry="8" style="stroke:#181818;stroke-width:0.5;"/><path d="M49.9951,27.6328 L49.9951,54.6328 M36.9951,35.6328 L62.9951,35.6328 M49.9951,54.6328 L36.9951,69.6328 M49.9951,54.6328 L62.9951,69.6328" fill="none" style="stroke:#181818;stroke-width:0.5;"/></g><g class="participant participant-tail" data-entity-uid="part1" data-qualified-name="L" id="part1-tail"><text fill="#000000" font-family="sans-serif" font-size="14" lengthAdjust="spacing" textLength="53.9902" x="20" y="644.4873">Learner</text><ellipse cx="49.9951" cy="656.2891" fill="#E2E2F0" rx="8" ry="8" style="stroke:#181818;stroke-width:0.5;"/><path d="M49.9951,664.2891 L49.9951,691.2891 M36.9951,672.2891 L62.9951,672.2891 M49.9951,691.2891 L36.9951,706.2891 M49.9951,691.2891 L62.9951,706.2891" fill="none" style="stroke:#181818;stroke-width:0.5;"/></g><g class="participant participant-head" data-entity-uid="part2" data-qualified-name="WA" id="part2-head"><text fill="#000000" font-family="sans-serif" font-size="14" lengthAdjust="spacing" textLength="58.6934" x="283.438" y="84.1279">WebApp</text><path d="M295.2847,43.1328 L295.2847,67.1328 M295.2847,55.1328 L312.2847,55.1328" fill="none" style="stroke:#181818;stroke-width:0.5;"/><ellipse cx="324.2847" cy="55.1328" fill="#E2E2F0" rx="12" ry="12" style="stroke:#181818;stroke-width:0.5;"/></g><g class="participant participant-tail" data-entity-uid="part2" data-qualified-name="WA" id="part2-tail"><text fill="#000000" font-family="sans-serif" font-size="14" lengthAdjust="spacing" textLength="58.6934" x="283.438" y="644.4873">WebApp</text><path d="M295.2847,651.7891 L295.2847,675.7891 M295.2847,663.7891 L312.2847,663.7891" fill="none" style="stroke:#181818;stroke-width:0.5;"/><ellipse cx="324.2847" cy="663.7891" fill="#E2E2F0" rx="12" ry="12" style="stroke:#181818;stroke-width:0.5;"/></g><g class="participant participant-head" data-entity-uid="part3" data-qualified-name="GW" id="part3-head"><text fill="#000000" font-family="sans-serif" font-size="14" lengthAdjust="spacing" textLength="88.4434" x="565.2192" y="84.1279">API Gateway</text><ellipse cx="612.4409" cy="55.1328" fill="#E2E2F0" rx="12" ry="12" style="stroke:#181818;stroke-width:0.5;"/><polygon fill="#181818" points="608.4409,43.1328,614.4409,38.1328,612.4409,43.1328,614.4409,48.1328,608.4409,43.1328" style="stroke:#181818;stroke-width:1;"/></g><g class="participant participant-tail" data-entity-uid="part3" data-qualified-name="GW" id="part3-tail"><text fill="#000000" font-family="sans-serif" font-size="14" lengthAdjust="spacing" textLength="88.4434" x="565.2192" y="644.4873">API Gateway</text><ellipse cx="612.4409" cy="663.7891" fill="#E2E2F0" rx="12" ry="12" style="stroke:#181818;stroke-width:0.5;"/><polygon fill="#181818" points="608.4409,651.7891,614.4409,646.7891,612.4409,651.7891,614.4409,656.7891,608.4409,651.7891" style="stroke:#181818;stroke-width:1;"/></g><g class="participant participant-head" data-entity-uid="part4" data-qualified-name="BC" id="part4-head"><text fill="#000000" font-family="sans-serif" font-size="14" lengthAdjust="spacing" textLength="140.0957" x="769.5366" y="84.1279">BookmarkController</text><ellipse cx="842.5845" cy="55.1328" fill="#E2E2F0" rx="12" ry="12" style="stroke:#181818;stroke-width:0.5;"/><polygon fill="#181818" points="838.5845,43.1328,844.5845,38.1328,842.5845,43.1328,844.5845,48.1328,838.5845,43.1328" style="stroke:#181818;stroke-width:1;"/></g><g class="participant participant-tail" data-entity-uid="part4" data-qualified-name="BC" id="part4-tail"><text fill="#000000" font-family="sans-serif" font-size="14" lengthAdjust="spacing" textLength="140.0957" x="769.5366" y="644.4873">BookmarkController</text><ellipse cx="842.5845" cy="663.7891" fill="#E2E2F0" rx="12" ry="12" style="stroke:#181818;stroke-width:0.5;"/><polygon fill="#181818" points="838.5845,651.7891,844.5845,646.7891,842.5845,651.7891,844.5845,656.7891,838.5845,651.7891" style="stroke:#181818;stroke-width:1;"/></g><g class="participant participant-head" data-entity-uid="part5" data-qualified-name="CA" id="part5-head"><text fill="#000000" font-family="sans-serif" font-size="14" lengthAdjust="spacing" textLength="76.2275" x="1087.9961" y="84.1279">CourseApp</text><ellipse cx="1129.1099" cy="55.1328" fill="#E2E2F0" rx="12" ry="12" style="stroke:#181818;stroke-width:0.5;"/><polygon fill="#181818" points="1125.1099,43.1328,1131.1099,38.1328,1129.1099,43.1328,1131.1099,48.1328,1125.1099,43.1328" style="stroke:#181818;stroke-width:1;"/></g><g class="participant participant-tail" data-entity-uid="part5" data-qualified-name="CA" id="part5-tail"><text fill="#000000" font-family="sans-serif" font-size="14" lengthAdjust="spacing" textLength="76.2275" x="1087.9961" y="644.4873">CourseApp</text><ellipse cx="1129.1099" cy="663.7891" fill="#E2E2F0" rx="12" ry="12" style="stroke:#181818;stroke-width:0.5;"/><polygon fill="#181818" points="1125.1099,651.7891,1131.1099,646.7891,1129.1099,651.7891,1131.1099,656.7891,1125.1099,651.7891" style="stroke:#181818;stroke-width:1;"/></g><g class="participant participant-head" data-entity-uid="part6" data-qualified-name="CDB" id="part6-head"><text fill="#000000" font-family="sans-serif" font-size="14" lengthAdjust="spacing" textLength="69.2617" x="1304.105" y="84.1279">CourseDB</text><path d="M1323.7358,35.1328 C1323.7358,25.1328 1341.7358,25.1328 1341.7358,25.1328 C1341.7358,25.1328 1359.7358,25.1328 1359.7358,35.1328 L1359.7358,61.1328 C1359.7358,71.1328 1341.7358,71.1328 1341.7358,71.1328 C1341.7358,71.1328 1323.7358,71.1328 1323.7358,61.1328 L1323.7358,35.1328" fill="#E2E2F0" style="stroke:#181818;stroke-width:0.5;"/><path d="M1323.7358,35.1328 C1323.7358,45.1328 1341.7358,45.1328 1341.7358,45.1328 C1341.7358,45.1328 1359.7358,45.1328 1359.7358,35.1328" fill="none" style="stroke:#181818;stroke-width:0.5;"/></g><g class="participant participant-tail" data-entity-uid="part6" data-qualified-name="CDB" id="part6-tail"><text fill="#000000" font-family="sans-serif" font-size="14" lengthAdjust="spacing" textLength="69.2617" x="1304.105" y="644.4873">CourseDB</text><path d="M1323.7358,657.7891 C1323.7358,647.7891 1341.7358,647.7891 1341.7358,647.7891 C1341.7358,647.7891 1359.7358,647.7891 1359.7358,657.7891 L1359.7358,683.7891 C1359.7358,693.7891 1341.7358,693.7891 1341.7358,693.7891 C1341.7358,693.7891 1323.7358,693.7891 1323.7358,683.7891 L1323.7358,657.7891" fill="#E2E2F0" style="stroke:#181818;stroke-width:0.5;"/><path d="M1323.7358,657.7891 C1323.7358,667.7891 1341.7358,667.7891 1341.7358,667.7891 C1341.7358,667.7891 1359.7358,667.7891 1359.7358,657.7891" fill="none" style="stroke:#181818;stroke-width:0.5;"/></g><g><title>Learner</title><rect fill="#FFFFFF" height="328.4609" style="stroke:#181818;stroke-width:1;" width="10" x="44.9951" y="118.5625"/></g><g><title>WebApp</title><rect fill="#FFFFFF" height="328.4609" style="stroke:#181818;stroke-width:1;" width="10" x="310.7847" y="118.5625"/></g><g><title>API Gateway</title><rect fill="#FFFFFF" height="270.1953" style="stroke:#181818;stroke-width:1;" width="10" x="607.4409" y="147.6953"/></g><g><title>BookmarkController</title><rect fill="#FFFFFF" height="169.7969" style="stroke:#181818;stroke-width:1;" width="10" x="837.5845" y="218.9609"/></g><g><title>CourseApp</title><rect fill="#FFFFFF" height="272" style="stroke:#181818;stroke-width:1;" width="10" x="1124.1099" y="248.0938"/></g><g><title>CourseDB</title><rect fill="#FFFFFF" height="53.2656" style="stroke:#181818;stroke-width:1;" width="10" x="1336.7358" y="277.2266"/></g><g class="message" data-entity-1="part1" data-entity-2="part2" id="msg1"><polygon fill="#181818" points="298.7847,114.5625,308.7847,118.5625,298.7847,122.5625,302.7847,118.5625" style="stroke:#181818;stroke-width:1;"/><line style="stroke:#181818;stroke-width:1;" x1="54.9951" x2="304.7847" y1="118.5625" y2="118.5625"/><text fill="#000000" font-family="sans-serif" font-size="13" font-weight="bold" lengthAdjust="spacing" textLength="9.0454" x="61.9951" y="113.4966">1</text><text fill="#000000" font-family="sans-serif" font-size="13" lengthAdjust="spacing" textLength="228.7441" x="75.0405" y="113.4966">Click bookmarked icon (to remove)</text></g><g class="message" data-entity-1="part2" data-entity-2="part3" id="msg2"><polygon fill="#181818" points="595.4409,143.6953,605.4409,147.6953,595.4409,151.6953,599.4409,147.6953" style="stroke:#181818;stroke-width:1;"/><line style="stroke:#181818;stroke-width:1;" x1="320.7847" x2="601.4409" y1="147.6953" y2="147.6953"/><text fill="#000000" font-family="sans-serif" font-size="13" font-weight="bold" lengthAdjust="spacing" textLength="9.0454" x="327.7847" y="142.6294">2</text><text fill="#000000" font-family="sans-serif" font-size="13" lengthAdjust="spacing" textLength="254.6108" x="340.8301" y="142.6294">DELETE /courses/{courseId}/bookmark</text></g><g class="message" data-entity-1="part3" data-entity-2="part3" id="msg3"><line style="stroke:#181818;stroke-width:1;" x1="617.4409" x2="659.4409" y1="176.8281" y2="176.8281"/><line style="stroke:#181818;stroke-width:1;" x1="659.4409" x2="659.4409" y1="176.8281" y2="189.8281"/><line style="stroke:#181818;stroke-width:1;" x1="618.4409" x2="659.4409" y1="189.8281" y2="189.8281"/><polygon fill="#181818" points="628.4409,185.8281,618.4409,189.8281,628.4409,193.8281,624.4409,189.8281" style="stroke:#181818;stroke-width:1;"/><text fill="#000000" font-family="sans-serif" font-size="13" font-weight="bold" lengthAdjust="spacing" textLength="9.0454" x="624.4409" y="171.7622">3</text><text fill="#000000" font-family="sans-serif" font-size="13" lengthAdjust="spacing" textLength="183.0981" x="637.4863" y="171.7622">Validate JWT, extract userID</text></g><g class="message" data-entity-1="part3" data-entity-2="part4" id="msg4"><polygon fill="#181818" points="825.5845,214.9609,835.5845,218.9609,825.5845,222.9609,829.5845,218.9609" style="stroke:#181818;stroke-width:1;"/><line style="stroke:#181818;stroke-width:1;" x1="617.4409" x2="831.5845" y1="218.9609" y2="218.9609"/><text fill="#000000" font-family="sans-serif" font-size="13" font-weight="bold" lengthAdjust="spacing" textLength="9.0454" x="624.4409" y="213.895">4</text><text fill="#000000" font-family="sans-serif" font-size="13" lengthAdjust="spacing" textLength="106.8057" x="637.4863" y="213.895">Forward request</text></g><g class="message" data-entity-1="part4" data-entity-2="part5" id="msg5"><polygon fill="#181818" points="1112.1099,244.0938,1122.1099,248.0938,1112.1099,252.0938,1116.1099,248.0938" style="stroke:#181818;stroke-width:1;"/><line style="stroke:#181818;stroke-width:1;" x1="847.5845" x2="1118.1099" y1="248.0938" y2="248.0938"/><text fill="#000000" font-family="sans-serif" font-size="13" font-weight="bold" lengthAdjust="spacing" textLength="9.0454" x="854.5845" y="243.0278">5</text><text fill="#000000" font-family="sans-serif" font-size="13" lengthAdjust="spacing" textLength="244.48" x="867.6299" y="243.0278">UnbookmarkCourse(courseId, userID)</text></g><g class="message" data-entity-1="part5" data-entity-2="part6" id="msg6"><polygon fill="#181818" points="1324.7358,273.2266,1334.7358,277.2266,1324.7358,281.2266,1328.7358,277.2266" style="stroke:#181818;stroke-width:1;"/><line style="stroke:#181818;stroke-width:1;" x1="1134.1099" x2="1330.7358" y1="277.2266" y2="277.2266"/><text fill="#000000" font-family="sans-serif" font-size="13" font-weight="bold" lengthAdjust="spacing" textLength="9.0454" x="1141.1099" y="272.1606">6</text><text fill="#000000" font-family="sans-serif" font-size="13" lengthAdjust="spacing" textLength="170.5806" x="1154.1553" y="272.1606">Find and delete bookmark</text></g><path d="M10,292.2266 L74.4429,292.2266 L74.4429,299.3594 L64.4429,309.3594 L10,309.3594 L10,292.2266" fill="#EEEEEE" style="stroke:#000000;stroke-width:1.5;"/><rect fill="none" height="323.2656" style="stroke:#000000;stroke-width:1.5;" width="1379.3667" x="10" y="292.2266"/><text fill="#000000" font-family="sans-serif" font-size="13" font-weight="bold" lengthAdjust="spacing" textLength="19.4429" x="25" y="305.2935">alt</text><text fill="#000000" font-family="sans-serif" font-size="11" font-weight="bold" lengthAdjust="spacing" textLength="132.2847" x="89.4429" y="304.437">[No bookmark found]</text><g class="message" data-entity-1="part6" data-entity-2="part5" id="msg7"><polygon fill="#181818" points="1145.1099,326.4922,1135.1099,330.4922,1145.1099,334.4922,1141.1099,330.4922" style="stroke:#181818;stroke-width:1;"/><line style="stroke:#181818;stroke-width:1;stroke-dasharray:2,2;" x1="1139.1099" x2="1340.7358" y1="330.4922" y2="330.4922"/><text fill="#000000" font-family="sans-serif" font-size="13" font-weight="bold" lengthAdjust="spacing" textLength="9.0454" x="1151.1099" y="325.4263">7</text><text fill="#000000" font-family="sans-serif" font-size="13" lengthAdjust="spacing" textLength="100.8516" x="1164.1553" y="325.4263">0 rows affected</text></g><g class="message" data-entity-1="part5" data-entity-2="part4" id="msg8"><polygon fill="#181818" points="858.5845,355.625,848.5845,359.625,858.5845,363.625,854.5845,359.625" style="stroke:#181818;stroke-width:1;"/><line style="stroke:#181818;stroke-width:1;stroke-dasharray:2,2;" x1="852.5845" x2="1123.1099" y1="359.625" y2="359.625"/><text fill="#000000" font-family="sans-serif" font-size="13" font-weight="bold" lengthAdjust="spacing" textLength="9.0454" x="864.5845" y="354.5591">8</text><text fill="#000000" font-family="sans-serif" font-size="13" lengthAdjust="spacing" textLength="96.0146" x="877.6299" y="354.5591">404 Not Found</text></g><g class="message" data-entity-1="part4" data-entity-2="part3" id="msg9"><polygon fill="#181818" points="628.4409,384.7578,618.4409,388.7578,628.4409,392.7578,624.4409,388.7578" style="stroke:#181818;stroke-width:1;"/><line style="stroke:#181818;stroke-width:1;stroke-dasharray:2,2;" x1="622.4409" x2="841.5845" y1="388.7578" y2="388.7578"/><text fill="#000000" font-family="sans-serif" font-size="13" font-weight="bold" lengthAdjust="spacing" textLength="9.0454" x="634.4409" y="383.6919">9</text><text fill="#000000" font-family="sans-serif" font-size="13" lengthAdjust="spacing" textLength="32.2017" x="647.4863" y="383.6919">Error</text></g><g class="message" data-entity-1="part3" data-entity-2="part2" id="msg10"><polygon fill="#181818" points="331.7847,413.8906,321.7847,417.8906,331.7847,421.8906,327.7847,417.8906" style="stroke:#181818;stroke-width:1;"/><line style="stroke:#181818;stroke-width:1;stroke-dasharray:2,2;" x1="325.7847" x2="611.4409" y1="417.8906" y2="417.8906"/><text fill="#000000" font-family="sans-serif" font-size="13" font-weight="bold" lengthAdjust="spacing" textLength="18.0908" x="337.7847" y="412.8247">10</text><text fill="#000000" font-family="sans-serif" font-size="13" lengthAdjust="spacing" textLength="108.3481" x="359.8755" y="412.8247">Not bookmarked</text></g><g class="message" data-entity-1="part2" data-entity-2="part1" id="msg11"><polygon fill="#181818" points="60.9951,443.0234,50.9951,447.0234,60.9951,451.0234,56.9951,447.0234" style="stroke:#181818;stroke-width:1;"/><line style="stroke:#181818;stroke-width:1;" x1="54.9951" x2="314.7847" y1="447.0234" y2="447.0234"/><text fill="#000000" font-family="sans-serif" font-size="13" font-weight="bold" lengthAdjust="spacing" textLength="18.0908" x="66.9951" y="441.9575">11</text><text fill="#000000" font-family="sans-serif" font-size="13" lengthAdjust="spacing" textLength="142.9429" x="89.0859" y="441.9575">Update UI (not saved)</text></g><line style="stroke:#000000;stroke-width:1;stroke-dasharray:2,2;" x1="10" x2="1389.3667" y1="456.0234" y2="456.0234"/><text fill="#000000" font-family="sans-serif" font-size="11" font-weight="bold" lengthAdjust="spacing" textLength="112.2021" x="15" y="466.2339">[Bookmark found]</text><g class="message" data-entity-1="part6" data-entity-2="part5" id="msg12"><polygon fill="#181818" points="1145.1099,486.9609,1135.1099,490.9609,1145.1099,494.9609,1141.1099,490.9609" style="stroke:#181818;stroke-width:1;"/><line style="stroke:#181818;stroke-width:1;stroke-dasharray:2,2;" x1="1139.1099" x2="1340.7358" y1="490.9609" y2="490.9609"/><text fill="#000000" font-family="sans-serif" font-size="13" font-weight="bold" lengthAdjust="spacing" textLength="18.0908" x="1151.1099" y="485.895">12</text><text fill="#000000" font-family="sans-serif" font-size="13" lengthAdjust="spacing" textLength="50.9653" x="1173.2007" y="485.895">Deleted</text></g><g class="message" data-entity-1="part5" data-entity-2="part4" id="msg13"><polygon fill="#181818" points="853.5845,516.0938,843.5845,520.0938,853.5845,524.0938,849.5845,520.0938" style="stroke:#181818;stroke-width:1;"/><line style="stroke:#181818;stroke-width:1;stroke-dasharray:2,2;" x1="847.5845" x2="1128.1099" y1="520.0938" y2="520.0938"/><text fill="#000000" font-family="sans-serif" font-size="13" font-weight="bold" lengthAdjust="spacing" textLength="18.0908" x="859.5845" y="515.0278">13</text><text fill="#000000" font-family="sans-serif" font-size="13" lengthAdjust="spacing" textLength="52.3301" x="881.6753" y="515.0278">Success</text></g><g class="message" data-entity-1="part4" data-entity-2="part3" id="msg14"><polygon fill="#181818" points="623.4409,545.2266,613.4409,549.2266,623.4409,553.2266,619.4409,549.2266" style="stroke:#181818;stroke-width:1;"/><line style="stroke:#181818;stroke-width:1;stroke-dasharray:2,2;" x1="617.4409" x2="841.5845" y1="549.2266" y2="549.2266"/><text fill="#000000" font-family="sans-serif" font-size="13" font-weight="bold" lengthAdjust="spacing" textLength="18.0908" x="629.4409" y="544.1606">14</text><text fill="#000000" font-family="sans-serif" font-size="13" lengthAdjust="spacing" textLength="102.4575" x="651.5317" y="544.1606">204 No Content</text></g><g class="message" data-entity-1="part3" data-entity-2="part2" id="msg15"><polygon fill="#181818" points="326.7847,574.3594,316.7847,578.3594,326.7847,582.3594,322.7847,578.3594" style="stroke:#181818;stroke-width:1;"/><line style="stroke:#181818;stroke-width:1;stroke-dasharray:2,2;" x1="320.7847" x2="611.4409" y1="578.3594" y2="578.3594"/><text fill="#000000" font-family="sans-serif" font-size="13" font-weight="bold" lengthAdjust="spacing" textLength="18.0908" x="332.7847" y="573.2935">15</text><text fill="#000000" font-family="sans-serif" font-size="13" lengthAdjust="spacing" textLength="52.3301" x="354.8755" y="573.2935">Success</text></g><g class="message" data-entity-1="part2" data-entity-2="part1" id="msg16"><polygon fill="#181818" points="60.9951,603.4922,50.9951,607.4922,60.9951,611.4922,56.9951,607.4922" style="stroke:#181818;stroke-width:1;"/><line style="stroke:#181818;stroke-width:1;" x1="54.9951" x2="314.7847" y1="607.4922" y2="607.4922"/><text fill="#000000" font-family="sans-serif" font-size="13" font-weight="bold" lengthAdjust="spacing" textLength="18.0908" x="66.9951" y="602.4263">16</text><text fill="#000000" font-family="sans-serif" font-size="13" lengthAdjust="spacing" textLength="203.4678" x="89.0859" y="602.4263">Update bookmark icon (empty)</text></g><?plantuml-src XLBRYjim47tNLmpRboniI5hsAPI2Bsb8CMLXBwQFOskoDP4bLvPpeVJVEx9oypPi7mpop9apvnm9EsTqLnTaXMZNbMxGOWsnsJsWb9L-XOzJ8R1qna96Q3LPm1OoKPXEIxHxoAc8ciONyqXmUGStqSCI5kXeY_iR-91LhpzTh3eI0ANHpXhr1iApYroGbi3Z1ux4TBObU2IxgKewqlmWfSpsWYWsPbsZNIVXNmLvSN812Km7ZKd47OaE2sJsq4hZlfF6PmaPZB-mdnaagYhNN0jRI4B5j31o1YpLPaEtFfjgmquuazFH9v57dcEHpo2TP_EdEKpAVbix-HqEI_bdSYG-Zt8GY_mu-OAgahxwBN-w0zevopZeMhBBz02BanbyDNQBLhAaNnsrxap6EOWuyR24lJphufIM5p0wwhWxK5wOuPn4qZlWN7X3nSaWVv8KSVjVtJu-WSh1TtFgmie_4WwScJwFnu5g2jPiMy3LYaf7lYjfm08iEy1Py_tqdXaTMmnCRDgtlEkvjSOEn_jxpyCodv-VFD_T4Cj1zrYsc74sJP_pyn96ceTQt92y7GxaqV0_4wJu3SNlcKtxkAwO7BfyxCgIslODB1hw_TH70VwbatRl6xzAUDNnwQx2mwQwSVl_6sUZVm40?></g></svg>