<?plantuml 1.2026.1?><svg xmlns="http://www.w3.org/2000/svg" xmlns:xlink="http://www.w3.org/1999/xlink" contentStyleType="text/css" data-diagram-type="SEQUENCE" height="1021px" preserveAspectRatio="none" style="width:1861px;height:1021px;background:#FFFFFF;" version="1.1" viewBox="0 0 1861 1021" width="1861px" zoomAndPan="magnify"><defs/><g><rect fill="#ADD8E6" height="1009.7109" style="stroke:#181818;stroke-width:0.5;" width="102.4434" x="521.4604" y="6"/><text fill="#000000" font-family="sans-serif" font-size="13" font-weight="bold" lengthAdjust="spacing" textLength="92.6821" x="526.3411" y="18.0669">API Gateway</text><rect fill="#FFB6C1" height="1009.7109" style="stroke:#181818;stroke-width:0.5;" width="599.3037" x="736.6362" y="6"/><text fill="#000000" font-family="sans-serif" font-size="13" font-weight="bold" lengthAdjust="spacing" textLength="104.8633" x="983.8564" y="18.0669">Billing Service</text><rect fill="#FFFFE0" height="1009.7109" style="stroke:#181818;stroke-width:0.5;" width="132.0498" x="1504.4102" y="6"/><text fill="#000000" font-family="sans-serif" font-size="13" font-weight="bold" lengthAdjust="spacing" textLength="109.2622" x="1515.804" y="18.0669">Course Service</text><rect fill="#90EE90" height="1009.7109" style="stroke:#181818;stroke-width:0.5;" width="115.083" x="1662.8535" y="6"/><text fill="#000000" font-family="sans-serif" font-size="13" font-weight="bold" lengthAdjust="spacing" textLength="92.0918" x="1674.3491" y="18.0669">User Service</text><g><title>Admin</title><rect fill="#FFFFFF" height="799.8516" style="stroke:#181818;stroke-width:1;" width="10" x="25.4321" y="118.5625"/></g><g><title>WebApp</title><rect fill="#FFFFFF" height="799.8516" style="stroke:#181818;stroke-width:1;" width="10" x="322.0039" y="118.5625"/></g><g><title>API Gateway</title><rect fill="#FFFFFF" height="681.0547" style="stroke:#181818;stroke-width:1;" width="10" x="567.6821" y="162.8281"/></g><g><title>AdminBillingController</title><rect fill="#FFFFFF" height="306.5938" style="stroke:#181818;stroke-width:1;" width="10" x="817.1162" y="234.0938"/></g><g><title>BillingApp</title><rect fill="#FFFFFF" height="248.3281" style="stroke:#181818;stroke-width:1;" width="10" x="1107.0693" y="263.2266"/></g><g><title>BillingDB</title><rect fill="#FFFFFF" height="131.7969" style="stroke:#181818;stroke-width:1;" width="10" x="1292.2861" y="292.3594"/></g><g><title>BillingDB</title><rect fill="#FFFFFF" height="29.1328" style="stroke:#181818;stroke-width:1;" width="10" x="1292.2861" y="453.2891"/></g><g><title>CourseController</title><rect fill="#FFFFFF" height="71.2656" style="stroke:#181818;stroke-width:1;" width="10" x="1565.4351" y="694.3516"/></g><g><title>UserController</title><rect fill="#FFFFFF" height="71.2656" style="stroke:#181818;stroke-width:1;" width="10" x="1715.395" y="593.9531"/></g><rect fill="none" height="217.9297" style="stroke:#000000;stroke-width:1.5;" width="1339.7935" x="515.4604" y="555.6875"/><g class="participant-lifeline" data-entity-uid="part1" data-qualified-name="A" id="part1-lifeline"><g><title>Admin</title><rect fill="#000000" fill-opacity="0.00000" height="848.9844" width="8" x="26.4321" y="87.4297"/><line style="stroke:#181818;stroke-width:0.5;stroke-dasharray:5,5;" x1="30" x2="30" y1="87.4297" y2="936.4141"/></g></g><g class="participant-lifeline" data-entity-uid="part2" data-qualified-name="WA" id="part2-lifeline"><g><title>WebApp</title><rect fill="#000000" fill-opacity="0.00000" height="848.9844" width="8" x="323.0039" y="87.4297"/><line style="stroke:#181818;stroke-width:0.5;stroke-dasharray:5,5;" x1="326.6572" x2="326.6572" y1="87.4297" y2="936.4141"/></g></g><g class="participant-lifeline" data-entity-uid="part3" data-qualified-name="GW" id="part3-lifeline"><g><title>API Gateway</title><rect fill="#000000" fill-opacity="0.00000" height="848.9844" width="8" x="568.6821" y="87.4297"/><line style="stroke:#181818;stroke-width:0.5;stroke-dasharray:5,5;" x1="572.4604" x2="572.4604" y1="87.4297" y2="936.4141"/></g></g><g class="participant-lifeline" data-entity-uid="part4" data-qualified-name="ABC" id="part4-lifeline"><g><title>AdminBillingController</title><rect fill="#000000" fill-opacity="0.00000" height="848.9844" width="8" x="818.1162" y="87.4297"/><line style="stroke:#181818;stroke-width:0.5;stroke-dasharray:5,5;" x1="821.6362" x2="821.6362" y1="87.4297" y2="936.4141"/></g></g><g class="participant-lifeline" data-entity-uid="part5" data-qualified-name="BA" id="part5-lifeline"><g><title>BillingApp</title><rect fill="#000000" fill-opacity="0.00000" height="848.9844" width="8" x="1108.0693" y="87.4297"/><line style="stroke:#181818;stroke-width:0.5;stroke-dasharray:5,5;" x1="1111.9326" x2="1111.9326" y1="87.4297" y2="936.4141"/></g></g><g class="participant-lifeline" data-entity-uid="part6" data-qualified-name="BDB" id="part6-lifeline"><g><title>BillingDB</title><rect fill="#000000" fill-opacity="0.00000" height="848.9844" width="8" x="1293.2861" y="87.4297"/><line style="stroke:#181818;stroke-width:0.5;stroke-dasharray:5,5;" x1="1296.6323" x2="1296.6323" y1="87.4297" y2="936.4141"/></g></g><g class="participant-lifeline" data-entity-uid="part7" data-qualified-name="CC" id="part7-lifeline"><g><title>CourseController</title><rect fill="#000000" fill-opacity="0.00000" height="848.9844" width="8" x="1566.4351" y="87.4297"/><line style="stroke:#181818;stroke-width:0.5;stroke-dasharray:5,5;" x1="1570.4102" x2="1570.4102" y1="87.4297" y2="936.4141"/></g></g><g class="participant-lifeline" data-entity-uid="part8" data-qualified-name="UC" id="part8-lifeline"><g><title>UserController</title><rect fill="#000000" fill-opacity="0.00000" height="848.9844" width="8" x="1716.395" y="87.4297"/><line style="stroke:#181818;stroke-width:0.5;stroke-dasharray:5,5;" x1="1719.8535" x2="1719.8535" y1="87.4297" y2="936.4141"/></g></g><g class="participant participant-head" data-entity-uid="part1" data-qualified-name="A" id="part1-head"><text fill="#000000" font-family="sans-serif" font-size="14" lengthAdjust="spacing" textLength="44.8643" x="5" y="84.1279">Admin</text><ellipse cx="30.4321" cy="19.6328" fill="#E2E2F0" rx="8" ry="8" style="stroke:#181818;stroke-width:0.5;"/><path d="M30.4321,27.6328 L30.4321,54.6328 M17.4321,35.6328 L43.4321,35.6328 M30.4321,54.6328 L17.4321,69.6328 M30.4321,54.6328 L43.4321,69.6328" fill="none" style="stroke:#181818;stroke-width:0.5;"/></g><g class="participant participant-tail" data-entity-uid="part1" data-qualified-name="A" id="part1-tail"><text fill="#000000" font-family="sans-serif" font-size="14" lengthAdjust="spacing" textLength="44.8643" x="5" y="948.4092">Admin</text><ellipse cx="30.4321" cy="960.2109" fill="#E2E2F0" rx="8" ry="8" style="stroke:#181818;stroke-width:0.5;"/><path d="M30.4321,968.2109 L30.4321,995.2109 M17.4321,976.2109 L43.4321,976.2109 M30.4321,995.2109 L17.4321,1010.2109 M30.4321,995.2109 L43.4321,1010.2109" fill="none" style="stroke:#181818;stroke-width:0.5;"/></g><g class="participant participant-head" data-entity-uid="part2" data-qualified-name="WA" id="part2-head"><text fill="#000000" font-family="sans-serif" font-size="14" lengthAdjust="spacing" textLength="58.6934" x="294.6572" y="84.1279">WebApp</text><path d="M306.5039,43.1328 L306.5039,67.1328 M306.5039,55.1328 L323.5039,55.1328" fill="none" style="stroke:#181818;stroke-width:0.5;"/><ellipse cx="335.5039" cy="55.1328" fill="#E2E2F0" rx="12" ry="12" style="stroke:#181818;stroke-width:0.5;"/></g><g class="participant participant-tail" data-entity-uid="part2" data-qualified-name="WA" id="part2-tail"><text fill="#000000" font-family="sans-serif" font-size="14" lengthAdjust="spacing" textLength="58.6934" x="294.6572" y="948.4092">WebApp</text><path d="M306.5039,955.7109 L306.5039,979.7109 M306.5039,967.7109 L323.5039,967.7109" fill="none" style="stroke:#181818;stroke-width:0.5;"/><ellipse cx="335.5039" cy="967.7109" fill="#E2E2F0" rx="12" ry="12" style="stroke:#181818;stroke-width:0.5;"/></g><g class="participant participant-head" data-entity-uid="part3" data-qualified-name="GW" id="part3-head"><text fill="#000000" font-family="sans-serif" font-size="14" lengthAdjust="spacing" textLength="88.4434" x="525.4604" y="84.1279">API Gateway</text><ellipse cx="572.6821" cy="55.1328" fill="#E2E2F0" rx="12" ry="12" style="stroke:#181818;stroke-width:0.5;"/><polygon fill="#181818" points="568.6821,43.1328,574.6821,38.1328,572.6821,43.1328,574.6821,48.1328,568.6821,43.1328" style="stroke:#181818;stroke-width:1;"/></g><g class="participant participant-tail" data-entity-uid="part3" data-qualified-name="GW" id="part3-tail"><text fill="#000000" font-family="sans-serif" font-size="14" lengthAdjust="spacing" textLength="88.4434" x="525.4604" y="948.4092">API Gateway</text><ellipse cx="572.6821" cy="967.7109" fill="#E2E2F0" rx="12" ry="12" style="stroke:#181818;stroke-width:0.5;"/><polygon fill="#181818" points="568.6821,955.7109,574.6821,950.7109,572.6821,955.7109,574.6821,960.7109,568.6821,955.7109" style="stroke:#181818;stroke-width:1;"/></g><g class="participant participant-head" data-entity-uid="part4" data-qualified-name="ABC" id="part4-head"><text fill="#000000" font-family="sans-serif" font-size="14" lengthAdjust="spacing" textLength="156.96" x="740.6362" y="84.1279">AdminBillingController</text><ellipse cx="822.1162" cy="55.1328" fill="#E2E2F0" rx="12" ry="12" style="stroke:#181818;stroke-width:0.5;"/><polygon fill="#181818" points="818.1162,43.1328,824.1162,38.1328,822.1162,43.1328,824.1162,48.1328,818.1162,43.1328" style="stroke:#181818;stroke-width:1;"/></g><g class="participant participant-tail" data-entity-uid="part4" data-qualified-name="ABC" id="part4-tail"><text fill="#000000" font-family="sans-serif" font-size="14" lengthAdjust="spacing" textLength="156.96" x="740.6362" y="948.4092">AdminBillingController</text><ellipse cx="822.1162" cy="967.7109" fill="#E2E2F0" rx="12" ry="12" style="stroke:#181818;stroke-width:0.5;"/><polygon fill="#181818" points="818.1162,955.7109,824.1162,950.7109,822.1162,955.7109,824.1162,960.7109,818.1162,955.7109" style="stroke:#181818;stroke-width:1;"/></g><g class="participant participant-head" data-entity-uid="part5" data-qualified-name="BA" id="part5-head"><text fill="#000000" font-family="sans-serif" font-size="14" lengthAdjust="spacing" textLength="70.2734" x="1073.9326" y="84.1279">BillingApp</text><ellipse cx="1112.0693" cy="55.1328" fill="#E2E2F0" rx="12" ry="12" style="stroke:#181818;stroke-width:0.5;"/><polygon fill="#181818" points="1108.0693,43.1328,1114.0693,38.1328,1112.0693,43.1328,1114.0693,48.1328,1108.0693,43.1328" style="stroke:#181818;stroke-width:1;"/></g><g class="participant participant-tail" data-entity-uid="part5" data-qualified-name="BA" id="part5-tail"><text fill="#000000" font-family="sans-serif" font-size="14" lengthAdjust="spacing" textLength="70.2734" x="1073.9326" y="948.4092">BillingApp</text><ellipse cx="1112.0693" cy="967.7109" fill="#E2E2F0" rx="12" ry="12" style="stroke:#181818;stroke-width:0.5;"/><polygon fill="#181818" points="1108.0693,955.7109,1114.0693,950.7109,1112.0693,955.7109,1114.0693,960.7109,1108.0693,955.7109" style="stroke:#181818;stroke-width:1;"/></g><g class="participant participant-head" data-entity-uid="part6" data-qualified-name="BDB" id="part6-head"><text fill="#000000" font-family="sans-serif" font-size="14" lengthAdjust="spacing" textLength="63.3076" x="1262.6323" y="84.1279">BillingDB</text><path d="M1279.2861,35.1328 C1279.2861,25.1328 1297.2861,25.1328 1297.2861,25.1328 C1297.2861,25.1328 1315.2861,25.1328 1315.2861,35.1328 L1315.2861,61.1328 C1315.2861,71.1328 1297.2861,71.1328 1297.2861,71.1328 C1297.2861,71.1328 1279.2861,71.1328 1279.2861,61.1328 L1279.2861,35.1328" fill="#E2E2F0" style="stroke:#181818;stroke-width:0.5;"/><path d="M1279.2861,35.1328 C1279.2861,45.1328 1297.2861,45.1328 1297.2861,45.1328 C1297.2861,45.1328 1315.2861,45.1328 1315.2861,35.1328" fill="none" style="stroke:#181818;stroke-width:0.5;"/></g><g class="participant participant-tail" data-entity-uid="part6" data-qualified-name="BDB" id="part6-tail"><text fill="#000000" font-family="sans-serif" font-size="14" lengthAdjust="spacing" textLength="63.3076" x="1262.6323" y="948.4092">BillingDB</text><path d="M1279.2861,961.7109 C1279.2861,951.7109 1297.2861,951.7109 1297.2861,951.7109 C1297.2861,951.7109 1315.2861,951.7109 1315.2861,961.7109 L1315.2861,987.7109 C1315.2861,997.7109 1297.2861,997.7109 1297.2861,997.7109 C1297.2861,997.7109 1279.2861,997.7109 1279.2861,987.7109 L1279.2861,961.7109" fill="#E2E2F0" style="stroke:#181818;stroke-width:0.5;"/><path d="M1279.2861,961.7109 C1279.2861,971.7109 1297.2861,971.7109 1297.2861,971.7109 C1297.2861,971.7109 1315.2861,971.7109 1315.2861,961.7109" fill="none" style="stroke:#181818;stroke-width:0.5;"/></g><g class="participant participant-head" data-entity-uid="part7" data-qualified-name="CC" id="part7-head"><text fill="#000000" font-family="sans-serif" font-size="14" lengthAdjust="spacing" textLength="118.0498" x="1508.4102" y="84.1279">CourseController</text><ellipse cx="1570.4351" cy="55.1328" fill="#E2E2F0" rx="12" ry="12" style="stroke:#181818;stroke-width:0.5;"/><polygon fill="#181818" points="1566.4351,43.1328,1572.4351,38.1328,1570.4351,43.1328,1572.4351,48.1328,1566.4351,43.1328" style="stroke:#181818;stroke-width:1;"/></g><g class="participant participant-tail" data-entity-uid="part7" data-qualified-name="CC" id="part7-tail"><text fill="#000000" font-family="sans-serif" font-size="14" lengthAdjust="spacing" textLength="118.0498" x="1508.4102" y="948.4092">CourseController</text><ellipse cx="1570.4351" cy="967.7109" fill="#E2E2F0" rx="12" ry="12" style="stroke:#181818;stroke-width:0.5;"/><polygon fill="#181818" points="1566.4351,955.7109,1572.4351,950.7109,1570.4351,955.7109,1572.4351,960.7109,1566.4351,955.7109" style="stroke:#181818;stroke-width:1;"/></g><g class="participant participant-head" data-entity-uid="part8" data-qualified-name="UC" id="part8-head"><text fill="#000000" font-family="sans-serif" font-size="14" lengthAdjust="spacing" textLength="101.083" x="1666.8535" y="84.1279">UserController</text><ellipse cx="1720.395" cy="55.1328" fill="#E2E2F0" rx="12" ry="12" style="stroke:#181818;stroke-width:0.5;"/><polygon fill="#181818" points="1716.395,43.1328,1722.395,38.1328,1720.395,43.1328,1722.395,48.1328,1716.395,43.1328" style="stroke:#181818;stroke-width:1;"/></g><g class="participant participant-tail" data-entity-uid="part8" data-qualified-name="UC" id="part8-tail"><text fill="#000000" font-family="sans-serif" font-size="14" lengthAdjust="spacing" textLength="101.083" x="1666.8535" y="948.4092">UserController</text><ellipse cx="1720.395" cy="967.7109" fill="#E2E2F0" rx="12" ry="12" style="stroke:#181818;stroke-width:0.5;"/><polygon fill="#181818" points="1716.395,955.7109,1722.395,950.7109,1720.395,955.7109,1722.395,960.7109,1716.395,955.7109" style="stroke:#181818;stroke-width:1;"/></g><g><title>Admin</title><rect fill="#FFFFFF" height="799.8516" style="stroke:#181818;stroke-width:1;" width="10" x="25.4321" y="118.5625"/></g><g><title>WebApp</title><rect fill="#FFFFFF" height="799.8516" style="stroke:#181818;stroke-width:1;" width="10" x="322.0039" y="118.5625"/></g><g><title>API Gateway</title><rect fill="#FFFFFF" height="681.0547" style="stroke:#181818;stroke-width:1;" width="10" x="567.6821" y="162.8281"/></g><g><title>AdminBillingController</title><rect fill="#FFFFFF" height="306.5938" style="stroke:#181818;stroke-width:1;" width="10" x="817.1162" y="234.0938"/></g><g><title>BillingApp</title><rect fill="#FFFFFF" height="248.3281" style="stroke:#181818;stroke-width:1;" width="10" x="1107.0693" y="263.2266"/></g><g><title>BillingDB</title><rect fill="#FFFFFF" height="131.7969" style="stroke:#181818;stroke-width:1;" width="10" x="1292.2861" y="292.3594"/></g><g><title>BillingDB</title><rect fill="#FFFFFF" height="29.1328" style="stroke:#181818;stroke-width:1;" width="10" x="1292.2861" y="453.2891"/></g><g><title>CourseController</title><rect fill="#FFFFFF" height="71.2656" style="stroke:#181818;stroke-width:1;" width="10" x="1565.4351" y="694.3516"/></g><g><title>UserController</title><rect fill="#FFFFFF" height="71.2656" style="stroke:#181818;stroke-width:1;" width="10" x="1715.395" y="593.9531"/></g><g class="message" data-entity-1="part1" data-entity-2="part2" id="msg1"><polygon fill="#181818" points="310.0039,114.5625,320.0039,118.5625,310.0039,122.5625,314.0039,118.5625" style="stroke:#181818;stroke-width:1;"/><line style="stroke:#181818;stroke-width:1;" x1="35.4321" x2="316.0039" y1="118.5625" y2="118.5625"/><text fill="#000000" font-family="sans-serif" font-size="13" font-weight="bold" lengthAdjust="spacing" textLength="9.0454" x="42.4321" y="113.4966">1</text><text fill="#000000" font-family="sans-serif" font-size="13" lengthAdjust="spacing" textLength="206.2861" x="55.4775" y="113.4966">Navigate to Transaction History</text></g><g class="message" data-entity-1="part2" data-entity-2="part3" id="msg2"><polygon fill="#181818" points="555.6821,158.8281,565.6821,162.8281,555.6821,166.8281,559.6821,162.8281" style="stroke:#181818;stroke-width:1;"/><line style="stroke:#181818;stroke-width:1;" x1="332.0039" x2="561.6821" y1="162.8281" y2="162.8281"/><text fill="#000000" font-family="sans-serif" font-size="13" font-weight="bold" lengthAdjust="spacing" textLength="9.0454" x="339.0039" y="150.1958">2</text><text fill="#000000" font-family="sans-serif" font-size="13" lengthAdjust="spacing" textLength="203.6328" x="352.0493" y="142.6294">GET /admin/billing/transactions</text><text fill="#000000" font-family="sans-serif" font-size="13" lengthAdjust="spacing" textLength="200.8652" x="352.0493" y="157.7622">?page=1&amp;limit=20&amp;status=all</text></g><g class="message" data-entity-1="part3" data-entity-2="part3" id="msg3"><line style="stroke:#181818;stroke-width:1;" x1="577.6821" x2="619.6821" y1="191.9609" y2="191.9609"/><line style="stroke:#181818;stroke-width:1;" x1="619.6821" x2="619.6821" y1="191.9609" y2="204.9609"/><line style="stroke:#181818;stroke-width:1;" x1="578.6821" x2="619.6821" y1="204.9609" y2="204.9609"/><polygon fill="#181818" points="588.6821,200.9609,578.6821,204.9609,588.6821,208.9609,584.6821,204.9609" style="stroke:#181818;stroke-width:1;"/><text fill="#000000" font-family="sans-serif" font-size="13" font-weight="bold" lengthAdjust="spacing" textLength="9.0454" x="584.6821" y="186.895">3</text><text fill="#000000" font-family="sans-serif" font-size="13" lengthAdjust="spacing" textLength="202.3887" x="597.7275" y="186.895">Validate JWT, check admin role</text></g><g class="message" data-entity-1="part3" data-entity-2="part4" id="msg4"><polygon fill="#181818" points="805.1162,230.0938,815.1162,234.0938,805.1162,238.0938,809.1162,234.0938" style="stroke:#181818;stroke-width:1;"/><line style="stroke:#181818;stroke-width:1;" x1="577.6821" x2="811.1162" y1="234.0938" y2="234.0938"/><text fill="#000000" font-family="sans-serif" font-size="13" font-weight="bold" lengthAdjust="spacing" textLength="9.0454" x="584.6821" y="229.0278">4</text><text fill="#000000" font-family="sans-serif" font-size="13" lengthAdjust="spacing" textLength="106.8057" x="597.7275" y="229.0278">Forward request</text></g><g class="message" data-entity-1="part4" data-entity-2="part5" id="msg5"><polygon fill="#181818" points="1095.0693,259.2266,1105.0693,263.2266,1095.0693,267.2266,1099.0693,263.2266" style="stroke:#181818;stroke-width:1;"/><line style="stroke:#181818;stroke-width:1;" x1="827.1162" x2="1101.0693" y1="263.2266" y2="263.2266"/><text fill="#000000" font-family="sans-serif" font-size="13" font-weight="bold" lengthAdjust="spacing" textLength="9.0454" x="834.1162" y="258.1606">5</text><text fill="#000000" font-family="sans-serif" font-size="13" lengthAdjust="spacing" textLength="247.9077" x="847.1616" y="258.1606">GetPlatformTransactionHistory(filters)</text></g><g class="message" data-entity-1="part5" data-entity-2="part6" id="msg6"><polygon fill="#181818" points="1280.2861,288.3594,1290.2861,292.3594,1280.2861,296.3594,1284.2861,292.3594" style="stroke:#181818;stroke-width:1;"/><line style="stroke:#181818;stroke-width:1;" x1="1117.0693" x2="1286.2861" y1="292.3594" y2="292.3594"/><text fill="#000000" font-family="sans-serif" font-size="13" font-weight="bold" lengthAdjust="spacing" textLength="9.0454" x="1124.0693" y="287.2935">6</text><text fill="#000000" font-family="sans-serif" font-size="13" lengthAdjust="spacing" textLength="143.1714" x="1137.1147" y="287.2935">Query all transactions</text></g><g class="message" data-entity-1="part6" data-entity-2="part6" id="msg7"><line style="stroke:#181818;stroke-width:1;" x1="1302.2861" x2="1344.2861" y1="382.0234" y2="382.0234"/><line style="stroke:#181818;stroke-width:1;" x1="1344.2861" x2="1344.2861" y1="382.0234" y2="395.0234"/><line style="stroke:#181818;stroke-width:1;" x1="1303.2861" x2="1344.2861" y1="395.0234" y2="395.0234"/><polygon fill="#181818" points="1313.2861,391.0234,1303.2861,395.0234,1313.2861,399.0234,1309.2861,395.0234" style="stroke:#181818;stroke-width:1;"/><text fill="#000000" font-family="sans-serif" font-size="13" font-weight="bold" lengthAdjust="spacing" textLength="9.0454" x="1309.2861" y="346.6919">7</text><text fill="#000000" font-family="sans-serif" font-size="13" lengthAdjust="spacing" textLength="68.8022" x="1322.3315" y="316.4263">SELECT t.*</text><text fill="#000000" font-family="sans-serif" font-size="13" lengthAdjust="spacing" textLength="131.5298" x="1322.3315" y="331.5591">FROM transactions t</text><text fill="#000000" font-family="sans-serif" font-size="13" lengthAdjust="spacing" textLength="226.1035" x="1322.3315" y="346.6919">WHERE (? IS NULL OR t.status = ?)</text><text fill="#000000" font-family="sans-serif" font-size="13" lengthAdjust="spacing" textLength="189.9282" x="1322.3315" y="361.8247">ORDER BY t.created_at DESC</text><text fill="#000000" font-family="sans-serif" font-size="13" lengthAdjust="spacing" textLength="109.8589" x="1322.3315" y="376.9575">LIMIT ? OFFSET ?</text></g><g class="message" data-entity-1="part6" data-entity-2="part5" id="msg8"><polygon fill="#181818" points="1128.0693,420.1563,1118.0693,424.1563,1128.0693,428.1563,1124.0693,424.1563" style="stroke:#181818;stroke-width:1;"/><line style="stroke:#181818;stroke-width:1;stroke-dasharray:2,2;" x1="1122.0693" x2="1296.2861" y1="424.1563" y2="424.1563"/><text fill="#000000" font-family="sans-serif" font-size="13" font-weight="bold" lengthAdjust="spacing" textLength="9.0454" x="1134.0693" y="419.0903">8</text><text fill="#000000" font-family="sans-serif" font-size="13" lengthAdjust="spacing" textLength="83.0527" x="1147.1147" y="419.0903">Transactions</text></g><g class="message" data-entity-1="part5" data-entity-2="part6" id="msg9"><polygon fill="#181818" points="1280.2861,449.2891,1290.2861,453.2891,1280.2861,457.2891,1284.2861,453.2891" style="stroke:#181818;stroke-width:1;"/><line style="stroke:#181818;stroke-width:1;" x1="1117.0693" x2="1286.2861" y1="453.2891" y2="453.2891"/><text fill="#000000" font-family="sans-serif" font-size="13" font-weight="bold" lengthAdjust="spacing" textLength="9.0454" x="1124.0693" y="448.2231">9</text><text fill="#000000" font-family="sans-serif" font-size="13" lengthAdjust="spacing" textLength="97.8364" x="1137.1147" y="448.2231">Get total count</text></g><g class="message" data-entity-1="part6" data-entity-2="part5" id="msg10"><polygon fill="#181818" points="1128.0693,478.4219,1118.0693,482.4219,1128.0693,486.4219,1124.0693,482.4219" style="stroke:#181818;stroke-width:1;"/><line style="stroke:#181818;stroke-width:1;stroke-dasharray:2,2;" x1="1122.0693" x2="1296.2861" y1="482.4219" y2="482.4219"/><text fill="#000000" font-family="sans-serif" font-size="13" font-weight="bold" lengthAdjust="spacing" textLength="18.0908" x="1134.0693" y="477.356">10</text><text fill="#000000" font-family="sans-serif" font-size="13" lengthAdjust="spacing" textLength="73.3789" x="1156.1602" y="477.356">Total count</text></g><g class="message" data-entity-1="part5" data-entity-2="part4" id="msg11"><polygon fill="#181818" points="838.1162,507.5547,828.1162,511.5547,838.1162,515.5547,834.1162,511.5547" style="stroke:#181818;stroke-width:1;"/><line style="stroke:#181818;stroke-width:1;stroke-dasharray:2,2;" x1="832.1162" x2="1111.0693" y1="511.5547" y2="511.5547"/><text fill="#000000" font-family="sans-serif" font-size="13" font-weight="bold" lengthAdjust="spacing" textLength="18.0908" x="844.1162" y="506.4888">11</text><text fill="#000000" font-family="sans-serif" font-size="13" lengthAdjust="spacing" textLength="114.6069" x="866.207" y="506.4888">TransactionDTO[]</text></g><g class="message" data-entity-1="part4" data-entity-2="part3" id="msg12"><polygon fill="#181818" points="588.6821,536.6875,578.6821,540.6875,588.6821,544.6875,584.6821,540.6875" style="stroke:#181818;stroke-width:1;"/><line style="stroke:#181818;stroke-width:1;stroke-dasharray:2,2;" x1="582.6821" x2="821.1162" y1="540.6875" y2="540.6875"/><text fill="#000000" font-family="sans-serif" font-size="13" font-weight="bold" lengthAdjust="spacing" textLength="18.0908" x="594.6821" y="535.6216">12</text><text fill="#000000" font-family="sans-serif" font-size="13" lengthAdjust="spacing" textLength="116.4668" x="616.7729" y="535.6216">Transactions data</text></g><path d="M515.4604,555.6875 L584.9497,555.6875 L584.9497,562.8203 L574.9497,572.8203 L515.4604,572.8203 L515.4604,555.6875" fill="#EEEEEE" style="stroke:#000000;stroke-width:1.5;"/><rect fill="none" height="217.9297" style="stroke:#000000;stroke-width:1.5;" width="1339.7935" x="515.4604" y="555.6875"/><text fill="#000000" font-family="sans-serif" font-size="13" font-weight="bold" lengthAdjust="spacing" textLength="24.4893" x="530.4604" y="568.7544">par</text><text fill="#000000" font-family="sans-serif" font-size="11" font-weight="bold" lengthAdjust="spacing" textLength="131.8389" x="599.9497" y="567.8979">[Parallel enrichment]</text><g class="message" data-entity-1="part3" data-entity-2="part8" id="msg13"><polygon fill="#181818" points="1703.395,589.9531,1713.395,593.9531,1703.395,597.9531,1707.395,593.9531" style="stroke:#181818;stroke-width:1;"/><line style="stroke:#181818;stroke-width:1;" x1="577.6821" x2="1709.395" y1="593.9531" y2="593.9531"/><text fill="#000000" font-family="sans-serif" font-size="13" font-weight="bold" lengthAdjust="spacing" textLength="18.0908" x="584.6821" y="588.8872">13</text><text fill="#000000" font-family="sans-serif" font-size="13" lengthAdjust="spacing" textLength="195.1143" x="606.7729" y="588.8872">gRPC: GetUsersByIds(userIds)</text></g><g class="message" data-entity-1="part8" data-entity-2="part8" id="msg14"><line style="stroke:#181818;stroke-width:1;" x1="1725.395" x2="1767.395" y1="623.0859" y2="623.0859"/><line style="stroke:#181818;stroke-width:1;" x1="1767.395" x2="1767.395" y1="623.0859" y2="636.0859"/><line style="stroke:#181818;stroke-width:1;" x1="1726.395" x2="1767.395" y1="636.0859" y2="636.0859"/><polygon fill="#181818" points="1736.395,632.0859,1726.395,636.0859,1736.395,640.0859,1732.395,636.0859" style="stroke:#181818;stroke-width:1;"/><text fill="#000000" font-family="sans-serif" font-size="13" font-weight="bold" lengthAdjust="spacing" textLength="18.0908" x="1732.395" y="618.02">14</text><text fill="#000000" font-family="sans-serif" font-size="13" lengthAdjust="spacing" textLength="78.7681" x="1754.4858" y="618.02">Query users</text></g><g class="message" data-entity-1="part8" data-entity-2="part3" id="msg15"><polygon fill="#181818" points="588.6821,661.2188,578.6821,665.2188,588.6821,669.2188,584.6821,665.2188" style="stroke:#181818;stroke-width:1;"/><line style="stroke:#181818;stroke-width:1;stroke-dasharray:2,2;" x1="582.6821" x2="1719.395" y1="665.2188" y2="665.2188"/><text fill="#000000" font-family="sans-serif" font-size="13" font-weight="bold" lengthAdjust="spacing" textLength="18.0908" x="594.6821" y="660.1528">15</text><text fill="#000000" font-family="sans-serif" font-size="13" lengthAdjust="spacing" textLength="77.4033" x="616.7729" y="660.1528">User names</text></g><g class="message" data-entity-1="part3" data-entity-2="part7" id="msg16"><polygon fill="#181818" points="1553.4351,690.3516,1563.4351,694.3516,1553.4351,698.3516,1557.4351,694.3516" style="stroke:#181818;stroke-width:1;"/><line style="stroke:#181818;stroke-width:1;" x1="577.6821" x2="1559.4351" y1="694.3516" y2="694.3516"/><text fill="#000000" font-family="sans-serif" font-size="13" font-weight="bold" lengthAdjust="spacing" textLength="18.0908" x="584.6821" y="689.2856">16</text><text fill="#000000" font-family="sans-serif" font-size="13" lengthAdjust="spacing" textLength="225.9702" x="606.7729" y="689.2856">gRPC: GetCoursesByIds(courseIds)</text></g><g class="message" data-entity-1="part7" data-entity-2="part7" id="msg17"><line style="stroke:#181818;stroke-width:1;" x1="1575.4351" x2="1617.4351" y1="723.4844" y2="723.4844"/><line style="stroke:#181818;stroke-width:1;" x1="1617.4351" x2="1617.4351" y1="723.4844" y2="736.4844"/><line style="stroke:#181818;stroke-width:1;" x1="1576.4351" x2="1617.4351" y1="736.4844" y2="736.4844"/><polygon fill="#181818" points="1586.4351,732.4844,1576.4351,736.4844,1586.4351,740.4844,1582.4351,736.4844" style="stroke:#181818;stroke-width:1;"/><text fill="#000000" font-family="sans-serif" font-size="13" font-weight="bold" lengthAdjust="spacing" textLength="18.0908" x="1582.4351" y="718.4185">17</text><text fill="#000000" font-family="sans-serif" font-size="13" lengthAdjust="spacing" textLength="93.8691" x="1604.5259" y="718.4185">Query courses</text></g><g class="message" data-entity-1="part7" data-entity-2="part3" id="msg18"><polygon fill="#181818" points="588.6821,761.6172,578.6821,765.6172,588.6821,769.6172,584.6821,765.6172" style="stroke:#181818;stroke-width:1;"/><line style="stroke:#181818;stroke-width:1;stroke-dasharray:2,2;" x1="582.6821" x2="1569.4351" y1="765.6172" y2="765.6172"/><text fill="#000000" font-family="sans-serif" font-size="13" font-weight="bold" lengthAdjust="spacing" textLength="18.0908" x="594.6821" y="760.5513">18</text><text fill="#000000" font-family="sans-serif" font-size="13" lengthAdjust="spacing" textLength="93.1582" x="616.7729" y="760.5513">Course names</text></g><g class="message" data-entity-1="part3" data-entity-2="part3" id="msg19"><line style="stroke:#181818;stroke-width:1;" x1="577.6821" x2="619.6821" y1="801.75" y2="801.75"/><line style="stroke:#181818;stroke-width:1;" x1="619.6821" x2="619.6821" y1="801.75" y2="814.75"/><line style="stroke:#181818;stroke-width:1;" x1="578.6821" x2="619.6821" y1="814.75" y2="814.75"/><polygon fill="#181818" points="588.6821,810.75,578.6821,814.75,588.6821,818.75,584.6821,814.75" style="stroke:#181818;stroke-width:1;"/><text fill="#000000" font-family="sans-serif" font-size="13" font-weight="bold" lengthAdjust="spacing" textLength="18.0908" x="584.6821" y="796.6841">19</text><text fill="#000000" font-family="sans-serif" font-size="13" lengthAdjust="spacing" textLength="74.2231" x="606.7729" y="796.6841">Merge data</text></g><g class="message" data-entity-1="part3" data-entity-2="part2" id="msg20"><polygon fill="#181818" points="343.0039,839.8828,333.0039,843.8828,343.0039,847.8828,339.0039,843.8828" style="stroke:#181818;stroke-width:1;"/><line style="stroke:#181818;stroke-width:1;stroke-dasharray:2,2;" x1="337.0039" x2="571.6821" y1="843.8828" y2="843.8828"/><text fill="#000000" font-family="sans-serif" font-size="13" font-weight="bold" lengthAdjust="spacing" textLength="18.0908" x="349.0039" y="838.8169">20</text><text fill="#000000" font-family="sans-serif" font-size="13" lengthAdjust="spacing" textLength="183.46" x="371.0947" y="838.8169">Enriched transaction history</text></g><g class="message" data-entity-1="part2" data-entity-2="part1" id="msg21"><polygon fill="#181818" points="41.4321,914.4141,31.4321,918.4141,41.4321,922.4141,37.4321,918.4141" style="stroke:#181818;stroke-width:1;"/><line style="stroke:#181818;stroke-width:1;" x1="35.4321" x2="326.0039" y1="918.4141" y2="918.4141"/><text fill="#000000" font-family="sans-serif" font-size="13" font-weight="bold" lengthAdjust="spacing" textLength="18.0908" x="47.4321" y="890.6489">21</text><text fill="#000000" font-family="sans-serif" font-size="13" lengthAdjust="spacing" textLength="166.9243" x="69.5229" y="867.9497">Display transaction table:</text><text fill="#000000" font-family="sans-serif" font-size="13" lengthAdjust="spacing" textLength="240.481" x="69.5229" y="883.0825">- Date, User, Course, Amount, Status</text><text fill="#000000" font-family="sans-serif" font-size="13" lengthAdjust="spacing" textLength="106.1201" x="69.5229" y="898.2153">- Filter by status</text><text fill="#000000" font-family="sans-serif" font-size="13" lengthAdjust="spacing" textLength="96.6177" x="69.5229" y="913.3481">- Export option</text></g><?plantuml-src RLHjRzem4FwUNt7gfAgTO6tt4PMXl46PQ66yBAh6D9d41QkEmsodBVz-PoU04-q3XPwVU-wvUtmcfIv4cM-ez3proiIUI993K7pCI9OniOMxMyyZgIua-5dE1105lhSfIf4HUO24RlpztWGJtyFm1rpuip6CYARlv701doPikzC1Bwa7a1P2ouAt89WxIZmgCi3qcYDWd9lY2ohVM4gFF3CcNXqUAwY6XbMCKsaL1g63go6rqC37euneiY6A7i-Ym1v5GKj8M9GIKIqTpvJpujsfKC6Q6iAmnRLIUD1Y6abAXKDaC4sQbKFZG_SR3he7J-IDRN60e0jOIY8KEiGA0GzCeLC7OnXxC-V--QSnAB4CewG7etW9DyGCy6PJZU16dudKMWpsP4lxTvUSvKptlzvUAarqgVg4ypCd6ZTAZfG_2MUPYNvFbXr8TpHz1Li1i1jQ0z6P7WmB-Kva1fB-BQdIZbpqpSC_1XbWdoEgPvpebqBcJfjrbrSlZ6igrVKv7xtr0jiZMjc37oN5EugAmUtDWQFV-3dX5_4a3fUWltnUY-5y-jX80xqMoKCyZ-5g0EC5FAqc4vZE4LrD1lemk5wBwJoAvn0yOpoL5AjaVuY6A5w4Qp4PFuwNC83fSBZ0-G-Crljkjog-T2Lcj27IRGfdWhPhml7Ib4Atkd497L2RpypO0lr6uMWv_VMx0VQDRmPfZNCrsXroiTOyV3zWXcy8NbyEL4YMxdAA0W0g_rV8iftFGjk7kUqgE8mpTLNYJ_o-Hk29S6MMU1KUqoet3L1LT4QMER2B9KXEJTmHXFcdkg5RjrhNkd9g_sdN3atjC3ocLhKhg5FT7DLFn7_gLo-0vwp88vLRMWtExAAXCE7Opebcxds3NRtB3Y6kMxt2Q5l4r9wJGoC77pLEUslHXGZn7JkPJgsm0tvkxa875lQ-6jJGRX1i3g1EiVXZNqWDnTumkjNn0N7Tzlu1?></g></svg>