<?plantuml 1.2026.1?><svg xmlns="http://www.w3.org/2000/svg" xmlns:xlink="http://www.w3.org/1999/xlink" contentStyleType="text/css" data-diagram-type="SEQUENCE" height="817px" preserveAspectRatio="none" style="width:1742px;height:817px;background:#FFFFFF;" version="1.1" viewBox="0 0 1742 817" width="1742px" zoomAndPan="magnify"><defs/><g><rect fill="#ADD8E6" height="805.7813" style="stroke:#181818;stroke-width:0.5;" width="102.4434" x="514.3164" y="6"/><text fill="#000000" font-family="sans-serif" font-size="13" font-weight="bold" lengthAdjust="spacing" textLength="92.6821" x="519.197" y="18.0669">API Gateway</text><rect fill="#FFB6C1" height="805.7813" style="stroke:#181818;stroke-width:0.5;" width="631.3345" x="732.6338" y="6"/><text fill="#000000" font-family="sans-serif" font-size="13" font-weight="bold" lengthAdjust="spacing" textLength="104.8633" x="995.8694" y="18.0669">Billing Service</text><rect fill="#FFFFE0" height="805.7813" style="stroke:#181818;stroke-width:0.5;" width="132.0498" x="1496.2632" y="6"/><text fill="#000000" font-family="sans-serif" font-size="13" font-weight="bold" lengthAdjust="spacing" textLength="109.2622" x="1507.657" y="18.0669">Course Service</text><g><title>Learner</title><rect fill="#FFFFFF" height="595.9219" style="stroke:#181818;stroke-width:1;" width="10" x="29.9951" y="118.5625"/></g><g><title>WebApp</title><rect fill="#FFFFFF" height="595.9219" style="stroke:#181818;stroke-width:1;" width="10" x="288.6714" y="118.5625"/></g><g><title>API Gateway</title><rect fill="#FFFFFF" height="507.3906" style="stroke:#181818;stroke-width:1;" width="10" x="560.5381" y="162.8281"/></g><g><title>BillingController</title><rect fill="#FFFFFF" height="306.5938" style="stroke:#181818;stroke-width:1;" width="10" x="790.6816" y="234.0938"/></g><g><title>BillingApp</title><rect fill="#FFFFFF" height="248.3281" style="stroke:#181818;stroke-width:1;" width="10" x="1121.9326" y="263.2266"/></g><g><title>BillingDB</title><rect fill="#FFFFFF" height="131.7969" style="stroke:#181818;stroke-width:1;" width="10" x="1320.3145" y="292.3594"/></g><g><title>BillingDB</title><rect fill="#FFFFFF" height="29.1328" style="stroke:#181818;stroke-width:1;" width="10" x="1320.3145" y="453.2891"/></g><g><title>CourseController</title><rect fill="#FFFFFF" height="71.2656" style="stroke:#181818;stroke-width:1;" width="10" x="1557.2881" y="569.8203"/></g><g class="participant-lifeline" data-entity-uid="part1" data-qualified-name="L" id="part1-lifeline"><g><title>Learner</title><rect fill="#000000" fill-opacity="0.00000" height="645.0547" width="8" x="30.9951" y="87.4297"/><line style="stroke:#181818;stroke-width:0.5;stroke-dasharray:5,5;" x1="34" x2="34" y1="87.4297" y2="732.4844"/></g></g><g class="participant-lifeline" data-entity-uid="part2" data-qualified-name="WA" id="part2-lifeline"><g><title>WebApp</title><rect fill="#000000" fill-opacity="0.00000" height="645.0547" width="8" x="289.6714" y="87.4297"/><line style="stroke:#181818;stroke-width:0.5;stroke-dasharray:5,5;" x1="293.3247" x2="293.3247" y1="87.4297" y2="732.4844"/></g></g><g class="participant-lifeline" data-entity-uid="part3" data-qualified-name="GW" id="part3-lifeline"><g><title>API Gateway</title><rect fill="#000000" fill-opacity="0.00000" height="645.0547" width="8" x="561.5381" y="87.4297"/><line style="stroke:#181818;stroke-width:0.5;stroke-dasharray:5,5;" x1="565.3164" x2="565.3164" y1="87.4297" y2="732.4844"/></g></g><g class="participant-lifeline" data-entity-uid="part4" data-qualified-name="BC" id="part4-lifeline"><g><title>BillingController</title><rect fill="#000000" fill-opacity="0.00000" height="645.0547" width="8" x="791.6816" y="87.4297"/><line style="stroke:#181818;stroke-width:0.5;stroke-dasharray:5,5;" x1="795.6338" x2="795.6338" y1="87.4297" y2="732.4844"/></g></g><g class="participant-lifeline" data-entity-uid="part5" data-qualified-name="BA" id="part5-lifeline"><g><title>BillingApp</title><rect fill="#000000" fill-opacity="0.00000" height="645.0547" width="8" x="1122.9326" y="87.4297"/><line style="stroke:#181818;stroke-width:0.5;stroke-dasharray:5,5;" x1="1126.7959" x2="1126.7959" y1="87.4297" y2="732.4844"/></g></g><g class="participant-lifeline" data-entity-uid="part6" data-qualified-name="BDB" id="part6-lifeline"><g><title>BillingDB</title><rect fill="#000000" fill-opacity="0.00000" height="645.0547" width="8" x="1321.3145" y="87.4297"/><line style="stroke:#181818;stroke-width:0.5;stroke-dasharray:5,5;" x1="1324.6606" x2="1324.6606" y1="87.4297" y2="732.4844"/></g></g><g class="participant-lifeline" data-entity-uid="part7" data-qualified-name="CC" id="part7-lifeline"><g><title>CourseController</title><rect fill="#000000" fill-opacity="0.00000" height="645.0547" width="8" x="1558.2881" y="87.4297"/><line style="stroke:#181818;stroke-width:0.5;stroke-dasharray:5,5;" x1="1562.2632" x2="1562.2632" y1="87.4297" y2="732.4844"/></g></g><g class="participant participant-head" data-entity-uid="part1" data-qualified-name="L" id="part1-head"><text fill="#000000" font-family="sans-serif" font-size="14" lengthAdjust="spacing" textLength="53.9902" x="5" y="84.1279">Learner</text><ellipse cx="34.9951" cy="19.6328" fill="#E2E2F0" rx="8" ry="8" style="stroke:#181818;stroke-width:0.5;"/><path d="M34.9951,27.6328 L34.9951,54.6328 M21.9951,35.6328 L47.9951,35.6328 M34.9951,54.6328 L21.9951,69.6328 M34.9951,54.6328 L47.9951,69.6328" fill="none" style="stroke:#181818;stroke-width:0.5;"/></g><g class="participant participant-tail" data-entity-uid="part1" data-qualified-name="L" id="part1-tail"><text fill="#000000" font-family="sans-serif" font-size="14" lengthAdjust="spacing" textLength="53.9902" x="5" y="744.4795">Learner</text><ellipse cx="34.9951" cy="756.2813" fill="#E2E2F0" rx="8" ry="8" style="stroke:#181818;stroke-width:0.5;"/><path d="M34.9951,764.2813 L34.9951,791.2813 M21.9951,772.2813 L47.9951,772.2813 M34.9951,791.2813 L21.9951,806.2813 M34.9951,791.2813 L47.9951,806.2813" fill="none" style="stroke:#181818;stroke-width:0.5;"/></g><g class="participant participant-head" data-entity-uid="part2" data-qualified-name="WA" id="part2-head"><text fill="#000000" font-family="sans-serif" font-size="14" lengthAdjust="spacing" textLength="58.6934" x="261.3247" y="84.1279">WebApp</text><path d="M273.1714,43.1328 L273.1714,67.1328 M273.1714,55.1328 L290.1714,55.1328" fill="none" style="stroke:#181818;stroke-width:0.5;"/><ellipse cx="302.1714" cy="55.1328" fill="#E2E2F0" rx="12" ry="12" style="stroke:#181818;stroke-width:0.5;"/></g><g class="participant participant-tail" data-entity-uid="part2" data-qualified-name="WA" id="part2-tail"><text fill="#000000" font-family="sans-serif" font-size="14" lengthAdjust="spacing" textLength="58.6934" x="261.3247" y="744.4795">WebApp</text><path d="M273.1714,751.7813 L273.1714,775.7813 M273.1714,763.7813 L290.1714,763.7813" fill="none" style="stroke:#181818;stroke-width:0.5;"/><ellipse cx="302.1714" cy="763.7813" fill="#E2E2F0" rx="12" ry="12" style="stroke:#181818;stroke-width:0.5;"/></g><g class="participant participant-head" data-entity-uid="part3" data-qualified-name="GW" id="part3-head"><text fill="#000000" font-family="sans-serif" font-size="14" lengthAdjust="spacing" textLength="88.4434" x="518.3164" y="84.1279">API Gateway</text><ellipse cx="565.5381" cy="55.1328" fill="#E2E2F0" rx="12" ry="12" style="stroke:#181818;stroke-width:0.5;"/><polygon fill="#181818" points="561.5381,43.1328,567.5381,38.1328,565.5381,43.1328,567.5381,48.1328,561.5381,43.1328" style="stroke:#181818;stroke-width:1;"/></g><g class="participant participant-tail" data-entity-uid="part3" data-qualified-name="GW" id="part3-tail"><text fill="#000000" font-family="sans-serif" font-size="14" lengthAdjust="spacing" textLength="88.4434" x="518.3164" y="744.4795">API Gateway</text><ellipse cx="565.5381" cy="763.7813" fill="#E2E2F0" rx="12" ry="12" style="stroke:#181818;stroke-width:0.5;"/><polygon fill="#181818" points="561.5381,751.7813,567.5381,746.7813,565.5381,751.7813,567.5381,756.7813,561.5381,751.7813" style="stroke:#181818;stroke-width:1;"/></g><g class="participant participant-head" data-entity-uid="part4" data-qualified-name="BC" id="part4-head"><text fill="#000000" font-family="sans-serif" font-size="14" lengthAdjust="spacing" textLength="112.0957" x="736.6338" y="84.1279">BillingController</text><ellipse cx="795.6816" cy="55.1328" fill="#E2E2F0" rx="12" ry="12" style="stroke:#181818;stroke-width:0.5;"/><polygon fill="#181818" points="791.6816,43.1328,797.6816,38.1328,795.6816,43.1328,797.6816,48.1328,791.6816,43.1328" style="stroke:#181818;stroke-width:1;"/></g><g class="participant participant-tail" data-entity-uid="part4" data-qualified-name="BC" id="part4-tail"><text fill="#000000" font-family="sans-serif" font-size="14" lengthAdjust="spacing" textLength="112.0957" x="736.6338" y="744.4795">BillingController</text><ellipse cx="795.6816" cy="763.7813" fill="#E2E2F0" rx="12" ry="12" style="stroke:#181818;stroke-width:0.5;"/><polygon fill="#181818" points="791.6816,751.7813,797.6816,746.7813,795.6816,751.7813,797.6816,756.7813,791.6816,751.7813" style="stroke:#181818;stroke-width:1;"/></g><g class="participant participant-head" data-entity-uid="part5" data-qualified-name="BA" id="part5-head"><text fill="#000000" font-family="sans-serif" font-size="14" lengthAdjust="spacing" textLength="70.2734" x="1088.7959" y="84.1279">BillingApp</text><ellipse cx="1126.9326" cy="55.1328" fill="#E2E2F0" rx="12" ry="12" style="stroke:#181818;stroke-width:0.5;"/><polygon fill="#181818" points="1122.9326,43.1328,1128.9326,38.1328,1126.9326,43.1328,1128.9326,48.1328,1122.9326,43.1328" style="stroke:#181818;stroke-width:1;"/></g><g class="participant participant-tail" data-entity-uid="part5" data-qualified-name="BA" id="part5-tail"><text fill="#000000" font-family="sans-serif" font-size="14" lengthAdjust="spacing" textLength="70.2734" x="1088.7959" y="744.4795">BillingApp</text><ellipse cx="1126.9326" cy="763.7813" fill="#E2E2F0" rx="12" ry="12" style="stroke:#181818;stroke-width:0.5;"/><polygon fill="#181818" points="1122.9326,751.7813,1128.9326,746.7813,1126.9326,751.7813,1128.9326,756.7813,1122.9326,751.7813" style="stroke:#181818;stroke-width:1;"/></g><g class="participant participant-head" data-entity-uid="part6" data-qualified-name="BDB" id="part6-head"><text fill="#000000" font-family="sans-serif" font-size="14" lengthAdjust="spacing" textLength="63.3076" x="1290.6606" y="84.1279">BillingDB</text><path d="M1307.3145,35.1328 C1307.3145,25.1328 1325.3145,25.1328 1325.3145,25.1328 C1325.3145,25.1328 1343.3145,25.1328 1343.3145,35.1328 L1343.3145,61.1328 C1343.3145,71.1328 1325.3145,71.1328 1325.3145,71.1328 C1325.3145,71.1328 1307.3145,71.1328 1307.3145,61.1328 L1307.3145,35.1328" fill="#E2E2F0" style="stroke:#181818;stroke-width:0.5;"/><path d="M1307.3145,35.1328 C1307.3145,45.1328 1325.3145,45.1328 1325.3145,45.1328 C1325.3145,45.1328 1343.3145,45.1328 1343.3145,35.1328" fill="none" style="stroke:#181818;stroke-width:0.5;"/></g><g class="participant participant-tail" data-entity-uid="part6" data-qualified-name="BDB" id="part6-tail"><text fill="#000000" font-family="sans-serif" font-size="14" lengthAdjust="spacing" textLength="63.3076" x="1290.6606" y="744.4795">BillingDB</text><path d="M1307.3145,757.7813 C1307.3145,747.7813 1325.3145,747.7813 1325.3145,747.7813 C1325.3145,747.7813 1343.3145,747.7813 1343.3145,757.7813 L1343.3145,783.7813 C1343.3145,793.7813 1325.3145,793.7813 1325.3145,793.7813 C1325.3145,793.7813 1307.3145,793.7813 1307.3145,783.7813 L1307.3145,757.7813" fill="#E2E2F0" style="stroke:#181818;stroke-width:0.5;"/><path d="M1307.3145,757.7813 C1307.3145,767.7813 1325.3145,767.7813 1325.3145,767.7813 C1325.3145,767.7813 1343.3145,767.7813 1343.3145,757.7813" fill="none" style="stroke:#181818;stroke-width:0.5;"/></g><g class="participant participant-head" data-entity-uid="part7" data-qualified-name="CC" id="part7-head"><text fill="#000000" font-family="sans-serif" font-size="14" lengthAdjust="spacing" textLength="118.0498" x="1500.2632" y="84.1279">CourseController</text><ellipse cx="1562.2881" cy="55.1328" fill="#E2E2F0" rx="12" ry="12" style="stroke:#181818;stroke-width:0.5;"/><polygon fill="#181818" points="1558.2881,43.1328,1564.2881,38.1328,1562.2881,43.1328,1564.2881,48.1328,1558.2881,43.1328" style="stroke:#181818;stroke-width:1;"/></g><g class="participant participant-tail" data-entity-uid="part7" data-qualified-name="CC" id="part7-tail"><text fill="#000000" font-family="sans-serif" font-size="14" lengthAdjust="spacing" textLength="118.0498" x="1500.2632" y="744.4795">CourseController</text><ellipse cx="1562.2881" cy="763.7813" fill="#E2E2F0" rx="12" ry="12" style="stroke:#181818;stroke-width:0.5;"/><polygon fill="#181818" points="1558.2881,751.7813,1564.2881,746.7813,1562.2881,751.7813,1564.2881,756.7813,1558.2881,751.7813" style="stroke:#181818;stroke-width:1;"/></g><g><title>Learner</title><rect fill="#FFFFFF" height="595.9219" style="stroke:#181818;stroke-width:1;" width="10" x="29.9951" y="118.5625"/></g><g><title>WebApp</title><rect fill="#FFFFFF" height="595.9219" style="stroke:#181818;stroke-width:1;" width="10" x="288.6714" y="118.5625"/></g><g><title>API Gateway</title><rect fill="#FFFFFF" height="507.3906" style="stroke:#181818;stroke-width:1;" width="10" x="560.5381" y="162.8281"/></g><g><title>BillingController</title><rect fill="#FFFFFF" height="306.5938" style="stroke:#181818;stroke-width:1;" width="10" x="790.6816" y="234.0938"/></g><g><title>BillingApp</title><rect fill="#FFFFFF" height="248.3281" style="stroke:#181818;stroke-width:1;" width="10" x="1121.9326" y="263.2266"/></g><g><title>BillingDB</title><rect fill="#FFFFFF" height="131.7969" style="stroke:#181818;stroke-width:1;" width="10" x="1320.3145" y="292.3594"/></g><g><title>BillingDB</title><rect fill="#FFFFFF" height="29.1328" style="stroke:#181818;stroke-width:1;" width="10" x="1320.3145" y="453.2891"/></g><g><title>CourseController</title><rect fill="#FFFFFF" height="71.2656" style="stroke:#181818;stroke-width:1;" width="10" x="1557.2881" y="569.8203"/></g><g class="message" data-entity-1="part1" data-entity-2="part2" id="msg1"><polygon fill="#181818" points="276.6714,114.5625,286.6714,118.5625,276.6714,122.5625,280.6714,118.5625" style="stroke:#181818;stroke-width:1;"/><line style="stroke:#181818;stroke-width:1;" x1="39.9951" x2="282.6714" y1="118.5625" y2="118.5625"/><text fill="#000000" font-family="sans-serif" font-size="13" font-weight="bold" lengthAdjust="spacing" textLength="9.0454" x="46.9951" y="113.4966">1</text><text fill="#000000" font-family="sans-serif" font-size="13" lengthAdjust="spacing" textLength="181.8223" x="60.0405" y="113.4966">Navigate to "Billing History"</text></g><g class="message" data-entity-1="part2" data-entity-2="part3" id="msg2"><polygon fill="#181818" points="548.5381,158.8281,558.5381,162.8281,548.5381,166.8281,552.5381,162.8281" style="stroke:#181818;stroke-width:1;"/><line style="stroke:#181818;stroke-width:1;" x1="298.6714" x2="554.5381" y1="162.8281" y2="162.8281"/><text fill="#000000" font-family="sans-serif" font-size="13" font-weight="bold" lengthAdjust="spacing" textLength="9.0454" x="305.6714" y="150.1958">2</text><text fill="#000000" font-family="sans-serif" font-size="13" lengthAdjust="spacing" textLength="123.0239" x="318.7168" y="142.6294">GET /billing/history</text><text fill="#000000" font-family="sans-serif" font-size="13" lengthAdjust="spacing" textLength="124.6997" x="318.7168" y="157.7622">?page=1&amp;limit=10</text></g><g class="message" data-entity-1="part3" data-entity-2="part3" id="msg3"><line style="stroke:#181818;stroke-width:1;" x1="570.5381" x2="612.5381" y1="191.9609" y2="191.9609"/><line style="stroke:#181818;stroke-width:1;" x1="612.5381" x2="612.5381" y1="191.9609" y2="204.9609"/><line style="stroke:#181818;stroke-width:1;" x1="571.5381" x2="612.5381" y1="204.9609" y2="204.9609"/><polygon fill="#181818" points="581.5381,200.9609,571.5381,204.9609,581.5381,208.9609,577.5381,204.9609" style="stroke:#181818;stroke-width:1;"/><text fill="#000000" font-family="sans-serif" font-size="13" font-weight="bold" lengthAdjust="spacing" textLength="9.0454" x="577.5381" y="186.895">3</text><text fill="#000000" font-family="sans-serif" font-size="13" lengthAdjust="spacing" textLength="183.0981" x="590.5835" y="186.895">Validate JWT, extract userID</text></g><g class="message" data-entity-1="part3" data-entity-2="part4" id="msg4"><polygon fill="#181818" points="778.6816,230.0938,788.6816,234.0938,778.6816,238.0938,782.6816,234.0938" style="stroke:#181818;stroke-width:1;"/><line style="stroke:#181818;stroke-width:1;" x1="570.5381" x2="784.6816" y1="234.0938" y2="234.0938"/><text fill="#000000" font-family="sans-serif" font-size="13" font-weight="bold" lengthAdjust="spacing" textLength="9.0454" x="577.5381" y="229.0278">4</text><text fill="#000000" font-family="sans-serif" font-size="13" lengthAdjust="spacing" textLength="106.8057" x="590.5835" y="229.0278">Forward request</text></g><g class="message" data-entity-1="part4" data-entity-2="part5" id="msg5"><polygon fill="#181818" points="1109.9326,259.2266,1119.9326,263.2266,1109.9326,267.2266,1113.9326,263.2266" style="stroke:#181818;stroke-width:1;"/><line style="stroke:#181818;stroke-width:1;" x1="800.6816" x2="1115.9326" y1="263.2266" y2="263.2266"/><text fill="#000000" font-family="sans-serif" font-size="13" font-weight="bold" lengthAdjust="spacing" textLength="9.0454" x="807.6816" y="258.1606">5</text><text fill="#000000" font-family="sans-serif" font-size="13" lengthAdjust="spacing" textLength="289.2056" x="820.7271" y="258.1606">GetLearnerBillingHistory(userID, pagination)</text></g><g class="message" data-entity-1="part5" data-entity-2="part6" id="msg6"><polygon fill="#181818" points="1308.3145,288.3594,1318.3145,292.3594,1308.3145,296.3594,1312.3145,292.3594" style="stroke:#181818;stroke-width:1;"/><line style="stroke:#181818;stroke-width:1;" x1="1131.9326" x2="1314.3145" y1="292.3594" y2="292.3594"/><text fill="#000000" font-family="sans-serif" font-size="13" font-weight="bold" lengthAdjust="spacing" textLength="9.0454" x="1138.9326" y="287.2935">6</text><text fill="#000000" font-family="sans-serif" font-size="13" lengthAdjust="spacing" textLength="156.3364" x="1151.978" y="287.2935">Query user transactions</text></g><g class="message" data-entity-1="part6" data-entity-2="part6" id="msg7"><line style="stroke:#181818;stroke-width:1;" x1="1330.3145" x2="1372.3145" y1="382.0234" y2="382.0234"/><line style="stroke:#181818;stroke-width:1;" x1="1372.3145" x2="1372.3145" y1="382.0234" y2="395.0234"/><line style="stroke:#181818;stroke-width:1;" x1="1331.3145" x2="1372.3145" y1="395.0234" y2="395.0234"/><polygon fill="#181818" points="1341.3145,391.0234,1331.3145,395.0234,1341.3145,399.0234,1337.3145,395.0234" style="stroke:#181818;stroke-width:1;"/><text fill="#000000" font-family="sans-serif" font-size="13" font-weight="bold" lengthAdjust="spacing" textLength="9.0454" x="1337.3145" y="346.6919">7</text><text fill="#000000" font-family="sans-serif" font-size="13" lengthAdjust="spacing" textLength="68.8022" x="1350.3599" y="316.4263">SELECT t.*</text><text fill="#000000" font-family="sans-serif" font-size="13" lengthAdjust="spacing" textLength="131.5298" x="1350.3599" y="331.5591">FROM transactions t</text><text fill="#000000" font-family="sans-serif" font-size="13" lengthAdjust="spacing" textLength="134.2275" x="1350.3599" y="346.6919">WHERE t.user_id = ?</text><text fill="#000000" font-family="sans-serif" font-size="13" lengthAdjust="spacing" textLength="189.9282" x="1350.3599" y="361.8247">ORDER BY t.created_at DESC</text><text fill="#000000" font-family="sans-serif" font-size="13" lengthAdjust="spacing" textLength="109.8589" x="1350.3599" y="376.9575">LIMIT ? OFFSET ?</text></g><g class="message" data-entity-1="part6" data-entity-2="part5" id="msg8"><polygon fill="#181818" points="1142.9326,420.1563,1132.9326,424.1563,1142.9326,428.1563,1138.9326,424.1563" style="stroke:#181818;stroke-width:1;"/><line style="stroke:#181818;stroke-width:1;stroke-dasharray:2,2;" x1="1136.9326" x2="1324.3145" y1="424.1563" y2="424.1563"/><text fill="#000000" font-family="sans-serif" font-size="13" font-weight="bold" lengthAdjust="spacing" textLength="9.0454" x="1148.9326" y="419.0903">8</text><text fill="#000000" font-family="sans-serif" font-size="13" lengthAdjust="spacing" textLength="99.5059" x="1161.978" y="419.0903">Transaction list</text></g><g class="message" data-entity-1="part5" data-entity-2="part6" id="msg9"><polygon fill="#181818" points="1308.3145,449.2891,1318.3145,453.2891,1308.3145,457.2891,1312.3145,453.2891" style="stroke:#181818;stroke-width:1;"/><line style="stroke:#181818;stroke-width:1;" x1="1131.9326" x2="1314.3145" y1="453.2891" y2="453.2891"/><text fill="#000000" font-family="sans-serif" font-size="13" font-weight="bold" lengthAdjust="spacing" textLength="9.0454" x="1138.9326" y="448.2231">9</text><text fill="#000000" font-family="sans-serif" font-size="13" lengthAdjust="spacing" textLength="97.8364" x="1151.978" y="448.2231">Get total count</text></g><g class="message" data-entity-1="part6" data-entity-2="part5" id="msg10"><polygon fill="#181818" points="1142.9326,478.4219,1132.9326,482.4219,1142.9326,486.4219,1138.9326,482.4219" style="stroke:#181818;stroke-width:1;"/><line style="stroke:#181818;stroke-width:1;stroke-dasharray:2,2;" x1="1136.9326" x2="1324.3145" y1="482.4219" y2="482.4219"/><text fill="#000000" font-family="sans-serif" font-size="13" font-weight="bold" lengthAdjust="spacing" textLength="18.0908" x="1148.9326" y="477.356">10</text><text fill="#000000" font-family="sans-serif" font-size="13" lengthAdjust="spacing" textLength="73.3789" x="1171.0234" y="477.356">Total count</text></g><g class="message" data-entity-1="part5" data-entity-2="part4" id="msg11"><polygon fill="#181818" points="811.6816,507.5547,801.6816,511.5547,811.6816,515.5547,807.6816,511.5547" style="stroke:#181818;stroke-width:1;"/><line style="stroke:#181818;stroke-width:1;stroke-dasharray:2,2;" x1="805.6816" x2="1125.9326" y1="511.5547" y2="511.5547"/><text fill="#000000" font-family="sans-serif" font-size="13" font-weight="bold" lengthAdjust="spacing" textLength="18.0908" x="817.6816" y="506.4888">11</text><text fill="#000000" font-family="sans-serif" font-size="13" lengthAdjust="spacing" textLength="114.6069" x="839.7725" y="506.4888">TransactionDTO[]</text></g><g class="message" data-entity-1="part4" data-entity-2="part3" id="msg12"><polygon fill="#181818" points="581.5381,536.6875,571.5381,540.6875,581.5381,544.6875,577.5381,540.6875" style="stroke:#181818;stroke-width:1;"/><line style="stroke:#181818;stroke-width:1;stroke-dasharray:2,2;" x1="575.5381" x2="794.6816" y1="540.6875" y2="540.6875"/><text fill="#000000" font-family="sans-serif" font-size="13" font-weight="bold" lengthAdjust="spacing" textLength="18.0908" x="587.5381" y="535.6216">12</text><text fill="#000000" font-family="sans-serif" font-size="13" lengthAdjust="spacing" textLength="47.7026" x="609.6289" y="535.6216">200 OK</text></g><g class="message" data-entity-1="part3" data-entity-2="part7" id="msg13"><polygon fill="#181818" points="1545.2881,565.8203,1555.2881,569.8203,1545.2881,573.8203,1549.2881,569.8203" style="stroke:#181818;stroke-width:1;"/><line style="stroke:#181818;stroke-width:1;" x1="570.5381" x2="1551.2881" y1="569.8203" y2="569.8203"/><text fill="#000000" font-family="sans-serif" font-size="13" font-weight="bold" lengthAdjust="spacing" textLength="18.0908" x="577.5381" y="564.7544">13</text><text fill="#000000" font-family="sans-serif" font-size="13" lengthAdjust="spacing" textLength="225.9702" x="599.6289" y="564.7544">gRPC: GetCoursesByIds(courseIds)</text></g><g class="message" data-entity-1="part7" data-entity-2="part7" id="msg14"><line style="stroke:#181818;stroke-width:1;" x1="1567.2881" x2="1609.2881" y1="598.9531" y2="598.9531"/><line style="stroke:#181818;stroke-width:1;" x1="1609.2881" x2="1609.2881" y1="598.9531" y2="611.9531"/><line style="stroke:#181818;stroke-width:1;" x1="1568.2881" x2="1609.2881" y1="611.9531" y2="611.9531"/><polygon fill="#181818" points="1578.2881,607.9531,1568.2881,611.9531,1578.2881,615.9531,1574.2881,611.9531" style="stroke:#181818;stroke-width:1;"/><text fill="#000000" font-family="sans-serif" font-size="13" font-weight="bold" lengthAdjust="spacing" textLength="18.0908" x="1574.2881" y="593.8872">14</text><text fill="#000000" font-family="sans-serif" font-size="13" lengthAdjust="spacing" textLength="138.6963" x="1596.3789" y="593.8872">Query courses by IDs</text></g><g class="message" data-entity-1="part7" data-entity-2="part3" id="msg15"><polygon fill="#181818" points="581.5381,637.0859,571.5381,641.0859,581.5381,645.0859,577.5381,641.0859" style="stroke:#181818;stroke-width:1;"/><line style="stroke:#181818;stroke-width:1;stroke-dasharray:2,2;" x1="575.5381" x2="1561.2881" y1="641.0859" y2="641.0859"/><text fill="#000000" font-family="sans-serif" font-size="13" font-weight="bold" lengthAdjust="spacing" textLength="18.0908" x="587.5381" y="636.02">15</text><text fill="#000000" font-family="sans-serif" font-size="13" lengthAdjust="spacing" textLength="93.1582" x="609.6289" y="636.02">Course names</text></g><g class="message" data-entity-1="part3" data-entity-2="part2" id="msg16"><polygon fill="#181818" points="309.6714,666.2188,299.6714,670.2188,309.6714,674.2188,305.6714,670.2188" style="stroke:#181818;stroke-width:1;"/><line style="stroke:#181818;stroke-width:1;stroke-dasharray:2,2;" x1="303.6714" x2="564.5381" y1="670.2188" y2="670.2188"/><text fill="#000000" font-family="sans-serif" font-size="13" font-weight="bold" lengthAdjust="spacing" textLength="18.0908" x="315.6714" y="665.1528">16</text><text fill="#000000" font-family="sans-serif" font-size="13" lengthAdjust="spacing" textLength="215.7759" x="337.7622" y="665.1528">Billing history with course names</text></g><g class="message" data-entity-1="part2" data-entity-2="part1" id="msg17"><polygon fill="#181818" points="45.9951,710.4844,35.9951,714.4844,45.9951,718.4844,41.9951,714.4844" style="stroke:#181818;stroke-width:1;"/><line style="stroke:#181818;stroke-width:1;" x1="39.9951" x2="292.6714" y1="714.4844" y2="714.4844"/><text fill="#000000" font-family="sans-serif" font-size="13" font-weight="bold" lengthAdjust="spacing" textLength="18.0908" x="51.9951" y="701.8521">17</text><text fill="#000000" font-family="sans-serif" font-size="13" lengthAdjust="spacing" textLength="166.9243" x="74.0859" y="694.2856">Display transaction table:</text><text fill="#000000" font-family="sans-serif" font-size="13" lengthAdjust="spacing" textLength="202.5854" x="74.0859" y="709.4185">- Date, Course, Amount, Status</text></g><?plantuml-src PLDTRzem57tFhxXYqjHDiD8zHcCeSG9bImi3jAXQfieX5bWr3hCTFlxzhfDG4dY85FkUS-wv7wQ5oMMnJPbo7Ft6vOugkWK_Fyvebd6vXeU-uz2LoHL4Z2h9550DaPFcXSoeEa7CKc-tivUnv-3r4JhUR09ZQjY1dZhm8UBhZV55mHo0LIwDoiKL1BdZs64o0wJN6ZuNmgPVCBNdAtRMcN7vrj2fKQGwYigSJsuHjKNVmr163KsfPkTOu9UXmB-oGF928UhAmGiJ8ZyqCbImjWL2BbeHzBvZRrnufdk-nfh1v9Vw7hd6tfuwjiTyRwFHvTTsDFOiVnoxC0wNS9zMlFjDnKlaS4VNRF3mKV0jDmESrZiRUpgEp-JVLF3Ctlw8brrWHwCG1uLcQXBKC9-uCChLWQeC5FjNC6qkOjXKnoSb34iPCrDlGrr7NSPT9TW5DCKbDJoNdneQM8vVbeFDTk5NmN1_B0FGZTGMbqlTmED8y7idBC8e94imNpudSZIVFhLeO18PFuRp4EDMyvLdC81X8gVp89o3_uBtAyLGDtkb1e9mGH8PJPucInZ2T3HQO7U7rjwtNgzAjxoeWy3wd8orh3LhmORWM0qLk1Q5D5SrD4KRe1izKk6yLkvWEVtpjuNrxC1A94xiQxyFqv-jE8wgcYZ1-7e-8wM_Qa-rVvfa-cvL7l2lCHvSMaBEj6eu5Kn3Ue99eCzfRRn-799kcMucHn6xiXPcr-wyvlMwme6RJQrwoyM5hTSzSY7WUYVegJbZm7Shc9l87WI8xzOckk1jRJ-xi33K52r9V46DK-Jy1m00?></g></svg>