<?plantuml 1.2026.1?><svg xmlns="http://www.w3.org/2000/svg" xmlns:xlink="http://www.w3.org/1999/xlink" contentStyleType="text/css" data-diagram-type="SEQUENCE" height="759px" preserveAspectRatio="none" style="width:1626px;height:759px;background:#FFFFFF;" version="1.1" viewBox="0 0 1626 759" width="1626px" zoomAndPan="magnify"><defs/><g><rect fill="#ADD8E6" height="747.5156" style="stroke:#181818;stroke-width:0.5;" width="102.4434" x="535.8901" y="6"/><text fill="#000000" font-family="sans-serif" font-size="13" font-weight="bold" lengthAdjust="spacing" textLength="92.6821" x="540.7708" y="18.0669">API Gateway</text><rect fill="#FFFFE0" height="747.5156" style="stroke:#181818;stroke-width:0.5;" width="670.0215" x="785.7236" y="6"/><text fill="#000000" font-family="sans-serif" font-size="13" font-weight="bold" lengthAdjust="spacing" textLength="109.2622" x="1066.1033" y="18.0669">Course Service</text><g><title>Instructor</title><rect fill="#FFFFFF" height="537.6563" style="stroke:#181818;stroke-width:1;" width="10" x="36.9609" y="118.5625"/></g><g><title>WebApp</title><rect fill="#FFFFFF" height="537.6563" style="stroke:#181818;stroke-width:1;" width="10" x="339.2012" y="118.5625"/></g><g><title>API Gateway</title><rect fill="#FFFFFF" height="449.125" style="stroke:#181818;stroke-width:1;" width="10" x="582.1118" y="162.8281"/></g><g><title>CourseController</title><rect fill="#FFFFFF" height="348.7266" style="stroke:#181818;stroke-width:1;" width="10" x="846.7485" y="234.0938"/></g><g><title>CourseApp</title><rect fill="#FFFFFF" height="290.4609" style="stroke:#181818;stroke-width:1;" width="10" x="1173.9033" y="263.2266"/></g><g><title>CourseDB</title><rect fill="#FFFFFF" height="131.7969" style="stroke:#181818;stroke-width:1;" width="10" x="1409.1143" y="292.3594"/></g><g><title>CourseDB</title><rect fill="#FFFFFF" height="29.1328" style="stroke:#181818;stroke-width:1;" width="10" x="1409.1143" y="453.2891"/></g><g class="participant-lifeline" data-entity-uid="part1" data-qualified-name="I" id="part1-lifeline"><g><title>Instructor</title><rect fill="#000000" fill-opacity="0.00000" height="586.7891" width="8" x="37.9609" y="87.4297"/><line style="stroke:#181818;stroke-width:0.5;stroke-dasharray:5,5;" x1="41" x2="41" y1="87.4297" y2="674.2188"/></g></g><g class="participant-lifeline" data-entity-uid="part2" data-qualified-name="WA" id="part2-lifeline"><g><title>WebApp</title><rect fill="#000000" fill-opacity="0.00000" height="586.7891" width="8" x="340.2012" y="87.4297"/><line style="stroke:#181818;stroke-width:0.5;stroke-dasharray:5,5;" x1="343.8545" x2="343.8545" y1="87.4297" y2="674.2188"/></g></g><g class="participant-lifeline" data-entity-uid="part3" data-qualified-name="GW" id="part3-lifeline"><g><title>API Gateway</title><rect fill="#000000" fill-opacity="0.00000" height="586.7891" width="8" x="583.1118" y="87.4297"/><line style="stroke:#181818;stroke-width:0.5;stroke-dasharray:5,5;" x1="586.8901" x2="586.8901" y1="87.4297" y2="674.2188"/></g></g><g class="participant-lifeline" data-entity-uid="part4" data-qualified-name="CC" id="part4-lifeline"><g><title>CourseController</title><rect fill="#000000" fill-opacity="0.00000" height="586.7891" width="8" x="847.7485" y="87.4297"/><line style="stroke:#181818;stroke-width:0.5;stroke-dasharray:5,5;" x1="851.7236" x2="851.7236" y1="87.4297" y2="674.2188"/></g></g><g class="participant-lifeline" data-entity-uid="part5" data-qualified-name="CA" id="part5-lifeline"><g><title>CourseApp</title><rect fill="#000000" fill-opacity="0.00000" height="586.7891" width="8" x="1174.9033" y="87.4297"/><line style="stroke:#181818;stroke-width:0.5;stroke-dasharray:5,5;" x1="1178.7896" x2="1178.7896" y1="87.4297" y2="674.2188"/></g></g><g class="participant-lifeline" data-entity-uid="part6" data-qualified-name="CDB" id="part6-lifeline"><g><title>CourseDB</title><rect fill="#000000" fill-opacity="0.00000" height="586.7891" width="8" x="1410.1143" y="87.4297"/><line style="stroke:#181818;stroke-width:0.5;stroke-dasharray:5,5;" x1="1413.4834" x2="1413.4834" y1="87.4297" y2="674.2188"/></g></g><g class="participant participant-head" data-entity-uid="part1" data-qualified-name="I" id="part1-head"><text fill="#000000" font-family="sans-serif" font-size="14" lengthAdjust="spacing" textLength="67.9219" x="5" y="84.1279">Instructor</text><ellipse cx="41.9609" cy="19.6328" fill="#E2E2F0" rx="8" ry="8" style="stroke:#181818;stroke-width:0.5;"/><path d="M41.9609,27.6328 L41.9609,54.6328 M28.9609,35.6328 L54.9609,35.6328 M41.9609,54.6328 L28.9609,69.6328 M41.9609,54.6328 L54.9609,69.6328" fill="none" style="stroke:#181818;stroke-width:0.5;"/></g><g class="participant participant-tail" data-entity-uid="part1" data-qualified-name="I" id="part1-tail"><text fill="#000000" font-family="sans-serif" font-size="14" lengthAdjust="spacing" textLength="67.9219" x="5" y="686.2139">Instructor</text><ellipse cx="41.9609" cy="698.0156" fill="#E2E2F0" rx="8" ry="8" style="stroke:#181818;stroke-width:0.5;"/><path d="M41.9609,706.0156 L41.9609,733.0156 M28.9609,714.0156 L54.9609,714.0156 M41.9609,733.0156 L28.9609,748.0156 M41.9609,733.0156 L54.9609,748.0156" fill="none" style="stroke:#181818;stroke-width:0.5;"/></g><g class="participant participant-head" data-entity-uid="part2" data-qualified-name="WA" id="part2-head"><text fill="#000000" font-family="sans-serif" font-size="14" lengthAdjust="spacing" textLength="58.6934" x="311.8545" y="84.1279">WebApp</text><path d="M323.7012,43.1328 L323.7012,67.1328 M323.7012,55.1328 L340.7012,55.1328" fill="none" style="stroke:#181818;stroke-width:0.5;"/><ellipse cx="352.7012" cy="55.1328" fill="#E2E2F0" rx="12" ry="12" style="stroke:#181818;stroke-width:0.5;"/></g><g class="participant participant-tail" data-entity-uid="part2" data-qualified-name="WA" id="part2-tail"><text fill="#000000" font-family="sans-serif" font-size="14" lengthAdjust="spacing" textLength="58.6934" x="311.8545" y="686.2139">WebApp</text><path d="M323.7012,693.5156 L323.7012,717.5156 M323.7012,705.5156 L340.7012,705.5156" fill="none" style="stroke:#181818;stroke-width:0.5;"/><ellipse cx="352.7012" cy="705.5156" fill="#E2E2F0" rx="12" ry="12" style="stroke:#181818;stroke-width:0.5;"/></g><g class="participant participant-head" data-entity-uid="part3" data-qualified-name="GW" id="part3-head"><text fill="#000000" font-family="sans-serif" font-size="14" lengthAdjust="spacing" textLength="88.4434" x="539.8901" y="84.1279">API Gateway</text><ellipse cx="587.1118" cy="55.1328" fill="#E2E2F0" rx="12" ry="12" style="stroke:#181818;stroke-width:0.5;"/><polygon fill="#181818" points="583.1118,43.1328,589.1118,38.1328,587.1118,43.1328,589.1118,48.1328,583.1118,43.1328" style="stroke:#181818;stroke-width:1;"/></g><g class="participant participant-tail" data-entity-uid="part3" data-qualified-name="GW" id="part3-tail"><text fill="#000000" font-family="sans-serif" font-size="14" lengthAdjust="spacing" textLength="88.4434" x="539.8901" y="686.2139">API Gateway</text><ellipse cx="587.1118" cy="705.5156" fill="#E2E2F0" rx="12" ry="12" style="stroke:#181818;stroke-width:0.5;"/><polygon fill="#181818" points="583.1118,693.5156,589.1118,688.5156,587.1118,693.5156,589.1118,698.5156,583.1118,693.5156" style="stroke:#181818;stroke-width:1;"/></g><g class="participant participant-head" data-entity-uid="part4" data-qualified-name="CC" id="part4-head"><text fill="#000000" font-family="sans-serif" font-size="14" lengthAdjust="spacing" textLength="118.0498" x="789.7236" y="84.1279">CourseController</text><ellipse cx="851.7485" cy="55.1328" fill="#E2E2F0" rx="12" ry="12" style="stroke:#181818;stroke-width:0.5;"/><polygon fill="#181818" points="847.7485,43.1328,853.7485,38.1328,851.7485,43.1328,853.7485,48.1328,847.7485,43.1328" style="stroke:#181818;stroke-width:1;"/></g><g class="participant participant-tail" data-entity-uid="part4" data-qualified-name="CC" id="part4-tail"><text fill="#000000" font-family="sans-serif" font-size="14" lengthAdjust="spacing" textLength="118.0498" x="789.7236" y="686.2139">CourseController</text><ellipse cx="851.7485" cy="705.5156" fill="#E2E2F0" rx="12" ry="12" style="stroke:#181818;stroke-width:0.5;"/><polygon fill="#181818" points="847.7485,693.5156,853.7485,688.5156,851.7485,693.5156,853.7485,698.5156,847.7485,693.5156" style="stroke:#181818;stroke-width:1;"/></g><g class="participant participant-head" data-entity-uid="part5" data-qualified-name="CA" id="part5-head"><text fill="#000000" font-family="sans-serif" font-size="14" lengthAdjust="spacing" textLength="76.2275" x="1137.7896" y="84.1279">CourseApp</text><ellipse cx="1178.9033" cy="55.1328" fill="#E2E2F0" rx="12" ry="12" style="stroke:#181818;stroke-width:0.5;"/><polygon fill="#181818" points="1174.9033,43.1328,1180.9033,38.1328,1178.9033,43.1328,1180.9033,48.1328,1174.9033,43.1328" style="stroke:#181818;stroke-width:1;"/></g><g class="participant participant-tail" data-entity-uid="part5" data-qualified-name="CA" id="part5-tail"><text fill="#000000" font-family="sans-serif" font-size="14" lengthAdjust="spacing" textLength="76.2275" x="1137.7896" y="686.2139">CourseApp</text><ellipse cx="1178.9033" cy="705.5156" fill="#E2E2F0" rx="12" ry="12" style="stroke:#181818;stroke-width:0.5;"/><polygon fill="#181818" points="1174.9033,693.5156,1180.9033,688.5156,1178.9033,693.5156,1180.9033,698.5156,1174.9033,693.5156" style="stroke:#181818;stroke-width:1;"/></g><g class="participant participant-head" data-entity-uid="part6" data-qualified-name="CDB" id="part6-head"><text fill="#000000" font-family="sans-serif" font-size="14" lengthAdjust="spacing" textLength="69.2617" x="1376.4834" y="84.1279">CourseDB</text><path d="M1396.1143,35.1328 C1396.1143,25.1328 1414.1143,25.1328 1414.1143,25.1328 C1414.1143,25.1328 1432.1143,25.1328 1432.1143,35.1328 L1432.1143,61.1328 C1432.1143,71.1328 1414.1143,71.1328 1414.1143,71.1328 C1414.1143,71.1328 1396.1143,71.1328 1396.1143,61.1328 L1396.1143,35.1328" fill="#E2E2F0" style="stroke:#181818;stroke-width:0.5;"/><path d="M1396.1143,35.1328 C1396.1143,45.1328 1414.1143,45.1328 1414.1143,45.1328 C1414.1143,45.1328 1432.1143,45.1328 1432.1143,35.1328" fill="none" style="stroke:#181818;stroke-width:0.5;"/></g><g class="participant participant-tail" data-entity-uid="part6" data-qualified-name="CDB" id="part6-tail"><text fill="#000000" font-family="sans-serif" font-size="14" lengthAdjust="spacing" textLength="69.2617" x="1376.4834" y="686.2139">CourseDB</text><path d="M1396.1143,699.5156 C1396.1143,689.5156 1414.1143,689.5156 1414.1143,689.5156 C1414.1143,689.5156 1432.1143,689.5156 1432.1143,699.5156 L1432.1143,725.5156 C1432.1143,735.5156 1414.1143,735.5156 1414.1143,735.5156 C1414.1143,735.5156 1396.1143,735.5156 1396.1143,725.5156 L1396.1143,699.5156" fill="#E2E2F0" style="stroke:#181818;stroke-width:0.5;"/><path d="M1396.1143,699.5156 C1396.1143,709.5156 1414.1143,709.5156 1414.1143,709.5156 C1414.1143,709.5156 1432.1143,709.5156 1432.1143,699.5156" fill="none" style="stroke:#181818;stroke-width:0.5;"/></g><g><title>Instructor</title><rect fill="#FFFFFF" height="537.6563" style="stroke:#181818;stroke-width:1;" width="10" x="36.9609" y="118.5625"/></g><g><title>WebApp</title><rect fill="#FFFFFF" height="537.6563" style="stroke:#181818;stroke-width:1;" width="10" x="339.2012" y="118.5625"/></g><g><title>API Gateway</title><rect fill="#FFFFFF" height="449.125" style="stroke:#181818;stroke-width:1;" width="10" x="582.1118" y="162.8281"/></g><g><title>CourseController</title><rect fill="#FFFFFF" height="348.7266" style="stroke:#181818;stroke-width:1;" width="10" x="846.7485" y="234.0938"/></g><g><title>CourseApp</title><rect fill="#FFFFFF" height="290.4609" style="stroke:#181818;stroke-width:1;" width="10" x="1173.9033" y="263.2266"/></g><g><title>CourseDB</title><rect fill="#FFFFFF" height="131.7969" style="stroke:#181818;stroke-width:1;" width="10" x="1409.1143" y="292.3594"/></g><g><title>CourseDB</title><rect fill="#FFFFFF" height="29.1328" style="stroke:#181818;stroke-width:1;" width="10" x="1409.1143" y="453.2891"/></g><g class="message" data-entity-1="part1" data-entity-2="part2" id="msg1"><polygon fill="#181818" points="327.2012,114.5625,337.2012,118.5625,327.2012,122.5625,331.2012,118.5625" style="stroke:#181818;stroke-width:1;"/><line style="stroke:#181818;stroke-width:1;" x1="46.9609" x2="333.2012" y1="118.5625" y2="118.5625"/><text fill="#000000" font-family="sans-serif" font-size="13" font-weight="bold" lengthAdjust="spacing" textLength="9.0454" x="53.9609" y="113.4966">1</text><text fill="#000000" font-family="sans-serif" font-size="13" lengthAdjust="spacing" textLength="166.7847" x="67.0063" y="113.4966">Navigate to "My Courses"</text></g><g class="message" data-entity-1="part2" data-entity-2="part3" id="msg2"><polygon fill="#181818" points="570.1118,158.8281,580.1118,162.8281,570.1118,166.8281,574.1118,162.8281" style="stroke:#181818;stroke-width:1;"/><line style="stroke:#181818;stroke-width:1;" x1="349.2012" x2="576.1118" y1="162.8281" y2="162.8281"/><text fill="#000000" font-family="sans-serif" font-size="13" font-weight="bold" lengthAdjust="spacing" textLength="9.0454" x="356.2012" y="150.1958">2</text><text fill="#000000" font-family="sans-serif" font-size="13" lengthAdjust="spacing" textLength="184.0122" x="369.2466" y="142.6294">GET /instructors/me/courses</text><text fill="#000000" font-family="sans-serif" font-size="13" lengthAdjust="spacing" textLength="200.8652" x="369.2466" y="157.7622">?page=1&amp;limit=10&amp;status=all</text></g><g class="message" data-entity-1="part3" data-entity-2="part3" id="msg3"><line style="stroke:#181818;stroke-width:1;" x1="592.1118" x2="634.1118" y1="191.9609" y2="191.9609"/><line style="stroke:#181818;stroke-width:1;" x1="634.1118" x2="634.1118" y1="191.9609" y2="204.9609"/><line style="stroke:#181818;stroke-width:1;" x1="593.1118" x2="634.1118" y1="204.9609" y2="204.9609"/><polygon fill="#181818" points="603.1118,200.9609,593.1118,204.9609,603.1118,208.9609,599.1118,204.9609" style="stroke:#181818;stroke-width:1;"/><text fill="#000000" font-family="sans-serif" font-size="13" font-weight="bold" lengthAdjust="spacing" textLength="9.0454" x="599.1118" y="186.895">3</text><text fill="#000000" font-family="sans-serif" font-size="13" lengthAdjust="spacing" textLength="217.5913" x="612.1572" y="186.895">Validate JWT, extract instructorID</text></g><g class="message" data-entity-1="part3" data-entity-2="part4" id="msg4"><polygon fill="#181818" points="834.7485,230.0938,844.7485,234.0938,834.7485,238.0938,838.7485,234.0938" style="stroke:#181818;stroke-width:1;"/><line style="stroke:#181818;stroke-width:1;" x1="592.1118" x2="840.7485" y1="234.0938" y2="234.0938"/><text fill="#000000" font-family="sans-serif" font-size="13" font-weight="bold" lengthAdjust="spacing" textLength="9.0454" x="599.1118" y="229.0278">4</text><text fill="#000000" font-family="sans-serif" font-size="13" lengthAdjust="spacing" textLength="106.8057" x="612.1572" y="229.0278">Forward request</text></g><g class="message" data-entity-1="part4" data-entity-2="part5" id="msg5"><polygon fill="#181818" points="1161.9033,259.2266,1171.9033,263.2266,1161.9033,267.2266,1165.9033,263.2266" style="stroke:#181818;stroke-width:1;"/><line style="stroke:#181818;stroke-width:1;" x1="856.7485" x2="1167.9033" y1="263.2266" y2="263.2266"/><text fill="#000000" font-family="sans-serif" font-size="13" font-weight="bold" lengthAdjust="spacing" textLength="9.0454" x="863.7485" y="258.1606">5</text><text fill="#000000" font-family="sans-serif" font-size="13" lengthAdjust="spacing" textLength="270.5117" x="876.7939" y="258.1606">GetInstructorCourses(instructorID, filters)</text></g><g class="message" data-entity-1="part5" data-entity-2="part6" id="msg6"><polygon fill="#181818" points="1397.1143,288.3594,1407.1143,292.3594,1397.1143,296.3594,1401.1143,292.3594" style="stroke:#181818;stroke-width:1;"/><line style="stroke:#181818;stroke-width:1;" x1="1183.9033" x2="1403.1143" y1="292.3594" y2="292.3594"/><text fill="#000000" font-family="sans-serif" font-size="13" font-weight="bold" lengthAdjust="spacing" textLength="9.0454" x="1190.9033" y="287.2935">6</text><text fill="#000000" font-family="sans-serif" font-size="13" lengthAdjust="spacing" textLength="171.1963" x="1203.9487" y="287.2935">Query instructor's courses</text></g><g class="message" data-entity-1="part6" data-entity-2="part6" id="msg7"><line style="stroke:#181818;stroke-width:1;" x1="1419.1143" x2="1461.1143" y1="382.0234" y2="382.0234"/><line style="stroke:#181818;stroke-width:1;" x1="1461.1143" x2="1461.1143" y1="382.0234" y2="395.0234"/><line style="stroke:#181818;stroke-width:1;" x1="1420.1143" x2="1461.1143" y1="395.0234" y2="395.0234"/><polygon fill="#181818" points="1430.1143,391.0234,1420.1143,395.0234,1430.1143,399.0234,1426.1143,395.0234" style="stroke:#181818;stroke-width:1;"/><text fill="#000000" font-family="sans-serif" font-size="13" font-weight="bold" lengthAdjust="spacing" textLength="9.0454" x="1426.1143" y="346.6919">7</text><text fill="#000000" font-family="sans-serif" font-size="13" lengthAdjust="spacing" textLength="156.0254" x="1439.1597" y="316.4263">SELECT * FROM courses</text><text fill="#000000" font-family="sans-serif" font-size="13" lengthAdjust="spacing" textLength="159.4912" x="1439.1597" y="331.5591">WHERE instructor_id = ?</text><text fill="#000000" font-family="sans-serif" font-size="13" lengthAdjust="spacing" textLength="155.6064" x="1439.1597" y="346.6919">AND deleted_at IS NULL</text><text fill="#000000" font-family="sans-serif" font-size="13" lengthAdjust="spacing" textLength="180.6987" x="1439.1597" y="361.8247">ORDER BY created_at DESC</text><text fill="#000000" font-family="sans-serif" font-size="13" lengthAdjust="spacing" textLength="109.8589" x="1439.1597" y="376.9575">LIMIT ? OFFSET ?</text></g><g class="message" data-entity-1="part6" data-entity-2="part5" id="msg8"><polygon fill="#181818" points="1194.9033,420.1563,1184.9033,424.1563,1194.9033,428.1563,1190.9033,424.1563" style="stroke:#181818;stroke-width:1;"/><line style="stroke:#181818;stroke-width:1;stroke-dasharray:2,2;" x1="1188.9033" x2="1413.1143" y1="424.1563" y2="424.1563"/><text fill="#000000" font-family="sans-serif" font-size="13" font-weight="bold" lengthAdjust="spacing" textLength="9.0454" x="1200.9033" y="419.0903">8</text><text fill="#000000" font-family="sans-serif" font-size="13" lengthAdjust="spacing" textLength="75.3848" x="1213.9487" y="419.0903">Courses list</text></g><g class="message" data-entity-1="part5" data-entity-2="part6" id="msg9"><polygon fill="#181818" points="1397.1143,449.2891,1407.1143,453.2891,1397.1143,457.2891,1401.1143,453.2891" style="stroke:#181818;stroke-width:1;"/><line style="stroke:#181818;stroke-width:1;" x1="1183.9033" x2="1403.1143" y1="453.2891" y2="453.2891"/><text fill="#000000" font-family="sans-serif" font-size="13" font-weight="bold" lengthAdjust="spacing" textLength="9.0454" x="1190.9033" y="448.2231">9</text><text fill="#000000" font-family="sans-serif" font-size="13" lengthAdjust="spacing" textLength="193.1655" x="1203.9487" y="448.2231">Get total count for pagination</text></g><g class="message" data-entity-1="part6" data-entity-2="part5" id="msg10"><polygon fill="#181818" points="1194.9033,478.4219,1184.9033,482.4219,1194.9033,486.4219,1190.9033,482.4219" style="stroke:#181818;stroke-width:1;"/><line style="stroke:#181818;stroke-width:1;stroke-dasharray:2,2;" x1="1188.9033" x2="1413.1143" y1="482.4219" y2="482.4219"/><text fill="#000000" font-family="sans-serif" font-size="13" font-weight="bold" lengthAdjust="spacing" textLength="18.0908" x="1200.9033" y="477.356">10</text><text fill="#000000" font-family="sans-serif" font-size="13" lengthAdjust="spacing" textLength="73.3789" x="1222.9941" y="477.356">Total count</text></g><g class="message" data-entity-1="part5" data-entity-2="part5" id="msg11"><line style="stroke:#181818;stroke-width:1;" x1="1183.9033" x2="1225.9033" y1="511.5547" y2="511.5547"/><line style="stroke:#181818;stroke-width:1;" x1="1225.9033" x2="1225.9033" y1="511.5547" y2="524.5547"/><line style="stroke:#181818;stroke-width:1;" x1="1184.9033" x2="1225.9033" y1="524.5547" y2="524.5547"/><polygon fill="#181818" points="1194.9033,520.5547,1184.9033,524.5547,1194.9033,528.5547,1190.9033,524.5547" style="stroke:#181818;stroke-width:1;"/><text fill="#000000" font-family="sans-serif" font-size="13" font-weight="bold" lengthAdjust="spacing" textLength="18.0908" x="1190.9033" y="506.4888">11</text><text fill="#000000" font-family="sans-serif" font-size="13" lengthAdjust="spacing" textLength="145.5454" x="1212.9941" y="506.4888">Map to CourseDTO list</text></g><g class="message" data-entity-1="part5" data-entity-2="part4" id="msg12"><polygon fill="#181818" points="867.7485,549.6875,857.7485,553.6875,867.7485,557.6875,863.7485,553.6875" style="stroke:#181818;stroke-width:1;"/><line style="stroke:#181818;stroke-width:1;stroke-dasharray:2,2;" x1="861.7485" x2="1177.9033" y1="553.6875" y2="553.6875"/><text fill="#000000" font-family="sans-serif" font-size="13" font-weight="bold" lengthAdjust="spacing" textLength="18.0908" x="873.7485" y="548.6216">12</text><text fill="#000000" font-family="sans-serif" font-size="13" lengthAdjust="spacing" textLength="271.064" x="895.8394" y="548.6216">{courses[], totalCount, page, totalPages}</text></g><g class="message" data-entity-1="part4" data-entity-2="part3" id="msg13"><polygon fill="#181818" points="603.1118,578.8203,593.1118,582.8203,603.1118,586.8203,599.1118,582.8203" style="stroke:#181818;stroke-width:1;"/><line style="stroke:#181818;stroke-width:1;stroke-dasharray:2,2;" x1="597.1118" x2="850.7485" y1="582.8203" y2="582.8203"/><text fill="#000000" font-family="sans-serif" font-size="13" font-weight="bold" lengthAdjust="spacing" textLength="18.0908" x="609.1118" y="577.7544">13</text><text fill="#000000" font-family="sans-serif" font-size="13" lengthAdjust="spacing" textLength="133.7769" x="631.2026" y="577.7544">200 OK with courses</text></g><g class="message" data-entity-1="part3" data-entity-2="part2" id="msg14"><polygon fill="#181818" points="360.2012,607.9531,350.2012,611.9531,360.2012,615.9531,356.2012,611.9531" style="stroke:#181818;stroke-width:1;"/><line style="stroke:#181818;stroke-width:1;stroke-dasharray:2,2;" x1="354.2012" x2="586.1118" y1="611.9531" y2="611.9531"/><text fill="#000000" font-family="sans-serif" font-size="13" font-weight="bold" lengthAdjust="spacing" textLength="18.0908" x="366.2012" y="606.8872">14</text><text fill="#000000" font-family="sans-serif" font-size="13" lengthAdjust="spacing" textLength="152.9976" x="388.292" y="606.8872">Paginated courses data</text></g><g class="message" data-entity-1="part2" data-entity-2="part1" id="msg15"><polygon fill="#181818" points="52.9609,652.2188,42.9609,656.2188,52.9609,660.2188,48.9609,656.2188" style="stroke:#181818;stroke-width:1;"/><line style="stroke:#181818;stroke-width:1;" x1="46.9609" x2="343.2012" y1="656.2188" y2="656.2188"/><text fill="#000000" font-family="sans-serif" font-size="13" font-weight="bold" lengthAdjust="spacing" textLength="18.0908" x="58.9609" y="643.5864">15</text><text fill="#000000" font-family="sans-serif" font-size="13" lengthAdjust="spacing" textLength="246.1494" x="81.0518" y="636.02">Display course list with status badges</text><text fill="#000000" font-family="sans-serif" font-size="13" lengthAdjust="spacing" textLength="238.5005" x="81.0518" y="651.1528">(draft, pending, published, archived)</text></g><?plantuml-src TLHTRzem57tFhxXYKjTELALxH6CeE85busl05bLZgYxO1Ml6eOu3HTF--wwJbAITze3asESUdtlkCPZPH6UxbJ2Ub_wIUey6Tz1BdgR8kTGRk6rv7gvjOY3IgJLPliGK8c-LP9gZEK4iLlv-xpPZtwFj9sZuqmW6QCKHJmruCvIRhUsfJ7W0wqHRawXN4AeTn9xG7AYyv619Pb81Ss4ESYsUQUw4KicnHbJ0MF6bH2wEiNy0fKBcqmb7Yoiaxk8ewEKdGQyI4C7rH-gc3MCyo0sf19j0OtGgAzA6yqGUt45KBLtxiUzA1t4R1k42RkJPjFHc9sxMHVbIT_Uu4PtR2oLtqdPkMnUfHPkb7LIguYDB1l4ptNTKahlTp_6Y2UB96i91nHy59PYnDlGJSqJ3mOZ7JAIseYHdFCPo67Kt4BQQQjdQPPso2GzIMM7Igne5TSdoBicoDdpD16MWAdgRGjbbhOIyfT-vPXuEGxQ0Tz2VJKPmDYN-5Cx26jMzvD21xbBxum2uKC8AVeyMeZcClms7IpsP1U4CUdUmDWBBmo2SiwKUHgDe0LsOzFjpcaFNAVvmVLrSNtOAIf8rNBoGMM-DxA6vMrHEehRmGD6dkKcDLYRwLNir_aLLypzwCd-4UvUgCeEBII77JISd8iJlqfaVFvk53kOecqw3A7Ucj4p_lBZ5Tpd8AIW8xrijc7o1exJRyrZgOEO2wy0kOjEYDy6VeVbBgUCfaMN2epO4CjqhF9NWN7vnKP5bM27VkB5USeCFJZOzB_fBeKMs8l1My2QWMM_bGV2h-YtqZcfVaVSN?></g></svg>