<svg xmlns="http://www.w3.org/2000/svg" xmlns:xlink="http://www.w3.org/1999/xlink" contentStyleType="text/css" data-diagram-type="DESCRIPTION" height="1257px" preserveAspectRatio="none" style="width:1715px;height:1257px;background:#FFFFFF;" version="1.1" viewBox="0 0 1715 1257" width="1715px" zoomAndPan="magnify"><?plantuml 1.2026.6?><defs/><g><!--cluster Egolia E-Learning System--><g class="cluster" data-qualified-name="Egolia E-Learning System" data-source-line="10" id="ent0002"><rect fill="none" height="725" rx="2.5" ry="2.5" style="stroke:#181818;stroke-width:1;" width="1580.59" x="120.92" y="436.75"/><text fill="#000000" font-family="sans-serif" font-size="14" font-weight="700" lengthAdjust="spacing" textLength="201.209" x="810.6105" y="451.7451">Egolia E-Learning System</text></g><!--cluster Authentication (Authentik)--><g class="cluster" data-qualified-name="Egolia E-Learning System.Authentication .Authentik." data-source-line="12" id="ent0003"><rect fill="none" height="150" rx="2.5" ry="2.5" style="stroke:#181818;stroke-width:1;" width="228" x="1449.51" y="479.75"/><text fill="#000000" font-family="sans-serif" font-size="14" font-weight="700" lengthAdjust="spacing" textLength="212.6318" x="1457.1941" y="494.7451">Authentication (Authentik)</text></g><!--cluster Course Management--><g class="cluster" data-qualified-name="Egolia E-Learning System.Course Management" data-source-line="17" id="ent0006"><rect fill="none" height="231" rx="2.5" ry="2.5" style="stroke:#181818;stroke-width:1;" width="597.39" x="1073.48" y="739.75"/><text fill="#000000" font-family="sans-serif" font-size="14" font-weight="700" lengthAdjust="spacing" textLength="162.5176" x="1290.9162" y="754.7451">Course Management</text></g><!--cluster Section Management--><g class="cluster" data-qualified-name="Egolia E-Learning System.Section Management" data-source-line="24" id="ent0011"><rect fill="none" height="160" rx="2.5" ry="2.5" style="stroke:#181818;stroke-width:1;" width="452.02" x="524.46" y="977.75"/><text fill="#000000" font-family="sans-serif" font-size="14" font-weight="700" lengthAdjust="spacing" textLength="166.8789" x="667.0305" y="992.7451">Section Management</text></g><!--cluster Lesson Management--><g class="cluster" data-qualified-name="Egolia E-Learning System.Lesson Management" data-source-line="30" id="ent0015"><rect fill="none" height="222" rx="2.5" ry="2.5" style="stroke:#181818;stroke-width:1;" width="533.8" x="158.51" y="731.75"/><text fill="#000000" font-family="sans-serif" font-size="14" font-weight="700" lengthAdjust="spacing" textLength="162.5928" x="344.1136" y="746.7451">Lesson Management</text></g><!--cluster Test Management--><g class="cluster" data-qualified-name="Egolia E-Learning System.Test Management" data-source-line="37" id="ent0020"><rect fill="none" height="81" rx="2.5" ry="2.5" style="stroke:#181818;stroke-width:1;" width="157" x="530.92" y="552.75"/><text fill="#000000" font-family="sans-serif" font-size="14" font-weight="700" lengthAdjust="spacing" textLength="141.9961" x="538.422" y="567.7451">Test Management</text></g><!--cluster Learner Features (inherited)--><g class="cluster" data-qualified-name="Egolia E-Learning System.Learner Features .inherited." data-source-line="41" id="ent0022"><rect fill="none" height="228" rx="2.5" ry="2.5" style="stroke:#181818;stroke-width:1;" width="241" x="144.92" y="479.75"/><text fill="#000000" font-family="sans-serif" font-size="14" font-weight="700" lengthAdjust="spacing" textLength="225.7158" x="152.5621" y="494.7451">Learner Features (inherited)</text></g><!--entity UC_LOGIN--><g class="entity" data-qualified-name="Egolia E-Learning System.Authentication .Authentik..UC_LOGIN" data-source-line="13" id="ent0004"><ellipse cx="1563.0104" cy="597.7501" fill="#FFFFE0" rx="67.3504" ry="15.8701" style="stroke:#2F4F4F;stroke-width:0.5;"/><text fill="#000000" font-family="sans-serif" font-size="14" lengthAdjust="spacing" textLength="99.6201" x="1513.2003" y="602.3985">Login / Sign In</text></g><!--entity UC_PROFILE--><g class="entity" data-qualified-name="Egolia E-Learning System.Authentication .Authentik..UC_PROFILE" data-source-line="14" id="ent0005"><ellipse cx="1563.0123" cy="530.7505" fill="#FFFFE0" rx="67.2023" ry="15.8405" style="stroke:#2F4F4F;stroke-width:0.5;"/><text fill="#000000" font-family="sans-serif" font-size="14" lengthAdjust="spacing" textLength="99.2373" x="1513.3937" y="535.3989">Update Profile</text></g><!--entity UC_CREATE--><g class="entity" data-qualified-name="Egolia E-Learning System.Course Management.UC_CREATE" data-source-line="18" id="ent0007"><ellipse cx="1190.9969" cy="938.7514" fill="#FFFFE0" rx="67.5569" ry="15.9114" style="stroke:#2F4F4F;stroke-width:0.5;"/><text fill="#000000" font-family="sans-serif" font-size="14" lengthAdjust="spacing" textLength="100.1533" x="1140.9203" y="943.3998">Create Course</text></g><!--entity UC_EDIT--><g class="entity" data-qualified-name="Egolia E-Learning System.Course Management.UC_EDIT" data-source-line="19" id="ent0008"><ellipse cx="1191.004" cy="797.7528" fill="#FFFFE0" rx="101.514" ry="22.7028" style="stroke:#2F4F4F;stroke-width:0.5;"/><text fill="#000000" font-family="sans-serif" font-size="14" lengthAdjust="spacing" textLength="179.3887" x="1101.3096" y="802.4012">Change Basic Course Info</text></g><!--entity UC_DELETE--><g class="entity" data-qualified-name="Egolia E-Learning System.Course Management.UC_DELETE" data-source-line="20" id="ent0009"><ellipse cx="1190.9967" cy="871.7473" fill="#FFFFE0" rx="67.2367" ry="15.8473" style="stroke:#2F4F4F;stroke-width:0.5;"/><text fill="#000000" font-family="sans-serif" font-size="14" lengthAdjust="spacing" textLength="99.3262" x="1141.3336" y="876.3958">Delete Course</text></g><!--entity UC_MY_COURSES--><g class="entity" data-qualified-name="Egolia E-Learning System.Course Management.UC_MY_COURSES" data-source-line="21" id="ent0010"><ellipse cx="1563.0124" cy="871.7525" fill="#FFFFE0" rx="91.8624" ry="20.7725" style="stroke:#2F4F4F;stroke-width:0.5;"/><text fill="#000000" font-family="sans-serif" font-size="14" lengthAdjust="spacing" textLength="157.9443" x="1484.0402" y="876.4009">Get Instructor Courses</text></g><!--entity UC_CREATE_SEC--><g class="entity" data-qualified-name="Egolia E-Learning System.Section Management.UC_CREATE_SEC" data-source-line="25" id="ent0012"><ellipse cx="891.7013" cy="1028.7463" fill="#FFFFE0" rx="68.7813" ry="16.1563" style="stroke:#2F4F4F;stroke-width:0.5;"/><text fill="#000000" font-family="sans-serif" font-size="14" lengthAdjust="spacing" textLength="103.291" x="840.0558" y="1033.3947">Create Section</text></g><!--entity UC_MOVE_SEC--><g class="entity" data-qualified-name="Egolia E-Learning System.Section Management.UC_MOVE_SEC" data-source-line="26" id="ent0013"><ellipse cx="608.9236" cy="1028.7507" fill="#FFFFE0" rx="65.2036" ry="15.4407" style="stroke:#2F4F4F;stroke-width:0.5;"/><text fill="#000000" font-family="sans-serif" font-size="14" lengthAdjust="spacing" textLength="94.0078" x="561.9197" y="1033.3992">Move Section</text></g><!--entity UC_DEL_SEC--><g class="entity" data-qualified-name="Egolia E-Learning System.Section Management.UC_DEL_SEC" data-source-line="27" id="ent0014"><ellipse cx="608.9171" cy="1095.7514" fill="#FFFFE0" rx="68.4571" ry="16.0914" style="stroke:#2F4F4F;stroke-width:0.5;"/><text fill="#000000" font-family="sans-serif" font-size="14" lengthAdjust="spacing" textLength="102.4639" x="557.6852" y="1100.3999">Delete Section</text></g><!--entity UC_CREATE_LES--><g class="entity" data-qualified-name="Egolia E-Learning System.Lesson Management.UC_CREATE_LES" data-source-line="31" id="ent0016"><ellipse cx="608.9174" cy="845.7475" fill="#FFFFE0" rx="67.3874" ry="15.8775" style="stroke:#2F4F4F;stroke-width:0.5;"/><text fill="#000000" font-family="sans-serif" font-size="14" lengthAdjust="spacing" textLength="99.7158" x="559.0595" y="850.3959">Create Lesson</text></g><!--entity UC_EDIT_LES--><g class="entity" data-qualified-name="Egolia E-Learning System.Lesson Management.UC_EDIT_LES" data-source-line="32" id="ent0017"><ellipse cx="264.9192" cy="922.7536" fill="#FFFFE0" rx="59.5692" ry="14.5236" style="stroke:#2F4F4F;stroke-width:0.5;"/><text fill="#000000" font-family="sans-serif" font-size="14" lengthAdjust="spacing" textLength="80.001" x="224.9187" y="927.4021">Edit Lesson</text></g><!--entity UC_MOVE_LES--><g class="entity" data-qualified-name="Egolia E-Learning System.Lesson Management.UC_MOVE_LES" data-source-line="33" id="ent0018"><ellipse cx="264.9241" cy="857.7528" fill="#FFFFE0" rx="63.8641" ry="15.1728" style="stroke:#2F4F4F;stroke-width:0.5;"/><text fill="#000000" font-family="sans-serif" font-size="14" lengthAdjust="spacing" textLength="90.4326" x="219.7078" y="862.4013">Move Lesson</text></g><!--entity UC_UPLOAD--><g class="entity" data-qualified-name="Egolia E-Learning System.Lesson Management.UC_UPLOAD" data-source-line="34" id="ent0019"><ellipse cx="264.9176" cy="786.7515" fill="#FFFFE0" rx="90.4076" ry="20.4815" style="stroke:#2F4F4F;stroke-width:0.5;"/><text fill="#000000" font-family="sans-serif" font-size="14" lengthAdjust="spacing" textLength="154.6631" x="187.5861" y="791.4">Get Upload Video URL</text></g><!--entity UC_CREATE_TEST--><g class="entity" data-qualified-name="Egolia E-Learning System.Test Management.UC_CREATE_TEST" data-source-line="38" id="ent0021"><ellipse cx="608.9245" cy="602.7536" fill="#FFFFE0" rx="60.4345" ry="14.5236" style="stroke:#2F4F4F;stroke-width:0.5;"/><text fill="#000000" font-family="sans-serif" font-size="14" lengthAdjust="spacing" textLength="81.2246" x="568.3122" y="607.4021">Create Test</text></g><!--entity UC_BROWSE--><g class="entity" data-qualified-name="Egolia E-Learning System.Learner Features .inherited..UC_BROWSE" data-source-line="42" id="ent0023"><ellipse cx="264.9239" cy="674.7528" fill="#FFFFE0" rx="72.2139" ry="16.8428" style="stroke:#2F4F4F;stroke-width:0.5;"/><text fill="#000000" font-family="sans-serif" font-size="14" lengthAdjust="spacing" textLength="111.9043" x="208.9718" y="679.4012">Browse Courses</text></g><!--entity UC_ENROLL--><g class="entity" data-qualified-name="Egolia E-Learning System.Learner Features .inherited..UC_ENROLL" data-source-line="43" id="ent0024"><ellipse cx="264.9189" cy="529.7458" fill="#FFFFE0" rx="64.8789" ry="15.3758" style="stroke:#2F4F4F;stroke-width:0.5;"/><text fill="#000000" font-family="sans-serif" font-size="14" lengthAdjust="spacing" textLength="93.1465" x="218.3456" y="534.3942">Enroll Course</text></g><!--entity UC_LEARN--><g class="entity" data-qualified-name="Egolia E-Learning System.Learner Features .inherited..UC_LEARN" data-source-line="44" id="ent0025"><ellipse cx="264.9201" cy="601.75" fill="#FFFFE0" rx="94.2001" ry="21.24" style="stroke:#2F4F4F;stroke-width:0.5;"/><text fill="#000000" font-family="sans-serif" font-size="14" lengthAdjust="spacing" textLength="163.1875" x="183.3264" y="606.3985">Learn &amp; Track Progress</text></g><!--entity I--><g class="entity" data-qualified-name="I" data-source-line="8" id="ent0001"><ellipse cx="39.9609" cy="381.1" fill="#F1F1F1" rx="8" ry="8" style="stroke:#181818;stroke-width:0.5;"/><path d="M39.9609,389.1 L39.9609,416.1 M26.9609,397.1 L52.9609,397.1 M39.9609,416.1 L26.9609,431.1 M39.9609,416.1 L52.9609,431.1" fill="none" style="stroke:#181818;stroke-width:0.5;"/><text fill="#000000" font-family="sans-serif" font-size="14" lengthAdjust="spacing" textLength="67.9219" x="6" y="445.5951">Instructor</text></g><!--link UC_CREATE to UC_LOGIN--><g class="link" data-entity-1="ent0007" data-entity-2="ent0004" data-link-type="dependency" data-source-line="48" id="lnk26"><path d="M1248.22,929.93 C1264.35,924.92 1280.74,917.07 1292.51,904.75 C1325.75,869.97 1296.38,841.14 1322.51,800.75 C1379.66,712.43 1482.4654,644.4605 1531.7254,615.0905" fill="none" id="UC_CREATE-to-UC_LOGIN" style="stroke:#181818;stroke-width:1;stroke-dasharray:7,7;"/><polygon fill="#181818" points="1536.02,612.53,1526.2413,613.7033,1531.7254,615.0905,1530.3382,620.5747,1536.02,612.53" style="stroke:#181818;stroke-width:1;stroke-linejoin:miter;stroke-miterlimit:10;"/><text fill="#000000" font-family="sans-serif" font-size="13" lengthAdjust="spacing" textLength="63.0068" x="1323.51" y="724.6269">&#171;include&#187;</text></g><!--link UC_EDIT to UC_MY_COURSES--><g class="link" data-entity-1="ent0008" data-entity-2="ent0010" data-link-type="dependency" data-source-line="49" id="lnk27"><path d="M1267.77,812.9 C1333.84,826.12 1423.9672,844.1391 1487.9972,856.9491" fill="none" id="UC_EDIT-to-UC_MY_COURSES" style="stroke:#181818;stroke-width:1;stroke-dasharray:7,7;"/><polygon fill="#181818" points="1492.9,857.93,1484.8596,852.2421,1487.9972,856.9491,1483.2902,860.0867,1492.9,857.93" style="stroke:#181818;stroke-width:1;stroke-linejoin:miter;stroke-miterlimit:10;"/><text fill="#000000" font-family="sans-serif" font-size="13" lengthAdjust="spacing" textLength="63.0068" x="1323.51" y="822.0169">&#171;include&#187;</text></g><!--link UC_DELETE to UC_MY_COURSES--><g class="link" data-entity-1="ent0009" data-entity-2="ent0010" data-link-type="dependency" data-source-line="50" id="lnk28"><path d="M1258.58,871.75 C1317.88,871.75 1400.18,871.75 1465.93,871.75" fill="none" id="UC_DELETE-to-UC_MY_COURSES" style="stroke:#181818;stroke-width:1;stroke-dasharray:7,7;"/><polygon fill="#181818" points="1470.93,871.75,1461.93,867.75,1465.93,871.75,1461.93,875.75,1470.93,871.75" style="stroke:#181818;stroke-width:1;stroke-linejoin:miter;stroke-miterlimit:10;"/><text fill="#000000" font-family="sans-serif" font-size="13" lengthAdjust="spacing" textLength="63.0068" x="1323.51" y="867.8169">&#171;include&#187;</text></g><!--link UC_CREATE_SEC to UC_CREATE--><g class="link" data-entity-1="ent0012" data-entity-2="ent0007" data-link-type="dependency" data-source-line="51" id="lnk29"><path d="M935.3,1015.86 C992.14,998.65 1087.3446,969.829 1143.6546,952.779" fill="none" id="UC_CREATE_SEC-to-UC_CREATE" style="stroke:#181818;stroke-width:1;stroke-dasharray:7,7;"/><polygon fill="#181818" points="1148.44,951.33,1138.667,950.1098,1143.6546,952.779,1140.9854,957.7665,1148.44,951.33" style="stroke:#181818;stroke-width:1;stroke-linejoin:miter;stroke-miterlimit:10;"/><text fill="#000000" font-family="sans-serif" font-size="13" lengthAdjust="spacing" textLength="63.0068" x="993.48" y="977.1169">&#171;include&#187;</text></g><!--link UC_CREATE_LES to UC_CREATE_SEC--><g class="link" data-entity-1="ent0016" data-entity-2="ent0012" data-link-type="dependency" data-source-line="52" id="lnk30"><path d="M632.9,860.73 C685.42,894.96 809.621,975.9101 862.821,1010.5801" fill="none" id="UC_CREATE_LES-to-UC_CREATE_SEC" style="stroke:#181818;stroke-width:1;stroke-dasharray:7,7;"/><polygon fill="#181818" points="867.01,1013.31,861.6538,1005.045,862.821,1010.5801,857.2859,1011.7473,867.01,1013.31" style="stroke:#181818;stroke-width:1;stroke-linejoin:miter;stroke-miterlimit:10;"/><text fill="#000000" font-family="sans-serif" font-size="13" lengthAdjust="spacing" textLength="63.0068" x="728.92" y="922.3569">&#171;include&#187;</text></g><!--link UC_CREATE_TEST to UC_CREATE_SEC--><g class="link" data-entity-1="ent0021" data-entity-2="ent0012" data-link-type="dependency" data-source-line="53" id="lnk31"><path d="M619.59,617.41 C662.4,682.37 832.0884,939.8252 877.1384,1008.1752" fill="none" id="UC_CREATE_TEST-to-UC_CREATE_SEC" style="stroke:#181818;stroke-width:1;stroke-dasharray:7,7;"/><polygon fill="#181818" points="879.89,1012.35,878.2769,1002.6341,877.1384,1008.1752,871.5973,1007.0367,879.89,1012.35" style="stroke:#181818;stroke-width:1;stroke-linejoin:miter;stroke-miterlimit:10;"/><text fill="#000000" font-family="sans-serif" font-size="13" lengthAdjust="spacing" textLength="63.0068" x="728.92" y="786.3069">&#171;include&#187;</text></g><!--link UC_UPLOAD to UC_CREATE_LES--><g class="link" data-entity-1="ent0019" data-entity-2="ent0016" data-link-type="dependency" data-source-line="54" id="lnk32"><path d="M338.03,799.19 C402.41,810.3 490.3527,825.4706 548.6527,835.5206" fill="none" id="UC_UPLOAD-to-UC_CREATE_LES" style="stroke:#181818;stroke-width:1;stroke-dasharray:7,7;"/><polygon fill="#181818" points="553.58,836.37,545.3903,830.8992,548.6527,835.5206,544.0313,838.783,553.58,836.37" style="stroke:#181818;stroke-width:1;stroke-linejoin:miter;stroke-miterlimit:10;"/><text fill="#000000" font-family="sans-serif" font-size="13" lengthAdjust="spacing" textLength="63.0068" x="426.92" y="810.5469">&#171;include&#187;</text></g><!--link UC_MOVE_SEC to UC_CREATE_SEC--><g class="link" data-entity-1="ent0013" data-entity-2="ent0012" data-link-type="dependency" data-source-line="57" id="lnk33"><path d="M674.34,1028.75 C718.7,1028.75 772.55,1028.75 817.67,1028.75" fill="none" id="UC_MOVE_SEC-to-UC_CREATE_SEC" style="stroke:#181818;stroke-width:1;stroke-dasharray:7,7;"/><polygon fill="#181818" points="822.67,1028.75,813.67,1024.75,817.67,1028.75,813.67,1032.75,822.67,1028.75" style="stroke:#181818;stroke-width:1;stroke-linejoin:miter;stroke-miterlimit:10;"/><text fill="#000000" font-family="sans-serif" font-size="13" lengthAdjust="spacing" textLength="61.1851" x="729.92" y="1024.8169">&#171;extend&#187;</text></g><!--link UC_DEL_SEC to UC_CREATE_SEC--><g class="link" data-entity-1="ent0014" data-entity-2="ent0012" data-link-type="dependency" data-source-line="58" id="lnk34"><path d="M659.71,1084.67 C696.55,1076.39 747.94,1064.66 792.92,1053.75 C809.78,1049.66 823.3778,1046.2462 839.6578,1042.0562" fill="none" id="UC_DEL_SEC-to-UC_CREATE_SEC" style="stroke:#181818;stroke-width:1;stroke-dasharray:7,7;"/><polygon fill="#181818" points="844.5,1040.81,834.7871,1039.1795,839.6578,1042.0562,836.781,1046.927,844.5,1040.81" style="stroke:#181818;stroke-width:1;stroke-linejoin:miter;stroke-miterlimit:10;"/><text fill="#000000" font-family="sans-serif" font-size="13" lengthAdjust="spacing" textLength="61.1851" x="729.92" y="1049.8169">&#171;extend&#187;</text></g><!--link UC_EDIT_LES to UC_CREATE_LES--><g class="link" data-entity-1="ent0017" data-entity-2="ent0016" data-link-type="dependency" data-source-line="59" id="lnk35"><path d="M313.07,913.93 C358.71,905.19 429.78,891.09 490.92,876.75 C515.27,871.04 537.4352,865.2519 559.3552,859.2919" fill="none" id="UC_EDIT_LES-to-UC_CREATE_LES" style="stroke:#181818;stroke-width:1;stroke-dasharray:7,7;"/><polygon fill="#181818" points="564.18,857.98,554.4458,856.4815,559.3552,859.2919,556.5448,864.2012,564.18,857.98" style="stroke:#181818;stroke-width:1;stroke-linejoin:miter;stroke-miterlimit:10;"/><text fill="#000000" font-family="sans-serif" font-size="13" lengthAdjust="spacing" textLength="61.1851" x="427.92" y="872.8169">&#171;extend&#187;</text></g><!--link UC_MOVE_LES to UC_CREATE_LES--><g class="link" data-entity-1="ent0018" data-entity-2="ent0016" data-link-type="dependency" data-source-line="60" id="lnk36"><path d="M328.25,855.56 C388.75,853.44 475.2331,850.4049 536.9431,848.2449" fill="none" id="UC_MOVE_LES-to-UC_CREATE_LES" style="stroke:#181818;stroke-width:1;stroke-dasharray:7,7;"/><polygon fill="#181818" points="541.94,848.07,532.8056,844.3873,536.9431,848.2449,533.0854,852.3824,541.94,848.07" style="stroke:#181818;stroke-width:1;stroke-linejoin:miter;stroke-miterlimit:10;"/><text fill="#000000" font-family="sans-serif" font-size="13" lengthAdjust="spacing" textLength="61.1851" x="427.92" y="846.0369">&#171;extend&#187;</text></g><!--link I to UC_LOGIN--><g class="link" data-entity-1="ent0001" data-entity-2="ent0004" data-link-type="association" data-source-line="63" id="lnk37"><path d="M41.21,372.4 C43.64,317.09 56.16,214.85 112.92,153.75 C162.42,100.48 191.2,90.75 263.92,90.75 C263.92,90.75 263.92,90.75 1192,90.75 C1429.68,90.75 1256.73,414.26 1441.51,563.75 C1458.67,577.63 1481.16,585.84 1502.06,590.71" fill="none" id="I-UC_LOGIN" style="stroke:#181818;stroke-width:1;"/></g><!--link I to UC_PROFILE--><g class="link" data-entity-1="ent0001" data-entity-2="ent0005" data-link-type="association" data-source-line="64" id="lnk38"><path d="M42.93,372.4 C47.82,291.99 63.24,109.46 103.92,64.75 C153.64,10.12 190.05,19.75 263.92,19.75 C263.92,19.75 263.92,19.75 1192,19.75 C1281.17,19.75 1320.44,6 1387.51,64.75 C1531.45,190.83 1556.94,447.59 1561.2,514.51" fill="none" id="I-UC_PROFILE" style="stroke:#181818;stroke-width:1;"/></g><!--link I to UC_CREATE--><g class="link" data-entity-1="ent0001" data-entity-2="ent0007" data-link-type="association" data-source-line="65" id="lnk39"><path d="M43.7,449.18 C51.74,557.07 77.06,860.95 112.92,953.75 C155.41,1063.69 146.06,1171.75 263.92,1171.75 C263.92,1171.75 263.92,1171.75 892.7,1171.75 C1033.69,1171.75 1147.56,1007.41 1180.41,954.77" fill="none" id="I-UC_CREATE" style="stroke:#181818;stroke-width:1;"/></g><!--link I to UC_EDIT--><g class="link" data-entity-1="ent0001" data-entity-2="ent0008" data-link-type="association" data-source-line="66" id="lnk40"><path d="M42.2,372.45 C45.77,326.71 58.68,250.87 103.92,206.75 C156.81,155.18 190.05,161.75 263.92,161.75 C263.92,161.75 263.92,161.75 892.7,161.75 C968.62,161.75 1005.05,151.85 1057.48,206.75 C1138.37,291.44 1178.82,676.2 1187.97,774.72" fill="none" id="I-UC_EDIT" style="stroke:#181818;stroke-width:1;"/></g><!--link I to UC_DELETE--><g class="link" data-entity-1="ent0001" data-entity-2="ent0009" data-link-type="association" data-source-line="67" id="lnk41"><path d="M63.03,372.18 C75.75,352.35 93.14,328.83 112.92,311.75 C170.26,262.26 188.18,232.75 263.92,232.75 C263.92,232.75 263.92,232.75 892.7,232.75 C1172.34,232.75 866.6,641.17 1065.48,837.75 C1081.66,853.74 1104.58,862.39 1126.36,867.02" fill="none" id="I-UC_DELETE" style="stroke:#181818;stroke-width:1;"/></g><!--link I to UC_MY_COURSES--><g class="link" data-entity-1="ent0001" data-entity-2="ent0010" data-link-type="association" data-source-line="68" id="lnk42"><path d="M42.26,449.32 C47.56,596.91 69.28,1120.45 112.92,1179.75 C156.02,1238.32 191.2,1242.75 263.92,1242.75 C263.92,1242.75 263.92,1242.75 1192,1242.75 C1391.22,1242.75 1520.37,971.24 1553.54,892.76" fill="none" id="I-UC_MY_COURSES" style="stroke:#181818;stroke-width:1;"/></g><!--link I to UC_CREATE_SEC--><g class="link" data-entity-1="ent0001" data-entity-2="ent0012" data-link-type="association" data-source-line="69" id="lnk43"><path d="M74.21,378.83 C85.59,369.91 98.99,361.39 112.92,356.75 C272.59,303.5 342.22,300.92 490.92,379.75 C683.06,481.61 708.02,564.53 792.92,764.75 C831.94,856.77 871.02,970.24 885.16,1012.17" fill="none" id="I-UC_CREATE_SEC" style="stroke:#181818;stroke-width:1;"/></g><!--link I to UC_CREATE_LES--><g class="link" data-entity-1="ent0001" data-entity-2="ent0016" data-link-type="association" data-source-line="70" id="lnk44"><path d="M74.34,410.97 C141.36,413.02 294.38,425.98 393.92,498.75 C517.34,588.97 584.84,773.98 602.92,829.59" fill="none" id="I-UC_CREATE_LES" style="stroke:#181818;stroke-width:1;"/></g><!--link I to UC_CREATE_TEST--><g class="link" data-entity-1="ent0001" data-entity-2="ent0021" data-link-type="association" data-source-line="71" id="lnk45"><path d="M74.2,401.48 C152.69,381.58 353.25,342.57 490.92,419.75 C558.02,457.37 592.48,551.24 603.71,587.82" fill="none" id="I-UC_CREATE_TEST" style="stroke:#181818;stroke-width:1;"/></g><!--link I to UC_BROWSE--><g class="link" data-entity-1="ent0001" data-entity-2="ent0023" data-link-type="association" data-source-line="72" id="lnk46"><path d="M41.76,449.04 C44.99,500.34 58.61,590.71 112.92,640.75 C134.36,660.51 164.75,669.62 192.66,673.57" fill="none" id="I-UC_BROWSE" style="stroke:#181818;stroke-width:1;"/></g><!--link I to UC_ENROLL--><g class="link" data-entity-1="ent0001" data-entity-2="ent0024" data-link-type="association" data-source-line="73" id="lnk47"><path d="M74.35,448.13 C83.33,456.71 93.47,465.22 103.92,471.75 C139.5,493.99 184.84,509.4 218.16,518.72" fill="none" id="I-UC_ENROLL" style="stroke:#181818;stroke-width:1;"/></g><!--link I to UC_LEARN--><g class="link" data-entity-1="ent0001" data-entity-2="ent0025" data-link-type="association" data-source-line="74" id="lnk48"><path d="M49.34,449.26 C58.89,483.96 77.93,533.83 112.92,562.75 C131.39,578.02 155.14,587.39 178.3,593.12" fill="none" id="I-UC_LEARN" style="stroke:#181818;stroke-width:1;"/></g><?plantuml-src ZPJ1RgCm48RlFCM8msxtqEvzrLPAYHiXEQM2f5LFbGKJOiMr8sEsMwtwxci39W4QRMwC_Otdds5c16uC60MQbri31TUO6wvaKEsut3FDtc3FyXqhCJCV0i5TCraAF0Bg2dDM8VmD0EuiN6fLoo9IGccWxjaN54Azkrkb2zJjpPpfNIQOmOLc7y5d4B3SsECmbfNHjViEWLKG1q4V4q9IAi4Pa4kAJ4ikIyW-AeDleGrkt--aGZYhpHQbuJbpoS25jtS_maOczA93gaekuITal9GGooReEdgboI9-69BhVM7bmgDM6oxGWuzfSXzJOj7FWOH8rTfwBPcqvfiDFeaSQNJljQ1_Bah9R4L6uDQcZxQs5Syxt2hTAEz3vl5gw357WPEdvuIIyTCBD72eUETGUO_boskKhDECP9FqihPFpiYl8uS9lcOa6j9BzNl2BfEdByWkkH5hi-lGeL2ALNMMpXOSoQHDwaSmARWPeQxyKx39PmWswKn0zmlMUw5O0K-yG0Nhb7gFzIDDPlD9JYkip1aPEMoKpufagozAP8S9DTnRhrfZ1HTSRb5pWyLqNkwqUgzmt2btQVASZNgBIAs463KXUKWJIaSZwEB3DrXfgyZDLsb5z4zJCaiVlERlS7DpOpis5tM1xjkUzTd1rTLjFxlm2wwlUGlUthQO-rCUElJsLsGxA-UnXuxsV2VdD6kROCWstgTvzzlESsWxPiJIYV2-bEIFGLaSAkb7xaGqRF2ZAftD-Yav8Mq8-qdv7snx8eRBoyF2zfRVojxkrgetcutfZMulUlDewGszc_KoEg9JgXanVzRDHH-txVvUSzFQ_m00?></g></svg>