<?plantuml 1.2026.1?><svg xmlns="http://www.w3.org/2000/svg" xmlns:xlink="http://www.w3.org/1999/xlink" contentStyleType="text/css" data-diagram-type="SEQUENCE" height="920px" preserveAspectRatio="none" style="width:1327px;height:920px;background:#FFFFFF;" version="1.1" viewBox="0 0 1327 920" width="1327px" zoomAndPan="magnify"><defs/><g><rect fill="#ADD8E6" height="908.8516" style="stroke:#181818;stroke-width:0.5;" width="102.4434" x="405.6182" y="6"/><text fill="#000000" font-family="sans-serif" font-size="13" font-weight="bold" lengthAdjust="spacing" textLength="92.6821" x="410.4988" y="18.0669">API Gateway</text><rect fill="#E0FFFF" height="908.8516" style="stroke:#181818;stroke-width:0.5;" width="684.1387" x="629.9238" y="6"/><text fill="#000000" font-family="sans-serif" font-size="13" font-weight="bold" lengthAdjust="spacing" textLength="91.1714" x="926.4075" y="18.0669">Blog Service</text><g><title>User</title><rect fill="#FFFFFF" height="691.9922" style="stroke:#181818;stroke-width:1;" width="10" x="33.9551" y="118.5625"/></g><g><title>WebApp</title><rect fill="#FFFFFF" height="691.9922" style="stroke:#181818;stroke-width:1;" width="10" x="261.5215" y="118.5625"/></g><g><title>API Gateway</title><rect fill="#FFFFFF" height="531.1953" style="stroke:#181818;stroke-width:1;" width="10" x="451.8398" y="250.2266"/></g><g><title>BlogController</title><rect fill="#FFFFFF" height="430.7969" style="stroke:#181818;stroke-width:1;" width="10" x="681.9834" y="321.4922"/></g><g><title>BlogApp</title><rect fill="#FFFFFF" height="233.1953" style="stroke:#181818;stroke-width:1;" width="10" x="950.9512" y="489.9609"/></g><g><title>Post</title><rect fill="#FFFFFF" height="116.6641" style="stroke:#181818;stroke-width:1;" width="10" x="1097.4727" y="519.0938"/></g><g><title>BlogDB</title><rect fill="#FFFFFF" height="29.1328" style="stroke:#181818;stroke-width:1;" width="10" x="1276.397" y="664.8906"/></g><rect fill="none" height="439.9297" style="stroke:#000000;stroke-width:1.5;" width="1310.0625" x="10" y="378.625"/><g class="participant-lifeline" data-entity-uid="part1" data-qualified-name="U" id="part1-lifeline"><g><title>User</title><rect fill="#000000" fill-opacity="0.00000" height="748.125" width="8" x="34.9551" y="87.4297"/><line style="stroke:#181818;stroke-width:0.5;stroke-dasharray:5,5;" x1="38" x2="38" y1="87.4297" y2="835.5547"/></g></g><g class="participant-lifeline" data-entity-uid="part2" data-qualified-name="WA" id="part2-lifeline"><g><title>WebApp</title><rect fill="#000000" fill-opacity="0.00000" height="748.125" width="8" x="262.5215" y="87.4297"/><line style="stroke:#181818;stroke-width:0.5;stroke-dasharray:5,5;" x1="266.1748" x2="266.1748" y1="87.4297" y2="835.5547"/></g></g><g class="participant-lifeline" data-entity-uid="part3" data-qualified-name="GW" id="part3-lifeline"><g><title>API Gateway</title><rect fill="#000000" fill-opacity="0.00000" height="748.125" width="8" x="452.8398" y="87.4297"/><line style="stroke:#181818;stroke-width:0.5;stroke-dasharray:5,5;" x1="456.6182" x2="456.6182" y1="87.4297" y2="835.5547"/></g></g><g class="participant-lifeline" data-entity-uid="part4" data-qualified-name="BC" id="part4-lifeline"><g><title>BlogController</title><rect fill="#000000" fill-opacity="0.00000" height="748.125" width="8" x="682.9834" y="87.4297"/><line style="stroke:#181818;stroke-width:0.5;stroke-dasharray:5,5;" x1="686.9238" x2="686.9238" y1="87.4297" y2="835.5547"/></g></g><g class="participant-lifeline" data-entity-uid="part5" data-qualified-name="BA" id="part5-lifeline"><g><title>BlogApp</title><rect fill="#000000" fill-opacity="0.00000" height="748.125" width="8" x="951.9512" y="87.4297"/><line style="stroke:#181818;stroke-width:0.5;stroke-dasharray:5,5;" x1="955.8027" x2="955.8027" y1="87.4297" y2="835.5547"/></g></g><g class="participant-lifeline" data-entity-uid="part6" data-qualified-name="P" id="part6-lifeline"><g><title>Post</title><rect fill="#000000" fill-opacity="0.00000" height="748.125" width="8" x="1098.4727" y="87.4297"/><line style="stroke:#181818;stroke-width:0.5;stroke-dasharray:5,5;" x1="1101.5771" x2="1101.5771" y1="87.4297" y2="835.5547"/></g></g><g class="participant-lifeline" data-entity-uid="part7" data-qualified-name="BDB" id="part7-lifeline"><g><title>BlogDB</title><rect fill="#000000" fill-opacity="0.00000" height="748.125" width="8" x="1277.397" y="87.4297"/><line style="stroke:#181818;stroke-width:0.5;stroke-dasharray:5,5;" x1="1280.7314" x2="1280.7314" y1="87.4297" y2="835.5547"/></g></g><g class="participant participant-head" data-entity-uid="part1" data-qualified-name="U" id="part1-head"><text fill="#000000" font-family="sans-serif" font-size="14" lengthAdjust="spacing" textLength="31.9102" x="20" y="84.1279">User</text><ellipse cx="38.9551" cy="19.6328" fill="#E2E2F0" rx="8" ry="8" style="stroke:#181818;stroke-width:0.5;"/><path d="M38.9551,27.6328 L38.9551,54.6328 M25.9551,35.6328 L51.9551,35.6328 M38.9551,54.6328 L25.9551,69.6328 M38.9551,54.6328 L51.9551,69.6328" fill="none" style="stroke:#181818;stroke-width:0.5;"/></g><g class="participant participant-tail" data-entity-uid="part1" data-qualified-name="U" id="part1-tail"><text fill="#000000" font-family="sans-serif" font-size="14" lengthAdjust="spacing" textLength="31.9102" x="20" y="847.5498">User</text><ellipse cx="38.9551" cy="859.3516" fill="#E2E2F0" rx="8" ry="8" style="stroke:#181818;stroke-width:0.5;"/><path d="M38.9551,867.3516 L38.9551,894.3516 M25.9551,875.3516 L51.9551,875.3516 M38.9551,894.3516 L25.9551,909.3516 M38.9551,894.3516 L51.9551,909.3516" fill="none" style="stroke:#181818;stroke-width:0.5;"/></g><g class="participant participant-head" data-entity-uid="part2" data-qualified-name="WA" id="part2-head"><text fill="#000000" font-family="sans-serif" font-size="14" lengthAdjust="spacing" textLength="58.6934" x="234.1748" y="84.1279">WebApp</text><path d="M246.0215,43.1328 L246.0215,67.1328 M246.0215,55.1328 L263.0215,55.1328" fill="none" style="stroke:#181818;stroke-width:0.5;"/><ellipse cx="275.0215" cy="55.1328" fill="#E2E2F0" rx="12" ry="12" style="stroke:#181818;stroke-width:0.5;"/></g><g class="participant participant-tail" data-entity-uid="part2" data-qualified-name="WA" id="part2-tail"><text fill="#000000" font-family="sans-serif" font-size="14" lengthAdjust="spacing" textLength="58.6934" x="234.1748" y="847.5498">WebApp</text><path d="M246.0215,854.8516 L246.0215,878.8516 M246.0215,866.8516 L263.0215,866.8516" fill="none" style="stroke:#181818;stroke-width:0.5;"/><ellipse cx="275.0215" cy="866.8516" fill="#E2E2F0" rx="12" ry="12" style="stroke:#181818;stroke-width:0.5;"/></g><g class="participant participant-head" data-entity-uid="part3" data-qualified-name="GW" id="part3-head"><text fill="#000000" font-family="sans-serif" font-size="14" lengthAdjust="spacing" textLength="88.4434" x="409.6182" y="84.1279">API Gateway</text><ellipse cx="456.8398" cy="55.1328" fill="#E2E2F0" rx="12" ry="12" style="stroke:#181818;stroke-width:0.5;"/><polygon fill="#181818" points="452.8398,43.1328,458.8398,38.1328,456.8398,43.1328,458.8398,48.1328,452.8398,43.1328" style="stroke:#181818;stroke-width:1;"/></g><g class="participant participant-tail" data-entity-uid="part3" data-qualified-name="GW" id="part3-tail"><text fill="#000000" font-family="sans-serif" font-size="14" lengthAdjust="spacing" textLength="88.4434" x="409.6182" y="847.5498">API Gateway</text><ellipse cx="456.8398" cy="866.8516" fill="#E2E2F0" rx="12" ry="12" style="stroke:#181818;stroke-width:0.5;"/><polygon fill="#181818" points="452.8398,854.8516,458.8398,849.8516,456.8398,854.8516,458.8398,859.8516,452.8398,854.8516" style="stroke:#181818;stroke-width:1;"/></g><g class="participant participant-head" data-entity-uid="part4" data-qualified-name="BC" id="part4-head"><text fill="#000000" font-family="sans-serif" font-size="14" lengthAdjust="spacing" textLength="100.1191" x="633.9238" y="84.1279">BlogController</text><ellipse cx="686.9834" cy="55.1328" fill="#E2E2F0" rx="12" ry="12" style="stroke:#181818;stroke-width:0.5;"/><polygon fill="#181818" points="682.9834,43.1328,688.9834,38.1328,686.9834,43.1328,688.9834,48.1328,682.9834,43.1328" style="stroke:#181818;stroke-width:1;"/></g><g class="participant participant-tail" data-entity-uid="part4" data-qualified-name="BC" id="part4-tail"><text fill="#000000" font-family="sans-serif" font-size="14" lengthAdjust="spacing" textLength="100.1191" x="633.9238" y="847.5498">BlogController</text><ellipse cx="686.9834" cy="866.8516" fill="#E2E2F0" rx="12" ry="12" style="stroke:#181818;stroke-width:0.5;"/><polygon fill="#181818" points="682.9834,854.8516,688.9834,849.8516,686.9834,854.8516,688.9834,859.8516,682.9834,854.8516" style="stroke:#181818;stroke-width:1;"/></g><g class="participant participant-head" data-entity-uid="part5" data-qualified-name="BA" id="part5-head"><text fill="#000000" font-family="sans-serif" font-size="14" lengthAdjust="spacing" textLength="58.2969" x="923.8027" y="84.1279">BlogApp</text><ellipse cx="955.9512" cy="55.1328" fill="#E2E2F0" rx="12" ry="12" style="stroke:#181818;stroke-width:0.5;"/><polygon fill="#181818" points="951.9512,43.1328,957.9512,38.1328,955.9512,43.1328,957.9512,48.1328,951.9512,43.1328" style="stroke:#181818;stroke-width:1;"/></g><g class="participant participant-tail" data-entity-uid="part5" data-qualified-name="BA" id="part5-tail"><text fill="#000000" font-family="sans-serif" font-size="14" lengthAdjust="spacing" textLength="58.2969" x="923.8027" y="847.5498">BlogApp</text><ellipse cx="955.9512" cy="866.8516" fill="#E2E2F0" rx="12" ry="12" style="stroke:#181818;stroke-width:0.5;"/><polygon fill="#181818" points="951.9512,854.8516,957.9512,849.8516,955.9512,854.8516,957.9512,859.8516,951.9512,854.8516" style="stroke:#181818;stroke-width:1;"/></g><g class="participant participant-head" data-entity-uid="part6" data-qualified-name="P" id="part6-head"><text fill="#000000" font-family="sans-serif" font-size="14" lengthAdjust="spacing" textLength="29.791" x="1084.5771" y="84.1279">Post</text><ellipse cx="1102.4727" cy="55.1328" fill="#E2E2F0" rx="12" ry="12" style="stroke:#181818;stroke-width:0.5;"/><line style="stroke:#181818;stroke-width:0.5;" x1="1090.4727" x2="1114.4727" y1="69.1328" y2="69.1328"/></g><g class="participant participant-tail" data-entity-uid="part6" data-qualified-name="P" id="part6-tail"><text fill="#000000" font-family="sans-serif" font-size="14" lengthAdjust="spacing" textLength="29.791" x="1084.5771" y="847.5498">Post</text><ellipse cx="1102.4727" cy="866.8516" fill="#E2E2F0" rx="12" ry="12" style="stroke:#181818;stroke-width:0.5;"/><line style="stroke:#181818;stroke-width:0.5;" x1="1090.4727" x2="1114.4727" y1="880.8516" y2="880.8516"/></g><g class="participant participant-head" data-entity-uid="part7" data-qualified-name="BDB" id="part7-head"><text fill="#000000" font-family="sans-serif" font-size="14" lengthAdjust="spacing" textLength="51.3311" x="1252.7314" y="84.1279">BlogDB</text><path d="M1263.397,35.1328 C1263.397,25.1328 1281.397,25.1328 1281.397,25.1328 C1281.397,25.1328 1299.397,25.1328 1299.397,35.1328 L1299.397,61.1328 C1299.397,71.1328 1281.397,71.1328 1281.397,71.1328 C1281.397,71.1328 1263.397,71.1328 1263.397,61.1328 L1263.397,35.1328" fill="#E2E2F0" style="stroke:#181818;stroke-width:0.5;"/><path d="M1263.397,35.1328 C1263.397,45.1328 1281.397,45.1328 1281.397,45.1328 C1281.397,45.1328 1299.397,45.1328 1299.397,35.1328" fill="none" style="stroke:#181818;stroke-width:0.5;"/></g><g class="participant participant-tail" data-entity-uid="part7" data-qualified-name="BDB" id="part7-tail"><text fill="#000000" font-family="sans-serif" font-size="14" lengthAdjust="spacing" textLength="51.3311" x="1252.7314" y="847.5498">BlogDB</text><path d="M1263.397,860.8516 C1263.397,850.8516 1281.397,850.8516 1281.397,850.8516 C1281.397,850.8516 1299.397,850.8516 1299.397,860.8516 L1299.397,886.8516 C1299.397,896.8516 1281.397,896.8516 1281.397,896.8516 C1281.397,896.8516 1263.397,896.8516 1263.397,886.8516 L1263.397,860.8516" fill="#E2E2F0" style="stroke:#181818;stroke-width:0.5;"/><path d="M1263.397,860.8516 C1263.397,870.8516 1281.397,870.8516 1281.397,870.8516 C1281.397,870.8516 1299.397,870.8516 1299.397,860.8516" fill="none" style="stroke:#181818;stroke-width:0.5;"/></g><g><title>User</title><rect fill="#FFFFFF" height="691.9922" style="stroke:#181818;stroke-width:1;" width="10" x="33.9551" y="118.5625"/></g><g><title>WebApp</title><rect fill="#FFFFFF" height="691.9922" style="stroke:#181818;stroke-width:1;" width="10" x="261.5215" y="118.5625"/></g><g><title>API Gateway</title><rect fill="#FFFFFF" height="531.1953" style="stroke:#181818;stroke-width:1;" width="10" x="451.8398" y="250.2266"/></g><g><title>BlogController</title><rect fill="#FFFFFF" height="430.7969" style="stroke:#181818;stroke-width:1;" width="10" x="681.9834" y="321.4922"/></g><g><title>BlogApp</title><rect fill="#FFFFFF" height="233.1953" style="stroke:#181818;stroke-width:1;" width="10" x="950.9512" y="489.9609"/></g><g><title>Post</title><rect fill="#FFFFFF" height="116.6641" style="stroke:#181818;stroke-width:1;" width="10" x="1097.4727" y="519.0938"/></g><g><title>BlogDB</title><rect fill="#FFFFFF" height="29.1328" style="stroke:#181818;stroke-width:1;" width="10" x="1276.397" y="664.8906"/></g><g class="message" data-entity-1="part1" data-entity-2="part2" id="msg1"><polygon fill="#181818" points="249.5215,114.5625,259.5215,118.5625,249.5215,122.5625,253.5215,118.5625" style="stroke:#181818;stroke-width:1;"/><line style="stroke:#181818;stroke-width:1;" x1="43.9551" x2="255.5215" y1="118.5625" y2="118.5625"/><text fill="#000000" font-family="sans-serif" font-size="13" font-weight="bold" lengthAdjust="spacing" textLength="9.0454" x="50.9551" y="113.4966">1</text><text fill="#000000" font-family="sans-serif" font-size="13" lengthAdjust="spacing" textLength="122.3447" x="64.0005" y="113.4966">Click "Create Post"</text></g><g class="message" data-entity-1="part2" data-entity-2="part1" id="msg2"><polygon fill="#181818" points="54.9551,143.6953,44.9551,147.6953,54.9551,151.6953,50.9551,147.6953" style="stroke:#181818;stroke-width:1;"/><line style="stroke:#181818;stroke-width:1;" x1="48.9551" x2="260.5215" y1="147.6953" y2="147.6953"/><text fill="#000000" font-family="sans-serif" font-size="13" font-weight="bold" lengthAdjust="spacing" textLength="9.0454" x="60.9551" y="142.6294">2</text><text fill="#000000" font-family="sans-serif" font-size="13" lengthAdjust="spacing" textLength="122.5161" x="74.0005" y="142.6294">Display post editor</text></g><g class="message" data-entity-1="part1" data-entity-2="part2" id="msg3"><polygon fill="#181818" points="249.5215,172.8281,259.5215,176.8281,249.5215,180.8281,253.5215,176.8281" style="stroke:#181818;stroke-width:1;"/><line style="stroke:#181818;stroke-width:1;" x1="43.9551" x2="255.5215" y1="176.8281" y2="176.8281"/><text fill="#000000" font-family="sans-serif" font-size="13" font-weight="bold" lengthAdjust="spacing" textLength="9.0454" x="50.9551" y="171.7622">3</text><text fill="#000000" font-family="sans-serif" font-size="13" lengthAdjust="spacing" textLength="137.1729" x="64.0005" y="171.7622">Fill content, add tags</text></g><g class="message" data-entity-1="part1" data-entity-2="part2" id="msg4"><polygon fill="#181818" points="249.5215,201.9609,259.5215,205.9609,249.5215,209.9609,253.5215,205.9609" style="stroke:#181818;stroke-width:1;"/><line style="stroke:#181818;stroke-width:1;" x1="43.9551" x2="255.5215" y1="205.9609" y2="205.9609"/><text fill="#000000" font-family="sans-serif" font-size="13" font-weight="bold" lengthAdjust="spacing" textLength="9.0454" x="50.9551" y="200.895">4</text><text fill="#000000" font-family="sans-serif" font-size="13" lengthAdjust="spacing" textLength="93.6343" x="64.0005" y="200.895">Click "Publish"</text></g><g class="message" data-entity-1="part2" data-entity-2="part3" id="msg5"><polygon fill="#181818" points="439.8398,246.2266,449.8398,250.2266,439.8398,254.2266,443.8398,250.2266" style="stroke:#181818;stroke-width:1;"/><line style="stroke:#181818;stroke-width:1;" x1="271.5215" x2="445.8398" y1="250.2266" y2="250.2266"/><text fill="#000000" font-family="sans-serif" font-size="13" font-weight="bold" lengthAdjust="spacing" textLength="9.0454" x="278.5215" y="237.5942">5</text><text fill="#000000" font-family="sans-serif" font-size="13" lengthAdjust="spacing" textLength="110.0747" x="291.5669" y="230.0278">POST /blog/posts</text><text fill="#000000" font-family="sans-serif" font-size="13" lengthAdjust="spacing" textLength="112.8105" x="291.5669" y="245.1606">{content, tags[]}</text></g><g class="message" data-entity-1="part3" data-entity-2="part3" id="msg6"><line style="stroke:#181818;stroke-width:1;" x1="461.8398" x2="503.8398" y1="279.3594" y2="279.3594"/><line style="stroke:#181818;stroke-width:1;" x1="503.8398" x2="503.8398" y1="279.3594" y2="292.3594"/><line style="stroke:#181818;stroke-width:1;" x1="462.8398" x2="503.8398" y1="292.3594" y2="292.3594"/><polygon fill="#181818" points="472.8398,288.3594,462.8398,292.3594,472.8398,296.3594,468.8398,292.3594" style="stroke:#181818;stroke-width:1;"/><text fill="#000000" font-family="sans-serif" font-size="13" font-weight="bold" lengthAdjust="spacing" textLength="9.0454" x="468.8398" y="274.2935">6</text><text fill="#000000" font-family="sans-serif" font-size="13" lengthAdjust="spacing" textLength="183.0981" x="481.8853" y="274.2935">Validate JWT, extract userID</text></g><g class="message" data-entity-1="part3" data-entity-2="part4" id="msg7"><polygon fill="#181818" points="669.9834,317.4922,679.9834,321.4922,669.9834,325.4922,673.9834,321.4922" style="stroke:#181818;stroke-width:1;"/><line style="stroke:#181818;stroke-width:1;" x1="461.8398" x2="675.9834" y1="321.4922" y2="321.4922"/><text fill="#000000" font-family="sans-serif" font-size="13" font-weight="bold" lengthAdjust="spacing" textLength="9.0454" x="468.8398" y="316.4263">7</text><text fill="#000000" font-family="sans-serif" font-size="13" lengthAdjust="spacing" textLength="106.8057" x="481.8853" y="316.4263">Forward request</text></g><g class="message" data-entity-1="part4" data-entity-2="part4" id="msg8"><line style="stroke:#181818;stroke-width:1;" x1="691.9834" x2="733.9834" y1="350.625" y2="350.625"/><line style="stroke:#181818;stroke-width:1;" x1="733.9834" x2="733.9834" y1="350.625" y2="363.625"/><line style="stroke:#181818;stroke-width:1;" x1="692.9834" x2="733.9834" y1="363.625" y2="363.625"/><polygon fill="#181818" points="702.9834,359.625,692.9834,363.625,702.9834,367.625,698.9834,363.625" style="stroke:#181818;stroke-width:1;"/><text fill="#000000" font-family="sans-serif" font-size="13" font-weight="bold" lengthAdjust="spacing" textLength="9.0454" x="698.9834" y="345.5591">8</text><text fill="#000000" font-family="sans-serif" font-size="13" lengthAdjust="spacing" textLength="107.231" x="712.0288" y="345.5591">Validate request</text></g><path d="M10,378.625 L74.4429,378.625 L74.4429,385.7578 L64.4429,395.7578 L10,395.7578 L10,378.625" fill="#EEEEEE" style="stroke:#000000;stroke-width:1.5;"/><rect fill="none" height="439.9297" style="stroke:#000000;stroke-width:1.5;" width="1310.0625" x="10" y="378.625"/><text fill="#000000" font-family="sans-serif" font-size="13" font-weight="bold" lengthAdjust="spacing" textLength="19.4429" x="25" y="391.6919">alt</text><text fill="#000000" font-family="sans-serif" font-size="11" font-weight="bold" lengthAdjust="spacing" textLength="103.5332" x="89.4429" y="390.8354">[Invalid content]</text><g class="message" data-entity-1="part4" data-entity-2="part2" id="msg9"><polygon fill="#181818" points="282.5215,412.8906,272.5215,416.8906,282.5215,420.8906,278.5215,416.8906" style="stroke:#181818;stroke-width:1;"/><line style="stroke:#181818;stroke-width:1;stroke-dasharray:2,2;" x1="276.5215" x2="680.9834" y1="416.8906" y2="416.8906"/><text fill="#000000" font-family="sans-serif" font-size="13" font-weight="bold" lengthAdjust="spacing" textLength="9.0454" x="288.5215" y="411.8247">9</text><text fill="#000000" font-family="sans-serif" font-size="13" lengthAdjust="spacing" textLength="111.6045" x="301.5669" y="411.8247">400 Bad Request</text></g><g class="message" data-entity-1="part2" data-entity-2="part1" id="msg10"><polygon fill="#181818" points="54.9551,442.0234,44.9551,446.0234,54.9551,450.0234,50.9551,446.0234" style="stroke:#181818;stroke-width:1;"/><line style="stroke:#181818;stroke-width:1;" x1="48.9551" x2="260.5215" y1="446.0234" y2="446.0234"/><text fill="#000000" font-family="sans-serif" font-size="13" font-weight="bold" lengthAdjust="spacing" textLength="18.0908" x="60.9551" y="440.9575">10</text><text fill="#000000" font-family="sans-serif" font-size="13" lengthAdjust="spacing" textLength="139.3311" x="83.0459" y="440.9575">Show validation error</text></g><line style="stroke:#000000;stroke-width:1;stroke-dasharray:2,2;" x1="10" x2="1320.0625" y1="455.0234" y2="455.0234"/><text fill="#000000" font-family="sans-serif" font-size="11" font-weight="bold" lengthAdjust="spacing" textLength="92.9521" x="15" y="465.2339">[Valid content]</text><g class="message" data-entity-1="part4" data-entity-2="part5" id="msg11"><polygon fill="#181818" points="938.9512,485.9609,948.9512,489.9609,938.9512,493.9609,942.9512,489.9609" style="stroke:#181818;stroke-width:1;"/><line style="stroke:#181818;stroke-width:1;" x1="691.9834" x2="944.9512" y1="489.9609" y2="489.9609"/><text fill="#000000" font-family="sans-serif" font-size="13" font-weight="bold" lengthAdjust="spacing" textLength="18.0908" x="698.9834" y="484.895">11</text><text fill="#000000" font-family="sans-serif" font-size="13" lengthAdjust="spacing" textLength="217.877" x="721.0742" y="484.895">CreatePost(userID, content, tags)</text></g><g class="message" data-entity-1="part5" data-entity-2="part6" id="msg12"><polygon fill="#181818" points="1085.4727,515.0938,1095.4727,519.0938,1085.4727,523.0938,1089.4727,519.0938" style="stroke:#181818;stroke-width:1;"/><line style="stroke:#181818;stroke-width:1;" x1="960.9512" x2="1091.4727" y1="519.0938" y2="519.0938"/><text fill="#000000" font-family="sans-serif" font-size="13" font-weight="bold" lengthAdjust="spacing" textLength="18.0908" x="967.9512" y="514.0278">12</text><text fill="#000000" font-family="sans-serif" font-size="13" lengthAdjust="spacing" textLength="95.4307" x="990.042" y="514.0278">Build new Post</text></g><g class="message" data-entity-1="part6" data-entity-2="part6" id="msg13"><line style="stroke:#181818;stroke-width:1;" x1="1107.4727" x2="1149.4727" y1="593.625" y2="593.625"/><line style="stroke:#181818;stroke-width:1;" x1="1149.4727" x2="1149.4727" y1="593.625" y2="606.625"/><line style="stroke:#181818;stroke-width:1;" x1="1108.4727" x2="1149.4727" y1="606.625" y2="606.625"/><polygon fill="#181818" points="1118.4727,602.625,1108.4727,606.625,1118.4727,610.625,1114.4727,606.625" style="stroke:#181818;stroke-width:1;"/><text fill="#000000" font-family="sans-serif" font-size="13" font-weight="bold" lengthAdjust="spacing" textLength="18.0908" x="1114.4727" y="565.8599">13</text><text fill="#000000" font-family="sans-serif" font-size="13" lengthAdjust="spacing" textLength="93.5073" x="1136.5635" y="543.1606">Set id = UUID,</text><text fill="#000000" font-family="sans-serif" font-size="13" lengthAdjust="spacing" textLength="122.1733" x="1136.5635" y="558.2935">authorID = userID,</text><text fill="#000000" font-family="sans-serif" font-size="13" lengthAdjust="spacing" textLength="122.8335" x="1136.5635" y="573.4263">content = content,</text><text fill="#000000" font-family="sans-serif" font-size="13" lengthAdjust="spacing" textLength="75.334" x="1136.5635" y="588.5591">tags = tags</text></g><g class="message" data-entity-1="part6" data-entity-2="part5" id="msg14"><polygon fill="#181818" points="971.9512,631.7578,961.9512,635.7578,971.9512,639.7578,967.9512,635.7578" style="stroke:#181818;stroke-width:1;"/><line style="stroke:#181818;stroke-width:1;stroke-dasharray:2,2;" x1="965.9512" x2="1101.4727" y1="635.7578" y2="635.7578"/><text fill="#000000" font-family="sans-serif" font-size="13" font-weight="bold" lengthAdjust="spacing" textLength="18.0908" x="977.9512" y="630.6919">14</text><text fill="#000000" font-family="sans-serif" font-size="13" lengthAdjust="spacing" textLength="69.5322" x="1000.042" y="630.6919">Post entity</text></g><g class="message" data-entity-1="part5" data-entity-2="part7" id="msg15"><polygon fill="#181818" points="1264.397,660.8906,1274.397,664.8906,1264.397,668.8906,1268.397,664.8906" style="stroke:#181818;stroke-width:1;"/><line style="stroke:#181818;stroke-width:1;" x1="960.9512" x2="1270.397" y1="664.8906" y2="664.8906"/><text fill="#000000" font-family="sans-serif" font-size="13" font-weight="bold" lengthAdjust="spacing" textLength="18.0908" x="967.9512" y="659.8247">15</text><text fill="#000000" font-family="sans-serif" font-size="13" lengthAdjust="spacing" textLength="64.1177" x="990.042" y="659.8247">Save post</text></g><g class="message" data-entity-1="part7" data-entity-2="part5" id="msg16"><polygon fill="#181818" points="971.9512,690.0234,961.9512,694.0234,971.9512,698.0234,967.9512,694.0234" style="stroke:#181818;stroke-width:1;"/><line style="stroke:#181818;stroke-width:1;stroke-dasharray:2,2;" x1="965.9512" x2="1280.397" y1="694.0234" y2="694.0234"/><text fill="#000000" font-family="sans-serif" font-size="13" font-weight="bold" lengthAdjust="spacing" textLength="18.0908" x="977.9512" y="688.9575">16</text><text fill="#000000" font-family="sans-serif" font-size="13" lengthAdjust="spacing" textLength="45.6396" x="1000.042" y="688.9575">Post ID</text></g><g class="message" data-entity-1="part5" data-entity-2="part4" id="msg17"><polygon fill="#181818" points="702.9834,719.1563,692.9834,723.1563,702.9834,727.1563,698.9834,723.1563" style="stroke:#181818;stroke-width:1;"/><line style="stroke:#181818;stroke-width:1;stroke-dasharray:2,2;" x1="696.9834" x2="954.9512" y1="723.1563" y2="723.1563"/><text fill="#000000" font-family="sans-serif" font-size="13" font-weight="bold" lengthAdjust="spacing" textLength="18.0908" x="708.9834" y="718.0903">17</text><text fill="#000000" font-family="sans-serif" font-size="13" lengthAdjust="spacing" textLength="45.6396" x="731.0742" y="718.0903">Post ID</text></g><g class="message" data-entity-1="part4" data-entity-2="part3" id="msg18"><polygon fill="#181818" points="472.8398,748.2891,462.8398,752.2891,472.8398,756.2891,468.8398,752.2891" style="stroke:#181818;stroke-width:1;"/><line style="stroke:#181818;stroke-width:1;stroke-dasharray:2,2;" x1="466.8398" x2="685.9834" y1="752.2891" y2="752.2891"/><text fill="#000000" font-family="sans-serif" font-size="13" font-weight="bold" lengthAdjust="spacing" textLength="18.0908" x="478.8398" y="747.2231">18</text><text fill="#000000" font-family="sans-serif" font-size="13" lengthAdjust="spacing" textLength="80.6787" x="500.9307" y="747.2231">201 Created</text></g><g class="message" data-entity-1="part3" data-entity-2="part2" id="msg19"><polygon fill="#181818" points="282.5215,777.4219,272.5215,781.4219,282.5215,785.4219,278.5215,781.4219" style="stroke:#181818;stroke-width:1;"/><line style="stroke:#181818;stroke-width:1;stroke-dasharray:2,2;" x1="276.5215" x2="455.8398" y1="781.4219" y2="781.4219"/><text fill="#000000" font-family="sans-serif" font-size="13" font-weight="bold" lengthAdjust="spacing" textLength="18.0908" x="288.5215" y="776.356">19</text><text fill="#000000" font-family="sans-serif" font-size="13" lengthAdjust="spacing" textLength="134.2275" x="310.6123" y="776.356">Success with post ID</text></g><g class="message" data-entity-1="part2" data-entity-2="part1" id="msg20"><polygon fill="#181818" points="49.9551,806.5547,39.9551,810.5547,49.9551,814.5547,45.9551,810.5547" style="stroke:#181818;stroke-width:1;"/><line style="stroke:#181818;stroke-width:1;" x1="43.9551" x2="265.5215" y1="810.5547" y2="810.5547"/><text fill="#000000" font-family="sans-serif" font-size="13" font-weight="bold" lengthAdjust="spacing" textLength="18.0908" x="55.9551" y="805.4888">20</text><text fill="#000000" font-family="sans-serif" font-size="13" lengthAdjust="spacing" textLength="171.4756" x="78.0459" y="805.4888">Redirect to new post page</text></g><?plantuml-src TLDDZzCm4BtdLupA1QIjjeiuLO0Kfw8gGYBQRZO7oi69HwsrNZlOJZ-4-E-CdQHfYxWvapVlFRyPyzORtRvMQ9F4lKZTSCjVWPbZpeMGUWiFioJXjJSM2eSMk8CYgKoh1RSdAB5AcoOKopIXyX4cQRw29VTuuAS9lFacjplFL8i9G6sqjqRTGAXtMIQe1L1xpy6KsS8QxLxME91a9wulI08awywgiyMocz-zCvPI7RMN_WIvSJxKSYe9xdd57KRiWaNeWerE2fX-fclD8LEoVe59Pf4yHuf9I4JkmsSn7aC4PHgwYZaif6iKFq4J55582d1a_2ALYbR9rXrGqE3vrlsZcBULacut6MYNvHpox-idkA_8ydsWTXlz-qmKI7xy_3Cwec2NvT3vp9KKeVgrVBe3F7fBE6XfgAj53sCPUJFsmAq0YxzQT7uaetmJbWsmCzk0IxZoiDBxK1_kHYcJyu_JQMpvC9i1um8U-uxuiqjhlJC7s7UKqcX0QoalL3ITvnl2ta98AGuapEDjTuixk8hY7Q57zpGSQew2-HnOAvK0ZOSupqjWM8syHwtH0ub_Wg8WzetchTyP4g9AhxZHlIIL1l6D3kfKY4EDeY42uelhrwrYM42y43sRenqaORx7k3fNLw3jFBD5MEIZwLrn1LYNKyIb_uE5Pq5Z7wRpVlRG9ofkWDaunh17wxQkqJauIB_hrlkMcjRkShYFjFuMQTUyYOd7dePlyRghJA-_Y_0Kaxy0?></g></svg>