<?plantuml 1.2026.1?><svg xmlns="http://www.w3.org/2000/svg" xmlns:xlink="http://www.w3.org/1999/xlink" contentStyleType="text/css" data-diagram-type="SEQUENCE" height="1465px" preserveAspectRatio="none" style="width:1646px;height:1465px;background:#FFFFFF;" version="1.1" viewBox="0 0 1646 1465" width="1646px" zoomAndPan="magnify"><defs/><g><rect fill="#ADD8E6" height="1453.3906" style="stroke:#181818;stroke-width:0.5;" width="102.4434" x="532.9224" y="6"/><text fill="#000000" font-family="sans-serif" font-size="13" font-weight="bold" lengthAdjust="spacing" textLength="92.6821" x="537.803" y="18.0669">API Gateway</text><rect fill="#FFFFE0" height="1453.3906" style="stroke:#181818;stroke-width:0.5;" width="868.7095" x="734.4849" y="6"/><text fill="#000000" font-family="sans-serif" font-size="13" font-weight="bold" lengthAdjust="spacing" textLength="109.2622" x="1114.2085" y="18.0669">Course Service</text><g><title>Learner</title><rect fill="#FFFFFF" height="153.6641" style="stroke:#181818;stroke-width:1;" width="10" x="74.9951" y="118.5625"/></g><g><title>WebApp</title><rect fill="#FFFFFF" height="153.6641" style="stroke:#181818;stroke-width:1;" width="10" x="326.4897" y="118.5625"/></g><g><title>API Gateway</title><rect fill="#FFFFFF" height="367.3984" style="stroke:#181818;stroke-width:1;" width="10" x="579.144" y="147.6953"/></g><g><title>EnrollmentController</title><rect fill="#FFFFFF" height="169.7969" style="stroke:#181818;stroke-width:1;" width="10" x="809.2876" y="316.1641"/></g><g><title>CourseApp</title><rect fill="#FFFFFF" height="886.2656" style="stroke:#181818;stroke-width:1;" width="10" x="1061.9165" y="345.2969"/></g><g><title>Enrollment</title><rect fill="#FFFFFF" height="86.3984" style="stroke:#181818;stroke-width:1;" width="10" x="1336.5317" y="1057.7656"/></g><g><title>CourseDB</title><rect fill="#FFFFFF" height="53.2656" style="stroke:#181818;stroke-width:1;" width="10" x="1556.5635" y="374.4297"/></g><g><title>CourseDB</title><rect fill="#FFFFFF" height="53.2656" style="stroke:#181818;stroke-width:1;" width="10" x="1556.5635" y="814.8984"/></g><g><title>CourseDB</title><rect fill="#FFFFFF" height="29.1328" style="stroke:#181818;stroke-width:1;" width="10" x="1556.5635" y="1173.2969"/></g><rect fill="none" height="1158.2656" style="stroke:#000000;stroke-width:1.5;" width="1629.1943" x="10" y="204.8281"/><rect fill="none" height="966.6641" style="stroke:#000000;stroke-width:1.5;" width="1609.1943" x="20" y="389.4297"/><rect fill="none" height="703.7969" style="stroke:#000000;stroke-width:1.5;" width="1589.1943" x="30" y="645.2969"/><rect fill="none" height="512.1953" style="stroke:#000000;stroke-width:1.5;" width="1569.1943" x="40" y="829.8984"/><g class="participant-lifeline" data-entity-uid="part1" data-qualified-name="L" id="part1-lifeline"><g><title>Learner</title><rect fill="#000000" fill-opacity="0.00000" height="1292.6641" width="8" x="75.9951" y="87.4297"/><line style="stroke:#181818;stroke-width:0.5;stroke-dasharray:5,5;" x1="79" x2="79" y1="87.4297" y2="1380.0938"/></g></g><g class="participant-lifeline" data-entity-uid="part2" data-qualified-name="WA" id="part2-lifeline"><g><title>WebApp</title><rect fill="#000000" fill-opacity="0.00000" height="1292.6641" width="8" x="327.4897" y="87.4297"/><line style="stroke:#181818;stroke-width:0.5;stroke-dasharray:5,5;" x1="331.1431" x2="331.1431" y1="87.4297" y2="1380.0938"/></g></g><g class="participant-lifeline" data-entity-uid="part3" data-qualified-name="GW" id="part3-lifeline"><g><title>API Gateway</title><rect fill="#000000" fill-opacity="0.00000" height="1292.6641" width="8" x="580.144" y="87.4297"/><line style="stroke:#181818;stroke-width:0.5;stroke-dasharray:5,5;" x1="583.9224" x2="583.9224" y1="87.4297" y2="1380.0938"/></g></g><g class="participant-lifeline" data-entity-uid="part4" data-qualified-name="EC" id="part4-lifeline"><g><title>EnrollmentController</title><rect fill="#000000" fill-opacity="0.00000" height="1292.6641" width="8" x="810.2876" y="87.4297"/><line style="stroke:#181818;stroke-width:0.5;stroke-dasharray:5,5;" x1="813.4849" x2="813.4849" y1="87.4297" y2="1380.0938"/></g></g><g class="participant-lifeline" data-entity-uid="part5" data-qualified-name="CA" id="part5-lifeline"><g><title>CourseApp</title><rect fill="#000000" fill-opacity="0.00000" height="1292.6641" width="8" x="1062.9165" y="87.4297"/><line style="stroke:#181818;stroke-width:0.5;stroke-dasharray:5,5;" x1="1066.8027" x2="1066.8027" y1="87.4297" y2="1380.0938"/></g></g><g class="participant-lifeline" data-entity-uid="part6" data-qualified-name="E" id="part6-lifeline"><g><title>Enrollment</title><rect fill="#000000" fill-opacity="0.00000" height="1292.6641" width="8" x="1337.5317" y="87.4297"/><line style="stroke:#181818;stroke-width:0.5;stroke-dasharray:5,5;" x1="1341.3154" x2="1341.3154" y1="87.4297" y2="1380.0938"/></g></g><g class="participant-lifeline" data-entity-uid="part7" data-qualified-name="CDB" id="part7-lifeline"><g><title>CourseDB</title><rect fill="#000000" fill-opacity="0.00000" height="1292.6641" width="8" x="1557.5635" y="87.4297"/><line style="stroke:#181818;stroke-width:0.5;stroke-dasharray:5,5;" x1="1560.9326" x2="1560.9326" y1="87.4297" y2="1380.0938"/></g></g><g class="participant participant-head" data-entity-uid="part1" data-qualified-name="L" id="part1-head"><text fill="#000000" font-family="sans-serif" font-size="14" lengthAdjust="spacing" textLength="53.9902" x="50" y="84.1279">Learner</text><ellipse cx="79.9951" cy="19.6328" fill="#E2E2F0" rx="8" ry="8" style="stroke:#181818;stroke-width:0.5;"/><path d="M79.9951,27.6328 L79.9951,54.6328 M66.9951,35.6328 L92.9951,35.6328 M79.9951,54.6328 L66.9951,69.6328 M79.9951,54.6328 L92.9951,69.6328" fill="none" style="stroke:#181818;stroke-width:0.5;"/></g><g class="participant participant-tail" data-entity-uid="part1" data-qualified-name="L" id="part1-tail"><text fill="#000000" font-family="sans-serif" font-size="14" lengthAdjust="spacing" textLength="53.9902" x="50" y="1392.0889">Learner</text><ellipse cx="79.9951" cy="1403.8906" fill="#E2E2F0" rx="8" ry="8" style="stroke:#181818;stroke-width:0.5;"/><path d="M79.9951,1411.8906 L79.9951,1438.8906 M66.9951,1419.8906 L92.9951,1419.8906 M79.9951,1438.8906 L66.9951,1453.8906 M79.9951,1438.8906 L92.9951,1453.8906" fill="none" style="stroke:#181818;stroke-width:0.5;"/></g><g class="participant participant-head" data-entity-uid="part2" data-qualified-name="WA" id="part2-head"><text fill="#000000" font-family="sans-serif" font-size="14" lengthAdjust="spacing" textLength="58.6934" x="299.1431" y="84.1279">WebApp</text><path d="M310.9897,43.1328 L310.9897,67.1328 M310.9897,55.1328 L327.9897,55.1328" fill="none" style="stroke:#181818;stroke-width:0.5;"/><ellipse cx="339.9897" cy="55.1328" fill="#E2E2F0" rx="12" ry="12" style="stroke:#181818;stroke-width:0.5;"/></g><g class="participant participant-tail" data-entity-uid="part2" data-qualified-name="WA" id="part2-tail"><text fill="#000000" font-family="sans-serif" font-size="14" lengthAdjust="spacing" textLength="58.6934" x="299.1431" y="1392.0889">WebApp</text><path d="M310.9897,1399.3906 L310.9897,1423.3906 M310.9897,1411.3906 L327.9897,1411.3906" fill="none" style="stroke:#181818;stroke-width:0.5;"/><ellipse cx="339.9897" cy="1411.3906" fill="#E2E2F0" rx="12" ry="12" style="stroke:#181818;stroke-width:0.5;"/></g><g class="participant participant-head" data-entity-uid="part3" data-qualified-name="GW" id="part3-head"><text fill="#000000" font-family="sans-serif" font-size="14" lengthAdjust="spacing" textLength="88.4434" x="536.9224" y="84.1279">API Gateway</text><ellipse cx="584.144" cy="55.1328" fill="#E2E2F0" rx="12" ry="12" style="stroke:#181818;stroke-width:0.5;"/><polygon fill="#181818" points="580.144,43.1328,586.144,38.1328,584.144,43.1328,586.144,48.1328,580.144,43.1328" style="stroke:#181818;stroke-width:1;"/></g><g class="participant participant-tail" data-entity-uid="part3" data-qualified-name="GW" id="part3-tail"><text fill="#000000" font-family="sans-serif" font-size="14" lengthAdjust="spacing" textLength="88.4434" x="536.9224" y="1392.0889">API Gateway</text><ellipse cx="584.144" cy="1411.3906" fill="#E2E2F0" rx="12" ry="12" style="stroke:#181818;stroke-width:0.5;"/><polygon fill="#181818" points="580.144,1399.3906,586.144,1394.3906,584.144,1399.3906,586.144,1404.3906,580.144,1399.3906" style="stroke:#181818;stroke-width:1;"/></g><g class="participant participant-head" data-entity-uid="part4" data-qualified-name="EC" id="part4-head"><text fill="#000000" font-family="sans-serif" font-size="14" lengthAdjust="spacing" textLength="145.6055" x="738.4849" y="84.1279">EnrollmentController</text><ellipse cx="814.2876" cy="55.1328" fill="#E2E2F0" rx="12" ry="12" style="stroke:#181818;stroke-width:0.5;"/><polygon fill="#181818" points="810.2876,43.1328,816.2876,38.1328,814.2876,43.1328,816.2876,48.1328,810.2876,43.1328" style="stroke:#181818;stroke-width:1;"/></g><g class="participant participant-tail" data-entity-uid="part4" data-qualified-name="EC" id="part4-tail"><text fill="#000000" font-family="sans-serif" font-size="14" lengthAdjust="spacing" textLength="145.6055" x="738.4849" y="1392.0889">EnrollmentController</text><ellipse cx="814.2876" cy="1411.3906" fill="#E2E2F0" rx="12" ry="12" style="stroke:#181818;stroke-width:0.5;"/><polygon fill="#181818" points="810.2876,1399.3906,816.2876,1394.3906,814.2876,1399.3906,816.2876,1404.3906,810.2876,1399.3906" style="stroke:#181818;stroke-width:1;"/></g><g class="participant participant-head" data-entity-uid="part5" data-qualified-name="CA" id="part5-head"><text fill="#000000" font-family="sans-serif" font-size="14" lengthAdjust="spacing" textLength="76.2275" x="1025.8027" y="84.1279">CourseApp</text><ellipse cx="1066.9165" cy="55.1328" fill="#E2E2F0" rx="12" ry="12" style="stroke:#181818;stroke-width:0.5;"/><polygon fill="#181818" points="1062.9165,43.1328,1068.9165,38.1328,1066.9165,43.1328,1068.9165,48.1328,1062.9165,43.1328" style="stroke:#181818;stroke-width:1;"/></g><g class="participant participant-tail" data-entity-uid="part5" data-qualified-name="CA" id="part5-tail"><text fill="#000000" font-family="sans-serif" font-size="14" lengthAdjust="spacing" textLength="76.2275" x="1025.8027" y="1392.0889">CourseApp</text><ellipse cx="1066.9165" cy="1411.3906" fill="#E2E2F0" rx="12" ry="12" style="stroke:#181818;stroke-width:0.5;"/><polygon fill="#181818" points="1062.9165,1399.3906,1068.9165,1394.3906,1066.9165,1399.3906,1068.9165,1404.3906,1062.9165,1399.3906" style="stroke:#181818;stroke-width:1;"/></g><g class="participant participant-head" data-entity-uid="part6" data-qualified-name="E" id="part6-head"><text fill="#000000" font-family="sans-serif" font-size="14" lengthAdjust="spacing" textLength="76.4326" x="1300.3154" y="84.1279">Enrollment</text><ellipse cx="1341.5317" cy="55.1328" fill="#E2E2F0" rx="12" ry="12" style="stroke:#181818;stroke-width:0.5;"/><line style="stroke:#181818;stroke-width:0.5;" x1="1329.5317" x2="1353.5317" y1="69.1328" y2="69.1328"/></g><g class="participant participant-tail" data-entity-uid="part6" data-qualified-name="E" id="part6-tail"><text fill="#000000" font-family="sans-serif" font-size="14" lengthAdjust="spacing" textLength="76.4326" x="1300.3154" y="1392.0889">Enrollment</text><ellipse cx="1341.5317" cy="1411.3906" fill="#E2E2F0" rx="12" ry="12" style="stroke:#181818;stroke-width:0.5;"/><line style="stroke:#181818;stroke-width:0.5;" x1="1329.5317" x2="1353.5317" y1="1425.3906" y2="1425.3906"/></g><g class="participant participant-head" data-entity-uid="part7" data-qualified-name="CDB" id="part7-head"><text fill="#000000" font-family="sans-serif" font-size="14" lengthAdjust="spacing" textLength="69.2617" x="1523.9326" y="84.1279">CourseDB</text><path d="M1543.5635,35.1328 C1543.5635,25.1328 1561.5635,25.1328 1561.5635,25.1328 C1561.5635,25.1328 1579.5635,25.1328 1579.5635,35.1328 L1579.5635,61.1328 C1579.5635,71.1328 1561.5635,71.1328 1561.5635,71.1328 C1561.5635,71.1328 1543.5635,71.1328 1543.5635,61.1328 L1543.5635,35.1328" fill="#E2E2F0" style="stroke:#181818;stroke-width:0.5;"/><path d="M1543.5635,35.1328 C1543.5635,45.1328 1561.5635,45.1328 1561.5635,45.1328 C1561.5635,45.1328 1579.5635,45.1328 1579.5635,35.1328" fill="none" style="stroke:#181818;stroke-width:0.5;"/></g><g class="participant participant-tail" data-entity-uid="part7" data-qualified-name="CDB" id="part7-tail"><text fill="#000000" font-family="sans-serif" font-size="14" lengthAdjust="spacing" textLength="69.2617" x="1523.9326" y="1392.0889">CourseDB</text><path d="M1543.5635,1405.3906 C1543.5635,1395.3906 1561.5635,1395.3906 1561.5635,1395.3906 C1561.5635,1395.3906 1579.5635,1395.3906 1579.5635,1405.3906 L1579.5635,1431.3906 C1579.5635,1441.3906 1561.5635,1441.3906 1561.5635,1441.3906 C1561.5635,1441.3906 1543.5635,1441.3906 1543.5635,1431.3906 L1543.5635,1405.3906" fill="#E2E2F0" style="stroke:#181818;stroke-width:0.5;"/><path d="M1543.5635,1405.3906 C1543.5635,1415.3906 1561.5635,1415.3906 1561.5635,1415.3906 C1561.5635,1415.3906 1579.5635,1415.3906 1579.5635,1405.3906" fill="none" style="stroke:#181818;stroke-width:0.5;"/></g><g><title>Learner</title><rect fill="#FFFFFF" height="153.6641" style="stroke:#181818;stroke-width:1;" width="10" x="74.9951" y="118.5625"/></g><g><title>WebApp</title><rect fill="#FFFFFF" height="153.6641" style="stroke:#181818;stroke-width:1;" width="10" x="326.4897" y="118.5625"/></g><g><title>API Gateway</title><rect fill="#FFFFFF" height="367.3984" style="stroke:#181818;stroke-width:1;" width="10" x="579.144" y="147.6953"/></g><g><title>EnrollmentController</title><rect fill="#FFFFFF" height="169.7969" style="stroke:#181818;stroke-width:1;" width="10" x="809.2876" y="316.1641"/></g><g><title>CourseApp</title><rect fill="#FFFFFF" height="886.2656" style="stroke:#181818;stroke-width:1;" width="10" x="1061.9165" y="345.2969"/></g><g><title>Enrollment</title><rect fill="#FFFFFF" height="86.3984" style="stroke:#181818;stroke-width:1;" width="10" x="1336.5317" y="1057.7656"/></g><g><title>CourseDB</title><rect fill="#FFFFFF" height="53.2656" style="stroke:#181818;stroke-width:1;" width="10" x="1556.5635" y="374.4297"/></g><g><title>CourseDB</title><rect fill="#FFFFFF" height="53.2656" style="stroke:#181818;stroke-width:1;" width="10" x="1556.5635" y="814.8984"/></g><g><title>CourseDB</title><rect fill="#FFFFFF" height="29.1328" style="stroke:#181818;stroke-width:1;" width="10" x="1556.5635" y="1173.2969"/></g><g class="message" data-entity-1="part1" data-entity-2="part2" id="msg1"><polygon fill="#181818" points="314.4897,114.5625,324.4897,118.5625,314.4897,122.5625,318.4897,118.5625" style="stroke:#181818;stroke-width:1;"/><line style="stroke:#181818;stroke-width:1;" x1="84.9951" x2="320.4897" y1="118.5625" y2="118.5625"/><text fill="#000000" font-family="sans-serif" font-size="13" font-weight="bold" lengthAdjust="spacing" textLength="9.0454" x="91.9951" y="113.4966">1</text><text fill="#000000" font-family="sans-serif" font-size="13" lengthAdjust="spacing" textLength="214.4492" x="105.0405" y="113.4966">Click "Enroll Now" on free course</text></g><g class="message" data-entity-1="part2" data-entity-2="part3" id="msg2"><polygon fill="#181818" points="567.144,143.6953,577.144,147.6953,567.144,151.6953,571.144,147.6953" style="stroke:#181818;stroke-width:1;"/><line style="stroke:#181818;stroke-width:1;" x1="336.4897" x2="573.144" y1="147.6953" y2="147.6953"/><text fill="#000000" font-family="sans-serif" font-size="13" font-weight="bold" lengthAdjust="spacing" textLength="9.0454" x="343.4897" y="142.6294">2</text><text fill="#000000" font-family="sans-serif" font-size="13" lengthAdjust="spacing" textLength="210.6089" x="356.5352" y="142.6294">POST /courses/{courseId}/enroll</text></g><g class="message" data-entity-1="part3" data-entity-2="part3" id="msg3"><line style="stroke:#181818;stroke-width:1;" x1="589.144" x2="631.144" y1="176.8281" y2="176.8281"/><line style="stroke:#181818;stroke-width:1;" x1="631.144" x2="631.144" y1="176.8281" y2="189.8281"/><line style="stroke:#181818;stroke-width:1;" x1="590.144" x2="631.144" y1="189.8281" y2="189.8281"/><polygon fill="#181818" points="600.144,185.8281,590.144,189.8281,600.144,193.8281,596.144,189.8281" style="stroke:#181818;stroke-width:1;"/><text fill="#000000" font-family="sans-serif" font-size="13" font-weight="bold" lengthAdjust="spacing" textLength="9.0454" x="596.144" y="171.7622">3</text><text fill="#000000" font-family="sans-serif" font-size="13" lengthAdjust="spacing" textLength="183.0981" x="609.1895" y="171.7622">Validate JWT, extract userID</text></g><path d="M10,204.8281 L74.4429,204.8281 L74.4429,211.9609 L64.4429,221.9609 L10,221.9609 L10,204.8281" fill="#EEEEEE" style="stroke:#000000;stroke-width:1.5;"/><rect fill="none" height="1158.2656" style="stroke:#000000;stroke-width:1.5;" width="1629.1943" x="10" y="204.8281"/><text fill="#000000" font-family="sans-serif" font-size="13" font-weight="bold" lengthAdjust="spacing" textLength="19.4429" x="25" y="217.895">alt</text><text fill="#000000" font-family="sans-serif" font-size="11" font-weight="bold" lengthAdjust="spacing" textLength="123.1055" x="89.4429" y="217.0386">[Not authenticated]</text><g class="message" data-entity-1="part3" data-entity-2="part2" id="msg4"><polygon fill="#181818" points="347.4897,239.0938,337.4897,243.0938,347.4897,247.0938,343.4897,243.0938" style="stroke:#181818;stroke-width:1;"/><line style="stroke:#181818;stroke-width:1;stroke-dasharray:2,2;" x1="341.4897" x2="578.144" y1="243.0938" y2="243.0938"/><text fill="#000000" font-family="sans-serif" font-size="13" font-weight="bold" lengthAdjust="spacing" textLength="9.0454" x="353.4897" y="238.0278">4</text><text fill="#000000" font-family="sans-serif" font-size="13" lengthAdjust="spacing" textLength="116.2256" x="366.5352" y="238.0278">401 Unauthorized</text></g><g class="message" data-entity-1="part2" data-entity-2="part1" id="msg5"><polygon fill="#181818" points="90.9951,268.2266,80.9951,272.2266,90.9951,276.2266,86.9951,272.2266" style="stroke:#181818;stroke-width:1;"/><line style="stroke:#181818;stroke-width:1;" x1="84.9951" x2="330.4897" y1="272.2266" y2="272.2266"/><text fill="#000000" font-family="sans-serif" font-size="13" font-weight="bold" lengthAdjust="spacing" textLength="9.0454" x="96.9951" y="267.1606">5</text><text fill="#000000" font-family="sans-serif" font-size="13" lengthAdjust="spacing" textLength="144.0664" x="110.0405" y="267.1606">Redirect to login page</text></g><line style="stroke:#000000;stroke-width:1;stroke-dasharray:2,2;" x1="10" x2="1639.1943" y1="281.2266" y2="281.2266"/><text fill="#000000" font-family="sans-serif" font-size="11" font-weight="bold" lengthAdjust="spacing" textLength="98.3447" x="15" y="291.437">[Authenticated]</text><g class="message" data-entity-1="part3" data-entity-2="part4" id="msg6"><polygon fill="#181818" points="797.2876,312.1641,807.2876,316.1641,797.2876,320.1641,801.2876,316.1641" style="stroke:#181818;stroke-width:1;"/><line style="stroke:#181818;stroke-width:1;" x1="589.144" x2="803.2876" y1="316.1641" y2="316.1641"/><text fill="#000000" font-family="sans-serif" font-size="13" font-weight="bold" lengthAdjust="spacing" textLength="9.0454" x="596.144" y="311.0981">6</text><text fill="#000000" font-family="sans-serif" font-size="13" lengthAdjust="spacing" textLength="106.8057" x="609.1895" y="311.0981">Forward request</text></g><g class="message" data-entity-1="part4" data-entity-2="part5" id="msg7"><polygon fill="#181818" points="1049.9165,341.2969,1059.9165,345.2969,1049.9165,349.2969,1053.9165,345.2969" style="stroke:#181818;stroke-width:1;"/><line style="stroke:#181818;stroke-width:1;" x1="819.2876" x2="1055.9165" y1="345.2969" y2="345.2969"/><text fill="#000000" font-family="sans-serif" font-size="13" font-weight="bold" lengthAdjust="spacing" textLength="9.0454" x="826.2876" y="340.231">7</text><text fill="#000000" font-family="sans-serif" font-size="13" lengthAdjust="spacing" textLength="210.5835" x="839.333" y="340.231">EnrollInCourse(courseId, userID)</text></g><g class="message" data-entity-1="part5" data-entity-2="part7" id="msg8"><polygon fill="#181818" points="1544.5635,370.4297,1554.5635,374.4297,1544.5635,378.4297,1548.5635,374.4297" style="stroke:#181818;stroke-width:1;"/><line style="stroke:#181818;stroke-width:1;" x1="1071.9165" x2="1550.5635" y1="374.4297" y2="374.4297"/><text fill="#000000" font-family="sans-serif" font-size="13" font-weight="bold" lengthAdjust="spacing" textLength="9.0454" x="1078.9165" y="369.3638">8</text><text fill="#000000" font-family="sans-serif" font-size="13" lengthAdjust="spacing" textLength="75.1689" x="1091.9619" y="369.3638">Find course</text></g><path d="M20,389.4297 L84.4429,389.4297 L84.4429,396.5625 L74.4429,406.5625 L20,406.5625 L20,389.4297" fill="#EEEEEE" style="stroke:#000000;stroke-width:1.5;"/><rect fill="none" height="966.6641" style="stroke:#000000;stroke-width:1.5;" width="1609.1943" x="20" y="389.4297"/><text fill="#000000" font-family="sans-serif" font-size="13" font-weight="bold" lengthAdjust="spacing" textLength="19.4429" x="35" y="402.4966">alt</text><text fill="#000000" font-family="sans-serif" font-size="11" font-weight="bold" lengthAdjust="spacing" textLength="206.4595" x="99.4429" y="401.6401">[Course not found/not published]</text><g class="message" data-entity-1="part7" data-entity-2="part5" id="msg9"><polygon fill="#181818" points="1082.9165,423.6953,1072.9165,427.6953,1082.9165,431.6953,1078.9165,427.6953" style="stroke:#181818;stroke-width:1;"/><line style="stroke:#181818;stroke-width:1;stroke-dasharray:2,2;" x1="1076.9165" x2="1560.5635" y1="427.6953" y2="427.6953"/><text fill="#000000" font-family="sans-serif" font-size="13" font-weight="bold" lengthAdjust="spacing" textLength="9.0454" x="1088.9165" y="422.6294">9</text><text fill="#000000" font-family="sans-serif" font-size="13" lengthAdjust="spacing" textLength="64.1685" x="1101.9619" y="422.6294">Not found</text></g><g class="message" data-entity-1="part5" data-entity-2="part4" id="msg10"><polygon fill="#181818" points="830.2876,452.8281,820.2876,456.8281,830.2876,460.8281,826.2876,456.8281" style="stroke:#181818;stroke-width:1;"/><line style="stroke:#181818;stroke-width:1;stroke-dasharray:2,2;" x1="824.2876" x2="1060.9165" y1="456.8281" y2="456.8281"/><text fill="#000000" font-family="sans-serif" font-size="13" font-weight="bold" lengthAdjust="spacing" textLength="18.0908" x="836.2876" y="451.7622">10</text><text fill="#000000" font-family="sans-serif" font-size="13" lengthAdjust="spacing" textLength="96.0146" x="858.3784" y="451.7622">404 Not Found</text></g><g class="message" data-entity-1="part4" data-entity-2="part3" id="msg11"><polygon fill="#181818" points="600.144,481.9609,590.144,485.9609,600.144,489.9609,596.144,485.9609" style="stroke:#181818;stroke-width:1;"/><line style="stroke:#181818;stroke-width:1;stroke-dasharray:2,2;" x1="594.144" x2="813.2876" y1="485.9609" y2="485.9609"/><text fill="#000000" font-family="sans-serif" font-size="13" font-weight="bold" lengthAdjust="spacing" textLength="18.0908" x="606.144" y="480.895">11</text><text fill="#000000" font-family="sans-serif" font-size="13" lengthAdjust="spacing" textLength="32.2017" x="628.2349" y="480.895">Error</text></g><g class="message" data-entity-1="part3" data-entity-2="part2" id="msg12"><polygon fill="#181818" points="342.4897,511.0938,332.4897,515.0938,342.4897,519.0938,338.4897,515.0938" style="stroke:#181818;stroke-width:1;"/><line style="stroke:#181818;stroke-width:1;stroke-dasharray:2,2;" x1="336.4897" x2="583.144" y1="515.0938" y2="515.0938"/><text fill="#000000" font-family="sans-serif" font-size="13" font-weight="bold" lengthAdjust="spacing" textLength="18.0908" x="348.4897" y="510.0278">12</text><text fill="#000000" font-family="sans-serif" font-size="13" lengthAdjust="spacing" textLength="32.2017" x="370.5806" y="510.0278">Error</text></g><g class="message" data-entity-1="part2" data-entity-2="part1" id="msg13"><polygon fill="#181818" points="90.9951,540.2266,80.9951,544.2266,90.9951,548.2266,86.9951,544.2266" style="stroke:#181818;stroke-width:1;"/><line style="stroke:#181818;stroke-width:1;" x1="84.9951" x2="330.4897" y1="544.2266" y2="544.2266"/><text fill="#000000" font-family="sans-serif" font-size="13" font-weight="bold" lengthAdjust="spacing" textLength="18.0908" x="96.9951" y="539.1606">13</text><text fill="#000000" font-family="sans-serif" font-size="13" lengthAdjust="spacing" textLength="84.0366" x="119.0859" y="539.1606">Display error</text></g><line style="stroke:#000000;stroke-width:1;stroke-dasharray:2,2;" x1="20" x2="1629.1943" y1="553.2266" y2="553.2266"/><text fill="#000000" font-family="sans-serif" font-size="11" font-weight="bold" lengthAdjust="spacing" textLength="92.6567" x="25" y="563.437">[Course found]</text><g class="message" data-entity-1="part7" data-entity-2="part5" id="msg14"><polygon fill="#181818" points="1082.9165,584.1641,1072.9165,588.1641,1082.9165,592.1641,1078.9165,588.1641" style="stroke:#181818;stroke-width:1;"/><line style="stroke:#181818;stroke-width:1;stroke-dasharray:2,2;" x1="1076.9165" x2="1560.5635" y1="588.1641" y2="588.1641"/><text fill="#000000" font-family="sans-serif" font-size="13" font-weight="bold" lengthAdjust="spacing" textLength="18.0908" x="1088.9165" y="583.0981">14</text><text fill="#000000" font-family="sans-serif" font-size="13" lengthAdjust="spacing" textLength="78.7998" x="1111.0073" y="583.0981">Course data</text></g><g class="message" data-entity-1="part5" data-entity-2="part5" id="msg15"><line style="stroke:#181818;stroke-width:1;" x1="1071.9165" x2="1113.9165" y1="617.2969" y2="617.2969"/><line style="stroke:#181818;stroke-width:1;" x1="1113.9165" x2="1113.9165" y1="617.2969" y2="630.2969"/><line style="stroke:#181818;stroke-width:1;" x1="1072.9165" x2="1113.9165" y1="630.2969" y2="630.2969"/><polygon fill="#181818" points="1082.9165,626.2969,1072.9165,630.2969,1082.9165,634.2969,1078.9165,630.2969" style="stroke:#181818;stroke-width:1;"/><text fill="#000000" font-family="sans-serif" font-size="13" font-weight="bold" lengthAdjust="spacing" textLength="18.0908" x="1078.9165" y="612.231">15</text><text fill="#000000" font-family="sans-serif" font-size="13" lengthAdjust="spacing" textLength="218.5244" x="1101.0073" y="612.231">Check if course is free (price = 0)</text></g><path d="M30,645.2969 L94.4429,645.2969 L94.4429,652.4297 L84.4429,662.4297 L30,662.4297 L30,645.2969" fill="#EEEEEE" style="stroke:#000000;stroke-width:1.5;"/><rect fill="none" height="703.7969" style="stroke:#000000;stroke-width:1.5;" width="1589.1943" x="30" y="645.2969"/><text fill="#000000" font-family="sans-serif" font-size="13" font-weight="bold" lengthAdjust="spacing" textLength="19.4429" x="45" y="658.3638">alt</text><text fill="#000000" font-family="sans-serif" font-size="11" font-weight="bold" lengthAdjust="spacing" textLength="166.8799" x="109.4429" y="657.5073">[Course requires payment]</text><g class="message" data-entity-1="part5" data-entity-2="part4" id="msg16"><polygon fill="#181818" points="825.2876,679.5625,815.2876,683.5625,825.2876,687.5625,821.2876,683.5625" style="stroke:#181818;stroke-width:1;"/><line style="stroke:#181818;stroke-width:1;stroke-dasharray:2,2;" x1="819.2876" x2="1060.9165" y1="683.5625" y2="683.5625"/><text fill="#000000" font-family="sans-serif" font-size="13" font-weight="bold" lengthAdjust="spacing" textLength="18.0908" x="831.2876" y="678.4966">16</text><text fill="#000000" font-family="sans-serif" font-size="13" lengthAdjust="spacing" textLength="149.3032" x="853.3784" y="678.4966">402 Payment Required</text></g><g class="message" data-entity-1="part4" data-entity-2="part3" id="msg17"><polygon fill="#181818" points="595.144,708.6953,585.144,712.6953,595.144,716.6953,591.144,712.6953" style="stroke:#181818;stroke-width:1;"/><line style="stroke:#181818;stroke-width:1;stroke-dasharray:2,2;" x1="589.144" x2="813.2876" y1="712.6953" y2="712.6953"/><text fill="#000000" font-family="sans-serif" font-size="13" font-weight="bold" lengthAdjust="spacing" textLength="18.0908" x="601.144" y="707.6294">17</text><text fill="#000000" font-family="sans-serif" font-size="13" lengthAdjust="spacing" textLength="32.2017" x="623.2349" y="707.6294">Error</text></g><g class="message" data-entity-1="part3" data-entity-2="part2" id="msg18"><polygon fill="#181818" points="342.4897,737.8281,332.4897,741.8281,342.4897,745.8281,338.4897,741.8281" style="stroke:#181818;stroke-width:1;"/><line style="stroke:#181818;stroke-width:1;stroke-dasharray:2,2;" x1="336.4897" x2="583.144" y1="741.8281" y2="741.8281"/><text fill="#000000" font-family="sans-serif" font-size="13" font-weight="bold" lengthAdjust="spacing" textLength="18.0908" x="348.4897" y="736.7622">18</text><text fill="#000000" font-family="sans-serif" font-size="13" lengthAdjust="spacing" textLength="135.1479" x="370.5806" y="736.7622">Redirect to checkout</text></g><g class="message" data-entity-1="part2" data-entity-2="part1" id="msg19"><polygon fill="#181818" points="90.9951,766.9609,80.9951,770.9609,90.9951,774.9609,86.9951,770.9609" style="stroke:#181818;stroke-width:1;"/><line style="stroke:#181818;stroke-width:1;" x1="84.9951" x2="330.4897" y1="770.9609" y2="770.9609"/><text fill="#000000" font-family="sans-serif" font-size="13" font-weight="bold" lengthAdjust="spacing" textLength="18.0908" x="96.9951" y="765.895">19</text><text fill="#000000" font-family="sans-serif" font-size="13" lengthAdjust="spacing" textLength="179.1372" x="119.0859" y="765.895">Redirect to Billing checkout</text></g><line style="stroke:#000000;stroke-width:1;stroke-dasharray:2,2;" x1="30" x2="1619.1943" y1="779.9609" y2="779.9609"/><text fill="#000000" font-family="sans-serif" font-size="11" font-weight="bold" lengthAdjust="spacing" textLength="96.0566" x="35" y="790.1714">[Course is free]</text><g class="message" data-entity-1="part5" data-entity-2="part7" id="msg20"><polygon fill="#181818" points="1544.5635,810.8984,1554.5635,814.8984,1544.5635,818.8984,1548.5635,814.8984" style="stroke:#181818;stroke-width:1;"/><line style="stroke:#181818;stroke-width:1;" x1="1071.9165" x2="1550.5635" y1="814.8984" y2="814.8984"/><text fill="#000000" font-family="sans-serif" font-size="13" font-weight="bold" lengthAdjust="spacing" textLength="18.0908" x="1078.9165" y="809.8325">20</text><text fill="#000000" font-family="sans-serif" font-size="13" lengthAdjust="spacing" textLength="170.2886" x="1101.0073" y="809.8325">Check existing enrollment</text></g><path d="M40,829.8984 L104.4429,829.8984 L104.4429,837.0313 L94.4429,847.0313 L40,847.0313 L40,829.8984" fill="#EEEEEE" style="stroke:#000000;stroke-width:1.5;"/><rect fill="none" height="512.1953" style="stroke:#000000;stroke-width:1.5;" width="1569.1943" x="40" y="829.8984"/><text fill="#000000" font-family="sans-serif" font-size="13" font-weight="bold" lengthAdjust="spacing" textLength="19.4429" x="55" y="842.9653">alt</text><text fill="#000000" font-family="sans-serif" font-size="11" font-weight="bold" lengthAdjust="spacing" textLength="112.6694" x="119.4429" y="842.1089">[Already enrolled]</text><g class="message" data-entity-1="part7" data-entity-2="part5" id="msg21"><polygon fill="#181818" points="1082.9165,864.1641,1072.9165,868.1641,1082.9165,872.1641,1078.9165,868.1641" style="stroke:#181818;stroke-width:1;"/><line style="stroke:#181818;stroke-width:1;stroke-dasharray:2,2;" x1="1076.9165" x2="1560.5635" y1="868.1641" y2="868.1641"/><text fill="#000000" font-family="sans-serif" font-size="13" font-weight="bold" lengthAdjust="spacing" textLength="18.0908" x="1088.9165" y="863.0981">21</text><text fill="#000000" font-family="sans-serif" font-size="13" lengthAdjust="spacing" textLength="113.0518" x="1111.0073" y="863.0981">Enrollment exists</text></g><g class="message" data-entity-1="part5" data-entity-2="part4" id="msg22"><polygon fill="#181818" points="825.2876,893.2969,815.2876,897.2969,825.2876,901.2969,821.2876,897.2969" style="stroke:#181818;stroke-width:1;"/><line style="stroke:#181818;stroke-width:1;stroke-dasharray:2,2;" x1="819.2876" x2="1060.9165" y1="897.2969" y2="897.2969"/><text fill="#000000" font-family="sans-serif" font-size="13" font-weight="bold" lengthAdjust="spacing" textLength="18.0908" x="831.2876" y="892.231">22</text><text fill="#000000" font-family="sans-serif" font-size="13" lengthAdjust="spacing" textLength="78.2603" x="853.3784" y="892.231">409 Conflict</text></g><g class="message" data-entity-1="part4" data-entity-2="part3" id="msg23"><polygon fill="#181818" points="595.144,922.4297,585.144,926.4297,595.144,930.4297,591.144,926.4297" style="stroke:#181818;stroke-width:1;"/><line style="stroke:#181818;stroke-width:1;stroke-dasharray:2,2;" x1="589.144" x2="813.2876" y1="926.4297" y2="926.4297"/><text fill="#000000" font-family="sans-serif" font-size="13" font-weight="bold" lengthAdjust="spacing" textLength="18.0908" x="601.144" y="921.3638">23</text><text fill="#000000" font-family="sans-serif" font-size="13" lengthAdjust="spacing" textLength="32.2017" x="623.2349" y="921.3638">Error</text></g><g class="message" data-entity-1="part3" data-entity-2="part2" id="msg24"><polygon fill="#181818" points="342.4897,951.5625,332.4897,955.5625,342.4897,959.5625,338.4897,955.5625" style="stroke:#181818;stroke-width:1;"/><line style="stroke:#181818;stroke-width:1;stroke-dasharray:2,2;" x1="336.4897" x2="583.144" y1="955.5625" y2="955.5625"/><text fill="#000000" font-family="sans-serif" font-size="13" font-weight="bold" lengthAdjust="spacing" textLength="18.0908" x="348.4897" y="950.4966">24</text><text fill="#000000" font-family="sans-serif" font-size="13" lengthAdjust="spacing" textLength="32.2017" x="370.5806" y="950.4966">Error</text></g><g class="message" data-entity-1="part2" data-entity-2="part1" id="msg25"><polygon fill="#181818" points="90.9951,980.6953,80.9951,984.6953,90.9951,988.6953,86.9951,984.6953" style="stroke:#181818;stroke-width:1;"/><line style="stroke:#181818;stroke-width:1;" x1="84.9951" x2="330.4897" y1="984.6953" y2="984.6953"/><text fill="#000000" font-family="sans-serif" font-size="13" font-weight="bold" lengthAdjust="spacing" textLength="18.0908" x="96.9951" y="979.6294">25</text><text fill="#000000" font-family="sans-serif" font-size="13" lengthAdjust="spacing" textLength="170.9106" x="119.0859" y="979.6294">Display "Already enrolled"</text></g><line style="stroke:#000000;stroke-width:1;stroke-dasharray:2,2;" x1="40" x2="1609.1943" y1="993.6953" y2="993.6953"/><text fill="#000000" font-family="sans-serif" font-size="11" font-weight="bold" lengthAdjust="spacing" textLength="110.7734" x="45" y="1003.9058">[Not enrolled yet]</text><g class="message" data-entity-1="part7" data-entity-2="part5" id="msg26"><polygon fill="#181818" points="1082.9165,1024.6328,1072.9165,1028.6328,1082.9165,1032.6328,1078.9165,1028.6328" style="stroke:#181818;stroke-width:1;"/><line style="stroke:#181818;stroke-width:1;stroke-dasharray:2,2;" x1="1076.9165" x2="1560.5635" y1="1028.6328" y2="1028.6328"/><text fill="#000000" font-family="sans-serif" font-size="13" font-weight="bold" lengthAdjust="spacing" textLength="18.0908" x="1088.9165" y="1023.5669">26</text><text fill="#000000" font-family="sans-serif" font-size="13" lengthAdjust="spacing" textLength="147.9766" x="1111.0073" y="1023.5669">No existing enrollment</text></g><g class="message" data-entity-1="part5" data-entity-2="part6" id="msg27"><polygon fill="#181818" points="1324.5317,1053.7656,1334.5317,1057.7656,1324.5317,1061.7656,1328.5317,1057.7656" style="stroke:#181818;stroke-width:1;"/><line style="stroke:#181818;stroke-width:1;" x1="1071.9165" x2="1330.5317" y1="1057.7656" y2="1057.7656"/><text fill="#000000" font-family="sans-serif" font-size="13" font-weight="bold" lengthAdjust="spacing" textLength="18.0908" x="1078.9165" y="1052.6997">27</text><text fill="#000000" font-family="sans-serif" font-size="13" lengthAdjust="spacing" textLength="189.8457" x="1101.0073" y="1052.6997">Create Enrollment aggregate</text></g><g class="message" data-entity-1="part6" data-entity-2="part6" id="msg28"><line style="stroke:#181818;stroke-width:1;" x1="1346.5317" x2="1388.5317" y1="1102.0313" y2="1102.0313"/><line style="stroke:#181818;stroke-width:1;" x1="1388.5317" x2="1388.5317" y1="1102.0313" y2="1115.0313"/><line style="stroke:#181818;stroke-width:1;" x1="1347.5317" x2="1388.5317" y1="1115.0313" y2="1115.0313"/><polygon fill="#181818" points="1357.5317,1111.0313,1347.5317,1115.0313,1357.5317,1119.0313,1353.5317,1115.0313" style="stroke:#181818;stroke-width:1;"/><text fill="#000000" font-family="sans-serif" font-size="13" font-weight="bold" lengthAdjust="spacing" textLength="18.0908" x="1353.5317" y="1089.3989">28</text><text fill="#000000" font-family="sans-serif" font-size="13" lengthAdjust="spacing" textLength="137.376" x="1375.6226" y="1081.8325">Set userID, courseID,</text><text fill="#000000" font-family="sans-serif" font-size="13" lengthAdjust="spacing" textLength="163.9409" x="1375.6226" y="1096.9653">enrollmentDate = NOW()</text></g><g class="message" data-entity-1="part6" data-entity-2="part5" id="msg29"><polygon fill="#181818" points="1082.9165,1140.1641,1072.9165,1144.1641,1082.9165,1148.1641,1078.9165,1144.1641" style="stroke:#181818;stroke-width:1;"/><line style="stroke:#181818;stroke-width:1;stroke-dasharray:2,2;" x1="1076.9165" x2="1340.5317" y1="1144.1641" y2="1144.1641"/><text fill="#000000" font-family="sans-serif" font-size="13" font-weight="bold" lengthAdjust="spacing" textLength="18.0908" x="1088.9165" y="1139.0981">29</text><text fill="#000000" font-family="sans-serif" font-size="13" lengthAdjust="spacing" textLength="112.8423" x="1111.0073" y="1139.0981">Enrollment entity</text></g><g class="message" data-entity-1="part5" data-entity-2="part7" id="msg30"><polygon fill="#181818" points="1544.5635,1169.2969,1554.5635,1173.2969,1544.5635,1177.2969,1548.5635,1173.2969" style="stroke:#181818;stroke-width:1;"/><line style="stroke:#181818;stroke-width:1;" x1="1071.9165" x2="1550.5635" y1="1173.2969" y2="1173.2969"/><text fill="#000000" font-family="sans-serif" font-size="13" font-weight="bold" lengthAdjust="spacing" textLength="18.0908" x="1078.9165" y="1168.231">30</text><text fill="#000000" font-family="sans-serif" font-size="13" lengthAdjust="spacing" textLength="106.7993" x="1101.0073" y="1168.231">Save enrollment</text></g><g class="message" data-entity-1="part7" data-entity-2="part5" id="msg31"><polygon fill="#181818" points="1082.9165,1198.4297,1072.9165,1202.4297,1082.9165,1206.4297,1078.9165,1202.4297" style="stroke:#181818;stroke-width:1;"/><line style="stroke:#181818;stroke-width:1;stroke-dasharray:2,2;" x1="1076.9165" x2="1560.5635" y1="1202.4297" y2="1202.4297"/><text fill="#000000" font-family="sans-serif" font-size="13" font-weight="bold" lengthAdjust="spacing" textLength="18.0908" x="1088.9165" y="1197.3638">31</text><text fill="#000000" font-family="sans-serif" font-size="13" lengthAdjust="spacing" textLength="113.7881" x="1111.0073" y="1197.3638">Enrollment saved</text></g><g class="message" data-entity-1="part5" data-entity-2="part4" id="msg32"><polygon fill="#181818" points="825.2876,1227.5625,815.2876,1231.5625,825.2876,1235.5625,821.2876,1231.5625" style="stroke:#181818;stroke-width:1;"/><line style="stroke:#181818;stroke-width:1;stroke-dasharray:2,2;" x1="819.2876" x2="1065.9165" y1="1231.5625" y2="1231.5625"/><text fill="#000000" font-family="sans-serif" font-size="13" font-weight="bold" lengthAdjust="spacing" textLength="18.0908" x="831.2876" y="1226.4966">32</text><text fill="#000000" font-family="sans-serif" font-size="13" lengthAdjust="spacing" textLength="99.1567" x="853.3784" y="1226.4966">EnrollmentDTO</text></g><g class="message" data-entity-1="part4" data-entity-2="part3" id="msg33"><polygon fill="#181818" points="595.144,1256.6953,585.144,1260.6953,595.144,1264.6953,591.144,1260.6953" style="stroke:#181818;stroke-width:1;"/><line style="stroke:#181818;stroke-width:1;stroke-dasharray:2,2;" x1="589.144" x2="813.2876" y1="1260.6953" y2="1260.6953"/><text fill="#000000" font-family="sans-serif" font-size="13" font-weight="bold" lengthAdjust="spacing" textLength="18.0908" x="601.144" y="1255.6294">33</text><text fill="#000000" font-family="sans-serif" font-size="13" lengthAdjust="spacing" textLength="80.6787" x="623.2349" y="1255.6294">201 Created</text></g><g class="message" data-entity-1="part3" data-entity-2="part2" id="msg34"><polygon fill="#181818" points="342.4897,1285.8281,332.4897,1289.8281,342.4897,1293.8281,338.4897,1289.8281" style="stroke:#181818;stroke-width:1;"/><line style="stroke:#181818;stroke-width:1;stroke-dasharray:2,2;" x1="336.4897" x2="583.144" y1="1289.8281" y2="1289.8281"/><text fill="#000000" font-family="sans-serif" font-size="13" font-weight="bold" lengthAdjust="spacing" textLength="18.0908" x="348.4897" y="1284.7622">34</text><text fill="#000000" font-family="sans-serif" font-size="13" lengthAdjust="spacing" textLength="125.9565" x="370.5806" y="1284.7622">Enrollment success</text></g><g class="message" data-entity-1="part2" data-entity-2="part1" id="msg35"><polygon fill="#181818" points="90.9951,1330.0938,80.9951,1334.0938,90.9951,1338.0938,86.9951,1334.0938" style="stroke:#181818;stroke-width:1;"/><line style="stroke:#181818;stroke-width:1;" x1="84.9951" x2="330.4897" y1="1334.0938" y2="1334.0938"/><text fill="#000000" font-family="sans-serif" font-size="13" font-weight="bold" lengthAdjust="spacing" textLength="18.0908" x="96.9951" y="1321.4614">35</text><text fill="#000000" font-family="sans-serif" font-size="13" lengthAdjust="spacing" textLength="180.1401" x="119.0859" y="1313.895">Display success notification</text><text fill="#000000" font-family="sans-serif" font-size="13" lengthAdjust="spacing" textLength="163.6108" x="119.0859" y="1329.0278">Redirect to Course Detail</text></g><?plantuml-src dLLDRnen4BtlhnZHIo8boeTwAMegBGk9KY4IbRIeKYw67OWLnwPURu1M_UyTVx0OCAtIGyYkvyruvhrdBwkDalNB67MMLSzSpfbcBz1HotjMbbpEuE8yozZ4A0rzP5gY1bP1FnkhMfPChs24utm-jukZFAFb9RJo-rkuOGONRDM2Ttq-Up8TKMC6C57IQ2Ls89HxCyfGba3feKQXQbqX356_yWckotn78TGYAjIJz2jUK9h2hmZVOA-8GBvMwBB8AK9uRbPHjikXGCaC6pFQsETqEowbszbqruVJJpHg6mh19y_GyZLWe1OjK1Ac6f4sjicMDlvAGn9TpQCbQPJR6ZUZDjpV3H_WpCEhir_-uRRyVOQkwYQD-BaPhRE-CS5Bk_fvz702k3IQS51Ng6-x99Omr0rDL9idE-U4a2MDHhj-F3rr1TwVNy1NQG5Ayv_hA5Nlj-4BbbmZrJCAX9fn2NCsizgL60-nzTxFK11d-SwElkDUqOPhfHTCbw3nHusLeLYJIqhHQw-mq89ezNpUIY_0qPgIap3VSPnBMj9huLedaMWVJZ85zcCS2MZVYPdWAqa4JQs5p-pJl1uBNZsvfbqzIvGhE5ZZN2GQsPQqIzIu0-UMrVSEVztWYG0Rj0pqj5PwjuXpwPOoIHY97s1UeYwlveAj05DWfysEEcHuqNWwcYUUD0Jj0KZDkiO7bOed9FFpQI0RUEMTVpJNT5pX2iwFVKh4kHMVh5MHeLRspBdu3eENSE-3v4E7BWCgIMMAp2qwOpDFRCkgDlkPWTy3Xw33XR0NuU7yGFaUwTkq1ue2D3AjvnANl39s7smkfG3Try7JcWkDh5o5X8QfRLcZAyxjK3MeX9dtvFX0pSifNNIcYHyG8Yt50MyVuZ_XyTRkbArKXKQ1X0P11NiorpLWXIR9ra3zHOVqcTY8sICfgLSxV_HTcSqqpcYn0MzOsd0UqeUuliPFmi6YfqUvwQHhywvWS3SwEjuTeBSjjll29SNPxTjDFcIlc1evwP431gkeHlbFiYA3RNAx3tV9n3pbkqlwV7ccopUuB-gpdaomgjvgnP1clnryQZzoNCb76LyLuQHtqJ0k_iEduLhs_-sl_Vi3?></g></svg>