<?plantuml 1.2026.1?><svg xmlns="http://www.w3.org/2000/svg" xmlns:xlink="http://www.w3.org/1999/xlink" contentStyleType="text/css" data-diagram-type="SEQUENCE" height="1202px" preserveAspectRatio="none" style="width:1621px;height:1202px;background:#FFFFFF;" version="1.1" viewBox="0 0 1621 1202" width="1621px" zoomAndPan="magnify"><defs/><g><rect fill="#ADD8E6" height="1190.5859" style="stroke:#181818;stroke-width:0.5;" width="102.4434" x="579.5884" y="6"/><text fill="#000000" font-family="sans-serif" font-size="13" font-weight="bold" lengthAdjust="spacing" textLength="92.6821" x="584.469" y="18.0669">API Gateway</text><rect fill="#FFFFE0" height="1190.5859" style="stroke:#181818;stroke-width:0.5;" width="807.0508" x="791.7871" y="6"/><text fill="#000000" font-family="sans-serif" font-size="13" font-weight="bold" lengthAdjust="spacing" textLength="109.2622" x="1140.6814" y="18.0669">Course Service</text><g><title>Admin</title><rect fill="#FFFFFF" height="399.7266" style="stroke:#181818;stroke-width:1;" width="10" x="50.4321" y="118.5625"/></g><g><title>WebApp</title><rect fill="#FFFFFF" height="399.7266" style="stroke:#181818;stroke-width:1;" width="10" x="319.6685" y="118.5625"/></g><g><title>API Gateway</title><rect fill="#FFFFFF" height="270.1953" style="stroke:#181818;stroke-width:1;" width="10" x="625.8101" y="218.9609"/></g><g><title>AdminCourseController</title><rect fill="#FFFFFF" height="169.7969" style="stroke:#181818;stroke-width:1;" width="10" x="875.2441" y="290.2266"/></g><g><title>CourseApp</title><rect fill="#FFFFFF" height="663.3984" style="stroke:#181818;stroke-width:1;" width="10" x="1120.8398" y="319.3594"/></g><g><title>Course</title><rect fill="#FFFFFF" height="71.2656" style="stroke:#181818;stroke-width:1;" width="10" x="1359.7939" y="788.9609"/></g><g><title>CourseDB</title><rect fill="#FFFFFF" height="53.2656" style="stroke:#181818;stroke-width:1;" width="10" x="1552.207" y="348.4922"/></g><g><title>CourseDB</title><rect fill="#FFFFFF" height="29.1328" style="stroke:#181818;stroke-width:1;" width="10" x="1552.207" y="889.3594"/></g><rect fill="none" height="736.7969" style="stroke:#000000;stroke-width:1.5;" width="1604.8379" x="10" y="363.4922"/><rect fill="none" height="473.9297" style="stroke:#000000;stroke-width:1.5;" width="1584.8379" x="20" y="619.3594"/><g class="participant-lifeline" data-entity-uid="part1" data-qualified-name="A" id="part1-lifeline"><g><title>Admin</title><rect fill="#000000" fill-opacity="0.00000" height="1029.8594" width="8" x="51.4321" y="87.4297"/><line style="stroke:#181818;stroke-width:0.5;stroke-dasharray:5,5;" x1="55" x2="55" y1="87.4297" y2="1117.2891"/></g></g><g class="participant-lifeline" data-entity-uid="part2" data-qualified-name="WA" id="part2-lifeline"><g><title>WebApp</title><rect fill="#000000" fill-opacity="0.00000" height="1029.8594" width="8" x="320.6685" y="87.4297"/><line style="stroke:#181818;stroke-width:0.5;stroke-dasharray:5,5;" x1="324.3218" x2="324.3218" y1="87.4297" y2="1117.2891"/></g></g><g class="participant-lifeline" data-entity-uid="part3" data-qualified-name="GW" id="part3-lifeline"><g><title>API Gateway</title><rect fill="#000000" fill-opacity="0.00000" height="1029.8594" width="8" x="626.8101" y="87.4297"/><line style="stroke:#181818;stroke-width:0.5;stroke-dasharray:5,5;" x1="630.5884" x2="630.5884" y1="87.4297" y2="1117.2891"/></g></g><g class="participant-lifeline" data-entity-uid="part4" data-qualified-name="ACC" id="part4-lifeline"><g><title>AdminCourseController</title><rect fill="#000000" fill-opacity="0.00000" height="1029.8594" width="8" x="876.2441" y="87.4297"/><line style="stroke:#181818;stroke-width:0.5;stroke-dasharray:5,5;" x1="879.7871" x2="879.7871" y1="87.4297" y2="1117.2891"/></g></g><g class="participant-lifeline" data-entity-uid="part5" data-qualified-name="CA" id="part5-lifeline"><g><title>CourseApp</title><rect fill="#000000" fill-opacity="0.00000" height="1029.8594" width="8" x="1121.8398" y="87.4297"/><line style="stroke:#181818;stroke-width:0.5;stroke-dasharray:5,5;" x1="1125.7261" x2="1125.7261" y1="87.4297" y2="1117.2891"/></g></g><g class="participant-lifeline" data-entity-uid="part6" data-qualified-name="C" id="part6-lifeline"><g><title>Course</title><rect fill="#000000" fill-opacity="0.00000" height="1029.8594" width="8" x="1360.7939" y="87.4297"/><line style="stroke:#181818;stroke-width:0.5;stroke-dasharray:5,5;" x1="1364.3555" x2="1364.3555" y1="87.4297" y2="1117.2891"/></g></g><g class="participant-lifeline" data-entity-uid="part7" data-qualified-name="CDB" id="part7-lifeline"><g><title>CourseDB</title><rect fill="#000000" fill-opacity="0.00000" height="1029.8594" width="8" x="1553.207" y="87.4297"/><line style="stroke:#181818;stroke-width:0.5;stroke-dasharray:5,5;" x1="1556.5762" x2="1556.5762" y1="87.4297" y2="1117.2891"/></g></g><g class="participant participant-head" data-entity-uid="part1" data-qualified-name="A" id="part1-head"><text fill="#000000" font-family="sans-serif" font-size="14" lengthAdjust="spacing" textLength="44.8643" x="30" y="84.1279">Admin</text><ellipse cx="55.4321" cy="19.6328" fill="#E2E2F0" rx="8" ry="8" style="stroke:#181818;stroke-width:0.5;"/><path d="M55.4321,27.6328 L55.4321,54.6328 M42.4321,35.6328 L68.4321,35.6328 M55.4321,54.6328 L42.4321,69.6328 M55.4321,54.6328 L68.4321,69.6328" fill="none" style="stroke:#181818;stroke-width:0.5;"/></g><g class="participant participant-tail" data-entity-uid="part1" data-qualified-name="A" id="part1-tail"><text fill="#000000" font-family="sans-serif" font-size="14" lengthAdjust="spacing" textLength="44.8643" x="30" y="1129.2842">Admin</text><ellipse cx="55.4321" cy="1141.0859" fill="#E2E2F0" rx="8" ry="8" style="stroke:#181818;stroke-width:0.5;"/><path d="M55.4321,1149.0859 L55.4321,1176.0859 M42.4321,1157.0859 L68.4321,1157.0859 M55.4321,1176.0859 L42.4321,1191.0859 M55.4321,1176.0859 L68.4321,1191.0859" fill="none" style="stroke:#181818;stroke-width:0.5;"/></g><g class="participant participant-head" data-entity-uid="part2" data-qualified-name="WA" id="part2-head"><text fill="#000000" font-family="sans-serif" font-size="14" lengthAdjust="spacing" textLength="58.6934" x="292.3218" y="84.1279">WebApp</text><path d="M304.1685,43.1328 L304.1685,67.1328 M304.1685,55.1328 L321.1685,55.1328" fill="none" style="stroke:#181818;stroke-width:0.5;"/><ellipse cx="333.1685" cy="55.1328" fill="#E2E2F0" rx="12" ry="12" style="stroke:#181818;stroke-width:0.5;"/></g><g class="participant participant-tail" data-entity-uid="part2" data-qualified-name="WA" id="part2-tail"><text fill="#000000" font-family="sans-serif" font-size="14" lengthAdjust="spacing" textLength="58.6934" x="292.3218" y="1129.2842">WebApp</text><path d="M304.1685,1136.5859 L304.1685,1160.5859 M304.1685,1148.5859 L321.1685,1148.5859" fill="none" style="stroke:#181818;stroke-width:0.5;"/><ellipse cx="333.1685" cy="1148.5859" fill="#E2E2F0" rx="12" ry="12" style="stroke:#181818;stroke-width:0.5;"/></g><g class="participant participant-head" data-entity-uid="part3" data-qualified-name="GW" id="part3-head"><text fill="#000000" font-family="sans-serif" font-size="14" lengthAdjust="spacing" textLength="88.4434" x="583.5884" y="84.1279">API Gateway</text><ellipse cx="630.8101" cy="55.1328" fill="#E2E2F0" rx="12" ry="12" style="stroke:#181818;stroke-width:0.5;"/><polygon fill="#181818" points="626.8101,43.1328,632.8101,38.1328,630.8101,43.1328,632.8101,48.1328,626.8101,43.1328" style="stroke:#181818;stroke-width:1;"/></g><g class="participant participant-tail" data-entity-uid="part3" data-qualified-name="GW" id="part3-tail"><text fill="#000000" font-family="sans-serif" font-size="14" lengthAdjust="spacing" textLength="88.4434" x="583.5884" y="1129.2842">API Gateway</text><ellipse cx="630.8101" cy="1148.5859" fill="#E2E2F0" rx="12" ry="12" style="stroke:#181818;stroke-width:0.5;"/><polygon fill="#181818" points="626.8101,1136.5859,632.8101,1131.5859,630.8101,1136.5859,632.8101,1141.5859,626.8101,1136.5859" style="stroke:#181818;stroke-width:1;"/></g><g class="participant participant-head" data-entity-uid="part4" data-qualified-name="ACC" id="part4-head"><text fill="#000000" font-family="sans-serif" font-size="14" lengthAdjust="spacing" textLength="162.9141" x="795.7871" y="84.1279">AdminCourseController</text><ellipse cx="880.2441" cy="55.1328" fill="#E2E2F0" rx="12" ry="12" style="stroke:#181818;stroke-width:0.5;"/><polygon fill="#181818" points="876.2441,43.1328,882.2441,38.1328,880.2441,43.1328,882.2441,48.1328,876.2441,43.1328" style="stroke:#181818;stroke-width:1;"/></g><g class="participant participant-tail" data-entity-uid="part4" data-qualified-name="ACC" id="part4-tail"><text fill="#000000" font-family="sans-serif" font-size="14" lengthAdjust="spacing" textLength="162.9141" x="795.7871" y="1129.2842">AdminCourseController</text><ellipse cx="880.2441" cy="1148.5859" fill="#E2E2F0" rx="12" ry="12" style="stroke:#181818;stroke-width:0.5;"/><polygon fill="#181818" points="876.2441,1136.5859,882.2441,1131.5859,880.2441,1136.5859,882.2441,1141.5859,876.2441,1136.5859" style="stroke:#181818;stroke-width:1;"/></g><g class="participant participant-head" data-entity-uid="part5" data-qualified-name="CA" id="part5-head"><text fill="#000000" font-family="sans-serif" font-size="14" lengthAdjust="spacing" textLength="76.2275" x="1084.7261" y="84.1279">CourseApp</text><ellipse cx="1125.8398" cy="55.1328" fill="#E2E2F0" rx="12" ry="12" style="stroke:#181818;stroke-width:0.5;"/><polygon fill="#181818" points="1121.8398,43.1328,1127.8398,38.1328,1125.8398,43.1328,1127.8398,48.1328,1121.8398,43.1328" style="stroke:#181818;stroke-width:1;"/></g><g class="participant participant-tail" data-entity-uid="part5" data-qualified-name="CA" id="part5-tail"><text fill="#000000" font-family="sans-serif" font-size="14" lengthAdjust="spacing" textLength="76.2275" x="1084.7261" y="1129.2842">CourseApp</text><ellipse cx="1125.8398" cy="1148.5859" fill="#E2E2F0" rx="12" ry="12" style="stroke:#181818;stroke-width:0.5;"/><polygon fill="#181818" points="1121.8398,1136.5859,1127.8398,1131.5859,1125.8398,1136.5859,1127.8398,1141.5859,1121.8398,1136.5859" style="stroke:#181818;stroke-width:1;"/></g><g class="participant participant-head" data-entity-uid="part6" data-qualified-name="C" id="part6-head"><text fill="#000000" font-family="sans-serif" font-size="14" lengthAdjust="spacing" textLength="48.877" x="1337.3555" y="84.1279">Course</text><ellipse cx="1364.7939" cy="55.1328" fill="#E2E2F0" rx="12" ry="12" style="stroke:#181818;stroke-width:0.5;"/><line style="stroke:#181818;stroke-width:0.5;" x1="1352.7939" x2="1376.7939" y1="69.1328" y2="69.1328"/></g><g class="participant participant-tail" data-entity-uid="part6" data-qualified-name="C" id="part6-tail"><text fill="#000000" font-family="sans-serif" font-size="14" lengthAdjust="spacing" textLength="48.877" x="1337.3555" y="1129.2842">Course</text><ellipse cx="1364.7939" cy="1148.5859" fill="#E2E2F0" rx="12" ry="12" style="stroke:#181818;stroke-width:0.5;"/><line style="stroke:#181818;stroke-width:0.5;" x1="1352.7939" x2="1376.7939" y1="1162.5859" y2="1162.5859"/></g><g class="participant participant-head" data-entity-uid="part7" data-qualified-name="CDB" id="part7-head"><text fill="#000000" font-family="sans-serif" font-size="14" lengthAdjust="spacing" textLength="69.2617" x="1519.5762" y="84.1279">CourseDB</text><path d="M1539.207,35.1328 C1539.207,25.1328 1557.207,25.1328 1557.207,25.1328 C1557.207,25.1328 1575.207,25.1328 1575.207,35.1328 L1575.207,61.1328 C1575.207,71.1328 1557.207,71.1328 1557.207,71.1328 C1557.207,71.1328 1539.207,71.1328 1539.207,61.1328 L1539.207,35.1328" fill="#E2E2F0" style="stroke:#181818;stroke-width:0.5;"/><path d="M1539.207,35.1328 C1539.207,45.1328 1557.207,45.1328 1557.207,45.1328 C1557.207,45.1328 1575.207,45.1328 1575.207,35.1328" fill="none" style="stroke:#181818;stroke-width:0.5;"/></g><g class="participant participant-tail" data-entity-uid="part7" data-qualified-name="CDB" id="part7-tail"><text fill="#000000" font-family="sans-serif" font-size="14" lengthAdjust="spacing" textLength="69.2617" x="1519.5762" y="1129.2842">CourseDB</text><path d="M1539.207,1142.5859 C1539.207,1132.5859 1557.207,1132.5859 1557.207,1132.5859 C1557.207,1132.5859 1575.207,1132.5859 1575.207,1142.5859 L1575.207,1168.5859 C1575.207,1178.5859 1557.207,1178.5859 1557.207,1178.5859 C1557.207,1178.5859 1539.207,1178.5859 1539.207,1168.5859 L1539.207,1142.5859" fill="#E2E2F0" style="stroke:#181818;stroke-width:0.5;"/><path d="M1539.207,1142.5859 C1539.207,1152.5859 1557.207,1152.5859 1557.207,1152.5859 C1557.207,1152.5859 1575.207,1152.5859 1575.207,1142.5859" fill="none" style="stroke:#181818;stroke-width:0.5;"/></g><g><title>Admin</title><rect fill="#FFFFFF" height="399.7266" style="stroke:#181818;stroke-width:1;" width="10" x="50.4321" y="118.5625"/></g><g><title>WebApp</title><rect fill="#FFFFFF" height="399.7266" style="stroke:#181818;stroke-width:1;" width="10" x="319.6685" y="118.5625"/></g><g><title>API Gateway</title><rect fill="#FFFFFF" height="270.1953" style="stroke:#181818;stroke-width:1;" width="10" x="625.8101" y="218.9609"/></g><g><title>AdminCourseController</title><rect fill="#FFFFFF" height="169.7969" style="stroke:#181818;stroke-width:1;" width="10" x="875.2441" y="290.2266"/></g><g><title>CourseApp</title><rect fill="#FFFFFF" height="663.3984" style="stroke:#181818;stroke-width:1;" width="10" x="1120.8398" y="319.3594"/></g><g><title>Course</title><rect fill="#FFFFFF" height="71.2656" style="stroke:#181818;stroke-width:1;" width="10" x="1359.7939" y="788.9609"/></g><g><title>CourseDB</title><rect fill="#FFFFFF" height="53.2656" style="stroke:#181818;stroke-width:1;" width="10" x="1552.207" y="348.4922"/></g><g><title>CourseDB</title><rect fill="#FFFFFF" height="29.1328" style="stroke:#181818;stroke-width:1;" width="10" x="1552.207" y="889.3594"/></g><g class="message" data-entity-1="part1" data-entity-2="part2" id="msg1"><polygon fill="#181818" points="307.6685,114.5625,317.6685,118.5625,307.6685,122.5625,311.6685,118.5625" style="stroke:#181818;stroke-width:1;"/><line style="stroke:#181818;stroke-width:1;" x1="60.4321" x2="313.6685" y1="118.5625" y2="118.5625"/><text fill="#000000" font-family="sans-serif" font-size="13" font-weight="bold" lengthAdjust="spacing" textLength="9.0454" x="67.4321" y="113.4966">1</text><text fill="#000000" font-family="sans-serif" font-size="13" lengthAdjust="spacing" textLength="211.98" x="80.4775" y="113.4966">Click "Hide" on published course</text></g><g class="message" data-entity-1="part2" data-entity-2="part2" id="msg2"><line style="stroke:#181818;stroke-width:1;" x1="329.6685" x2="371.6685" y1="147.6953" y2="147.6953"/><line style="stroke:#181818;stroke-width:1;" x1="371.6685" x2="371.6685" y1="147.6953" y2="160.6953"/><line style="stroke:#181818;stroke-width:1;" x1="330.6685" x2="371.6685" y1="160.6953" y2="160.6953"/><polygon fill="#181818" points="340.6685,156.6953,330.6685,160.6953,340.6685,164.6953,336.6685,160.6953" style="stroke:#181818;stroke-width:1;"/><text fill="#000000" font-family="sans-serif" font-size="13" font-weight="bold" lengthAdjust="spacing" textLength="9.0454" x="336.6685" y="142.6294">2</text><text fill="#000000" font-family="sans-serif" font-size="13" lengthAdjust="spacing" textLength="178.2358" x="349.7139" y="142.6294">Display confirmation dialog</text></g><g class="message" data-entity-1="part1" data-entity-2="part2" id="msg3"><polygon fill="#181818" points="307.6685,185.8281,317.6685,189.8281,307.6685,193.8281,311.6685,189.8281" style="stroke:#181818;stroke-width:1;"/><line style="stroke:#181818;stroke-width:1;" x1="60.4321" x2="313.6685" y1="189.8281" y2="189.8281"/><text fill="#000000" font-family="sans-serif" font-size="13" font-weight="bold" lengthAdjust="spacing" textLength="9.0454" x="67.4321" y="184.7622">3</text><text fill="#000000" font-family="sans-serif" font-size="13" lengthAdjust="spacing" textLength="83.7002" x="80.4775" y="184.7622">Confirm hide</text></g><g class="message" data-entity-1="part2" data-entity-2="part3" id="msg4"><polygon fill="#181818" points="613.8101,214.9609,623.8101,218.9609,613.8101,222.9609,617.8101,218.9609" style="stroke:#181818;stroke-width:1;"/><line style="stroke:#181818;stroke-width:1;" x1="329.6685" x2="619.8101" y1="218.9609" y2="218.9609"/><text fill="#000000" font-family="sans-serif" font-size="13" font-weight="bold" lengthAdjust="spacing" textLength="9.0454" x="336.6685" y="213.895">4</text><text fill="#000000" font-family="sans-serif" font-size="13" lengthAdjust="spacing" textLength="247.0635" x="349.7139" y="213.895">POST /admin/courses/{courseId}/hide</text></g><g class="message" data-entity-1="part3" data-entity-2="part3" id="msg5"><line style="stroke:#181818;stroke-width:1;" x1="635.8101" x2="677.8101" y1="248.0938" y2="248.0938"/><line style="stroke:#181818;stroke-width:1;" x1="677.8101" x2="677.8101" y1="248.0938" y2="261.0938"/><line style="stroke:#181818;stroke-width:1;" x1="636.8101" x2="677.8101" y1="261.0938" y2="261.0938"/><polygon fill="#181818" points="646.8101,257.0938,636.8101,261.0938,646.8101,265.0938,642.8101,261.0938" style="stroke:#181818;stroke-width:1;"/><text fill="#000000" font-family="sans-serif" font-size="13" font-weight="bold" lengthAdjust="spacing" textLength="9.0454" x="642.8101" y="243.0278">5</text><text fill="#000000" font-family="sans-serif" font-size="13" lengthAdjust="spacing" textLength="202.3887" x="655.8555" y="243.0278">Validate JWT, check admin role</text></g><g class="message" data-entity-1="part3" data-entity-2="part4" id="msg6"><polygon fill="#181818" points="863.2441,286.2266,873.2441,290.2266,863.2441,294.2266,867.2441,290.2266" style="stroke:#181818;stroke-width:1;"/><line style="stroke:#181818;stroke-width:1;" x1="635.8101" x2="869.2441" y1="290.2266" y2="290.2266"/><text fill="#000000" font-family="sans-serif" font-size="13" font-weight="bold" lengthAdjust="spacing" textLength="9.0454" x="642.8101" y="285.1606">6</text><text fill="#000000" font-family="sans-serif" font-size="13" lengthAdjust="spacing" textLength="106.8057" x="655.8555" y="285.1606">Forward request</text></g><g class="message" data-entity-1="part4" data-entity-2="part5" id="msg7"><polygon fill="#181818" points="1108.8398,315.3594,1118.8398,319.3594,1108.8398,323.3594,1112.8398,319.3594" style="stroke:#181818;stroke-width:1;"/><line style="stroke:#181818;stroke-width:1;" x1="885.2441" x2="1114.8398" y1="319.3594" y2="319.3594"/><text fill="#000000" font-family="sans-serif" font-size="13" font-weight="bold" lengthAdjust="spacing" textLength="9.0454" x="892.2441" y="314.2935">7</text><text fill="#000000" font-family="sans-serif" font-size="13" lengthAdjust="spacing" textLength="203.5503" x="905.2896" y="314.2935">HideCourse(courseId, adminID)</text></g><g class="message" data-entity-1="part5" data-entity-2="part7" id="msg8"><polygon fill="#181818" points="1540.207,344.4922,1550.207,348.4922,1540.207,352.4922,1544.207,348.4922" style="stroke:#181818;stroke-width:1;"/><line style="stroke:#181818;stroke-width:1;" x1="1130.8398" x2="1546.207" y1="348.4922" y2="348.4922"/><text fill="#000000" font-family="sans-serif" font-size="13" font-weight="bold" lengthAdjust="spacing" textLength="9.0454" x="1137.8398" y="343.4263">8</text><text fill="#000000" font-family="sans-serif" font-size="13" lengthAdjust="spacing" textLength="75.1689" x="1150.8853" y="343.4263">Find course</text></g><path d="M10,363.4922 L74.4429,363.4922 L74.4429,370.625 L64.4429,380.625 L10,380.625 L10,363.4922" fill="#EEEEEE" style="stroke:#000000;stroke-width:1.5;"/><rect fill="none" height="736.7969" style="stroke:#000000;stroke-width:1.5;" width="1604.8379" x="10" y="363.4922"/><text fill="#000000" font-family="sans-serif" font-size="13" font-weight="bold" lengthAdjust="spacing" textLength="19.4429" x="25" y="376.5591">alt</text><text fill="#000000" font-family="sans-serif" font-size="11" font-weight="bold" lengthAdjust="spacing" textLength="117.1328" x="89.4429" y="375.7026">[Course not found]</text><g class="message" data-entity-1="part7" data-entity-2="part5" id="msg9"><polygon fill="#181818" points="1141.8398,397.7578,1131.8398,401.7578,1141.8398,405.7578,1137.8398,401.7578" style="stroke:#181818;stroke-width:1;"/><line style="stroke:#181818;stroke-width:1;stroke-dasharray:2,2;" x1="1135.8398" x2="1556.207" y1="401.7578" y2="401.7578"/><text fill="#000000" font-family="sans-serif" font-size="13" font-weight="bold" lengthAdjust="spacing" textLength="9.0454" x="1147.8398" y="396.6919">9</text><text fill="#000000" font-family="sans-serif" font-size="13" lengthAdjust="spacing" textLength="64.1685" x="1160.8853" y="396.6919">Not found</text></g><g class="message" data-entity-1="part5" data-entity-2="part4" id="msg10"><polygon fill="#181818" points="896.2441,426.8906,886.2441,430.8906,896.2441,434.8906,892.2441,430.8906" style="stroke:#181818;stroke-width:1;"/><line style="stroke:#181818;stroke-width:1;stroke-dasharray:2,2;" x1="890.2441" x2="1119.8398" y1="430.8906" y2="430.8906"/><text fill="#000000" font-family="sans-serif" font-size="13" font-weight="bold" lengthAdjust="spacing" textLength="18.0908" x="902.2441" y="425.8247">10</text><text fill="#000000" font-family="sans-serif" font-size="13" lengthAdjust="spacing" textLength="96.0146" x="924.335" y="425.8247">404 Not Found</text></g><g class="message" data-entity-1="part4" data-entity-2="part3" id="msg11"><polygon fill="#181818" points="646.8101,456.0234,636.8101,460.0234,646.8101,464.0234,642.8101,460.0234" style="stroke:#181818;stroke-width:1;"/><line style="stroke:#181818;stroke-width:1;stroke-dasharray:2,2;" x1="640.8101" x2="879.2441" y1="460.0234" y2="460.0234"/><text fill="#000000" font-family="sans-serif" font-size="13" font-weight="bold" lengthAdjust="spacing" textLength="18.0908" x="652.8101" y="454.9575">11</text><text fill="#000000" font-family="sans-serif" font-size="13" lengthAdjust="spacing" textLength="32.2017" x="674.9009" y="454.9575">Error</text></g><g class="message" data-entity-1="part3" data-entity-2="part2" id="msg12"><polygon fill="#181818" points="340.6685,485.1563,330.6685,489.1563,340.6685,493.1563,336.6685,489.1563" style="stroke:#181818;stroke-width:1;"/><line style="stroke:#181818;stroke-width:1;stroke-dasharray:2,2;" x1="334.6685" x2="629.8101" y1="489.1563" y2="489.1563"/><text fill="#000000" font-family="sans-serif" font-size="13" font-weight="bold" lengthAdjust="spacing" textLength="18.0908" x="346.6685" y="484.0903">12</text><text fill="#000000" font-family="sans-serif" font-size="13" lengthAdjust="spacing" textLength="32.2017" x="368.7593" y="484.0903">Error</text></g><g class="message" data-entity-1="part2" data-entity-2="part1" id="msg13"><polygon fill="#181818" points="66.4321,514.2891,56.4321,518.2891,66.4321,522.2891,62.4321,518.2891" style="stroke:#181818;stroke-width:1;"/><line style="stroke:#181818;stroke-width:1;" x1="60.4321" x2="323.6685" y1="518.2891" y2="518.2891"/><text fill="#000000" font-family="sans-serif" font-size="13" font-weight="bold" lengthAdjust="spacing" textLength="18.0908" x="72.4321" y="513.2231">13</text><text fill="#000000" font-family="sans-serif" font-size="13" lengthAdjust="spacing" textLength="84.0366" x="94.5229" y="513.2231">Display error</text></g><line style="stroke:#000000;stroke-width:1;stroke-dasharray:2,2;" x1="10" x2="1614.8379" y1="527.2891" y2="527.2891"/><text fill="#000000" font-family="sans-serif" font-size="11" font-weight="bold" lengthAdjust="spacing" textLength="92.6567" x="15" y="537.4995">[Course found]</text><g class="message" data-entity-1="part7" data-entity-2="part5" id="msg14"><polygon fill="#181818" points="1141.8398,558.2266,1131.8398,562.2266,1141.8398,566.2266,1137.8398,562.2266" style="stroke:#181818;stroke-width:1;"/><line style="stroke:#181818;stroke-width:1;stroke-dasharray:2,2;" x1="1135.8398" x2="1556.207" y1="562.2266" y2="562.2266"/><text fill="#000000" font-family="sans-serif" font-size="13" font-weight="bold" lengthAdjust="spacing" textLength="18.0908" x="1147.8398" y="557.1606">14</text><text fill="#000000" font-family="sans-serif" font-size="13" lengthAdjust="spacing" textLength="78.7998" x="1169.9307" y="557.1606">Course data</text></g><g class="message" data-entity-1="part5" data-entity-2="part5" id="msg15"><line style="stroke:#181818;stroke-width:1;" x1="1130.8398" x2="1172.8398" y1="591.3594" y2="591.3594"/><line style="stroke:#181818;stroke-width:1;" x1="1172.8398" x2="1172.8398" y1="591.3594" y2="604.3594"/><line style="stroke:#181818;stroke-width:1;" x1="1131.8398" x2="1172.8398" y1="604.3594" y2="604.3594"/><polygon fill="#181818" points="1141.8398,600.3594,1131.8398,604.3594,1141.8398,608.3594,1137.8398,604.3594" style="stroke:#181818;stroke-width:1;"/><text fill="#000000" font-family="sans-serif" font-size="13" font-weight="bold" lengthAdjust="spacing" textLength="18.0908" x="1137.8398" y="586.2935">15</text><text fill="#000000" font-family="sans-serif" font-size="13" lengthAdjust="spacing" textLength="182.8633" x="1159.9307" y="586.2935">Validate course is published</text></g><path d="M20,619.3594 L84.4429,619.3594 L84.4429,626.4922 L74.4429,636.4922 L20,636.4922 L20,619.3594" fill="#EEEEEE" style="stroke:#000000;stroke-width:1.5;"/><rect fill="none" height="473.9297" style="stroke:#000000;stroke-width:1.5;" width="1584.8379" x="20" y="619.3594"/><text fill="#000000" font-family="sans-serif" font-size="13" font-weight="bold" lengthAdjust="spacing" textLength="19.4429" x="35" y="632.4263">alt</text><text fill="#000000" font-family="sans-serif" font-size="11" font-weight="bold" lengthAdjust="spacing" textLength="142.0869" x="99.4429" y="631.5698">[Course not published]</text><g class="message" data-entity-1="part5" data-entity-2="part4" id="msg16"><polygon fill="#181818" points="891.2441,653.625,881.2441,657.625,891.2441,661.625,887.2441,657.625" style="stroke:#181818;stroke-width:1;"/><line style="stroke:#181818;stroke-width:1;stroke-dasharray:2,2;" x1="885.2441" x2="1119.8398" y1="657.625" y2="657.625"/><text fill="#000000" font-family="sans-serif" font-size="13" font-weight="bold" lengthAdjust="spacing" textLength="18.0908" x="897.2441" y="652.5591">16</text><text fill="#000000" font-family="sans-serif" font-size="13" lengthAdjust="spacing" textLength="111.6045" x="919.335" y="652.5591">400 Bad Request</text></g><g class="message" data-entity-1="part4" data-entity-2="part3" id="msg17"><polygon fill="#181818" points="641.8101,682.7578,631.8101,686.7578,641.8101,690.7578,637.8101,686.7578" style="stroke:#181818;stroke-width:1;"/><line style="stroke:#181818;stroke-width:1;stroke-dasharray:2,2;" x1="635.8101" x2="879.2441" y1="686.7578" y2="686.7578"/><text fill="#000000" font-family="sans-serif" font-size="13" font-weight="bold" lengthAdjust="spacing" textLength="18.0908" x="647.8101" y="681.6919">17</text><text fill="#000000" font-family="sans-serif" font-size="13" lengthAdjust="spacing" textLength="32.2017" x="669.9009" y="681.6919">Error</text></g><g class="message" data-entity-1="part3" data-entity-2="part2" id="msg18"><polygon fill="#181818" points="335.6685,711.8906,325.6685,715.8906,335.6685,719.8906,331.6685,715.8906" style="stroke:#181818;stroke-width:1;"/><line style="stroke:#181818;stroke-width:1;stroke-dasharray:2,2;" x1="329.6685" x2="629.8101" y1="715.8906" y2="715.8906"/><text fill="#000000" font-family="sans-serif" font-size="13" font-weight="bold" lengthAdjust="spacing" textLength="18.0908" x="341.6685" y="710.8247">18</text><text fill="#000000" font-family="sans-serif" font-size="13" lengthAdjust="spacing" textLength="260.0508" x="363.7593" y="710.8247">"Only published courses can be hidden"</text></g><g class="message" data-entity-1="part2" data-entity-2="part1" id="msg19"><polygon fill="#181818" points="66.4321,741.0234,56.4321,745.0234,66.4321,749.0234,62.4321,745.0234" style="stroke:#181818;stroke-width:1;"/><line style="stroke:#181818;stroke-width:1;" x1="60.4321" x2="323.6685" y1="745.0234" y2="745.0234"/><text fill="#000000" font-family="sans-serif" font-size="13" font-weight="bold" lengthAdjust="spacing" textLength="18.0908" x="72.4321" y="739.9575">19</text><text fill="#000000" font-family="sans-serif" font-size="13" lengthAdjust="spacing" textLength="84.0366" x="94.5229" y="739.9575">Display error</text></g><line style="stroke:#000000;stroke-width:1;stroke-dasharray:2,2;" x1="20" x2="1604.8379" y1="754.0234" y2="754.0234"/><text fill="#000000" font-family="sans-serif" font-size="11" font-weight="bold" lengthAdjust="spacing" textLength="131.7583" x="25" y="764.2339">[Course is published]</text><g class="message" data-entity-1="part5" data-entity-2="part6" id="msg20"><polygon fill="#181818" points="1347.7939,784.9609,1357.7939,788.9609,1347.7939,792.9609,1351.7939,788.9609" style="stroke:#181818;stroke-width:1;"/><line style="stroke:#181818;stroke-width:1;" x1="1130.8398" x2="1353.7939" y1="788.9609" y2="788.9609"/><text fill="#000000" font-family="sans-serif" font-size="13" font-weight="bold" lengthAdjust="spacing" textLength="18.0908" x="1137.8398" y="783.895">20</text><text fill="#000000" font-family="sans-serif" font-size="13" lengthAdjust="spacing" textLength="157.0664" x="1159.9307" y="783.895">Update status to hidden</text></g><g class="message" data-entity-1="part6" data-entity-2="part6" id="msg21"><line style="stroke:#181818;stroke-width:1;" x1="1369.7939" x2="1411.7939" y1="818.0938" y2="818.0938"/><line style="stroke:#181818;stroke-width:1;" x1="1411.7939" x2="1411.7939" y1="818.0938" y2="831.0938"/><line style="stroke:#181818;stroke-width:1;" x1="1370.7939" x2="1411.7939" y1="831.0938" y2="831.0938"/><polygon fill="#181818" points="1380.7939,827.0938,1370.7939,831.0938,1380.7939,835.0938,1376.7939,831.0938" style="stroke:#181818;stroke-width:1;"/><text fill="#000000" font-family="sans-serif" font-size="13" font-weight="bold" lengthAdjust="spacing" textLength="18.0908" x="1376.7939" y="813.0278">21</text><text fill="#000000" font-family="sans-serif" font-size="13" lengthAdjust="spacing" textLength="136.3223" x="1398.8848" y="813.0278">Set status = 'hidden'</text></g><g class="message" data-entity-1="part6" data-entity-2="part5" id="msg22"><polygon fill="#181818" points="1141.8398,856.2266,1131.8398,860.2266,1141.8398,864.2266,1137.8398,860.2266" style="stroke:#181818;stroke-width:1;"/><line style="stroke:#181818;stroke-width:1;stroke-dasharray:2,2;" x1="1135.8398" x2="1363.7939" y1="860.2266" y2="860.2266"/><text fill="#000000" font-family="sans-serif" font-size="13" font-weight="bold" lengthAdjust="spacing" textLength="18.0908" x="1147.8398" y="855.1606">22</text><text fill="#000000" font-family="sans-serif" font-size="13" lengthAdjust="spacing" textLength="102.9209" x="1169.9307" y="855.1606">Updated course</text></g><g class="message" data-entity-1="part5" data-entity-2="part7" id="msg23"><polygon fill="#181818" points="1540.207,885.3594,1550.207,889.3594,1540.207,893.3594,1544.207,889.3594" style="stroke:#181818;stroke-width:1;"/><line style="stroke:#181818;stroke-width:1;" x1="1130.8398" x2="1546.207" y1="889.3594" y2="889.3594"/><text fill="#000000" font-family="sans-serif" font-size="13" font-weight="bold" lengthAdjust="spacing" textLength="18.0908" x="1137.8398" y="884.2935">23</text><text fill="#000000" font-family="sans-serif" font-size="13" lengthAdjust="spacing" textLength="127.9624" x="1159.9307" y="884.2935">Save status change</text></g><g class="message" data-entity-1="part7" data-entity-2="part5" id="msg24"><polygon fill="#181818" points="1141.8398,914.4922,1131.8398,918.4922,1141.8398,922.4922,1137.8398,918.4922" style="stroke:#181818;stroke-width:1;"/><line style="stroke:#181818;stroke-width:1;stroke-dasharray:2,2;" x1="1135.8398" x2="1556.207" y1="918.4922" y2="918.4922"/><text fill="#000000" font-family="sans-serif" font-size="13" font-weight="bold" lengthAdjust="spacing" textLength="18.0908" x="1147.8398" y="913.4263">24</text><text fill="#000000" font-family="sans-serif" font-size="13" lengthAdjust="spacing" textLength="52.3301" x="1169.9307" y="913.4263">Success</text></g><path d="M1017,931.4922 L1017,956.4922 L1232,956.4922 L1232,941.4922 L1222,931.4922 L1017,931.4922" fill="#FEFFDD" style="stroke:#181818;stroke-width:0.5;"/><path d="M1222,931.4922 L1222,941.4922 L1232,941.4922 L1222,931.4922" fill="#FEFFDD" style="stroke:#181818;stroke-width:0.5;"/><text fill="#000000" font-family="sans-serif" font-size="13" lengthAdjust="spacing" textLength="194.7461" x="1023" y="948.5591">Enrolled users can still access</text><g class="message" data-entity-1="part5" data-entity-2="part4" id="msg25"><polygon fill="#181818" points="891.2441,978.7578,881.2441,982.7578,891.2441,986.7578,887.2441,982.7578" style="stroke:#181818;stroke-width:1;"/><line style="stroke:#181818;stroke-width:1;stroke-dasharray:2,2;" x1="885.2441" x2="1124.8398" y1="982.7578" y2="982.7578"/><text fill="#000000" font-family="sans-serif" font-size="13" font-weight="bold" lengthAdjust="spacing" textLength="18.0908" x="897.2441" y="977.6919">25</text><text fill="#000000" font-family="sans-serif" font-size="13" lengthAdjust="spacing" textLength="73.5693" x="919.335" y="977.6919">CourseDTO</text></g><g class="message" data-entity-1="part4" data-entity-2="part3" id="msg26"><polygon fill="#181818" points="641.8101,1007.8906,631.8101,1011.8906,641.8101,1015.8906,637.8101,1011.8906" style="stroke:#181818;stroke-width:1;"/><line style="stroke:#181818;stroke-width:1;stroke-dasharray:2,2;" x1="635.8101" x2="879.2441" y1="1011.8906" y2="1011.8906"/><text fill="#000000" font-family="sans-serif" font-size="13" font-weight="bold" lengthAdjust="spacing" textLength="18.0908" x="647.8101" y="1006.8247">26</text><text fill="#000000" font-family="sans-serif" font-size="13" lengthAdjust="spacing" textLength="47.7026" x="669.9009" y="1006.8247">200 OK</text></g><g class="message" data-entity-1="part3" data-entity-2="part2" id="msg27"><polygon fill="#181818" points="335.6685,1037.0234,325.6685,1041.0234,335.6685,1045.0234,331.6685,1041.0234" style="stroke:#181818;stroke-width:1;"/><line style="stroke:#181818;stroke-width:1;stroke-dasharray:2,2;" x1="329.6685" x2="629.8101" y1="1041.0234" y2="1041.0234"/><text fill="#000000" font-family="sans-serif" font-size="13" font-weight="bold" lengthAdjust="spacing" textLength="18.0908" x="341.6685" y="1035.9575">27</text><text fill="#000000" font-family="sans-serif" font-size="13" lengthAdjust="spacing" textLength="84.6206" x="363.7593" y="1035.9575">Hide success</text></g><g class="message" data-entity-1="part2" data-entity-2="part1" id="msg28"><polygon fill="#181818" points="66.4321,1081.2891,56.4321,1085.2891,66.4321,1089.2891,62.4321,1085.2891" style="stroke:#181818;stroke-width:1;"/><line style="stroke:#181818;stroke-width:1;" x1="60.4321" x2="323.6685" y1="1085.2891" y2="1085.2891"/><text fill="#000000" font-family="sans-serif" font-size="13" font-weight="bold" lengthAdjust="spacing" textLength="18.0908" x="72.4321" y="1072.6567">28</text><text fill="#000000" font-family="sans-serif" font-size="13" lengthAdjust="spacing" textLength="172.2119" x="94.5229" y="1065.0903">Update course status in UI</text><text fill="#000000" font-family="sans-serif" font-size="13" lengthAdjust="spacing" textLength="223.1455" x="94.5229" y="1080.2231">(no longer visible to new learners)</text></g><?plantuml-src ZPHBRnen4CVl-ob6z914IaHQvOJQIikIKDggH2Nfgb8lPZq1AyQcjXU2gdxtZX-yTb6L0sXt_9_NRsRDQgTLlPYYoJBxBDII6RQ0ldwvPvmBDOEtrrd6AgSDv7mX530BUJRLjUBCRA34QRvSUcEPPsH-WKv-Fu8XSxXccmwy-IfcSzUNDMO0bLREQDcGaE-mp51n8FSKez2riGWJD2jHuJRCJvHIhmy2XOgYjeWcYIPKM1G7igX8THOvdQ1omctIGR2IaJF7fepUetdG3mU3_hws7Au-KgCzAAIedg7pIN0gJYjOrbCfx1mvvVI-dfXOKOV4QlT8XCfTX86mIyasliOdOHRC2Gh31PDwTfWddiAS4cN9UrZsu7uyUO0ky-rtOqRR_HCVHlnlDyXtUOdkiDnw_c1IS6_zN3vSGZL7wYF40IA5IKZuUd2dpPeP3WP_rsZTGKi4DwC_hooeI4yX8ZlVbd0POuu65tit0fyLeGDYIk65QjFoj3CctNOoIZjuyhj6uo7VzrTNqVdRWPtZaJlu-gAIQhkvlWdYkoIc_lnHQF3M66sE0yIzAMCcZ-k4Xd06YUUqdoEsXMNU29wXt6tNoRRIaL_4TcDHcvZlnXW9Wh3x7VJA1iFz6K0Jq3Nq6OVlQSh-_1Ia4vYEG7N6IcvQtu65YYcOebzWZghJ31HO_eTccsU3A7tA1qoFA7Xj0jQ3nsMWPHrpjGMdKq51jASSVPBB1DrM_m7Eelvi6pNWsuRTxN6Zl28xBC8FUC9MkoAgELCpR5GG5lXuAIPrLQ6rhU1n9S3F5q6lwEBpyxnLuHRaK5iq4RzrGahA4QAq5Y1TTW_ZLeAyjGplQ5d6Nrwn3VvA07kwyERCqsZI8YSuT1yzZdwfSwL1Qi9aO2Mic4hqirEu1edCAEhmufLRGj-Q__q3?></g></svg>