<?plantuml 1.2026.1?><svg xmlns="http://www.w3.org/2000/svg" xmlns:xlink="http://www.w3.org/1999/xlink" contentStyleType="text/css" data-diagram-type="DESCRIPTION" height="2217px" preserveAspectRatio="none" style="width:1367px;height:2217px;background:#FFFFFF;" version="1.1" viewBox="0 0 1367 2217" width="1367px" zoomAndPan="magnify"><defs/><g><!--cluster Egolia E-Learning System--><g class="cluster" data-qualified-name="Egolia E-Learning System" data-source-line="10" id="ent0003"><rect fill="none" height="1191" rx="2.5" ry="2.5" style="stroke:#181818;stroke-width:1;" width="1254.98" x="106.99" y="402.29"/><text fill="#000000" font-family="sans-serif" font-size="14" font-weight="bold" lengthAdjust="spacing" textLength="201.209" x="633.8755" y="417.2851">Egolia E-Learning System</text></g><!--cluster Authentication (Authentik)--><g class="cluster" data-qualified-name="Egolia E-Learning System.Authentication .Authentik." data-source-line="12" id="ent0004"><rect fill="none" height="221" rx="2.5" ry="2.5" style="stroke:#181818;stroke-width:1;" width="227.06" x="1110.91" y="445.29"/><text fill="#000000" font-family="sans-serif" font-size="14" font-weight="bold" lengthAdjust="spacing" textLength="212.6318" x="1118.1241" y="460.2851">Authentication (Authentik)</text></g><!--cluster Course Discovery--><g class="cluster" data-qualified-name="Egolia E-Learning System.Course Discovery" data-source-line="18" id="ent0008"><rect fill="none" height="323" rx="2.5" ry="2.5" style="stroke:#181818;stroke-width:1;" width="241.13" x="130.99" y="549.29"/><text fill="#000000" font-family="sans-serif" font-size="14" font-weight="bold" lengthAdjust="spacing" textLength="136.7871" x="183.1614" y="564.2851">Course Discovery</text></g><!--cluster Enrollment--><g class="cluster" data-qualified-name="Egolia E-Learning System.Enrollment" data-source-line="25" id="ent0013"><rect fill="none" height="103" rx="2.5" ry="2.5" style="stroke:#181818;stroke-width:1;" width="506.11" x="477.5" y="445.29"/><text fill="#000000" font-family="sans-serif" font-size="14" font-weight="bold" lengthAdjust="spacing" textLength="86.3926" x="687.3587" y="460.2851">Enrollment</text></g><!--cluster Learning--><g class="cluster" data-qualified-name="Egolia E-Learning System.Learning" data-source-line="30" id="ent0016"><rect fill="none" height="300" rx="2.5" ry="2.5" style="stroke:#181818;stroke-width:1;" width="520.79" x="469.12" y="572.29"/><text fill="#000000" font-family="sans-serif" font-size="14" font-weight="bold" lengthAdjust="spacing" textLength="69.5215" x="694.7543" y="587.2851">Learning</text></g><!--cluster Interaction--><g class="cluster" data-qualified-name="Egolia E-Learning System.Interaction" data-source-line="40" id="ent0024"><rect fill="none" height="235" rx="2.5" ry="2.5" style="stroke:#181818;stroke-width:1;" width="542.64" x="140.39" y="1139.29"/><text fill="#000000" font-family="sans-serif" font-size="14" font-weight="bold" lengthAdjust="spacing" textLength="87.0898" x="368.1651" y="1154.2851">Interaction</text></g><!--cluster Certificate--><g class="cluster" data-qualified-name="Egolia E-Learning System.Certificate" data-source-line="48" id="ent0030"><rect fill="none" height="171" rx="2.5" ry="2.5" style="stroke:#181818;stroke-width:1;" width="547.52" x="131.57" y="1398.29"/><text fill="#000000" font-family="sans-serif" font-size="14" font-weight="bold" lengthAdjust="spacing" textLength="82.9883" x="363.8359" y="1413.2851">Certificate</text></g><!--cluster Billing--><g class="cluster" data-qualified-name="Egolia E-Learning System.Billing" data-source-line="54" id="ent0034"><rect fill="none" height="231" rx="2.5" ry="2.5" style="stroke:#181818;stroke-width:1;" width="197.05" x="789.95" y="1338.29"/><text fill="#000000" font-family="sans-serif" font-size="14" font-weight="bold" lengthAdjust="spacing" textLength="49.8545" x="863.5478" y="1353.2851">Billing</text></g><!--cluster Blog--><g class="cluster" data-qualified-name="Egolia E-Learning System.Blog" data-source-line="60" id="ent0038"><rect fill="none" height="219" rx="2.5" ry="2.5" style="stroke:#181818;stroke-width:1;" width="526.42" x="148.65" y="896.29"/><text fill="#000000" font-family="sans-serif" font-size="14" font-weight="bold" lengthAdjust="spacing" textLength="35.1094" x="394.3053" y="911.2851">Blog</text></g><!--entity UC_LOGIN--><g class="entity" data-qualified-name="Egolia E-Learning System.Authentication .Authentik..UC_LOGIN" data-source-line="13" id="ent0005"><ellipse cx="1223.9404" cy="634.2901" fill="#FFFFE0" rx="67.3504" ry="15.8701" style="stroke:#2F4F4F;stroke-width:0.5;"/><text fill="#000000" font-family="sans-serif" font-size="14" lengthAdjust="spacing" textLength="99.6201" x="1174.1303" y="638.9385">Login / Sign In</text></g><!--entity UC_REG--><g class="entity" data-qualified-name="Egolia E-Learning System.Authentication .Authentik..UC_REG" data-source-line="14" id="ent0006"><ellipse cx="1223.939" cy="498.2858" fill="#FFFFE0" rx="78.029" ry="18.0058" style="stroke:#2F4F4F;stroke-width:0.5;"/><text fill="#000000" font-family="sans-serif" font-size="14" lengthAdjust="spacing" textLength="126.0068" x="1160.9356" y="502.9342">Register / Sign Up</text></g><!--entity UC_PROFILE--><g class="entity" data-qualified-name="Egolia E-Learning System.Authentication .Authentik..UC_PROFILE" data-source-line="15" id="ent0007"><ellipse cx="1223.9423" cy="567.2905" fill="#FFFFE0" rx="67.2023" ry="15.8405" style="stroke:#2F4F4F;stroke-width:0.5;"/><text fill="#000000" font-family="sans-serif" font-size="14" lengthAdjust="spacing" textLength="99.2373" x="1174.3237" y="571.9389">Update Profile</text></g><!--entity UC_BROWSE--><g class="entity" data-qualified-name="Egolia E-Learning System.Course Discovery.UC_BROWSE" data-source-line="19" id="ent0009"><ellipse cx="251.5491" cy="607.2938" fill="#FFFFE0" rx="103.6191" ry="23.1238" style="stroke:#2F4F4F;stroke-width:0.5;"/><text fill="#000000" font-family="sans-serif" font-size="14" lengthAdjust="spacing" textLength="184.0029" x="159.5476" y="611.9422">Browse Published Courses</text></g><!--entity UC_LANDING--><g class="entity" data-qualified-name="Egolia E-Learning System.Course Discovery.UC_LANDING" data-source-line="20" id="ent0010"><ellipse cx="251.5537" cy="688.2927" fill="#FFFFE0" rx="104.5637" ry="23.3127" style="stroke:#2F4F4F;stroke-width:0.5;"/><text fill="#000000" font-family="sans-serif" font-size="14" lengthAdjust="spacing" textLength="186.0674" x="158.5201" y="692.9412">View Course Landing Page</text></g><!--entity UC_DETAIL--><g class="entity" data-qualified-name="Egolia E-Learning System.Course Discovery.UC_DETAIL" data-source-line="21" id="ent0011"><ellipse cx="251.546" cy="765.2892" fill="#FFFFE0" rx="80.796" ry="18.5592" style="stroke:#2F4F4F;stroke-width:0.5;"/><text fill="#000000" font-family="sans-serif" font-size="14" lengthAdjust="spacing" textLength="132.5488" x="185.2716" y="769.9376">View Course Detail</text></g><!--entity UC_LESSON--><g class="entity" data-qualified-name="Egolia E-Learning System.Course Discovery.UC_LESSON" data-source-line="22" id="ent0012"><ellipse cx="251.5498" cy="837.292" fill="#FFFFE0" rx="80.6098" ry="18.522" style="stroke:#2F4F4F;stroke-width:0.5;"/><text fill="#000000" font-family="sans-serif" font-size="14" lengthAdjust="spacing" textLength="132.1113" x="185.4941" y="841.9404">View Lesson Detail</text></g><!--entity UC_ENROLL--><g class="entity" data-qualified-name="Egolia E-Learning System.Enrollment.UC_ENROLL" data-source-line="26" id="ent0014"><ellipse cx="888.4745" cy="514.2869" fill="#FFFFE0" rx="79.1345" ry="18.2269" style="stroke:#2F4F4F;stroke-width:0.5;"/><text fill="#000000" font-family="sans-serif" font-size="14" lengthAdjust="spacing" textLength="128.6318" x="824.1586" y="518.9353">Enroll Free Course</text></g><!--entity UC_UNENROLL--><g class="entity" data-qualified-name="Egolia E-Learning System.Enrollment.UC_UNENROLL" data-source-line="27" id="ent0015"><ellipse cx="581.576" cy="500.2852" fill="#FFFFE0" rx="88.076" ry="20.0152" style="stroke:#2F4F4F;stroke-width:0.5;"/><text fill="#000000" font-family="sans-serif" font-size="14" lengthAdjust="spacing" textLength="149.3721" x="506.89" y="504.9336">Unenroll from Course</text></g><!--entity UC_WATCH--><g class="entity" data-qualified-name="Egolia E-Learning System.Learning.UC_WATCH" data-source-line="31" id="ent0017"><ellipse cx="888.469" cy="763.2858" fill="#FFFFE0" rx="84.579" ry="19.3158" style="stroke:#2F4F4F;stroke-width:0.5;"/><text fill="#000000" font-family="sans-serif" font-size="14" lengthAdjust="spacing" textLength="141.3535" x="817.7922" y="767.9342">Watch Video Lesson</text></g><!--entity UC_TEST--><g class="entity" data-qualified-name="Egolia E-Learning System.Learning.UC_TEST" data-source-line="32" id="ent0018"><ellipse cx="581.5792" cy="622.2898" fill="#FFFFE0" rx="60.8992" ry="14.5798" style="stroke:#2F4F4F;stroke-width:0.5;"/><text fill="#000000" font-family="sans-serif" font-size="14" lengthAdjust="spacing" textLength="82.2773" x="540.4405" y="626.9383">Take A Test</text></g><!--entity UC_SAVE_PROG--><g class="entity" data-qualified-name="Egolia E-Learning System.Learning.UC_SAVE_PROG" data-source-line="33" id="ent0019"><ellipse cx="581.5791" cy="770.2938" fill="#FFFFE0" rx="89.3691" ry="20.2738" style="stroke:#2F4F4F;stroke-width:0.5;"/><text fill="#000000" font-family="sans-serif" font-size="14" lengthAdjust="spacing" textLength="152.3115" x="505.4234" y="774.9423">Save Lesson Progress</text></g><!--entity UC_GET_PROG--><g class="entity" data-qualified-name="Egolia E-Learning System.Learning.UC_GET_PROG" data-source-line="34" id="ent0020"><ellipse cx="888.4691" cy="689.2898" fill="#FFFFE0" rx="85.2491" ry="19.4498" style="stroke:#2F4F4F;stroke-width:0.5;"/><text fill="#000000" font-family="sans-serif" font-size="14" lengthAdjust="spacing" textLength="142.8984" x="817.0199" y="693.9383">Get Lesson Progress</text></g><!--entity UC_MARK--><g class="entity" data-qualified-name="Egolia E-Learning System.Learning.UC_MARK" data-source-line="35" id="ent0021"><ellipse cx="581.5775" cy="693.2915" fill="#FFFFE0" rx="96.4575" ry="21.6915" style="stroke:#2F4F4F;stroke-width:0.5;"/><text fill="#000000" font-family="sans-serif" font-size="14" lengthAdjust="spacing" textLength="168.2188" x="497.4682" y="697.9399">Mark Lesson Completed</text></g><!--entity UC_COURSE_PROG--><g class="entity" data-qualified-name="Egolia E-Learning System.Learning.UC_COURSE_PROG" data-source-line="36" id="ent0022"><ellipse cx="888.4692" cy="837.2878" fill="#FFFFE0" rx="85.4392" ry="19.4878" style="stroke:#2F4F4F;stroke-width:0.5;"/><text fill="#000000" font-family="sans-serif" font-size="14" lengthAdjust="spacing" textLength="143.3359" x="816.8012" y="841.9363">Get Course Progress</text></g><!--entity UC_FINISH--><g class="entity" data-qualified-name="Egolia E-Learning System.Learning.UC_FINISH" data-source-line="37" id="ent0023"><ellipse cx="581.576" cy="841.2852" fill="#FFFFE0" rx="65.276" ry="15.4552" style="stroke:#2F4F4F;stroke-width:0.5;"/><text fill="#000000" font-family="sans-serif" font-size="14" lengthAdjust="spacing" textLength="94.1992" x="534.4764" y="845.9336">Finish Course</text></g><!--entity UC_COMMENT--><g class="entity" data-qualified-name="Egolia E-Learning System.Interaction.UC_COMMENT" data-source-line="41" id="ent0025"><ellipse cx="581.5841" cy="1253.2908" fill="#FFFFE0" rx="85.4541" ry="19.4908" style="stroke:#2F4F4F;stroke-width:0.5;"/><text fill="#000000" font-family="sans-serif" font-size="14" lengthAdjust="spacing" textLength="143.3701" x="509.899" y="1257.9393">Comment on Lesson</text></g><!--entity UC_REPLY--><g class="entity" data-qualified-name="Egolia E-Learning System.Interaction.UC_REPLY" data-source-line="42" id="ent0026"><ellipse cx="251.5516" cy="1263.2923" fill="#FFFFE0" rx="95.1616" ry="21.4323" style="stroke:#2F4F4F;stroke-width:0.5;"/><text fill="#000000" font-family="sans-serif" font-size="14" lengthAdjust="spacing" textLength="165.334" x="168.8846" y="1267.9408">Reply Lesson Comment</text></g><!--entity UC_REVIEW--><g class="entity" data-qualified-name="Egolia E-Learning System.Interaction.UC_REVIEW" data-source-line="43" id="ent0027"><ellipse cx="251.5531" cy="1190.2946" fill="#FFFFE0" rx="69.0231" ry="16.2046" style="stroke:#2F4F4F;stroke-width:0.5;"/><text fill="#000000" font-family="sans-serif" font-size="14" lengthAdjust="spacing" textLength="103.9063" x="199.6" y="1194.9431">Review Course</text></g><!--entity UC_BOOKMARK--><g class="entity" data-qualified-name="Egolia E-Learning System.Interaction.UC_BOOKMARK" data-source-line="44" id="ent0028"><ellipse cx="581.5829" cy="1327.2886" fill="#FFFFE0" rx="77.2929" ry="17.8586" style="stroke:#2F4F4F;stroke-width:0.5;"/><text fill="#000000" font-family="sans-serif" font-size="14" lengthAdjust="spacing" textLength="124.25" x="519.4579" y="1331.937">Bookmark Course</text></g><!--entity UC_UNBOOKMARK--><g class="entity" data-qualified-name="Egolia E-Learning System.Interaction.UC_UNBOOKMARK" data-source-line="45" id="ent0029"><ellipse cx="251.5522" cy="1339.2884" fill="#FFFFE0" rx="85.1422" ry="19.4284" style="stroke:#2F4F4F;stroke-width:0.5;"/><text fill="#000000" font-family="sans-serif" font-size="14" lengthAdjust="spacing" textLength="142.6523" x="180.2261" y="1343.9369">Unbookmark Course</text></g><!--entity UC_CERTS--><g class="entity" data-qualified-name="Egolia E-Learning System.Certificate.UC_CERTS" data-source-line="49" id="ent0031"><ellipse cx="581.5836" cy="1510.2927" fill="#FFFFE0" rx="81.5136" ry="18.7027" style="stroke:#2F4F4F;stroke-width:0.5;"/><text fill="#000000" font-family="sans-serif" font-size="14" lengthAdjust="spacing" textLength="134.2305" x="514.4683" y="1514.9412">Get My Certificates</text></g><!--entity UC_CERT--><g class="entity" data-qualified-name="Egolia E-Learning System.Certificate.UC_CERT" data-source-line="50" id="ent0032"><ellipse cx="251.5482" cy="1452.2876" fill="#FFFFE0" rx="85.3382" ry="19.4676" style="stroke:#2F4F4F;stroke-width:0.5;"/><text fill="#000000" font-family="sans-serif" font-size="14" lengthAdjust="spacing" textLength="143.1035" x="179.9964" y="1456.9361">Get Certificate by ID</text></g><!--entity UC_MILESTONES--><g class="entity" data-qualified-name="Egolia E-Learning System.Certificate.UC_MILESTONES" data-source-line="51" id="ent0033"><ellipse cx="251.548" cy="1530.2876" fill="#FFFFE0" rx="103.988" ry="23.1976" style="stroke:#2F4F4F;stroke-width:0.5;"/><text fill="#000000" font-family="sans-serif" font-size="14" lengthAdjust="spacing" textLength="184.8096" x="159.1432" y="1534.936">Get Completed Milestones</text></g><!--entity UC_CHECKOUT--><g class="entity" data-qualified-name="Egolia E-Learning System.Billing.UC_CHECKOUT" data-source-line="55" id="ent0035"><ellipse cx="888.4748" cy="1390.289" fill="#FFFFE0" rx="75.2448" ry="17.449" style="stroke:#2F4F4F;stroke-width:0.5;"/><text fill="#000000" font-family="sans-serif" font-size="14" lengthAdjust="spacing" textLength="119.3213" x="828.8142" y="1394.9374">Checkout Course</text></g><!--entity UC_BILLING--><g class="entity" data-qualified-name="Egolia E-Learning System.Billing.UC_BILLING" data-source-line="56" id="ent0036"><ellipse cx="888.4713" cy="1461.2923" fill="#FFFFE0" rx="81.9113" ry="18.7823" style="stroke:#2F4F4F;stroke-width:0.5;"/><text fill="#000000" font-family="sans-serif" font-size="14" lengthAdjust="spacing" textLength="135.1602" x="820.8912" y="1465.9407">View Billing History</text></g><!--entity UC_RECEIPT--><g class="entity" data-qualified-name="Egolia E-Learning System.Billing.UC_RECEIPT" data-source-line="57" id="ent0037"><ellipse cx="888.4739" cy="1534.2948" fill="#FFFFE0" rx="82.5239" ry="18.9048" style="stroke:#2F4F4F;stroke-width:0.5;"/><text fill="#000000" font-family="sans-serif" font-size="14" lengthAdjust="spacing" textLength="136.5889" x="820.1795" y="1538.9432">View Receipt Detail</text></g><!--entity UC_SEARCH_BLOG--><g class="entity" data-qualified-name="Egolia E-Learning System.Blog.UC_SEARCH_BLOG" data-source-line="61" id="ent0039"><ellipse cx="251.5532" cy="946.2886" fill="#FFFFE0" rx="61.4432" ry="14.6886" style="stroke:#2F4F4F;stroke-width:0.5;"/><text fill="#000000" font-family="sans-serif" font-size="14" lengthAdjust="spacing" textLength="83.8018" x="209.6523" y="950.9371">Search Blog</text></g><!--entity UC_CREATE_POST--><g class="entity" data-qualified-name="Egolia E-Learning System.Blog.UC_CREATE_POST" data-source-line="62" id="ent0040"><ellipse cx="251.5533" cy="1010.2936" fill="#FFFFE0" rx="60.3233" ry="14.5236" style="stroke:#2F4F4F;stroke-width:0.5;"/><text fill="#000000" font-family="sans-serif" font-size="14" lengthAdjust="spacing" textLength="81.0674" x="211.0196" y="1014.9421">Create Post</text></g><!--entity UC_COMMENT_POST--><g class="entity" data-qualified-name="Egolia E-Learning System.Blog.UC_COMMENT_POST" data-source-line="63" id="ent0041"><ellipse cx="581.5803" cy="978.2881" fill="#FFFFE0" rx="77.4903" ry="17.8981" style="stroke:#2F4F4F;stroke-width:0.5;"/><text fill="#000000" font-family="sans-serif" font-size="14" lengthAdjust="spacing" textLength="124.7217" x="519.2194" y="982.9365">Comment on Post</text></g><!--entity UC_REPLY_POST--><g class="entity" data-qualified-name="Egolia E-Learning System.Blog.UC_REPLY_POST" data-source-line="64" id="ent0042"><ellipse cx="251.5493" cy="1079.2899" fill="#FFFFE0" rx="86.8993" ry="19.7799" style="stroke:#2F4F4F;stroke-width:0.5;"/><text fill="#000000" font-family="sans-serif" font-size="14" lengthAdjust="spacing" textLength="146.6855" x="178.2065" y="1083.9383">Reply Post Comment</text></g><!--entity L--><g class="entity" data-qualified-name="L" data-source-line="8" id="ent0002"><ellipse cx="32.9951" cy="763.65" fill="#F1F1F1" rx="8" ry="8" style="stroke:#181818;stroke-width:0.5;"/><path d="M32.9951,771.65 L32.9951,798.65 M19.9951,779.65 L45.9951,779.65 M32.9951,798.65 L19.9951,813.65 M32.9951,798.65 L45.9951,813.65" fill="none" style="stroke:#181818;stroke-width:0.5;"/><text fill="#000000" font-family="sans-serif" font-size="14" lengthAdjust="spacing" textLength="53.9902" x="6" y="828.1451">Learner</text></g><!--link UC_WATCH to UC_LOGIN--><g class="link" data-entity-1="ent0017" data-entity-2="ent0005" data-link-type="dependency" data-source-line="68" id="lnk43"><path d="M938.27,747.33 C957.01,741.02 978.54,733.55 997.91,726.29 C1067.08,700.38 1141.3224,669.2671 1184.8624,650.6671" fill="none" id="UC_WATCH-to-UC_LOGIN" style="stroke:#181818;stroke-width:1;stroke-dasharray:7,7;"/><polygon fill="#181818" points="1190.38,648.31,1180.5322,648.1672,1185.782,650.2742,1183.675,655.524,1190.38,648.31" style="stroke:#181818;stroke-width:1;"/><text fill="#000000" font-family="sans-serif" font-size="13" lengthAdjust="spacing" textLength="63.0068" x="1006.91" y="696.3569">&#171;include&#187;</text></g><!--link UC_ENROLL to UC_LOGIN--><g class="link" data-entity-1="ent0014" data-entity-2="ent0005" data-link-type="dependency" data-source-line="69" id="lnk44"><path d="M926.42,530.59 C968.62,548.87 1039.97,578.77 1102.91,600.29 C1127.09,608.57 1148.6882,614.8631 1171.1982,620.9531" fill="none" id="UC_ENROLL-to-UC_LOGIN" style="stroke:#181818;stroke-width:1;stroke-dasharray:7,7;"/><polygon fill="#181818" points="1176.99,622.52,1169.347,616.3084,1172.1635,621.2142,1167.2577,624.0308,1176.99,622.52" style="stroke:#181818;stroke-width:1;"/><text fill="#000000" font-family="sans-serif" font-size="13" lengthAdjust="spacing" textLength="63.0068" x="1006.91" y="561.3569">&#171;include&#187;</text></g><!--link UC_CHECKOUT to UC_LOGIN--><g class="link" data-entity-1="ent0035" data-entity-2="ent0005" data-link-type="dependency" data-source-line="70" id="lnk45"><path d="M897.22,1372.72 C942.5,1270.07 1169.8284,754.7096 1213.3884,655.9596" fill="none" id="UC_CHECKOUT-to-UC_LOGIN" style="stroke:#181818;stroke-width:1;stroke-dasharray:7,7;"/><polygon fill="#181818" points="1215.81,650.47,1208.5179,657.0901,1213.792,655.0447,1215.8374,660.3188,1215.81,650.47" style="stroke:#181818;stroke-width:1;"/><text fill="#000000" font-family="sans-serif" font-size="13" lengthAdjust="spacing" textLength="63.0068" x="1006.91" y="986.3569">&#171;include&#187;</text></g><!--link UC_SAVE_PROG to UC_WATCH--><g class="link" data-entity-1="ent0019" data-entity-2="ent0017" data-link-type="dependency" data-source-line="71" id="lnk46"><path d="M670.76,768.27 C712.71,767.31 756.6016,766.2979 797.9316,765.3479" fill="none" id="UC_SAVE_PROG-to-UC_WATCH" style="stroke:#181818;stroke-width:1;stroke-dasharray:7,7;"/><polygon fill="#181818" points="803.93,765.21,794.8405,761.4179,798.9313,765.3249,795.0243,769.4158,803.93,765.21" style="stroke:#181818;stroke-width:1;"/><text fill="#000000" font-family="sans-serif" font-size="13" lengthAdjust="spacing" textLength="63.0068" x="709.03" y="762.3569">&#171;include&#187;</text></g><!--link UC_MARK to UC_GET_PROG--><g class="link" data-entity-1="ent0021" data-entity-2="ent0020" data-link-type="dependency" data-source-line="72" id="lnk47"><path d="M678.21,692.04 C718.2,691.52 758.2805,690.989 797.0005,690.479" fill="none" id="UC_MARK-to-UC_GET_PROG" style="stroke:#181818;stroke-width:1;stroke-dasharray:7,7;"/><polygon fill="#181818" points="803,690.4,793.9481,686.5189,798.0004,690.4659,794.0535,694.5182,803,690.4" style="stroke:#181818;stroke-width:1;"/><text fill="#000000" font-family="sans-serif" font-size="13" lengthAdjust="spacing" textLength="63.0068" x="709.03" y="687.3569">&#171;include&#187;</text></g><!--link UC_FINISH to UC_COURSE_PROG--><g class="link" data-entity-1="ent0023" data-entity-2="ent0022" data-link-type="dependency" data-source-line="73" id="lnk48"><path d="M647.24,840.45 C692.6,839.85 747.6905,839.1292 796.9105,838.4792" fill="none" id="UC_FINISH-to-UC_COURSE_PROG" style="stroke:#181818;stroke-width:1;stroke-dasharray:7,7;"/><polygon fill="#181818" points="802.91,838.4,793.858,834.5192,797.9104,838.466,793.9636,842.5185,802.91,838.4" style="stroke:#181818;stroke-width:1;"/><text fill="#000000" font-family="sans-serif" font-size="13" lengthAdjust="spacing" textLength="63.0068" x="709.03" y="835.3569">&#171;include&#187;</text></g><!--link UC_CERT to UC_CERTS--><g class="link" data-entity-1="ent0032" data-entity-2="ent0031" data-link-type="dependency" data-source-line="74" id="lnk49"><path d="M320.12,1464.24 C377.51,1474.39 453.4216,1487.8154 509.9816,1497.8154" fill="none" id="UC_CERT-to-UC_CERTS" style="stroke:#181818;stroke-width:1;stroke-dasharray:7,7;"/><polygon fill="#181818" points="515.89,1498.86,507.7239,1493.3542,510.9664,1497.9895,506.331,1501.232,515.89,1498.86" style="stroke:#181818;stroke-width:1;"/><text fill="#000000" font-family="sans-serif" font-size="13" lengthAdjust="spacing" textLength="63.0068" x="389.12" y="1474.3569">&#171;include&#187;</text></g><!--link UC_REPLY to UC_COMMENT--><g class="link" data-entity-1="ent0026" data-entity-2="ent0025" data-link-type="dependency" data-source-line="75" id="lnk50"><path d="M346.11,1260.44 C393.45,1259 444.4628,1257.4427 490.4128,1256.0427" fill="none" id="UC_REPLY-to-UC_COMMENT" style="stroke:#181818;stroke-width:1;stroke-dasharray:7,7;"/><polygon fill="#181818" points="496.41,1255.86,487.2924,1252.1359,491.4123,1256.0123,487.536,1260.1322,496.41,1255.86" style="stroke:#181818;stroke-width:1;"/><text fill="#000000" font-family="sans-serif" font-size="13" lengthAdjust="spacing" textLength="63.0068" x="389.12" y="1254.3569">&#171;include&#187;</text></g><!--link UC_REPLY_POST to UC_COMMENT_POST--><g class="link" data-entity-1="ent0042" data-entity-2="ent0041" data-link-type="dependency" data-source-line="76" id="lnk51"><path d="M307.28,1063.77 C329.87,1057.27 356.29,1049.55 380.12,1042.29 C433.76,1025.95 489.4447,1008.0572 529.9947,994.8572" fill="none" id="UC_REPLY_POST-to-UC_COMMENT_POST" style="stroke:#181818;stroke-width:1;stroke-dasharray:7,7;"/><polygon fill="#181818" points="535.7,993,525.9039,991.9823,530.9456,994.5477,528.3802,999.5894,535.7,993" style="stroke:#181818;stroke-width:1;"/><text fill="#000000" font-family="sans-serif" font-size="13" lengthAdjust="spacing" textLength="63.0068" x="389.12" y="1016.3569">&#171;include&#187;</text></g><!--link UC_UNENROLL to UC_ENROLL--><g class="link" data-entity-1="ent0015" data-entity-2="ent0014" data-link-type="dependency" data-source-line="79" id="lnk52"><path d="M668.32,504.23 C712.97,506.28 761.1363,508.4945 804.4363,510.4845" fill="none" id="UC_UNENROLL-to-UC_ENROLL" style="stroke:#181818;stroke-width:1;stroke-dasharray:7,7;"/><polygon fill="#181818" points="810.43,510.76,801.6231,506.351,805.4353,510.5305,801.2558,514.3426,810.43,510.76" style="stroke:#181818;stroke-width:1;"/><text fill="#000000" font-family="sans-serif" font-size="13" lengthAdjust="spacing" textLength="61.1851" x="710.03" y="503.3569">&#171;extend&#187;</text></g><!--link UC_REVIEW to UC_FINISH--><g class="link" data-entity-1="ent0027" data-entity-2="ent0023" data-link-type="dependency" data-source-line="80" id="lnk53"><path d="M295.07,1177.42 C324.44,1166.11 361.44,1146.48 380.12,1115.29 C391.55,1096.22 375.16,933.37 388.12,915.29 C418.36,873.11 470.1706,856.0086 514.5506,848.2086" fill="none" id="UC_REVIEW-to-UC_FINISH" style="stroke:#181818;stroke-width:1;stroke-dasharray:7,7;"/><polygon fill="#181818" points="520.46,847.17,510.9035,844.7883,515.5355,848.0355,512.2883,852.6675,520.46,847.17" style="stroke:#181818;stroke-width:1;"/><text fill="#000000" font-family="sans-serif" font-size="13" lengthAdjust="spacing" textLength="61.1851" x="390.12" y="865.3569">&#171;extend&#187;</text></g><!--link UC_UNBOOKMARK to UC_BOOKMARK--><g class="link" data-entity-1="ent0029" data-entity-2="ent0028" data-link-type="dependency" data-source-line="81" id="lnk54"><path d="M336.18,1336.24 C388.09,1334.34 448.284,1332.1401 498.684,1330.2901" fill="none" id="UC_UNBOOKMARK-to-UC_BOOKMARK" style="stroke:#181818;stroke-width:1;stroke-dasharray:7,7;"/><polygon fill="#181818" points="504.68,1330.07,495.5393,1326.4028,499.6834,1330.2534,495.8328,1334.3974,504.68,1330.07" style="stroke:#181818;stroke-width:1;"/><text fill="#000000" font-family="sans-serif" font-size="13" lengthAdjust="spacing" textLength="61.1851" x="390.12" y="1328.3569">&#171;extend&#187;</text></g><!--link L to UC_LOGIN--><g class="link" data-entity-1="ent0002" data-entity-2="ent0005" data-link-type="association" data-source-line="84" id="lnk55"><path d="M34.41,754.84 C36.27,611.95 45.9,117.04 89.99,63.29 C137,6 176.44,18.29 250.55,18.29 C250.55,18.29 250.55,18.29 741.53,18.29 C1015.86,18.29 933.08,303.11 1070.91,540.29 C1086.1,566.43 1079.38,581.33 1102.91,600.29 C1120.03,614.09 1142.44,622.29 1163.26,627.17" fill="none" id="L-UC_LOGIN" style="stroke:#181818;stroke-width:1;"/></g><!--link L to UC_REG--><g class="link" data-entity-1="ent0002" data-entity-2="ent0006" data-link-type="association" data-source-line="85" id="lnk56"><path d="M35.81,754.9 C41.3,648.62 59.79,352.56 98.99,264.29 C140.76,170.26 147.66,89.29 250.55,89.29 C250.55,89.29 250.55,89.29 889.47,89.29 C1094.01,89.29 1195.41,400.34 1218.01,479.93" fill="none" id="L-UC_REG" style="stroke:#181818;stroke-width:1;"/></g><!--link L to UC_PROFILE--><g class="link" data-entity-1="ent0002" data-entity-2="ent0007" data-link-type="association" data-source-line="86" id="lnk57"><path d="M35.8,754.85 C40.1,685.61 54.22,536.24 98.99,419.29 C146.67,294.74 117.18,160.29 250.55,160.29 C250.55,160.29 250.55,160.29 889.47,160.29 C1080.86,160.29 951.75,416.91 1102.91,534.29 C1120.07,547.62 1142.25,555.56 1162.87,560.3" fill="none" id="L-UC_PROFILE" style="stroke:#181818;stroke-width:1;"/></g><!--link L to UC_BROWSE--><g class="link" data-entity-1="ent0002" data-entity-2="ent0009" data-link-type="association" data-source-line="87" id="lnk58"><path d="M41.39,754.77 C49.76,721.58 66.66,674.8 98.99,647.29 C115.78,633.01 137.12,623.76 158.44,617.79" fill="none" id="L-UC_BROWSE" style="stroke:#181818;stroke-width:1;"/></g><!--link L to UC_LANDING--><g class="link" data-entity-1="ent0002" data-entity-2="ent0010" data-link-type="association" data-source-line="88" id="lnk59"><path d="M60.42,761.07 C71.3,749.59 84.71,737.49 98.99,729.29 C119.91,717.29 144.48,708.68 167.68,702.56" fill="none" id="L-UC_LANDING" style="stroke:#181818;stroke-width:1;"/></g><!--link L to UC_DETAIL--><g class="link" data-entity-1="ent0002" data-entity-2="ent0011" data-link-type="association" data-source-line="89" id="lnk60"><path d="M60.12,789.92 C89.7,786.09 139.14,779.7 180.23,774.39" fill="none" id="L-UC_DETAIL" style="stroke:#181818;stroke-width:1;"/></g><!--link L to UC_LESSON--><g class="link" data-entity-1="ent0002" data-entity-2="ent0012" data-link-type="association" data-source-line="90" id="lnk61"><path d="M60.12,798.6 C92.07,805.09 147.16,816.29 189.9,824.97" fill="none" id="L-UC_LESSON" style="stroke:#181818;stroke-width:1;"/></g><!--link L to UC_ENROLL--><g class="link" data-entity-1="ent0002" data-entity-2="ent0014" data-link-type="association" data-source-line="91" id="lnk62"><path d="M33.59,831.85 C32.22,1000 31.18,1663.54 98.99,1723.29 C192.73,1805.9 258.46,1751.77 380.12,1723.29 C530.26,1688.15 602.18,1695.33 691.03,1569.29 C780.88,1441.82 761.44,1027.82 773.03,872.29 C774.19,856.72 774.65,605.1 781.95,591.29 C796.57,563.62 826.09,543.41 850.2,530.65" fill="none" id="L-UC_ENROLL" style="stroke:#181818;stroke-width:1;"/></g><!--link L to UC_WATCH--><g class="link" data-entity-1="ent0002" data-entity-2="ent0017" data-link-type="association" data-source-line="92" id="lnk63"><path d="M34.73,831.81 C38.31,1009.33 55.13,1741.37 89.99,1774.29 C200.34,1878.52 665.21,1881.13 773.03,1774.29 C792.25,1755.25 766.2,822.29 781.95,800.29 C790.71,788.06 803.83,779.84 817.88,774.33" fill="none" id="L-UC_WATCH" style="stroke:#181818;stroke-width:1;"/></g><!--link L to UC_TEST--><g class="link" data-entity-1="ent0002" data-entity-2="ent0018" data-link-type="association" data-source-line="93" id="lnk64"><path d="M33.32,754.82 C32.49,655.64 36.45,395.4 98.99,343.29 C220.01,242.48 350.26,238.01 453.12,357.29 C466.99,373.38 450.4,529.96 461.12,548.29 C479.28,579.36 516.17,599.19 544.18,610.43" fill="none" id="L-UC_TEST" style="stroke:#181818;stroke-width:1;"/></g><!--link L to UC_SAVE_PROG--><g class="link" data-entity-1="ent0002" data-entity-2="ent0019" data-link-type="association" data-source-line="94" id="lnk65"><path d="M33.81,754.91 C34.28,668.42 40.68,462.4 89.99,418.29 C210.34,310.65 337.55,294.54 453.12,407.29 C466.04,419.91 450.28,717.85 461.12,732.29 C471.37,745.96 486.57,754.82 502.71,760.53" fill="none" id="L-UC_SAVE_PROG" style="stroke:#181818;stroke-width:1;"/></g><!--link L to UC_COURSE_PROG--><g class="link" data-entity-1="ent0002" data-entity-2="ent0022" data-link-type="association" data-source-line="95" id="lnk66"><path d="M34.84,831.75 C39.14,1018.73 59.93,1825.24 98.99,1860.29 C210.65,1960.51 692.31,1947.77 773.03,1821.29 C786.9,1799.56 779.13,1382.92 781.95,1357.29 C803.73,1159.52 863.88,925.29 882.14,856.93" fill="none" id="L-UC_COURSE_PROG" style="stroke:#181818;stroke-width:1;"/></g><!--link L to UC_FINISH--><g class="link" data-entity-1="ent0002" data-entity-2="ent0023" data-link-type="association" data-source-line="96" id="lnk67"><path d="M35.19,754.87 C38.4,680.82 49.88,522.69 89.99,489.29 C152,437.66 395.35,432.95 453.12,489.29 C465.81,501.67 450.2,794.32 461.12,808.29 C474.5,825.42 495.91,834.17 516.94,838.49" fill="none" id="L-UC_FINISH" style="stroke:#181818;stroke-width:1;"/></g><!--link L to UC_COMMENT--><g class="link" data-entity-1="ent0002" data-entity-2="ent0025" data-link-type="association" data-source-line="97" id="lnk68"><path d="M39.51,754.77 C48.71,696.6 69.17,590.72 98.99,568.29 C198.85,493.2 281.11,492.07 380.12,568.29 C480.66,645.7 434.9,718.72 453.12,844.29 C457.44,874.11 450.18,1087.23 461.12,1115.29 C480.73,1165.64 527.21,1210.14 556.06,1234.24" fill="none" id="L-UC_COMMENT" style="stroke:#181818;stroke-width:1;"/></g><!--link L to UC_REVIEW--><g class="link" data-entity-1="ent0002" data-entity-2="ent0027" data-link-type="association" data-source-line="98" id="lnk69"><path d="M37.54,831.92 C45.13,907.45 65.11,1071.21 98.99,1115.29 C124.39,1148.35 168.25,1167.81 202.27,1178.59" fill="none" id="L-UC_REVIEW" style="stroke:#181818;stroke-width:1;"/></g><!--link L to UC_BOOKMARK--><g class="link" data-entity-1="ent0002" data-entity-2="ent0028" data-link-type="association" data-source-line="99" id="lnk70"><path d="M34.24,831.77 C35.59,981.43 44.23,1518.93 98.99,1569.29 C214.83,1675.84 338.94,1677.62 453.12,1569.29 C465.39,1557.65 453.18,1432.23 461.12,1417.29 C479.29,1383.14 516.77,1358.25 544.94,1343.42" fill="none" id="L-UC_BOOKMARK" style="stroke:#181818;stroke-width:1;"/></g><!--link L to UC_CERTS--><g class="link" data-entity-1="ent0002" data-entity-2="ent0031" data-link-type="association" data-source-line="100" id="lnk71"><path d="M33.86,831.92 C33.7,992.22 37.2,1599.44 98.99,1655.29 C216.16,1761.22 319.46,1709.46 453.12,1625.29 C497.5,1597.34 541.1,1553.47 564.02,1528.78" fill="none" id="L-UC_CERTS" style="stroke:#181818;stroke-width:1;"/></g><!--link L to UC_CHECKOUT--><g class="link" data-entity-1="ent0002" data-entity-2="ent0035" data-link-type="association" data-source-line="101" id="lnk72"><path d="M34.69,831.84 C38.37,1026.9 57.12,1897.49 98.99,1935.29 C210.53,2036.01 699.89,2011.58 773.03,1880.29 C785.34,1858.21 766.95,1445.65 781.95,1425.29 C791.62,1412.16 806.41,1403.89 821.88,1398.69" fill="none" id="L-UC_CHECKOUT" style="stroke:#181818;stroke-width:1;"/></g><!--link L to UC_BILLING--><g class="link" data-entity-1="ent0002" data-entity-2="ent0036" data-link-type="association" data-source-line="102" id="lnk73"><path d="M34.55,831.88 C37.63,1034.33 54.21,1966.16 98.99,2006.29 C323.02,2207.08 632.09,2210.08 773.03,1944.29 C784.64,1922.4 767.41,1518.37 781.95,1498.29 C791.11,1485.64 804.95,1477.28 819.61,1471.77" fill="none" id="L-UC_BILLING" style="stroke:#181818;stroke-width:1;"/></g><!--link L to UC_SEARCH_BLOG--><g class="link" data-entity-1="ent0002" data-entity-2="ent0039" data-link-type="association" data-source-line="103" id="lnk74"><path d="M60.19,831.67 C71.05,845.67 84.49,860.85 98.99,872.29 C134.73,900.51 182.97,921.75 215.34,934.08" fill="none" id="L-UC_SEARCH_BLOG" style="stroke:#181818;stroke-width:1;"/></g><!--link L to UC_CREATE_POST--><g class="link" data-entity-1="ent0002" data-entity-2="ent0040" data-link-type="association" data-source-line="104" id="lnk75"><path d="M36.65,831.61 C41.71,873.89 56.4,940.9 98.99,978.29 C123.95,1000.21 160.1,1008.43 190.84,1011.06" fill="none" id="L-UC_CREATE_POST" style="stroke:#181818;stroke-width:1;"/></g><!--link L to UC_COMMENT_POST--><g class="link" data-entity-1="ent0002" data-entity-2="ent0041" data-link-type="association" data-source-line="105" id="lnk76"><path d="M35.19,754.87 C38.4,680.82 49.88,522.69 89.99,489.29 C214.04,386.01 343.3,377.99 453.12,496.29 C467.33,511.61 452.35,853.33 461.12,872.29 C479.68,912.44 521.48,943.7 550.36,961.58" fill="none" id="L-UC_COMMENT_POST" style="stroke:#181818;stroke-width:1;"/></g><?plantuml-src XPPDR-Cu38Rl-HL4BhjxwEnzCIsGE6fYrB43ssanfu5giwuGnGfafTrWCVzzvG_wkvXJ8kcXH57aIqjyCs0KQ96z6qY5niG8bI-AayWlNFCpN7XouXb6vYOHocMUPn9xmBN0X1S8_oq0rXREjBhcgQEaqk2Ls_v0ATLdkQfqYhfUsN1zYYGtkDNyjlYrMF34sEcbXrpdg9V02_0MY_P0MB9CIS61tLM8o3E8ReN1yzAUR3Tl_8JbwchUCJSYuULDu4yQd_vQLZv2w_7IKvd8uM-8H9Q3crU77fsVNh1r_I4POYRiOPhWuuNWa6s7wF6Iscl1GQit8P6mGnWykXwpwA-1juwwQckr4KMYFb3V9ZwkjVgqluVhgnJ5EwPGMnIqyJeCNY8sj7aM-DbmuF4yBODriCUr5rpv6zVVVcsqGSE597p3ufNhpT0U5eKDyP3sM1G5_kIYBDTAohDzYSaLwoLur8YD0xGNyyF06vrypB7ctxGwZ_YZtreCJwUScPpzmato3iyYHTLSX_PwMSNERWZ7_8ImWXWBGrJCedW8HVm3AJ8s2J9j_n8ThPvPcGgZq6_HV6MnPV6CmTvM3rauwdoHQ30ba_qgV9hktxpiU7ydE8RHd4-F8hVvDehle-kxqMuINJUtfS4hvPW4sBfNFZfOJuVnTOBzdldnkCukyjQxMPqlL6a7xySO_-YojkEUNVOogYAbJkSoQ4Dq7GHFqt0TyzTv_EZt34PrZDg8jr9qS1A2Clpx6_IGBlmiZAEPn-fGUBs1k-dpSs_Rf03ihUGKHkNT2NkhEb4S-2oQ-BmMKixLXFEEoKbTpUZspeuvJy4ndX62PYVOMP5KfOWruNKzRrvdGanGNCn8EaBcCFSGJnsLQkfbP4lQbcwzrfGNMuNExkVQ6oUpex7IPDKLhXEoLMmJFnZNRozX1toThZC6TSwMx6p6aaLrfJ_W_lxUjff4NbCi_zivqXhuzksXRJ_m3tp_BchkuQ6cQctxBKRlz5kmLICYQpTco3Bb2I95ckDgVI2ofospVjfSRj6o3kQWAeJTXjKRVCbLeHx1zTpGedq8zg_1FEtUWVe7xT6CIckiqEwuKcC8QwuznJh18BGT3s2R6nxStNKV7pGgloxeFtr2qBZf_ArXqzHft7JjThbkopHi-YGDwsP7ewgfqQ3hMJJJxnaqrtI63gd5lRj7fScjwoIZBL_fO3iYfMdvHaXQdtg5tXhr2dhaHZtvFm00?></g></svg>