<?plantuml 1.2026.1?><svg xmlns="http://www.w3.org/2000/svg" xmlns:xlink="http://www.w3.org/1999/xlink" contentStyleType="text/css" data-diagram-type="SEQUENCE" height="705px" preserveAspectRatio="none" style="width:1502px;height:705px;background:#FFFFFF;" version="1.1" viewBox="0 0 1502 705" width="1502px" zoomAndPan="magnify"><defs/><g><rect fill="#ADD8E6" height="693.5156" style="stroke:#181818;stroke-width:0.5;" width="102.4434" x="583.0176" y="6"/><text fill="#000000" font-family="sans-serif" font-size="13" font-weight="bold" lengthAdjust="spacing" textLength="92.6821" x="587.8982" y="18.0669">API Gateway</text><rect fill="#E0FFFF" height="693.5156" style="stroke:#181818;stroke-width:0.5;" width="538.749" x="726.0308" y="6"/><text fill="#000000" font-family="sans-serif" font-size="13" font-weight="bold" lengthAdjust="spacing" textLength="91.1714" x="949.8196" y="18.0669">Blog Service</text><g><title>User</title><rect fill="#FFFFFF" height="483.6563" style="stroke:#181818;stroke-width:1;" width="10" x="18.9551" y="118.5625"/></g><g><title>WebApp</title><rect fill="#FFFFFF" height="483.6563" style="stroke:#181818;stroke-width:1;" width="10" x="359.6621" y="118.5625"/></g><g><title>API Gateway</title><rect fill="#FFFFFF" height="395.125" style="stroke:#181818;stroke-width:1;" width="10" x="629.2393" y="162.8281"/></g><g><title>BlogController</title><rect fill="#FFFFFF" height="336.8594" style="stroke:#181818;stroke-width:1;" width="10" x="778.0903" y="191.9609"/></g><g><title>BlogApp</title><rect fill="#FFFFFF" height="278.5938" style="stroke:#181818;stroke-width:1;" width="10" x="1024.6445" y="221.0938"/></g><g><title>BlogDB</title><rect fill="#FFFFFF" height="162.0625" style="stroke:#181818;stroke-width:1;" width="10" x="1227.1143" y="250.2266"/></g><g><title>BlogDB</title><rect fill="#FFFFFF" height="29.1328" style="stroke:#181818;stroke-width:1;" width="10" x="1227.1143" y="441.4219"/></g><g class="participant-lifeline" data-entity-uid="part1" data-qualified-name="U" id="part1-lifeline"><g><title>User</title><rect fill="#000000" fill-opacity="0.00000" height="532.7891" width="8" x="19.9551" y="87.4297"/><line style="stroke:#181818;stroke-width:0.5;stroke-dasharray:5,5;" x1="23" x2="23" y1="87.4297" y2="620.2188"/></g></g><g class="participant-lifeline" data-entity-uid="part2" data-qualified-name="WA" id="part2-lifeline"><g><title>WebApp</title><rect fill="#000000" fill-opacity="0.00000" height="532.7891" width="8" x="360.6621" y="87.4297"/><line style="stroke:#181818;stroke-width:0.5;stroke-dasharray:5,5;" x1="364.3154" x2="364.3154" y1="87.4297" y2="620.2188"/></g></g><g class="participant-lifeline" data-entity-uid="part3" data-qualified-name="GW" id="part3-lifeline"><g><title>API Gateway</title><rect fill="#000000" fill-opacity="0.00000" height="532.7891" width="8" x="630.2393" y="87.4297"/><line style="stroke:#181818;stroke-width:0.5;stroke-dasharray:5,5;" x1="634.0176" x2="634.0176" y1="87.4297" y2="620.2188"/></g></g><g class="participant-lifeline" data-entity-uid="part4" data-qualified-name="BC" id="part4-lifeline"><g><title>BlogController</title><rect fill="#000000" fill-opacity="0.00000" height="532.7891" width="8" x="779.0903" y="87.4297"/><line style="stroke:#181818;stroke-width:0.5;stroke-dasharray:5,5;" x1="783.0308" x2="783.0308" y1="87.4297" y2="620.2188"/></g></g><g class="participant-lifeline" data-entity-uid="part5" data-qualified-name="BA" id="part5-lifeline"><g><title>BlogApp</title><rect fill="#000000" fill-opacity="0.00000" height="532.7891" width="8" x="1025.6445" y="87.4297"/><line style="stroke:#181818;stroke-width:0.5;stroke-dasharray:5,5;" x1="1029.4961" x2="1029.4961" y1="87.4297" y2="620.2188"/></g></g><g class="participant-lifeline" data-entity-uid="part6" data-qualified-name="BDB" id="part6-lifeline"><g><title>BlogDB</title><rect fill="#000000" fill-opacity="0.00000" height="532.7891" width="8" x="1228.1143" y="87.4297"/><line style="stroke:#181818;stroke-width:0.5;stroke-dasharray:5,5;" x1="1231.4487" x2="1231.4487" y1="87.4297" y2="620.2188"/></g></g><g class="participant participant-head" data-entity-uid="part1" data-qualified-name="U" id="part1-head"><text fill="#000000" font-family="sans-serif" font-size="14" lengthAdjust="spacing" textLength="31.9102" x="5" y="84.1279">User</text><ellipse cx="23.9551" cy="19.6328" fill="#E2E2F0" rx="8" ry="8" style="stroke:#181818;stroke-width:0.5;"/><path d="M23.9551,27.6328 L23.9551,54.6328 M10.9551,35.6328 L36.9551,35.6328 M23.9551,54.6328 L10.9551,69.6328 M23.9551,54.6328 L36.9551,69.6328" fill="none" style="stroke:#181818;stroke-width:0.5;"/></g><g class="participant participant-tail" data-entity-uid="part1" data-qualified-name="U" id="part1-tail"><text fill="#000000" font-family="sans-serif" font-size="14" lengthAdjust="spacing" textLength="31.9102" x="5" y="632.2139">User</text><ellipse cx="23.9551" cy="644.0156" fill="#E2E2F0" rx="8" ry="8" style="stroke:#181818;stroke-width:0.5;"/><path d="M23.9551,652.0156 L23.9551,679.0156 M10.9551,660.0156 L36.9551,660.0156 M23.9551,679.0156 L10.9551,694.0156 M23.9551,679.0156 L36.9551,694.0156" fill="none" style="stroke:#181818;stroke-width:0.5;"/></g><g class="participant participant-head" data-entity-uid="part2" data-qualified-name="WA" id="part2-head"><text fill="#000000" font-family="sans-serif" font-size="14" lengthAdjust="spacing" textLength="58.6934" x="332.3154" y="84.1279">WebApp</text><path d="M344.1621,43.1328 L344.1621,67.1328 M344.1621,55.1328 L361.1621,55.1328" fill="none" style="stroke:#181818;stroke-width:0.5;"/><ellipse cx="373.1621" cy="55.1328" fill="#E2E2F0" rx="12" ry="12" style="stroke:#181818;stroke-width:0.5;"/></g><g class="participant participant-tail" data-entity-uid="part2" data-qualified-name="WA" id="part2-tail"><text fill="#000000" font-family="sans-serif" font-size="14" lengthAdjust="spacing" textLength="58.6934" x="332.3154" y="632.2139">WebApp</text><path d="M344.1621,639.5156 L344.1621,663.5156 M344.1621,651.5156 L361.1621,651.5156" fill="none" style="stroke:#181818;stroke-width:0.5;"/><ellipse cx="373.1621" cy="651.5156" fill="#E2E2F0" rx="12" ry="12" style="stroke:#181818;stroke-width:0.5;"/></g><g class="participant participant-head" data-entity-uid="part3" data-qualified-name="GW" id="part3-head"><text fill="#000000" font-family="sans-serif" font-size="14" lengthAdjust="spacing" textLength="88.4434" x="587.0176" y="84.1279">API Gateway</text><ellipse cx="634.2393" cy="55.1328" fill="#E2E2F0" rx="12" ry="12" style="stroke:#181818;stroke-width:0.5;"/><polygon fill="#181818" points="630.2393,43.1328,636.2393,38.1328,634.2393,43.1328,636.2393,48.1328,630.2393,43.1328" style="stroke:#181818;stroke-width:1;"/></g><g class="participant participant-tail" data-entity-uid="part3" data-qualified-name="GW" id="part3-tail"><text fill="#000000" font-family="sans-serif" font-size="14" lengthAdjust="spacing" textLength="88.4434" x="587.0176" y="632.2139">API Gateway</text><ellipse cx="634.2393" cy="651.5156" fill="#E2E2F0" rx="12" ry="12" style="stroke:#181818;stroke-width:0.5;"/><polygon fill="#181818" points="630.2393,639.5156,636.2393,634.5156,634.2393,639.5156,636.2393,644.5156,630.2393,639.5156" style="stroke:#181818;stroke-width:1;"/></g><g class="participant participant-head" data-entity-uid="part4" data-qualified-name="BC" id="part4-head"><text fill="#000000" font-family="sans-serif" font-size="14" lengthAdjust="spacing" textLength="100.1191" x="730.0308" y="84.1279">BlogController</text><ellipse cx="783.0903" cy="55.1328" fill="#E2E2F0" rx="12" ry="12" style="stroke:#181818;stroke-width:0.5;"/><polygon fill="#181818" points="779.0903,43.1328,785.0903,38.1328,783.0903,43.1328,785.0903,48.1328,779.0903,43.1328" style="stroke:#181818;stroke-width:1;"/></g><g class="participant participant-tail" data-entity-uid="part4" data-qualified-name="BC" id="part4-tail"><text fill="#000000" font-family="sans-serif" font-size="14" lengthAdjust="spacing" textLength="100.1191" x="730.0308" y="632.2139">BlogController</text><ellipse cx="783.0903" cy="651.5156" fill="#E2E2F0" rx="12" ry="12" style="stroke:#181818;stroke-width:0.5;"/><polygon fill="#181818" points="779.0903,639.5156,785.0903,634.5156,783.0903,639.5156,785.0903,644.5156,779.0903,639.5156" style="stroke:#181818;stroke-width:1;"/></g><g class="participant participant-head" data-entity-uid="part5" data-qualified-name="BA" id="part5-head"><text fill="#000000" font-family="sans-serif" font-size="14" lengthAdjust="spacing" textLength="58.2969" x="997.4961" y="84.1279">BlogApp</text><ellipse cx="1029.6445" cy="55.1328" fill="#E2E2F0" rx="12" ry="12" style="stroke:#181818;stroke-width:0.5;"/><polygon fill="#181818" points="1025.6445,43.1328,1031.6445,38.1328,1029.6445,43.1328,1031.6445,48.1328,1025.6445,43.1328" style="stroke:#181818;stroke-width:1;"/></g><g class="participant participant-tail" data-entity-uid="part5" data-qualified-name="BA" id="part5-tail"><text fill="#000000" font-family="sans-serif" font-size="14" lengthAdjust="spacing" textLength="58.2969" x="997.4961" y="632.2139">BlogApp</text><ellipse cx="1029.6445" cy="651.5156" fill="#E2E2F0" rx="12" ry="12" style="stroke:#181818;stroke-width:0.5;"/><polygon fill="#181818" points="1025.6445,639.5156,1031.6445,634.5156,1029.6445,639.5156,1031.6445,644.5156,1025.6445,639.5156" style="stroke:#181818;stroke-width:1;"/></g><g class="participant participant-head" data-entity-uid="part6" data-qualified-name="BDB" id="part6-head"><text fill="#000000" font-family="sans-serif" font-size="14" lengthAdjust="spacing" textLength="51.3311" x="1203.4487" y="84.1279">BlogDB</text><path d="M1214.1143,35.1328 C1214.1143,25.1328 1232.1143,25.1328 1232.1143,25.1328 C1232.1143,25.1328 1250.1143,25.1328 1250.1143,35.1328 L1250.1143,61.1328 C1250.1143,71.1328 1232.1143,71.1328 1232.1143,71.1328 C1232.1143,71.1328 1214.1143,71.1328 1214.1143,61.1328 L1214.1143,35.1328" fill="#E2E2F0" style="stroke:#181818;stroke-width:0.5;"/><path d="M1214.1143,35.1328 C1214.1143,45.1328 1232.1143,45.1328 1232.1143,45.1328 C1232.1143,45.1328 1250.1143,45.1328 1250.1143,35.1328" fill="none" style="stroke:#181818;stroke-width:0.5;"/></g><g class="participant participant-tail" data-entity-uid="part6" data-qualified-name="BDB" id="part6-tail"><text fill="#000000" font-family="sans-serif" font-size="14" lengthAdjust="spacing" textLength="51.3311" x="1203.4487" y="632.2139">BlogDB</text><path d="M1214.1143,645.5156 C1214.1143,635.5156 1232.1143,635.5156 1232.1143,635.5156 C1232.1143,635.5156 1250.1143,635.5156 1250.1143,645.5156 L1250.1143,671.5156 C1250.1143,681.5156 1232.1143,681.5156 1232.1143,681.5156 C1232.1143,681.5156 1214.1143,681.5156 1214.1143,671.5156 L1214.1143,645.5156" fill="#E2E2F0" style="stroke:#181818;stroke-width:0.5;"/><path d="M1214.1143,645.5156 C1214.1143,655.5156 1232.1143,655.5156 1232.1143,655.5156 C1232.1143,655.5156 1250.1143,655.5156 1250.1143,645.5156" fill="none" style="stroke:#181818;stroke-width:0.5;"/></g><g><title>User</title><rect fill="#FFFFFF" height="483.6563" style="stroke:#181818;stroke-width:1;" width="10" x="18.9551" y="118.5625"/></g><g><title>WebApp</title><rect fill="#FFFFFF" height="483.6563" style="stroke:#181818;stroke-width:1;" width="10" x="359.6621" y="118.5625"/></g><g><title>API Gateway</title><rect fill="#FFFFFF" height="395.125" style="stroke:#181818;stroke-width:1;" width="10" x="629.2393" y="162.8281"/></g><g><title>BlogController</title><rect fill="#FFFFFF" height="336.8594" style="stroke:#181818;stroke-width:1;" width="10" x="778.0903" y="191.9609"/></g><g><title>BlogApp</title><rect fill="#FFFFFF" height="278.5938" style="stroke:#181818;stroke-width:1;" width="10" x="1024.6445" y="221.0938"/></g><g><title>BlogDB</title><rect fill="#FFFFFF" height="162.0625" style="stroke:#181818;stroke-width:1;" width="10" x="1227.1143" y="250.2266"/></g><g><title>BlogDB</title><rect fill="#FFFFFF" height="29.1328" style="stroke:#181818;stroke-width:1;" width="10" x="1227.1143" y="441.4219"/></g><g class="message" data-entity-1="part1" data-entity-2="part2" id="msg1"><polygon fill="#181818" points="347.6621,114.5625,357.6621,118.5625,347.6621,122.5625,351.6621,118.5625" style="stroke:#181818;stroke-width:1;"/><line style="stroke:#181818;stroke-width:1;" x1="28.9551" x2="353.6621" y1="118.5625" y2="118.5625"/><text fill="#000000" font-family="sans-serif" font-size="13" font-weight="bold" lengthAdjust="spacing" textLength="9.0454" x="35.9551" y="113.4966">1</text><text fill="#000000" font-family="sans-serif" font-size="13" lengthAdjust="spacing" textLength="219.9399" x="49.0005" y="113.4966">Enter search query in blog search</text></g><g class="message" data-entity-1="part2" data-entity-2="part3" id="msg2"><polygon fill="#181818" points="617.2393,158.8281,627.2393,162.8281,617.2393,166.8281,621.2393,162.8281" style="stroke:#181818;stroke-width:1;"/><line style="stroke:#181818;stroke-width:1;" x1="369.6621" x2="623.2393" y1="162.8281" y2="162.8281"/><text fill="#000000" font-family="sans-serif" font-size="13" font-weight="bold" lengthAdjust="spacing" textLength="9.0454" x="376.6621" y="150.1958">2</text><text fill="#000000" font-family="sans-serif" font-size="13" lengthAdjust="spacing" textLength="149.8872" x="389.7075" y="142.6294">GET /blog/posts/search</text><text fill="#000000" font-family="sans-serif" font-size="13" lengthAdjust="spacing" textLength="227.5317" x="389.7075" y="157.7622">?query=golang&amp;page=1&amp;limit=10</text></g><g class="message" data-entity-1="part3" data-entity-2="part4" id="msg3"><polygon fill="#181818" points="766.0903,187.9609,776.0903,191.9609,766.0903,195.9609,770.0903,191.9609" style="stroke:#181818;stroke-width:1;"/><line style="stroke:#181818;stroke-width:1;" x1="639.2393" x2="772.0903" y1="191.9609" y2="191.9609"/><text fill="#000000" font-family="sans-serif" font-size="13" font-weight="bold" lengthAdjust="spacing" textLength="9.0454" x="646.2393" y="186.895">3</text><text fill="#000000" font-family="sans-serif" font-size="13" lengthAdjust="spacing" textLength="106.8057" x="659.2847" y="186.895">Forward request</text></g><g class="message" data-entity-1="part4" data-entity-2="part5" id="msg4"><polygon fill="#181818" points="1012.6445,217.0938,1022.6445,221.0938,1012.6445,225.0938,1016.6445,221.0938" style="stroke:#181818;stroke-width:1;"/><line style="stroke:#181818;stroke-width:1;" x1="788.0903" x2="1018.6445" y1="221.0938" y2="221.0938"/><text fill="#000000" font-family="sans-serif" font-size="13" font-weight="bold" lengthAdjust="spacing" textLength="9.0454" x="795.0903" y="216.0278">4</text><text fill="#000000" font-family="sans-serif" font-size="13" lengthAdjust="spacing" textLength="204.5088" x="808.1357" y="216.0278">SearchPosts(query, pagination)</text></g><g class="message" data-entity-1="part5" data-entity-2="part6" id="msg5"><polygon fill="#181818" points="1215.1143,246.2266,1225.1143,250.2266,1215.1143,254.2266,1219.1143,250.2266" style="stroke:#181818;stroke-width:1;"/><line style="stroke:#181818;stroke-width:1;" x1="1034.6445" x2="1221.1143" y1="250.2266" y2="250.2266"/><text fill="#000000" font-family="sans-serif" font-size="13" font-weight="bold" lengthAdjust="spacing" textLength="9.0454" x="1041.6445" y="245.1606">5</text><text fill="#000000" font-family="sans-serif" font-size="13" lengthAdjust="spacing" textLength="160.4243" x="1054.6899" y="245.1606">Full-text search on posts</text></g><g class="message" data-entity-1="part6" data-entity-2="part6" id="msg6"><line style="stroke:#181818;stroke-width:1;" x1="1237.1143" x2="1279.1143" y1="370.1563" y2="370.1563"/><line style="stroke:#181818;stroke-width:1;" x1="1279.1143" x2="1279.1143" y1="370.1563" y2="383.1563"/><line style="stroke:#181818;stroke-width:1;" x1="1238.1143" x2="1279.1143" y1="383.1563" y2="383.1563"/><polygon fill="#181818" points="1248.1143,379.1563,1238.1143,383.1563,1248.1143,387.1563,1244.1143,383.1563" style="stroke:#181818;stroke-width:1;"/><text fill="#000000" font-family="sans-serif" font-size="13" font-weight="bold" lengthAdjust="spacing" textLength="9.0454" x="1244.1143" y="319.6919">6</text><text fill="#000000" font-family="sans-serif" font-size="13" lengthAdjust="spacing" textLength="238.6719" x="1257.1597" y="274.2935">SELECT p.*, u.name as author_name</text><text fill="#000000" font-family="sans-serif" font-size="13" lengthAdjust="spacing" textLength="89.3242" x="1257.1597" y="289.4263">FROM posts p</text><text fill="#000000" font-family="sans-serif" font-size="13" lengthAdjust="spacing" textLength="224.4595" x="1257.1597" y="304.5591">JOIN users u ON p.author_id = u.id</text><text fill="#000000" font-family="sans-serif" font-size="13" lengthAdjust="spacing" textLength="234.2412" x="1257.1597" y="319.6919">WHERE p.content ILIKE '%' || ? || '%'</text><text fill="#000000" font-family="sans-serif" font-size="13" lengthAdjust="spacing" textLength="156.8633" x="1269.5566" y="334.8247">OR p.tags @&gt; ARRAY[?]</text><text fill="#000000" font-family="sans-serif" font-size="13" lengthAdjust="spacing" textLength="193.083" x="1257.1597" y="349.9575">ORDER BY p.created_at DESC</text><text fill="#000000" font-family="sans-serif" font-size="13" lengthAdjust="spacing" textLength="109.8589" x="1257.1597" y="365.0903">LIMIT ? OFFSET ?</text></g><g class="message" data-entity-1="part6" data-entity-2="part5" id="msg7"><polygon fill="#181818" points="1045.6445,408.2891,1035.6445,412.2891,1045.6445,416.2891,1041.6445,412.2891" style="stroke:#181818;stroke-width:1;"/><line style="stroke:#181818;stroke-width:1;stroke-dasharray:2,2;" x1="1039.6445" x2="1231.1143" y1="412.2891" y2="412.2891"/><text fill="#000000" font-family="sans-serif" font-size="13" font-weight="bold" lengthAdjust="spacing" textLength="9.0454" x="1051.6445" y="407.2231">7</text><text fill="#000000" font-family="sans-serif" font-size="13" lengthAdjust="spacing" textLength="98.7505" x="1064.6899" y="407.2231">Matching posts</text></g><g class="message" data-entity-1="part5" data-entity-2="part6" id="msg8"><polygon fill="#181818" points="1215.1143,437.4219,1225.1143,441.4219,1215.1143,445.4219,1219.1143,441.4219" style="stroke:#181818;stroke-width:1;"/><line style="stroke:#181818;stroke-width:1;" x1="1034.6445" x2="1221.1143" y1="441.4219" y2="441.4219"/><text fill="#000000" font-family="sans-serif" font-size="13" font-weight="bold" lengthAdjust="spacing" textLength="9.0454" x="1041.6445" y="436.356">8</text><text fill="#000000" font-family="sans-serif" font-size="13" lengthAdjust="spacing" textLength="97.8364" x="1054.6899" y="436.356">Get total count</text></g><g class="message" data-entity-1="part6" data-entity-2="part5" id="msg9"><polygon fill="#181818" points="1045.6445,466.5547,1035.6445,470.5547,1045.6445,474.5547,1041.6445,470.5547" style="stroke:#181818;stroke-width:1;"/><line style="stroke:#181818;stroke-width:1;stroke-dasharray:2,2;" x1="1039.6445" x2="1231.1143" y1="470.5547" y2="470.5547"/><text fill="#000000" font-family="sans-serif" font-size="13" font-weight="bold" lengthAdjust="spacing" textLength="9.0454" x="1051.6445" y="465.4888">9</text><text fill="#000000" font-family="sans-serif" font-size="13" lengthAdjust="spacing" textLength="73.3789" x="1064.6899" y="465.4888">Total count</text></g><g class="message" data-entity-1="part5" data-entity-2="part4" id="msg10"><polygon fill="#181818" points="799.0903,495.6875,789.0903,499.6875,799.0903,503.6875,795.0903,499.6875" style="stroke:#181818;stroke-width:1;"/><line style="stroke:#181818;stroke-width:1;stroke-dasharray:2,2;" x1="793.0903" x2="1028.6445" y1="499.6875" y2="499.6875"/><text fill="#000000" font-family="sans-serif" font-size="13" font-weight="bold" lengthAdjust="spacing" textLength="18.0908" x="805.0903" y="494.6216">10</text><text fill="#000000" font-family="sans-serif" font-size="13" lengthAdjust="spacing" textLength="65.9902" x="827.1812" y="494.6216">PostDTO[]</text></g><g class="message" data-entity-1="part4" data-entity-2="part3" id="msg11"><polygon fill="#181818" points="650.2393,524.8203,640.2393,528.8203,650.2393,532.8203,646.2393,528.8203" style="stroke:#181818;stroke-width:1;"/><line style="stroke:#181818;stroke-width:1;stroke-dasharray:2,2;" x1="644.2393" x2="782.0903" y1="528.8203" y2="528.8203"/><text fill="#000000" font-family="sans-serif" font-size="13" font-weight="bold" lengthAdjust="spacing" textLength="18.0908" x="656.2393" y="523.7544">11</text><text fill="#000000" font-family="sans-serif" font-size="13" lengthAdjust="spacing" textLength="47.7026" x="678.3301" y="523.7544">200 OK</text></g><g class="message" data-entity-1="part3" data-entity-2="part2" id="msg12"><polygon fill="#181818" points="380.6621,553.9531,370.6621,557.9531,380.6621,561.9531,376.6621,557.9531" style="stroke:#181818;stroke-width:1;"/><line style="stroke:#181818;stroke-width:1;stroke-dasharray:2,2;" x1="374.6621" x2="633.2393" y1="557.9531" y2="557.9531"/><text fill="#000000" font-family="sans-serif" font-size="13" font-weight="bold" lengthAdjust="spacing" textLength="18.0908" x="386.6621" y="552.8872">12</text><text fill="#000000" font-family="sans-serif" font-size="13" lengthAdjust="spacing" textLength="92.917" x="408.7529" y="552.8872">Search results</text></g><g class="message" data-entity-1="part2" data-entity-2="part1" id="msg13"><polygon fill="#181818" points="34.9551,598.2188,24.9551,602.2188,34.9551,606.2188,30.9551,602.2188" style="stroke:#181818;stroke-width:1;"/><line style="stroke:#181818;stroke-width:1;" x1="28.9551" x2="363.6621" y1="602.2188" y2="602.2188"/><text fill="#000000" font-family="sans-serif" font-size="13" font-weight="bold" lengthAdjust="spacing" textLength="18.0908" x="40.9551" y="589.5864">13</text><text fill="#000000" font-family="sans-serif" font-size="13" lengthAdjust="spacing" textLength="147.8687" x="63.0459" y="582.02">Display search results:</text><text fill="#000000" font-family="sans-serif" font-size="13" lengthAdjust="spacing" textLength="284.6162" x="63.0459" y="597.1528">- Post cards with title, preview, author, tags</text></g><?plantuml-src PL9TRzf047pthrYbQj9M498-eX9g6qDfI1mPa1N5KRJWapdLtBbtPpwa_FZksP2Oz05qtfkTcvqTB8qKvNh1bEFeFrmKg70DdjmzO9foaS7rbUFWqaW5SyqKe8Qviv2bI57j8MOBjoXiCNOTAk_Wp7qOmmWDs-B-33vDUBOoNbuo1s0fXL4o_m2Xtb7iC942jHyul5ncC6LgmvViIEBlKJH8BCIlptajo_C_N1-KUIxLKpIuGCsgYu5NrGVU-xDpQD_G35q8X24wpL0jL_2tP3Ga5x2mWkgYDODlI3tvy7QqqyUkvHZ5NHW5C-ZObauXjT6TkZ4H_OglbyaSHNPUOCPwr-SvNtFJ8vVVoCYEKMovFByBGwcsg59GZ9grUKVHk8xdLp2IFQsUUB3FVQbUQG7nSu66I_6rqKL2lKeeZK_iPPwt3TkPuyHIGAMvqK4sqU-jPHfC0dy6nUMt5fIN0jVCcecbMKdrOZyJCOp2kve6YaJy3iVtK59sD9GGtbFd0SnJw145JnCH_mgYW6xi-fWmC9wCRmEu-7m1hw_GjtzqJWG0X17136OQVjw06qNkurF_EH5XD0WYy1ujXsAaEtr10uDWwYTYChuRpuWb70wdj9c-DU17krsFSuTckR8vhyTEsSdWJQz6p82H1dCAMIdC1uSQbBC6w3y-lyRHokoo1hFmwVa4vDhTLn1Q_lUhAmXlJ-vzcpDxRuDMRvsoeSlyL3nbw138UHS6N1SvxeyxFi2xYMXN8c190TEmvMO5XfkSKNOKst2sRHtssWBhU9EV0j_ucZl_0000?></g></svg>