<?plantuml 1.2026.1?><svg xmlns="http://www.w3.org/2000/svg" xmlns:xlink="http://www.w3.org/1999/xlink" contentStyleType="text/css" data-diagram-type="SEQUENCE" height="1355px" preserveAspectRatio="none" style="width:1729px;height:1355px;background:#FFFFFF;" version="1.1" viewBox="0 0 1729 1355" width="1729px" zoomAndPan="magnify"><defs/><g><rect fill="#ADD8E6" height="1343.9766" style="stroke:#181818;stroke-width:0.5;" width="102.4434" x="562.7261" y="6"/><text fill="#000000" font-family="sans-serif" font-size="13" font-weight="bold" lengthAdjust="spacing" textLength="92.6821" x="567.6067" y="18.0669">API Gateway</text><rect fill="#FFFFE0" height="1343.9766" style="stroke:#181818;stroke-width:0.5;" width="1001.6787" x="715.2837" y="6"/><text fill="#000000" font-family="sans-serif" font-size="13" font-weight="bold" lengthAdjust="spacing" textLength="109.2622" x="1161.4919" y="18.0669">Course Service</text><g><title>Learner</title><rect fill="#FFFFFF" height="1127.1172" style="stroke:#181818;stroke-width:1;" width="10" x="44.9951" y="118.5625"/></g><g><title>WebApp</title><rect fill="#FFFFFF" height="1127.1172" style="stroke:#181818;stroke-width:1;" width="10" x="316.8364" y="118.5625"/></g><g><title>API Gateway</title><rect fill="#FFFFFF" height="261.1953" style="stroke:#181818;stroke-width:1;" width="10" x="608.9478" y="147.6953"/></g><g><title>API Gateway</title><rect fill="#FFFFFF" height="492.2578" style="stroke:#181818;stroke-width:1;" width="10" x="608.9478" y="678.8906"/></g><g><title>TestController</title><rect fill="#FFFFFF" height="160.7969" style="stroke:#181818;stroke-width:1;" width="10" x="766.8442" y="218.9609"/></g><g><title>TestController</title><rect fill="#FFFFFF" height="391.8594" style="stroke:#181818;stroke-width:1;" width="10" x="766.8442" y="750.1563"/></g><g><title>CourseApp</title><rect fill="#FFFFFF" height="102.5313" style="stroke:#181818;stroke-width:1;" width="10" x="1112.6313" y="248.0938"/></g><g><title>CourseApp</title><rect fill="#FFFFFF" height="333.5938" style="stroke:#181818;stroke-width:1;" width="10" x="1112.6313" y="779.2891"/></g><g><title>LessonProgressTest</title><rect fill="#FFFFFF" height="86.3984" style="stroke:#181818;stroke-width:1;" width="10" x="1391.8633" y="923.9531"/></g><g><title>CourseDB</title><rect fill="#FFFFFF" height="29.1328" style="stroke:#181818;stroke-width:1;" width="10" x="1670.3315" y="292.3594"/></g><g><title>CourseDB</title><rect fill="#FFFFFF" height="29.1328" style="stroke:#181818;stroke-width:1;" width="10" x="1670.3315" y="808.4219"/></g><g><title>CourseDB</title><rect fill="#FFFFFF" height="29.1328" style="stroke:#181818;stroke-width:1;" width="10" x="1670.3315" y="1039.4844"/></g><rect fill="none" height="672.125" style="stroke:#000000;stroke-width:1.5;" width="1712.9624" x="10" y="581.5547"/><g class="participant-lifeline" data-entity-uid="part1" data-qualified-name="L" id="part1-lifeline"><g><title>Learner</title><rect fill="#000000" fill-opacity="0.00000" height="1183.25" width="8" x="45.9951" y="87.4297"/><line style="stroke:#181818;stroke-width:0.5;stroke-dasharray:5,5;" x1="49" x2="49" y1="87.4297" y2="1270.6797"/></g></g><g class="participant-lifeline" data-entity-uid="part2" data-qualified-name="WA" id="part2-lifeline"><g><title>WebApp</title><rect fill="#000000" fill-opacity="0.00000" height="1183.25" width="8" x="317.8364" y="87.4297"/><line style="stroke:#181818;stroke-width:0.5;stroke-dasharray:5,5;" x1="321.4897" x2="321.4897" y1="87.4297" y2="1270.6797"/></g></g><g class="participant-lifeline" data-entity-uid="part3" data-qualified-name="GW" id="part3-lifeline"><g><title>API Gateway</title><rect fill="#000000" fill-opacity="0.00000" height="1183.25" width="8" x="609.9478" y="87.4297"/><line style="stroke:#181818;stroke-width:0.5;stroke-dasharray:5,5;" x1="613.7261" x2="613.7261" y1="87.4297" y2="1270.6797"/></g></g><g class="participant-lifeline" data-entity-uid="part4" data-qualified-name="TC" id="part4-lifeline"><g><title>TestController</title><rect fill="#000000" fill-opacity="0.00000" height="1183.25" width="8" x="767.8442" y="87.4297"/><line style="stroke:#181818;stroke-width:0.5;stroke-dasharray:5,5;" x1="771.2837" x2="771.2837" y1="87.4297" y2="1270.6797"/></g></g><g class="participant-lifeline" data-entity-uid="part5" data-qualified-name="CA" id="part5-lifeline"><g><title>CourseApp</title><rect fill="#000000" fill-opacity="0.00000" height="1183.25" width="8" x="1113.6313" y="87.4297"/><line style="stroke:#181818;stroke-width:0.5;stroke-dasharray:5,5;" x1="1117.5176" x2="1117.5176" y1="87.4297" y2="1270.6797"/></g></g><g class="participant-lifeline" data-entity-uid="part6" data-qualified-name="LPT" id="part6-lifeline"><g><title>LessonProgressTest</title><rect fill="#000000" fill-opacity="0.00000" height="1183.25" width="8" x="1392.8633" y="87.4297"/><line style="stroke:#181818;stroke-width:0.5;stroke-dasharray:5,5;" x1="1396.3657" x2="1396.3657" y1="87.4297" y2="1270.6797"/></g></g><g class="participant-lifeline" data-entity-uid="part7" data-qualified-name="CDB" id="part7-lifeline"><g><title>CourseDB</title><rect fill="#000000" fill-opacity="0.00000" height="1183.25" width="8" x="1671.3315" y="87.4297"/><line style="stroke:#181818;stroke-width:0.5;stroke-dasharray:5,5;" x1="1674.7007" x2="1674.7007" y1="87.4297" y2="1270.6797"/></g></g><g class="participant participant-head" data-entity-uid="part1" data-qualified-name="L" id="part1-head"><text fill="#000000" font-family="sans-serif" font-size="14" lengthAdjust="spacing" textLength="53.9902" x="20" y="84.1279">Learner</text><ellipse cx="49.9951" cy="19.6328" fill="#E2E2F0" rx="8" ry="8" style="stroke:#181818;stroke-width:0.5;"/><path d="M49.9951,27.6328 L49.9951,54.6328 M36.9951,35.6328 L62.9951,35.6328 M49.9951,54.6328 L36.9951,69.6328 M49.9951,54.6328 L62.9951,69.6328" fill="none" style="stroke:#181818;stroke-width:0.5;"/></g><g class="participant participant-tail" data-entity-uid="part1" data-qualified-name="L" id="part1-tail"><text fill="#000000" font-family="sans-serif" font-size="14" lengthAdjust="spacing" textLength="53.9902" x="20" y="1282.6748">Learner</text><ellipse cx="49.9951" cy="1294.4766" fill="#E2E2F0" rx="8" ry="8" style="stroke:#181818;stroke-width:0.5;"/><path d="M49.9951,1302.4766 L49.9951,1329.4766 M36.9951,1310.4766 L62.9951,1310.4766 M49.9951,1329.4766 L36.9951,1344.4766 M49.9951,1329.4766 L62.9951,1344.4766" fill="none" style="stroke:#181818;stroke-width:0.5;"/></g><g class="participant participant-head" data-entity-uid="part2" data-qualified-name="WA" id="part2-head"><text fill="#000000" font-family="sans-serif" font-size="14" lengthAdjust="spacing" textLength="58.6934" x="289.4897" y="84.1279">WebApp</text><path d="M301.3364,43.1328 L301.3364,67.1328 M301.3364,55.1328 L318.3364,55.1328" fill="none" style="stroke:#181818;stroke-width:0.5;"/><ellipse cx="330.3364" cy="55.1328" fill="#E2E2F0" rx="12" ry="12" style="stroke:#181818;stroke-width:0.5;"/></g><g class="participant participant-tail" data-entity-uid="part2" data-qualified-name="WA" id="part2-tail"><text fill="#000000" font-family="sans-serif" font-size="14" lengthAdjust="spacing" textLength="58.6934" x="289.4897" y="1282.6748">WebApp</text><path d="M301.3364,1289.9766 L301.3364,1313.9766 M301.3364,1301.9766 L318.3364,1301.9766" fill="none" style="stroke:#181818;stroke-width:0.5;"/><ellipse cx="330.3364" cy="1301.9766" fill="#E2E2F0" rx="12" ry="12" style="stroke:#181818;stroke-width:0.5;"/></g><g class="participant participant-head" data-entity-uid="part3" data-qualified-name="GW" id="part3-head"><text fill="#000000" font-family="sans-serif" font-size="14" lengthAdjust="spacing" textLength="88.4434" x="566.7261" y="84.1279">API Gateway</text><ellipse cx="613.9478" cy="55.1328" fill="#E2E2F0" rx="12" ry="12" style="stroke:#181818;stroke-width:0.5;"/><polygon fill="#181818" points="609.9478,43.1328,615.9478,38.1328,613.9478,43.1328,615.9478,48.1328,609.9478,43.1328" style="stroke:#181818;stroke-width:1;"/></g><g class="participant participant-tail" data-entity-uid="part3" data-qualified-name="GW" id="part3-tail"><text fill="#000000" font-family="sans-serif" font-size="14" lengthAdjust="spacing" textLength="88.4434" x="566.7261" y="1282.6748">API Gateway</text><ellipse cx="613.9478" cy="1301.9766" fill="#E2E2F0" rx="12" ry="12" style="stroke:#181818;stroke-width:0.5;"/><polygon fill="#181818" points="609.9478,1289.9766,615.9478,1284.9766,613.9478,1289.9766,615.9478,1294.9766,609.9478,1289.9766" style="stroke:#181818;stroke-width:1;"/></g><g class="participant participant-head" data-entity-uid="part4" data-qualified-name="TC" id="part4-head"><text fill="#000000" font-family="sans-serif" font-size="14" lengthAdjust="spacing" textLength="99.1211" x="719.2837" y="84.1279">TestController</text><ellipse cx="771.8442" cy="55.1328" fill="#E2E2F0" rx="12" ry="12" style="stroke:#181818;stroke-width:0.5;"/><polygon fill="#181818" points="767.8442,43.1328,773.8442,38.1328,771.8442,43.1328,773.8442,48.1328,767.8442,43.1328" style="stroke:#181818;stroke-width:1;"/></g><g class="participant participant-tail" data-entity-uid="part4" data-qualified-name="TC" id="part4-tail"><text fill="#000000" font-family="sans-serif" font-size="14" lengthAdjust="spacing" textLength="99.1211" x="719.2837" y="1282.6748">TestController</text><ellipse cx="771.8442" cy="1301.9766" fill="#E2E2F0" rx="12" ry="12" style="stroke:#181818;stroke-width:0.5;"/><polygon fill="#181818" points="767.8442,1289.9766,773.8442,1284.9766,771.8442,1289.9766,773.8442,1294.9766,767.8442,1289.9766" style="stroke:#181818;stroke-width:1;"/></g><g class="participant participant-head" data-entity-uid="part5" data-qualified-name="CA" id="part5-head"><text fill="#000000" font-family="sans-serif" font-size="14" lengthAdjust="spacing" textLength="76.2275" x="1076.5176" y="84.1279">CourseApp</text><ellipse cx="1117.6313" cy="55.1328" fill="#E2E2F0" rx="12" ry="12" style="stroke:#181818;stroke-width:0.5;"/><polygon fill="#181818" points="1113.6313,43.1328,1119.6313,38.1328,1117.6313,43.1328,1119.6313,48.1328,1113.6313,43.1328" style="stroke:#181818;stroke-width:1;"/></g><g class="participant participant-tail" data-entity-uid="part5" data-qualified-name="CA" id="part5-tail"><text fill="#000000" font-family="sans-serif" font-size="14" lengthAdjust="spacing" textLength="76.2275" x="1076.5176" y="1282.6748">CourseApp</text><ellipse cx="1117.6313" cy="1301.9766" fill="#E2E2F0" rx="12" ry="12" style="stroke:#181818;stroke-width:0.5;"/><polygon fill="#181818" points="1113.6313,1289.9766,1119.6313,1284.9766,1117.6313,1289.9766,1119.6313,1294.9766,1113.6313,1289.9766" style="stroke:#181818;stroke-width:1;"/></g><g class="participant participant-head" data-entity-uid="part6" data-qualified-name="LPT" id="part6-head"><text fill="#000000" font-family="sans-serif" font-size="14" lengthAdjust="spacing" textLength="138.9951" x="1324.3657" y="84.1279">LessonProgressTest</text><ellipse cx="1396.8633" cy="55.1328" fill="#E2E2F0" rx="12" ry="12" style="stroke:#181818;stroke-width:0.5;"/><line style="stroke:#181818;stroke-width:0.5;" x1="1384.8633" x2="1408.8633" y1="69.1328" y2="69.1328"/></g><g class="participant participant-tail" data-entity-uid="part6" data-qualified-name="LPT" id="part6-tail"><text fill="#000000" font-family="sans-serif" font-size="14" lengthAdjust="spacing" textLength="138.9951" x="1324.3657" y="1282.6748">LessonProgressTest</text><ellipse cx="1396.8633" cy="1301.9766" fill="#E2E2F0" rx="12" ry="12" style="stroke:#181818;stroke-width:0.5;"/><line style="stroke:#181818;stroke-width:0.5;" x1="1384.8633" x2="1408.8633" y1="1315.9766" y2="1315.9766"/></g><g class="participant participant-head" data-entity-uid="part7" data-qualified-name="CDB" id="part7-head"><text fill="#000000" font-family="sans-serif" font-size="14" lengthAdjust="spacing" textLength="69.2617" x="1637.7007" y="84.1279">CourseDB</text><path d="M1657.3315,35.1328 C1657.3315,25.1328 1675.3315,25.1328 1675.3315,25.1328 C1675.3315,25.1328 1693.3315,25.1328 1693.3315,35.1328 L1693.3315,61.1328 C1693.3315,71.1328 1675.3315,71.1328 1675.3315,71.1328 C1675.3315,71.1328 1657.3315,71.1328 1657.3315,61.1328 L1657.3315,35.1328" fill="#E2E2F0" style="stroke:#181818;stroke-width:0.5;"/><path d="M1657.3315,35.1328 C1657.3315,45.1328 1675.3315,45.1328 1675.3315,45.1328 C1675.3315,45.1328 1693.3315,45.1328 1693.3315,35.1328" fill="none" style="stroke:#181818;stroke-width:0.5;"/></g><g class="participant participant-tail" data-entity-uid="part7" data-qualified-name="CDB" id="part7-tail"><text fill="#000000" font-family="sans-serif" font-size="14" lengthAdjust="spacing" textLength="69.2617" x="1637.7007" y="1282.6748">CourseDB</text><path d="M1657.3315,1295.9766 C1657.3315,1285.9766 1675.3315,1285.9766 1675.3315,1285.9766 C1675.3315,1285.9766 1693.3315,1285.9766 1693.3315,1295.9766 L1693.3315,1321.9766 C1693.3315,1331.9766 1675.3315,1331.9766 1675.3315,1331.9766 C1675.3315,1331.9766 1657.3315,1331.9766 1657.3315,1321.9766 L1657.3315,1295.9766" fill="#E2E2F0" style="stroke:#181818;stroke-width:0.5;"/><path d="M1657.3315,1295.9766 C1657.3315,1305.9766 1675.3315,1305.9766 1675.3315,1305.9766 C1675.3315,1305.9766 1693.3315,1305.9766 1693.3315,1295.9766" fill="none" style="stroke:#181818;stroke-width:0.5;"/></g><g><title>Learner</title><rect fill="#FFFFFF" height="1127.1172" style="stroke:#181818;stroke-width:1;" width="10" x="44.9951" y="118.5625"/></g><g><title>WebApp</title><rect fill="#FFFFFF" height="1127.1172" style="stroke:#181818;stroke-width:1;" width="10" x="316.8364" y="118.5625"/></g><g><title>API Gateway</title><rect fill="#FFFFFF" height="261.1953" style="stroke:#181818;stroke-width:1;" width="10" x="608.9478" y="147.6953"/></g><g><title>API Gateway</title><rect fill="#FFFFFF" height="492.2578" style="stroke:#181818;stroke-width:1;" width="10" x="608.9478" y="678.8906"/></g><g><title>TestController</title><rect fill="#FFFFFF" height="160.7969" style="stroke:#181818;stroke-width:1;" width="10" x="766.8442" y="218.9609"/></g><g><title>TestController</title><rect fill="#FFFFFF" height="391.8594" style="stroke:#181818;stroke-width:1;" width="10" x="766.8442" y="750.1563"/></g><g><title>CourseApp</title><rect fill="#FFFFFF" height="102.5313" style="stroke:#181818;stroke-width:1;" width="10" x="1112.6313" y="248.0938"/></g><g><title>CourseApp</title><rect fill="#FFFFFF" height="333.5938" style="stroke:#181818;stroke-width:1;" width="10" x="1112.6313" y="779.2891"/></g><g><title>LessonProgressTest</title><rect fill="#FFFFFF" height="86.3984" style="stroke:#181818;stroke-width:1;" width="10" x="1391.8633" y="923.9531"/></g><g><title>CourseDB</title><rect fill="#FFFFFF" height="29.1328" style="stroke:#181818;stroke-width:1;" width="10" x="1670.3315" y="292.3594"/></g><g><title>CourseDB</title><rect fill="#FFFFFF" height="29.1328" style="stroke:#181818;stroke-width:1;" width="10" x="1670.3315" y="808.4219"/></g><g><title>CourseDB</title><rect fill="#FFFFFF" height="29.1328" style="stroke:#181818;stroke-width:1;" width="10" x="1670.3315" y="1039.4844"/></g><g class="message" data-entity-1="part1" data-entity-2="part2" id="msg1"><polygon fill="#181818" points="304.8364,114.5625,314.8364,118.5625,304.8364,122.5625,308.8364,118.5625" style="stroke:#181818;stroke-width:1;"/><line style="stroke:#181818;stroke-width:1;" x1="54.9951" x2="310.8364" y1="118.5625" y2="118.5625"/><text fill="#000000" font-family="sans-serif" font-size="13" font-weight="bold" lengthAdjust="spacing" textLength="9.0454" x="61.9951" y="113.4966">1</text><text fill="#000000" font-family="sans-serif" font-size="13" lengthAdjust="spacing" textLength="119.3105" x="75.0405" y="113.4966">Access test lesson</text></g><g class="message" data-entity-1="part2" data-entity-2="part3" id="msg2"><polygon fill="#181818" points="596.9478,143.6953,606.9478,147.6953,596.9478,151.6953,600.9478,147.6953" style="stroke:#181818;stroke-width:1;"/><line style="stroke:#181818;stroke-width:1;" x1="326.8364" x2="602.9478" y1="147.6953" y2="147.6953"/><text fill="#000000" font-family="sans-serif" font-size="13" font-weight="bold" lengthAdjust="spacing" textLength="9.0454" x="333.8364" y="142.6294">2</text><text fill="#000000" font-family="sans-serif" font-size="13" lengthAdjust="spacing" textLength="140.8354" x="346.8818" y="142.6294">GET /lessons/{testId}</text></g><g class="message" data-entity-1="part3" data-entity-2="part3" id="msg3"><line style="stroke:#181818;stroke-width:1;" x1="618.9478" x2="660.9478" y1="176.8281" y2="176.8281"/><line style="stroke:#181818;stroke-width:1;" x1="660.9478" x2="660.9478" y1="176.8281" y2="189.8281"/><line style="stroke:#181818;stroke-width:1;" x1="619.9478" x2="660.9478" y1="189.8281" y2="189.8281"/><polygon fill="#181818" points="629.9478,185.8281,619.9478,189.8281,629.9478,193.8281,625.9478,189.8281" style="stroke:#181818;stroke-width:1;"/><text fill="#000000" font-family="sans-serif" font-size="13" font-weight="bold" lengthAdjust="spacing" textLength="9.0454" x="625.9478" y="171.7622">3</text><text fill="#000000" font-family="sans-serif" font-size="13" lengthAdjust="spacing" textLength="82.1577" x="638.9932" y="171.7622">Validate JWT</text></g><g class="message" data-entity-1="part3" data-entity-2="part4" id="msg4"><polygon fill="#181818" points="754.8442,214.9609,764.8442,218.9609,754.8442,222.9609,758.8442,218.9609" style="stroke:#181818;stroke-width:1;"/><line style="stroke:#181818;stroke-width:1;" x1="618.9478" x2="760.8442" y1="218.9609" y2="218.9609"/><text fill="#000000" font-family="sans-serif" font-size="13" font-weight="bold" lengthAdjust="spacing" textLength="9.0454" x="625.9478" y="213.895">4</text><text fill="#000000" font-family="sans-serif" font-size="13" lengthAdjust="spacing" textLength="106.8057" x="638.9932" y="213.895">Forward request</text></g><g class="message" data-entity-1="part4" data-entity-2="part5" id="msg5"><polygon fill="#181818" points="1100.6313,244.0938,1110.6313,248.0938,1100.6313,252.0938,1104.6313,248.0938" style="stroke:#181818;stroke-width:1;"/><line style="stroke:#181818;stroke-width:1;" x1="776.8442" x2="1106.6313" y1="248.0938" y2="248.0938"/><text fill="#000000" font-family="sans-serif" font-size="13" font-weight="bold" lengthAdjust="spacing" textLength="9.0454" x="783.8442" y="243.0278">5</text><text fill="#000000" font-family="sans-serif" font-size="13" lengthAdjust="spacing" textLength="193.6162" x="796.8896" y="243.0278">GetTestLesson(testId, userID)</text></g><g class="message" data-entity-1="part5" data-entity-2="part7" id="msg6"><polygon fill="#181818" points="1658.3315,288.3594,1668.3315,292.3594,1658.3315,296.3594,1662.3315,292.3594" style="stroke:#181818;stroke-width:1;"/><line style="stroke:#181818;stroke-width:1;" x1="1122.6313" x2="1664.3315" y1="292.3594" y2="292.3594"/><text fill="#000000" font-family="sans-serif" font-size="13" font-weight="bold" lengthAdjust="spacing" textLength="9.0454" x="1129.6313" y="279.7271">6</text><text fill="#000000" font-family="sans-serif" font-size="13" lengthAdjust="spacing" textLength="151.0488" x="1142.6768" y="272.1606">Get test with questions</text><text fill="#000000" font-family="sans-serif" font-size="13" lengthAdjust="spacing" textLength="167.0386" x="1142.6768" y="287.2935">(without correct answers)</text></g><g class="message" data-entity-1="part7" data-entity-2="part5" id="msg7"><polygon fill="#181818" points="1133.6313,317.4922,1123.6313,321.4922,1133.6313,325.4922,1129.6313,321.4922" style="stroke:#181818;stroke-width:1;"/><line style="stroke:#181818;stroke-width:1;stroke-dasharray:2,2;" x1="1127.6313" x2="1674.3315" y1="321.4922" y2="321.4922"/><text fill="#000000" font-family="sans-serif" font-size="13" font-weight="bold" lengthAdjust="spacing" textLength="9.0454" x="1139.6313" y="316.4263">7</text><text fill="#000000" font-family="sans-serif" font-size="13" lengthAdjust="spacing" textLength="154.1719" x="1152.6768" y="316.4263">Test data (no isCorrect)</text></g><g class="message" data-entity-1="part5" data-entity-2="part4" id="msg8"><polygon fill="#181818" points="787.8442,346.625,777.8442,350.625,787.8442,354.625,783.8442,350.625" style="stroke:#181818;stroke-width:1;"/><line style="stroke:#181818;stroke-width:1;stroke-dasharray:2,2;" x1="781.8442" x2="1116.6313" y1="350.625" y2="350.625"/><text fill="#000000" font-family="sans-serif" font-size="13" font-weight="bold" lengthAdjust="spacing" textLength="9.0454" x="793.8442" y="345.5591">8</text><text fill="#000000" font-family="sans-serif" font-size="13" lengthAdjust="spacing" textLength="100.9722" x="806.8896" y="345.5591">TestLessonDTO</text></g><g class="message" data-entity-1="part4" data-entity-2="part3" id="msg9"><polygon fill="#181818" points="629.9478,375.7578,619.9478,379.7578,629.9478,383.7578,625.9478,379.7578" style="stroke:#181818;stroke-width:1;"/><line style="stroke:#181818;stroke-width:1;stroke-dasharray:2,2;" x1="623.9478" x2="770.8442" y1="379.7578" y2="379.7578"/><text fill="#000000" font-family="sans-serif" font-size="13" font-weight="bold" lengthAdjust="spacing" textLength="9.0454" x="635.9478" y="374.6919">9</text><text fill="#000000" font-family="sans-serif" font-size="13" lengthAdjust="spacing" textLength="47.7026" x="648.9932" y="374.6919">200 OK</text></g><g class="message" data-entity-1="part3" data-entity-2="part2" id="msg10"><polygon fill="#181818" points="337.8364,404.8906,327.8364,408.8906,337.8364,412.8906,333.8364,408.8906" style="stroke:#181818;stroke-width:1;"/><line style="stroke:#181818;stroke-width:1;stroke-dasharray:2,2;" x1="331.8364" x2="612.9478" y1="408.8906" y2="408.8906"/><text fill="#000000" font-family="sans-serif" font-size="13" font-weight="bold" lengthAdjust="spacing" textLength="18.0908" x="343.8364" y="403.8247">10</text><text fill="#000000" font-family="sans-serif" font-size="13" lengthAdjust="spacing" textLength="94.8784" x="365.9272" y="403.8247">Test questions</text></g><g class="message" data-entity-1="part2" data-entity-2="part2" id="msg11"><line style="stroke:#181818;stroke-width:1;" x1="326.8364" x2="368.8364" y1="453.1563" y2="453.1563"/><line style="stroke:#181818;stroke-width:1;" x1="368.8364" x2="368.8364" y1="453.1563" y2="466.1563"/><line style="stroke:#181818;stroke-width:1;" x1="327.8364" x2="368.8364" y1="466.1563" y2="466.1563"/><polygon fill="#181818" points="337.8364,462.1563,327.8364,466.1563,337.8364,470.1563,333.8364,466.1563" style="stroke:#181818;stroke-width:1;"/><text fill="#000000" font-family="sans-serif" font-size="13" font-weight="bold" lengthAdjust="spacing" textLength="18.0908" x="333.8364" y="440.5239">11</text><text fill="#000000" font-family="sans-serif" font-size="13" lengthAdjust="spacing" textLength="144.0854" x="355.9272" y="432.9575">Display test questions</text><text fill="#000000" font-family="sans-serif" font-size="13" lengthAdjust="spacing" textLength="130.6792" x="355.9272" y="448.0903">with answer options</text></g><g class="message" data-entity-1="part1" data-entity-2="part2" id="msg12"><polygon fill="#181818" points="304.8364,491.2891,314.8364,495.2891,304.8364,499.2891,308.8364,495.2891" style="stroke:#181818;stroke-width:1;"/><line style="stroke:#181818;stroke-width:1;" x1="54.9951" x2="310.8364" y1="495.2891" y2="495.2891"/><text fill="#000000" font-family="sans-serif" font-size="13" font-weight="bold" lengthAdjust="spacing" textLength="18.0908" x="61.9951" y="490.2231">12</text><text fill="#000000" font-family="sans-serif" font-size="13" lengthAdjust="spacing" textLength="215.7505" x="84.0859" y="490.2231">Select answers for each question</text></g><g class="message" data-entity-1="part1" data-entity-2="part2" id="msg13"><polygon fill="#181818" points="304.8364,520.4219,314.8364,524.4219,304.8364,528.4219,308.8364,524.4219" style="stroke:#181818;stroke-width:1;"/><line style="stroke:#181818;stroke-width:1;" x1="54.9951" x2="310.8364" y1="524.4219" y2="524.4219"/><text fill="#000000" font-family="sans-serif" font-size="13" font-weight="bold" lengthAdjust="spacing" textLength="18.0908" x="61.9951" y="519.356">13</text><text fill="#000000" font-family="sans-serif" font-size="13" lengthAdjust="spacing" textLength="125.125" x="84.0859" y="519.356">Click "Submit Test"</text></g><g class="message" data-entity-1="part2" data-entity-2="part2" id="msg14"><line style="stroke:#181818;stroke-width:1;" x1="326.8364" x2="368.8364" y1="553.5547" y2="553.5547"/><line style="stroke:#181818;stroke-width:1;" x1="368.8364" x2="368.8364" y1="553.5547" y2="566.5547"/><line style="stroke:#181818;stroke-width:1;" x1="327.8364" x2="368.8364" y1="566.5547" y2="566.5547"/><polygon fill="#181818" points="337.8364,562.5547,327.8364,566.5547,337.8364,570.5547,333.8364,566.5547" style="stroke:#181818;stroke-width:1;"/><text fill="#000000" font-family="sans-serif" font-size="13" font-weight="bold" lengthAdjust="spacing" textLength="18.0908" x="333.8364" y="548.4888">14</text><text fill="#000000" font-family="sans-serif" font-size="13" lengthAdjust="spacing" textLength="207.124" x="355.9272" y="548.4888">Validate all questions answered</text></g><path d="M10,581.5547 L74.4429,581.5547 L74.4429,588.6875 L64.4429,598.6875 L10,598.6875 L10,581.5547" fill="#EEEEEE" style="stroke:#000000;stroke-width:1.5;"/><rect fill="none" height="672.125" style="stroke:#000000;stroke-width:1.5;" width="1712.9624" x="10" y="581.5547"/><text fill="#000000" font-family="sans-serif" font-size="13" font-weight="bold" lengthAdjust="spacing" textLength="19.4429" x="25" y="594.6216">alt</text><text fill="#000000" font-family="sans-serif" font-size="11" font-weight="bold" lengthAdjust="spacing" textLength="179.3892" x="89.4429" y="593.7651">[Not all questions answered]</text><g class="message" data-entity-1="part2" data-entity-2="part1" id="msg15"><polygon fill="#181818" points="65.9951,615.8203,55.9951,619.8203,65.9951,623.8203,61.9951,619.8203" style="stroke:#181818;stroke-width:1;"/><line style="stroke:#181818;stroke-width:1;" x1="59.9951" x2="315.8364" y1="619.8203" y2="619.8203"/><text fill="#000000" font-family="sans-serif" font-size="13" font-weight="bold" lengthAdjust="spacing" textLength="18.0908" x="71.9951" y="614.7544">15</text><text fill="#000000" font-family="sans-serif" font-size="13" lengthAdjust="spacing" textLength="209.5742" x="94.0859" y="614.7544">Highlight unanswered questions</text></g><line style="stroke:#000000;stroke-width:1;stroke-dasharray:2,2;" x1="10" x2="1722.9624" y1="628.8203" y2="628.8203"/><text fill="#000000" font-family="sans-serif" font-size="11" font-weight="bold" lengthAdjust="spacing" textLength="90.1216" x="15" y="639.0308">[All answered]</text><g class="message" data-entity-1="part2" data-entity-2="part3" id="msg16"><polygon fill="#181818" points="596.9478,674.8906,606.9478,678.8906,596.9478,682.8906,600.9478,678.8906" style="stroke:#181818;stroke-width:1;"/><line style="stroke:#181818;stroke-width:1;" x1="326.8364" x2="602.9478" y1="678.8906" y2="678.8906"/><text fill="#000000" font-family="sans-serif" font-size="13" font-weight="bold" lengthAdjust="spacing" textLength="18.0908" x="333.8364" y="666.2583">16</text><text fill="#000000" font-family="sans-serif" font-size="13" lengthAdjust="spacing" textLength="197.8882" x="355.9272" y="658.6919">POST /lessons/{testId}/submit</text><text fill="#000000" font-family="sans-serif" font-size="13" lengthAdjust="spacing" textLength="241.0205" x="355.9272" y="673.8247">{answers: [{questionId, answerId}]}</text></g><g class="message" data-entity-1="part3" data-entity-2="part3" id="msg17"><line style="stroke:#181818;stroke-width:1;" x1="618.9478" x2="660.9478" y1="708.0234" y2="708.0234"/><line style="stroke:#181818;stroke-width:1;" x1="660.9478" x2="660.9478" y1="708.0234" y2="721.0234"/><line style="stroke:#181818;stroke-width:1;" x1="619.9478" x2="660.9478" y1="721.0234" y2="721.0234"/><polygon fill="#181818" points="629.9478,717.0234,619.9478,721.0234,629.9478,725.0234,625.9478,721.0234" style="stroke:#181818;stroke-width:1;"/><text fill="#000000" font-family="sans-serif" font-size="13" font-weight="bold" lengthAdjust="spacing" textLength="18.0908" x="625.9478" y="702.9575">17</text><text fill="#000000" font-family="sans-serif" font-size="13" lengthAdjust="spacing" textLength="82.1577" x="648.0386" y="702.9575">Validate JWT</text></g><g class="message" data-entity-1="part3" data-entity-2="part4" id="msg18"><polygon fill="#181818" points="754.8442,746.1563,764.8442,750.1563,754.8442,754.1563,758.8442,750.1563" style="stroke:#181818;stroke-width:1;"/><line style="stroke:#181818;stroke-width:1;" x1="618.9478" x2="760.8442" y1="750.1563" y2="750.1563"/><text fill="#000000" font-family="sans-serif" font-size="13" font-weight="bold" lengthAdjust="spacing" textLength="18.0908" x="625.9478" y="745.0903">18</text><text fill="#000000" font-family="sans-serif" font-size="13" lengthAdjust="spacing" textLength="106.8057" x="648.0386" y="745.0903">Forward request</text></g><g class="message" data-entity-1="part4" data-entity-2="part5" id="msg19"><polygon fill="#181818" points="1100.6313,775.2891,1110.6313,779.2891,1100.6313,783.2891,1104.6313,779.2891" style="stroke:#181818;stroke-width:1;"/><line style="stroke:#181818;stroke-width:1;" x1="776.8442" x2="1106.6313" y1="779.2891" y2="779.2891"/><text fill="#000000" font-family="sans-serif" font-size="13" font-weight="bold" lengthAdjust="spacing" textLength="18.0908" x="783.8442" y="774.2231">19</text><text fill="#000000" font-family="sans-serif" font-size="13" lengthAdjust="spacing" textLength="294.6963" x="805.9351" y="774.2231">TakeATest(testId, userID, submittedAnswers)</text></g><g class="message" data-entity-1="part5" data-entity-2="part7" id="msg20"><polygon fill="#181818" points="1658.3315,804.4219,1668.3315,808.4219,1658.3315,812.4219,1662.3315,808.4219" style="stroke:#181818;stroke-width:1;"/><line style="stroke:#181818;stroke-width:1;" x1="1122.6313" x2="1664.3315" y1="808.4219" y2="808.4219"/><text fill="#000000" font-family="sans-serif" font-size="13" font-weight="bold" lengthAdjust="spacing" textLength="18.0908" x="1129.6313" y="803.356">20</text><text fill="#000000" font-family="sans-serif" font-size="13" lengthAdjust="spacing" textLength="192.0039" x="1151.7222" y="803.356">Get test with correct answers</text></g><g class="message" data-entity-1="part7" data-entity-2="part5" id="msg21"><polygon fill="#181818" points="1133.6313,833.5547,1123.6313,837.5547,1133.6313,841.5547,1129.6313,837.5547" style="stroke:#181818;stroke-width:1;"/><line style="stroke:#181818;stroke-width:1;stroke-dasharray:2,2;" x1="1127.6313" x2="1674.3315" y1="837.5547" y2="837.5547"/><text fill="#000000" font-family="sans-serif" font-size="13" font-weight="bold" lengthAdjust="spacing" textLength="18.0908" x="1139.6313" y="832.4888">21</text><text fill="#000000" font-family="sans-serif" font-size="13" lengthAdjust="spacing" textLength="105.8218" x="1161.7222" y="832.4888">Correct answers</text></g><g class="message" data-entity-1="part5" data-entity-2="part5" id="msg22"><line style="stroke:#181818;stroke-width:1;" x1="1122.6313" x2="1164.6313" y1="881.8203" y2="881.8203"/><line style="stroke:#181818;stroke-width:1;" x1="1164.6313" x2="1164.6313" y1="881.8203" y2="894.8203"/><line style="stroke:#181818;stroke-width:1;" x1="1123.6313" x2="1164.6313" y1="894.8203" y2="894.8203"/><polygon fill="#181818" points="1133.6313,890.8203,1123.6313,894.8203,1133.6313,898.8203,1129.6313,894.8203" style="stroke:#181818;stroke-width:1;"/><text fill="#000000" font-family="sans-serif" font-size="13" font-weight="bold" lengthAdjust="spacing" textLength="18.0908" x="1129.6313" y="869.188">22</text><text fill="#000000" font-family="sans-serif" font-size="13" lengthAdjust="spacing" textLength="68.7324" x="1151.7222" y="861.6216">Grade test</text><text fill="#000000" font-family="sans-serif" font-size="13" lengthAdjust="spacing" textLength="206.3496" x="1151.7222" y="876.7544">(compare submitted vs correct)</text></g><g class="message" data-entity-1="part5" data-entity-2="part6" id="msg23"><polygon fill="#181818" points="1379.8633,919.9531,1389.8633,923.9531,1379.8633,927.9531,1383.8633,923.9531" style="stroke:#181818;stroke-width:1;"/><line style="stroke:#181818;stroke-width:1;" x1="1122.6313" x2="1385.8633" y1="923.9531" y2="923.9531"/><text fill="#000000" font-family="sans-serif" font-size="13" font-weight="bold" lengthAdjust="spacing" textLength="18.0908" x="1129.6313" y="918.8872">23</text><text fill="#000000" font-family="sans-serif" font-size="13" lengthAdjust="spacing" textLength="228.1411" x="1151.7222" y="918.8872">Create/Update LessonProgressTest</text></g><g class="message" data-entity-1="part6" data-entity-2="part6" id="msg24"><line style="stroke:#181818;stroke-width:1;" x1="1401.8633" x2="1443.8633" y1="968.2188" y2="968.2188"/><line style="stroke:#181818;stroke-width:1;" x1="1443.8633" x2="1443.8633" y1="968.2188" y2="981.2188"/><line style="stroke:#181818;stroke-width:1;" x1="1402.8633" x2="1443.8633" y1="981.2188" y2="981.2188"/><polygon fill="#181818" points="1412.8633,977.2188,1402.8633,981.2188,1412.8633,985.2188,1408.8633,981.2188" style="stroke:#181818;stroke-width:1;"/><text fill="#000000" font-family="sans-serif" font-size="13" font-weight="bold" lengthAdjust="spacing" textLength="18.0908" x="1408.8633" y="955.5864">24</text><text fill="#000000" font-family="sans-serif" font-size="13" lengthAdjust="spacing" textLength="150.249" x="1430.9541" y="948.02">Set score, isCompleted</text><text fill="#000000" font-family="sans-serif" font-size="13" lengthAdjust="spacing" textLength="222.3774" x="1430.9541" y="963.1528">based on passing threshold (80%)</text></g><g class="message" data-entity-1="part6" data-entity-2="part5" id="msg25"><polygon fill="#181818" points="1133.6313,1006.3516,1123.6313,1010.3516,1133.6313,1014.3516,1129.6313,1010.3516" style="stroke:#181818;stroke-width:1;"/><line style="stroke:#181818;stroke-width:1;stroke-dasharray:2,2;" x1="1127.6313" x2="1395.8633" y1="1010.3516" y2="1010.3516"/><text fill="#000000" font-family="sans-serif" font-size="13" font-weight="bold" lengthAdjust="spacing" textLength="18.0908" x="1139.6313" y="1005.2856">25</text><text fill="#000000" font-family="sans-serif" font-size="13" lengthAdjust="spacing" textLength="98.1475" x="1161.7222" y="1005.2856">Progress entity</text></g><g class="message" data-entity-1="part5" data-entity-2="part7" id="msg26"><polygon fill="#181818" points="1658.3315,1035.4844,1668.3315,1039.4844,1658.3315,1043.4844,1662.3315,1039.4844" style="stroke:#181818;stroke-width:1;"/><line style="stroke:#181818;stroke-width:1;" x1="1122.6313" x2="1664.3315" y1="1039.4844" y2="1039.4844"/><text fill="#000000" font-family="sans-serif" font-size="13" font-weight="bold" lengthAdjust="spacing" textLength="18.0908" x="1129.6313" y="1034.4185">26</text><text fill="#000000" font-family="sans-serif" font-size="13" lengthAdjust="spacing" textLength="121.8306" x="1151.7222" y="1034.4185">Save test progress</text></g><g class="message" data-entity-1="part7" data-entity-2="part5" id="msg27"><polygon fill="#181818" points="1133.6313,1064.6172,1123.6313,1068.6172,1133.6313,1072.6172,1129.6313,1068.6172" style="stroke:#181818;stroke-width:1;"/><line style="stroke:#181818;stroke-width:1;stroke-dasharray:2,2;" x1="1127.6313" x2="1674.3315" y1="1068.6172" y2="1068.6172"/><text fill="#000000" font-family="sans-serif" font-size="13" font-weight="bold" lengthAdjust="spacing" textLength="18.0908" x="1139.6313" y="1063.5513">27</text><text fill="#000000" font-family="sans-serif" font-size="13" lengthAdjust="spacing" textLength="99.0933" x="1161.7222" y="1063.5513">Progress saved</text></g><g class="message" data-entity-1="part5" data-entity-2="part4" id="msg28"><polygon fill="#181818" points="787.8442,1108.8828,777.8442,1112.8828,787.8442,1116.8828,783.8442,1112.8828" style="stroke:#181818;stroke-width:1;"/><line style="stroke:#181818;stroke-width:1;stroke-dasharray:2,2;" x1="781.8442" x2="1116.6313" y1="1112.8828" y2="1112.8828"/><text fill="#000000" font-family="sans-serif" font-size="13" font-weight="bold" lengthAdjust="spacing" textLength="18.0908" x="793.8442" y="1100.2505">28</text><text fill="#000000" font-family="sans-serif" font-size="13" lengthAdjust="spacing" textLength="96.7446" x="815.9351" y="1092.6841">TestResultDTO</text><text fill="#000000" font-family="sans-serif" font-size="13" lengthAdjust="spacing" textLength="224.9609" x="815.9351" y="1107.8169">{score, isPassed, correctAnswers}</text></g><g class="message" data-entity-1="part4" data-entity-2="part3" id="msg29"><polygon fill="#181818" points="629.9478,1138.0156,619.9478,1142.0156,629.9478,1146.0156,625.9478,1142.0156" style="stroke:#181818;stroke-width:1;"/><line style="stroke:#181818;stroke-width:1;stroke-dasharray:2,2;" x1="623.9478" x2="770.8442" y1="1142.0156" y2="1142.0156"/><text fill="#000000" font-family="sans-serif" font-size="13" font-weight="bold" lengthAdjust="spacing" textLength="18.0908" x="635.9478" y="1136.9497">29</text><text fill="#000000" font-family="sans-serif" font-size="13" lengthAdjust="spacing" textLength="47.7026" x="658.0386" y="1136.9497">200 OK</text></g><g class="message" data-entity-1="part3" data-entity-2="part2" id="msg30"><polygon fill="#181818" points="337.8364,1167.1484,327.8364,1171.1484,337.8364,1175.1484,333.8364,1171.1484" style="stroke:#181818;stroke-width:1;"/><line style="stroke:#181818;stroke-width:1;stroke-dasharray:2,2;" x1="331.8364" x2="612.9478" y1="1171.1484" y2="1171.1484"/><text fill="#000000" font-family="sans-serif" font-size="13" font-weight="bold" lengthAdjust="spacing" textLength="18.0908" x="343.8364" y="1166.0825">30</text><text fill="#000000" font-family="sans-serif" font-size="13" lengthAdjust="spacing" textLength="75.7783" x="365.9272" y="1166.0825">Test results</text></g><g class="message" data-entity-1="part2" data-entity-2="part1" id="msg31"><polygon fill="#181818" points="60.9951,1241.6797,50.9951,1245.6797,60.9951,1249.6797,56.9951,1245.6797" style="stroke:#181818;stroke-width:1;"/><line style="stroke:#181818;stroke-width:1;" x1="54.9951" x2="320.8364" y1="1245.6797" y2="1245.6797"/><text fill="#000000" font-family="sans-serif" font-size="13" font-weight="bold" lengthAdjust="spacing" textLength="18.0908" x="66.9951" y="1217.9146">31</text><text fill="#000000" font-family="sans-serif" font-size="13" lengthAdjust="spacing" textLength="100.2676" x="89.0859" y="1195.2153">Display results:</text><text fill="#000000" font-family="sans-serif" font-size="13" lengthAdjust="spacing" textLength="123.9443" x="89.0859" y="1210.3481">- Score percentage</text><text fill="#000000" font-family="sans-serif" font-size="13" lengthAdjust="spacing" textLength="109.3003" x="89.0859" y="1225.481">- Pass/Fail status</text><text fill="#000000" font-family="sans-serif" font-size="13" lengthAdjust="spacing" textLength="162.0557" x="89.0859" y="1240.6138">- Correct answers review</text></g><?plantuml-src VLLXRzem4FsUNt5YcWHI4MoV9ZHD2c5btT2AHhPe6ljWaXj4DNPcEr1KzR_lR2SafEs-LAbpxzszb-U3bKQAShz15GJwBXS5KsmFKtc_P5cMYosy6GS1IurKi42c12fW6XR1HfOYO-e42Mx2eh27IHZGyJtqmkKDp9d18plruDKYt-xCb9SO0AHI62LvfuImyoH0aG71Auv8baeZh50TyXHhcf_8kJosY6BK9lBFt8yMHwtNdgMQBmhf3GgJcnDfqLgAfP9RHK-MnSbQnbIICSCsZ9fxz6pgmBDfC-42XXz8xWJ2D2Ku68ldZj9wbHz86NbqVhJE9A45pPC9p3_6CFBLUlHWiJVPOrDCLioJklO7utbcJpydSNKSHnEubkh8L0OA_vQ4Ry2aFeWZMnRHU7CqLfeNs_UThg3Kg6vcWmP4naHkEXBfG5xGCJSxSFmvJReMVNiWIqFkAeKfEIRq4PLkCv5BHFL-EFHSpbZh9_I5X5n77Za8Chp0qCWE4tg87tWMtrxKXTO0MsOTU3iUm-sNzdkIdlZMrZZN-JnykuxyhJw6_OApN1USdRpYbbWdtWi4MNYIvhklaBSCW3zqEwX1urPJ6V4ylOFUgjpiS-EcwhNRdxyluxnfNn5ZHbUF6_WgpKll0JpNOWAVw89mUqcW5FNxbWF8AT4XiJp1MhkMjwjdGZdIRkorUAYKJk3NGqrfe-IFgVBt8z6rBGPu8SJrY-TYtAAmGGPeeXopEmojVPqONu6VqM0Mrd5iqL1ewDyNqzr9yWMIOkcGvp17JuexAMuwsRkdM8Qk5TsSLEvfiM8pAnnqtNpGu6Z_K1k5H3ZwNZZBdYwgzf1-OT7VCtf5-ZGnuvMxRlk28xLR2xlGCf022gQrtUjcHuGxoJFelnk_7ZHQ7KtTiDgNbrfjrqjNL-pWjK9H0VzlvPbU4p1xridEIlY6kkI6LWA5yQnlILgGeb0vMGNWiSCN-inrDiT5ZVlHw6uFvLfslhFT7grBLw-FgdQo5aDOsV6WG9MIUMoBzinEEhfcEGTjc2crFUlaYJWEEHulsoLXnthx8nJy0m00?></g></svg>