<?plantuml 1.2026.1?><svg xmlns="http://www.w3.org/2000/svg" xmlns:xlink="http://www.w3.org/1999/xlink" contentStyleType="text/css" data-diagram-type="SEQUENCE" height="957px" preserveAspectRatio="none" style="width:1072px;height:957px;background:#FFFFFF;" version="1.1" viewBox="0 0 1072 957" width="1072px" zoomAndPan="magnify"><defs/><g><rect fill="#ADD8E6" height="945.3906" style="stroke:#181818;stroke-width:0.5;" width="102.4434" x="527.8892" y="6"/><text fill="#000000" font-family="sans-serif" font-size="13" font-weight="bold" lengthAdjust="spacing" textLength="92.6821" x="532.7698" y="18.0669">API Gateway</text><rect fill="#90EE90" height="945.3906" style="stroke:#181818;stroke-width:0.5;" width="350.8145" x="708.9736" y="6"/><text fill="#000000" font-family="sans-serif" font-size="13" font-weight="bold" lengthAdjust="spacing" textLength="130.7427" x="819.0095" y="18.0669">Authentik Service</text><g><title>User</title><rect fill="#FFFFFF" height="727.6641" style="stroke:#181818;stroke-width:1;" width="10" x="43.9551" y="112.4297"/></g><g><title>WebApp</title><rect fill="#FFFFFF" height="727.6641" style="stroke:#181818;stroke-width:1;" width="10" x="318.5195" y="112.4297"/></g><g><title>API Gateway</title><rect fill="#FFFFFF" height="526.8672" style="stroke:#181818;stroke-width:1;" width="10" x="574.1108" y="241.9609"/></g><g><title>AuthController</title><rect fill="#FFFFFF" height="468.6016" style="stroke:#181818;stroke-width:1;" width="10" x="761.9663" y="271.0938"/></g><g><title>UserStore</title><rect fill="#FFFFFF" height="184.6016" style="stroke:#181818;stroke-width:1;" width="10" x="1013.1777" y="300.2266"/></g><rect fill="none" height="539.8672" style="stroke:#000000;stroke-width:1.5;" width="1055.7881" x="10" y="315.2266"/><rect fill="none" height="306.1328" style="stroke:#000000;stroke-width:1.5;" width="998.1777" x="20" y="541.9609"/><g class="participant-lifeline" data-entity-uid="part1" data-qualified-name="U" id="part1-lifeline"><g><title>User</title><rect fill="#000000" fill-opacity="0.00000" height="790.7969" width="8" x="44.9551" y="81.2969"/><line style="stroke:#181818;stroke-width:0.5;stroke-dasharray:5,5;" x1="48" x2="48" y1="81.2969" y2="872.0938"/></g></g><g class="participant-lifeline" data-entity-uid="part2" data-qualified-name="WA" id="part2-lifeline"><g><title>WebApp</title><rect fill="#000000" fill-opacity="0.00000" height="790.7969" width="8" x="319.5195" y="81.2969"/><line style="stroke:#181818;stroke-width:0.5;stroke-dasharray:5,5;" x1="323.1729" x2="323.1729" y1="81.2969" y2="872.0938"/></g></g><g class="participant-lifeline" data-entity-uid="part3" data-qualified-name="GW" id="part3-lifeline"><g><title>API Gateway</title><rect fill="#000000" fill-opacity="0.00000" height="790.7969" width="8" x="575.1108" y="81.2969"/><line style="stroke:#181818;stroke-width:0.5;stroke-dasharray:5,5;" x1="578.8892" x2="578.8892" y1="81.2969" y2="872.0938"/></g></g><g class="participant-lifeline" data-entity-uid="part4" data-qualified-name="AC" id="part4-lifeline"><g><title>AuthController</title><rect fill="#000000" fill-opacity="0.00000" height="790.7969" width="8" x="762.9663" y="81.2969"/><line style="stroke:#181818;stroke-width:0.5;stroke-dasharray:5,5;" x1="765.9736" x2="765.9736" y1="81.2969" y2="872.0938"/></g></g><g class="participant-lifeline" data-entity-uid="part5" data-qualified-name="US" id="part5-lifeline"><g><title>UserStore</title><rect fill="#000000" fill-opacity="0.00000" height="790.7969" width="8" x="1014.1777" y="81.2969"/><line style="stroke:#181818;stroke-width:0.5;stroke-dasharray:5,5;" x1="1017.5674" x2="1017.5674" y1="81.2969" y2="872.0938"/></g></g><g class="participant participant-head" data-entity-uid="part1" data-qualified-name="U" id="part1-head"><text fill="#000000" font-family="sans-serif" font-size="14" lengthAdjust="spacing" textLength="31.9102" x="30" y="77.9951">User</text><ellipse cx="48.9551" cy="13.5" fill="#E2E2F0" rx="8" ry="8" style="stroke:#181818;stroke-width:0.5;"/><path d="M48.9551,21.5 L48.9551,48.5 M35.9551,29.5 L61.9551,29.5 M48.9551,48.5 L35.9551,63.5 M48.9551,48.5 L61.9551,63.5" fill="none" style="stroke:#181818;stroke-width:0.5;"/></g><g class="participant participant-tail" data-entity-uid="part1" data-qualified-name="U" id="part1-tail"><text fill="#000000" font-family="sans-serif" font-size="14" lengthAdjust="spacing" textLength="31.9102" x="30" y="884.0889">User</text><ellipse cx="48.9551" cy="895.8906" fill="#E2E2F0" rx="8" ry="8" style="stroke:#181818;stroke-width:0.5;"/><path d="M48.9551,903.8906 L48.9551,930.8906 M35.9551,911.8906 L61.9551,911.8906 M48.9551,930.8906 L35.9551,945.8906 M48.9551,930.8906 L61.9551,945.8906" fill="none" style="stroke:#181818;stroke-width:0.5;"/></g><g class="participant participant-head" data-entity-uid="part2" data-qualified-name="WA" id="part2-head"><text fill="#000000" font-family="sans-serif" font-size="14" lengthAdjust="spacing" textLength="58.6934" x="291.1729" y="77.9951">WebApp</text><path d="M303.0195,37 L303.0195,61 M303.0195,49 L320.0195,49" fill="none" style="stroke:#181818;stroke-width:0.5;"/><ellipse cx="332.0195" cy="49" fill="#E2E2F0" rx="12" ry="12" style="stroke:#181818;stroke-width:0.5;"/></g><g class="participant participant-tail" data-entity-uid="part2" data-qualified-name="WA" id="part2-tail"><text fill="#000000" font-family="sans-serif" font-size="14" lengthAdjust="spacing" textLength="58.6934" x="291.1729" y="884.0889">WebApp</text><path d="M303.0195,891.3906 L303.0195,915.3906 M303.0195,903.3906 L320.0195,903.3906" fill="none" style="stroke:#181818;stroke-width:0.5;"/><ellipse cx="332.0195" cy="903.3906" fill="#E2E2F0" rx="12" ry="12" style="stroke:#181818;stroke-width:0.5;"/></g><g class="participant participant-head" data-entity-uid="part3" data-qualified-name="GW" id="part3-head"><text fill="#000000" font-family="sans-serif" font-size="14" lengthAdjust="spacing" textLength="88.4434" x="531.8892" y="77.9951">API Gateway</text><ellipse cx="579.1108" cy="49" fill="#E2E2F0" rx="12" ry="12" style="stroke:#181818;stroke-width:0.5;"/><polygon fill="#181818" points="575.1108,37,581.1108,32,579.1108,37,581.1108,42,575.1108,37" style="stroke:#181818;stroke-width:1;"/></g><g class="participant participant-tail" data-entity-uid="part3" data-qualified-name="GW" id="part3-tail"><text fill="#000000" font-family="sans-serif" font-size="14" lengthAdjust="spacing" textLength="88.4434" x="531.8892" y="884.0889">API Gateway</text><ellipse cx="579.1108" cy="903.3906" fill="#E2E2F0" rx="12" ry="12" style="stroke:#181818;stroke-width:0.5;"/><polygon fill="#181818" points="575.1108,891.3906,581.1108,886.3906,579.1108,891.3906,581.1108,896.3906,575.1108,891.3906" style="stroke:#181818;stroke-width:1;"/></g><g class="participant participant-head" data-entity-uid="part4" data-qualified-name="AC" id="part4-head"><text fill="#000000" font-family="sans-serif" font-size="14" lengthAdjust="spacing" textLength="101.9854" x="712.9736" y="77.9951">AuthController</text><ellipse cx="766.9663" cy="49" fill="#E2E2F0" rx="12" ry="12" style="stroke:#181818;stroke-width:0.5;"/><polygon fill="#181818" points="762.9663,37,768.9663,32,766.9663,37,768.9663,42,762.9663,37" style="stroke:#181818;stroke-width:1;"/></g><g class="participant participant-tail" data-entity-uid="part4" data-qualified-name="AC" id="part4-tail"><text fill="#000000" font-family="sans-serif" font-size="14" lengthAdjust="spacing" textLength="101.9854" x="712.9736" y="884.0889">AuthController</text><ellipse cx="766.9663" cy="903.3906" fill="#E2E2F0" rx="12" ry="12" style="stroke:#181818;stroke-width:0.5;"/><polygon fill="#181818" points="762.9663,891.3906,768.9663,886.3906,766.9663,891.3906,768.9663,896.3906,762.9663,891.3906" style="stroke:#181818;stroke-width:1;"/></g><g class="participant participant-head" data-entity-uid="part5" data-qualified-name="US" id="part5-head"><text fill="#000000" font-family="sans-serif" font-size="14" lengthAdjust="spacing" textLength="69.2207" x="980.5674" y="77.9951">UserStore</text><ellipse cx="1018.1777" cy="49" fill="#E2E2F0" rx="12" ry="12" style="stroke:#181818;stroke-width:0.5;"/><line style="stroke:#181818;stroke-width:0.5;" x1="1006.1777" x2="1030.1777" y1="63" y2="63"/></g><g class="participant participant-tail" data-entity-uid="part5" data-qualified-name="US" id="part5-tail"><text fill="#000000" font-family="sans-serif" font-size="14" lengthAdjust="spacing" textLength="69.2207" x="980.5674" y="884.0889">UserStore</text><ellipse cx="1018.1777" cy="903.3906" fill="#E2E2F0" rx="12" ry="12" style="stroke:#181818;stroke-width:0.5;"/><line style="stroke:#181818;stroke-width:0.5;" x1="1006.1777" x2="1030.1777" y1="917.3906" y2="917.3906"/></g><g><title>User</title><rect fill="#FFFFFF" height="727.6641" style="stroke:#181818;stroke-width:1;" width="10" x="43.9551" y="112.4297"/></g><g><title>WebApp</title><rect fill="#FFFFFF" height="727.6641" style="stroke:#181818;stroke-width:1;" width="10" x="318.5195" y="112.4297"/></g><g><title>API Gateway</title><rect fill="#FFFFFF" height="526.8672" style="stroke:#181818;stroke-width:1;" width="10" x="574.1108" y="241.9609"/></g><g><title>AuthController</title><rect fill="#FFFFFF" height="468.6016" style="stroke:#181818;stroke-width:1;" width="10" x="761.9663" y="271.0938"/></g><g><title>UserStore</title><rect fill="#FFFFFF" height="184.6016" style="stroke:#181818;stroke-width:1;" width="10" x="1013.1777" y="300.2266"/></g><g class="message" data-entity-1="part1" data-entity-2="part2" id="msg1"><polygon fill="#181818" points="306.5195,108.4297,316.5195,112.4297,306.5195,116.4297,310.5195,112.4297" style="stroke:#181818;stroke-width:1;"/><line style="stroke:#181818;stroke-width:1;" x1="53.9551" x2="312.5195" y1="112.4297" y2="112.4297"/><text fill="#000000" font-family="sans-serif" font-size="13" font-weight="bold" lengthAdjust="spacing" textLength="9.0454" x="60.9551" y="107.3638">1</text><text fill="#000000" font-family="sans-serif" font-size="13" lengthAdjust="spacing" textLength="117.1333" x="74.0005" y="107.3638">Access login page</text></g><g class="message" data-entity-1="part2" data-entity-2="part2" id="msg2"><line style="stroke:#181818;stroke-width:1;" x1="328.5195" x2="370.5195" y1="141.5625" y2="141.5625"/><line style="stroke:#181818;stroke-width:1;" x1="370.5195" x2="370.5195" y1="141.5625" y2="154.5625"/><line style="stroke:#181818;stroke-width:1;" x1="329.5195" x2="370.5195" y1="154.5625" y2="154.5625"/><polygon fill="#181818" points="339.5195,150.5625,329.5195,154.5625,339.5195,158.5625,335.5195,154.5625" style="stroke:#181818;stroke-width:1;"/><text fill="#000000" font-family="sans-serif" font-size="13" font-weight="bold" lengthAdjust="spacing" textLength="9.0454" x="335.5195" y="136.4966">2</text><text fill="#000000" font-family="sans-serif" font-size="13" lengthAdjust="spacing" textLength="118.3901" x="348.5649" y="136.4966">Display login form</text></g><g class="message" data-entity-1="part1" data-entity-2="part2" id="msg3"><polygon fill="#181818" points="306.5195,179.6953,316.5195,183.6953,306.5195,187.6953,310.5195,183.6953" style="stroke:#181818;stroke-width:1;"/><line style="stroke:#181818;stroke-width:1;" x1="53.9551" x2="312.5195" y1="183.6953" y2="183.6953"/><text fill="#000000" font-family="sans-serif" font-size="13" font-weight="bold" lengthAdjust="spacing" textLength="9.0454" x="60.9551" y="178.6294">3</text><text fill="#000000" font-family="sans-serif" font-size="13" lengthAdjust="spacing" textLength="227.519" x="74.0005" y="178.6294">Enter credentials (email/password)</text></g><g class="message" data-entity-1="part1" data-entity-2="part2" id="msg4"><polygon fill="#181818" points="306.5195,208.8281,316.5195,212.8281,306.5195,216.8281,310.5195,212.8281" style="stroke:#181818;stroke-width:1;"/><line style="stroke:#181818;stroke-width:1;" x1="53.9551" x2="312.5195" y1="212.8281" y2="212.8281"/><text fill="#000000" font-family="sans-serif" font-size="13" font-weight="bold" lengthAdjust="spacing" textLength="9.0454" x="60.9551" y="207.7622">4</text><text fill="#000000" font-family="sans-serif" font-size="13" lengthAdjust="spacing" textLength="91.6284" x="74.0005" y="207.7622">Click "Sign In"</text></g><g class="message" data-entity-1="part2" data-entity-2="part3" id="msg5"><polygon fill="#181818" points="562.1108,237.9609,572.1108,241.9609,562.1108,245.9609,566.1108,241.9609" style="stroke:#181818;stroke-width:1;"/><line style="stroke:#181818;stroke-width:1;" x1="328.5195" x2="568.1108" y1="241.9609" y2="241.9609"/><text fill="#000000" font-family="sans-serif" font-size="13" font-weight="bold" lengthAdjust="spacing" textLength="9.0454" x="335.5195" y="236.895">5</text><text fill="#000000" font-family="sans-serif" font-size="13" lengthAdjust="spacing" textLength="108.3672" x="348.5649" y="236.895">POST /auth/login</text></g><g class="message" data-entity-1="part3" data-entity-2="part4" id="msg6"><polygon fill="#181818" points="749.9663,267.0938,759.9663,271.0938,749.9663,275.0938,753.9663,271.0938" style="stroke:#181818;stroke-width:1;"/><line style="stroke:#181818;stroke-width:1;" x1="584.1108" x2="755.9663" y1="271.0938" y2="271.0938"/><text fill="#000000" font-family="sans-serif" font-size="13" font-weight="bold" lengthAdjust="spacing" textLength="9.0454" x="591.1108" y="266.0278">6</text><text fill="#000000" font-family="sans-serif" font-size="13" lengthAdjust="spacing" textLength="142.6064" x="604.1563" y="266.0278">Forward login request</text></g><g class="message" data-entity-1="part4" data-entity-2="part5" id="msg7"><polygon fill="#181818" points="1001.1777,296.2266,1011.1777,300.2266,1001.1777,304.2266,1005.1777,300.2266" style="stroke:#181818;stroke-width:1;"/><line style="stroke:#181818;stroke-width:1;" x1="771.9663" x2="1007.1777" y1="300.2266" y2="300.2266"/><text fill="#000000" font-family="sans-serif" font-size="13" font-weight="bold" lengthAdjust="spacing" textLength="9.0454" x="778.9663" y="295.1606">7</text><text fill="#000000" font-family="sans-serif" font-size="13" lengthAdjust="spacing" textLength="132.0566" x="792.0117" y="295.1606">Query user by email</text></g><path d="M10,315.2266 L74.4429,315.2266 L74.4429,322.3594 L64.4429,332.3594 L10,332.3594 L10,315.2266" fill="#EEEEEE" style="stroke:#000000;stroke-width:1.5;"/><rect fill="none" height="539.8672" style="stroke:#000000;stroke-width:1.5;" width="1055.7881" x="10" y="315.2266"/><text fill="#000000" font-family="sans-serif" font-size="13" font-weight="bold" lengthAdjust="spacing" textLength="19.4429" x="25" y="328.2935">alt</text><text fill="#000000" font-family="sans-serif" font-size="11" font-weight="bold" lengthAdjust="spacing" textLength="102.604" x="89.4429" y="327.437">[User not found]</text><g class="message" data-entity-1="part5" data-entity-2="part4" id="msg8"><polygon fill="#181818" points="782.9663,349.4922,772.9663,353.4922,782.9663,357.4922,778.9663,353.4922" style="stroke:#181818;stroke-width:1;"/><line style="stroke:#181818;stroke-width:1;stroke-dasharray:2,2;" x1="776.9663" x2="1012.1777" y1="353.4922" y2="353.4922"/><text fill="#000000" font-family="sans-serif" font-size="13" font-weight="bold" lengthAdjust="spacing" textLength="9.0454" x="788.9663" y="348.4263">8</text><text fill="#000000" font-family="sans-serif" font-size="13" lengthAdjust="spacing" textLength="96.4463" x="802.0117" y="348.4263">User not found</text></g><g class="message" data-entity-1="part4" data-entity-2="part3" id="msg9"><polygon fill="#181818" points="595.1108,378.625,585.1108,382.625,595.1108,386.625,591.1108,382.625" style="stroke:#181818;stroke-width:1;"/><line style="stroke:#181818;stroke-width:1;stroke-dasharray:2,2;" x1="589.1108" x2="760.9663" y1="382.625" y2="382.625"/><text fill="#000000" font-family="sans-serif" font-size="13" font-weight="bold" lengthAdjust="spacing" textLength="9.0454" x="601.1108" y="377.5591">9</text><text fill="#000000" font-family="sans-serif" font-size="13" lengthAdjust="spacing" textLength="116.2256" x="614.1563" y="377.5591">401 Unauthorized</text></g><g class="message" data-entity-1="part3" data-entity-2="part2" id="msg10"><polygon fill="#181818" points="339.5195,407.7578,329.5195,411.7578,339.5195,415.7578,335.5195,411.7578" style="stroke:#181818;stroke-width:1;"/><line style="stroke:#181818;stroke-width:1;stroke-dasharray:2,2;" x1="333.5195" x2="573.1108" y1="411.7578" y2="411.7578"/><text fill="#000000" font-family="sans-serif" font-size="13" font-weight="bold" lengthAdjust="spacing" textLength="18.0908" x="345.5195" y="406.6919">10</text><text fill="#000000" font-family="sans-serif" font-size="13" lengthAdjust="spacing" textLength="95.6655" x="367.6104" y="406.6919">Error response</text></g><g class="message" data-entity-1="part2" data-entity-2="part1" id="msg11"><polygon fill="#181818" points="64.9551,436.8906,54.9551,440.8906,64.9551,444.8906,60.9551,440.8906" style="stroke:#181818;stroke-width:1;"/><line style="stroke:#181818;stroke-width:1;" x1="58.9551" x2="317.5195" y1="440.8906" y2="440.8906"/><text fill="#000000" font-family="sans-serif" font-size="13" font-weight="bold" lengthAdjust="spacing" textLength="18.0908" x="70.9551" y="435.8247">11</text><text fill="#000000" font-family="sans-serif" font-size="13" lengthAdjust="spacing" textLength="183.3901" x="93.0459" y="435.8247">Display "Invalid credentials"</text></g><line style="stroke:#000000;stroke-width:1;stroke-dasharray:2,2;" x1="10" x2="1065.7881" y1="449.8906" y2="449.8906"/><text fill="#000000" font-family="sans-serif" font-size="11" font-weight="bold" lengthAdjust="spacing" textLength="78.1279" x="15" y="460.1011">[User found]</text><g class="message" data-entity-1="part5" data-entity-2="part4" id="msg12"><polygon fill="#181818" points="782.9663,480.8281,772.9663,484.8281,782.9663,488.8281,778.9663,484.8281" style="stroke:#181818;stroke-width:1;"/><line style="stroke:#181818;stroke-width:1;stroke-dasharray:2,2;" x1="776.9663" x2="1017.1777" y1="484.8281" y2="484.8281"/><text fill="#000000" font-family="sans-serif" font-size="13" font-weight="bold" lengthAdjust="spacing" textLength="18.0908" x="788.9663" y="479.7622">12</text><text fill="#000000" font-family="sans-serif" font-size="13" lengthAdjust="spacing" textLength="63.0449" x="811.0571" y="479.7622">User data</text></g><g class="message" data-entity-1="part4" data-entity-2="part4" id="msg13"><line style="stroke:#181818;stroke-width:1;" x1="771.9663" x2="813.9663" y1="513.9609" y2="513.9609"/><line style="stroke:#181818;stroke-width:1;" x1="813.9663" x2="813.9663" y1="513.9609" y2="526.9609"/><line style="stroke:#181818;stroke-width:1;" x1="772.9663" x2="813.9663" y1="526.9609" y2="526.9609"/><polygon fill="#181818" points="782.9663,522.9609,772.9663,526.9609,782.9663,530.9609,778.9663,526.9609" style="stroke:#181818;stroke-width:1;"/><text fill="#000000" font-family="sans-serif" font-size="13" font-weight="bold" lengthAdjust="spacing" textLength="18.0908" x="778.9663" y="508.895">13</text><text fill="#000000" font-family="sans-serif" font-size="13" lengthAdjust="spacing" textLength="139.5469" x="801.0571" y="508.895">Verify password hash</text></g><path d="M20,541.9609 L84.4429,541.9609 L84.4429,549.0938 L74.4429,559.0938 L20,559.0938 L20,541.9609" fill="#EEEEEE" style="stroke:#000000;stroke-width:1.5;"/><rect fill="none" height="306.1328" style="stroke:#000000;stroke-width:1.5;" width="998.1777" x="20" y="541.9609"/><text fill="#000000" font-family="sans-serif" font-size="13" font-weight="bold" lengthAdjust="spacing" textLength="19.4429" x="35" y="555.0278">alt</text><text fill="#000000" font-family="sans-serif" font-size="11" font-weight="bold" lengthAdjust="spacing" textLength="115.2261" x="99.4429" y="554.1714">[Invalid password]</text><g class="message" data-entity-1="part4" data-entity-2="part3" id="msg14"><polygon fill="#181818" points="595.1108,576.2266,585.1108,580.2266,595.1108,584.2266,591.1108,580.2266" style="stroke:#181818;stroke-width:1;"/><line style="stroke:#181818;stroke-width:1;stroke-dasharray:2,2;" x1="589.1108" x2="760.9663" y1="580.2266" y2="580.2266"/><text fill="#000000" font-family="sans-serif" font-size="13" font-weight="bold" lengthAdjust="spacing" textLength="18.0908" x="601.1108" y="575.1606">14</text><text fill="#000000" font-family="sans-serif" font-size="13" lengthAdjust="spacing" textLength="116.2256" x="623.2017" y="575.1606">401 Unauthorized</text></g><g class="message" data-entity-1="part3" data-entity-2="part2" id="msg15"><polygon fill="#181818" points="339.5195,605.3594,329.5195,609.3594,339.5195,613.3594,335.5195,609.3594" style="stroke:#181818;stroke-width:1;"/><line style="stroke:#181818;stroke-width:1;stroke-dasharray:2,2;" x1="333.5195" x2="573.1108" y1="609.3594" y2="609.3594"/><text fill="#000000" font-family="sans-serif" font-size="13" font-weight="bold" lengthAdjust="spacing" textLength="18.0908" x="345.5195" y="604.2935">15</text><text fill="#000000" font-family="sans-serif" font-size="13" lengthAdjust="spacing" textLength="95.6655" x="367.6104" y="604.2935">Error response</text></g><g class="message" data-entity-1="part2" data-entity-2="part1" id="msg16"><polygon fill="#181818" points="64.9551,634.4922,54.9551,638.4922,64.9551,642.4922,60.9551,638.4922" style="stroke:#181818;stroke-width:1;"/><line style="stroke:#181818;stroke-width:1;" x1="58.9551" x2="317.5195" y1="638.4922" y2="638.4922"/><text fill="#000000" font-family="sans-serif" font-size="13" font-weight="bold" lengthAdjust="spacing" textLength="18.0908" x="70.9551" y="633.4263">16</text><text fill="#000000" font-family="sans-serif" font-size="13" lengthAdjust="spacing" textLength="183.3901" x="93.0459" y="633.4263">Display "Invalid credentials"</text></g><line style="stroke:#000000;stroke-width:1;stroke-dasharray:2,2;" x1="20" x2="1018.1777" y1="647.4922" y2="647.4922"/><text fill="#000000" font-family="sans-serif" font-size="11" font-weight="bold" lengthAdjust="spacing" textLength="103.4902" x="25" y="657.7026">[Password valid]</text><g class="message" data-entity-1="part4" data-entity-2="part4" id="msg17"><line style="stroke:#181818;stroke-width:1;" x1="771.9663" x2="813.9663" y1="697.5625" y2="697.5625"/><line style="stroke:#181818;stroke-width:1;" x1="813.9663" x2="813.9663" y1="697.5625" y2="710.5625"/><line style="stroke:#181818;stroke-width:1;" x1="772.9663" x2="813.9663" y1="710.5625" y2="710.5625"/><polygon fill="#181818" points="782.9663,706.5625,772.9663,710.5625,782.9663,714.5625,778.9663,710.5625" style="stroke:#181818;stroke-width:1;"/><text fill="#000000" font-family="sans-serif" font-size="13" font-weight="bold" lengthAdjust="spacing" textLength="18.0908" x="778.9663" y="684.9302">17</text><text fill="#000000" font-family="sans-serif" font-size="13" lengthAdjust="spacing" textLength="137.1982" x="801.0571" y="677.3638">Generate JWT tokens</text><text fill="#000000" font-family="sans-serif" font-size="13" lengthAdjust="spacing" textLength="195.1206" x="801.0571" y="692.4966">(access_token, refresh_token)</text></g><g class="message" data-entity-1="part4" data-entity-2="part3" id="msg18"><polygon fill="#181818" points="595.1108,735.6953,585.1108,739.6953,595.1108,743.6953,591.1108,739.6953" style="stroke:#181818;stroke-width:1;"/><line style="stroke:#181818;stroke-width:1;stroke-dasharray:2,2;" x1="589.1108" x2="765.9663" y1="739.6953" y2="739.6953"/><text fill="#000000" font-family="sans-serif" font-size="13" font-weight="bold" lengthAdjust="spacing" textLength="18.0908" x="601.1108" y="734.6294">18</text><text fill="#000000" font-family="sans-serif" font-size="13" lengthAdjust="spacing" textLength="131.7646" x="623.2017" y="734.6294">Success with tokens</text></g><g class="message" data-entity-1="part3" data-entity-2="part2" id="msg19"><polygon fill="#181818" points="339.5195,764.8281,329.5195,768.8281,339.5195,772.8281,335.5195,768.8281" style="stroke:#181818;stroke-width:1;"/><line style="stroke:#181818;stroke-width:1;stroke-dasharray:2,2;" x1="333.5195" x2="578.1108" y1="768.8281" y2="768.8281"/><text fill="#000000" font-family="sans-serif" font-size="13" font-weight="bold" lengthAdjust="spacing" textLength="18.0908" x="345.5195" y="763.7622">19</text><text fill="#000000" font-family="sans-serif" font-size="13" lengthAdjust="spacing" textLength="72.3506" x="367.6104" y="763.7622">JWT tokens</text></g><g class="message" data-entity-1="part2" data-entity-2="part2" id="msg20"><line style="stroke:#181818;stroke-width:1;" x1="328.5195" x2="370.5195" y1="797.9609" y2="797.9609"/><line style="stroke:#181818;stroke-width:1;" x1="370.5195" x2="370.5195" y1="797.9609" y2="810.9609"/><line style="stroke:#181818;stroke-width:1;" x1="329.5195" x2="370.5195" y1="810.9609" y2="810.9609"/><polygon fill="#181818" points="339.5195,806.9609,329.5195,810.9609,339.5195,814.9609,335.5195,810.9609" style="stroke:#181818;stroke-width:1;"/><text fill="#000000" font-family="sans-serif" font-size="13" font-weight="bold" lengthAdjust="spacing" textLength="18.0908" x="335.5195" y="792.895">20</text><text fill="#000000" font-family="sans-serif" font-size="13" lengthAdjust="spacing" textLength="199.5005" x="357.6104" y="792.895">Store tokens in secure storage</text></g><g class="message" data-entity-1="part2" data-entity-2="part1" id="msg21"><polygon fill="#181818" points="59.9551,836.0938,49.9551,840.0938,59.9551,844.0938,55.9551,840.0938" style="stroke:#181818;stroke-width:1;"/><line style="stroke:#181818;stroke-width:1;" x1="53.9551" x2="322.5195" y1="840.0938" y2="840.0938"/><text fill="#000000" font-family="sans-serif" font-size="13" font-weight="bold" lengthAdjust="spacing" textLength="18.0908" x="65.9551" y="835.0278">21</text><text fill="#000000" font-family="sans-serif" font-size="13" lengthAdjust="spacing" textLength="114.188" x="88.0459" y="835.0278">Redirect to Home</text></g><?plantuml-src ZLDDRzim3BthLn3UfGKMf0Ls2eO1RjPv6GOic-lwCg1GB2OMeaYU92VrVlqeEPwJ5FkuIUGZ-Hu_UEkDRdShj8ovhTGDjtm7T-PvoOMGUWEtDupnoXiBXKCBt471LgRLWjiEIbobJHECPSh8_0n9kbn0nZqUU9V0gyzoK_ixrI83g8psrgWB2CLc9KCjWCA77AslKNkvXHpjNbOuPCeieZv95O3p_grwSkcSt27MTv5mJimniix78WLCtX7Z6QHLXSw1CXkfeU4R35BbdhYHojzFqbQcGyXxwHh5ksFCsjZTIRvxxOb6PL442bmvkC8TbshQSESEnehh4JjNijf2aikDXeLEsB56LivW-IL_W2adSTDOPgH2hShA04ldC_XWx85RSQHYyKUBpezOQWLBvm5Sv3FusY8Dh0qpN7KGMPs8pMd8olSZriQJBfemTPBYtqucCS4B7n49li3apSqj53eGDbR-nE0bDS4RvDnRI-jZqJL6E-nzWTNOp6IXzrn9STgwXA5os9Vz4nt1FIUpm3Cb4NViqIDQkUvWw3_KtDK14TGEHGSdcV-bwk-w_biPhMZGjXnOHKXCC3BFKACDaZwL3-3D5hNxhgzutDYd-7zDjTTKlkw_rvVyyxPVxuFqzJ53X9oqAvxBcQYnsYMMTc-K63QulwqU3BI13gkM38xCuPJE-l4DXRHOUOB3HxF3o-HqOnUM8Xwo25VBVW40?></g></svg>