<?plantuml 1.2026.1?><svg xmlns="http://www.w3.org/2000/svg" xmlns:xlink="http://www.w3.org/1999/xlink" contentStyleType="text/css" data-diagram-type="SEQUENCE" height="1126px" preserveAspectRatio="none" style="width:1498px;height:1126px;background:#FFFFFF;" version="1.1" viewBox="0 0 1498 1126" width="1498px" zoomAndPan="magnify"><defs/><g><rect fill="#ADD8E6" height="1114.3203" style="stroke:#181818;stroke-width:0.5;" width="102.4434" x="529.3755" y="6"/><text fill="#000000" font-family="sans-serif" font-size="13" font-weight="bold" lengthAdjust="spacing" textLength="92.6821" x="534.2561" y="18.0669">API Gateway</text><rect fill="#FFFFE0" height="1114.3203" style="stroke:#181818;stroke-width:0.5;" width="742.0122" x="733.6929" y="6"/><text fill="#000000" font-family="sans-serif" font-size="13" font-weight="bold" lengthAdjust="spacing" textLength="109.2622" x="1050.0679" y="18.0669">Course Service</text><g><title>Learner</title><rect fill="#FFFFFF" height="328.4609" style="stroke:#181818;stroke-width:1;" width="10" x="54.9951" y="118.5625"/></g><g><title>WebApp</title><rect fill="#FFFFFF" height="328.4609" style="stroke:#181818;stroke-width:1;" width="10" x="294.5117" y="118.5625"/></g><g><title>API Gateway</title><rect fill="#FFFFFF" height="270.1953" style="stroke:#181818;stroke-width:1;" width="10" x="575.5972" y="147.6953"/></g><g><title>BookmarkController</title><rect fill="#FFFFFF" height="169.7969" style="stroke:#181818;stroke-width:1;" width="10" x="805.7407" y="218.9609"/></g><g><title>CourseApp</title><rect fill="#FFFFFF" height="673.5313" style="stroke:#181818;stroke-width:1;" width="10" x="1075.1782" y="248.0938"/></g><g><title>Bookmark</title><rect fill="#FFFFFF" height="71.2656" style="stroke:#181818;stroke-width:1;" width="10" x="1239.7397" y="762.9609"/></g><g><title>CourseDB</title><rect fill="#FFFFFF" height="53.2656" style="stroke:#181818;stroke-width:1;" width="10" x="1429.0742" y="277.2266"/></g><g><title>CourseDB</title><rect fill="#FFFFFF" height="53.2656" style="stroke:#181818;stroke-width:1;" width="10" x="1429.0742" y="520.0938"/></g><g><title>CourseDB</title><rect fill="#FFFFFF" height="29.1328" style="stroke:#181818;stroke-width:1;" width="10" x="1429.0742" y="863.3594"/></g><rect fill="none" height="731.7969" style="stroke:#000000;stroke-width:1.5;" width="1481.7051" x="10" y="292.2266"/><rect fill="none" height="481.9297" style="stroke:#000000;stroke-width:1.5;" width="1461.7051" x="20" y="535.0938"/><g class="participant-lifeline" data-entity-uid="part1" data-qualified-name="L" id="part1-lifeline"><g><title>Learner</title><rect fill="#000000" fill-opacity="0.00000" height="953.5938" width="8" x="55.9951" y="87.4297"/><line style="stroke:#181818;stroke-width:0.5;stroke-dasharray:5,5;" x1="59" x2="59" y1="87.4297" y2="1041.0234"/></g></g><g class="participant-lifeline" data-entity-uid="part2" data-qualified-name="WA" id="part2-lifeline"><g><title>WebApp</title><rect fill="#000000" fill-opacity="0.00000" height="953.5938" width="8" x="295.5117" y="87.4297"/><line style="stroke:#181818;stroke-width:0.5;stroke-dasharray:5,5;" x1="299.165" x2="299.165" y1="87.4297" y2="1041.0234"/></g></g><g class="participant-lifeline" data-entity-uid="part3" data-qualified-name="GW" id="part3-lifeline"><g><title>API Gateway</title><rect fill="#000000" fill-opacity="0.00000" height="953.5938" width="8" x="576.5972" y="87.4297"/><line style="stroke:#181818;stroke-width:0.5;stroke-dasharray:5,5;" x1="580.3755" x2="580.3755" y1="87.4297" y2="1041.0234"/></g></g><g class="participant-lifeline" data-entity-uid="part4" data-qualified-name="BC" id="part4-lifeline"><g><title>BookmarkController</title><rect fill="#000000" fill-opacity="0.00000" height="953.5938" width="8" x="806.7407" y="87.4297"/><line style="stroke:#181818;stroke-width:0.5;stroke-dasharray:5,5;" x1="810.6929" x2="810.6929" y1="87.4297" y2="1041.0234"/></g></g><g class="participant-lifeline" data-entity-uid="part5" data-qualified-name="CA" id="part5-lifeline"><g><title>CourseApp</title><rect fill="#000000" fill-opacity="0.00000" height="953.5938" width="8" x="1076.1782" y="87.4297"/><line style="stroke:#181818;stroke-width:0.5;stroke-dasharray:5,5;" x1="1080.0645" x2="1080.0645" y1="87.4297" y2="1041.0234"/></g></g><g class="participant-lifeline" data-entity-uid="part6" data-qualified-name="B" id="part6-lifeline"><g><title>Bookmark</title><rect fill="#000000" fill-opacity="0.00000" height="953.5938" width="8" x="1240.7397" y="87.4297"/><line style="stroke:#181818;stroke-width:0.5;stroke-dasharray:5,5;" x1="1244.2783" x2="1244.2783" y1="87.4297" y2="1041.0234"/></g></g><g class="participant-lifeline" data-entity-uid="part7" data-qualified-name="CDB" id="part7-lifeline"><g><title>CourseDB</title><rect fill="#000000" fill-opacity="0.00000" height="953.5938" width="8" x="1430.0742" y="87.4297"/><line style="stroke:#181818;stroke-width:0.5;stroke-dasharray:5,5;" x1="1433.4434" x2="1433.4434" y1="87.4297" y2="1041.0234"/></g></g><g class="participant participant-head" data-entity-uid="part1" data-qualified-name="L" id="part1-head"><text fill="#000000" font-family="sans-serif" font-size="14" lengthAdjust="spacing" textLength="53.9902" x="30" y="84.1279">Learner</text><ellipse cx="59.9951" cy="19.6328" fill="#E2E2F0" rx="8" ry="8" style="stroke:#181818;stroke-width:0.5;"/><path d="M59.9951,27.6328 L59.9951,54.6328 M46.9951,35.6328 L72.9951,35.6328 M59.9951,54.6328 L46.9951,69.6328 M59.9951,54.6328 L72.9951,69.6328" fill="none" style="stroke:#181818;stroke-width:0.5;"/></g><g class="participant participant-tail" data-entity-uid="part1" data-qualified-name="L" id="part1-tail"><text fill="#000000" font-family="sans-serif" font-size="14" lengthAdjust="spacing" textLength="53.9902" x="30" y="1053.0186">Learner</text><ellipse cx="59.9951" cy="1064.8203" fill="#E2E2F0" rx="8" ry="8" style="stroke:#181818;stroke-width:0.5;"/><path d="M59.9951,1072.8203 L59.9951,1099.8203 M46.9951,1080.8203 L72.9951,1080.8203 M59.9951,1099.8203 L46.9951,1114.8203 M59.9951,1099.8203 L72.9951,1114.8203" fill="none" style="stroke:#181818;stroke-width:0.5;"/></g><g class="participant participant-head" data-entity-uid="part2" data-qualified-name="WA" id="part2-head"><text fill="#000000" font-family="sans-serif" font-size="14" lengthAdjust="spacing" textLength="58.6934" x="267.165" y="84.1279">WebApp</text><path d="M279.0117,43.1328 L279.0117,67.1328 M279.0117,55.1328 L296.0117,55.1328" fill="none" style="stroke:#181818;stroke-width:0.5;"/><ellipse cx="308.0117" cy="55.1328" fill="#E2E2F0" rx="12" ry="12" style="stroke:#181818;stroke-width:0.5;"/></g><g class="participant participant-tail" data-entity-uid="part2" data-qualified-name="WA" id="part2-tail"><text fill="#000000" font-family="sans-serif" font-size="14" lengthAdjust="spacing" textLength="58.6934" x="267.165" y="1053.0186">WebApp</text><path d="M279.0117,1060.3203 L279.0117,1084.3203 M279.0117,1072.3203 L296.0117,1072.3203" fill="none" style="stroke:#181818;stroke-width:0.5;"/><ellipse cx="308.0117" cy="1072.3203" fill="#E2E2F0" rx="12" ry="12" style="stroke:#181818;stroke-width:0.5;"/></g><g class="participant participant-head" data-entity-uid="part3" data-qualified-name="GW" id="part3-head"><text fill="#000000" font-family="sans-serif" font-size="14" lengthAdjust="spacing" textLength="88.4434" x="533.3755" y="84.1279">API Gateway</text><ellipse cx="580.5972" cy="55.1328" fill="#E2E2F0" rx="12" ry="12" style="stroke:#181818;stroke-width:0.5;"/><polygon fill="#181818" points="576.5972,43.1328,582.5972,38.1328,580.5972,43.1328,582.5972,48.1328,576.5972,43.1328" style="stroke:#181818;stroke-width:1;"/></g><g class="participant participant-tail" data-entity-uid="part3" data-qualified-name="GW" id="part3-tail"><text fill="#000000" font-family="sans-serif" font-size="14" lengthAdjust="spacing" textLength="88.4434" x="533.3755" y="1053.0186">API Gateway</text><ellipse cx="580.5972" cy="1072.3203" fill="#E2E2F0" rx="12" ry="12" style="stroke:#181818;stroke-width:0.5;"/><polygon fill="#181818" points="576.5972,1060.3203,582.5972,1055.3203,580.5972,1060.3203,582.5972,1065.3203,576.5972,1060.3203" style="stroke:#181818;stroke-width:1;"/></g><g class="participant participant-head" data-entity-uid="part4" data-qualified-name="BC" id="part4-head"><text fill="#000000" font-family="sans-serif" font-size="14" lengthAdjust="spacing" textLength="140.0957" x="737.6929" y="84.1279">BookmarkController</text><ellipse cx="810.7407" cy="55.1328" fill="#E2E2F0" rx="12" ry="12" style="stroke:#181818;stroke-width:0.5;"/><polygon fill="#181818" points="806.7407,43.1328,812.7407,38.1328,810.7407,43.1328,812.7407,48.1328,806.7407,43.1328" style="stroke:#181818;stroke-width:1;"/></g><g class="participant participant-tail" data-entity-uid="part4" data-qualified-name="BC" id="part4-tail"><text fill="#000000" font-family="sans-serif" font-size="14" lengthAdjust="spacing" textLength="140.0957" x="737.6929" y="1053.0186">BookmarkController</text><ellipse cx="810.7407" cy="1072.3203" fill="#E2E2F0" rx="12" ry="12" style="stroke:#181818;stroke-width:0.5;"/><polygon fill="#181818" points="806.7407,1060.3203,812.7407,1055.3203,810.7407,1060.3203,812.7407,1065.3203,806.7407,1060.3203" style="stroke:#181818;stroke-width:1;"/></g><g class="participant participant-head" data-entity-uid="part5" data-qualified-name="CA" id="part5-head"><text fill="#000000" font-family="sans-serif" font-size="14" lengthAdjust="spacing" textLength="76.2275" x="1039.0645" y="84.1279">CourseApp</text><ellipse cx="1080.1782" cy="55.1328" fill="#E2E2F0" rx="12" ry="12" style="stroke:#181818;stroke-width:0.5;"/><polygon fill="#181818" points="1076.1782,43.1328,1082.1782,38.1328,1080.1782,43.1328,1082.1782,48.1328,1076.1782,43.1328" style="stroke:#181818;stroke-width:1;"/></g><g class="participant participant-tail" data-entity-uid="part5" data-qualified-name="CA" id="part5-tail"><text fill="#000000" font-family="sans-serif" font-size="14" lengthAdjust="spacing" textLength="76.2275" x="1039.0645" y="1053.0186">CourseApp</text><ellipse cx="1080.1782" cy="1072.3203" fill="#E2E2F0" rx="12" ry="12" style="stroke:#181818;stroke-width:0.5;"/><polygon fill="#181818" points="1076.1782,1060.3203,1082.1782,1055.3203,1080.1782,1060.3203,1082.1782,1065.3203,1076.1782,1060.3203" style="stroke:#181818;stroke-width:1;"/></g><g class="participant participant-head" data-entity-uid="part6" data-qualified-name="B" id="part6-head"><text fill="#000000" font-family="sans-serif" font-size="14" lengthAdjust="spacing" textLength="70.9229" x="1206.2783" y="84.1279">Bookmark</text><ellipse cx="1244.7397" cy="55.1328" fill="#E2E2F0" rx="12" ry="12" style="stroke:#181818;stroke-width:0.5;"/><line style="stroke:#181818;stroke-width:0.5;" x1="1232.7397" x2="1256.7397" y1="69.1328" y2="69.1328"/></g><g class="participant participant-tail" data-entity-uid="part6" data-qualified-name="B" id="part6-tail"><text fill="#000000" font-family="sans-serif" font-size="14" lengthAdjust="spacing" textLength="70.9229" x="1206.2783" y="1053.0186">Bookmark</text><ellipse cx="1244.7397" cy="1072.3203" fill="#E2E2F0" rx="12" ry="12" style="stroke:#181818;stroke-width:0.5;"/><line style="stroke:#181818;stroke-width:0.5;" x1="1232.7397" x2="1256.7397" y1="1086.3203" y2="1086.3203"/></g><g class="participant participant-head" data-entity-uid="part7" data-qualified-name="CDB" id="part7-head"><text fill="#000000" font-family="sans-serif" font-size="14" lengthAdjust="spacing" textLength="69.2617" x="1396.4434" y="84.1279">CourseDB</text><path d="M1416.0742,35.1328 C1416.0742,25.1328 1434.0742,25.1328 1434.0742,25.1328 C1434.0742,25.1328 1452.0742,25.1328 1452.0742,35.1328 L1452.0742,61.1328 C1452.0742,71.1328 1434.0742,71.1328 1434.0742,71.1328 C1434.0742,71.1328 1416.0742,71.1328 1416.0742,61.1328 L1416.0742,35.1328" fill="#E2E2F0" style="stroke:#181818;stroke-width:0.5;"/><path d="M1416.0742,35.1328 C1416.0742,45.1328 1434.0742,45.1328 1434.0742,45.1328 C1434.0742,45.1328 1452.0742,45.1328 1452.0742,35.1328" fill="none" style="stroke:#181818;stroke-width:0.5;"/></g><g class="participant participant-tail" data-entity-uid="part7" data-qualified-name="CDB" id="part7-tail"><text fill="#000000" font-family="sans-serif" font-size="14" lengthAdjust="spacing" textLength="69.2617" x="1396.4434" y="1053.0186">CourseDB</text><path d="M1416.0742,1066.3203 C1416.0742,1056.3203 1434.0742,1056.3203 1434.0742,1056.3203 C1434.0742,1056.3203 1452.0742,1056.3203 1452.0742,1066.3203 L1452.0742,1092.3203 C1452.0742,1102.3203 1434.0742,1102.3203 1434.0742,1102.3203 C1434.0742,1102.3203 1416.0742,1102.3203 1416.0742,1092.3203 L1416.0742,1066.3203" fill="#E2E2F0" style="stroke:#181818;stroke-width:0.5;"/><path d="M1416.0742,1066.3203 C1416.0742,1076.3203 1434.0742,1076.3203 1434.0742,1076.3203 C1434.0742,1076.3203 1452.0742,1076.3203 1452.0742,1066.3203" fill="none" style="stroke:#181818;stroke-width:0.5;"/></g><g><title>Learner</title><rect fill="#FFFFFF" height="328.4609" style="stroke:#181818;stroke-width:1;" width="10" x="54.9951" y="118.5625"/></g><g><title>WebApp</title><rect fill="#FFFFFF" height="328.4609" style="stroke:#181818;stroke-width:1;" width="10" x="294.5117" y="118.5625"/></g><g><title>API Gateway</title><rect fill="#FFFFFF" height="270.1953" style="stroke:#181818;stroke-width:1;" width="10" x="575.5972" y="147.6953"/></g><g><title>BookmarkController</title><rect fill="#FFFFFF" height="169.7969" style="stroke:#181818;stroke-width:1;" width="10" x="805.7407" y="218.9609"/></g><g><title>CourseApp</title><rect fill="#FFFFFF" height="673.5313" style="stroke:#181818;stroke-width:1;" width="10" x="1075.1782" y="248.0938"/></g><g><title>Bookmark</title><rect fill="#FFFFFF" height="71.2656" style="stroke:#181818;stroke-width:1;" width="10" x="1239.7397" y="762.9609"/></g><g><title>CourseDB</title><rect fill="#FFFFFF" height="53.2656" style="stroke:#181818;stroke-width:1;" width="10" x="1429.0742" y="277.2266"/></g><g><title>CourseDB</title><rect fill="#FFFFFF" height="53.2656" style="stroke:#181818;stroke-width:1;" width="10" x="1429.0742" y="520.0938"/></g><g><title>CourseDB</title><rect fill="#FFFFFF" height="29.1328" style="stroke:#181818;stroke-width:1;" width="10" x="1429.0742" y="863.3594"/></g><g class="message" data-entity-1="part1" data-entity-2="part2" id="msg1"><polygon fill="#181818" points="282.5117,114.5625,292.5117,118.5625,282.5117,122.5625,286.5117,118.5625" style="stroke:#181818;stroke-width:1;"/><line style="stroke:#181818;stroke-width:1;" x1="64.9951" x2="288.5117" y1="118.5625" y2="118.5625"/><text fill="#000000" font-family="sans-serif" font-size="13" font-weight="bold" lengthAdjust="spacing" textLength="9.0454" x="71.9951" y="113.4966">1</text><text fill="#000000" font-family="sans-serif" font-size="13" lengthAdjust="spacing" textLength="199.2974" x="85.0405" y="113.4966">Click bookmark icon on course</text></g><g class="message" data-entity-1="part2" data-entity-2="part3" id="msg2"><polygon fill="#181818" points="563.5972,143.6953,573.5972,147.6953,563.5972,151.6953,567.5972,147.6953" style="stroke:#181818;stroke-width:1;"/><line style="stroke:#181818;stroke-width:1;" x1="304.5117" x2="569.5972" y1="147.6953" y2="147.6953"/><text fill="#000000" font-family="sans-serif" font-size="13" font-weight="bold" lengthAdjust="spacing" textLength="9.0454" x="311.5117" y="142.6294">2</text><text fill="#000000" font-family="sans-serif" font-size="13" lengthAdjust="spacing" textLength="239.04" x="324.5571" y="142.6294">POST /courses/{courseId}/bookmark</text></g><g class="message" data-entity-1="part3" data-entity-2="part3" id="msg3"><line style="stroke:#181818;stroke-width:1;" x1="585.5972" x2="627.5972" y1="176.8281" y2="176.8281"/><line style="stroke:#181818;stroke-width:1;" x1="627.5972" x2="627.5972" y1="176.8281" y2="189.8281"/><line style="stroke:#181818;stroke-width:1;" x1="586.5972" x2="627.5972" y1="189.8281" y2="189.8281"/><polygon fill="#181818" points="596.5972,185.8281,586.5972,189.8281,596.5972,193.8281,592.5972,189.8281" style="stroke:#181818;stroke-width:1;"/><text fill="#000000" font-family="sans-serif" font-size="13" font-weight="bold" lengthAdjust="spacing" textLength="9.0454" x="592.5972" y="171.7622">3</text><text fill="#000000" font-family="sans-serif" font-size="13" lengthAdjust="spacing" textLength="183.0981" x="605.6426" y="171.7622">Validate JWT, extract userID</text></g><g class="message" data-entity-1="part3" data-entity-2="part4" id="msg4"><polygon fill="#181818" points="793.7407,214.9609,803.7407,218.9609,793.7407,222.9609,797.7407,218.9609" style="stroke:#181818;stroke-width:1;"/><line style="stroke:#181818;stroke-width:1;" x1="585.5972" x2="799.7407" y1="218.9609" y2="218.9609"/><text fill="#000000" font-family="sans-serif" font-size="13" font-weight="bold" lengthAdjust="spacing" textLength="9.0454" x="592.5972" y="213.895">4</text><text fill="#000000" font-family="sans-serif" font-size="13" lengthAdjust="spacing" textLength="106.8057" x="605.6426" y="213.895">Forward request</text></g><g class="message" data-entity-1="part4" data-entity-2="part5" id="msg5"><polygon fill="#181818" points="1063.1782,244.0938,1073.1782,248.0938,1063.1782,252.0938,1067.1782,248.0938" style="stroke:#181818;stroke-width:1;"/><line style="stroke:#181818;stroke-width:1;" x1="815.7407" x2="1069.1782" y1="248.0938" y2="248.0938"/><text fill="#000000" font-family="sans-serif" font-size="13" font-weight="bold" lengthAdjust="spacing" textLength="9.0454" x="822.7407" y="243.0278">5</text><text fill="#000000" font-family="sans-serif" font-size="13" lengthAdjust="spacing" textLength="227.3921" x="835.7861" y="243.0278">BookmarkCourse(courseId, userID)</text></g><g class="message" data-entity-1="part5" data-entity-2="part7" id="msg6"><polygon fill="#181818" points="1417.0742,273.2266,1427.0742,277.2266,1417.0742,281.2266,1421.0742,277.2266" style="stroke:#181818;stroke-width:1;"/><line style="stroke:#181818;stroke-width:1;" x1="1085.1782" x2="1423.0742" y1="277.2266" y2="277.2266"/><text fill="#000000" font-family="sans-serif" font-size="13" font-weight="bold" lengthAdjust="spacing" textLength="9.0454" x="1092.1782" y="272.1606">6</text><text fill="#000000" font-family="sans-serif" font-size="13" lengthAdjust="spacing" textLength="240.1255" x="1105.2236" y="272.1606">Check course exists and is published</text></g><path d="M10,292.2266 L74.4429,292.2266 L74.4429,299.3594 L64.4429,309.3594 L10,309.3594 L10,292.2266" fill="#EEEEEE" style="stroke:#000000;stroke-width:1.5;"/><rect fill="none" height="731.7969" style="stroke:#000000;stroke-width:1.5;" width="1481.7051" x="10" y="292.2266"/><text fill="#000000" font-family="sans-serif" font-size="13" font-weight="bold" lengthAdjust="spacing" textLength="19.4429" x="25" y="305.2935">alt</text><text fill="#000000" font-family="sans-serif" font-size="11" font-weight="bold" lengthAdjust="spacing" textLength="117.1328" x="89.4429" y="304.437">[Course not found]</text><g class="message" data-entity-1="part7" data-entity-2="part5" id="msg7"><polygon fill="#181818" points="1096.1782,326.4922,1086.1782,330.4922,1096.1782,334.4922,1092.1782,330.4922" style="stroke:#181818;stroke-width:1;"/><line style="stroke:#181818;stroke-width:1;stroke-dasharray:2,2;" x1="1090.1782" x2="1433.0742" y1="330.4922" y2="330.4922"/><text fill="#000000" font-family="sans-serif" font-size="13" font-weight="bold" lengthAdjust="spacing" textLength="9.0454" x="1102.1782" y="325.4263">7</text><text fill="#000000" font-family="sans-serif" font-size="13" lengthAdjust="spacing" textLength="64.1685" x="1115.2236" y="325.4263">Not found</text></g><g class="message" data-entity-1="part5" data-entity-2="part4" id="msg8"><polygon fill="#181818" points="826.7407,355.625,816.7407,359.625,826.7407,363.625,822.7407,359.625" style="stroke:#181818;stroke-width:1;"/><line style="stroke:#181818;stroke-width:1;stroke-dasharray:2,2;" x1="820.7407" x2="1074.1782" y1="359.625" y2="359.625"/><text fill="#000000" font-family="sans-serif" font-size="13" font-weight="bold" lengthAdjust="spacing" textLength="9.0454" x="832.7407" y="354.5591">8</text><text fill="#000000" font-family="sans-serif" font-size="13" lengthAdjust="spacing" textLength="96.0146" x="845.7861" y="354.5591">404 Not Found</text></g><g class="message" data-entity-1="part4" data-entity-2="part3" id="msg9"><polygon fill="#181818" points="596.5972,384.7578,586.5972,388.7578,596.5972,392.7578,592.5972,388.7578" style="stroke:#181818;stroke-width:1;"/><line style="stroke:#181818;stroke-width:1;stroke-dasharray:2,2;" x1="590.5972" x2="809.7407" y1="388.7578" y2="388.7578"/><text fill="#000000" font-family="sans-serif" font-size="13" font-weight="bold" lengthAdjust="spacing" textLength="9.0454" x="602.5972" y="383.6919">9</text><text fill="#000000" font-family="sans-serif" font-size="13" lengthAdjust="spacing" textLength="32.2017" x="615.6426" y="383.6919">Error</text></g><g class="message" data-entity-1="part3" data-entity-2="part2" id="msg10"><polygon fill="#181818" points="315.5117,413.8906,305.5117,417.8906,315.5117,421.8906,311.5117,417.8906" style="stroke:#181818;stroke-width:1;"/><line style="stroke:#181818;stroke-width:1;stroke-dasharray:2,2;" x1="309.5117" x2="579.5972" y1="417.8906" y2="417.8906"/><text fill="#000000" font-family="sans-serif" font-size="13" font-weight="bold" lengthAdjust="spacing" textLength="18.0908" x="321.5117" y="412.8247">10</text><text fill="#000000" font-family="sans-serif" font-size="13" lengthAdjust="spacing" textLength="32.2017" x="343.6025" y="412.8247">Error</text></g><g class="message" data-entity-1="part2" data-entity-2="part1" id="msg11"><polygon fill="#181818" points="70.9951,443.0234,60.9951,447.0234,70.9951,451.0234,66.9951,447.0234" style="stroke:#181818;stroke-width:1;"/><line style="stroke:#181818;stroke-width:1;" x1="64.9951" x2="298.5117" y1="447.0234" y2="447.0234"/><text fill="#000000" font-family="sans-serif" font-size="13" font-weight="bold" lengthAdjust="spacing" textLength="18.0908" x="76.9951" y="441.9575">11</text><text fill="#000000" font-family="sans-serif" font-size="13" lengthAdjust="spacing" textLength="84.0366" x="99.0859" y="441.9575">Display error</text></g><line style="stroke:#000000;stroke-width:1;stroke-dasharray:2,2;" x1="10" x2="1491.7051" y1="456.0234" y2="456.0234"/><text fill="#000000" font-family="sans-serif" font-size="11" font-weight="bold" lengthAdjust="spacing" textLength="93.457" x="15" y="466.2339">[Course exists]</text><g class="message" data-entity-1="part7" data-entity-2="part5" id="msg12"><polygon fill="#181818" points="1096.1782,486.9609,1086.1782,490.9609,1096.1782,494.9609,1092.1782,490.9609" style="stroke:#181818;stroke-width:1;"/><line style="stroke:#181818;stroke-width:1;stroke-dasharray:2,2;" x1="1090.1782" x2="1433.0742" y1="490.9609" y2="490.9609"/><text fill="#000000" font-family="sans-serif" font-size="13" font-weight="bold" lengthAdjust="spacing" textLength="18.0908" x="1102.1782" y="485.895">12</text><text fill="#000000" font-family="sans-serif" font-size="13" lengthAdjust="spacing" textLength="87.4644" x="1124.269" y="485.895">Course exists</text></g><g class="message" data-entity-1="part5" data-entity-2="part7" id="msg13"><polygon fill="#181818" points="1417.0742,516.0938,1427.0742,520.0938,1417.0742,524.0938,1421.0742,520.0938" style="stroke:#181818;stroke-width:1;"/><line style="stroke:#181818;stroke-width:1;" x1="1085.1782" x2="1423.0742" y1="520.0938" y2="520.0938"/><text fill="#000000" font-family="sans-serif" font-size="13" font-weight="bold" lengthAdjust="spacing" textLength="18.0908" x="1092.1782" y="515.0278">13</text><text fill="#000000" font-family="sans-serif" font-size="13" lengthAdjust="spacing" textLength="164.7217" x="1114.269" y="515.0278">Check existing bookmark</text></g><path d="M20,535.0938 L84.4429,535.0938 L84.4429,542.2266 L74.4429,552.2266 L20,552.2266 L20,535.0938" fill="#EEEEEE" style="stroke:#000000;stroke-width:1.5;"/><rect fill="none" height="481.9297" style="stroke:#000000;stroke-width:1.5;" width="1461.7051" x="20" y="535.0938"/><text fill="#000000" font-family="sans-serif" font-size="13" font-weight="bold" lengthAdjust="spacing" textLength="19.4429" x="35" y="548.1606">alt</text><text fill="#000000" font-family="sans-serif" font-size="11" font-weight="bold" lengthAdjust="spacing" textLength="138.7837" x="99.4429" y="547.3042">[Already bookmarked]</text><g class="message" data-entity-1="part7" data-entity-2="part5" id="msg14"><polygon fill="#181818" points="1096.1782,569.3594,1086.1782,573.3594,1096.1782,577.3594,1092.1782,573.3594" style="stroke:#181818;stroke-width:1;"/><line style="stroke:#181818;stroke-width:1;stroke-dasharray:2,2;" x1="1090.1782" x2="1433.0742" y1="573.3594" y2="573.3594"/><text fill="#000000" font-family="sans-serif" font-size="13" font-weight="bold" lengthAdjust="spacing" textLength="18.0908" x="1102.1782" y="568.2935">14</text><text fill="#000000" font-family="sans-serif" font-size="13" lengthAdjust="spacing" textLength="107.9355" x="1124.269" y="568.2935">Bookmark exists</text></g><g class="message" data-entity-1="part5" data-entity-2="part4" id="msg15"><polygon fill="#181818" points="821.7407,598.4922,811.7407,602.4922,821.7407,606.4922,817.7407,602.4922" style="stroke:#181818;stroke-width:1;"/><line style="stroke:#181818;stroke-width:1;stroke-dasharray:2,2;" x1="815.7407" x2="1074.1782" y1="602.4922" y2="602.4922"/><text fill="#000000" font-family="sans-serif" font-size="13" font-weight="bold" lengthAdjust="spacing" textLength="18.0908" x="827.7407" y="597.4263">15</text><text fill="#000000" font-family="sans-serif" font-size="13" lengthAdjust="spacing" textLength="78.2603" x="849.8315" y="597.4263">409 Conflict</text></g><g class="message" data-entity-1="part4" data-entity-2="part3" id="msg16"><polygon fill="#181818" points="591.5972,627.625,581.5972,631.625,591.5972,635.625,587.5972,631.625" style="stroke:#181818;stroke-width:1;"/><line style="stroke:#181818;stroke-width:1;stroke-dasharray:2,2;" x1="585.5972" x2="809.7407" y1="631.625" y2="631.625"/><text fill="#000000" font-family="sans-serif" font-size="13" font-weight="bold" lengthAdjust="spacing" textLength="18.0908" x="597.5972" y="626.5591">16</text><text fill="#000000" font-family="sans-serif" font-size="13" lengthAdjust="spacing" textLength="32.2017" x="619.688" y="626.5591">Error</text></g><g class="message" data-entity-1="part3" data-entity-2="part2" id="msg17"><polygon fill="#181818" points="310.5117,656.7578,300.5117,660.7578,310.5117,664.7578,306.5117,660.7578" style="stroke:#181818;stroke-width:1;"/><line style="stroke:#181818;stroke-width:1;stroke-dasharray:2,2;" x1="304.5117" x2="579.5972" y1="660.7578" y2="660.7578"/><text fill="#000000" font-family="sans-serif" font-size="13" font-weight="bold" lengthAdjust="spacing" textLength="18.0908" x="316.5117" y="655.6919">17</text><text fill="#000000" font-family="sans-serif" font-size="13" lengthAdjust="spacing" textLength="135.332" x="338.6025" y="655.6919">Already bookmarked</text></g><g class="message" data-entity-1="part2" data-entity-2="part1" id="msg18"><polygon fill="#181818" points="70.9951,685.8906,60.9951,689.8906,70.9951,693.8906,66.9951,689.8906" style="stroke:#181818;stroke-width:1;"/><line style="stroke:#181818;stroke-width:1;" x1="64.9951" x2="298.5117" y1="689.8906" y2="689.8906"/><text fill="#000000" font-family="sans-serif" font-size="13" font-weight="bold" lengthAdjust="spacing" textLength="18.0908" x="76.9951" y="684.8247">18</text><text fill="#000000" font-family="sans-serif" font-size="13" lengthAdjust="spacing" textLength="170.4854" x="99.0859" y="684.8247">Update UI (already saved)</text></g><line style="stroke:#000000;stroke-width:1;stroke-dasharray:2,2;" x1="20" x2="1481.7051" y1="698.8906" y2="698.8906"/><text fill="#000000" font-family="sans-serif" font-size="11" font-weight="bold" lengthAdjust="spacing" textLength="113.1689" x="25" y="709.1011">[Not bookmarked]</text><g class="message" data-entity-1="part7" data-entity-2="part5" id="msg19"><polygon fill="#181818" points="1096.1782,729.8281,1086.1782,733.8281,1096.1782,737.8281,1092.1782,733.8281" style="stroke:#181818;stroke-width:1;"/><line style="stroke:#181818;stroke-width:1;stroke-dasharray:2,2;" x1="1090.1782" x2="1433.0742" y1="733.8281" y2="733.8281"/><text fill="#000000" font-family="sans-serif" font-size="13" font-weight="bold" lengthAdjust="spacing" textLength="18.0908" x="1102.1782" y="728.7622">19</text><text fill="#000000" font-family="sans-serif" font-size="13" lengthAdjust="spacing" textLength="142.4097" x="1124.269" y="728.7622">No existing bookmark</text></g><g class="message" data-entity-1="part5" data-entity-2="part6" id="msg20"><polygon fill="#181818" points="1227.7397,758.9609,1237.7397,762.9609,1227.7397,766.9609,1231.7397,762.9609" style="stroke:#181818;stroke-width:1;"/><line style="stroke:#181818;stroke-width:1;" x1="1085.1782" x2="1233.7397" y1="762.9609" y2="762.9609"/><text fill="#000000" font-family="sans-serif" font-size="13" font-weight="bold" lengthAdjust="spacing" textLength="18.0908" x="1092.1782" y="757.895">20</text><text fill="#000000" font-family="sans-serif" font-size="13" lengthAdjust="spacing" textLength="113.4707" x="1114.269" y="757.895">Create Bookmark</text></g><g class="message" data-entity-1="part6" data-entity-2="part6" id="msg21"><line style="stroke:#181818;stroke-width:1;" x1="1249.7397" x2="1291.7397" y1="792.0938" y2="792.0938"/><line style="stroke:#181818;stroke-width:1;" x1="1291.7397" x2="1291.7397" y1="792.0938" y2="805.0938"/><line style="stroke:#181818;stroke-width:1;" x1="1250.7397" x2="1291.7397" y1="805.0938" y2="805.0938"/><polygon fill="#181818" points="1260.7397,801.0938,1250.7397,805.0938,1260.7397,809.0938,1256.7397,805.0938" style="stroke:#181818;stroke-width:1;"/><text fill="#000000" font-family="sans-serif" font-size="13" font-weight="bold" lengthAdjust="spacing" textLength="18.0908" x="1256.7397" y="787.0278">21</text><text fill="#000000" font-family="sans-serif" font-size="13" lengthAdjust="spacing" textLength="133.2437" x="1278.8306" y="787.0278">Set userID, courseID</text></g><g class="message" data-entity-1="part6" data-entity-2="part5" id="msg22"><polygon fill="#181818" points="1096.1782,830.2266,1086.1782,834.2266,1096.1782,838.2266,1092.1782,834.2266" style="stroke:#181818;stroke-width:1;"/><line style="stroke:#181818;stroke-width:1;stroke-dasharray:2,2;" x1="1090.1782" x2="1243.7397" y1="834.2266" y2="834.2266"/><text fill="#000000" font-family="sans-serif" font-size="13" font-weight="bold" lengthAdjust="spacing" textLength="18.0908" x="1102.1782" y="829.1606">22</text><text fill="#000000" font-family="sans-serif" font-size="13" lengthAdjust="spacing" textLength="107.7261" x="1124.269" y="829.1606">Bookmark entity</text></g><g class="message" data-entity-1="part5" data-entity-2="part7" id="msg23"><polygon fill="#181818" points="1417.0742,859.3594,1427.0742,863.3594,1417.0742,867.3594,1421.0742,863.3594" style="stroke:#181818;stroke-width:1;"/><line style="stroke:#181818;stroke-width:1;" x1="1085.1782" x2="1423.0742" y1="863.3594" y2="863.3594"/><text fill="#000000" font-family="sans-serif" font-size="13" font-weight="bold" lengthAdjust="spacing" textLength="18.0908" x="1092.1782" y="858.2935">23</text><text fill="#000000" font-family="sans-serif" font-size="13" lengthAdjust="spacing" textLength="101.2324" x="1114.269" y="858.2935">Save bookmark</text></g><g class="message" data-entity-1="part7" data-entity-2="part5" id="msg24"><polygon fill="#181818" points="1096.1782,888.4922,1086.1782,892.4922,1096.1782,896.4922,1092.1782,892.4922" style="stroke:#181818;stroke-width:1;"/><line style="stroke:#181818;stroke-width:1;stroke-dasharray:2,2;" x1="1090.1782" x2="1433.0742" y1="892.4922" y2="892.4922"/><text fill="#000000" font-family="sans-serif" font-size="13" font-weight="bold" lengthAdjust="spacing" textLength="18.0908" x="1102.1782" y="887.4263">24</text><text fill="#000000" font-family="sans-serif" font-size="13" lengthAdjust="spacing" textLength="108.6719" x="1124.269" y="887.4263">Bookmark saved</text></g><g class="message" data-entity-1="part5" data-entity-2="part4" id="msg25"><polygon fill="#181818" points="821.7407,917.625,811.7407,921.625,821.7407,925.625,817.7407,921.625" style="stroke:#181818;stroke-width:1;"/><line style="stroke:#181818;stroke-width:1;stroke-dasharray:2,2;" x1="815.7407" x2="1079.1782" y1="921.625" y2="921.625"/><text fill="#000000" font-family="sans-serif" font-size="13" font-weight="bold" lengthAdjust="spacing" textLength="18.0908" x="827.7407" y="916.5591">25</text><text fill="#000000" font-family="sans-serif" font-size="13" lengthAdjust="spacing" textLength="94.0405" x="849.8315" y="916.5591">BookmarkDTO</text></g><g class="message" data-entity-1="part4" data-entity-2="part3" id="msg26"><polygon fill="#181818" points="591.5972,946.7578,581.5972,950.7578,591.5972,954.7578,587.5972,950.7578" style="stroke:#181818;stroke-width:1;"/><line style="stroke:#181818;stroke-width:1;stroke-dasharray:2,2;" x1="585.5972" x2="809.7407" y1="950.7578" y2="950.7578"/><text fill="#000000" font-family="sans-serif" font-size="13" font-weight="bold" lengthAdjust="spacing" textLength="18.0908" x="597.5972" y="945.6919">26</text><text fill="#000000" font-family="sans-serif" font-size="13" lengthAdjust="spacing" textLength="80.6787" x="619.688" y="945.6919">201 Created</text></g><g class="message" data-entity-1="part3" data-entity-2="part2" id="msg27"><polygon fill="#181818" points="310.5117,975.8906,300.5117,979.8906,310.5117,983.8906,306.5117,979.8906" style="stroke:#181818;stroke-width:1;"/><line style="stroke:#181818;stroke-width:1;stroke-dasharray:2,2;" x1="304.5117" x2="579.5972" y1="979.8906" y2="979.8906"/><text fill="#000000" font-family="sans-serif" font-size="13" font-weight="bold" lengthAdjust="spacing" textLength="18.0908" x="316.5117" y="974.8247">27</text><text fill="#000000" font-family="sans-serif" font-size="13" lengthAdjust="spacing" textLength="52.3301" x="338.6025" y="974.8247">Success</text></g><g class="message" data-entity-1="part2" data-entity-2="part1" id="msg28"><polygon fill="#181818" points="70.9951,1005.0234,60.9951,1009.0234,70.9951,1013.0234,66.9951,1009.0234" style="stroke:#181818;stroke-width:1;"/><line style="stroke:#181818;stroke-width:1;" x1="64.9951" x2="298.5117" y1="1009.0234" y2="1009.0234"/><text fill="#000000" font-family="sans-serif" font-size="13" font-weight="bold" lengthAdjust="spacing" textLength="18.0908" x="76.9951" y="1003.9575">28</text><text fill="#000000" font-family="sans-serif" font-size="13" lengthAdjust="spacing" textLength="193.4258" x="99.0859" y="1003.9575">Update bookmark icon (filled)</text></g><?plantuml-src ZPHjRzem4CVVvrESkZTKAe9EVJDKJKh2YfXGYmHTj9ScFef5Y9djyA1fttrdvpdGhH98YVF_d-z-TpRBZ4optGgLv-cjIFTCiHq4yZHdd8lq3Uw7diTY8nNCaAaK5J0DCsybivGpTOO8L_v-RnSZtwFb4zpuyobCcC4ZEz_0fvbusvWWoT03Y6Lgb4mw4l9E8WzJ3cGlOeGoKnfXWUeWOYp3_CGaaST6e43AxOwfRPY_9tbwGTYGv96A74EVlc1gX3bNNkUWPSuCMp7QD7UC0sSO1tLcC-X_fJ9742OYtj9Q4K3GNa2_s1ajBd6WuWXJzMZXHBxrJw8Hp5yMInZaSZtudJzC-Pz16R8s4fb9LFf-i4Hmk_ezMju1demY7MGQrNHSo89m14zI7PdYeF1NXjhKmGYC5uHM5b8LDJoxVQ_Cugu8U5lx29iNkko91vM_GIe_rrCMGXiDZ2093VjibGYzGTum4qAF9QRW2gaqiBRZGymfw6E_dqTzRgnpRDc1Ci-5bFR3yC5fdmejrMq_sSA_AILLs-vc8SgtiGYlI0Ynar1vin6CXTudx0nuAOpyzllCmwIQbm94fwZkjqvXkRhDrMdjqQk60Q1hiZZzH27Zvqg65aPxzsh4g_sleEt0_K8vfsiQSEE-NQ5xoRT5-9syki0Ro5_tRgXVfz1ZXLcp0_BRhj4reDC2Ei-s2NOY_a7YMLxbUgqXPKjiGoWPMsFJK5UUioka2omFubrnCkX8Dh9eTSDTG1Sacvkxf1S4ePtjHUkkTjl1UxUwHhTBntZvSY7tk-t_FBmlWF3_3y4YYsFK-eETRz-alRMWc_p3tQTBmFx_0W00?></g></svg>