<?plantuml 1.2026.1?><svg xmlns="http://www.w3.org/2000/svg" xmlns:xlink="http://www.w3.org/1999/xlink" contentStyleType="text/css" data-diagram-type="SEQUENCE" height="1107px" preserveAspectRatio="none" style="width:1677px;height:1107px;background:#FFFFFF;" version="1.1" viewBox="0 0 1677 1107" width="1677px" zoomAndPan="magnify"><defs/><g><rect fill="#ADD8E6" height="1095.5156" style="stroke:#181818;stroke-width:0.5;" width="102.4434" x="562.2881" y="6"/><text fill="#000000" font-family="sans-serif" font-size="13" font-weight="bold" lengthAdjust="spacing" textLength="92.6821" x="567.1687" y="18.0669">API Gateway</text><rect fill="#FFFFE0" height="1095.5156" style="stroke:#181818;stroke-width:0.5;" width="968.0649" x="696.5547" y="6"/><text fill="#000000" font-family="sans-serif" font-size="13" font-weight="bold" lengthAdjust="spacing" textLength="109.2622" x="1125.9561" y="18.0669">Course Service</text><g><title>Instructor</title><rect fill="#FFFFFF" height="530.3906" style="stroke:#181818;stroke-width:1;" width="10" x="51.9609" y="118.5625"/></g><g><title>WebApp</title><rect fill="#FFFFFF" height="530.3906" style="stroke:#181818;stroke-width:1;" width="10" x="337.7646" y="118.5625"/></g><g><title>API Gateway</title><rect fill="#FFFFFF" height="312.3281" style="stroke:#181818;stroke-width:1;" width="10" x="608.5098" y="307.4922"/></g><g><title>LessonController</title><rect fill="#FFFFFF" height="211.9297" style="stroke:#181818;stroke-width:1;" width="10" x="757.3608" y="378.7578"/></g><g><title>CourseApp</title><rect fill="#FFFFFF" height="501.9297" style="stroke:#181818;stroke-width:1;" width="10" x="1112.8599" y="407.8906"/></g><g><title>VideoLesson</title><rect fill="#FFFFFF" height="71.2656" style="stroke:#181818;stroke-width:1;" width="10" x="1364.5112" y="751.1563"/></g><g><title>CourseDB</title><rect fill="#FFFFFF" height="29.1328" style="stroke:#181818;stroke-width:1;" width="10" x="1617.9888" y="437.0234"/></g><g><title>CourseDB</title><rect fill="#FFFFFF" height="29.1328" style="stroke:#181818;stroke-width:1;" width="10" x="1617.9888" y="692.8906"/></g><g><title>CourseDB</title><rect fill="#FFFFFF" height="29.1328" style="stroke:#181818;stroke-width:1;" width="10" x="1617.9888" y="851.5547"/></g><rect fill="none" height="481.9297" style="stroke:#000000;stroke-width:1.5;" width="1660.6196" x="10" y="523.2891"/><g class="participant-lifeline" data-entity-uid="part1" data-qualified-name="I" id="part1-lifeline"><g><title>Instructor</title><rect fill="#000000" fill-opacity="0.00000" height="934.7891" width="8" x="52.9609" y="87.4297"/><line style="stroke:#181818;stroke-width:0.5;stroke-dasharray:5,5;" x1="56" x2="56" y1="87.4297" y2="1022.2188"/></g></g><g class="participant-lifeline" data-entity-uid="part2" data-qualified-name="WA" id="part2-lifeline"><g><title>WebApp</title><rect fill="#000000" fill-opacity="0.00000" height="934.7891" width="8" x="338.7646" y="87.4297"/><line style="stroke:#181818;stroke-width:0.5;stroke-dasharray:5,5;" x1="342.418" x2="342.418" y1="87.4297" y2="1022.2188"/></g></g><g class="participant-lifeline" data-entity-uid="part3" data-qualified-name="GW" id="part3-lifeline"><g><title>API Gateway</title><rect fill="#000000" fill-opacity="0.00000" height="934.7891" width="8" x="609.5098" y="87.4297"/><line style="stroke:#181818;stroke-width:0.5;stroke-dasharray:5,5;" x1="613.2881" x2="613.2881" y1="87.4297" y2="1022.2188"/></g></g><g class="participant-lifeline" data-entity-uid="part4" data-qualified-name="LC" id="part4-lifeline"><g><title>LessonController</title><rect fill="#000000" fill-opacity="0.00000" height="934.7891" width="8" x="758.3608" y="87.4297"/><line style="stroke:#181818;stroke-width:0.5;stroke-dasharray:5,5;" x1="761.5547" x2="761.5547" y1="87.4297" y2="1022.2188"/></g></g><g class="participant-lifeline" data-entity-uid="part5" data-qualified-name="CA" id="part5-lifeline"><g><title>CourseApp</title><rect fill="#000000" fill-opacity="0.00000" height="934.7891" width="8" x="1113.8599" y="87.4297"/><line style="stroke:#181818;stroke-width:0.5;stroke-dasharray:5,5;" x1="1117.7461" x2="1117.7461" y1="87.4297" y2="1022.2188"/></g></g><g class="participant-lifeline" data-entity-uid="part6" data-qualified-name="VL" id="part6-lifeline"><g><title>VideoLesson</title><rect fill="#000000" fill-opacity="0.00000" height="934.7891" width="8" x="1365.5112" y="87.4297"/><line style="stroke:#181818;stroke-width:0.5;stroke-dasharray:5,5;" x1="1368.5254" x2="1368.5254" y1="87.4297" y2="1022.2188"/></g></g><g class="participant-lifeline" data-entity-uid="part7" data-qualified-name="CDB" id="part7-lifeline"><g><title>CourseDB</title><rect fill="#000000" fill-opacity="0.00000" height="934.7891" width="8" x="1618.9888" y="87.4297"/><line style="stroke:#181818;stroke-width:0.5;stroke-dasharray:5,5;" x1="1622.3579" x2="1622.3579" y1="87.4297" y2="1022.2188"/></g></g><g class="participant participant-head" data-entity-uid="part1" data-qualified-name="I" id="part1-head"><text fill="#000000" font-family="sans-serif" font-size="14" lengthAdjust="spacing" textLength="67.9219" x="20" y="84.1279">Instructor</text><ellipse cx="56.9609" cy="19.6328" fill="#E2E2F0" rx="8" ry="8" style="stroke:#181818;stroke-width:0.5;"/><path d="M56.9609,27.6328 L56.9609,54.6328 M43.9609,35.6328 L69.9609,35.6328 M56.9609,54.6328 L43.9609,69.6328 M56.9609,54.6328 L69.9609,69.6328" fill="none" style="stroke:#181818;stroke-width:0.5;"/></g><g class="participant participant-tail" data-entity-uid="part1" data-qualified-name="I" id="part1-tail"><text fill="#000000" font-family="sans-serif" font-size="14" lengthAdjust="spacing" textLength="67.9219" x="20" y="1034.2139">Instructor</text><ellipse cx="56.9609" cy="1046.0156" fill="#E2E2F0" rx="8" ry="8" style="stroke:#181818;stroke-width:0.5;"/><path d="M56.9609,1054.0156 L56.9609,1081.0156 M43.9609,1062.0156 L69.9609,1062.0156 M56.9609,1081.0156 L43.9609,1096.0156 M56.9609,1081.0156 L69.9609,1096.0156" fill="none" style="stroke:#181818;stroke-width:0.5;"/></g><g class="participant participant-head" data-entity-uid="part2" data-qualified-name="WA" id="part2-head"><text fill="#000000" font-family="sans-serif" font-size="14" lengthAdjust="spacing" textLength="58.6934" x="310.418" y="84.1279">WebApp</text><path d="M322.2646,43.1328 L322.2646,67.1328 M322.2646,55.1328 L339.2646,55.1328" fill="none" style="stroke:#181818;stroke-width:0.5;"/><ellipse cx="351.2646" cy="55.1328" fill="#E2E2F0" rx="12" ry="12" style="stroke:#181818;stroke-width:0.5;"/></g><g class="participant participant-tail" data-entity-uid="part2" data-qualified-name="WA" id="part2-tail"><text fill="#000000" font-family="sans-serif" font-size="14" lengthAdjust="spacing" textLength="58.6934" x="310.418" y="1034.2139">WebApp</text><path d="M322.2646,1041.5156 L322.2646,1065.5156 M322.2646,1053.5156 L339.2646,1053.5156" fill="none" style="stroke:#181818;stroke-width:0.5;"/><ellipse cx="351.2646" cy="1053.5156" fill="#E2E2F0" rx="12" ry="12" style="stroke:#181818;stroke-width:0.5;"/></g><g class="participant participant-head" data-entity-uid="part3" data-qualified-name="GW" id="part3-head"><text fill="#000000" font-family="sans-serif" font-size="14" lengthAdjust="spacing" textLength="88.4434" x="566.2881" y="84.1279">API Gateway</text><ellipse cx="613.5098" cy="55.1328" fill="#E2E2F0" rx="12" ry="12" style="stroke:#181818;stroke-width:0.5;"/><polygon fill="#181818" points="609.5098,43.1328,615.5098,38.1328,613.5098,43.1328,615.5098,48.1328,609.5098,43.1328" style="stroke:#181818;stroke-width:1;"/></g><g class="participant participant-tail" data-entity-uid="part3" data-qualified-name="GW" id="part3-tail"><text fill="#000000" font-family="sans-serif" font-size="14" lengthAdjust="spacing" textLength="88.4434" x="566.2881" y="1034.2139">API Gateway</text><ellipse cx="613.5098" cy="1053.5156" fill="#E2E2F0" rx="12" ry="12" style="stroke:#181818;stroke-width:0.5;"/><polygon fill="#181818" points="609.5098,1041.5156,615.5098,1036.5156,613.5098,1041.5156,615.5098,1046.5156,609.5098,1041.5156" style="stroke:#181818;stroke-width:1;"/></g><g class="participant participant-head" data-entity-uid="part4" data-qualified-name="LC" id="part4-head"><text fill="#000000" font-family="sans-serif" font-size="14" lengthAdjust="spacing" textLength="117.6123" x="700.5547" y="84.1279">LessonController</text><ellipse cx="762.3608" cy="55.1328" fill="#E2E2F0" rx="12" ry="12" style="stroke:#181818;stroke-width:0.5;"/><polygon fill="#181818" points="758.3608,43.1328,764.3608,38.1328,762.3608,43.1328,764.3608,48.1328,758.3608,43.1328" style="stroke:#181818;stroke-width:1;"/></g><g class="participant participant-tail" data-entity-uid="part4" data-qualified-name="LC" id="part4-tail"><text fill="#000000" font-family="sans-serif" font-size="14" lengthAdjust="spacing" textLength="117.6123" x="700.5547" y="1034.2139">LessonController</text><ellipse cx="762.3608" cy="1053.5156" fill="#E2E2F0" rx="12" ry="12" style="stroke:#181818;stroke-width:0.5;"/><polygon fill="#181818" points="758.3608,1041.5156,764.3608,1036.5156,762.3608,1041.5156,764.3608,1046.5156,758.3608,1041.5156" style="stroke:#181818;stroke-width:1;"/></g><g class="participant participant-head" data-entity-uid="part5" data-qualified-name="CA" id="part5-head"><text fill="#000000" font-family="sans-serif" font-size="14" lengthAdjust="spacing" textLength="76.2275" x="1076.7461" y="84.1279">CourseApp</text><ellipse cx="1117.8599" cy="55.1328" fill="#E2E2F0" rx="12" ry="12" style="stroke:#181818;stroke-width:0.5;"/><polygon fill="#181818" points="1113.8599,43.1328,1119.8599,38.1328,1117.8599,43.1328,1119.8599,48.1328,1113.8599,43.1328" style="stroke:#181818;stroke-width:1;"/></g><g class="participant participant-tail" data-entity-uid="part5" data-qualified-name="CA" id="part5-tail"><text fill="#000000" font-family="sans-serif" font-size="14" lengthAdjust="spacing" textLength="76.2275" x="1076.7461" y="1034.2139">CourseApp</text><ellipse cx="1117.8599" cy="1053.5156" fill="#E2E2F0" rx="12" ry="12" style="stroke:#181818;stroke-width:0.5;"/><polygon fill="#181818" points="1113.8599,1041.5156,1119.8599,1036.5156,1117.8599,1041.5156,1119.8599,1046.5156,1113.8599,1041.5156" style="stroke:#181818;stroke-width:1;"/></g><g class="participant participant-head" data-entity-uid="part6" data-qualified-name="VL" id="part6-head"><text fill="#000000" font-family="sans-serif" font-size="14" lengthAdjust="spacing" textLength="87.9717" x="1322.5254" y="84.1279">VideoLesson</text><ellipse cx="1369.5112" cy="55.1328" fill="#E2E2F0" rx="12" ry="12" style="stroke:#181818;stroke-width:0.5;"/><line style="stroke:#181818;stroke-width:0.5;" x1="1357.5112" x2="1381.5112" y1="69.1328" y2="69.1328"/></g><g class="participant participant-tail" data-entity-uid="part6" data-qualified-name="VL" id="part6-tail"><text fill="#000000" font-family="sans-serif" font-size="14" lengthAdjust="spacing" textLength="87.9717" x="1322.5254" y="1034.2139">VideoLesson</text><ellipse cx="1369.5112" cy="1053.5156" fill="#E2E2F0" rx="12" ry="12" style="stroke:#181818;stroke-width:0.5;"/><line style="stroke:#181818;stroke-width:0.5;" x1="1357.5112" x2="1381.5112" y1="1067.5156" y2="1067.5156"/></g><g class="participant participant-head" data-entity-uid="part7" data-qualified-name="CDB" id="part7-head"><text fill="#000000" font-family="sans-serif" font-size="14" lengthAdjust="spacing" textLength="69.2617" x="1585.3579" y="84.1279">CourseDB</text><path d="M1604.9888,35.1328 C1604.9888,25.1328 1622.9888,25.1328 1622.9888,25.1328 C1622.9888,25.1328 1640.9888,25.1328 1640.9888,35.1328 L1640.9888,61.1328 C1640.9888,71.1328 1622.9888,71.1328 1622.9888,71.1328 C1622.9888,71.1328 1604.9888,71.1328 1604.9888,61.1328 L1604.9888,35.1328" fill="#E2E2F0" style="stroke:#181818;stroke-width:0.5;"/><path d="M1604.9888,35.1328 C1604.9888,45.1328 1622.9888,45.1328 1622.9888,45.1328 C1622.9888,45.1328 1640.9888,45.1328 1640.9888,35.1328" fill="none" style="stroke:#181818;stroke-width:0.5;"/></g><g class="participant participant-tail" data-entity-uid="part7" data-qualified-name="CDB" id="part7-tail"><text fill="#000000" font-family="sans-serif" font-size="14" lengthAdjust="spacing" textLength="69.2617" x="1585.3579" y="1034.2139">CourseDB</text><path d="M1604.9888,1047.5156 C1604.9888,1037.5156 1622.9888,1037.5156 1622.9888,1037.5156 C1622.9888,1037.5156 1640.9888,1037.5156 1640.9888,1047.5156 L1640.9888,1073.5156 C1640.9888,1083.5156 1622.9888,1083.5156 1622.9888,1083.5156 C1622.9888,1083.5156 1604.9888,1083.5156 1604.9888,1073.5156 L1604.9888,1047.5156" fill="#E2E2F0" style="stroke:#181818;stroke-width:0.5;"/><path d="M1604.9888,1047.5156 C1604.9888,1057.5156 1622.9888,1057.5156 1622.9888,1057.5156 C1622.9888,1057.5156 1640.9888,1057.5156 1640.9888,1047.5156" fill="none" style="stroke:#181818;stroke-width:0.5;"/></g><g><title>Instructor</title><rect fill="#FFFFFF" height="530.3906" style="stroke:#181818;stroke-width:1;" width="10" x="51.9609" y="118.5625"/></g><g><title>WebApp</title><rect fill="#FFFFFF" height="530.3906" style="stroke:#181818;stroke-width:1;" width="10" x="337.7646" y="118.5625"/></g><g><title>API Gateway</title><rect fill="#FFFFFF" height="312.3281" style="stroke:#181818;stroke-width:1;" width="10" x="608.5098" y="307.4922"/></g><g><title>LessonController</title><rect fill="#FFFFFF" height="211.9297" style="stroke:#181818;stroke-width:1;" width="10" x="757.3608" y="378.7578"/></g><g><title>CourseApp</title><rect fill="#FFFFFF" height="501.9297" style="stroke:#181818;stroke-width:1;" width="10" x="1112.8599" y="407.8906"/></g><g><title>VideoLesson</title><rect fill="#FFFFFF" height="71.2656" style="stroke:#181818;stroke-width:1;" width="10" x="1364.5112" y="751.1563"/></g><g><title>CourseDB</title><rect fill="#FFFFFF" height="29.1328" style="stroke:#181818;stroke-width:1;" width="10" x="1617.9888" y="437.0234"/></g><g><title>CourseDB</title><rect fill="#FFFFFF" height="29.1328" style="stroke:#181818;stroke-width:1;" width="10" x="1617.9888" y="692.8906"/></g><g><title>CourseDB</title><rect fill="#FFFFFF" height="29.1328" style="stroke:#181818;stroke-width:1;" width="10" x="1617.9888" y="851.5547"/></g><g class="message" data-entity-1="part1" data-entity-2="part2" id="msg1"><polygon fill="#181818" points="325.7646,114.5625,335.7646,118.5625,325.7646,122.5625,329.7646,118.5625" style="stroke:#181818;stroke-width:1;"/><line style="stroke:#181818;stroke-width:1;" x1="61.9609" x2="331.7646" y1="118.5625" y2="118.5625"/><text fill="#000000" font-family="sans-serif" font-size="13" font-weight="bold" lengthAdjust="spacing" textLength="9.0454" x="68.9609" y="113.4966">1</text><text fill="#000000" font-family="sans-serif" font-size="13" lengthAdjust="spacing" textLength="188.5127" x="82.0063" y="113.4966">Click "Add Lesson" in section</text></g><g class="message" data-entity-1="part2" data-entity-2="part2" id="msg2"><line style="stroke:#181818;stroke-width:1;" x1="347.7646" x2="389.7646" y1="162.8281" y2="162.8281"/><line style="stroke:#181818;stroke-width:1;" x1="389.7646" x2="389.7646" y1="162.8281" y2="175.8281"/><line style="stroke:#181818;stroke-width:1;" x1="348.7646" x2="389.7646" y1="175.8281" y2="175.8281"/><polygon fill="#181818" points="358.7646,171.8281,348.7646,175.8281,358.7646,179.8281,354.7646,175.8281" style="stroke:#181818;stroke-width:1;"/><text fill="#000000" font-family="sans-serif" font-size="13" font-weight="bold" lengthAdjust="spacing" textLength="9.0454" x="354.7646" y="150.1958">2</text><text fill="#000000" font-family="sans-serif" font-size="13" lengthAdjust="spacing" textLength="189.1348" x="367.8101" y="142.6294">Display lesson type selection</text><text fill="#000000" font-family="sans-serif" font-size="13" lengthAdjust="spacing" textLength="79.041" x="367.8101" y="157.7622">(Video/Test)</text></g><g class="message" data-entity-1="part1" data-entity-2="part2" id="msg3"><polygon fill="#181818" points="325.7646,200.9609,335.7646,204.9609,325.7646,208.9609,329.7646,204.9609" style="stroke:#181818;stroke-width:1;"/><line style="stroke:#181818;stroke-width:1;" x1="61.9609" x2="331.7646" y1="204.9609" y2="204.9609"/><text fill="#000000" font-family="sans-serif" font-size="13" font-weight="bold" lengthAdjust="spacing" textLength="9.0454" x="68.9609" y="199.895">3</text><text fill="#000000" font-family="sans-serif" font-size="13" lengthAdjust="spacing" textLength="142.0161" x="82.0063" y="199.895">Select "Video Lesson"</text></g><g class="message" data-entity-1="part1" data-entity-2="part2" id="msg4"><polygon fill="#181818" points="325.7646,230.0938,335.7646,234.0938,325.7646,238.0938,329.7646,234.0938" style="stroke:#181818;stroke-width:1;"/><line style="stroke:#181818;stroke-width:1;" x1="61.9609" x2="331.7646" y1="234.0938" y2="234.0938"/><text fill="#000000" font-family="sans-serif" font-size="13" font-weight="bold" lengthAdjust="spacing" textLength="9.0454" x="68.9609" y="229.0278">4</text><text fill="#000000" font-family="sans-serif" font-size="13" lengthAdjust="spacing" textLength="109.9224" x="82.0063" y="229.0278">Enter lesson title</text></g><g class="message" data-entity-1="part1" data-entity-2="part2" id="msg5"><polygon fill="#181818" points="325.7646,259.2266,335.7646,263.2266,325.7646,267.2266,329.7646,263.2266" style="stroke:#181818;stroke-width:1;"/><line style="stroke:#181818;stroke-width:1;" x1="61.9609" x2="331.7646" y1="263.2266" y2="263.2266"/><text fill="#000000" font-family="sans-serif" font-size="13" font-weight="bold" lengthAdjust="spacing" textLength="9.0454" x="68.9609" y="258.1606">5</text><text fill="#000000" font-family="sans-serif" font-size="13" lengthAdjust="spacing" textLength="90.5493" x="82.0063" y="258.1606">Click "Create"</text></g><g class="message" data-entity-1="part2" data-entity-2="part3" id="msg6"><polygon fill="#181818" points="596.5098,303.4922,606.5098,307.4922,596.5098,311.4922,600.5098,307.4922" style="stroke:#181818;stroke-width:1;"/><line style="stroke:#181818;stroke-width:1;" x1="347.7646" x2="602.5098" y1="307.4922" y2="307.4922"/><text fill="#000000" font-family="sans-serif" font-size="13" font-weight="bold" lengthAdjust="spacing" textLength="9.0454" x="354.7646" y="294.8599">6</text><text fill="#000000" font-family="sans-serif" font-size="13" lengthAdjust="spacing" textLength="228.6997" x="367.8101" y="287.2935">POST /sections/{sectionId}/lessons</text><text fill="#000000" font-family="sans-serif" font-size="13" lengthAdjust="spacing" textLength="135.2432" x="367.8101" y="302.4263">{title, type: "video"}</text></g><g class="message" data-entity-1="part3" data-entity-2="part3" id="msg7"><line style="stroke:#181818;stroke-width:1;" x1="618.5098" x2="660.5098" y1="336.625" y2="336.625"/><line style="stroke:#181818;stroke-width:1;" x1="660.5098" x2="660.5098" y1="336.625" y2="349.625"/><line style="stroke:#181818;stroke-width:1;" x1="619.5098" x2="660.5098" y1="349.625" y2="349.625"/><polygon fill="#181818" points="629.5098,345.625,619.5098,349.625,629.5098,353.625,625.5098,349.625" style="stroke:#181818;stroke-width:1;"/><text fill="#000000" font-family="sans-serif" font-size="13" font-weight="bold" lengthAdjust="spacing" textLength="9.0454" x="625.5098" y="331.5591">7</text><text fill="#000000" font-family="sans-serif" font-size="13" lengthAdjust="spacing" textLength="82.1577" x="638.5552" y="331.5591">Validate JWT</text></g><g class="message" data-entity-1="part3" data-entity-2="part4" id="msg8"><polygon fill="#181818" points="745.3608,374.7578,755.3608,378.7578,745.3608,382.7578,749.3608,378.7578" style="stroke:#181818;stroke-width:1;"/><line style="stroke:#181818;stroke-width:1;" x1="618.5098" x2="751.3608" y1="378.7578" y2="378.7578"/><text fill="#000000" font-family="sans-serif" font-size="13" font-weight="bold" lengthAdjust="spacing" textLength="9.0454" x="625.5098" y="373.6919">8</text><text fill="#000000" font-family="sans-serif" font-size="13" lengthAdjust="spacing" textLength="106.8057" x="638.5552" y="373.6919">Forward request</text></g><g class="message" data-entity-1="part4" data-entity-2="part5" id="msg9"><polygon fill="#181818" points="1100.8599,403.8906,1110.8599,407.8906,1100.8599,411.8906,1104.8599,407.8906" style="stroke:#181818;stroke-width:1;"/><line style="stroke:#181818;stroke-width:1;" x1="767.3608" x2="1106.8599" y1="407.8906" y2="407.8906"/><text fill="#000000" font-family="sans-serif" font-size="13" font-weight="bold" lengthAdjust="spacing" textLength="9.0454" x="774.3608" y="402.8247">9</text><text fill="#000000" font-family="sans-serif" font-size="13" lengthAdjust="spacing" textLength="313.4536" x="787.4063" y="402.8247">CreateLesson(sectionId, title, type, instructorID)</text></g><g class="message" data-entity-1="part5" data-entity-2="part7" id="msg10"><polygon fill="#181818" points="1605.9888,433.0234,1615.9888,437.0234,1605.9888,441.0234,1609.9888,437.0234" style="stroke:#181818;stroke-width:1;"/><line style="stroke:#181818;stroke-width:1;" x1="1122.8599" x2="1611.9888" y1="437.0234" y2="437.0234"/><text fill="#000000" font-family="sans-serif" font-size="13" font-weight="bold" lengthAdjust="spacing" textLength="18.0908" x="1129.8599" y="431.9575">10</text><text fill="#000000" font-family="sans-serif" font-size="13" lengthAdjust="spacing" textLength="157.8345" x="1151.9507" y="431.9575">Find section with course</text></g><g class="message" data-entity-1="part7" data-entity-2="part5" id="msg11"><polygon fill="#181818" points="1133.8599,462.1563,1123.8599,466.1563,1133.8599,470.1563,1129.8599,466.1563" style="stroke:#181818;stroke-width:1;"/><line style="stroke:#181818;stroke-width:1;stroke-dasharray:2,2;" x1="1127.8599" x2="1621.9888" y1="466.1563" y2="466.1563"/><text fill="#000000" font-family="sans-serif" font-size="13" font-weight="bold" lengthAdjust="spacing" textLength="18.0908" x="1139.8599" y="461.0903">11</text><text fill="#000000" font-family="sans-serif" font-size="13" lengthAdjust="spacing" textLength="146.2563" x="1161.9507" y="461.0903">Section + Course data</text></g><g class="message" data-entity-1="part5" data-entity-2="part5" id="msg12"><line style="stroke:#181818;stroke-width:1;" x1="1122.8599" x2="1164.8599" y1="495.2891" y2="495.2891"/><line style="stroke:#181818;stroke-width:1;" x1="1164.8599" x2="1164.8599" y1="495.2891" y2="508.2891"/><line style="stroke:#181818;stroke-width:1;" x1="1123.8599" x2="1164.8599" y1="508.2891" y2="508.2891"/><polygon fill="#181818" points="1133.8599,504.2891,1123.8599,508.2891,1133.8599,512.2891,1129.8599,508.2891" style="stroke:#181818;stroke-width:1;"/><text fill="#000000" font-family="sans-serif" font-size="13" font-weight="bold" lengthAdjust="spacing" textLength="18.0908" x="1129.8599" y="490.2231">12</text><text fill="#000000" font-family="sans-serif" font-size="13" lengthAdjust="spacing" textLength="176.2744" x="1151.9507" y="490.2231">Verify instructor ownership</text></g><path d="M10,523.2891 L74.4429,523.2891 L74.4429,530.4219 L64.4429,540.4219 L10,540.4219 L10,523.2891" fill="#EEEEEE" style="stroke:#000000;stroke-width:1.5;"/><rect fill="none" height="481.9297" style="stroke:#000000;stroke-width:1.5;" width="1660.6196" x="10" y="523.2891"/><text fill="#000000" font-family="sans-serif" font-size="13" font-weight="bold" lengthAdjust="spacing" textLength="19.4429" x="25" y="536.356">alt</text><text fill="#000000" font-family="sans-serif" font-size="11" font-weight="bold" lengthAdjust="spacing" textLength="119.5122" x="89.4429" y="535.4995">[Not course owner]</text><g class="message" data-entity-1="part5" data-entity-2="part4" id="msg13"><polygon fill="#181818" points="778.3608,557.5547,768.3608,561.5547,778.3608,565.5547,774.3608,561.5547" style="stroke:#181818;stroke-width:1;"/><line style="stroke:#181818;stroke-width:1;stroke-dasharray:2,2;" x1="772.3608" x2="1111.8599" y1="561.5547" y2="561.5547"/><text fill="#000000" font-family="sans-serif" font-size="13" font-weight="bold" lengthAdjust="spacing" textLength="18.0908" x="784.3608" y="556.4888">13</text><text fill="#000000" font-family="sans-serif" font-size="13" lengthAdjust="spacing" textLength="94.3262" x="806.4517" y="556.4888">403 Forbidden</text></g><g class="message" data-entity-1="part4" data-entity-2="part3" id="msg14"><polygon fill="#181818" points="629.5098,586.6875,619.5098,590.6875,629.5098,594.6875,625.5098,590.6875" style="stroke:#181818;stroke-width:1;"/><line style="stroke:#181818;stroke-width:1;stroke-dasharray:2,2;" x1="623.5098" x2="761.3608" y1="590.6875" y2="590.6875"/><text fill="#000000" font-family="sans-serif" font-size="13" font-weight="bold" lengthAdjust="spacing" textLength="18.0908" x="635.5098" y="585.6216">14</text><text fill="#000000" font-family="sans-serif" font-size="13" lengthAdjust="spacing" textLength="32.2017" x="657.6006" y="585.6216">Error</text></g><g class="message" data-entity-1="part3" data-entity-2="part2" id="msg15"><polygon fill="#181818" points="358.7646,615.8203,348.7646,619.8203,358.7646,623.8203,354.7646,619.8203" style="stroke:#181818;stroke-width:1;"/><line style="stroke:#181818;stroke-width:1;stroke-dasharray:2,2;" x1="352.7646" x2="612.5098" y1="619.8203" y2="619.8203"/><text fill="#000000" font-family="sans-serif" font-size="13" font-weight="bold" lengthAdjust="spacing" textLength="18.0908" x="364.7646" y="614.7544">15</text><text fill="#000000" font-family="sans-serif" font-size="13" lengthAdjust="spacing" textLength="32.2017" x="386.8555" y="614.7544">Error</text></g><g class="message" data-entity-1="part2" data-entity-2="part1" id="msg16"><polygon fill="#181818" points="67.9609,644.9531,57.9609,648.9531,67.9609,652.9531,63.9609,648.9531" style="stroke:#181818;stroke-width:1;"/><line style="stroke:#181818;stroke-width:1;" x1="61.9609" x2="341.7646" y1="648.9531" y2="648.9531"/><text fill="#000000" font-family="sans-serif" font-size="13" font-weight="bold" lengthAdjust="spacing" textLength="18.0908" x="73.9609" y="643.8872">16</text><text fill="#000000" font-family="sans-serif" font-size="13" lengthAdjust="spacing" textLength="84.0366" x="96.0518" y="643.8872">Display error</text></g><line style="stroke:#000000;stroke-width:1;stroke-dasharray:2,2;" x1="10" x2="1670.6196" y1="657.9531" y2="657.9531"/><text fill="#000000" font-family="sans-serif" font-size="11" font-weight="bold" lengthAdjust="spacing" textLength="62.96" x="15" y="668.1636">[Is owner]</text><g class="message" data-entity-1="part5" data-entity-2="part7" id="msg17"><polygon fill="#181818" points="1605.9888,688.8906,1615.9888,692.8906,1605.9888,696.8906,1609.9888,692.8906" style="stroke:#181818;stroke-width:1;"/><line style="stroke:#181818;stroke-width:1;" x1="1122.8599" x2="1611.9888" y1="692.8906" y2="692.8906"/><text fill="#000000" font-family="sans-serif" font-size="13" font-weight="bold" lengthAdjust="spacing" textLength="18.0908" x="1129.8599" y="687.8247">17</text><text fill="#000000" font-family="sans-serif" font-size="13" lengthAdjust="spacing" textLength="207.0669" x="1151.9507" y="687.8247">Get max lesson order in section</text></g><g class="message" data-entity-1="part7" data-entity-2="part5" id="msg18"><polygon fill="#181818" points="1133.8599,718.0234,1123.8599,722.0234,1133.8599,726.0234,1129.8599,722.0234" style="stroke:#181818;stroke-width:1;"/><line style="stroke:#181818;stroke-width:1;stroke-dasharray:2,2;" x1="1127.8599" x2="1621.9888" y1="722.0234" y2="722.0234"/><text fill="#000000" font-family="sans-serif" font-size="13" font-weight="bold" lengthAdjust="spacing" textLength="18.0908" x="1139.8599" y="716.9575">18</text><text fill="#000000" font-family="sans-serif" font-size="13" lengthAdjust="spacing" textLength="65.9014" x="1161.9507" y="716.9575">Max order</text></g><g class="message" data-entity-1="part5" data-entity-2="part6" id="msg19"><polygon fill="#181818" points="1352.5112,747.1563,1362.5112,751.1563,1352.5112,755.1563,1356.5112,751.1563" style="stroke:#181818;stroke-width:1;"/><line style="stroke:#181818;stroke-width:1;" x1="1122.8599" x2="1358.5112" y1="751.1563" y2="751.1563"/><text fill="#000000" font-family="sans-serif" font-size="13" font-weight="bold" lengthAdjust="spacing" textLength="18.0908" x="1129.8599" y="746.0903">19</text><text fill="#000000" font-family="sans-serif" font-size="13" lengthAdjust="spacing" textLength="200.5605" x="1151.9507" y="746.0903">Create VideoLesson aggregate</text></g><g class="message" data-entity-1="part6" data-entity-2="part6" id="msg20"><line style="stroke:#181818;stroke-width:1;" x1="1374.5112" x2="1416.5112" y1="780.2891" y2="780.2891"/><line style="stroke:#181818;stroke-width:1;" x1="1416.5112" x2="1416.5112" y1="780.2891" y2="793.2891"/><line style="stroke:#181818;stroke-width:1;" x1="1375.5112" x2="1416.5112" y1="793.2891" y2="793.2891"/><polygon fill="#181818" points="1385.5112,789.2891,1375.5112,793.2891,1385.5112,797.2891,1381.5112,793.2891" style="stroke:#181818;stroke-width:1;"/><text fill="#000000" font-family="sans-serif" font-size="13" font-weight="bold" lengthAdjust="spacing" textLength="18.0908" x="1381.5112" y="775.2231">20</text><text fill="#000000" font-family="sans-serif" font-size="13" lengthAdjust="spacing" textLength="197.3867" x="1403.6021" y="775.2231">Initialize with empty videoURL</text></g><g class="message" data-entity-1="part6" data-entity-2="part5" id="msg21"><polygon fill="#181818" points="1133.8599,818.4219,1123.8599,822.4219,1133.8599,826.4219,1129.8599,822.4219" style="stroke:#181818;stroke-width:1;"/><line style="stroke:#181818;stroke-width:1;stroke-dasharray:2,2;" x1="1127.8599" x2="1368.5112" y1="822.4219" y2="822.4219"/><text fill="#000000" font-family="sans-serif" font-size="13" font-weight="bold" lengthAdjust="spacing" textLength="18.0908" x="1139.8599" y="817.356">21</text><text fill="#000000" font-family="sans-serif" font-size="13" lengthAdjust="spacing" textLength="123.5571" x="1161.9507" y="817.356">VideoLesson entity</text></g><g class="message" data-entity-1="part5" data-entity-2="part7" id="msg22"><polygon fill="#181818" points="1605.9888,847.5547,1615.9888,851.5547,1605.9888,855.5547,1609.9888,851.5547" style="stroke:#181818;stroke-width:1;"/><line style="stroke:#181818;stroke-width:1;" x1="1122.8599" x2="1611.9888" y1="851.5547" y2="851.5547"/><text fill="#000000" font-family="sans-serif" font-size="13" font-weight="bold" lengthAdjust="spacing" textLength="18.0908" x="1129.8599" y="846.4888">22</text><text fill="#000000" font-family="sans-serif" font-size="13" lengthAdjust="spacing" textLength="117.0317" x="1151.9507" y="846.4888">Save video lesson</text></g><g class="message" data-entity-1="part7" data-entity-2="part5" id="msg23"><polygon fill="#181818" points="1133.8599,876.6875,1123.8599,880.6875,1133.8599,884.6875,1129.8599,880.6875" style="stroke:#181818;stroke-width:1;"/><line style="stroke:#181818;stroke-width:1;stroke-dasharray:2,2;" x1="1127.8599" x2="1621.9888" y1="880.6875" y2="880.6875"/><text fill="#000000" font-family="sans-serif" font-size="13" font-weight="bold" lengthAdjust="spacing" textLength="18.0908" x="1139.8599" y="875.6216">23</text><text fill="#000000" font-family="sans-serif" font-size="13" lengthAdjust="spacing" textLength="87.7944" x="1161.9507" y="875.6216">Lesson saved</text></g><g class="message" data-entity-1="part5" data-entity-2="part4" id="msg24"><polygon fill="#181818" points="773.3608,905.8203,763.3608,909.8203,773.3608,913.8203,769.3608,909.8203" style="stroke:#181818;stroke-width:1;"/><line style="stroke:#181818;stroke-width:1;stroke-dasharray:2,2;" x1="767.3608" x2="1116.8599" y1="909.8203" y2="909.8203"/><text fill="#000000" font-family="sans-serif" font-size="13" font-weight="bold" lengthAdjust="spacing" textLength="18.0908" x="779.3608" y="904.7544">24</text><text fill="#000000" font-family="sans-serif" font-size="13" lengthAdjust="spacing" textLength="73.1631" x="801.4517" y="904.7544">LessonDTO</text></g><g class="message" data-entity-1="part4" data-entity-2="part3" id="msg25"><polygon fill="#181818" points="624.5098,934.9531,614.5098,938.9531,624.5098,942.9531,620.5098,938.9531" style="stroke:#181818;stroke-width:1;"/><line style="stroke:#181818;stroke-width:1;stroke-dasharray:2,2;" x1="618.5098" x2="761.3608" y1="938.9531" y2="938.9531"/><text fill="#000000" font-family="sans-serif" font-size="13" font-weight="bold" lengthAdjust="spacing" textLength="18.0908" x="630.5098" y="933.8872">25</text><text fill="#000000" font-family="sans-serif" font-size="13" lengthAdjust="spacing" textLength="80.6787" x="652.6006" y="933.8872">201 Created</text></g><g class="message" data-entity-1="part3" data-entity-2="part2" id="msg26"><polygon fill="#181818" points="353.7646,964.0859,343.7646,968.0859,353.7646,972.0859,349.7646,968.0859" style="stroke:#181818;stroke-width:1;"/><line style="stroke:#181818;stroke-width:1;stroke-dasharray:2,2;" x1="347.7646" x2="612.5098" y1="968.0859" y2="968.0859"/><text fill="#000000" font-family="sans-serif" font-size="13" font-weight="bold" lengthAdjust="spacing" textLength="18.0908" x="359.7646" y="963.02">26</text><text fill="#000000" font-family="sans-serif" font-size="13" lengthAdjust="spacing" textLength="107.25" x="381.8555" y="963.02">New lesson data</text></g><g class="message" data-entity-1="part2" data-entity-2="part1" id="msg27"><polygon fill="#181818" points="67.9609,993.2188,57.9609,997.2188,67.9609,1001.2188,63.9609,997.2188" style="stroke:#181818;stroke-width:1;"/><line style="stroke:#181818;stroke-width:1;" x1="61.9609" x2="341.7646" y1="997.2188" y2="997.2188"/><text fill="#000000" font-family="sans-serif" font-size="13" font-weight="bold" lengthAdjust="spacing" textLength="18.0908" x="73.9609" y="992.1528">27</text><text fill="#000000" font-family="sans-serif" font-size="13" lengthAdjust="spacing" textLength="239.7129" x="96.0518" y="992.1528">Update UI, show video upload option</text></g><?plantuml-src VLHHRzem47xFhpXbBwr6HRlj2KsJ87GeKzPMWn9Dwel1Dx0QxCnseApgVz_5TY1fAzuStttVVNVtEQooIbQR1UeeCez2baop3OpKqntZNCWLN5r64LjQfI6LnkhA7Pc1D5geIdAczv3ZObYMzMK-ZEZw2UBXNGeJPd77zZ5yoCHgRKT5XH70KachLV4gXR2JF4B9WU218r6LDWXJr5knn8RcDnQ5shM8CZH6oSH_5UZ4PKahmVC4XScG8YYji7kO2uxAm-lGFACGPvOj69NrgF78WSQZexOKBhvHemD82h5yf3uu3nfY418CBgrGifwPs59xDAZ3aSQJ3nluM9YoO7iel02xBv70XOS_o3EdhZz3OyzRHQSk0s8NRUeUmzVIqWGQIc4BVACtqKXQuYX8cUG3kBkTpg0Vb9l-SpYb_ANlgSo3V7PiFQTp0F6shX-_77kZzKtoXd3E2i7hsn_vB5ndoG2-AxrZceF6lnNrTGJJlg8igTEIMgXJw7ixEsZfGKj1ZqRTk34Tdn-PQBzHuXgZfL55GMiB5B0JTaskgFVQ0j1k2V3rui8ZfY7vOt20SqJ4iGDeIf3OEMhnPz-I0sedKPkrAEdX51Pkb0r5VOHCHgswUWJ_Slcv7ij2S8wIGZIiEbHFwrfhLMUtQZjVvrvjFUTtKcWFBeNafKUJuTl4VDZzJYCiI6Dg3Z9RSvoWXGrxQfobD2URjTmEq9cFmnv6-fE03j4jw0RPL9bdpTwxptArqhYYstO5zr3dMGDBfR223FSF_OPnKzBZTWQz_vKTjTIvRMx_5-Xg8kfkurEsHSyLUZ_TQg0sXEBlTjjQlSyTpsvV9GwxDlXqUHKcmq-RuGPtpNwSPq_Ouhvqh_C-xO5Pgrrei2eBnJYeCgpqj5aaZ_u3?></g></svg>