<?plantuml 1.2026.1?><svg xmlns="http://www.w3.org/2000/svg" xmlns:xlink="http://www.w3.org/1999/xlink" contentStyleType="text/css" data-diagram-type="SEQUENCE" height="1242px" preserveAspectRatio="none" style="width:2086px;height:1242px;background:#FFFFFF;" version="1.1" viewBox="0 0 2086 1242" width="2086px" zoomAndPan="magnify"><defs/><g><rect fill="#ADD8E6" height="1230.1797" style="stroke:#181818;stroke-width:0.5;" width="102.4434" x="564.6787" y="6"/><text fill="#000000" font-family="sans-serif" font-size="13" font-weight="bold" lengthAdjust="spacing" textLength="92.6821" x="569.5593" y="18.0669">API Gateway</text><rect fill="#FFFFE0" height="1230.1797" style="stroke:#181818;stroke-width:0.5;" width="691.0229" x="766.2412" y="6"/><text fill="#000000" font-family="sans-serif" font-size="13" font-weight="bold" lengthAdjust="spacing" textLength="109.2622" x="1057.1216" y="18.0669">Course Service</text><rect fill="#FFB6C1" height="1230.1797" style="stroke:#181818;stroke-width:0.5;" width="584.0317" x="1479.2642" y="6"/><text fill="#000000" font-family="sans-serif" font-size="13" font-weight="bold" lengthAdjust="spacing" textLength="104.8633" x="1718.8484" y="18.0669">Billing Service</text><g><title>Learner</title><rect fill="#FFFFFF" height="399.7266" style="stroke:#181818;stroke-width:1;" width="10" x="44.9951" y="118.5625"/></g><g><title>WebApp</title><rect fill="#FFFFFF" height="399.7266" style="stroke:#181818;stroke-width:1;" width="10" x="308.6772" y="118.5625"/></g><g><title>API Gateway</title><rect fill="#FFFFFF" height="270.1953" style="stroke:#181818;stroke-width:1;" width="10" x="610.9004" y="218.9609"/></g><g><title>API Gateway</title><rect fill="#FFFFFF" height="203.9297" style="stroke:#181818;stroke-width:1;" width="10" x="610.9004" y="672.7578"/></g><g><title>EnrollmentController</title><rect fill="#FFFFFF" height="169.7969" style="stroke:#181818;stroke-width:1;" width="10" x="841.0439" y="290.2266"/></g><g><title>CourseApp</title><rect fill="#FFFFFF" height="709.9922" style="stroke:#181818;stroke-width:1;" width="10" x="1144.7397" y="319.3594"/></g><g><title>CourseDB</title><rect fill="#FFFFFF" height="53.2656" style="stroke:#181818;stroke-width:1;" width="10" x="1410.6333" y="348.4922"/></g><g><title>CourseDB</title><rect fill="#FFFFFF" height="29.1328" style="stroke:#181818;stroke-width:1;" width="10" x="1410.6333" y="912.8203"/></g><g><title>CourseDB</title><rect fill="#FFFFFF" height="29.1328" style="stroke:#181818;stroke-width:1;" width="10" x="1410.6333" y="971.0859"/></g><g><title>BillingController</title><rect fill="#FFFFFF" height="145.6641" style="stroke:#181818;stroke-width:1;" width="10" x="1537.312" y="701.8906"/></g><g><title>BillingApp</title><rect fill="#FFFFFF" height="87.3984" style="stroke:#181818;stroke-width:1;" width="10" x="1800.7192" y="731.0234"/></g><g><title>BillingDB</title><rect fill="#FFFFFF" height="29.1328" style="stroke:#181818;stroke-width:1;" width="10" x="2019.6421" y="760.1563"/></g><rect fill="none" height="776.3906" style="stroke:#000000;stroke-width:1.5;" width="2069.2959" x="10" y="363.4922"/><rect fill="none" height="250.1953" style="stroke:#000000;stroke-width:1.5;" width="1510.6172" x="558.6787" y="634.4922"/><g class="participant-lifeline" data-entity-uid="part1" data-qualified-name="L" id="part1-lifeline"><g><title>Learner</title><rect fill="#000000" fill-opacity="0.00000" height="1069.4531" width="8" x="45.9951" y="87.4297"/><line style="stroke:#181818;stroke-width:0.5;stroke-dasharray:5,5;" x1="49" x2="49" y1="87.4297" y2="1156.8828"/></g></g><g class="participant-lifeline" data-entity-uid="part2" data-qualified-name="WA" id="part2-lifeline"><g><title>WebApp</title><rect fill="#000000" fill-opacity="0.00000" height="1069.4531" width="8" x="309.6772" y="87.4297"/><line style="stroke:#181818;stroke-width:0.5;stroke-dasharray:5,5;" x1="313.3306" x2="313.3306" y1="87.4297" y2="1156.8828"/></g></g><g class="participant-lifeline" data-entity-uid="part3" data-qualified-name="GW" id="part3-lifeline"><g><title>API Gateway</title><rect fill="#000000" fill-opacity="0.00000" height="1069.4531" width="8" x="611.9004" y="87.4297"/><line style="stroke:#181818;stroke-width:0.5;stroke-dasharray:5,5;" x1="615.6787" x2="615.6787" y1="87.4297" y2="1156.8828"/></g></g><g class="participant-lifeline" data-entity-uid="part4" data-qualified-name="EC" id="part4-lifeline"><g><title>EnrollmentController</title><rect fill="#000000" fill-opacity="0.00000" height="1069.4531" width="8" x="842.0439" y="87.4297"/><line style="stroke:#181818;stroke-width:0.5;stroke-dasharray:5,5;" x1="845.2412" x2="845.2412" y1="87.4297" y2="1156.8828"/></g></g><g class="participant-lifeline" data-entity-uid="part5" data-qualified-name="CA" id="part5-lifeline"><g><title>CourseApp</title><rect fill="#000000" fill-opacity="0.00000" height="1069.4531" width="8" x="1145.7397" y="87.4297"/><line style="stroke:#181818;stroke-width:0.5;stroke-dasharray:5,5;" x1="1149.626" x2="1149.626" y1="87.4297" y2="1156.8828"/></g></g><g class="participant-lifeline" data-entity-uid="part6" data-qualified-name="CDB" id="part6-lifeline"><g><title>CourseDB</title><rect fill="#000000" fill-opacity="0.00000" height="1069.4531" width="8" x="1411.6333" y="87.4297"/><line style="stroke:#181818;stroke-width:0.5;stroke-dasharray:5,5;" x1="1415.0024" x2="1415.0024" y1="87.4297" y2="1156.8828"/></g></g><g class="participant-lifeline" data-entity-uid="part7" data-qualified-name="BC" id="part7-lifeline"><g><title>BillingController</title><rect fill="#000000" fill-opacity="0.00000" height="1069.4531" width="8" x="1538.312" y="87.4297"/><line style="stroke:#181818;stroke-width:0.5;stroke-dasharray:5,5;" x1="1542.2642" x2="1542.2642" y1="87.4297" y2="1156.8828"/></g></g><g class="participant-lifeline" data-entity-uid="part8" data-qualified-name="BA" id="part8-lifeline"><g><title>BillingApp</title><rect fill="#000000" fill-opacity="0.00000" height="1069.4531" width="8" x="1801.7192" y="87.4297"/><line style="stroke:#181818;stroke-width:0.5;stroke-dasharray:5,5;" x1="1805.5825" x2="1805.5825" y1="87.4297" y2="1156.8828"/></g></g><g class="participant-lifeline" data-entity-uid="part9" data-qualified-name="BDB" id="part9-lifeline"><g><title>BillingDB</title><rect fill="#000000" fill-opacity="0.00000" height="1069.4531" width="8" x="2020.6421" y="87.4297"/><line style="stroke:#181818;stroke-width:0.5;stroke-dasharray:5,5;" x1="2023.9883" x2="2023.9883" y1="87.4297" y2="1156.8828"/></g></g><g class="participant participant-head" data-entity-uid="part1" data-qualified-name="L" id="part1-head"><text fill="#000000" font-family="sans-serif" font-size="14" lengthAdjust="spacing" textLength="53.9902" x="20" y="84.1279">Learner</text><ellipse cx="49.9951" cy="19.6328" fill="#E2E2F0" rx="8" ry="8" style="stroke:#181818;stroke-width:0.5;"/><path d="M49.9951,27.6328 L49.9951,54.6328 M36.9951,35.6328 L62.9951,35.6328 M49.9951,54.6328 L36.9951,69.6328 M49.9951,54.6328 L62.9951,69.6328" fill="none" style="stroke:#181818;stroke-width:0.5;"/></g><g class="participant participant-tail" data-entity-uid="part1" data-qualified-name="L" id="part1-tail"><text fill="#000000" font-family="sans-serif" font-size="14" lengthAdjust="spacing" textLength="53.9902" x="20" y="1168.8779">Learner</text><ellipse cx="49.9951" cy="1180.6797" fill="#E2E2F0" rx="8" ry="8" style="stroke:#181818;stroke-width:0.5;"/><path d="M49.9951,1188.6797 L49.9951,1215.6797 M36.9951,1196.6797 L62.9951,1196.6797 M49.9951,1215.6797 L36.9951,1230.6797 M49.9951,1215.6797 L62.9951,1230.6797" fill="none" style="stroke:#181818;stroke-width:0.5;"/></g><g class="participant participant-head" data-entity-uid="part2" data-qualified-name="WA" id="part2-head"><text fill="#000000" font-family="sans-serif" font-size="14" lengthAdjust="spacing" textLength="58.6934" x="281.3306" y="84.1279">WebApp</text><path d="M293.1772,43.1328 L293.1772,67.1328 M293.1772,55.1328 L310.1772,55.1328" fill="none" style="stroke:#181818;stroke-width:0.5;"/><ellipse cx="322.1772" cy="55.1328" fill="#E2E2F0" rx="12" ry="12" style="stroke:#181818;stroke-width:0.5;"/></g><g class="participant participant-tail" data-entity-uid="part2" data-qualified-name="WA" id="part2-tail"><text fill="#000000" font-family="sans-serif" font-size="14" lengthAdjust="spacing" textLength="58.6934" x="281.3306" y="1168.8779">WebApp</text><path d="M293.1772,1176.1797 L293.1772,1200.1797 M293.1772,1188.1797 L310.1772,1188.1797" fill="none" style="stroke:#181818;stroke-width:0.5;"/><ellipse cx="322.1772" cy="1188.1797" fill="#E2E2F0" rx="12" ry="12" style="stroke:#181818;stroke-width:0.5;"/></g><g class="participant participant-head" data-entity-uid="part3" data-qualified-name="GW" id="part3-head"><text fill="#000000" font-family="sans-serif" font-size="14" lengthAdjust="spacing" textLength="88.4434" x="568.6787" y="84.1279">API Gateway</text><ellipse cx="615.9004" cy="55.1328" fill="#E2E2F0" rx="12" ry="12" style="stroke:#181818;stroke-width:0.5;"/><polygon fill="#181818" points="611.9004,43.1328,617.9004,38.1328,615.9004,43.1328,617.9004,48.1328,611.9004,43.1328" style="stroke:#181818;stroke-width:1;"/></g><g class="participant participant-tail" data-entity-uid="part3" data-qualified-name="GW" id="part3-tail"><text fill="#000000" font-family="sans-serif" font-size="14" lengthAdjust="spacing" textLength="88.4434" x="568.6787" y="1168.8779">API Gateway</text><ellipse cx="615.9004" cy="1188.1797" fill="#E2E2F0" rx="12" ry="12" style="stroke:#181818;stroke-width:0.5;"/><polygon fill="#181818" points="611.9004,1176.1797,617.9004,1171.1797,615.9004,1176.1797,617.9004,1181.1797,611.9004,1176.1797" style="stroke:#181818;stroke-width:1;"/></g><g class="participant participant-head" data-entity-uid="part4" data-qualified-name="EC" id="part4-head"><text fill="#000000" font-family="sans-serif" font-size="14" lengthAdjust="spacing" textLength="145.6055" x="770.2412" y="84.1279">EnrollmentController</text><ellipse cx="846.0439" cy="55.1328" fill="#E2E2F0" rx="12" ry="12" style="stroke:#181818;stroke-width:0.5;"/><polygon fill="#181818" points="842.0439,43.1328,848.0439,38.1328,846.0439,43.1328,848.0439,48.1328,842.0439,43.1328" style="stroke:#181818;stroke-width:1;"/></g><g class="participant participant-tail" data-entity-uid="part4" data-qualified-name="EC" id="part4-tail"><text fill="#000000" font-family="sans-serif" font-size="14" lengthAdjust="spacing" textLength="145.6055" x="770.2412" y="1168.8779">EnrollmentController</text><ellipse cx="846.0439" cy="1188.1797" fill="#E2E2F0" rx="12" ry="12" style="stroke:#181818;stroke-width:0.5;"/><polygon fill="#181818" points="842.0439,1176.1797,848.0439,1171.1797,846.0439,1176.1797,848.0439,1181.1797,842.0439,1176.1797" style="stroke:#181818;stroke-width:1;"/></g><g class="participant participant-head" data-entity-uid="part5" data-qualified-name="CA" id="part5-head"><text fill="#000000" font-family="sans-serif" font-size="14" lengthAdjust="spacing" textLength="76.2275" x="1108.626" y="84.1279">CourseApp</text><ellipse cx="1149.7397" cy="55.1328" fill="#E2E2F0" rx="12" ry="12" style="stroke:#181818;stroke-width:0.5;"/><polygon fill="#181818" points="1145.7397,43.1328,1151.7397,38.1328,1149.7397,43.1328,1151.7397,48.1328,1145.7397,43.1328" style="stroke:#181818;stroke-width:1;"/></g><g class="participant participant-tail" data-entity-uid="part5" data-qualified-name="CA" id="part5-tail"><text fill="#000000" font-family="sans-serif" font-size="14" lengthAdjust="spacing" textLength="76.2275" x="1108.626" y="1168.8779">CourseApp</text><ellipse cx="1149.7397" cy="1188.1797" fill="#E2E2F0" rx="12" ry="12" style="stroke:#181818;stroke-width:0.5;"/><polygon fill="#181818" points="1145.7397,1176.1797,1151.7397,1171.1797,1149.7397,1176.1797,1151.7397,1181.1797,1145.7397,1176.1797" style="stroke:#181818;stroke-width:1;"/></g><g class="participant participant-head" data-entity-uid="part6" data-qualified-name="CDB" id="part6-head"><text fill="#000000" font-family="sans-serif" font-size="14" lengthAdjust="spacing" textLength="69.2617" x="1378.0024" y="84.1279">CourseDB</text><path d="M1397.6333,35.1328 C1397.6333,25.1328 1415.6333,25.1328 1415.6333,25.1328 C1415.6333,25.1328 1433.6333,25.1328 1433.6333,35.1328 L1433.6333,61.1328 C1433.6333,71.1328 1415.6333,71.1328 1415.6333,71.1328 C1415.6333,71.1328 1397.6333,71.1328 1397.6333,61.1328 L1397.6333,35.1328" fill="#E2E2F0" style="stroke:#181818;stroke-width:0.5;"/><path d="M1397.6333,35.1328 C1397.6333,45.1328 1415.6333,45.1328 1415.6333,45.1328 C1415.6333,45.1328 1433.6333,45.1328 1433.6333,35.1328" fill="none" style="stroke:#181818;stroke-width:0.5;"/></g><g class="participant participant-tail" data-entity-uid="part6" data-qualified-name="CDB" id="part6-tail"><text fill="#000000" font-family="sans-serif" font-size="14" lengthAdjust="spacing" textLength="69.2617" x="1378.0024" y="1168.8779">CourseDB</text><path d="M1397.6333,1182.1797 C1397.6333,1172.1797 1415.6333,1172.1797 1415.6333,1172.1797 C1415.6333,1172.1797 1433.6333,1172.1797 1433.6333,1182.1797 L1433.6333,1208.1797 C1433.6333,1218.1797 1415.6333,1218.1797 1415.6333,1218.1797 C1415.6333,1218.1797 1397.6333,1218.1797 1397.6333,1208.1797 L1397.6333,1182.1797" fill="#E2E2F0" style="stroke:#181818;stroke-width:0.5;"/><path d="M1397.6333,1182.1797 C1397.6333,1192.1797 1415.6333,1192.1797 1415.6333,1192.1797 C1415.6333,1192.1797 1433.6333,1192.1797 1433.6333,1182.1797" fill="none" style="stroke:#181818;stroke-width:0.5;"/></g><g class="participant participant-head" data-entity-uid="part7" data-qualified-name="BC" id="part7-head"><text fill="#000000" font-family="sans-serif" font-size="14" lengthAdjust="spacing" textLength="112.0957" x="1483.2642" y="84.1279">BillingController</text><ellipse cx="1542.312" cy="55.1328" fill="#E2E2F0" rx="12" ry="12" style="stroke:#181818;stroke-width:0.5;"/><polygon fill="#181818" points="1538.312,43.1328,1544.312,38.1328,1542.312,43.1328,1544.312,48.1328,1538.312,43.1328" style="stroke:#181818;stroke-width:1;"/></g><g class="participant participant-tail" data-entity-uid="part7" data-qualified-name="BC" id="part7-tail"><text fill="#000000" font-family="sans-serif" font-size="14" lengthAdjust="spacing" textLength="112.0957" x="1483.2642" y="1168.8779">BillingController</text><ellipse cx="1542.312" cy="1188.1797" fill="#E2E2F0" rx="12" ry="12" style="stroke:#181818;stroke-width:0.5;"/><polygon fill="#181818" points="1538.312,1176.1797,1544.312,1171.1797,1542.312,1176.1797,1544.312,1181.1797,1538.312,1176.1797" style="stroke:#181818;stroke-width:1;"/></g><g class="participant participant-head" data-entity-uid="part8" data-qualified-name="BA" id="part8-head"><text fill="#000000" font-family="sans-serif" font-size="14" lengthAdjust="spacing" textLength="70.2734" x="1767.5825" y="84.1279">BillingApp</text><ellipse cx="1805.7192" cy="55.1328" fill="#E2E2F0" rx="12" ry="12" style="stroke:#181818;stroke-width:0.5;"/><polygon fill="#181818" points="1801.7192,43.1328,1807.7192,38.1328,1805.7192,43.1328,1807.7192,48.1328,1801.7192,43.1328" style="stroke:#181818;stroke-width:1;"/></g><g class="participant participant-tail" data-entity-uid="part8" data-qualified-name="BA" id="part8-tail"><text fill="#000000" font-family="sans-serif" font-size="14" lengthAdjust="spacing" textLength="70.2734" x="1767.5825" y="1168.8779">BillingApp</text><ellipse cx="1805.7192" cy="1188.1797" fill="#E2E2F0" rx="12" ry="12" style="stroke:#181818;stroke-width:0.5;"/><polygon fill="#181818" points="1801.7192,1176.1797,1807.7192,1171.1797,1805.7192,1176.1797,1807.7192,1181.1797,1801.7192,1176.1797" style="stroke:#181818;stroke-width:1;"/></g><g class="participant participant-head" data-entity-uid="part9" data-qualified-name="BDB" id="part9-head"><text fill="#000000" font-family="sans-serif" font-size="14" lengthAdjust="spacing" textLength="63.3076" x="1989.9883" y="84.1279">BillingDB</text><path d="M2006.6421,35.1328 C2006.6421,25.1328 2024.6421,25.1328 2024.6421,25.1328 C2024.6421,25.1328 2042.6421,25.1328 2042.6421,35.1328 L2042.6421,61.1328 C2042.6421,71.1328 2024.6421,71.1328 2024.6421,71.1328 C2024.6421,71.1328 2006.6421,71.1328 2006.6421,61.1328 L2006.6421,35.1328" fill="#E2E2F0" style="stroke:#181818;stroke-width:0.5;"/><path d="M2006.6421,35.1328 C2006.6421,45.1328 2024.6421,45.1328 2024.6421,45.1328 C2024.6421,45.1328 2042.6421,45.1328 2042.6421,35.1328" fill="none" style="stroke:#181818;stroke-width:0.5;"/></g><g class="participant participant-tail" data-entity-uid="part9" data-qualified-name="BDB" id="part9-tail"><text fill="#000000" font-family="sans-serif" font-size="14" lengthAdjust="spacing" textLength="63.3076" x="1989.9883" y="1168.8779">BillingDB</text><path d="M2006.6421,1182.1797 C2006.6421,1172.1797 2024.6421,1172.1797 2024.6421,1172.1797 C2024.6421,1172.1797 2042.6421,1172.1797 2042.6421,1182.1797 L2042.6421,1208.1797 C2042.6421,1218.1797 2024.6421,1218.1797 2024.6421,1218.1797 C2024.6421,1218.1797 2006.6421,1218.1797 2006.6421,1208.1797 L2006.6421,1182.1797" fill="#E2E2F0" style="stroke:#181818;stroke-width:0.5;"/><path d="M2006.6421,1182.1797 C2006.6421,1192.1797 2024.6421,1192.1797 2024.6421,1192.1797 C2024.6421,1192.1797 2042.6421,1192.1797 2042.6421,1182.1797" fill="none" style="stroke:#181818;stroke-width:0.5;"/></g><g><title>Learner</title><rect fill="#FFFFFF" height="399.7266" style="stroke:#181818;stroke-width:1;" width="10" x="44.9951" y="118.5625"/></g><g><title>WebApp</title><rect fill="#FFFFFF" height="399.7266" style="stroke:#181818;stroke-width:1;" width="10" x="308.6772" y="118.5625"/></g><g><title>API Gateway</title><rect fill="#FFFFFF" height="270.1953" style="stroke:#181818;stroke-width:1;" width="10" x="610.9004" y="218.9609"/></g><g><title>API Gateway</title><rect fill="#FFFFFF" height="203.9297" style="stroke:#181818;stroke-width:1;" width="10" x="610.9004" y="672.7578"/></g><g><title>EnrollmentController</title><rect fill="#FFFFFF" height="169.7969" style="stroke:#181818;stroke-width:1;" width="10" x="841.0439" y="290.2266"/></g><g><title>CourseApp</title><rect fill="#FFFFFF" height="709.9922" style="stroke:#181818;stroke-width:1;" width="10" x="1144.7397" y="319.3594"/></g><g><title>CourseDB</title><rect fill="#FFFFFF" height="53.2656" style="stroke:#181818;stroke-width:1;" width="10" x="1410.6333" y="348.4922"/></g><g><title>CourseDB</title><rect fill="#FFFFFF" height="29.1328" style="stroke:#181818;stroke-width:1;" width="10" x="1410.6333" y="912.8203"/></g><g><title>CourseDB</title><rect fill="#FFFFFF" height="29.1328" style="stroke:#181818;stroke-width:1;" width="10" x="1410.6333" y="971.0859"/></g><g><title>BillingController</title><rect fill="#FFFFFF" height="145.6641" style="stroke:#181818;stroke-width:1;" width="10" x="1537.312" y="701.8906"/></g><g><title>BillingApp</title><rect fill="#FFFFFF" height="87.3984" style="stroke:#181818;stroke-width:1;" width="10" x="1800.7192" y="731.0234"/></g><g><title>BillingDB</title><rect fill="#FFFFFF" height="29.1328" style="stroke:#181818;stroke-width:1;" width="10" x="2019.6421" y="760.1563"/></g><g class="message" data-entity-1="part1" data-entity-2="part2" id="msg1"><polygon fill="#181818" points="296.6772,114.5625,306.6772,118.5625,296.6772,122.5625,300.6772,118.5625" style="stroke:#181818;stroke-width:1;"/><line style="stroke:#181818;stroke-width:1;" x1="54.9951" x2="302.6772" y1="118.5625" y2="118.5625"/><text fill="#000000" font-family="sans-serif" font-size="13" font-weight="bold" lengthAdjust="spacing" textLength="9.0454" x="61.9951" y="113.4966">1</text><text fill="#000000" font-family="sans-serif" font-size="13" lengthAdjust="spacing" textLength="226.6367" x="75.0405" y="113.4966">Click "Unenroll" on enrolled course</text></g><g class="message" data-entity-1="part2" data-entity-2="part2" id="msg2"><line style="stroke:#181818;stroke-width:1;" x1="318.6772" x2="360.6772" y1="147.6953" y2="147.6953"/><line style="stroke:#181818;stroke-width:1;" x1="360.6772" x2="360.6772" y1="147.6953" y2="160.6953"/><line style="stroke:#181818;stroke-width:1;" x1="319.6772" x2="360.6772" y1="160.6953" y2="160.6953"/><polygon fill="#181818" points="329.6772,156.6953,319.6772,160.6953,329.6772,164.6953,325.6772,160.6953" style="stroke:#181818;stroke-width:1;"/><text fill="#000000" font-family="sans-serif" font-size="13" font-weight="bold" lengthAdjust="spacing" textLength="9.0454" x="325.6772" y="142.6294">2</text><text fill="#000000" font-family="sans-serif" font-size="13" lengthAdjust="spacing" textLength="178.2358" x="338.7227" y="142.6294">Display confirmation dialog</text></g><g class="message" data-entity-1="part1" data-entity-2="part2" id="msg3"><polygon fill="#181818" points="296.6772,185.8281,306.6772,189.8281,296.6772,193.8281,300.6772,189.8281" style="stroke:#181818;stroke-width:1;"/><line style="stroke:#181818;stroke-width:1;" x1="54.9951" x2="302.6772" y1="189.8281" y2="189.8281"/><text fill="#000000" font-family="sans-serif" font-size="13" font-weight="bold" lengthAdjust="spacing" textLength="9.0454" x="61.9951" y="184.7622">3</text><text fill="#000000" font-family="sans-serif" font-size="13" lengthAdjust="spacing" textLength="142.835" x="75.0405" y="184.7622">Confirm unenrollment</text></g><g class="message" data-entity-1="part2" data-entity-2="part3" id="msg4"><polygon fill="#181818" points="598.9004,214.9609,608.9004,218.9609,598.9004,222.9609,602.9004,218.9609" style="stroke:#181818;stroke-width:1;"/><line style="stroke:#181818;stroke-width:1;" x1="318.6772" x2="604.9004" y1="218.9609" y2="218.9609"/><text fill="#000000" font-family="sans-serif" font-size="13" font-weight="bold" lengthAdjust="spacing" textLength="9.0454" x="325.6772" y="213.895">4</text><text fill="#000000" font-family="sans-serif" font-size="13" lengthAdjust="spacing" textLength="260.1777" x="338.7227" y="213.895">DELETE /courses/{courseId}/enrollment</text></g><g class="message" data-entity-1="part3" data-entity-2="part3" id="msg5"><line style="stroke:#181818;stroke-width:1;" x1="620.9004" x2="662.9004" y1="248.0938" y2="248.0938"/><line style="stroke:#181818;stroke-width:1;" x1="662.9004" x2="662.9004" y1="248.0938" y2="261.0938"/><line style="stroke:#181818;stroke-width:1;" x1="621.9004" x2="662.9004" y1="261.0938" y2="261.0938"/><polygon fill="#181818" points="631.9004,257.0938,621.9004,261.0938,631.9004,265.0938,627.9004,261.0938" style="stroke:#181818;stroke-width:1;"/><text fill="#000000" font-family="sans-serif" font-size="13" font-weight="bold" lengthAdjust="spacing" textLength="9.0454" x="627.9004" y="243.0278">5</text><text fill="#000000" font-family="sans-serif" font-size="13" lengthAdjust="spacing" textLength="183.0981" x="640.9458" y="243.0278">Validate JWT, extract userID</text></g><g class="message" data-entity-1="part3" data-entity-2="part4" id="msg6"><polygon fill="#181818" points="829.0439,286.2266,839.0439,290.2266,829.0439,294.2266,833.0439,290.2266" style="stroke:#181818;stroke-width:1;"/><line style="stroke:#181818;stroke-width:1;" x1="620.9004" x2="835.0439" y1="290.2266" y2="290.2266"/><text fill="#000000" font-family="sans-serif" font-size="13" font-weight="bold" lengthAdjust="spacing" textLength="9.0454" x="627.9004" y="285.1606">6</text><text fill="#000000" font-family="sans-serif" font-size="13" lengthAdjust="spacing" textLength="106.8057" x="640.9458" y="285.1606">Forward request</text></g><g class="message" data-entity-1="part4" data-entity-2="part5" id="msg7"><polygon fill="#181818" points="1132.7397,315.3594,1142.7397,319.3594,1132.7397,323.3594,1136.7397,319.3594" style="stroke:#181818;stroke-width:1;"/><line style="stroke:#181818;stroke-width:1;" x1="851.0439" x2="1138.7397" y1="319.3594" y2="319.3594"/><text fill="#000000" font-family="sans-serif" font-size="13" font-weight="bold" lengthAdjust="spacing" textLength="9.0454" x="858.0439" y="314.2935">7</text><text fill="#000000" font-family="sans-serif" font-size="13" lengthAdjust="spacing" textLength="249.4883" x="871.0894" y="314.2935">UnenrollFromCourse(courseId, userID)</text></g><g class="message" data-entity-1="part5" data-entity-2="part6" id="msg8"><polygon fill="#181818" points="1398.6333,344.4922,1408.6333,348.4922,1398.6333,352.4922,1402.6333,348.4922" style="stroke:#181818;stroke-width:1;"/><line style="stroke:#181818;stroke-width:1;" x1="1154.7397" x2="1404.6333" y1="348.4922" y2="348.4922"/><text fill="#000000" font-family="sans-serif" font-size="13" font-weight="bold" lengthAdjust="spacing" textLength="9.0454" x="1161.7397" y="343.4263">8</text><text fill="#000000" font-family="sans-serif" font-size="13" lengthAdjust="spacing" textLength="102.4702" x="1174.7852" y="343.4263">Find enrollment</text></g><path d="M10,363.4922 L74.4429,363.4922 L74.4429,370.625 L64.4429,380.625 L10,380.625 L10,363.4922" fill="#EEEEEE" style="stroke:#000000;stroke-width:1.5;"/><rect fill="none" height="776.3906" style="stroke:#000000;stroke-width:1.5;" width="2069.2959" x="10" y="363.4922"/><text fill="#000000" font-family="sans-serif" font-size="13" font-weight="bold" lengthAdjust="spacing" textLength="19.4429" x="25" y="376.5591">alt</text><text fill="#000000" font-family="sans-serif" font-size="11" font-weight="bold" lengthAdjust="spacing" textLength="87.0547" x="89.4429" y="375.7026">[Not enrolled]</text><g class="message" data-entity-1="part6" data-entity-2="part5" id="msg9"><polygon fill="#181818" points="1165.7397,397.7578,1155.7397,401.7578,1165.7397,405.7578,1161.7397,401.7578" style="stroke:#181818;stroke-width:1;"/><line style="stroke:#181818;stroke-width:1;stroke-dasharray:2,2;" x1="1159.7397" x2="1414.6333" y1="401.7578" y2="401.7578"/><text fill="#000000" font-family="sans-serif" font-size="13" font-weight="bold" lengthAdjust="spacing" textLength="9.0454" x="1171.7397" y="396.6919">9</text><text fill="#000000" font-family="sans-serif" font-size="13" lengthAdjust="spacing" textLength="64.1685" x="1184.7852" y="396.6919">Not found</text></g><g class="message" data-entity-1="part5" data-entity-2="part4" id="msg10"><polygon fill="#181818" points="862.0439,426.8906,852.0439,430.8906,862.0439,434.8906,858.0439,430.8906" style="stroke:#181818;stroke-width:1;"/><line style="stroke:#181818;stroke-width:1;stroke-dasharray:2,2;" x1="856.0439" x2="1143.7397" y1="430.8906" y2="430.8906"/><text fill="#000000" font-family="sans-serif" font-size="13" font-weight="bold" lengthAdjust="spacing" textLength="18.0908" x="868.0439" y="425.8247">10</text><text fill="#000000" font-family="sans-serif" font-size="13" lengthAdjust="spacing" textLength="96.0146" x="890.1348" y="425.8247">404 Not Found</text></g><g class="message" data-entity-1="part4" data-entity-2="part3" id="msg11"><polygon fill="#181818" points="631.9004,456.0234,621.9004,460.0234,631.9004,464.0234,627.9004,460.0234" style="stroke:#181818;stroke-width:1;"/><line style="stroke:#181818;stroke-width:1;stroke-dasharray:2,2;" x1="625.9004" x2="845.0439" y1="460.0234" y2="460.0234"/><text fill="#000000" font-family="sans-serif" font-size="13" font-weight="bold" lengthAdjust="spacing" textLength="18.0908" x="637.9004" y="454.9575">11</text><text fill="#000000" font-family="sans-serif" font-size="13" lengthAdjust="spacing" textLength="32.2017" x="659.9912" y="454.9575">Error</text></g><g class="message" data-entity-1="part3" data-entity-2="part2" id="msg12"><polygon fill="#181818" points="329.6772,485.1563,319.6772,489.1563,329.6772,493.1563,325.6772,489.1563" style="stroke:#181818;stroke-width:1;"/><line style="stroke:#181818;stroke-width:1;stroke-dasharray:2,2;" x1="323.6772" x2="614.9004" y1="489.1563" y2="489.1563"/><text fill="#000000" font-family="sans-serif" font-size="13" font-weight="bold" lengthAdjust="spacing" textLength="18.0908" x="335.6772" y="484.0903">12</text><text fill="#000000" font-family="sans-serif" font-size="13" lengthAdjust="spacing" textLength="32.2017" x="357.7681" y="484.0903">Error</text></g><g class="message" data-entity-1="part2" data-entity-2="part1" id="msg13"><polygon fill="#181818" points="60.9951,514.2891,50.9951,518.2891,60.9951,522.2891,56.9951,518.2891" style="stroke:#181818;stroke-width:1;"/><line style="stroke:#181818;stroke-width:1;" x1="54.9951" x2="312.6772" y1="518.2891" y2="518.2891"/><text fill="#000000" font-family="sans-serif" font-size="13" font-weight="bold" lengthAdjust="spacing" textLength="18.0908" x="66.9951" y="513.2231">13</text><text fill="#000000" font-family="sans-serif" font-size="13" lengthAdjust="spacing" textLength="84.0366" x="89.0859" y="513.2231">Display error</text></g><line style="stroke:#000000;stroke-width:1;stroke-dasharray:2,2;" x1="10" x2="2079.2959" y1="527.2891" y2="527.2891"/><text fill="#000000" font-family="sans-serif" font-size="11" font-weight="bold" lengthAdjust="spacing" textLength="61.2573" x="15" y="537.4995">[Enrolled]</text><g class="message" data-entity-1="part6" data-entity-2="part5" id="msg14"><polygon fill="#181818" points="1165.7397,558.2266,1155.7397,562.2266,1165.7397,566.2266,1161.7397,562.2266" style="stroke:#181818;stroke-width:1;"/><line style="stroke:#181818;stroke-width:1;stroke-dasharray:2,2;" x1="1159.7397" x2="1414.6333" y1="562.2266" y2="562.2266"/><text fill="#000000" font-family="sans-serif" font-size="13" font-weight="bold" lengthAdjust="spacing" textLength="18.0908" x="1171.7397" y="557.1606">14</text><text fill="#000000" font-family="sans-serif" font-size="13" lengthAdjust="spacing" textLength="104.3872" x="1193.8306" y="557.1606">Enrollment data</text></g><g class="message" data-entity-1="part5" data-entity-2="part5" id="msg15"><line style="stroke:#181818;stroke-width:1;" x1="1154.7397" x2="1196.7397" y1="606.4922" y2="606.4922"/><line style="stroke:#181818;stroke-width:1;" x1="1196.7397" x2="1196.7397" y1="606.4922" y2="619.4922"/><line style="stroke:#181818;stroke-width:1;" x1="1155.7397" x2="1196.7397" y1="619.4922" y2="619.4922"/><polygon fill="#181818" points="1165.7397,615.4922,1155.7397,619.4922,1165.7397,623.4922,1161.7397,619.4922" style="stroke:#181818;stroke-width:1;"/><text fill="#000000" font-family="sans-serif" font-size="13" font-weight="bold" lengthAdjust="spacing" textLength="18.0908" x="1161.7397" y="593.8599">15</text><text fill="#000000" font-family="sans-serif" font-size="13" lengthAdjust="spacing" textLength="149.8682" x="1183.8306" y="586.2935">Check refund eligibility</text><text fill="#000000" font-family="sans-serif" font-size="13" lengthAdjust="spacing" textLength="209.8027" x="1183.8306" y="601.4263">(within 7 days, &lt; 20% progress)</text></g><path d="M558.6787,634.4922 L628.1299,634.4922 L628.1299,641.625 L618.1299,651.625 L558.6787,651.625 L558.6787,634.4922" fill="#EEEEEE" style="stroke:#000000;stroke-width:1.5;"/><rect fill="none" height="250.1953" style="stroke:#000000;stroke-width:1.5;" width="1510.6172" x="558.6787" y="634.4922"/><text fill="#000000" font-family="sans-serif" font-size="13" font-weight="bold" lengthAdjust="spacing" textLength="24.4512" x="573.6787" y="647.5591">opt</text><text fill="#000000" font-family="sans-serif" font-size="11" font-weight="bold" lengthAdjust="spacing" textLength="103.8877" x="643.1299" y="646.7026">[Refund eligible]</text><g class="message" data-entity-1="part5" data-entity-2="part3" id="msg16"><polygon fill="#181818" points="631.9004,668.7578,621.9004,672.7578,631.9004,676.7578,627.9004,672.7578" style="stroke:#181818;stroke-width:1;"/><line style="stroke:#181818;stroke-width:1;" x1="625.9004" x2="1143.7397" y1="672.7578" y2="672.7578"/><text fill="#000000" font-family="sans-serif" font-size="13" font-weight="bold" lengthAdjust="spacing" textLength="18.0908" x="637.9004" y="667.6919">16</text><text fill="#000000" font-family="sans-serif" font-size="13" lengthAdjust="spacing" textLength="258.5908" x="659.9912" y="667.6919">gRPC: RequestRefund(userID, courseId)</text></g><g class="message" data-entity-1="part3" data-entity-2="part7" id="msg17"><polygon fill="#181818" points="1525.312,697.8906,1535.312,701.8906,1525.312,705.8906,1529.312,701.8906" style="stroke:#181818;stroke-width:1;"/><line style="stroke:#181818;stroke-width:1;" x1="620.9004" x2="1531.312" y1="701.8906" y2="701.8906"/><text fill="#000000" font-family="sans-serif" font-size="13" font-weight="bold" lengthAdjust="spacing" textLength="18.0908" x="627.9004" y="696.8247">17</text><text fill="#000000" font-family="sans-serif" font-size="13" lengthAdjust="spacing" textLength="166.3213" x="649.9912" y="696.8247">Forward to Billing Service</text></g><g class="message" data-entity-1="part7" data-entity-2="part8" id="msg18"><polygon fill="#181818" points="1788.7192,727.0234,1798.7192,731.0234,1788.7192,735.0234,1792.7192,731.0234" style="stroke:#181818;stroke-width:1;"/><line style="stroke:#181818;stroke-width:1;" x1="1547.312" x2="1794.7192" y1="731.0234" y2="731.0234"/><text fill="#000000" font-family="sans-serif" font-size="13" font-weight="bold" lengthAdjust="spacing" textLength="18.0908" x="1554.312" y="725.9575">18</text><text fill="#000000" font-family="sans-serif" font-size="13" lengthAdjust="spacing" textLength="212.3164" x="1576.4028" y="725.9575">ProcessRefund(userID, courseId)</text></g><g class="message" data-entity-1="part8" data-entity-2="part9" id="msg19"><polygon fill="#181818" points="2007.6421,756.1563,2017.6421,760.1563,2007.6421,764.1563,2011.6421,760.1563" style="stroke:#181818;stroke-width:1;"/><line style="stroke:#181818;stroke-width:1;" x1="1810.7192" x2="2013.6421" y1="760.1563" y2="760.1563"/><text fill="#000000" font-family="sans-serif" font-size="13" font-weight="bold" lengthAdjust="spacing" textLength="18.0908" x="1817.7192" y="755.0903">19</text><text fill="#000000" font-family="sans-serif" font-size="13" lengthAdjust="spacing" textLength="167.832" x="1839.8101" y="755.0903">Create refund transaction</text></g><g class="message" data-entity-1="part9" data-entity-2="part8" id="msg20"><polygon fill="#181818" points="1821.7192,785.2891,1811.7192,789.2891,1821.7192,793.2891,1817.7192,789.2891" style="stroke:#181818;stroke-width:1;"/><line style="stroke:#181818;stroke-width:1;stroke-dasharray:2,2;" x1="1815.7192" x2="2023.6421" y1="789.2891" y2="789.2891"/><text fill="#000000" font-family="sans-serif" font-size="13" font-weight="bold" lengthAdjust="spacing" textLength="18.0908" x="1827.7192" y="784.2231">20</text><text fill="#000000" font-family="sans-serif" font-size="13" lengthAdjust="spacing" textLength="100.2739" x="1849.8101" y="784.2231">Refund created</text></g><g class="message" data-entity-1="part8" data-entity-2="part7" id="msg21"><polygon fill="#181818" points="1558.312,814.4219,1548.312,818.4219,1558.312,822.4219,1554.312,818.4219" style="stroke:#181818;stroke-width:1;"/><line style="stroke:#181818;stroke-width:1;stroke-dasharray:2,2;" x1="1552.312" x2="1804.7192" y1="818.4219" y2="818.4219"/><text fill="#000000" font-family="sans-serif" font-size="13" font-weight="bold" lengthAdjust="spacing" textLength="18.0908" x="1564.312" y="813.356">21</text><text fill="#000000" font-family="sans-serif" font-size="13" lengthAdjust="spacing" textLength="116.9619" x="1586.4028" y="813.356">Refund processed</text></g><g class="message" data-entity-1="part7" data-entity-2="part3" id="msg22"><polygon fill="#181818" points="631.9004,843.5547,621.9004,847.5547,631.9004,851.5547,627.9004,847.5547" style="stroke:#181818;stroke-width:1;"/><line style="stroke:#181818;stroke-width:1;stroke-dasharray:2,2;" x1="625.9004" x2="1541.312" y1="847.5547" y2="847.5547"/><text fill="#000000" font-family="sans-serif" font-size="13" font-weight="bold" lengthAdjust="spacing" textLength="18.0908" x="637.9004" y="842.4888">22</text><text fill="#000000" font-family="sans-serif" font-size="13" lengthAdjust="spacing" textLength="101.3213" x="659.9912" y="842.4888">Refund success</text></g><g class="message" data-entity-1="part3" data-entity-2="part5" id="msg23"><polygon fill="#181818" points="1132.7397,872.6875,1142.7397,876.6875,1132.7397,880.6875,1136.7397,876.6875" style="stroke:#181818;stroke-width:1;"/><line style="stroke:#181818;stroke-width:1;stroke-dasharray:2,2;" x1="615.9004" x2="1138.7397" y1="876.6875" y2="876.6875"/><text fill="#000000" font-family="sans-serif" font-size="13" font-weight="bold" lengthAdjust="spacing" textLength="18.0908" x="622.9004" y="871.6216">23</text><text fill="#000000" font-family="sans-serif" font-size="13" lengthAdjust="spacing" textLength="116.2573" x="644.9912" y="871.6216">Refund confirmed</text></g><g class="message" data-entity-1="part5" data-entity-2="part6" id="msg24"><polygon fill="#181818" points="1398.6333,908.8203,1408.6333,912.8203,1398.6333,916.8203,1402.6333,912.8203" style="stroke:#181818;stroke-width:1;"/><line style="stroke:#181818;stroke-width:1;" x1="1154.7397" x2="1404.6333" y1="912.8203" y2="912.8203"/><text fill="#000000" font-family="sans-serif" font-size="13" font-weight="bold" lengthAdjust="spacing" textLength="18.0908" x="1161.7397" y="907.7544">24</text><text fill="#000000" font-family="sans-serif" font-size="13" lengthAdjust="spacing" textLength="117.603" x="1183.8306" y="907.7544">Delete enrollment</text></g><g class="message" data-entity-1="part6" data-entity-2="part5" id="msg25"><polygon fill="#181818" points="1165.7397,937.9531,1155.7397,941.9531,1165.7397,945.9531,1161.7397,941.9531" style="stroke:#181818;stroke-width:1;"/><line style="stroke:#181818;stroke-width:1;stroke-dasharray:2,2;" x1="1159.7397" x2="1414.6333" y1="941.9531" y2="941.9531"/><text fill="#000000" font-family="sans-serif" font-size="13" font-weight="bold" lengthAdjust="spacing" textLength="18.0908" x="1171.7397" y="936.8872">25</text><text fill="#000000" font-family="sans-serif" font-size="13" lengthAdjust="spacing" textLength="52.3301" x="1193.8306" y="936.8872">Success</text></g><g class="message" data-entity-1="part5" data-entity-2="part6" id="msg26"><polygon fill="#181818" points="1398.6333,967.0859,1408.6333,971.0859,1398.6333,975.0859,1402.6333,971.0859" style="stroke:#181818;stroke-width:1;"/><line style="stroke:#181818;stroke-width:1;" x1="1154.7397" x2="1404.6333" y1="971.0859" y2="971.0859"/><text fill="#000000" font-family="sans-serif" font-size="13" font-weight="bold" lengthAdjust="spacing" textLength="18.0908" x="1161.7397" y="966.02">26</text><text fill="#000000" font-family="sans-serif" font-size="13" lengthAdjust="spacing" textLength="149.0176" x="1183.8306" y="966.02">Delete lesson progress</text></g><g class="message" data-entity-1="part6" data-entity-2="part5" id="msg27"><polygon fill="#181818" points="1165.7397,996.2188,1155.7397,1000.2188,1165.7397,1004.2188,1161.7397,1000.2188" style="stroke:#181818;stroke-width:1;"/><line style="stroke:#181818;stroke-width:1;stroke-dasharray:2,2;" x1="1159.7397" x2="1414.6333" y1="1000.2188" y2="1000.2188"/><text fill="#000000" font-family="sans-serif" font-size="13" font-weight="bold" lengthAdjust="spacing" textLength="18.0908" x="1171.7397" y="995.1528">27</text><text fill="#000000" font-family="sans-serif" font-size="13" lengthAdjust="spacing" textLength="109.6177" x="1193.8306" y="995.1528">Progress deleted</text></g><g class="message" data-entity-1="part5" data-entity-2="part4" id="msg28"><polygon fill="#181818" points="857.0439,1025.3516,847.0439,1029.3516,857.0439,1033.3516,853.0439,1029.3516" style="stroke:#181818;stroke-width:1;"/><line style="stroke:#181818;stroke-width:1;stroke-dasharray:2,2;" x1="851.0439" x2="1148.7397" y1="1029.3516" y2="1029.3516"/><text fill="#000000" font-family="sans-serif" font-size="13" font-weight="bold" lengthAdjust="spacing" textLength="18.0908" x="863.0439" y="1024.2856">28</text><text fill="#000000" font-family="sans-serif" font-size="13" lengthAdjust="spacing" textLength="252.605" x="885.1348" y="1024.2856">Success (with refund info if applicable)</text></g><g class="message" data-entity-1="part4" data-entity-2="part3" id="msg29"><polygon fill="#181818" points="626.9004,1054.4844,616.9004,1058.4844,626.9004,1062.4844,622.9004,1058.4844" style="stroke:#181818;stroke-width:1;"/><line style="stroke:#181818;stroke-width:1;stroke-dasharray:2,2;" x1="620.9004" x2="845.0439" y1="1058.4844" y2="1058.4844"/><text fill="#000000" font-family="sans-serif" font-size="13" font-weight="bold" lengthAdjust="spacing" textLength="18.0908" x="632.9004" y="1053.4185">29</text><text fill="#000000" font-family="sans-serif" font-size="13" lengthAdjust="spacing" textLength="47.7026" x="654.9912" y="1053.4185">200 OK</text></g><g class="message" data-entity-1="part3" data-entity-2="part2" id="msg30"><polygon fill="#181818" points="324.6772,1083.6172,314.6772,1087.6172,324.6772,1091.6172,320.6772,1087.6172" style="stroke:#181818;stroke-width:1;"/><line style="stroke:#181818;stroke-width:1;stroke-dasharray:2,2;" x1="318.6772" x2="614.9004" y1="1087.6172" y2="1087.6172"/><text fill="#000000" font-family="sans-serif" font-size="13" font-weight="bold" lengthAdjust="spacing" textLength="18.0908" x="330.6772" y="1082.5513">30</text><text fill="#000000" font-family="sans-serif" font-size="13" lengthAdjust="spacing" textLength="143.4951" x="352.7681" y="1082.5513">Unenrollment success</text></g><g class="message" data-entity-1="part2" data-entity-2="part1" id="msg31"><polygon fill="#181818" points="60.9951,1127.8828,50.9951,1131.8828,60.9951,1135.8828,56.9951,1131.8828" style="stroke:#181818;stroke-width:1;"/><line style="stroke:#181818;stroke-width:1;" x1="54.9951" x2="312.6772" y1="1131.8828" y2="1131.8828"/><text fill="#000000" font-family="sans-serif" font-size="13" font-weight="bold" lengthAdjust="spacing" textLength="18.0908" x="66.9951" y="1119.2505">31</text><text fill="#000000" font-family="sans-serif" font-size="13" lengthAdjust="spacing" textLength="180.1401" x="89.0859" y="1111.6841">Display success notification</text><text fill="#000000" font-family="sans-serif" font-size="13" lengthAdjust="spacing" textLength="196.1426" x="89.0859" y="1126.8169">(with refund info if applicable)</text></g><?plantuml-src ZLJlQzim4Ftkl-B863IGqgmK1gKCRCSDtSmMqdPci2-AhQIYYkJ9SjCmzh_lzCEfd6HTlxIExjxJktjt8gsMebqlg8gYvf69cYYoXaG-pqXLCR623-Ce8gMM2d9AbA0AI0Dvj92jg8ZQGa4NSLsRmoAEyFWP1l7i1gP4qmtP3k1TpbOFEk4jZG1AARIIV2y5iTCYeg82X7kELBQgeN1BrHChQKVpWt8kDm5H9l0lNrEXKtV2dS0i3P8SbrUPnXYfY2OBWlmkD4biP9BiYKWOvwO7UofcJ3m6z3whBo193pEyWgIdmCUSX2IKaCFf9spg9QISbOymk1VKLZi0AS1zqWhlC1KOYzWJDXIjsNsY8KNSaKnOKtEoDPgMJAs9PiXICSBbAhpAHQ7rTvdEHfvbMY1BbcTt6PovMvkpt-xZflfp5W1s2j3MQT5XlnFEAdFwkRWR0NtM2lEWRQYwcVYqBBs4QwasH5MWwA-MDW4PUXfbgKbBKMdNZMibryx5aqxBo9CENx3eUfJQAj1bl8DXauy9DZCG4QxXgzIx7gDTYBqwFNLW4rgQyJSsqXuKKAHBH8KNumkRU-rpiKGJCZLcIadLXzk9BTmrfbj7Kh2RDWMho5yCfOU9HTp_dKUKuwXbn-jvsI4xbOTLkNpVz_I1uZ0gkcnD2pbRiGNZJ6z_YfCDqmzCm4UasJOZk8BpyNkebLmfsZH3GoDh3VCGoishqD6RibVp6VPdxhntgIVEpH5q_WujfjyMsrxaI889qXBsDhWFj3iA-Cy2iRQPaYLAVTkrTeqHRQKdff6feYRWUuFZBHgJBSKUq0wAHHeFBDGtfRGCbGq79kmGRhYCL0-edU8ZaBXhYaMaEqJJbWPna9zsHdG3s4boByBX3RRj-5W5us4gcL1ECHeiLr2wsv5m-6vtSluvT04hnrHyjhgPUfrwvhEGsO2hetS4--gbW9tZpaKcbXBO4aXTuojCS627UpnnVxNFnsFuzkNrtRuFNjV0aF-kkay58JLReXepMtxltgptoDk07lu5?></g></svg>