<?plantuml 1.2026.1?><svg xmlns="http://www.w3.org/2000/svg" xmlns:xlink="http://www.w3.org/1999/xlink" contentStyleType="text/css" data-diagram-type="SEQUENCE" height="1254px" preserveAspectRatio="none" style="width:1714px;height:1254px;background:#FFFFFF;" version="1.1" viewBox="0 0 1714 1254" width="1714px" zoomAndPan="magnify"><defs/><g><rect fill="#ADD8E6" height="1242.8516" style="stroke:#181818;stroke-width:0.5;" width="102.4434" x="555.2764" y="6"/><text fill="#000000" font-family="sans-serif" font-size="13" font-weight="bold" lengthAdjust="spacing" textLength="92.6821" x="560.157" y="18.0669">API Gateway</text><rect fill="#FFFFE0" height="1242.8516" style="stroke:#181818;stroke-width:0.5;" width="888.2832" x="803.541" y="6"/><text fill="#000000" font-family="sans-serif" font-size="13" font-weight="bold" lengthAdjust="spacing" textLength="109.2622" x="1193.0515" y="18.0669">Course Service</text><g><title>Instructor</title><rect fill="#FFFFFF" height="1018.9922" style="stroke:#181818;stroke-width:1;" width="10" x="61.9609" y="118.5625"/></g><g><title>WebApp</title><rect fill="#FFFFFF" height="1018.9922" style="stroke:#181818;stroke-width:1;" width="10" x="332.0098" y="118.5625"/></g><g><title>API Gateway</title><rect fill="#FFFFFF" height="270.1953" style="stroke:#181818;stroke-width:1;" width="10" x="601.498" y="263.2266"/></g><g><title>SectionController</title><rect fill="#FFFFFF" height="169.7969" style="stroke:#181818;stroke-width:1;" width="10" x="866.1348" y="334.4922"/></g><g><title>CourseApp</title><rect fill="#FFFFFF" height="686.5313" style="stroke:#181818;stroke-width:1;" width="10" x="1184.2842" y="363.625"/></g><g><title>Section</title><rect fill="#FFFFFF" height="71.2656" style="stroke:#181818;stroke-width:1;" width="10" x="1416.6494" y="891.4922"/></g><g><title>CourseDB</title><rect fill="#FFFFFF" height="53.2656" style="stroke:#181818;stroke-width:1;" width="10" x="1645.1934" y="392.7578"/></g><g><title>CourseDB</title><rect fill="#FFFFFF" height="29.1328" style="stroke:#181818;stroke-width:1;" width="10" x="1645.1934" y="833.2266"/></g><g><title>CourseDB</title><rect fill="#FFFFFF" height="29.1328" style="stroke:#181818;stroke-width:1;" width="10" x="1645.1934" y="991.8906"/></g><rect fill="none" height="744.7969" style="stroke:#000000;stroke-width:1.5;" width="1697.8242" x="10" y="407.7578"/><rect fill="none" height="481.9297" style="stroke:#000000;stroke-width:1.5;" width="1677.8242" x="20" y="663.625"/><g class="participant-lifeline" data-entity-uid="part1" data-qualified-name="I" id="part1-lifeline"><g><title>Instructor</title><rect fill="#000000" fill-opacity="0.00000" height="1082.125" width="8" x="62.9609" y="87.4297"/><line style="stroke:#181818;stroke-width:0.5;stroke-dasharray:5,5;" x1="66" x2="66" y1="87.4297" y2="1169.5547"/></g></g><g class="participant-lifeline" data-entity-uid="part2" data-qualified-name="WA" id="part2-lifeline"><g><title>WebApp</title><rect fill="#000000" fill-opacity="0.00000" height="1082.125" width="8" x="333.0098" y="87.4297"/><line style="stroke:#181818;stroke-width:0.5;stroke-dasharray:5,5;" x1="336.6631" x2="336.6631" y1="87.4297" y2="1169.5547"/></g></g><g class="participant-lifeline" data-entity-uid="part3" data-qualified-name="GW" id="part3-lifeline"><g><title>API Gateway</title><rect fill="#000000" fill-opacity="0.00000" height="1082.125" width="8" x="602.498" y="87.4297"/><line style="stroke:#181818;stroke-width:0.5;stroke-dasharray:5,5;" x1="606.2764" x2="606.2764" y1="87.4297" y2="1169.5547"/></g></g><g class="participant-lifeline" data-entity-uid="part4" data-qualified-name="SC" id="part4-lifeline"><g><title>SectionController</title><rect fill="#000000" fill-opacity="0.00000" height="1082.125" width="8" x="867.1348" y="87.4297"/><line style="stroke:#181818;stroke-width:0.5;stroke-dasharray:5,5;" x1="870.541" x2="870.541" y1="87.4297" y2="1169.5547"/></g></g><g class="participant-lifeline" data-entity-uid="part5" data-qualified-name="CA" id="part5-lifeline"><g><title>CourseApp</title><rect fill="#000000" fill-opacity="0.00000" height="1082.125" width="8" x="1185.2842" y="87.4297"/><line style="stroke:#181818;stroke-width:0.5;stroke-dasharray:5,5;" x1="1189.1704" x2="1189.1704" y1="87.4297" y2="1169.5547"/></g></g><g class="participant-lifeline" data-entity-uid="part6" data-qualified-name="S" id="part6-lifeline"><g><title>Section</title><rect fill="#000000" fill-opacity="0.00000" height="1082.125" width="8" x="1417.6494" y="87.4297"/><line style="stroke:#181818;stroke-width:0.5;stroke-dasharray:5,5;" x1="1421.6421" x2="1421.6421" y1="87.4297" y2="1169.5547"/></g></g><g class="participant-lifeline" data-entity-uid="part7" data-qualified-name="CDB" id="part7-lifeline"><g><title>CourseDB</title><rect fill="#000000" fill-opacity="0.00000" height="1082.125" width="8" x="1646.1934" y="87.4297"/><line style="stroke:#181818;stroke-width:0.5;stroke-dasharray:5,5;" x1="1649.5625" x2="1649.5625" y1="87.4297" y2="1169.5547"/></g></g><g class="participant participant-head" data-entity-uid="part1" data-qualified-name="I" id="part1-head"><text fill="#000000" font-family="sans-serif" font-size="14" lengthAdjust="spacing" textLength="67.9219" x="30" y="84.1279">Instructor</text><ellipse cx="66.9609" cy="19.6328" fill="#E2E2F0" rx="8" ry="8" style="stroke:#181818;stroke-width:0.5;"/><path d="M66.9609,27.6328 L66.9609,54.6328 M53.9609,35.6328 L79.9609,35.6328 M66.9609,54.6328 L53.9609,69.6328 M66.9609,54.6328 L79.9609,69.6328" fill="none" style="stroke:#181818;stroke-width:0.5;"/></g><g class="participant participant-tail" data-entity-uid="part1" data-qualified-name="I" id="part1-tail"><text fill="#000000" font-family="sans-serif" font-size="14" lengthAdjust="spacing" textLength="67.9219" x="30" y="1181.5498">Instructor</text><ellipse cx="66.9609" cy="1193.3516" fill="#E2E2F0" rx="8" ry="8" style="stroke:#181818;stroke-width:0.5;"/><path d="M66.9609,1201.3516 L66.9609,1228.3516 M53.9609,1209.3516 L79.9609,1209.3516 M66.9609,1228.3516 L53.9609,1243.3516 M66.9609,1228.3516 L79.9609,1243.3516" fill="none" style="stroke:#181818;stroke-width:0.5;"/></g><g class="participant participant-head" data-entity-uid="part2" data-qualified-name="WA" id="part2-head"><text fill="#000000" font-family="sans-serif" font-size="14" lengthAdjust="spacing" textLength="58.6934" x="304.6631" y="84.1279">WebApp</text><path d="M316.5098,43.1328 L316.5098,67.1328 M316.5098,55.1328 L333.5098,55.1328" fill="none" style="stroke:#181818;stroke-width:0.5;"/><ellipse cx="345.5098" cy="55.1328" fill="#E2E2F0" rx="12" ry="12" style="stroke:#181818;stroke-width:0.5;"/></g><g class="participant participant-tail" data-entity-uid="part2" data-qualified-name="WA" id="part2-tail"><text fill="#000000" font-family="sans-serif" font-size="14" lengthAdjust="spacing" textLength="58.6934" x="304.6631" y="1181.5498">WebApp</text><path d="M316.5098,1188.8516 L316.5098,1212.8516 M316.5098,1200.8516 L333.5098,1200.8516" fill="none" style="stroke:#181818;stroke-width:0.5;"/><ellipse cx="345.5098" cy="1200.8516" fill="#E2E2F0" rx="12" ry="12" style="stroke:#181818;stroke-width:0.5;"/></g><g class="participant participant-head" data-entity-uid="part3" data-qualified-name="GW" id="part3-head"><text fill="#000000" font-family="sans-serif" font-size="14" lengthAdjust="spacing" textLength="88.4434" x="559.2764" y="84.1279">API Gateway</text><ellipse cx="606.498" cy="55.1328" fill="#E2E2F0" rx="12" ry="12" style="stroke:#181818;stroke-width:0.5;"/><polygon fill="#181818" points="602.498,43.1328,608.498,38.1328,606.498,43.1328,608.498,48.1328,602.498,43.1328" style="stroke:#181818;stroke-width:1;"/></g><g class="participant participant-tail" data-entity-uid="part3" data-qualified-name="GW" id="part3-tail"><text fill="#000000" font-family="sans-serif" font-size="14" lengthAdjust="spacing" textLength="88.4434" x="559.2764" y="1181.5498">API Gateway</text><ellipse cx="606.498" cy="1200.8516" fill="#E2E2F0" rx="12" ry="12" style="stroke:#181818;stroke-width:0.5;"/><polygon fill="#181818" points="602.498,1188.8516,608.498,1183.8516,606.498,1188.8516,608.498,1193.8516,602.498,1188.8516" style="stroke:#181818;stroke-width:1;"/></g><g class="participant participant-head" data-entity-uid="part4" data-qualified-name="SC" id="part4-head"><text fill="#000000" font-family="sans-serif" font-size="14" lengthAdjust="spacing" textLength="121.1875" x="807.541" y="84.1279">SectionController</text><ellipse cx="871.1348" cy="55.1328" fill="#E2E2F0" rx="12" ry="12" style="stroke:#181818;stroke-width:0.5;"/><polygon fill="#181818" points="867.1348,43.1328,873.1348,38.1328,871.1348,43.1328,873.1348,48.1328,867.1348,43.1328" style="stroke:#181818;stroke-width:1;"/></g><g class="participant participant-tail" data-entity-uid="part4" data-qualified-name="SC" id="part4-tail"><text fill="#000000" font-family="sans-serif" font-size="14" lengthAdjust="spacing" textLength="121.1875" x="807.541" y="1181.5498">SectionController</text><ellipse cx="871.1348" cy="1200.8516" fill="#E2E2F0" rx="12" ry="12" style="stroke:#181818;stroke-width:0.5;"/><polygon fill="#181818" points="867.1348,1188.8516,873.1348,1183.8516,871.1348,1188.8516,873.1348,1193.8516,867.1348,1188.8516" style="stroke:#181818;stroke-width:1;"/></g><g class="participant participant-head" data-entity-uid="part5" data-qualified-name="CA" id="part5-head"><text fill="#000000" font-family="sans-serif" font-size="14" lengthAdjust="spacing" textLength="76.2275" x="1148.1704" y="84.1279">CourseApp</text><ellipse cx="1189.2842" cy="55.1328" fill="#E2E2F0" rx="12" ry="12" style="stroke:#181818;stroke-width:0.5;"/><polygon fill="#181818" points="1185.2842,43.1328,1191.2842,38.1328,1189.2842,43.1328,1191.2842,48.1328,1185.2842,43.1328" style="stroke:#181818;stroke-width:1;"/></g><g class="participant participant-tail" data-entity-uid="part5" data-qualified-name="CA" id="part5-tail"><text fill="#000000" font-family="sans-serif" font-size="14" lengthAdjust="spacing" textLength="76.2275" x="1148.1704" y="1181.5498">CourseApp</text><ellipse cx="1189.2842" cy="1200.8516" fill="#E2E2F0" rx="12" ry="12" style="stroke:#181818;stroke-width:0.5;"/><polygon fill="#181818" points="1185.2842,1188.8516,1191.2842,1183.8516,1189.2842,1188.8516,1191.2842,1193.8516,1185.2842,1188.8516" style="stroke:#181818;stroke-width:1;"/></g><g class="participant participant-head" data-entity-uid="part6" data-qualified-name="S" id="part6-head"><text fill="#000000" font-family="sans-serif" font-size="14" lengthAdjust="spacing" textLength="52.0146" x="1392.6421" y="84.1279">Section</text><ellipse cx="1421.6494" cy="55.1328" fill="#E2E2F0" rx="12" ry="12" style="stroke:#181818;stroke-width:0.5;"/><line style="stroke:#181818;stroke-width:0.5;" x1="1409.6494" x2="1433.6494" y1="69.1328" y2="69.1328"/></g><g class="participant participant-tail" data-entity-uid="part6" data-qualified-name="S" id="part6-tail"><text fill="#000000" font-family="sans-serif" font-size="14" lengthAdjust="spacing" textLength="52.0146" x="1392.6421" y="1181.5498">Section</text><ellipse cx="1421.6494" cy="1200.8516" fill="#E2E2F0" rx="12" ry="12" style="stroke:#181818;stroke-width:0.5;"/><line style="stroke:#181818;stroke-width:0.5;" x1="1409.6494" x2="1433.6494" y1="1214.8516" y2="1214.8516"/></g><g class="participant participant-head" data-entity-uid="part7" data-qualified-name="CDB" id="part7-head"><text fill="#000000" font-family="sans-serif" font-size="14" lengthAdjust="spacing" textLength="69.2617" x="1612.5625" y="84.1279">CourseDB</text><path d="M1632.1934,35.1328 C1632.1934,25.1328 1650.1934,25.1328 1650.1934,25.1328 C1650.1934,25.1328 1668.1934,25.1328 1668.1934,35.1328 L1668.1934,61.1328 C1668.1934,71.1328 1650.1934,71.1328 1650.1934,71.1328 C1650.1934,71.1328 1632.1934,71.1328 1632.1934,61.1328 L1632.1934,35.1328" fill="#E2E2F0" style="stroke:#181818;stroke-width:0.5;"/><path d="M1632.1934,35.1328 C1632.1934,45.1328 1650.1934,45.1328 1650.1934,45.1328 C1650.1934,45.1328 1668.1934,45.1328 1668.1934,35.1328" fill="none" style="stroke:#181818;stroke-width:0.5;"/></g><g class="participant participant-tail" data-entity-uid="part7" data-qualified-name="CDB" id="part7-tail"><text fill="#000000" font-family="sans-serif" font-size="14" lengthAdjust="spacing" textLength="69.2617" x="1612.5625" y="1181.5498">CourseDB</text><path d="M1632.1934,1194.8516 C1632.1934,1184.8516 1650.1934,1184.8516 1650.1934,1184.8516 C1650.1934,1184.8516 1668.1934,1184.8516 1668.1934,1194.8516 L1668.1934,1220.8516 C1668.1934,1230.8516 1650.1934,1230.8516 1650.1934,1230.8516 C1650.1934,1230.8516 1632.1934,1230.8516 1632.1934,1220.8516 L1632.1934,1194.8516" fill="#E2E2F0" style="stroke:#181818;stroke-width:0.5;"/><path d="M1632.1934,1194.8516 C1632.1934,1204.8516 1650.1934,1204.8516 1650.1934,1204.8516 C1650.1934,1204.8516 1668.1934,1204.8516 1668.1934,1194.8516" fill="none" style="stroke:#181818;stroke-width:0.5;"/></g><g><title>Instructor</title><rect fill="#FFFFFF" height="1018.9922" style="stroke:#181818;stroke-width:1;" width="10" x="61.9609" y="118.5625"/></g><g><title>WebApp</title><rect fill="#FFFFFF" height="1018.9922" style="stroke:#181818;stroke-width:1;" width="10" x="332.0098" y="118.5625"/></g><g><title>API Gateway</title><rect fill="#FFFFFF" height="270.1953" style="stroke:#181818;stroke-width:1;" width="10" x="601.498" y="263.2266"/></g><g><title>SectionController</title><rect fill="#FFFFFF" height="169.7969" style="stroke:#181818;stroke-width:1;" width="10" x="866.1348" y="334.4922"/></g><g><title>CourseApp</title><rect fill="#FFFFFF" height="686.5313" style="stroke:#181818;stroke-width:1;" width="10" x="1184.2842" y="363.625"/></g><g><title>Section</title><rect fill="#FFFFFF" height="71.2656" style="stroke:#181818;stroke-width:1;" width="10" x="1416.6494" y="891.4922"/></g><g><title>CourseDB</title><rect fill="#FFFFFF" height="53.2656" style="stroke:#181818;stroke-width:1;" width="10" x="1645.1934" y="392.7578"/></g><g><title>CourseDB</title><rect fill="#FFFFFF" height="29.1328" style="stroke:#181818;stroke-width:1;" width="10" x="1645.1934" y="833.2266"/></g><g><title>CourseDB</title><rect fill="#FFFFFF" height="29.1328" style="stroke:#181818;stroke-width:1;" width="10" x="1645.1934" y="991.8906"/></g><g class="message" data-entity-1="part1" data-entity-2="part2" id="msg1"><polygon fill="#181818" points="320.0098,114.5625,330.0098,118.5625,320.0098,122.5625,324.0098,118.5625" style="stroke:#181818;stroke-width:1;"/><line style="stroke:#181818;stroke-width:1;" x1="71.9609" x2="326.0098" y1="118.5625" y2="118.5625"/><text fill="#000000" font-family="sans-serif" font-size="13" font-weight="bold" lengthAdjust="spacing" textLength="9.0454" x="78.9609" y="113.4966">1</text><text fill="#000000" font-family="sans-serif" font-size="13" lengthAdjust="spacing" textLength="233.0034" x="92.0063" y="113.4966">Click "Add Section" in Course Editor</text></g><g class="message" data-entity-1="part2" data-entity-2="part2" id="msg2"><line style="stroke:#181818;stroke-width:1;" x1="342.0098" x2="384.0098" y1="147.6953" y2="147.6953"/><line style="stroke:#181818;stroke-width:1;" x1="384.0098" x2="384.0098" y1="147.6953" y2="160.6953"/><line style="stroke:#181818;stroke-width:1;" x1="343.0098" x2="384.0098" y1="160.6953" y2="160.6953"/><polygon fill="#181818" points="353.0098,156.6953,343.0098,160.6953,353.0098,164.6953,349.0098,160.6953" style="stroke:#181818;stroke-width:1;"/><text fill="#000000" font-family="sans-serif" font-size="13" font-weight="bold" lengthAdjust="spacing" textLength="9.0454" x="349.0098" y="142.6294">2</text><text fill="#000000" font-family="sans-serif" font-size="13" lengthAdjust="spacing" textLength="133.542" x="362.0552" y="142.6294">Display section form</text></g><g class="message" data-entity-1="part1" data-entity-2="part2" id="msg3"><polygon fill="#181818" points="320.0098,185.8281,330.0098,189.8281,320.0098,193.8281,324.0098,189.8281" style="stroke:#181818;stroke-width:1;"/><line style="stroke:#181818;stroke-width:1;" x1="71.9609" x2="326.0098" y1="189.8281" y2="189.8281"/><text fill="#000000" font-family="sans-serif" font-size="13" font-weight="bold" lengthAdjust="spacing" textLength="9.0454" x="78.9609" y="184.7622">3</text><text fill="#000000" font-family="sans-serif" font-size="13" lengthAdjust="spacing" textLength="115.394" x="92.0063" y="184.7622">Enter section title</text></g><g class="message" data-entity-1="part1" data-entity-2="part2" id="msg4"><polygon fill="#181818" points="320.0098,214.9609,330.0098,218.9609,320.0098,222.9609,324.0098,218.9609" style="stroke:#181818;stroke-width:1;"/><line style="stroke:#181818;stroke-width:1;" x1="71.9609" x2="326.0098" y1="218.9609" y2="218.9609"/><text fill="#000000" font-family="sans-serif" font-size="13" font-weight="bold" lengthAdjust="spacing" textLength="9.0454" x="78.9609" y="213.895">4</text><text fill="#000000" font-family="sans-serif" font-size="13" lengthAdjust="spacing" textLength="90.5493" x="92.0063" y="213.895">Click "Create"</text></g><g class="message" data-entity-1="part2" data-entity-2="part3" id="msg5"><polygon fill="#181818" points="589.498,259.2266,599.498,263.2266,589.498,267.2266,593.498,263.2266" style="stroke:#181818;stroke-width:1;"/><line style="stroke:#181818;stroke-width:1;" x1="342.0098" x2="595.498" y1="263.2266" y2="263.2266"/><text fill="#000000" font-family="sans-serif" font-size="13" font-weight="bold" lengthAdjust="spacing" textLength="9.0454" x="349.0098" y="250.5942">5</text><text fill="#000000" font-family="sans-serif" font-size="13" lengthAdjust="spacing" textLength="227.4429" x="362.0552" y="243.0278">POST /courses/{courseId}/sections</text><text fill="#000000" font-family="sans-serif" font-size="13" lengthAdjust="spacing" textLength="41.958" x="362.0552" y="258.1606">{title}</text></g><g class="message" data-entity-1="part3" data-entity-2="part3" id="msg6"><line style="stroke:#181818;stroke-width:1;" x1="611.498" x2="653.498" y1="292.3594" y2="292.3594"/><line style="stroke:#181818;stroke-width:1;" x1="653.498" x2="653.498" y1="292.3594" y2="305.3594"/><line style="stroke:#181818;stroke-width:1;" x1="612.498" x2="653.498" y1="305.3594" y2="305.3594"/><polygon fill="#181818" points="622.498,301.3594,612.498,305.3594,622.498,309.3594,618.498,305.3594" style="stroke:#181818;stroke-width:1;"/><text fill="#000000" font-family="sans-serif" font-size="13" font-weight="bold" lengthAdjust="spacing" textLength="9.0454" x="618.498" y="287.2935">6</text><text fill="#000000" font-family="sans-serif" font-size="13" lengthAdjust="spacing" textLength="217.5913" x="631.5435" y="287.2935">Validate JWT, extract instructorID</text></g><g class="message" data-entity-1="part3" data-entity-2="part4" id="msg7"><polygon fill="#181818" points="854.1348,330.4922,864.1348,334.4922,854.1348,338.4922,858.1348,334.4922" style="stroke:#181818;stroke-width:1;"/><line style="stroke:#181818;stroke-width:1;" x1="611.498" x2="860.1348" y1="334.4922" y2="334.4922"/><text fill="#000000" font-family="sans-serif" font-size="13" font-weight="bold" lengthAdjust="spacing" textLength="9.0454" x="618.498" y="329.4263">7</text><text fill="#000000" font-family="sans-serif" font-size="13" lengthAdjust="spacing" textLength="106.8057" x="631.5435" y="329.4263">Forward request</text></g><g class="message" data-entity-1="part4" data-entity-2="part5" id="msg8"><polygon fill="#181818" points="1172.2842,359.625,1182.2842,363.625,1172.2842,367.625,1176.2842,363.625" style="stroke:#181818;stroke-width:1;"/><line style="stroke:#181818;stroke-width:1;" x1="876.1348" x2="1178.2842" y1="363.625" y2="363.625"/><text fill="#000000" font-family="sans-serif" font-size="13" font-weight="bold" lengthAdjust="spacing" textLength="9.0454" x="883.1348" y="358.5591">8</text><text fill="#000000" font-family="sans-serif" font-size="13" lengthAdjust="spacing" textLength="276.104" x="896.1802" y="358.5591">CreateSection(courseId, title, instructorID)</text></g><g class="message" data-entity-1="part5" data-entity-2="part7" id="msg9"><polygon fill="#181818" points="1633.1934,388.7578,1643.1934,392.7578,1633.1934,396.7578,1637.1934,392.7578" style="stroke:#181818;stroke-width:1;"/><line style="stroke:#181818;stroke-width:1;" x1="1194.2842" x2="1639.1934" y1="392.7578" y2="392.7578"/><text fill="#000000" font-family="sans-serif" font-size="13" font-weight="bold" lengthAdjust="spacing" textLength="9.0454" x="1201.2842" y="387.6919">9</text><text fill="#000000" font-family="sans-serif" font-size="13" lengthAdjust="spacing" textLength="113.2231" x="1214.3296" y="387.6919">Find course by ID</text></g><path d="M10,407.7578 L74.4429,407.7578 L74.4429,414.8906 L64.4429,424.8906 L10,424.8906 L10,407.7578" fill="#EEEEEE" style="stroke:#000000;stroke-width:1.5;"/><rect fill="none" height="744.7969" style="stroke:#000000;stroke-width:1.5;" width="1697.8242" x="10" y="407.7578"/><text fill="#000000" font-family="sans-serif" font-size="13" font-weight="bold" lengthAdjust="spacing" textLength="19.4429" x="25" y="420.8247">alt</text><text fill="#000000" font-family="sans-serif" font-size="11" font-weight="bold" lengthAdjust="spacing" textLength="117.1328" x="89.4429" y="419.9683">[Course not found]</text><g class="message" data-entity-1="part7" data-entity-2="part5" id="msg10"><polygon fill="#181818" points="1205.2842,442.0234,1195.2842,446.0234,1205.2842,450.0234,1201.2842,446.0234" style="stroke:#181818;stroke-width:1;"/><line style="stroke:#181818;stroke-width:1;stroke-dasharray:2,2;" x1="1199.2842" x2="1649.1934" y1="446.0234" y2="446.0234"/><text fill="#000000" font-family="sans-serif" font-size="13" font-weight="bold" lengthAdjust="spacing" textLength="18.0908" x="1211.2842" y="440.9575">10</text><text fill="#000000" font-family="sans-serif" font-size="13" lengthAdjust="spacing" textLength="64.1685" x="1233.375" y="440.9575">Not found</text></g><g class="message" data-entity-1="part5" data-entity-2="part4" id="msg11"><polygon fill="#181818" points="887.1348,471.1563,877.1348,475.1563,887.1348,479.1563,883.1348,475.1563" style="stroke:#181818;stroke-width:1;"/><line style="stroke:#181818;stroke-width:1;stroke-dasharray:2,2;" x1="881.1348" x2="1183.2842" y1="475.1563" y2="475.1563"/><text fill="#000000" font-family="sans-serif" font-size="13" font-weight="bold" lengthAdjust="spacing" textLength="18.0908" x="893.1348" y="470.0903">11</text><text fill="#000000" font-family="sans-serif" font-size="13" lengthAdjust="spacing" textLength="96.0146" x="915.2256" y="470.0903">404 Not Found</text></g><g class="message" data-entity-1="part4" data-entity-2="part3" id="msg12"><polygon fill="#181818" points="622.498,500.2891,612.498,504.2891,622.498,508.2891,618.498,504.2891" style="stroke:#181818;stroke-width:1;"/><line style="stroke:#181818;stroke-width:1;stroke-dasharray:2,2;" x1="616.498" x2="870.1348" y1="504.2891" y2="504.2891"/><text fill="#000000" font-family="sans-serif" font-size="13" font-weight="bold" lengthAdjust="spacing" textLength="18.0908" x="628.498" y="499.2231">12</text><text fill="#000000" font-family="sans-serif" font-size="13" lengthAdjust="spacing" textLength="95.6655" x="650.5889" y="499.2231">Error response</text></g><g class="message" data-entity-1="part3" data-entity-2="part2" id="msg13"><polygon fill="#181818" points="353.0098,529.4219,343.0098,533.4219,353.0098,537.4219,349.0098,533.4219" style="stroke:#181818;stroke-width:1;"/><line style="stroke:#181818;stroke-width:1;stroke-dasharray:2,2;" x1="347.0098" x2="605.498" y1="533.4219" y2="533.4219"/><text fill="#000000" font-family="sans-serif" font-size="13" font-weight="bold" lengthAdjust="spacing" textLength="18.0908" x="359.0098" y="528.356">13</text><text fill="#000000" font-family="sans-serif" font-size="13" lengthAdjust="spacing" textLength="32.2017" x="381.1006" y="528.356">Error</text></g><g class="message" data-entity-1="part2" data-entity-2="part1" id="msg14"><polygon fill="#181818" points="82.9609,558.5547,72.9609,562.5547,82.9609,566.5547,78.9609,562.5547" style="stroke:#181818;stroke-width:1;"/><line style="stroke:#181818;stroke-width:1;" x1="76.9609" x2="331.0098" y1="562.5547" y2="562.5547"/><text fill="#000000" font-family="sans-serif" font-size="13" font-weight="bold" lengthAdjust="spacing" textLength="18.0908" x="88.9609" y="557.4888">14</text><text fill="#000000" font-family="sans-serif" font-size="13" lengthAdjust="spacing" textLength="84.0366" x="111.0518" y="557.4888">Display error</text></g><line style="stroke:#000000;stroke-width:1;stroke-dasharray:2,2;" x1="10" x2="1707.8242" y1="571.5547" y2="571.5547"/><text fill="#000000" font-family="sans-serif" font-size="11" font-weight="bold" lengthAdjust="spacing" textLength="92.6567" x="15" y="581.7651">[Course found]</text><g class="message" data-entity-1="part7" data-entity-2="part5" id="msg15"><polygon fill="#181818" points="1205.2842,602.4922,1195.2842,606.4922,1205.2842,610.4922,1201.2842,606.4922" style="stroke:#181818;stroke-width:1;"/><line style="stroke:#181818;stroke-width:1;stroke-dasharray:2,2;" x1="1199.2842" x2="1649.1934" y1="606.4922" y2="606.4922"/><text fill="#000000" font-family="sans-serif" font-size="13" font-weight="bold" lengthAdjust="spacing" textLength="18.0908" x="1211.2842" y="601.4263">15</text><text fill="#000000" font-family="sans-serif" font-size="13" lengthAdjust="spacing" textLength="78.7998" x="1233.375" y="601.4263">Course data</text></g><g class="message" data-entity-1="part5" data-entity-2="part5" id="msg16"><line style="stroke:#181818;stroke-width:1;" x1="1194.2842" x2="1236.2842" y1="635.625" y2="635.625"/><line style="stroke:#181818;stroke-width:1;" x1="1236.2842" x2="1236.2842" y1="635.625" y2="648.625"/><line style="stroke:#181818;stroke-width:1;" x1="1195.2842" x2="1236.2842" y1="648.625" y2="648.625"/><polygon fill="#181818" points="1205.2842,644.625,1195.2842,648.625,1205.2842,652.625,1201.2842,648.625" style="stroke:#181818;stroke-width:1;"/><text fill="#000000" font-family="sans-serif" font-size="13" font-weight="bold" lengthAdjust="spacing" textLength="18.0908" x="1201.2842" y="630.5591">16</text><text fill="#000000" font-family="sans-serif" font-size="13" lengthAdjust="spacing" textLength="176.2744" x="1223.375" y="630.5591">Verify instructor ownership</text></g><path d="M20,663.625 L84.4429,663.625 L84.4429,670.7578 L74.4429,680.7578 L20,680.7578 L20,663.625" fill="#EEEEEE" style="stroke:#000000;stroke-width:1.5;"/><rect fill="none" height="481.9297" style="stroke:#000000;stroke-width:1.5;" width="1677.8242" x="20" y="663.625"/><text fill="#000000" font-family="sans-serif" font-size="13" font-weight="bold" lengthAdjust="spacing" textLength="19.4429" x="35" y="676.6919">alt</text><text fill="#000000" font-family="sans-serif" font-size="11" font-weight="bold" lengthAdjust="spacing" textLength="119.5122" x="99.4429" y="675.8354">[Not course owner]</text><g class="message" data-entity-1="part5" data-entity-2="part4" id="msg17"><polygon fill="#181818" points="882.1348,697.8906,872.1348,701.8906,882.1348,705.8906,878.1348,701.8906" style="stroke:#181818;stroke-width:1;"/><line style="stroke:#181818;stroke-width:1;stroke-dasharray:2,2;" x1="876.1348" x2="1183.2842" y1="701.8906" y2="701.8906"/><text fill="#000000" font-family="sans-serif" font-size="13" font-weight="bold" lengthAdjust="spacing" textLength="18.0908" x="888.1348" y="696.8247">17</text><text fill="#000000" font-family="sans-serif" font-size="13" lengthAdjust="spacing" textLength="94.3262" x="910.2256" y="696.8247">403 Forbidden</text></g><g class="message" data-entity-1="part4" data-entity-2="part3" id="msg18"><polygon fill="#181818" points="617.498,727.0234,607.498,731.0234,617.498,735.0234,613.498,731.0234" style="stroke:#181818;stroke-width:1;"/><line style="stroke:#181818;stroke-width:1;stroke-dasharray:2,2;" x1="611.498" x2="870.1348" y1="731.0234" y2="731.0234"/><text fill="#000000" font-family="sans-serif" font-size="13" font-weight="bold" lengthAdjust="spacing" textLength="18.0908" x="623.498" y="725.9575">18</text><text fill="#000000" font-family="sans-serif" font-size="13" lengthAdjust="spacing" textLength="95.6655" x="645.5889" y="725.9575">Error response</text></g><g class="message" data-entity-1="part3" data-entity-2="part2" id="msg19"><polygon fill="#181818" points="353.0098,756.1563,343.0098,760.1563,353.0098,764.1563,349.0098,760.1563" style="stroke:#181818;stroke-width:1;"/><line style="stroke:#181818;stroke-width:1;stroke-dasharray:2,2;" x1="347.0098" x2="605.498" y1="760.1563" y2="760.1563"/><text fill="#000000" font-family="sans-serif" font-size="13" font-weight="bold" lengthAdjust="spacing" textLength="18.0908" x="359.0098" y="755.0903">19</text><text fill="#000000" font-family="sans-serif" font-size="13" lengthAdjust="spacing" textLength="32.2017" x="381.1006" y="755.0903">Error</text></g><g class="message" data-entity-1="part2" data-entity-2="part1" id="msg20"><polygon fill="#181818" points="82.9609,785.2891,72.9609,789.2891,82.9609,793.2891,78.9609,789.2891" style="stroke:#181818;stroke-width:1;"/><line style="stroke:#181818;stroke-width:1;" x1="76.9609" x2="331.0098" y1="789.2891" y2="789.2891"/><text fill="#000000" font-family="sans-serif" font-size="13" font-weight="bold" lengthAdjust="spacing" textLength="18.0908" x="88.9609" y="784.2231">20</text><text fill="#000000" font-family="sans-serif" font-size="13" lengthAdjust="spacing" textLength="157.2251" x="111.0518" y="784.2231">Display "Access denied"</text></g><line style="stroke:#000000;stroke-width:1;stroke-dasharray:2,2;" x1="20" x2="1697.8242" y1="798.2891" y2="798.2891"/><text fill="#000000" font-family="sans-serif" font-size="11" font-weight="bold" lengthAdjust="spacing" textLength="62.96" x="25" y="808.4995">[Is owner]</text><g class="message" data-entity-1="part5" data-entity-2="part7" id="msg21"><polygon fill="#181818" points="1633.1934,829.2266,1643.1934,833.2266,1633.1934,837.2266,1637.1934,833.2266" style="stroke:#181818;stroke-width:1;"/><line style="stroke:#181818;stroke-width:1;" x1="1194.2842" x2="1639.1934" y1="833.2266" y2="833.2266"/><text fill="#000000" font-family="sans-serif" font-size="13" font-weight="bold" lengthAdjust="spacing" textLength="18.0908" x="1201.2842" y="828.1606">21</text><text fill="#000000" font-family="sans-serif" font-size="13" lengthAdjust="spacing" textLength="145.6025" x="1223.375" y="828.1606">Get max section order</text></g><g class="message" data-entity-1="part7" data-entity-2="part5" id="msg22"><polygon fill="#181818" points="1205.2842,858.3594,1195.2842,862.3594,1205.2842,866.3594,1201.2842,862.3594" style="stroke:#181818;stroke-width:1;"/><line style="stroke:#181818;stroke-width:1;stroke-dasharray:2,2;" x1="1199.2842" x2="1649.1934" y1="862.3594" y2="862.3594"/><text fill="#000000" font-family="sans-serif" font-size="13" font-weight="bold" lengthAdjust="spacing" textLength="18.0908" x="1211.2842" y="857.2935">22</text><text fill="#000000" font-family="sans-serif" font-size="13" lengthAdjust="spacing" textLength="120.8213" x="1233.375" y="857.2935">Current max order</text></g><g class="message" data-entity-1="part5" data-entity-2="part6" id="msg23"><polygon fill="#181818" points="1404.6494,887.4922,1414.6494,891.4922,1404.6494,895.4922,1408.6494,891.4922" style="stroke:#181818;stroke-width:1;"/><line style="stroke:#181818;stroke-width:1;" x1="1194.2842" x2="1410.6494" y1="891.4922" y2="891.4922"/><text fill="#000000" font-family="sans-serif" font-size="13" font-weight="bold" lengthAdjust="spacing" textLength="18.0908" x="1201.2842" y="886.4263">23</text><text fill="#000000" font-family="sans-serif" font-size="13" lengthAdjust="spacing" textLength="126.915" x="1223.375" y="886.4263">Create new Section</text></g><g class="message" data-entity-1="part6" data-entity-2="part6" id="msg24"><line style="stroke:#181818;stroke-width:1;" x1="1426.6494" x2="1468.6494" y1="920.625" y2="920.625"/><line style="stroke:#181818;stroke-width:1;" x1="1468.6494" x2="1468.6494" y1="920.625" y2="933.625"/><line style="stroke:#181818;stroke-width:1;" x1="1427.6494" x2="1468.6494" y1="933.625" y2="933.625"/><polygon fill="#181818" points="1437.6494,929.625,1427.6494,933.625,1437.6494,937.625,1433.6494,933.625" style="stroke:#181818;stroke-width:1;"/><text fill="#000000" font-family="sans-serif" font-size="13" font-weight="bold" lengthAdjust="spacing" textLength="18.0908" x="1433.6494" y="915.5591">24</text><text fill="#000000" font-family="sans-serif" font-size="13" lengthAdjust="spacing" textLength="172.4531" x="1455.7402" y="915.5591">Set order = maxOrder + 1</text></g><g class="message" data-entity-1="part6" data-entity-2="part5" id="msg25"><polygon fill="#181818" points="1205.2842,958.7578,1195.2842,962.7578,1205.2842,966.7578,1201.2842,962.7578" style="stroke:#181818;stroke-width:1;"/><line style="stroke:#181818;stroke-width:1;stroke-dasharray:2,2;" x1="1199.2842" x2="1420.6494" y1="962.7578" y2="962.7578"/><text fill="#000000" font-family="sans-serif" font-size="13" font-weight="bold" lengthAdjust="spacing" textLength="18.0908" x="1211.2842" y="957.6919">25</text><text fill="#000000" font-family="sans-serif" font-size="13" lengthAdjust="spacing" textLength="90.1685" x="1233.375" y="957.6919">Section entity</text></g><g class="message" data-entity-1="part5" data-entity-2="part7" id="msg26"><polygon fill="#181818" points="1633.1934,987.8906,1643.1934,991.8906,1633.1934,995.8906,1637.1934,991.8906" style="stroke:#181818;stroke-width:1;"/><line style="stroke:#181818;stroke-width:1;" x1="1194.2842" x2="1639.1934" y1="991.8906" y2="991.8906"/><text fill="#000000" font-family="sans-serif" font-size="13" font-weight="bold" lengthAdjust="spacing" textLength="18.0908" x="1201.2842" y="986.8247">26</text><text fill="#000000" font-family="sans-serif" font-size="13" lengthAdjust="spacing" textLength="82.8623" x="1223.375" y="986.8247">Save section</text></g><g class="message" data-entity-1="part7" data-entity-2="part5" id="msg27"><polygon fill="#181818" points="1205.2842,1017.0234,1195.2842,1021.0234,1205.2842,1025.0234,1201.2842,1021.0234" style="stroke:#181818;stroke-width:1;"/><line style="stroke:#181818;stroke-width:1;stroke-dasharray:2,2;" x1="1199.2842" x2="1649.1934" y1="1021.0234" y2="1021.0234"/><text fill="#000000" font-family="sans-serif" font-size="13" font-weight="bold" lengthAdjust="spacing" textLength="18.0908" x="1211.2842" y="1015.9575">27</text><text fill="#000000" font-family="sans-serif" font-size="13" lengthAdjust="spacing" textLength="91.1143" x="1233.375" y="1015.9575">Section saved</text></g><g class="message" data-entity-1="part5" data-entity-2="part4" id="msg28"><polygon fill="#181818" points="882.1348,1046.1563,872.1348,1050.1563,882.1348,1054.1563,878.1348,1050.1563" style="stroke:#181818;stroke-width:1;"/><line style="stroke:#181818;stroke-width:1;stroke-dasharray:2,2;" x1="876.1348" x2="1188.2842" y1="1050.1563" y2="1050.1563"/><text fill="#000000" font-family="sans-serif" font-size="13" font-weight="bold" lengthAdjust="spacing" textLength="18.0908" x="888.1348" y="1045.0903">28</text><text fill="#000000" font-family="sans-serif" font-size="13" lengthAdjust="spacing" textLength="76.4829" x="910.2256" y="1045.0903">SectionDTO</text></g><g class="message" data-entity-1="part4" data-entity-2="part3" id="msg29"><polygon fill="#181818" points="617.498,1075.2891,607.498,1079.2891,617.498,1083.2891,613.498,1079.2891" style="stroke:#181818;stroke-width:1;"/><line style="stroke:#181818;stroke-width:1;stroke-dasharray:2,2;" x1="611.498" x2="870.1348" y1="1079.2891" y2="1079.2891"/><text fill="#000000" font-family="sans-serif" font-size="13" font-weight="bold" lengthAdjust="spacing" textLength="18.0908" x="623.498" y="1074.2231">29</text><text fill="#000000" font-family="sans-serif" font-size="13" lengthAdjust="spacing" textLength="80.6787" x="645.5889" y="1074.2231">201 Created</text></g><g class="message" data-entity-1="part3" data-entity-2="part2" id="msg30"><polygon fill="#181818" points="353.0098,1104.4219,343.0098,1108.4219,353.0098,1112.4219,349.0098,1108.4219" style="stroke:#181818;stroke-width:1;"/><line style="stroke:#181818;stroke-width:1;stroke-dasharray:2,2;" x1="347.0098" x2="605.498" y1="1108.4219" y2="1108.4219"/><text fill="#000000" font-family="sans-serif" font-size="13" font-weight="bold" lengthAdjust="spacing" textLength="18.0908" x="359.0098" y="1103.356">30</text><text fill="#000000" font-family="sans-serif" font-size="13" lengthAdjust="spacing" textLength="112.7217" x="381.1006" y="1103.356">New section data</text></g><g class="message" data-entity-1="part2" data-entity-2="part1" id="msg31"><polygon fill="#181818" points="77.9609,1133.5547,67.9609,1137.5547,77.9609,1141.5547,73.9609,1137.5547" style="stroke:#181818;stroke-width:1;"/><line style="stroke:#181818;stroke-width:1;" x1="71.9609" x2="336.0098" y1="1137.5547" y2="1137.5547"/><text fill="#000000" font-family="sans-serif" font-size="13" font-weight="bold" lengthAdjust="spacing" textLength="18.0908" x="83.9609" y="1132.4888">31</text><text fill="#000000" font-family="sans-serif" font-size="13" lengthAdjust="spacing" textLength="178.2295" x="106.0518" y="1132.4888">Update UI with new section</text></g><?plantuml-src XLJ1Jjmm4BtdAqRRIwk2W9OJQYjbix1ALG5IWAXIBzvu08kilRKTTbU8V-_OiKaseN1px3VFxxsPc3LMoMQvG9qava785TDi2LErkMIS2ta7HuT9mYghDEJIMDtu9JEG9mlLICxq5afSfAkLsopJXBOtC4alSvWpYsksdS27N-Bktaxh1XE0IachLJs0KEsyJ51oeFB0aQb66uG2zQEeCDBynhfMwnvHWPKLIcRjPurUNP7r42rHa9YbT8BI2hkDfRw0TZcpRC7eohPWDlNusRJJbSF-3p9v0bajgWVom7aacO2GeH1EkQ2KN6pYaHnILYzBIgXC8yjCc5NDjc22ZbkbbxrBJgKbD_6G5DSuKf1f9Df94bZdvGbSNXHNS51vAURWgLta_FaWC9a_yicJFNUoAFnv6GbkM2sus_rPNkq1Rgmc7DcBxSzd0Lna9t2cz9ff3Xh_DcXiHqajI8hCmJ8dr-iCMNsCclPQLtixv9yw3cfMadbZr0QwIr0ZsbfOR85qT4XgKy9g6riWbQKuQK2fhyJmRN-_fJZlxNFSAGUIt099x_7XiSUU1ImPTaVEyQdMz0jeD2lA4dTv_DoLxNqkIe_TXL3K7aAcycu4q0EnVfc-LzM78pUeO_qjDkHzWrhSRdkvWbfBrEPUh1pG9UNiXJ3z6MqF8lZgkhiGdAFqXs-5C8xXrI36KRmInYIjAZI6e58WdxWVrWMJcvxGtbZCqSAIRLx-5ALv00twEmYpqPeU0b_QbOn3ZNSLSOf1uZh-zhlN56s60LsGBayCtzqb5txv6OxwIZoibTq-IgCeaw7TWZrYzFg-oyXkg8h_rs6lxQ5WTdKnGgV3AVXoU1GouU-Fm3cb5biK9lZDQRXU-KVeEeUriFS-zBxhNcMP3dTo_yXpzt8d_m00?></g></svg>