<?plantuml 1.2026.1?><svg xmlns="http://www.w3.org/2000/svg" xmlns:xlink="http://www.w3.org/1999/xlink" contentStyleType="text/css" data-diagram-type="SEQUENCE" height="1314px" preserveAspectRatio="none" style="width:1880px;height:1314px;background:#FFFFFF;" version="1.1" viewBox="0 0 1880 1314" width="1880px" zoomAndPan="magnify"><defs/><g><rect fill="#ADD8E6" height="1302.25" style="stroke:#181818;stroke-width:0.5;" width="102.4434" x="661.8384" y="6"/><text fill="#000000" font-family="sans-serif" font-size="13" font-weight="bold" lengthAdjust="spacing" textLength="92.6821" x="666.719" y="18.0669">API Gateway</text><rect fill="#FFFFE0" height="1302.25" style="stroke:#181818;stroke-width:0.5;" width="990.3032" x="867.3213" y="6"/><text fill="#000000" font-family="sans-serif" font-size="13" font-weight="bold" lengthAdjust="spacing" textLength="109.2622" x="1307.8418" y="18.0669">Course Service</text><g><title>Learner</title><rect fill="#FFFFFF" height="486.125" style="stroke:#181818;stroke-width:1;" width="10" x="54.9951" y="118.5625"/></g><g><title>WebApp</title><rect fill="#FFFFFF" height="486.125" style="stroke:#181818;stroke-width:1;" width="10" x="367.1353" y="118.5625"/></g><g><title>API Gateway</title><rect fill="#FFFFFF" height="270.1953" style="stroke:#181818;stroke-width:1;" width="10" x="708.0601" y="305.3594"/></g><g><title>CommentController</title><rect fill="#FFFFFF" height="169.7969" style="stroke:#181818;stroke-width:1;" width="10" x="938.2036" y="376.625"/></g><g><title>CourseApp</title><rect fill="#FFFFFF" height="703.7969" style="stroke:#181818;stroke-width:1;" width="10" x="1362.8286" y="405.7578"/></g><g><title>LessonComment</title><rect fill="#FFFFFF" height="101.5313" style="stroke:#181818;stroke-width:1;" width="10" x="1560.3281" y="920.625"/></g><g><title>CourseDB</title><rect fill="#FFFFFF" height="53.2656" style="stroke:#181818;stroke-width:1;" width="10" x="1810.9937" y="434.8906"/></g><g><title>CourseDB</title><rect fill="#FFFFFF" height="53.2656" style="stroke:#181818;stroke-width:1;" width="10" x="1810.9937" y="677.7578"/></g><g><title>CourseDB</title><rect fill="#FFFFFF" height="29.1328" style="stroke:#181818;stroke-width:1;" width="10" x="1810.9937" y="1051.2891"/></g><rect fill="none" height="762.0625" style="stroke:#000000;stroke-width:1.5;" width="1863.6245" x="10" y="449.8906"/><rect fill="none" height="512.1953" style="stroke:#000000;stroke-width:1.5;" width="1843.6245" x="20" y="692.7578"/><g class="participant-lifeline" data-entity-uid="part1" data-qualified-name="L" id="part1-lifeline"><g><title>Learner</title><rect fill="#000000" fill-opacity="0.00000" height="1141.5234" width="8" x="55.9951" y="87.4297"/><line style="stroke:#181818;stroke-width:0.5;stroke-dasharray:5,5;" x1="59" x2="59" y1="87.4297" y2="1228.9531"/></g></g><g class="participant-lifeline" data-entity-uid="part2" data-qualified-name="WA" id="part2-lifeline"><g><title>WebApp</title><rect fill="#000000" fill-opacity="0.00000" height="1141.5234" width="8" x="368.1353" y="87.4297"/><line style="stroke:#181818;stroke-width:0.5;stroke-dasharray:5,5;" x1="371.7886" x2="371.7886" y1="87.4297" y2="1228.9531"/></g></g><g class="participant-lifeline" data-entity-uid="part3" data-qualified-name="GW" id="part3-lifeline"><g><title>API Gateway</title><rect fill="#000000" fill-opacity="0.00000" height="1141.5234" width="8" x="709.0601" y="87.4297"/><line style="stroke:#181818;stroke-width:0.5;stroke-dasharray:5,5;" x1="712.8384" x2="712.8384" y1="87.4297" y2="1228.9531"/></g></g><g class="participant-lifeline" data-entity-uid="part4" data-qualified-name="CC" id="part4-lifeline"><g><title>CommentController</title><rect fill="#000000" fill-opacity="0.00000" height="1141.5234" width="8" x="939.2036" y="87.4297"/><line style="stroke:#181818;stroke-width:0.5;stroke-dasharray:5,5;" x1="942.3213" x2="942.3213" y1="87.4297" y2="1228.9531"/></g></g><g class="participant-lifeline" data-entity-uid="part5" data-qualified-name="CA" id="part5-lifeline"><g><title>CourseApp</title><rect fill="#000000" fill-opacity="0.00000" height="1141.5234" width="8" x="1363.8286" y="87.4297"/><line style="stroke:#181818;stroke-width:0.5;stroke-dasharray:5,5;" x1="1367.7148" x2="1367.7148" y1="87.4297" y2="1228.9531"/></g></g><g class="participant-lifeline" data-entity-uid="part6" data-qualified-name="LC" id="part6-lifeline"><g><title>LessonComment</title><rect fill="#000000" fill-opacity="0.00000" height="1141.5234" width="8" x="1561.3281" y="87.4297"/><line style="stroke:#181818;stroke-width:0.5;stroke-dasharray:5,5;" x1="1564.8125" x2="1564.8125" y1="87.4297" y2="1228.9531"/></g></g><g class="participant-lifeline" data-entity-uid="part7" data-qualified-name="CDB" id="part7-lifeline"><g><title>CourseDB</title><rect fill="#000000" fill-opacity="0.00000" height="1141.5234" width="8" x="1811.9937" y="87.4297"/><line style="stroke:#181818;stroke-width:0.5;stroke-dasharray:5,5;" x1="1815.3628" x2="1815.3628" y1="87.4297" y2="1228.9531"/></g></g><g class="participant participant-head" data-entity-uid="part1" data-qualified-name="L" id="part1-head"><text fill="#000000" font-family="sans-serif" font-size="14" lengthAdjust="spacing" textLength="53.9902" x="30" y="84.1279">Learner</text><ellipse cx="59.9951" cy="19.6328" fill="#E2E2F0" rx="8" ry="8" style="stroke:#181818;stroke-width:0.5;"/><path d="M59.9951,27.6328 L59.9951,54.6328 M46.9951,35.6328 L72.9951,35.6328 M59.9951,54.6328 L46.9951,69.6328 M59.9951,54.6328 L72.9951,69.6328" fill="none" style="stroke:#181818;stroke-width:0.5;"/></g><g class="participant participant-tail" data-entity-uid="part1" data-qualified-name="L" id="part1-tail"><text fill="#000000" font-family="sans-serif" font-size="14" lengthAdjust="spacing" textLength="53.9902" x="30" y="1240.9482">Learner</text><ellipse cx="59.9951" cy="1252.75" fill="#E2E2F0" rx="8" ry="8" style="stroke:#181818;stroke-width:0.5;"/><path d="M59.9951,1260.75 L59.9951,1287.75 M46.9951,1268.75 L72.9951,1268.75 M59.9951,1287.75 L46.9951,1302.75 M59.9951,1287.75 L72.9951,1302.75" fill="none" style="stroke:#181818;stroke-width:0.5;"/></g><g class="participant participant-head" data-entity-uid="part2" data-qualified-name="WA" id="part2-head"><text fill="#000000" font-family="sans-serif" font-size="14" lengthAdjust="spacing" textLength="58.6934" x="339.7886" y="84.1279">WebApp</text><path d="M351.6353,43.1328 L351.6353,67.1328 M351.6353,55.1328 L368.6353,55.1328" fill="none" style="stroke:#181818;stroke-width:0.5;"/><ellipse cx="380.6353" cy="55.1328" fill="#E2E2F0" rx="12" ry="12" style="stroke:#181818;stroke-width:0.5;"/></g><g class="participant participant-tail" data-entity-uid="part2" data-qualified-name="WA" id="part2-tail"><text fill="#000000" font-family="sans-serif" font-size="14" lengthAdjust="spacing" textLength="58.6934" x="339.7886" y="1240.9482">WebApp</text><path d="M351.6353,1248.25 L351.6353,1272.25 M351.6353,1260.25 L368.6353,1260.25" fill="none" style="stroke:#181818;stroke-width:0.5;"/><ellipse cx="380.6353" cy="1260.25" fill="#E2E2F0" rx="12" ry="12" style="stroke:#181818;stroke-width:0.5;"/></g><g class="participant participant-head" data-entity-uid="part3" data-qualified-name="GW" id="part3-head"><text fill="#000000" font-family="sans-serif" font-size="14" lengthAdjust="spacing" textLength="88.4434" x="665.8384" y="84.1279">API Gateway</text><ellipse cx="713.0601" cy="55.1328" fill="#E2E2F0" rx="12" ry="12" style="stroke:#181818;stroke-width:0.5;"/><polygon fill="#181818" points="709.0601,43.1328,715.0601,38.1328,713.0601,43.1328,715.0601,48.1328,709.0601,43.1328" style="stroke:#181818;stroke-width:1;"/></g><g class="participant participant-tail" data-entity-uid="part3" data-qualified-name="GW" id="part3-tail"><text fill="#000000" font-family="sans-serif" font-size="14" lengthAdjust="spacing" textLength="88.4434" x="665.8384" y="1240.9482">API Gateway</text><ellipse cx="713.0601" cy="1260.25" fill="#E2E2F0" rx="12" ry="12" style="stroke:#181818;stroke-width:0.5;"/><polygon fill="#181818" points="709.0601,1248.25,715.0601,1243.25,713.0601,1248.25,715.0601,1253.25,709.0601,1248.25" style="stroke:#181818;stroke-width:1;"/></g><g class="participant participant-head" data-entity-uid="part4" data-qualified-name="CC" id="part4-head"><text fill="#000000" font-family="sans-serif" font-size="14" lengthAdjust="spacing" textLength="137.7646" x="871.3213" y="84.1279">CommentController</text><ellipse cx="943.2036" cy="55.1328" fill="#E2E2F0" rx="12" ry="12" style="stroke:#181818;stroke-width:0.5;"/><polygon fill="#181818" points="939.2036,43.1328,945.2036,38.1328,943.2036,43.1328,945.2036,48.1328,939.2036,43.1328" style="stroke:#181818;stroke-width:1;"/></g><g class="participant participant-tail" data-entity-uid="part4" data-qualified-name="CC" id="part4-tail"><text fill="#000000" font-family="sans-serif" font-size="14" lengthAdjust="spacing" textLength="137.7646" x="871.3213" y="1240.9482">CommentController</text><ellipse cx="943.2036" cy="1260.25" fill="#E2E2F0" rx="12" ry="12" style="stroke:#181818;stroke-width:0.5;"/><polygon fill="#181818" points="939.2036,1248.25,945.2036,1243.25,943.2036,1248.25,945.2036,1253.25,939.2036,1248.25" style="stroke:#181818;stroke-width:1;"/></g><g class="participant participant-head" data-entity-uid="part5" data-qualified-name="CA" id="part5-head"><text fill="#000000" font-family="sans-serif" font-size="14" lengthAdjust="spacing" textLength="76.2275" x="1326.7148" y="84.1279">CourseApp</text><ellipse cx="1367.8286" cy="55.1328" fill="#E2E2F0" rx="12" ry="12" style="stroke:#181818;stroke-width:0.5;"/><polygon fill="#181818" points="1363.8286,43.1328,1369.8286,38.1328,1367.8286,43.1328,1369.8286,48.1328,1363.8286,43.1328" style="stroke:#181818;stroke-width:1;"/></g><g class="participant participant-tail" data-entity-uid="part5" data-qualified-name="CA" id="part5-tail"><text fill="#000000" font-family="sans-serif" font-size="14" lengthAdjust="spacing" textLength="76.2275" x="1326.7148" y="1240.9482">CourseApp</text><ellipse cx="1367.8286" cy="1260.25" fill="#E2E2F0" rx="12" ry="12" style="stroke:#181818;stroke-width:0.5;"/><polygon fill="#181818" points="1363.8286,1248.25,1369.8286,1243.25,1367.8286,1248.25,1369.8286,1253.25,1363.8286,1248.25" style="stroke:#181818;stroke-width:1;"/></g><g class="participant participant-head" data-entity-uid="part6" data-qualified-name="LC" id="part6-head"><text fill="#000000" font-family="sans-serif" font-size="14" lengthAdjust="spacing" textLength="117.0313" x="1503.8125" y="84.1279">LessonComment</text><ellipse cx="1565.3281" cy="55.1328" fill="#E2E2F0" rx="12" ry="12" style="stroke:#181818;stroke-width:0.5;"/><line style="stroke:#181818;stroke-width:0.5;" x1="1553.3281" x2="1577.3281" y1="69.1328" y2="69.1328"/></g><g class="participant participant-tail" data-entity-uid="part6" data-qualified-name="LC" id="part6-tail"><text fill="#000000" font-family="sans-serif" font-size="14" lengthAdjust="spacing" textLength="117.0313" x="1503.8125" y="1240.9482">LessonComment</text><ellipse cx="1565.3281" cy="1260.25" fill="#E2E2F0" rx="12" ry="12" style="stroke:#181818;stroke-width:0.5;"/><line style="stroke:#181818;stroke-width:0.5;" x1="1553.3281" x2="1577.3281" y1="1274.25" y2="1274.25"/></g><g class="participant participant-head" data-entity-uid="part7" data-qualified-name="CDB" id="part7-head"><text fill="#000000" font-family="sans-serif" font-size="14" lengthAdjust="spacing" textLength="69.2617" x="1778.3628" y="84.1279">CourseDB</text><path d="M1797.9937,35.1328 C1797.9937,25.1328 1815.9937,25.1328 1815.9937,25.1328 C1815.9937,25.1328 1833.9937,25.1328 1833.9937,35.1328 L1833.9937,61.1328 C1833.9937,71.1328 1815.9937,71.1328 1815.9937,71.1328 C1815.9937,71.1328 1797.9937,71.1328 1797.9937,61.1328 L1797.9937,35.1328" fill="#E2E2F0" style="stroke:#181818;stroke-width:0.5;"/><path d="M1797.9937,35.1328 C1797.9937,45.1328 1815.9937,45.1328 1815.9937,45.1328 C1815.9937,45.1328 1833.9937,45.1328 1833.9937,35.1328" fill="none" style="stroke:#181818;stroke-width:0.5;"/></g><g class="participant participant-tail" data-entity-uid="part7" data-qualified-name="CDB" id="part7-tail"><text fill="#000000" font-family="sans-serif" font-size="14" lengthAdjust="spacing" textLength="69.2617" x="1778.3628" y="1240.9482">CourseDB</text><path d="M1797.9937,1254.25 C1797.9937,1244.25 1815.9937,1244.25 1815.9937,1244.25 C1815.9937,1244.25 1833.9937,1244.25 1833.9937,1254.25 L1833.9937,1280.25 C1833.9937,1290.25 1815.9937,1290.25 1815.9937,1290.25 C1815.9937,1290.25 1797.9937,1290.25 1797.9937,1280.25 L1797.9937,1254.25" fill="#E2E2F0" style="stroke:#181818;stroke-width:0.5;"/><path d="M1797.9937,1254.25 C1797.9937,1264.25 1815.9937,1264.25 1815.9937,1264.25 C1815.9937,1264.25 1833.9937,1264.25 1833.9937,1254.25" fill="none" style="stroke:#181818;stroke-width:0.5;"/></g><g><title>Learner</title><rect fill="#FFFFFF" height="486.125" style="stroke:#181818;stroke-width:1;" width="10" x="54.9951" y="118.5625"/></g><g><title>WebApp</title><rect fill="#FFFFFF" height="486.125" style="stroke:#181818;stroke-width:1;" width="10" x="367.1353" y="118.5625"/></g><g><title>API Gateway</title><rect fill="#FFFFFF" height="270.1953" style="stroke:#181818;stroke-width:1;" width="10" x="708.0601" y="305.3594"/></g><g><title>CommentController</title><rect fill="#FFFFFF" height="169.7969" style="stroke:#181818;stroke-width:1;" width="10" x="938.2036" y="376.625"/></g><g><title>CourseApp</title><rect fill="#FFFFFF" height="703.7969" style="stroke:#181818;stroke-width:1;" width="10" x="1362.8286" y="405.7578"/></g><g><title>LessonComment</title><rect fill="#FFFFFF" height="101.5313" style="stroke:#181818;stroke-width:1;" width="10" x="1560.3281" y="920.625"/></g><g><title>CourseDB</title><rect fill="#FFFFFF" height="53.2656" style="stroke:#181818;stroke-width:1;" width="10" x="1810.9937" y="434.8906"/></g><g><title>CourseDB</title><rect fill="#FFFFFF" height="53.2656" style="stroke:#181818;stroke-width:1;" width="10" x="1810.9937" y="677.7578"/></g><g><title>CourseDB</title><rect fill="#FFFFFF" height="29.1328" style="stroke:#181818;stroke-width:1;" width="10" x="1810.9937" y="1051.2891"/></g><g class="message" data-entity-1="part1" data-entity-2="part2" id="msg1"><polygon fill="#181818" points="355.1353,114.5625,365.1353,118.5625,355.1353,122.5625,359.1353,118.5625" style="stroke:#181818;stroke-width:1;"/><line style="stroke:#181818;stroke-width:1;" x1="64.9951" x2="361.1353" y1="118.5625" y2="118.5625"/><text fill="#000000" font-family="sans-serif" font-size="13" font-weight="bold" lengthAdjust="spacing" textLength="9.0454" x="71.9951" y="113.4966">1</text><text fill="#000000" font-family="sans-serif" font-size="13" lengthAdjust="spacing" textLength="225.2847" x="85.0405" y="113.4966">Click "Reply" on existing comment</text></g><g class="message" data-entity-1="part2" data-entity-2="part2" id="msg2"><line style="stroke:#181818;stroke-width:1;" x1="377.1353" x2="419.1353" y1="147.6953" y2="147.6953"/><line style="stroke:#181818;stroke-width:1;" x1="419.1353" x2="419.1353" y1="147.6953" y2="160.6953"/><line style="stroke:#181818;stroke-width:1;" x1="378.1353" x2="419.1353" y1="160.6953" y2="160.6953"/><polygon fill="#181818" points="388.1353,156.6953,378.1353,160.6953,388.1353,164.6953,384.1353,160.6953" style="stroke:#181818;stroke-width:1;"/><text fill="#000000" font-family="sans-serif" font-size="13" font-weight="bold" lengthAdjust="spacing" textLength="9.0454" x="384.1353" y="142.6294">2</text><text fill="#000000" font-family="sans-serif" font-size="13" lengthAdjust="spacing" textLength="122.5225" x="397.1807" y="142.6294">Display reply input</text></g><g class="message" data-entity-1="part1" data-entity-2="part2" id="msg3"><polygon fill="#181818" points="355.1353,185.8281,365.1353,189.8281,355.1353,193.8281,359.1353,189.8281" style="stroke:#181818;stroke-width:1;"/><line style="stroke:#181818;stroke-width:1;" x1="64.9951" x2="361.1353" y1="189.8281" y2="189.8281"/><text fill="#000000" font-family="sans-serif" font-size="13" font-weight="bold" lengthAdjust="spacing" textLength="9.0454" x="71.9951" y="184.7622">3</text><text fill="#000000" font-family="sans-serif" font-size="13" lengthAdjust="spacing" textLength="71.938" x="85.0405" y="184.7622">Write reply</text></g><g class="message" data-entity-1="part1" data-entity-2="part2" id="msg4"><polygon fill="#181818" points="355.1353,214.9609,365.1353,218.9609,355.1353,222.9609,359.1353,218.9609" style="stroke:#181818;stroke-width:1;"/><line style="stroke:#181818;stroke-width:1;" x1="64.9951" x2="361.1353" y1="218.9609" y2="218.9609"/><text fill="#000000" font-family="sans-serif" font-size="13" font-weight="bold" lengthAdjust="spacing" textLength="9.0454" x="71.9951" y="213.895">4</text><text fill="#000000" font-family="sans-serif" font-size="13" lengthAdjust="spacing" textLength="115.4512" x="85.0405" y="213.895">Click "Post Reply"</text></g><g class="message" data-entity-1="part2" data-entity-2="part2" id="msg5"><line style="stroke:#181818;stroke-width:1;" x1="377.1353" x2="419.1353" y1="248.0938" y2="248.0938"/><line style="stroke:#181818;stroke-width:1;" x1="419.1353" x2="419.1353" y1="248.0938" y2="261.0938"/><line style="stroke:#181818;stroke-width:1;" x1="378.1353" x2="419.1353" y1="261.0938" y2="261.0938"/><polygon fill="#181818" points="388.1353,257.0938,378.1353,261.0938,388.1353,265.0938,384.1353,261.0938" style="stroke:#181818;stroke-width:1;"/><text fill="#000000" font-family="sans-serif" font-size="13" font-weight="bold" lengthAdjust="spacing" textLength="9.0454" x="384.1353" y="243.0278">5</text><text fill="#000000" font-family="sans-serif" font-size="13" lengthAdjust="spacing" textLength="161.6875" x="397.1807" y="243.0278">Validate reply not empty</text></g><g class="message" data-entity-1="part2" data-entity-2="part3" id="msg6"><polygon fill="#181818" points="696.0601,301.3594,706.0601,305.3594,696.0601,309.3594,700.0601,305.3594" style="stroke:#181818;stroke-width:1;"/><line style="stroke:#181818;stroke-width:1;" x1="377.1353" x2="702.0601" y1="305.3594" y2="305.3594"/><text fill="#000000" font-family="sans-serif" font-size="13" font-weight="bold" lengthAdjust="spacing" textLength="9.0454" x="384.1353" y="292.7271">6</text><text fill="#000000" font-family="sans-serif" font-size="13" lengthAdjust="spacing" textLength="298.8794" x="397.1807" y="285.1606">POST /comments/{parentCommentId}/replies</text><text fill="#000000" font-family="sans-serif" font-size="13" lengthAdjust="spacing" textLength="66.314" x="397.1807" y="300.2935">{content}</text></g><g class="message" data-entity-1="part3" data-entity-2="part3" id="msg7"><line style="stroke:#181818;stroke-width:1;" x1="718.0601" x2="760.0601" y1="334.4922" y2="334.4922"/><line style="stroke:#181818;stroke-width:1;" x1="760.0601" x2="760.0601" y1="334.4922" y2="347.4922"/><line style="stroke:#181818;stroke-width:1;" x1="719.0601" x2="760.0601" y1="347.4922" y2="347.4922"/><polygon fill="#181818" points="729.0601,343.4922,719.0601,347.4922,729.0601,351.4922,725.0601,347.4922" style="stroke:#181818;stroke-width:1;"/><text fill="#000000" font-family="sans-serif" font-size="13" font-weight="bold" lengthAdjust="spacing" textLength="9.0454" x="725.0601" y="329.4263">7</text><text fill="#000000" font-family="sans-serif" font-size="13" lengthAdjust="spacing" textLength="183.0981" x="738.1055" y="329.4263">Validate JWT, extract userID</text></g><g class="message" data-entity-1="part3" data-entity-2="part4" id="msg8"><polygon fill="#181818" points="926.2036,372.625,936.2036,376.625,926.2036,380.625,930.2036,376.625" style="stroke:#181818;stroke-width:1;"/><line style="stroke:#181818;stroke-width:1;" x1="718.0601" x2="932.2036" y1="376.625" y2="376.625"/><text fill="#000000" font-family="sans-serif" font-size="13" font-weight="bold" lengthAdjust="spacing" textLength="9.0454" x="725.0601" y="371.5591">8</text><text fill="#000000" font-family="sans-serif" font-size="13" lengthAdjust="spacing" textLength="106.8057" x="738.1055" y="371.5591">Forward request</text></g><g class="message" data-entity-1="part4" data-entity-2="part5" id="msg9"><polygon fill="#181818" points="1350.8286,401.7578,1360.8286,405.7578,1350.8286,409.7578,1354.8286,405.7578" style="stroke:#181818;stroke-width:1;"/><line style="stroke:#181818;stroke-width:1;" x1="948.2036" x2="1356.8286" y1="405.7578" y2="405.7578"/><text fill="#000000" font-family="sans-serif" font-size="13" font-weight="bold" lengthAdjust="spacing" textLength="9.0454" x="955.2036" y="400.6919">9</text><text fill="#000000" font-family="sans-serif" font-size="13" lengthAdjust="spacing" textLength="382.5796" x="968.249" y="400.6919">ReplyLessonComment(parentCommentId, userID, content)</text></g><g class="message" data-entity-1="part5" data-entity-2="part7" id="msg10"><polygon fill="#181818" points="1798.9937,430.8906,1808.9937,434.8906,1798.9937,438.8906,1802.9937,434.8906" style="stroke:#181818;stroke-width:1;"/><line style="stroke:#181818;stroke-width:1;" x1="1372.8286" x2="1804.9937" y1="434.8906" y2="434.8906"/><text fill="#000000" font-family="sans-serif" font-size="13" font-weight="bold" lengthAdjust="spacing" textLength="18.0908" x="1379.8286" y="429.8247">10</text><text fill="#000000" font-family="sans-serif" font-size="13" lengthAdjust="spacing" textLength="140.5054" x="1401.9194" y="429.8247">Find parent comment</text></g><path d="M10,449.8906 L74.4429,449.8906 L74.4429,457.0234 L64.4429,467.0234 L10,467.0234 L10,449.8906" fill="#EEEEEE" style="stroke:#000000;stroke-width:1.5;"/><rect fill="none" height="762.0625" style="stroke:#000000;stroke-width:1.5;" width="1863.6245" x="10" y="449.8906"/><text fill="#000000" font-family="sans-serif" font-size="13" font-weight="bold" lengthAdjust="spacing" textLength="19.4429" x="25" y="462.9575">alt</text><text fill="#000000" font-family="sans-serif" font-size="11" font-weight="bold" lengthAdjust="spacing" textLength="177.0796" x="89.4429" y="462.1011">[Parent comment not found]</text><g class="message" data-entity-1="part7" data-entity-2="part5" id="msg11"><polygon fill="#181818" points="1383.8286,484.1563,1373.8286,488.1563,1383.8286,492.1563,1379.8286,488.1563" style="stroke:#181818;stroke-width:1;"/><line style="stroke:#181818;stroke-width:1;stroke-dasharray:2,2;" x1="1377.8286" x2="1814.9937" y1="488.1563" y2="488.1563"/><text fill="#000000" font-family="sans-serif" font-size="13" font-weight="bold" lengthAdjust="spacing" textLength="18.0908" x="1389.8286" y="483.0903">11</text><text fill="#000000" font-family="sans-serif" font-size="13" lengthAdjust="spacing" textLength="64.1685" x="1411.9194" y="483.0903">Not found</text></g><g class="message" data-entity-1="part5" data-entity-2="part4" id="msg12"><polygon fill="#181818" points="959.2036,513.2891,949.2036,517.2891,959.2036,521.2891,955.2036,517.2891" style="stroke:#181818;stroke-width:1;"/><line style="stroke:#181818;stroke-width:1;stroke-dasharray:2,2;" x1="953.2036" x2="1361.8286" y1="517.2891" y2="517.2891"/><text fill="#000000" font-family="sans-serif" font-size="13" font-weight="bold" lengthAdjust="spacing" textLength="18.0908" x="965.2036" y="512.2231">12</text><text fill="#000000" font-family="sans-serif" font-size="13" lengthAdjust="spacing" textLength="96.0146" x="987.2944" y="512.2231">404 Not Found</text></g><g class="message" data-entity-1="part4" data-entity-2="part3" id="msg13"><polygon fill="#181818" points="729.0601,542.4219,719.0601,546.4219,729.0601,550.4219,725.0601,546.4219" style="stroke:#181818;stroke-width:1;"/><line style="stroke:#181818;stroke-width:1;stroke-dasharray:2,2;" x1="723.0601" x2="942.2036" y1="546.4219" y2="546.4219"/><text fill="#000000" font-family="sans-serif" font-size="13" font-weight="bold" lengthAdjust="spacing" textLength="18.0908" x="735.0601" y="541.356">13</text><text fill="#000000" font-family="sans-serif" font-size="13" lengthAdjust="spacing" textLength="32.2017" x="757.1509" y="541.356">Error</text></g><g class="message" data-entity-1="part3" data-entity-2="part2" id="msg14"><polygon fill="#181818" points="388.1353,571.5547,378.1353,575.5547,388.1353,579.5547,384.1353,575.5547" style="stroke:#181818;stroke-width:1;"/><line style="stroke:#181818;stroke-width:1;stroke-dasharray:2,2;" x1="382.1353" x2="712.0601" y1="575.5547" y2="575.5547"/><text fill="#000000" font-family="sans-serif" font-size="13" font-weight="bold" lengthAdjust="spacing" textLength="18.0908" x="394.1353" y="570.4888">14</text><text fill="#000000" font-family="sans-serif" font-size="13" lengthAdjust="spacing" textLength="32.2017" x="416.2261" y="570.4888">Error</text></g><g class="message" data-entity-1="part2" data-entity-2="part1" id="msg15"><polygon fill="#181818" points="70.9951,600.6875,60.9951,604.6875,70.9951,608.6875,66.9951,604.6875" style="stroke:#181818;stroke-width:1;"/><line style="stroke:#181818;stroke-width:1;" x1="64.9951" x2="371.1353" y1="604.6875" y2="604.6875"/><text fill="#000000" font-family="sans-serif" font-size="13" font-weight="bold" lengthAdjust="spacing" textLength="18.0908" x="76.9951" y="599.6216">15</text><text fill="#000000" font-family="sans-serif" font-size="13" lengthAdjust="spacing" textLength="84.0366" x="99.0859" y="599.6216">Display error</text></g><line style="stroke:#000000;stroke-width:1;stroke-dasharray:2,2;" x1="10" x2="1873.6245" y1="613.6875" y2="613.6875"/><text fill="#000000" font-family="sans-serif" font-size="11" font-weight="bold" lengthAdjust="spacing" textLength="91.2227" x="15" y="623.8979">[Parent found]</text><g class="message" data-entity-1="part7" data-entity-2="part5" id="msg16"><polygon fill="#181818" points="1383.8286,644.625,1373.8286,648.625,1383.8286,652.625,1379.8286,648.625" style="stroke:#181818;stroke-width:1;"/><line style="stroke:#181818;stroke-width:1;stroke-dasharray:2,2;" x1="1377.8286" x2="1814.9937" y1="648.625" y2="648.625"/><text fill="#000000" font-family="sans-serif" font-size="13" font-weight="bold" lengthAdjust="spacing" textLength="18.0908" x="1389.8286" y="643.5591">16</text><text fill="#000000" font-family="sans-serif" font-size="13" lengthAdjust="spacing" textLength="141.7939" x="1411.9194" y="643.5591">Parent comment data</text></g><g class="message" data-entity-1="part5" data-entity-2="part7" id="msg17"><polygon fill="#181818" points="1798.9937,673.7578,1808.9937,677.7578,1798.9937,681.7578,1802.9937,677.7578" style="stroke:#181818;stroke-width:1;"/><line style="stroke:#181818;stroke-width:1;" x1="1372.8286" x2="1804.9937" y1="677.7578" y2="677.7578"/><text fill="#000000" font-family="sans-serif" font-size="13" font-weight="bold" lengthAdjust="spacing" textLength="18.0908" x="1379.8286" y="672.6919">17</text><text fill="#000000" font-family="sans-serif" font-size="13" lengthAdjust="spacing" textLength="113.0073" x="1401.9194" y="672.6919">Verify enrollment</text></g><path d="M20,692.7578 L84.4429,692.7578 L84.4429,699.8906 L74.4429,709.8906 L20,709.8906 L20,692.7578" fill="#EEEEEE" style="stroke:#000000;stroke-width:1.5;"/><rect fill="none" height="512.1953" style="stroke:#000000;stroke-width:1.5;" width="1843.6245" x="20" y="692.7578"/><text fill="#000000" font-family="sans-serif" font-size="13" font-weight="bold" lengthAdjust="spacing" textLength="19.4429" x="35" y="705.8247">alt</text><text fill="#000000" font-family="sans-serif" font-size="11" font-weight="bold" lengthAdjust="spacing" textLength="87.0547" x="99.4429" y="704.9683">[Not enrolled]</text><g class="message" data-entity-1="part7" data-entity-2="part5" id="msg18"><polygon fill="#181818" points="1383.8286,727.0234,1373.8286,731.0234,1383.8286,735.0234,1379.8286,731.0234" style="stroke:#181818;stroke-width:1;"/><line style="stroke:#181818;stroke-width:1;stroke-dasharray:2,2;" x1="1377.8286" x2="1814.9937" y1="731.0234" y2="731.0234"/><text fill="#000000" font-family="sans-serif" font-size="13" font-weight="bold" lengthAdjust="spacing" textLength="18.0908" x="1389.8286" y="725.9575">18</text><text fill="#000000" font-family="sans-serif" font-size="13" lengthAdjust="spacing" textLength="64.1685" x="1411.9194" y="725.9575">Not found</text></g><g class="message" data-entity-1="part5" data-entity-2="part4" id="msg19"><polygon fill="#181818" points="954.2036,756.1563,944.2036,760.1563,954.2036,764.1563,950.2036,760.1563" style="stroke:#181818;stroke-width:1;"/><line style="stroke:#181818;stroke-width:1;stroke-dasharray:2,2;" x1="948.2036" x2="1361.8286" y1="760.1563" y2="760.1563"/><text fill="#000000" font-family="sans-serif" font-size="13" font-weight="bold" lengthAdjust="spacing" textLength="18.0908" x="960.2036" y="755.0903">19</text><text fill="#000000" font-family="sans-serif" font-size="13" lengthAdjust="spacing" textLength="94.3262" x="982.2944" y="755.0903">403 Forbidden</text></g><g class="message" data-entity-1="part4" data-entity-2="part3" id="msg20"><polygon fill="#181818" points="724.0601,785.2891,714.0601,789.2891,724.0601,793.2891,720.0601,789.2891" style="stroke:#181818;stroke-width:1;"/><line style="stroke:#181818;stroke-width:1;stroke-dasharray:2,2;" x1="718.0601" x2="942.2036" y1="789.2891" y2="789.2891"/><text fill="#000000" font-family="sans-serif" font-size="13" font-weight="bold" lengthAdjust="spacing" textLength="18.0908" x="730.0601" y="784.2231">20</text><text fill="#000000" font-family="sans-serif" font-size="13" lengthAdjust="spacing" textLength="32.2017" x="752.1509" y="784.2231">Error</text></g><g class="message" data-entity-1="part3" data-entity-2="part2" id="msg21"><polygon fill="#181818" points="383.1353,814.4219,373.1353,818.4219,383.1353,822.4219,379.1353,818.4219" style="stroke:#181818;stroke-width:1;"/><line style="stroke:#181818;stroke-width:1;stroke-dasharray:2,2;" x1="377.1353" x2="712.0601" y1="818.4219" y2="818.4219"/><text fill="#000000" font-family="sans-serif" font-size="13" font-weight="bold" lengthAdjust="spacing" textLength="18.0908" x="389.1353" y="813.356">21</text><text fill="#000000" font-family="sans-serif" font-size="13" lengthAdjust="spacing" textLength="32.2017" x="411.2261" y="813.356">Error</text></g><g class="message" data-entity-1="part2" data-entity-2="part1" id="msg22"><polygon fill="#181818" points="70.9951,843.5547,60.9951,847.5547,70.9951,851.5547,66.9951,847.5547" style="stroke:#181818;stroke-width:1;"/><line style="stroke:#181818;stroke-width:1;" x1="64.9951" x2="371.1353" y1="847.5547" y2="847.5547"/><text fill="#000000" font-family="sans-serif" font-size="13" font-weight="bold" lengthAdjust="spacing" textLength="18.0908" x="76.9951" y="842.4888">22</text><text fill="#000000" font-family="sans-serif" font-size="13" lengthAdjust="spacing" textLength="172.8594" x="99.0859" y="842.4888">Display "Must be enrolled"</text></g><line style="stroke:#000000;stroke-width:1;stroke-dasharray:2,2;" x1="20" x2="1863.6245" y1="856.5547" y2="856.5547"/><text fill="#000000" font-family="sans-serif" font-size="11" font-weight="bold" lengthAdjust="spacing" textLength="61.2573" x="25" y="866.7651">[Enrolled]</text><g class="message" data-entity-1="part7" data-entity-2="part5" id="msg23"><polygon fill="#181818" points="1383.8286,887.4922,1373.8286,891.4922,1383.8286,895.4922,1379.8286,891.4922" style="stroke:#181818;stroke-width:1;"/><line style="stroke:#181818;stroke-width:1;stroke-dasharray:2,2;" x1="1377.8286" x2="1814.9937" y1="891.4922" y2="891.4922"/><text fill="#000000" font-family="sans-serif" font-size="13" font-weight="bold" lengthAdjust="spacing" textLength="18.0908" x="1389.8286" y="886.4263">23</text><text fill="#000000" font-family="sans-serif" font-size="13" lengthAdjust="spacing" textLength="140.8926" x="1411.9194" y="886.4263">Enrollment confirmed</text></g><g class="message" data-entity-1="part5" data-entity-2="part6" id="msg24"><polygon fill="#181818" points="1548.3281,916.625,1558.3281,920.625,1548.3281,924.625,1552.3281,920.625" style="stroke:#181818;stroke-width:1;"/><line style="stroke:#181818;stroke-width:1;" x1="1372.8286" x2="1554.3281" y1="920.625" y2="920.625"/><text fill="#000000" font-family="sans-serif" font-size="13" font-weight="bold" lengthAdjust="spacing" textLength="18.0908" x="1379.8286" y="915.5591">24</text><text fill="#000000" font-family="sans-serif" font-size="13" lengthAdjust="spacing" textLength="146.4087" x="1401.9194" y="915.5591">Create reply comment</text></g><g class="message" data-entity-1="part6" data-entity-2="part6" id="msg25"><line style="stroke:#181818;stroke-width:1;" x1="1570.3281" x2="1612.3281" y1="980.0234" y2="980.0234"/><line style="stroke:#181818;stroke-width:1;" x1="1612.3281" x2="1612.3281" y1="980.0234" y2="993.0234"/><line style="stroke:#181818;stroke-width:1;" x1="1571.3281" x2="1612.3281" y1="993.0234" y2="993.0234"/><polygon fill="#181818" points="1581.3281,989.0234,1571.3281,993.0234,1581.3281,997.0234,1577.3281,993.0234" style="stroke:#181818;stroke-width:1;"/><text fill="#000000" font-family="sans-serif" font-size="13" font-weight="bold" lengthAdjust="spacing" textLength="18.0908" x="1577.3281" y="959.8247">25</text><text fill="#000000" font-family="sans-serif" font-size="13" lengthAdjust="spacing" textLength="189.1729" x="1599.4189" y="944.6919">Set lessonID, userID, content</text><text fill="#000000" font-family="sans-serif" font-size="13" lengthAdjust="spacing" textLength="194.5747" x="1599.4189" y="959.8247">parentCommentID = parentId</text><text fill="#000000" font-family="sans-serif" font-size="13" lengthAdjust="spacing" textLength="125.9058" x="1599.4189" y="974.9575">createdAt = NOW()</text></g><g class="message" data-entity-1="part6" data-entity-2="part5" id="msg26"><polygon fill="#181818" points="1383.8286,1018.1563,1373.8286,1022.1563,1383.8286,1026.1563,1379.8286,1022.1563" style="stroke:#181818;stroke-width:1;"/><line style="stroke:#181818;stroke-width:1;stroke-dasharray:2,2;" x1="1377.8286" x2="1564.3281" y1="1022.1563" y2="1022.1563"/><text fill="#000000" font-family="sans-serif" font-size="13" font-weight="bold" lengthAdjust="spacing" textLength="18.0908" x="1389.8286" y="1017.0903">26</text><text fill="#000000" font-family="sans-serif" font-size="13" lengthAdjust="spacing" textLength="78.457" x="1411.9194" y="1017.0903">Reply entity</text></g><g class="message" data-entity-1="part5" data-entity-2="part7" id="msg27"><polygon fill="#181818" points="1798.9937,1047.2891,1808.9937,1051.2891,1798.9937,1055.2891,1802.9937,1051.2891" style="stroke:#181818;stroke-width:1;"/><line style="stroke:#181818;stroke-width:1;" x1="1372.8286" x2="1804.9937" y1="1051.2891" y2="1051.2891"/><text fill="#000000" font-family="sans-serif" font-size="13" font-weight="bold" lengthAdjust="spacing" textLength="18.0908" x="1379.8286" y="1046.2231">27</text><text fill="#000000" font-family="sans-serif" font-size="13" lengthAdjust="spacing" textLength="68.9419" x="1401.9194" y="1046.2231">Save reply</text></g><g class="message" data-entity-1="part7" data-entity-2="part5" id="msg28"><polygon fill="#181818" points="1383.8286,1076.4219,1373.8286,1080.4219,1383.8286,1084.4219,1379.8286,1080.4219" style="stroke:#181818;stroke-width:1;"/><line style="stroke:#181818;stroke-width:1;stroke-dasharray:2,2;" x1="1377.8286" x2="1814.9937" y1="1080.4219" y2="1080.4219"/><text fill="#000000" font-family="sans-serif" font-size="13" font-weight="bold" lengthAdjust="spacing" textLength="18.0908" x="1389.8286" y="1075.356">28</text><text fill="#000000" font-family="sans-serif" font-size="13" lengthAdjust="spacing" textLength="79.4028" x="1411.9194" y="1075.356">Reply saved</text></g><g class="message" data-entity-1="part5" data-entity-2="part4" id="msg29"><polygon fill="#181818" points="954.2036,1105.5547,944.2036,1109.5547,954.2036,1113.5547,950.2036,1109.5547" style="stroke:#181818;stroke-width:1;"/><line style="stroke:#181818;stroke-width:1;stroke-dasharray:2,2;" x1="948.2036" x2="1366.8286" y1="1109.5547" y2="1109.5547"/><text fill="#000000" font-family="sans-serif" font-size="13" font-weight="bold" lengthAdjust="spacing" textLength="18.0908" x="960.2036" y="1104.4888">29</text><text fill="#000000" font-family="sans-serif" font-size="13" lengthAdjust="spacing" textLength="195.4888" x="982.2944" y="1104.4888">LessonCommentDTO (nested)</text></g><g class="message" data-entity-1="part4" data-entity-2="part3" id="msg30"><polygon fill="#181818" points="724.0601,1134.6875,714.0601,1138.6875,724.0601,1142.6875,720.0601,1138.6875" style="stroke:#181818;stroke-width:1;"/><line style="stroke:#181818;stroke-width:1;stroke-dasharray:2,2;" x1="718.0601" x2="942.2036" y1="1138.6875" y2="1138.6875"/><text fill="#000000" font-family="sans-serif" font-size="13" font-weight="bold" lengthAdjust="spacing" textLength="18.0908" x="730.0601" y="1133.6216">30</text><text fill="#000000" font-family="sans-serif" font-size="13" lengthAdjust="spacing" textLength="80.6787" x="752.1509" y="1133.6216">201 Created</text></g><g class="message" data-entity-1="part3" data-entity-2="part2" id="msg31"><polygon fill="#181818" points="383.1353,1163.8203,373.1353,1167.8203,383.1353,1171.8203,379.1353,1167.8203" style="stroke:#181818;stroke-width:1;"/><line style="stroke:#181818;stroke-width:1;stroke-dasharray:2,2;" x1="377.1353" x2="712.0601" y1="1167.8203" y2="1167.8203"/><text fill="#000000" font-family="sans-serif" font-size="13" font-weight="bold" lengthAdjust="spacing" textLength="18.0908" x="389.1353" y="1162.7544">31</text><text fill="#000000" font-family="sans-serif" font-size="13" lengthAdjust="spacing" textLength="70.002" x="411.2261" y="1162.7544">Reply data</text></g><g class="message" data-entity-1="part2" data-entity-2="part1" id="msg32"><polygon fill="#181818" points="70.9951,1192.9531,60.9951,1196.9531,70.9951,1200.9531,66.9951,1196.9531" style="stroke:#181818;stroke-width:1;"/><line style="stroke:#181818;stroke-width:1;" x1="64.9951" x2="371.1353" y1="1196.9531" y2="1196.9531"/><text fill="#000000" font-family="sans-serif" font-size="13" font-weight="bold" lengthAdjust="spacing" textLength="18.0908" x="76.9951" y="1191.8872">32</text><text fill="#000000" font-family="sans-serif" font-size="13" lengthAdjust="spacing" textLength="266.0493" x="99.0859" y="1191.8872">Add reply nested under parent comment</text></g><?plantuml-src ZLLDJnin4BtlhnYb5v10GCifQYjj78XIRI5g8bQLk3ZnG2qsTkhr4YB4V-_OtatsYxO79DP-y_7Ul75uORKgraiqKPG_IRNXXgzXf5zcN0Yf7k7YF8huoce32NAZq03F8OcMkb22cnsak8mt6tUOnX4Tly0WdarXmYrk-Mu07nBv-CkEiW8ZW9LMrkYi1Q7OIHgX4a3XPGwc2vCZpD4yonLMQNvYbkbjBH7JwpKgoy9d5hfZh85mYSeMMKmtX9TsHtJoNAioWIVbmWItVCcfSeWRZtpOU7HeBu7JhyHr22oJgoSO_C1DHYIq0doHkNMQhK9Ifvjy9fQar_vVKYcDgnHZcMyolWFZSW2fNzXQWTH82l1tdQepdLi8fQDQmZkUIS6hA53Q0gutTbTX9kaGPhVp1PoLFUPdhpHoBw7_degtCnShCRzNhqv4Edmxj4-3cgHLfdsrR-dYXEXRGpWeSZJJSGbZR0ZNscov4TJJxmBpcYmqg8Wn3wFUFPl6L8vQhPsKkK-WREoubelSnpn7cXRLb3Il4DuTXvjdn3CBimR0o_NWZ4r6e5oVJqz3iflQkS166WAo02G6b-UN7djTOaa2VqKQN1cZJIlS-IqDPPoQFH1IsqE8LN9m2tQ1QTpyJYBCoCGblpvEBUhEzrrs8QRIz0wDVA3oogsQLnIW3NUgEWa225tLzxNiKREbvoTddgKK0fM_x56qgsclgbrTUvGTV2zehPQuRt_GZlH2jwIc9yM9VVKUvQkzOCwt3zAiiPTz5UXw8eBCu66JAmyxoA5qO9kmAcIE5ZA_GMv9MijohvhhD8OlvOPCnRrQ-MeYjdHwSviU7TTfkDn-FSl7iwC1gpVlIS_vS_LsDNhUZxacK4YTKyHVT3dOel56Z1UtSAJeMK5nt0cEswRvU7vHwYh-RPtGLhaPRVyq3HGBKJsvlXKWWzEFKUi1-ZylqMgulpy0?></g></svg>