<?plantuml 1.2026.1?><svg xmlns="http://www.w3.org/2000/svg" xmlns:xlink="http://www.w3.org/1999/xlink" contentStyleType="text/css" data-diagram-type="DESCRIPTION" height="1105px" preserveAspectRatio="none" style="width:1704px;height:1105px;background:#FFFFFF;" version="1.1" viewBox="0 0 1704 1105" width="1704px" zoomAndPan="magnify"><defs/><g><!--cluster Egolia E-Learning System--><g class="cluster" data-qualified-name="Egolia E-Learning System" data-source-line="10" id="ent0003"><rect fill="none" height="578" rx="2.5" ry="2.5" style="stroke:#181818;stroke-width:1;" width="1578.05" x="120.92" y="436.79"/><text fill="#000000" font-family="sans-serif" font-size="14" font-weight="bold" lengthAdjust="spacing" textLength="201.209" x="809.3405" y="451.7851">Egolia E-Learning System</text></g><!--cluster Authentication (Authentik)--><g class="cluster" data-qualified-name="Egolia E-Learning System.Authentication .Authentik." data-source-line="12" id="ent0004"><rect fill="none" height="150" rx="2.5" ry="2.5" style="stroke:#181818;stroke-width:1;" width="227.7" x="1447.27" y="479.79"/><text fill="#000000" font-family="sans-serif" font-size="14" font-weight="bold" lengthAdjust="spacing" textLength="212.6318" x="1454.8041" y="494.7851">Authentication (Authentik)</text></g><!--cluster Course Management--><g class="cluster" data-qualified-name="Egolia E-Learning System.Course Management" data-source-line="17" id="ent0007"><rect fill="none" height="231" rx="2.5" ry="2.5" style="stroke:#181818;stroke-width:1;" width="596.75" x="1071.73" y="653.79"/><text fill="#000000" font-family="sans-serif" font-size="14" font-weight="bold" lengthAdjust="spacing" textLength="162.5176" x="1288.8462" y="668.7851">Course Management</text></g><!--cluster Section Management--><g class="cluster" data-qualified-name="Egolia E-Learning System.Section Management" data-source-line="24" id="ent0012"><rect fill="none" height="160" rx="2.5" ry="2.5" style="stroke:#181818;stroke-width:1;" width="451.41" x="523.32" y="725.79"/><text fill="#000000" font-family="sans-serif" font-size="14" font-weight="bold" lengthAdjust="spacing" textLength="166.8789" x="665.5855" y="740.7851">Section Management</text></g><!--cluster Lesson Management--><g class="cluster" data-qualified-name="Egolia E-Learning System.Lesson Management" data-source-line="30" id="ent0016"><rect fill="none" height="222" rx="2.5" ry="2.5" style="stroke:#181818;stroke-width:1;" width="532.46" x="158.71" y="479.79"/><text fill="#000000" font-family="sans-serif" font-size="14" font-weight="bold" lengthAdjust="spacing" textLength="162.5928" x="343.6436" y="494.7851">Lesson Management</text></g><!--cluster Test Management--><g class="cluster" data-qualified-name="Egolia E-Learning System.Test Management" data-source-line="37" id="ent0021"><rect fill="none" height="81" rx="2.5" ry="2.5" style="stroke:#181818;stroke-width:1;" width="156.87" x="529.34" y="909.79"/><text fill="#000000" font-family="sans-serif" font-size="14" font-weight="bold" lengthAdjust="spacing" textLength="141.9961" x="536.777" y="924.7851">Test Management</text></g><!--cluster Learner Features (inherited)--><g class="cluster" data-qualified-name="Egolia E-Learning System.Learner Features .inherited." data-source-line="41" id="ent0023"><rect fill="none" height="228" rx="2.5" ry="2.5" style="stroke:#181818;stroke-width:1;" width="240.4" x="144.92" y="725.79"/><text fill="#000000" font-family="sans-serif" font-size="14" font-weight="bold" lengthAdjust="spacing" textLength="225.7158" x="152.2621" y="740.7851">Learner Features (inherited)</text></g><!--entity UC_LOGIN--><g class="entity" data-qualified-name="Egolia E-Learning System.Authentication .Authentik..UC_LOGIN" data-source-line="13" id="ent0005"><ellipse cx="1560.6204" cy="597.7901" fill="#FFFFE0" rx="67.3504" ry="15.8701" style="stroke:#2F4F4F;stroke-width:0.5;"/><text fill="#000000" font-family="sans-serif" font-size="14" lengthAdjust="spacing" textLength="99.6201" x="1510.8103" y="602.4385">Login / Sign In</text></g><!--entity UC_PROFILE--><g class="entity" data-qualified-name="Egolia E-Learning System.Authentication .Authentik..UC_PROFILE" data-source-line="14" id="ent0006"><ellipse cx="1560.6223" cy="530.7905" fill="#FFFFE0" rx="67.2023" ry="15.8405" style="stroke:#2F4F4F;stroke-width:0.5;"/><text fill="#000000" font-family="sans-serif" font-size="14" lengthAdjust="spacing" textLength="99.2373" x="1511.0037" y="535.4389">Update Profile</text></g><!--entity UC_CREATE--><g class="entity" data-qualified-name="Egolia E-Learning System.Course Management.UC_CREATE" data-source-line="18" id="ent0008"><ellipse cx="1189.2369" cy="852.7914" fill="#FFFFE0" rx="67.5569" ry="15.9114" style="stroke:#2F4F4F;stroke-width:0.5;"/><text fill="#000000" font-family="sans-serif" font-size="14" lengthAdjust="spacing" textLength="100.1533" x="1139.1603" y="857.4398">Create Course</text></g><!--entity UC_EDIT--><g class="entity" data-qualified-name="Egolia E-Learning System.Course Management.UC_EDIT" data-source-line="19" id="ent0009"><ellipse cx="1189.244" cy="711.7928" fill="#FFFFE0" rx="101.514" ry="22.7028" style="stroke:#2F4F4F;stroke-width:0.5;"/><text fill="#000000" font-family="sans-serif" font-size="14" lengthAdjust="spacing" textLength="179.3887" x="1099.5496" y="716.4412">Change Basic Course Info</text></g><!--entity UC_DELETE--><g class="entity" data-qualified-name="Egolia E-Learning System.Course Management.UC_DELETE" data-source-line="20" id="ent0010"><ellipse cx="1189.2367" cy="785.7873" fill="#FFFFE0" rx="67.2367" ry="15.8473" style="stroke:#2F4F4F;stroke-width:0.5;"/><text fill="#000000" font-family="sans-serif" font-size="14" lengthAdjust="spacing" textLength="99.3262" x="1139.5736" y="790.4358">Delete Course</text></g><!--entity UC_MY_COURSES--><g class="entity" data-qualified-name="Egolia E-Learning System.Course Management.UC_MY_COURSES" data-source-line="21" id="ent0011"><ellipse cx="1560.6224" cy="785.7925" fill="#FFFFE0" rx="91.8624" ry="20.7725" style="stroke:#2F4F4F;stroke-width:0.5;"/><text fill="#000000" font-family="sans-serif" font-size="14" lengthAdjust="spacing" textLength="157.9443" x="1481.6502" y="790.4409">Get Instructor Courses</text></g><!--entity UC_CREATE_SEC--><g class="entity" data-qualified-name="Egolia E-Learning System.Section Management.UC_CREATE_SEC" data-source-line="25" id="ent0013"><ellipse cx="889.9513" cy="806.7863" fill="#FFFFE0" rx="68.7813" ry="16.1563" style="stroke:#2F4F4F;stroke-width:0.5;"/><text fill="#000000" font-family="sans-serif" font-size="14" lengthAdjust="spacing" textLength="103.291" x="838.3058" y="811.4347">Create Section</text></g><!--entity UC_MOVE_SEC--><g class="entity" data-qualified-name="Egolia E-Learning System.Section Management.UC_MOVE_SEC" data-source-line="26" id="ent0014"><ellipse cx="607.7836" cy="844.7907" fill="#FFFFE0" rx="65.2036" ry="15.4407" style="stroke:#2F4F4F;stroke-width:0.5;"/><text fill="#000000" font-family="sans-serif" font-size="14" lengthAdjust="spacing" textLength="94.0078" x="560.7797" y="849.4392">Move Section</text></g><!--entity UC_DEL_SEC--><g class="entity" data-qualified-name="Egolia E-Learning System.Section Management.UC_DEL_SEC" data-source-line="27" id="ent0015"><ellipse cx="607.7771" cy="777.7914" fill="#FFFFE0" rx="68.4571" ry="16.0914" style="stroke:#2F4F4F;stroke-width:0.5;"/><text fill="#000000" font-family="sans-serif" font-size="14" lengthAdjust="spacing" textLength="102.4639" x="556.5452" y="782.4399">Delete Section</text></g><!--entity UC_CREATE_LES--><g class="entity" data-qualified-name="Egolia E-Learning System.Lesson Management.UC_CREATE_LES" data-source-line="31" id="ent0017"><ellipse cx="607.7774" cy="593.7875" fill="#FFFFE0" rx="67.3874" ry="15.8775" style="stroke:#2F4F4F;stroke-width:0.5;"/><text fill="#000000" font-family="sans-serif" font-size="14" lengthAdjust="spacing" textLength="99.7158" x="557.9195" y="598.4359">Create Lesson</text></g><!--entity UC_EDIT_LES--><g class="entity" data-qualified-name="Egolia E-Learning System.Lesson Management.UC_EDIT_LES" data-source-line="32" id="ent0018"><ellipse cx="265.1192" cy="529.7936" fill="#FFFFE0" rx="59.5692" ry="14.5236" style="stroke:#2F4F4F;stroke-width:0.5;"/><text fill="#000000" font-family="sans-serif" font-size="14" lengthAdjust="spacing" textLength="80.001" x="225.1187" y="534.4421">Edit Lesson</text></g><!--entity UC_MOVE_LES--><g class="entity" data-qualified-name="Egolia E-Learning System.Lesson Management.UC_MOVE_LES" data-source-line="33" id="ent0019"><ellipse cx="265.1241" cy="594.7928" fill="#FFFFE0" rx="63.8641" ry="15.1728" style="stroke:#2F4F4F;stroke-width:0.5;"/><text fill="#000000" font-family="sans-serif" font-size="14" lengthAdjust="spacing" textLength="90.4326" x="219.9078" y="599.4413">Move Lesson</text></g><!--entity UC_UPLOAD--><g class="entity" data-qualified-name="Egolia E-Learning System.Lesson Management.UC_UPLOAD" data-source-line="34" id="ent0020"><ellipse cx="265.1176" cy="665.7915" fill="#FFFFE0" rx="90.4076" ry="20.4815" style="stroke:#2F4F4F;stroke-width:0.5;"/><text fill="#000000" font-family="sans-serif" font-size="14" lengthAdjust="spacing" textLength="154.6631" x="187.7861" y="670.44">Get Upload Video URL</text></g><!--entity UC_CREATE_TEST--><g class="entity" data-qualified-name="Egolia E-Learning System.Test Management.UC_CREATE_TEST" data-source-line="38" id="ent0022"><ellipse cx="607.7845" cy="959.7936" fill="#FFFFE0" rx="60.4345" ry="14.5236" style="stroke:#2F4F4F;stroke-width:0.5;"/><text fill="#000000" font-family="sans-serif" font-size="14" lengthAdjust="spacing" textLength="81.2246" x="567.1722" y="964.4421">Create Test</text></g><!--entity UC_BROWSE--><g class="entity" data-qualified-name="Egolia E-Learning System.Learner Features .inherited..UC_BROWSE" data-source-line="42" id="ent0024"><ellipse cx="265.1239" cy="920.7928" fill="#FFFFE0" rx="72.2139" ry="16.8428" style="stroke:#2F4F4F;stroke-width:0.5;"/><text fill="#000000" font-family="sans-serif" font-size="14" lengthAdjust="spacing" textLength="111.9043" x="209.1718" y="925.4412">Browse Courses</text></g><!--entity UC_ENROLL--><g class="entity" data-qualified-name="Egolia E-Learning System.Learner Features .inherited..UC_ENROLL" data-source-line="43" id="ent0025"><ellipse cx="265.1189" cy="775.7858" fill="#FFFFE0" rx="64.8789" ry="15.3758" style="stroke:#2F4F4F;stroke-width:0.5;"/><text fill="#000000" font-family="sans-serif" font-size="14" lengthAdjust="spacing" textLength="93.1465" x="218.5456" y="780.4342">Enroll Course</text></g><!--entity UC_LEARN--><g class="entity" data-qualified-name="Egolia E-Learning System.Learner Features .inherited..UC_LEARN" data-source-line="44" id="ent0026"><ellipse cx="265.1201" cy="847.79" fill="#FFFFE0" rx="94.2001" ry="21.24" style="stroke:#2F4F4F;stroke-width:0.5;"/><text fill="#000000" font-family="sans-serif" font-size="14" lengthAdjust="spacing" textLength="163.1875" x="183.5264" y="852.4385">Learn &amp; Track Progress</text></g><!--entity I--><g class="entity" data-qualified-name="I" data-source-line="8" id="ent0002"><ellipse cx="39.9609" cy="381.14" fill="#F1F1F1" rx="8" ry="8" style="stroke:#181818;stroke-width:0.5;"/><path d="M39.9609,389.14 L39.9609,416.14 M26.9609,397.14 L52.9609,397.14 M39.9609,416.14 L26.9609,431.14 M39.9609,416.14 L52.9609,431.14" fill="none" style="stroke:#181818;stroke-width:0.5;"/><text fill="#000000" font-family="sans-serif" font-size="14" lengthAdjust="spacing" textLength="67.9219" x="6" y="445.6351">Instructor</text></g><!--link UC_CREATE to UC_LOGIN--><g class="link" data-entity-1="ent0008" data-entity-2="ent0005" data-link-type="dependency" data-source-line="48" id="lnk27"><path d="M1246.45,843.96 C1262.58,838.95 1278.97,831.09 1290.76,818.79 C1323.74,784.36 1290.13,752.33 1320.76,715.79 C1370.53,656.42 1451.6523,625.8381 1505.7823,610.6781" fill="none" id="UC_CREATE-to-UC_LOGIN" style="stroke:#181818;stroke-width:1;stroke-dasharray:7,7;"/><polygon fill="#181818" points="1511.56,609.06,1501.8147,607.6354,1506.7453,610.4084,1503.9722,615.339,1511.56,609.06" style="stroke:#181818;stroke-width:1;"/><text fill="#000000" font-family="sans-serif" font-size="13" lengthAdjust="spacing" textLength="63.0068" x="1321.76" y="660.8569">&#171;include&#187;</text></g><!--link UC_EDIT to UC_MY_COURSES--><g class="link" data-entity-1="ent0009" data-entity-2="ent0011" data-link-type="dependency" data-source-line="49" id="lnk28"><path d="M1265.88,726.94 C1331.84,740.16 1420.827,757.981 1484.747,770.791" fill="none" id="UC_EDIT-to-UC_MY_COURSES" style="stroke:#181818;stroke-width:1;stroke-dasharray:7,7;"/><polygon fill="#181818" points="1490.63,771.97,1482.5915,766.2795,1485.7275,770.9875,1481.0195,774.1235,1490.63,771.97" style="stroke:#181818;stroke-width:1;"/><text fill="#000000" font-family="sans-serif" font-size="13" lengthAdjust="spacing" textLength="63.0068" x="1321.76" y="736.8569">&#171;include&#187;</text></g><!--link UC_DELETE to UC_MY_COURSES--><g class="link" data-entity-1="ent0010" data-entity-2="ent0011" data-link-type="dependency" data-source-line="50" id="lnk29"><path d="M1256.71,785.79 C1315.8,785.79 1396.75,785.79 1462.35,785.79" fill="none" id="UC_DELETE-to-UC_MY_COURSES" style="stroke:#181818;stroke-width:1;stroke-dasharray:7,7;"/><polygon fill="#181818" points="1468.35,785.79,1459.35,781.79,1463.35,785.79,1459.35,789.79,1468.35,785.79" style="stroke:#181818;stroke-width:1;"/><text fill="#000000" font-family="sans-serif" font-size="13" lengthAdjust="spacing" textLength="63.0068" x="1321.76" y="781.8569">&#171;include&#187;</text></g><!--link UC_CREATE_SEC to UC_CREATE--><g class="link" data-entity-1="ent0013" data-entity-2="ent0008" data-link-type="dependency" data-source-line="51" id="lnk30"><path d="M948.27,815.66 C1001.17,823.84 1073.3306,835.0122 1125.9206,843.1522" fill="none" id="UC_CREATE_SEC-to-UC_CREATE" style="stroke:#181818;stroke-width:1;stroke-dasharray:7,7;"/><polygon fill="#181818" points="1131.85,844.07,1123.5678,838.7404,1126.9088,843.3052,1122.3441,846.6463,1131.85,844.07" style="stroke:#181818;stroke-width:1;"/><text fill="#000000" font-family="sans-serif" font-size="13" lengthAdjust="spacing" textLength="63.0068" x="991.73" y="819.8569">&#171;include&#187;</text></g><!--link UC_CREATE_LES to UC_CREATE_SEC--><g class="link" data-entity-1="ent0017" data-entity-2="ent0013" data-link-type="dependency" data-source-line="52" id="lnk31"><path d="M628.93,609.11 C680.37,648.22 811.3838,747.8185 863.4538,787.4085" fill="none" id="UC_CREATE_LES-to-UC_CREATE_SEC" style="stroke:#181818;stroke-width:1;stroke-dasharray:7,7;"/><polygon fill="#181818" points="868.23,791.04,863.4866,782.4086,864.2498,788.0138,858.6447,788.7769,868.23,791.04" style="stroke:#181818;stroke-width:1;"/><text fill="#000000" font-family="sans-serif" font-size="13" lengthAdjust="spacing" textLength="63.0068" x="727.17" y="683.8569">&#171;include&#187;</text></g><!--link UC_CREATE_TEST to UC_CREATE_SEC--><g class="link" data-entity-1="ent0022" data-entity-2="ent0013" data-link-type="dependency" data-source-line="53" id="lnk32"><path d="M633.64,946.21 C685.87,917.69 801.4038,854.5952 856.0038,824.7852" fill="none" id="UC_CREATE_TEST-to-UC_CREATE_SEC" style="stroke:#181818;stroke-width:1;stroke-dasharray:7,7;"/><polygon fill="#181818" points="861.27,821.91,851.4538,822.712,856.8815,824.306,855.2875,829.7336,861.27,821.91" style="stroke:#181818;stroke-width:1;"/><text fill="#000000" font-family="sans-serif" font-size="13" lengthAdjust="spacing" textLength="63.0068" x="727.17" y="856.8569">&#171;include&#187;</text></g><!--link UC_UPLOAD to UC_CREATE_LES--><g class="link" data-entity-1="ent0020" data-entity-2="ent0017" data-link-type="dependency" data-source-line="54" id="lnk33"><path d="M334.92,652.53 C379.34,643.84 438.33,632.03 490.32,620.79 C513.04,615.88 532.3294,611.4736 553.4194,606.5136" fill="none" id="UC_UPLOAD-to-UC_CREATE_LES" style="stroke:#181818;stroke-width:1;stroke-dasharray:7,7;"/><polygon fill="#181818" points="559.26,605.14,549.5833,603.3067,554.3928,606.2847,551.4148,611.0942,559.26,605.14" style="stroke:#181818;stroke-width:1;"/><text fill="#000000" font-family="sans-serif" font-size="13" lengthAdjust="spacing" textLength="63.0068" x="426.32" y="616.8569">&#171;include&#187;</text></g><!--link UC_MOVE_SEC to UC_CREATE_SEC--><g class="link" data-entity-1="ent0014" data-entity-2="ent0013" data-link-type="dependency" data-source-line="57" id="lnk34"><path d="M666.74,837.88 C702.61,833.51 749.6,827.6 791.17,821.79 C804.35,819.95 812.5789,818.757 825.9189,816.717" fill="none" id="UC_MOVE_SEC-to-UC_CREATE_SEC" style="stroke:#181818;stroke-width:1;stroke-dasharray:7,7;"/><polygon fill="#181818" points="831.85,815.81,822.3488,813.2165,826.9075,816.5658,823.5581,821.1245,831.85,815.81" style="stroke:#181818;stroke-width:1;"/><text fill="#000000" font-family="sans-serif" font-size="13" lengthAdjust="spacing" textLength="61.1851" x="728.17" y="817.8569">&#171;extend&#187;</text></g><!--link UC_DEL_SEC to UC_CREATE_SEC--><g class="link" data-entity-1="ent0015" data-entity-2="ent0013" data-link-type="dependency" data-source-line="58" id="lnk35"><path d="M670.96,784.23 C717.23,789.02 774.1518,794.9131 820.4918,799.7031" fill="none" id="UC_DEL_SEC-to-UC_CREATE_SEC" style="stroke:#181818;stroke-width:1;stroke-dasharray:7,7;"/><polygon fill="#181818" points="826.46,800.32,817.919,795.4158,821.4865,799.8059,817.0964,803.3734,826.46,800.32" style="stroke:#181818;stroke-width:1;"/><text fill="#000000" font-family="sans-serif" font-size="13" lengthAdjust="spacing" textLength="61.1851" x="728.17" y="786.8569">&#171;extend&#187;</text></g><!--link UC_EDIT_LES to UC_CREATE_LES--><g class="link" data-entity-1="ent0018" data-entity-2="ent0017" data-link-type="dependency" data-source-line="59" id="lnk36"><path d="M313.49,538.69 C376.65,550.56 482.2231,570.3926 548.0431,582.7526" fill="none" id="UC_EDIT_LES-to-UC_CREATE_LES" style="stroke:#181818;stroke-width:1;stroke-dasharray:7,7;"/><polygon fill="#181818" points="553.94,583.86,545.8328,578.2677,549.0259,582.9372,544.3564,586.1303,553.94,583.86" style="stroke:#181818;stroke-width:1;"/><text fill="#000000" font-family="sans-serif" font-size="13" lengthAdjust="spacing" textLength="61.1851" x="427.32" y="556.8569">&#171;extend&#187;</text></g><!--link UC_MOVE_LES to UC_CREATE_LES--><g class="link" data-entity-1="ent0019" data-entity-2="ent0017" data-link-type="dependency" data-source-line="60" id="lnk37"><path d="M329.42,594.93 C374.33,595 436.02,595.02 490.32,594.79 C506.4,594.72 517.7202,594.6517 533.9602,594.5117" fill="none" id="UC_MOVE_LES-to-UC_CREATE_LES" style="stroke:#181818;stroke-width:1;stroke-dasharray:7,7;"/><polygon fill="#181818" points="539.96,594.46,530.9259,590.5377,534.9602,594.5031,530.9948,598.5374,539.96,594.46" style="stroke:#181818;stroke-width:1;"/><text fill="#000000" font-family="sans-serif" font-size="13" lengthAdjust="spacing" textLength="61.1851" x="427.32" y="590.8569">&#171;extend&#187;</text></g><!--link I to UC_LOGIN--><g class="link" data-entity-1="ent0002" data-entity-2="ent0005" data-link-type="association" data-source-line="63" id="lnk38"><path d="M41.22,372.55 C43.65,317.39 56.17,215.49 112.92,154.79 C162.76,101.49 191.15,90.79 264.12,90.79 C264.12,90.79 264.12,90.79 1190.24,90.79 C1427.82,90.79 1254.65,414.26 1439.27,563.79 C1456.39,577.66 1478.86,585.88 1499.74,590.74" fill="none" id="I-UC_LOGIN" style="stroke:#181818;stroke-width:1;"/></g><!--link I to UC_PROFILE--><g class="link" data-entity-1="ent0002" data-entity-2="ent0006" data-link-type="association" data-source-line="64" id="lnk39"><path d="M42.93,372.44 C47.82,292.02 63.23,109.49 103.92,64.79 C153.71,10.1 190.17,19.79 264.12,19.79 C264.12,19.79 264.12,19.79 1190.24,19.79 C1279.41,19.79 1318.72,6 1385.76,64.79 C1529.56,190.9 1554.67,447.64 1558.83,514.55" fill="none" id="I-UC_PROFILE" style="stroke:#181818;stroke-width:1;"/></g><!--link I to UC_CREATE--><g class="link" data-entity-1="ent0002" data-entity-2="ent0008" data-link-type="association" data-source-line="65" id="lnk40"><path d="M41.45,449.24 C43.54,559.27 54.61,872.74 112.92,953.79 C156.62,1014.52 189.31,1027.79 264.12,1027.79 C264.12,1027.79 264.12,1027.79 890.95,1027.79 C1015.82,1027.79 1134.49,911.71 1174.23,868.63" fill="none" id="I-UC_CREATE" style="stroke:#181818;stroke-width:1;"/></g><!--link I to UC_EDIT--><g class="link" data-entity-1="ent0002" data-entity-2="ent0009" data-link-type="association" data-source-line="66" id="lnk41"><path d="M42.2,372.49 C45.77,326.75 58.67,250.9 103.92,206.79 C156.88,155.17 190.17,161.79 264.12,161.79 C264.12,161.79 264.12,161.79 890.95,161.79 C966.87,161.79 1002.32,152.84 1055.73,206.79 C1125.88,277.64 1173.32,599.67 1185.28,688.84" fill="none" id="I-UC_EDIT" style="stroke:#181818;stroke-width:1;"/></g><!--link I to UC_DELETE--><g class="link" data-entity-1="ent0002" data-entity-2="ent0010" data-link-type="association" data-source-line="67" id="lnk42"><path d="M65.31,372.17 C101.65,319.82 175.41,232.79 264.12,232.79 C264.12,232.79 264.12,232.79 890.95,232.79 C1134.06,232.79 887.18,584.66 1063.73,751.79 C1080.25,767.43 1103.24,776.01 1124.98,780.67" fill="none" id="I-UC_DELETE" style="stroke:#181818;stroke-width:1;"/></g><!--link I to UC_MY_COURSES--><g class="link" data-entity-1="ent0002" data-entity-2="ent0011" data-link-type="association" data-source-line="68" id="lnk43"><path d="M40.45,449.05 C39.59,570.16 42.79,942.64 112.92,1035.79 C156.71,1093.95 191.32,1098.79 264.12,1098.79 C264.12,1098.79 264.12,1098.79 1190.24,1098.79 C1371.38,1098.79 1509.3,876.99 1548.41,806.81" fill="none" id="I-UC_MY_COURSES" style="stroke:#181818;stroke-width:1;"/></g><!--link I to UC_CREATE_SEC--><g class="link" data-entity-1="ent0002" data-entity-2="ent0013" data-link-type="association" data-source-line="69" id="lnk44"><path d="M74.29,379.45 C85.68,370.7 99.07,362.34 112.92,357.79 C272.6,305.33 334.03,319.98 490.32,381.79 C589.26,420.92 622.39,425.14 699.17,498.79 C795.03,590.75 862.03,740.99 882.43,790.44" fill="none" id="I-UC_CREATE_SEC" style="stroke:#181818;stroke-width:1;"/></g><!--link I to UC_CREATE_LES--><g class="link" data-entity-1="ent0002" data-entity-2="ent0017" data-link-type="association" data-source-line="70" id="lnk45"><path d="M74.34,401.65 C152.7,382.18 352.21,344.25 490.32,419.79 C554.26,454.76 589.48,541.69 601.75,577.73" fill="none" id="I-UC_CREATE_LES" style="stroke:#181818;stroke-width:1;"/></g><!--link I to UC_CREATE_TEST--><g class="link" data-entity-1="ent0002" data-entity-2="ent0022" data-link-type="association" data-source-line="71" id="lnk46"><path d="M74.27,412.24 C168.78,417.09 435.29,436.16 490.32,498.79 C547.21,563.53 475.72,809.25 515.32,885.79 C529.5,913.18 558.77,934.01 580.4,946.48" fill="none" id="I-UC_CREATE_TEST" style="stroke:#181818;stroke-width:1;"/></g><!--link I to UC_BROWSE--><g class="link" data-entity-1="ent0002" data-entity-2="ent0024" data-link-type="association" data-source-line="72" id="lnk47"><path d="M41.37,449.1 C43.28,550.68 53.9,823.41 112.92,886.79 C133.18,908.55 164.12,917.86 192.75,921.41" fill="none" id="I-UC_BROWSE" style="stroke:#181818;stroke-width:1;"/></g><!--link I to UC_ENROLL--><g class="link" data-entity-1="ent0002" data-entity-2="ent0025" data-link-type="association" data-source-line="73" id="lnk48"><path d="M40.56,449.21 C41.92,509.54 52.78,627.27 112.92,701.79 C139.54,734.77 184.51,754.13 218.51,764.72" fill="none" id="I-UC_ENROLL" style="stroke:#181818;stroke-width:1;"/></g><!--link I to UC_LEARN--><g class="link" data-entity-1="ent0002" data-entity-2="ent0026" data-link-type="association" data-source-line="74" id="lnk49"><path d="M42.75,449.18 C47.71,538.53 64.59,756.77 112.92,808.79 C128.97,826.07 151.58,836.11 174.43,841.83" fill="none" id="I-UC_LEARN" style="stroke:#181818;stroke-width:1;"/></g><?plantuml-src ZPJ1RgCm48RlFCM8msxtqEvzrLPAYHiXEQM2f5LFbGKJOiMr8sEsMwtwxci39W4QRMwC_Otdds5c16uC60MQbri31TUO6wvaKEsut3FDtc3FyXqhCJCV0i5TCraAF0Bg2dDM8VmD0EuiN6fLoo9IGccWxjaN54Azkrkb2zJjpPpfNIQOmOLc7y5d4B3SsECmbfNHjViEWLKG1q4V4q9IAi4Pa4kAJ4ikIyW-AeDleGrkt--aGZYhpHQbuJbpoS25jtS_maOczA93gaekuITal9GGooReEdgboI9-69BhVM7bmgDM6oxGWuzfSXzJOj7FWOH8rTfwBPcqvfiDFeaSQNJljQ1_Bah9R4L6uDQcZxQs5Syxt2hTAEz3vl5gw357WPEdvuIIyTCBD72eUETGUO_boskKhDECP9FqihPFpiYl8uS9lcOa6j9BzNl2BfEdByWkkH5hi-lGeL2ALNMMpXOSoQHDwaSmARWPeQxyKx39PmWswKn0zmlMUw5O0K-yG0Nhb7gFzIDDPlD9JYkip1aPEMoKpufagozAP8S9DTnRhrfZ1HTSRb5pWyLqNkwqUgzmt2btQVASZNgBIAs463KXUKWJIaSZwEB3DrXfgyZDLsb5z4zJCaiVlERlS7DpOpis5tM1xjkUzTd1rTLjFxlm2wwlUGlUthQO-rCUElJsLsGxA-UnXuxsV2VdD6kROCWstgTvzzlESsWxPiJIYV2-bEIFGLaSAkb7xaGqRF2ZAftD-Yav8Mq8-qdv7snx8eRBoyF2zfRVojxkrgetcutfZMulUlDewGszc_KoEg9JgXanVzRDHH-txVvUSzFQ_m00?></g></svg>