<?plantuml 1.2026.1?><svg xmlns="http://www.w3.org/2000/svg" xmlns:xlink="http://www.w3.org/1999/xlink" contentStyleType="text/css" data-diagram-type="SEQUENCE" height="997px" preserveAspectRatio="none" style="width:1852px;height:997px;background:#FFFFFF;" version="1.1" viewBox="0 0 1852 997" width="1852px" zoomAndPan="magnify"><defs/><g><rect fill="#ADD8E6" height="985.25" style="stroke:#181818;stroke-width:0.5;" width="102.4434" x="437.9805" y="6"/><text fill="#000000" font-family="sans-serif" font-size="13" font-weight="bold" lengthAdjust="spacing" textLength="92.6821" x="442.8611" y="18.0669">API Gateway</text><rect fill="#FFB6C1" height="985.25" style="stroke:#181818;stroke-width:0.5;" width="479.4917" x="653.1563" y="6"/><text fill="#000000" font-family="sans-serif" font-size="13" font-weight="bold" lengthAdjust="spacing" textLength="104.8633" x="840.4705" y="18.0669">Billing Service</text><rect fill="#FFFFE0" height="985.25" style="stroke:#181818;stroke-width:0.5;" width="342.2505" x="1154.6479" y="6"/><text fill="#000000" font-family="sans-serif" font-size="13" font-weight="bold" lengthAdjust="spacing" textLength="109.2622" x="1271.1421" y="18.0669">Course Service</text><rect fill="#90EE90" height="985.25" style="stroke:#181818;stroke-width:0.5;" width="310.1826" x="1518.8984" y="6"/><text fill="#000000" font-family="sans-serif" font-size="13" font-weight="bold" lengthAdjust="spacing" textLength="92.0918" x="1627.9438" y="18.0669">User Service</text><g><title>Admin</title><rect fill="#FFFFFF" height="153.6641" style="stroke:#181818;stroke-width:1;" width="10" x="40.4321" y="118.5625"/></g><g><title>WebApp</title><rect fill="#FFFFFF" height="153.6641" style="stroke:#181818;stroke-width:1;" width="10" x="273.6519" y="118.5625"/></g><g><title>API Gateway</title><rect fill="#FFFFFF" height="649.5938" style="stroke:#181818;stroke-width:1;" width="10" x="484.2021" y="147.6953"/></g><g><title>AdminBillingController</title><rect fill="#FFFFFF" height="145.6641" style="stroke:#181818;stroke-width:1;" width="10" x="733.6362" y="340.2969"/></g><g><title>BillingApp</title><rect fill="#FFFFFF" height="87.3984" style="stroke:#181818;stroke-width:1;" width="10" x="875.8223" y="369.4297"/></g><g><title>BillingDB</title><rect fill="#FFFFFF" height="29.1328" style="stroke:#181818;stroke-width:1;" width="10" x="1088.9941" y="398.5625"/></g><g><title>AdminCourseController</title><rect fill="#FFFFFF" height="87.3984" style="stroke:#181818;stroke-width:1;" width="10" x="1238.105" y="515.0938"/></g><g><title>CourseDB</title><rect fill="#FFFFFF" height="29.1328" style="stroke:#181818;stroke-width:1;" width="10" x="1450.2676" y="544.2266"/></g><g><title>AdminUserController</title><rect fill="#FFFFFF" height="87.3984" style="stroke:#181818;stroke-width:1;" width="10" x="1593.8721" y="631.625"/></g><g><title>UserDB</title><rect fill="#FFFFFF" height="29.1328" style="stroke:#181818;stroke-width:1;" width="10" x="1790.9336" y="660.7578"/></g><rect fill="none" height="690.125" style="stroke:#000000;stroke-width:1.5;" width="1835.0811" x="10" y="204.8281"/><rect fill="none" height="424.9922" style="stroke:#000000;stroke-width:1.5;" width="1403.1006" x="431.9805" y="302.0313"/><g class="participant-lifeline" data-entity-uid="part1" data-qualified-name="A" id="part1-lifeline"><g><title>Admin</title><rect fill="#000000" fill-opacity="0.00000" height="824.5234" width="8" x="41.4321" y="87.4297"/><line style="stroke:#181818;stroke-width:0.5;stroke-dasharray:5,5;" x1="45" x2="45" y1="87.4297" y2="911.9531"/></g></g><g class="participant-lifeline" data-entity-uid="part2" data-qualified-name="WA" id="part2-lifeline"><g><title>WebApp</title><rect fill="#000000" fill-opacity="0.00000" height="824.5234" width="8" x="274.6519" y="87.4297"/><line style="stroke:#181818;stroke-width:0.5;stroke-dasharray:5,5;" x1="278.3052" x2="278.3052" y1="87.4297" y2="911.9531"/></g></g><g class="participant-lifeline" data-entity-uid="part3" data-qualified-name="GW" id="part3-lifeline"><g><title>API Gateway</title><rect fill="#000000" fill-opacity="0.00000" height="824.5234" width="8" x="485.2021" y="87.4297"/><line style="stroke:#181818;stroke-width:0.5;stroke-dasharray:5,5;" x1="488.9805" x2="488.9805" y1="87.4297" y2="911.9531"/></g></g><g class="participant-lifeline" data-entity-uid="part4" data-qualified-name="ABC" id="part4-lifeline"><g><title>AdminBillingController</title><rect fill="#000000" fill-opacity="0.00000" height="824.5234" width="8" x="734.6362" y="87.4297"/><line style="stroke:#181818;stroke-width:0.5;stroke-dasharray:5,5;" x1="738.1563" x2="738.1563" y1="87.4297" y2="911.9531"/></g></g><g class="participant-lifeline" data-entity-uid="part5" data-qualified-name="BA" id="part5-lifeline"><g><title>BillingApp</title><rect fill="#000000" fill-opacity="0.00000" height="824.5234" width="8" x="876.8223" y="87.4297"/><line style="stroke:#181818;stroke-width:0.5;stroke-dasharray:5,5;" x1="880.6855" x2="880.6855" y1="87.4297" y2="911.9531"/></g></g><g class="participant-lifeline" data-entity-uid="part6" data-qualified-name="BDB" id="part6-lifeline"><g><title>BillingDB</title><rect fill="#000000" fill-opacity="0.00000" height="824.5234" width="8" x="1089.9941" y="87.4297"/><line style="stroke:#181818;stroke-width:0.5;stroke-dasharray:5,5;" x1="1093.3403" x2="1093.3403" y1="87.4297" y2="911.9531"/></g></g><g class="participant-lifeline" data-entity-uid="part7" data-qualified-name="ACC" id="part7-lifeline"><g><title>AdminCourseController</title><rect fill="#000000" fill-opacity="0.00000" height="824.5234" width="8" x="1239.105" y="87.4297"/><line style="stroke:#181818;stroke-width:0.5;stroke-dasharray:5,5;" x1="1242.6479" x2="1242.6479" y1="87.4297" y2="911.9531"/></g></g><g class="participant-lifeline" data-entity-uid="part8" data-qualified-name="CDB" id="part8-lifeline"><g><title>CourseDB</title><rect fill="#000000" fill-opacity="0.00000" height="824.5234" width="8" x="1451.2676" y="87.4297"/><line style="stroke:#181818;stroke-width:0.5;stroke-dasharray:5,5;" x1="1454.6367" x2="1454.6367" y1="87.4297" y2="911.9531"/></g></g><g class="participant-lifeline" data-entity-uid="part9" data-qualified-name="AUC" id="part9-lifeline"><g><title>AdminUserController</title><rect fill="#000000" fill-opacity="0.00000" height="824.5234" width="8" x="1594.8721" y="87.4297"/><line style="stroke:#181818;stroke-width:0.5;stroke-dasharray:5,5;" x1="1597.8984" x2="1597.8984" y1="87.4297" y2="911.9531"/></g></g><g class="participant-lifeline" data-entity-uid="part10" data-qualified-name="UDB" id="part10-lifeline"><g><title>UserDB</title><rect fill="#000000" fill-opacity="0.00000" height="824.5234" width="8" x="1791.9336" y="87.4297"/><line style="stroke:#181818;stroke-width:0.5;stroke-dasharray:5,5;" x1="1795.7861" x2="1795.7861" y1="87.4297" y2="911.9531"/></g></g><g class="participant participant-head" data-entity-uid="part1" data-qualified-name="A" id="part1-head"><text fill="#000000" font-family="sans-serif" font-size="14" lengthAdjust="spacing" textLength="44.8643" x="20" y="84.1279">Admin</text><ellipse cx="45.4321" cy="19.6328" fill="#E2E2F0" rx="8" ry="8" style="stroke:#181818;stroke-width:0.5;"/><path d="M45.4321,27.6328 L45.4321,54.6328 M32.4321,35.6328 L58.4321,35.6328 M45.4321,54.6328 L32.4321,69.6328 M45.4321,54.6328 L58.4321,69.6328" fill="none" style="stroke:#181818;stroke-width:0.5;"/></g><g class="participant participant-tail" data-entity-uid="part1" data-qualified-name="A" id="part1-tail"><text fill="#000000" font-family="sans-serif" font-size="14" lengthAdjust="spacing" textLength="44.8643" x="20" y="923.9482">Admin</text><ellipse cx="45.4321" cy="935.75" fill="#E2E2F0" rx="8" ry="8" style="stroke:#181818;stroke-width:0.5;"/><path d="M45.4321,943.75 L45.4321,970.75 M32.4321,951.75 L58.4321,951.75 M45.4321,970.75 L32.4321,985.75 M45.4321,970.75 L58.4321,985.75" fill="none" style="stroke:#181818;stroke-width:0.5;"/></g><g class="participant participant-head" data-entity-uid="part2" data-qualified-name="WA" id="part2-head"><text fill="#000000" font-family="sans-serif" font-size="14" lengthAdjust="spacing" textLength="58.6934" x="246.3052" y="84.1279">WebApp</text><path d="M258.1519,43.1328 L258.1519,67.1328 M258.1519,55.1328 L275.1519,55.1328" fill="none" style="stroke:#181818;stroke-width:0.5;"/><ellipse cx="287.1519" cy="55.1328" fill="#E2E2F0" rx="12" ry="12" style="stroke:#181818;stroke-width:0.5;"/></g><g class="participant participant-tail" data-entity-uid="part2" data-qualified-name="WA" id="part2-tail"><text fill="#000000" font-family="sans-serif" font-size="14" lengthAdjust="spacing" textLength="58.6934" x="246.3052" y="923.9482">WebApp</text><path d="M258.1519,931.25 L258.1519,955.25 M258.1519,943.25 L275.1519,943.25" fill="none" style="stroke:#181818;stroke-width:0.5;"/><ellipse cx="287.1519" cy="943.25" fill="#E2E2F0" rx="12" ry="12" style="stroke:#181818;stroke-width:0.5;"/></g><g class="participant participant-head" data-entity-uid="part3" data-qualified-name="GW" id="part3-head"><text fill="#000000" font-family="sans-serif" font-size="14" lengthAdjust="spacing" textLength="88.4434" x="441.9805" y="84.1279">API Gateway</text><ellipse cx="489.2021" cy="55.1328" fill="#E2E2F0" rx="12" ry="12" style="stroke:#181818;stroke-width:0.5;"/><polygon fill="#181818" points="485.2021,43.1328,491.2021,38.1328,489.2021,43.1328,491.2021,48.1328,485.2021,43.1328" style="stroke:#181818;stroke-width:1;"/></g><g class="participant participant-tail" data-entity-uid="part3" data-qualified-name="GW" id="part3-tail"><text fill="#000000" font-family="sans-serif" font-size="14" lengthAdjust="spacing" textLength="88.4434" x="441.9805" y="923.9482">API Gateway</text><ellipse cx="489.2021" cy="943.25" fill="#E2E2F0" rx="12" ry="12" style="stroke:#181818;stroke-width:0.5;"/><polygon fill="#181818" points="485.2021,931.25,491.2021,926.25,489.2021,931.25,491.2021,936.25,485.2021,931.25" style="stroke:#181818;stroke-width:1;"/></g><g class="participant participant-head" data-entity-uid="part4" data-qualified-name="ABC" id="part4-head"><text fill="#000000" font-family="sans-serif" font-size="14" lengthAdjust="spacing" textLength="156.96" x="657.1563" y="84.1279">AdminBillingController</text><ellipse cx="738.6362" cy="55.1328" fill="#E2E2F0" rx="12" ry="12" style="stroke:#181818;stroke-width:0.5;"/><polygon fill="#181818" points="734.6362,43.1328,740.6362,38.1328,738.6362,43.1328,740.6362,48.1328,734.6362,43.1328" style="stroke:#181818;stroke-width:1;"/></g><g class="participant participant-tail" data-entity-uid="part4" data-qualified-name="ABC" id="part4-tail"><text fill="#000000" font-family="sans-serif" font-size="14" lengthAdjust="spacing" textLength="156.96" x="657.1563" y="923.9482">AdminBillingController</text><ellipse cx="738.6362" cy="943.25" fill="#E2E2F0" rx="12" ry="12" style="stroke:#181818;stroke-width:0.5;"/><polygon fill="#181818" points="734.6362,931.25,740.6362,926.25,738.6362,931.25,740.6362,936.25,734.6362,931.25" style="stroke:#181818;stroke-width:1;"/></g><g class="participant participant-head" data-entity-uid="part5" data-qualified-name="BA" id="part5-head"><text fill="#000000" font-family="sans-serif" font-size="14" lengthAdjust="spacing" textLength="70.2734" x="842.6855" y="84.1279">BillingApp</text><ellipse cx="880.8223" cy="55.1328" fill="#E2E2F0" rx="12" ry="12" style="stroke:#181818;stroke-width:0.5;"/><polygon fill="#181818" points="876.8223,43.1328,882.8223,38.1328,880.8223,43.1328,882.8223,48.1328,876.8223,43.1328" style="stroke:#181818;stroke-width:1;"/></g><g class="participant participant-tail" data-entity-uid="part5" data-qualified-name="BA" id="part5-tail"><text fill="#000000" font-family="sans-serif" font-size="14" lengthAdjust="spacing" textLength="70.2734" x="842.6855" y="923.9482">BillingApp</text><ellipse cx="880.8223" cy="943.25" fill="#E2E2F0" rx="12" ry="12" style="stroke:#181818;stroke-width:0.5;"/><polygon fill="#181818" points="876.8223,931.25,882.8223,926.25,880.8223,931.25,882.8223,936.25,876.8223,931.25" style="stroke:#181818;stroke-width:1;"/></g><g class="participant participant-head" data-entity-uid="part6" data-qualified-name="BDB" id="part6-head"><text fill="#000000" font-family="sans-serif" font-size="14" lengthAdjust="spacing" textLength="63.3076" x="1059.3403" y="84.1279">BillingDB</text><path d="M1075.9941,35.1328 C1075.9941,25.1328 1093.9941,25.1328 1093.9941,25.1328 C1093.9941,25.1328 1111.9941,25.1328 1111.9941,35.1328 L1111.9941,61.1328 C1111.9941,71.1328 1093.9941,71.1328 1093.9941,71.1328 C1093.9941,71.1328 1075.9941,71.1328 1075.9941,61.1328 L1075.9941,35.1328" fill="#E2E2F0" style="stroke:#181818;stroke-width:0.5;"/><path d="M1075.9941,35.1328 C1075.9941,45.1328 1093.9941,45.1328 1093.9941,45.1328 C1093.9941,45.1328 1111.9941,45.1328 1111.9941,35.1328" fill="none" style="stroke:#181818;stroke-width:0.5;"/></g><g class="participant participant-tail" data-entity-uid="part6" data-qualified-name="BDB" id="part6-tail"><text fill="#000000" font-family="sans-serif" font-size="14" lengthAdjust="spacing" textLength="63.3076" x="1059.3403" y="923.9482">BillingDB</text><path d="M1075.9941,937.25 C1075.9941,927.25 1093.9941,927.25 1093.9941,927.25 C1093.9941,927.25 1111.9941,927.25 1111.9941,937.25 L1111.9941,963.25 C1111.9941,973.25 1093.9941,973.25 1093.9941,973.25 C1093.9941,973.25 1075.9941,973.25 1075.9941,963.25 L1075.9941,937.25" fill="#E2E2F0" style="stroke:#181818;stroke-width:0.5;"/><path d="M1075.9941,937.25 C1075.9941,947.25 1093.9941,947.25 1093.9941,947.25 C1093.9941,947.25 1111.9941,947.25 1111.9941,937.25" fill="none" style="stroke:#181818;stroke-width:0.5;"/></g><g class="participant participant-head" data-entity-uid="part7" data-qualified-name="ACC" id="part7-head"><text fill="#000000" font-family="sans-serif" font-size="14" lengthAdjust="spacing" textLength="162.9141" x="1158.6479" y="84.1279">AdminCourseController</text><ellipse cx="1243.105" cy="55.1328" fill="#E2E2F0" rx="12" ry="12" style="stroke:#181818;stroke-width:0.5;"/><polygon fill="#181818" points="1239.105,43.1328,1245.105,38.1328,1243.105,43.1328,1245.105,48.1328,1239.105,43.1328" style="stroke:#181818;stroke-width:1;"/></g><g class="participant participant-tail" data-entity-uid="part7" data-qualified-name="ACC" id="part7-tail"><text fill="#000000" font-family="sans-serif" font-size="14" lengthAdjust="spacing" textLength="162.9141" x="1158.6479" y="923.9482">AdminCourseController</text><ellipse cx="1243.105" cy="943.25" fill="#E2E2F0" rx="12" ry="12" style="stroke:#181818;stroke-width:0.5;"/><polygon fill="#181818" points="1239.105,931.25,1245.105,926.25,1243.105,931.25,1245.105,936.25,1239.105,931.25" style="stroke:#181818;stroke-width:1;"/></g><g class="participant participant-head" data-entity-uid="part8" data-qualified-name="CDB" id="part8-head"><text fill="#000000" font-family="sans-serif" font-size="14" lengthAdjust="spacing" textLength="69.2617" x="1417.6367" y="84.1279">CourseDB</text><path d="M1437.2676,35.1328 C1437.2676,25.1328 1455.2676,25.1328 1455.2676,25.1328 C1455.2676,25.1328 1473.2676,25.1328 1473.2676,35.1328 L1473.2676,61.1328 C1473.2676,71.1328 1455.2676,71.1328 1455.2676,71.1328 C1455.2676,71.1328 1437.2676,71.1328 1437.2676,61.1328 L1437.2676,35.1328" fill="#E2E2F0" style="stroke:#181818;stroke-width:0.5;"/><path d="M1437.2676,35.1328 C1437.2676,45.1328 1455.2676,45.1328 1455.2676,45.1328 C1455.2676,45.1328 1473.2676,45.1328 1473.2676,35.1328" fill="none" style="stroke:#181818;stroke-width:0.5;"/></g><g class="participant participant-tail" data-entity-uid="part8" data-qualified-name="CDB" id="part8-tail"><text fill="#000000" font-family="sans-serif" font-size="14" lengthAdjust="spacing" textLength="69.2617" x="1417.6367" y="923.9482">CourseDB</text><path d="M1437.2676,937.25 C1437.2676,927.25 1455.2676,927.25 1455.2676,927.25 C1455.2676,927.25 1473.2676,927.25 1473.2676,937.25 L1473.2676,963.25 C1473.2676,973.25 1455.2676,973.25 1455.2676,973.25 C1455.2676,973.25 1437.2676,973.25 1437.2676,963.25 L1437.2676,937.25" fill="#E2E2F0" style="stroke:#181818;stroke-width:0.5;"/><path d="M1437.2676,937.25 C1437.2676,947.25 1455.2676,947.25 1455.2676,947.25 C1455.2676,947.25 1473.2676,947.25 1473.2676,937.25" fill="none" style="stroke:#181818;stroke-width:0.5;"/></g><g class="participant participant-head" data-entity-uid="part9" data-qualified-name="AUC" id="part9-head"><text fill="#000000" font-family="sans-serif" font-size="14" lengthAdjust="spacing" textLength="145.9473" x="1522.8984" y="84.1279">AdminUserController</text><ellipse cx="1598.8721" cy="55.1328" fill="#E2E2F0" rx="12" ry="12" style="stroke:#181818;stroke-width:0.5;"/><polygon fill="#181818" points="1594.8721,43.1328,1600.8721,38.1328,1598.8721,43.1328,1600.8721,48.1328,1594.8721,43.1328" style="stroke:#181818;stroke-width:1;"/></g><g class="participant participant-tail" data-entity-uid="part9" data-qualified-name="AUC" id="part9-tail"><text fill="#000000" font-family="sans-serif" font-size="14" lengthAdjust="spacing" textLength="145.9473" x="1522.8984" y="923.9482">AdminUserController</text><ellipse cx="1598.8721" cy="943.25" fill="#E2E2F0" rx="12" ry="12" style="stroke:#181818;stroke-width:0.5;"/><polygon fill="#181818" points="1594.8721,931.25,1600.8721,926.25,1598.8721,931.25,1600.8721,936.25,1594.8721,931.25" style="stroke:#181818;stroke-width:1;"/></g><g class="participant participant-head" data-entity-uid="part10" data-qualified-name="UDB" id="part10-head"><text fill="#000000" font-family="sans-serif" font-size="14" lengthAdjust="spacing" textLength="52.2949" x="1766.7861" y="84.1279">UserDB</text><path d="M1777.9336,35.1328 C1777.9336,25.1328 1795.9336,25.1328 1795.9336,25.1328 C1795.9336,25.1328 1813.9336,25.1328 1813.9336,35.1328 L1813.9336,61.1328 C1813.9336,71.1328 1795.9336,71.1328 1795.9336,71.1328 C1795.9336,71.1328 1777.9336,71.1328 1777.9336,61.1328 L1777.9336,35.1328" fill="#E2E2F0" style="stroke:#181818;stroke-width:0.5;"/><path d="M1777.9336,35.1328 C1777.9336,45.1328 1795.9336,45.1328 1795.9336,45.1328 C1795.9336,45.1328 1813.9336,45.1328 1813.9336,35.1328" fill="none" style="stroke:#181818;stroke-width:0.5;"/></g><g class="participant participant-tail" data-entity-uid="part10" data-qualified-name="UDB" id="part10-tail"><text fill="#000000" font-family="sans-serif" font-size="14" lengthAdjust="spacing" textLength="52.2949" x="1766.7861" y="923.9482">UserDB</text><path d="M1777.9336,937.25 C1777.9336,927.25 1795.9336,927.25 1795.9336,927.25 C1795.9336,927.25 1813.9336,927.25 1813.9336,937.25 L1813.9336,963.25 C1813.9336,973.25 1795.9336,973.25 1795.9336,973.25 C1795.9336,973.25 1777.9336,973.25 1777.9336,963.25 L1777.9336,937.25" fill="#E2E2F0" style="stroke:#181818;stroke-width:0.5;"/><path d="M1777.9336,937.25 C1777.9336,947.25 1795.9336,947.25 1795.9336,947.25 C1795.9336,947.25 1813.9336,947.25 1813.9336,937.25" fill="none" style="stroke:#181818;stroke-width:0.5;"/></g><g><title>Admin</title><rect fill="#FFFFFF" height="153.6641" style="stroke:#181818;stroke-width:1;" width="10" x="40.4321" y="118.5625"/></g><g><title>WebApp</title><rect fill="#FFFFFF" height="153.6641" style="stroke:#181818;stroke-width:1;" width="10" x="273.6519" y="118.5625"/></g><g><title>API Gateway</title><rect fill="#FFFFFF" height="649.5938" style="stroke:#181818;stroke-width:1;" width="10" x="484.2021" y="147.6953"/></g><g><title>AdminBillingController</title><rect fill="#FFFFFF" height="145.6641" style="stroke:#181818;stroke-width:1;" width="10" x="733.6362" y="340.2969"/></g><g><title>BillingApp</title><rect fill="#FFFFFF" height="87.3984" style="stroke:#181818;stroke-width:1;" width="10" x="875.8223" y="369.4297"/></g><g><title>BillingDB</title><rect fill="#FFFFFF" height="29.1328" style="stroke:#181818;stroke-width:1;" width="10" x="1088.9941" y="398.5625"/></g><g><title>AdminCourseController</title><rect fill="#FFFFFF" height="87.3984" style="stroke:#181818;stroke-width:1;" width="10" x="1238.105" y="515.0938"/></g><g><title>CourseDB</title><rect fill="#FFFFFF" height="29.1328" style="stroke:#181818;stroke-width:1;" width="10" x="1450.2676" y="544.2266"/></g><g><title>AdminUserController</title><rect fill="#FFFFFF" height="87.3984" style="stroke:#181818;stroke-width:1;" width="10" x="1593.8721" y="631.625"/></g><g><title>UserDB</title><rect fill="#FFFFFF" height="29.1328" style="stroke:#181818;stroke-width:1;" width="10" x="1790.9336" y="660.7578"/></g><g class="message" data-entity-1="part1" data-entity-2="part2" id="msg1"><polygon fill="#181818" points="261.6519,114.5625,271.6519,118.5625,261.6519,122.5625,265.6519,118.5625" style="stroke:#181818;stroke-width:1;"/><line style="stroke:#181818;stroke-width:1;" x1="50.4321" x2="267.6519" y1="118.5625" y2="118.5625"/><text fill="#000000" font-family="sans-serif" font-size="13" font-weight="bold" lengthAdjust="spacing" textLength="9.0454" x="57.4321" y="113.4966">1</text><text fill="#000000" font-family="sans-serif" font-size="13" lengthAdjust="spacing" textLength="196.1743" x="70.4775" y="113.4966">Navigate to Admin Dashboard</text></g><g class="message" data-entity-1="part2" data-entity-2="part3" id="msg2"><polygon fill="#181818" points="472.2021,143.6953,482.2021,147.6953,472.2021,151.6953,476.2021,147.6953" style="stroke:#181818;stroke-width:1;"/><line style="stroke:#181818;stroke-width:1;" x1="283.6519" x2="478.2021" y1="147.6953" y2="147.6953"/><text fill="#000000" font-family="sans-serif" font-size="13" font-weight="bold" lengthAdjust="spacing" textLength="9.0454" x="290.6519" y="142.6294">2</text><text fill="#000000" font-family="sans-serif" font-size="13" lengthAdjust="spacing" textLength="168.5049" x="303.6973" y="142.6294">GET /admin/analytics/kpis</text></g><g class="message" data-entity-1="part3" data-entity-2="part3" id="msg3"><line style="stroke:#181818;stroke-width:1;" x1="494.2021" x2="536.2021" y1="176.8281" y2="176.8281"/><line style="stroke:#181818;stroke-width:1;" x1="536.2021" x2="536.2021" y1="176.8281" y2="189.8281"/><line style="stroke:#181818;stroke-width:1;" x1="495.2021" x2="536.2021" y1="189.8281" y2="189.8281"/><polygon fill="#181818" points="505.2021,185.8281,495.2021,189.8281,505.2021,193.8281,501.2021,189.8281" style="stroke:#181818;stroke-width:1;"/><text fill="#000000" font-family="sans-serif" font-size="13" font-weight="bold" lengthAdjust="spacing" textLength="9.0454" x="501.2021" y="171.7622">3</text><text fill="#000000" font-family="sans-serif" font-size="13" lengthAdjust="spacing" textLength="202.3887" x="514.2476" y="171.7622">Validate JWT, check admin role</text></g><path d="M10,204.8281 L74.4429,204.8281 L74.4429,211.9609 L64.4429,221.9609 L10,221.9609 L10,204.8281" fill="#EEEEEE" style="stroke:#000000;stroke-width:1.5;"/><rect fill="none" height="690.125" style="stroke:#000000;stroke-width:1.5;" width="1835.0811" x="10" y="204.8281"/><text fill="#000000" font-family="sans-serif" font-size="13" font-weight="bold" lengthAdjust="spacing" textLength="19.4429" x="25" y="217.895">alt</text><text fill="#000000" font-family="sans-serif" font-size="11" font-weight="bold" lengthAdjust="spacing" textLength="74.2661" x="89.4429" y="217.0386">[Not admin]</text><g class="message" data-entity-1="part3" data-entity-2="part2" id="msg4"><polygon fill="#181818" points="294.6519,239.0938,284.6519,243.0938,294.6519,247.0938,290.6519,243.0938" style="stroke:#181818;stroke-width:1;"/><line style="stroke:#181818;stroke-width:1;stroke-dasharray:2,2;" x1="288.6519" x2="483.2021" y1="243.0938" y2="243.0938"/><text fill="#000000" font-family="sans-serif" font-size="13" font-weight="bold" lengthAdjust="spacing" textLength="9.0454" x="300.6519" y="238.0278">4</text><text fill="#000000" font-family="sans-serif" font-size="13" lengthAdjust="spacing" textLength="94.3262" x="313.6973" y="238.0278">403 Forbidden</text></g><g class="message" data-entity-1="part2" data-entity-2="part1" id="msg5"><polygon fill="#181818" points="56.4321,268.2266,46.4321,272.2266,56.4321,276.2266,52.4321,272.2266" style="stroke:#181818;stroke-width:1;"/><line style="stroke:#181818;stroke-width:1;" x1="50.4321" x2="277.6519" y1="272.2266" y2="272.2266"/><text fill="#000000" font-family="sans-serif" font-size="13" font-weight="bold" lengthAdjust="spacing" textLength="9.0454" x="62.4321" y="267.1606">5</text><text fill="#000000" font-family="sans-serif" font-size="13" lengthAdjust="spacing" textLength="168.0859" x="75.4775" y="267.1606">Redirect to access denied</text></g><line style="stroke:#000000;stroke-width:1;stroke-dasharray:2,2;" x1="10" x2="1845.0811" y1="281.2266" y2="281.2266"/><text fill="#000000" font-family="sans-serif" font-size="11" font-weight="bold" lengthAdjust="spacing" textLength="62.8848" x="15" y="291.437">[Is admin]</text><path d="M431.9805,302.0313 L501.4697,302.0313 L501.4697,309.1641 L491.4697,319.1641 L431.9805,319.1641 L431.9805,302.0313" fill="#EEEEEE" style="stroke:#000000;stroke-width:1.5;"/><rect fill="none" height="424.9922" style="stroke:#000000;stroke-width:1.5;" width="1403.1006" x="431.9805" y="302.0313"/><text fill="#000000" font-family="sans-serif" font-size="13" font-weight="bold" lengthAdjust="spacing" textLength="24.4893" x="446.9805" y="315.0981">par</text><text fill="#000000" font-family="sans-serif" font-size="11" font-weight="bold" lengthAdjust="spacing" textLength="186.769" x="516.4697" y="314.2417">[Parallel requests to services]</text><g class="message" data-entity-1="part3" data-entity-2="part4" id="msg6"><polygon fill="#181818" points="721.6362,336.2969,731.6362,340.2969,721.6362,344.2969,725.6362,340.2969" style="stroke:#181818;stroke-width:1;"/><line style="stroke:#181818;stroke-width:1;" x1="494.2021" x2="727.6362" y1="340.2969" y2="340.2969"/><text fill="#000000" font-family="sans-serif" font-size="13" font-weight="bold" lengthAdjust="spacing" textLength="9.0454" x="501.2021" y="335.231">6</text><text fill="#000000" font-family="sans-serif" font-size="13" lengthAdjust="spacing" textLength="149.5889" x="514.2476" y="335.231">GET /admin/billing/kpis</text></g><g class="message" data-entity-1="part4" data-entity-2="part5" id="msg7"><polygon fill="#181818" points="863.8223,365.4297,873.8223,369.4297,863.8223,373.4297,867.8223,369.4297" style="stroke:#181818;stroke-width:1;"/><line style="stroke:#181818;stroke-width:1;" x1="743.6362" x2="869.8223" y1="369.4297" y2="369.4297"/><text fill="#000000" font-family="sans-serif" font-size="13" font-weight="bold" lengthAdjust="spacing" textLength="9.0454" x="750.6362" y="364.3638">7</text><text fill="#000000" font-family="sans-serif" font-size="13" lengthAdjust="spacing" textLength="100.1406" x="763.6816" y="364.3638">GetBillingKPIs()</text></g><g class="message" data-entity-1="part5" data-entity-2="part6" id="msg8"><polygon fill="#181818" points="1076.9941,394.5625,1086.9941,398.5625,1076.9941,402.5625,1080.9941,398.5625" style="stroke:#181818;stroke-width:1;"/><line style="stroke:#181818;stroke-width:1;" x1="885.8223" x2="1082.9941" y1="398.5625" y2="398.5625"/><text fill="#000000" font-family="sans-serif" font-size="13" font-weight="bold" lengthAdjust="spacing" textLength="9.0454" x="892.8223" y="393.4966">8</text><text fill="#000000" font-family="sans-serif" font-size="13" lengthAdjust="spacing" textLength="171.1265" x="905.8677" y="393.4966">Calculate revenue metrics</text></g><g class="message" data-entity-1="part6" data-entity-2="part5" id="msg9"><polygon fill="#181818" points="896.8223,423.6953,886.8223,427.6953,896.8223,431.6953,892.8223,427.6953" style="stroke:#181818;stroke-width:1;"/><line style="stroke:#181818;stroke-width:1;stroke-dasharray:2,2;" x1="890.8223" x2="1092.9941" y1="427.6953" y2="427.6953"/><text fill="#000000" font-family="sans-serif" font-size="13" font-weight="bold" lengthAdjust="spacing" textLength="9.0454" x="902.8223" y="422.6294">9</text><text fill="#000000" font-family="sans-serif" font-size="13" lengthAdjust="spacing" textLength="90.6128" x="915.8677" y="422.6294">Revenue data</text></g><g class="message" data-entity-1="part5" data-entity-2="part4" id="msg10"><polygon fill="#181818" points="754.6362,452.8281,744.6362,456.8281,754.6362,460.8281,750.6362,456.8281" style="stroke:#181818;stroke-width:1;"/><line style="stroke:#181818;stroke-width:1;stroke-dasharray:2,2;" x1="748.6362" x2="879.8223" y1="456.8281" y2="456.8281"/><text fill="#000000" font-family="sans-serif" font-size="13" font-weight="bold" lengthAdjust="spacing" textLength="18.0908" x="760.6362" y="451.7622">10</text><text fill="#000000" font-family="sans-serif" font-size="13" lengthAdjust="spacing" textLength="66.8281" x="782.7271" y="451.7622">BillingKPIs</text></g><g class="message" data-entity-1="part4" data-entity-2="part3" id="msg11"><polygon fill="#181818" points="505.2021,481.9609,495.2021,485.9609,505.2021,489.9609,501.2021,485.9609" style="stroke:#181818;stroke-width:1;"/><line style="stroke:#181818;stroke-width:1;stroke-dasharray:2,2;" x1="499.2021" x2="737.6362" y1="485.9609" y2="485.9609"/><text fill="#000000" font-family="sans-serif" font-size="13" font-weight="bold" lengthAdjust="spacing" textLength="18.0908" x="511.2021" y="480.895">11</text><text fill="#000000" font-family="sans-serif" font-size="13" lengthAdjust="spacing" textLength="70.9604" x="533.293" y="480.895">Billing KPIs</text></g><g class="message" data-entity-1="part3" data-entity-2="part7" id="msg12"><polygon fill="#181818" points="1226.105,511.0938,1236.105,515.0938,1226.105,519.0938,1230.105,515.0938" style="stroke:#181818;stroke-width:1;"/><line style="stroke:#181818;stroke-width:1;" x1="494.2021" x2="1232.105" y1="515.0938" y2="515.0938"/><text fill="#000000" font-family="sans-serif" font-size="13" font-weight="bold" lengthAdjust="spacing" textLength="18.0908" x="501.2021" y="510.0278">12</text><text fill="#000000" font-family="sans-serif" font-size="13" lengthAdjust="spacing" textLength="148.3828" x="523.293" y="510.0278">gRPC: GetCourseKPIs()</text></g><g class="message" data-entity-1="part7" data-entity-2="part8" id="msg13"><polygon fill="#181818" points="1438.2676,540.2266,1448.2676,544.2266,1438.2676,548.2266,1442.2676,544.2266" style="stroke:#181818;stroke-width:1;"/><line style="stroke:#181818;stroke-width:1;" x1="1248.105" x2="1444.2676" y1="544.2266" y2="544.2266"/><text fill="#000000" font-family="sans-serif" font-size="13" font-weight="bold" lengthAdjust="spacing" textLength="18.0908" x="1255.105" y="539.1606">13</text><text fill="#000000" font-family="sans-serif" font-size="13" lengthAdjust="spacing" textLength="161.0718" x="1277.1958" y="539.1606">Calculate course metrics</text></g><g class="message" data-entity-1="part8" data-entity-2="part7" id="msg14"><polygon fill="#181818" points="1259.105,569.3594,1249.105,573.3594,1259.105,577.3594,1255.105,573.3594" style="stroke:#181818;stroke-width:1;"/><line style="stroke:#181818;stroke-width:1;stroke-dasharray:2,2;" x1="1253.105" x2="1454.2676" y1="573.3594" y2="573.3594"/><text fill="#000000" font-family="sans-serif" font-size="13" font-weight="bold" lengthAdjust="spacing" textLength="18.0908" x="1265.105" y="568.2935">14</text><text fill="#000000" font-family="sans-serif" font-size="13" lengthAdjust="spacing" textLength="98.1538" x="1287.1958" y="568.2935">Course metrics</text></g><g class="message" data-entity-1="part7" data-entity-2="part3" id="msg15"><polygon fill="#181818" points="505.2021,598.4922,495.2021,602.4922,505.2021,606.4922,501.2021,602.4922" style="stroke:#181818;stroke-width:1;"/><line style="stroke:#181818;stroke-width:1;stroke-dasharray:2,2;" x1="499.2021" x2="1242.105" y1="602.4922" y2="602.4922"/><text fill="#000000" font-family="sans-serif" font-size="13" font-weight="bold" lengthAdjust="spacing" textLength="18.0908" x="511.2021" y="597.4263">15</text><text fill="#000000" font-family="sans-serif" font-size="13" lengthAdjust="spacing" textLength="76.4893" x="533.293" y="597.4263">Course KPIs</text></g><g class="message" data-entity-1="part3" data-entity-2="part9" id="msg16"><polygon fill="#181818" points="1581.8721,627.625,1591.8721,631.625,1581.8721,635.625,1585.8721,631.625" style="stroke:#181818;stroke-width:1;"/><line style="stroke:#181818;stroke-width:1;" x1="494.2021" x2="1587.8721" y1="631.625" y2="631.625"/><text fill="#000000" font-family="sans-serif" font-size="13" font-weight="bold" lengthAdjust="spacing" textLength="18.0908" x="501.2021" y="626.5591">16</text><text fill="#000000" font-family="sans-serif" font-size="13" lengthAdjust="spacing" textLength="132.6279" x="523.293" y="626.5591">gRPC: GetUserKPIs()</text></g><g class="message" data-entity-1="part9" data-entity-2="part10" id="msg17"><polygon fill="#181818" points="1778.9336,656.7578,1788.9336,660.7578,1778.9336,664.7578,1782.9336,660.7578" style="stroke:#181818;stroke-width:1;"/><line style="stroke:#181818;stroke-width:1;" x1="1603.8721" x2="1784.9336" y1="660.7578" y2="660.7578"/><text fill="#000000" font-family="sans-serif" font-size="13" font-weight="bold" lengthAdjust="spacing" textLength="18.0908" x="1610.8721" y="655.6919">17</text><text fill="#000000" font-family="sans-serif" font-size="13" lengthAdjust="spacing" textLength="145.9707" x="1632.9629" y="655.6919">Calculate user metrics</text></g><g class="message" data-entity-1="part10" data-entity-2="part9" id="msg18"><polygon fill="#181818" points="1614.8721,685.8906,1604.8721,689.8906,1614.8721,693.8906,1610.8721,689.8906" style="stroke:#181818;stroke-width:1;"/><line style="stroke:#181818;stroke-width:1;stroke-dasharray:2,2;" x1="1608.8721" x2="1794.9336" y1="689.8906" y2="689.8906"/><text fill="#000000" font-family="sans-serif" font-size="13" font-weight="bold" lengthAdjust="spacing" textLength="18.0908" x="1620.8721" y="684.8247">18</text><text fill="#000000" font-family="sans-serif" font-size="13" lengthAdjust="spacing" textLength="82.3989" x="1642.9629" y="684.8247">User metrics</text></g><g class="message" data-entity-1="part9" data-entity-2="part3" id="msg19"><polygon fill="#181818" points="505.2021,715.0234,495.2021,719.0234,505.2021,723.0234,501.2021,719.0234" style="stroke:#181818;stroke-width:1;"/><line style="stroke:#181818;stroke-width:1;stroke-dasharray:2,2;" x1="499.2021" x2="1597.8721" y1="719.0234" y2="719.0234"/><text fill="#000000" font-family="sans-serif" font-size="13" font-weight="bold" lengthAdjust="spacing" textLength="18.0908" x="511.2021" y="713.9575">19</text><text fill="#000000" font-family="sans-serif" font-size="13" lengthAdjust="spacing" textLength="60.7344" x="533.293" y="713.9575">User KPIs</text></g><g class="message" data-entity-1="part3" data-entity-2="part3" id="msg20"><line style="stroke:#181818;stroke-width:1;" x1="494.2021" x2="536.2021" y1="755.1563" y2="755.1563"/><line style="stroke:#181818;stroke-width:1;" x1="536.2021" x2="536.2021" y1="755.1563" y2="768.1563"/><line style="stroke:#181818;stroke-width:1;" x1="495.2021" x2="536.2021" y1="768.1563" y2="768.1563"/><polygon fill="#181818" points="505.2021,764.1563,495.2021,768.1563,505.2021,772.1563,501.2021,768.1563" style="stroke:#181818;stroke-width:1;"/><text fill="#000000" font-family="sans-serif" font-size="13" font-weight="bold" lengthAdjust="spacing" textLength="18.0908" x="501.2021" y="750.0903">20</text><text fill="#000000" font-family="sans-serif" font-size="13" lengthAdjust="spacing" textLength="99.1567" x="523.293" y="750.0903">Aggregate KPIs</text></g><g class="message" data-entity-1="part3" data-entity-2="part2" id="msg21"><polygon fill="#181818" points="289.6519,793.2891,279.6519,797.2891,289.6519,801.2891,285.6519,797.2891" style="stroke:#181818;stroke-width:1;"/><line style="stroke:#181818;stroke-width:1;stroke-dasharray:2,2;" x1="283.6519" x2="488.2021" y1="797.2891" y2="797.2891"/><text fill="#000000" font-family="sans-serif" font-size="13" font-weight="bold" lengthAdjust="spacing" textLength="18.0908" x="295.6519" y="792.2231">21</text><text fill="#000000" font-family="sans-serif" font-size="13" lengthAdjust="spacing" textLength="86.1567" x="317.7427" y="792.2231">Platform KPIs</text></g><g class="message" data-entity-1="part2" data-entity-2="part1" id="msg22"><polygon fill="#181818" points="56.4321,882.9531,46.4321,886.9531,56.4321,890.9531,52.4321,886.9531" style="stroke:#181818;stroke-width:1;"/><line style="stroke:#181818;stroke-width:1;" x1="50.4321" x2="277.6519" y1="886.9531" y2="886.9531"/><text fill="#000000" font-family="sans-serif" font-size="13" font-weight="bold" lengthAdjust="spacing" textLength="18.0908" x="62.4321" y="851.6216">22</text><text fill="#000000" font-family="sans-serif" font-size="13" lengthAdjust="spacing" textLength="116.2446" x="84.5229" y="821.356">Display KPI cards:</text><text fill="#000000" font-family="sans-serif" font-size="13" lengthAdjust="spacing" textLength="97.6841" x="84.5229" y="836.4888">- Total Courses</text><text fill="#000000" font-family="sans-serif" font-size="13" lengthAdjust="spacing" textLength="81.9292" x="84.5229" y="851.6216">- Total Users</text><text fill="#000000" font-family="sans-serif" font-size="13" lengthAdjust="spacing" textLength="102.7241" x="84.5229" y="866.7544">- Total Revenue</text><text fill="#000000" font-family="sans-serif" font-size="13" lengthAdjust="spacing" textLength="128.5781" x="84.5229" y="881.8872">- Total Transactions</text></g><?plantuml-src XLHDZvim4BtpAqRRIoirsgtQKrIj1AH5srOhj0r5bNenCCrQSN1gc-pcttV6XWPOf9w0yNkUz-O3qJdTTeSAJHJPlMoFmeW39Fev5qqZsnsykuaYKJjj86uEiWLX8OugtRMDC6SeiOgFHmwMSKJXPxYAypl8XCCdSRw2Lz_axj4bgiC8eDQjCrhD8CJDoWZR1eZUtv58fJZvTpGdMUDmJoxR_UWUBwY7fY6cq7Y5IJh2zP1UQ1BJKIESg8J5uMoJ-ADDCXEIwiuGQgRZ9ogbd-PA0dOc94t7sG8a94jV92iiaMQfCeFOpZCnS9QdcEHXGCXIZBF4iBgbHgtXNfpaZXe0JlTjtGZxM6bX6cwsFF5PV7dbvfQUdPLho3vjuLemxLgqGfsThEtr_YZjXK0TpSe1_qCesN3qIxbz2_KZrdlmT203IEEb7Dnh5s9aWp9zNAqyzSFDU_YiJIMR1liZkfGSF60Z3TQE7OYwHck1418RBWEEXK--umWLrUVE_aj60myv3JrLKe71FnrQP_bM6nfX2GCGpD1OJTnNONY2TuPTylW117uoCI756Rf-sBxcT_Rrcod1JoNGmyCtoHfIeUfEyPd14xOTmW6TeLBFYDJWdib5yzI7di3pu0z75HZmhCmJIDf8rmjuFFXdi2_0i9nBSFOzBbXA-Dr3ddhxOVgNt8Sr0NuoBPtwhyCIBjfF1pjfi1EeBmaZZGDbyCGQUyQYfNHggHXRuaLRD5JqXWflg9WQwdZH5-qKWvqYsF74OWuVgIjcPbYTnozQyQheTy26BliPxtO6_U_0awORc9FYtzeSXWj7rz6IZrTo8-rHYJC3eQO_YLt_QbUmrKwelhxs4c2Deyz-OY-1hH6jvKowjVzTQJBq5m00?></g></svg>