<?plantuml 1.2026.1?><svg xmlns="http://www.w3.org/2000/svg" xmlns:xlink="http://www.w3.org/1999/xlink" contentStyleType="text/css" data-diagram-type="SEQUENCE" height="1223px" preserveAspectRatio="none" style="width:1978px;height:1223px;background:#FFFFFF;" version="1.1" viewBox="0 0 1978 1223" width="1978px" zoomAndPan="magnify"><defs/><g><rect fill="#ADD8E6" height="1211.5859" style="stroke:#181818;stroke-width:0.5;" width="102.4434" x="582.0684" y="6"/><text fill="#000000" font-family="sans-serif" font-size="13" font-weight="bold" lengthAdjust="spacing" textLength="92.6821" x="586.949" y="18.0669">API Gateway</text><rect fill="#FFFFE0" height="1211.5859" style="stroke:#181818;stroke-width:0.5;" width="840.0522" x="794.2671" y="6"/><text fill="#000000" font-family="sans-serif" font-size="13" font-weight="bold" lengthAdjust="spacing" textLength="109.2622" x="1159.6621" y="18.0669">Course Service</text><rect fill="#E0FFFF" height="1211.5859" style="stroke:#181818;stroke-width:0.5;" width="163.502" x="1656.3193" y="6"/><text fill="#000000" font-family="sans-serif" font-size="13" font-weight="bold" lengthAdjust="spacing" textLength="144.498" x="1665.8213" y="18.0669">Notification Service</text><g><title>Admin</title><rect fill="#FFFFFF" height="399.7266" style="stroke:#181818;stroke-width:1;" width="10" x="50.4321" y="118.5625"/></g><g><title>WebApp</title><rect fill="#FFFFFF" height="399.7266" style="stroke:#181818;stroke-width:1;" width="10" x="313.8223" y="118.5625"/></g><g><title>API Gateway</title><rect fill="#FFFFFF" height="270.1953" style="stroke:#181818;stroke-width:1;" width="10" x="628.29" y="218.9609"/></g><g><title>AdminCourseController</title><rect fill="#FFFFFF" height="169.7969" style="stroke:#181818;stroke-width:1;" width="10" x="877.7241" y="290.2266"/></g><g><title>CourseApp</title><rect fill="#FFFFFF" height="628.2656" style="stroke:#181818;stroke-width:1;" width="10" x="1148.0693" y="319.3594"/></g><g><title>Course</title><rect fill="#FFFFFF" height="71.2656" style="stroke:#181818;stroke-width:1;" width="10" x="1376.6387" y="788.9609"/></g><g><title>CourseDB</title><rect fill="#FFFFFF" height="53.2656" style="stroke:#181818;stroke-width:1;" width="10" x="1587.6885" y="348.4922"/></g><g><title>CourseDB</title><rect fill="#FFFFFF" height="29.1328" style="stroke:#181818;stroke-width:1;" width="10" x="1587.6885" y="889.3594"/></g><g><title>NotificationController</title><rect fill="#FFFFFF" height="35.1328" style="stroke:#181818;stroke-width:1;" width="10" x="1733.0703" y="1005.8906"/></g><rect fill="none" height="757.7969" style="stroke:#000000;stroke-width:1.5;" width="1961.0156" x="10" y="363.4922"/><rect fill="none" height="494.9297" style="stroke:#000000;stroke-width:1.5;" width="1941.0156" x="20" y="619.3594"/><g class="participant-lifeline" data-entity-uid="part1" data-qualified-name="A" id="part1-lifeline"><g><title>Admin</title><rect fill="#000000" fill-opacity="0.00000" height="1050.8594" width="8" x="51.4321" y="87.4297"/><line style="stroke:#181818;stroke-width:0.5;stroke-dasharray:5,5;" x1="55" x2="55" y1="87.4297" y2="1138.2891"/></g></g><g class="participant-lifeline" data-entity-uid="part2" data-qualified-name="WA" id="part2-lifeline"><g><title>WebApp</title><rect fill="#000000" fill-opacity="0.00000" height="1050.8594" width="8" x="314.8223" y="87.4297"/><line style="stroke:#181818;stroke-width:0.5;stroke-dasharray:5,5;" x1="318.4756" x2="318.4756" y1="87.4297" y2="1138.2891"/></g></g><g class="participant-lifeline" data-entity-uid="part3" data-qualified-name="GW" id="part3-lifeline"><g><title>API Gateway</title><rect fill="#000000" fill-opacity="0.00000" height="1050.8594" width="8" x="629.29" y="87.4297"/><line style="stroke:#181818;stroke-width:0.5;stroke-dasharray:5,5;" x1="633.0684" x2="633.0684" y1="87.4297" y2="1138.2891"/></g></g><g class="participant-lifeline" data-entity-uid="part4" data-qualified-name="ACC" id="part4-lifeline"><g><title>AdminCourseController</title><rect fill="#000000" fill-opacity="0.00000" height="1050.8594" width="8" x="878.7241" y="87.4297"/><line style="stroke:#181818;stroke-width:0.5;stroke-dasharray:5,5;" x1="882.2671" x2="882.2671" y1="87.4297" y2="1138.2891"/></g></g><g class="participant-lifeline" data-entity-uid="part5" data-qualified-name="CA" id="part5-lifeline"><g><title>CourseApp</title><rect fill="#000000" fill-opacity="0.00000" height="1050.8594" width="8" x="1149.0693" y="87.4297"/><line style="stroke:#181818;stroke-width:0.5;stroke-dasharray:5,5;" x1="1152.9556" x2="1152.9556" y1="87.4297" y2="1138.2891"/></g></g><g class="participant-lifeline" data-entity-uid="part6" data-qualified-name="C" id="part6-lifeline"><g><title>Course</title><rect fill="#000000" fill-opacity="0.00000" height="1050.8594" width="8" x="1377.6387" y="87.4297"/><line style="stroke:#181818;stroke-width:0.5;stroke-dasharray:5,5;" x1="1381.2002" x2="1381.2002" y1="87.4297" y2="1138.2891"/></g></g><g class="participant-lifeline" data-entity-uid="part7" data-qualified-name="CDB" id="part7-lifeline"><g><title>CourseDB</title><rect fill="#000000" fill-opacity="0.00000" height="1050.8594" width="8" x="1588.6885" y="87.4297"/><line style="stroke:#181818;stroke-width:0.5;stroke-dasharray:5,5;" x1="1592.0576" x2="1592.0576" y1="87.4297" y2="1138.2891"/></g></g><g class="participant-lifeline" data-entity-uid="part8" data-qualified-name="NC" id="part8-lifeline"><g><title>NotificationController</title><rect fill="#000000" fill-opacity="0.00000" height="1050.8594" width="8" x="1734.0703" y="87.4297"/><line style="stroke:#181818;stroke-width:0.5;stroke-dasharray:5,5;" x1="1737.3193" x2="1737.3193" y1="87.4297" y2="1138.2891"/></g></g><g class="participant participant-head" data-entity-uid="part1" data-qualified-name="A" id="part1-head"><text fill="#000000" font-family="sans-serif" font-size="14" lengthAdjust="spacing" textLength="44.8643" x="30" y="84.1279">Admin</text><ellipse cx="55.4321" cy="19.6328" fill="#E2E2F0" rx="8" ry="8" style="stroke:#181818;stroke-width:0.5;"/><path d="M55.4321,27.6328 L55.4321,54.6328 M42.4321,35.6328 L68.4321,35.6328 M55.4321,54.6328 L42.4321,69.6328 M55.4321,54.6328 L68.4321,69.6328" fill="none" style="stroke:#181818;stroke-width:0.5;"/></g><g class="participant participant-tail" data-entity-uid="part1" data-qualified-name="A" id="part1-tail"><text fill="#000000" font-family="sans-serif" font-size="14" lengthAdjust="spacing" textLength="44.8643" x="30" y="1150.2842">Admin</text><ellipse cx="55.4321" cy="1162.0859" fill="#E2E2F0" rx="8" ry="8" style="stroke:#181818;stroke-width:0.5;"/><path d="M55.4321,1170.0859 L55.4321,1197.0859 M42.4321,1178.0859 L68.4321,1178.0859 M55.4321,1197.0859 L42.4321,1212.0859 M55.4321,1197.0859 L68.4321,1212.0859" fill="none" style="stroke:#181818;stroke-width:0.5;"/></g><g class="participant participant-head" data-entity-uid="part2" data-qualified-name="WA" id="part2-head"><text fill="#000000" font-family="sans-serif" font-size="14" lengthAdjust="spacing" textLength="58.6934" x="286.4756" y="84.1279">WebApp</text><path d="M298.3223,43.1328 L298.3223,67.1328 M298.3223,55.1328 L315.3223,55.1328" fill="none" style="stroke:#181818;stroke-width:0.5;"/><ellipse cx="327.3223" cy="55.1328" fill="#E2E2F0" rx="12" ry="12" style="stroke:#181818;stroke-width:0.5;"/></g><g class="participant participant-tail" data-entity-uid="part2" data-qualified-name="WA" id="part2-tail"><text fill="#000000" font-family="sans-serif" font-size="14" lengthAdjust="spacing" textLength="58.6934" x="286.4756" y="1150.2842">WebApp</text><path d="M298.3223,1157.5859 L298.3223,1181.5859 M298.3223,1169.5859 L315.3223,1169.5859" fill="none" style="stroke:#181818;stroke-width:0.5;"/><ellipse cx="327.3223" cy="1169.5859" fill="#E2E2F0" rx="12" ry="12" style="stroke:#181818;stroke-width:0.5;"/></g><g class="participant participant-head" data-entity-uid="part3" data-qualified-name="GW" id="part3-head"><text fill="#000000" font-family="sans-serif" font-size="14" lengthAdjust="spacing" textLength="88.4434" x="586.0684" y="84.1279">API Gateway</text><ellipse cx="633.29" cy="55.1328" fill="#E2E2F0" rx="12" ry="12" style="stroke:#181818;stroke-width:0.5;"/><polygon fill="#181818" points="629.29,43.1328,635.29,38.1328,633.29,43.1328,635.29,48.1328,629.29,43.1328" style="stroke:#181818;stroke-width:1;"/></g><g class="participant participant-tail" data-entity-uid="part3" data-qualified-name="GW" id="part3-tail"><text fill="#000000" font-family="sans-serif" font-size="14" lengthAdjust="spacing" textLength="88.4434" x="586.0684" y="1150.2842">API Gateway</text><ellipse cx="633.29" cy="1169.5859" fill="#E2E2F0" rx="12" ry="12" style="stroke:#181818;stroke-width:0.5;"/><polygon fill="#181818" points="629.29,1157.5859,635.29,1152.5859,633.29,1157.5859,635.29,1162.5859,629.29,1157.5859" style="stroke:#181818;stroke-width:1;"/></g><g class="participant participant-head" data-entity-uid="part4" data-qualified-name="ACC" id="part4-head"><text fill="#000000" font-family="sans-serif" font-size="14" lengthAdjust="spacing" textLength="162.9141" x="798.2671" y="84.1279">AdminCourseController</text><ellipse cx="882.7241" cy="55.1328" fill="#E2E2F0" rx="12" ry="12" style="stroke:#181818;stroke-width:0.5;"/><polygon fill="#181818" points="878.7241,43.1328,884.7241,38.1328,882.7241,43.1328,884.7241,48.1328,878.7241,43.1328" style="stroke:#181818;stroke-width:1;"/></g><g class="participant participant-tail" data-entity-uid="part4" data-qualified-name="ACC" id="part4-tail"><text fill="#000000" font-family="sans-serif" font-size="14" lengthAdjust="spacing" textLength="162.9141" x="798.2671" y="1150.2842">AdminCourseController</text><ellipse cx="882.7241" cy="1169.5859" fill="#E2E2F0" rx="12" ry="12" style="stroke:#181818;stroke-width:0.5;"/><polygon fill="#181818" points="878.7241,1157.5859,884.7241,1152.5859,882.7241,1157.5859,884.7241,1162.5859,878.7241,1157.5859" style="stroke:#181818;stroke-width:1;"/></g><g class="participant participant-head" data-entity-uid="part5" data-qualified-name="CA" id="part5-head"><text fill="#000000" font-family="sans-serif" font-size="14" lengthAdjust="spacing" textLength="76.2275" x="1111.9556" y="84.1279">CourseApp</text><ellipse cx="1153.0693" cy="55.1328" fill="#E2E2F0" rx="12" ry="12" style="stroke:#181818;stroke-width:0.5;"/><polygon fill="#181818" points="1149.0693,43.1328,1155.0693,38.1328,1153.0693,43.1328,1155.0693,48.1328,1149.0693,43.1328" style="stroke:#181818;stroke-width:1;"/></g><g class="participant participant-tail" data-entity-uid="part5" data-qualified-name="CA" id="part5-tail"><text fill="#000000" font-family="sans-serif" font-size="14" lengthAdjust="spacing" textLength="76.2275" x="1111.9556" y="1150.2842">CourseApp</text><ellipse cx="1153.0693" cy="1169.5859" fill="#E2E2F0" rx="12" ry="12" style="stroke:#181818;stroke-width:0.5;"/><polygon fill="#181818" points="1149.0693,1157.5859,1155.0693,1152.5859,1153.0693,1157.5859,1155.0693,1162.5859,1149.0693,1157.5859" style="stroke:#181818;stroke-width:1;"/></g><g class="participant participant-head" data-entity-uid="part6" data-qualified-name="C" id="part6-head"><text fill="#000000" font-family="sans-serif" font-size="14" lengthAdjust="spacing" textLength="48.877" x="1354.2002" y="84.1279">Course</text><ellipse cx="1381.6387" cy="55.1328" fill="#E2E2F0" rx="12" ry="12" style="stroke:#181818;stroke-width:0.5;"/><line style="stroke:#181818;stroke-width:0.5;" x1="1369.6387" x2="1393.6387" y1="69.1328" y2="69.1328"/></g><g class="participant participant-tail" data-entity-uid="part6" data-qualified-name="C" id="part6-tail"><text fill="#000000" font-family="sans-serif" font-size="14" lengthAdjust="spacing" textLength="48.877" x="1354.2002" y="1150.2842">Course</text><ellipse cx="1381.6387" cy="1169.5859" fill="#E2E2F0" rx="12" ry="12" style="stroke:#181818;stroke-width:0.5;"/><line style="stroke:#181818;stroke-width:0.5;" x1="1369.6387" x2="1393.6387" y1="1183.5859" y2="1183.5859"/></g><g class="participant participant-head" data-entity-uid="part7" data-qualified-name="CDB" id="part7-head"><text fill="#000000" font-family="sans-serif" font-size="14" lengthAdjust="spacing" textLength="69.2617" x="1555.0576" y="84.1279">CourseDB</text><path d="M1574.6885,35.1328 C1574.6885,25.1328 1592.6885,25.1328 1592.6885,25.1328 C1592.6885,25.1328 1610.6885,25.1328 1610.6885,35.1328 L1610.6885,61.1328 C1610.6885,71.1328 1592.6885,71.1328 1592.6885,71.1328 C1592.6885,71.1328 1574.6885,71.1328 1574.6885,61.1328 L1574.6885,35.1328" fill="#E2E2F0" style="stroke:#181818;stroke-width:0.5;"/><path d="M1574.6885,35.1328 C1574.6885,45.1328 1592.6885,45.1328 1592.6885,45.1328 C1592.6885,45.1328 1610.6885,45.1328 1610.6885,35.1328" fill="none" style="stroke:#181818;stroke-width:0.5;"/></g><g class="participant participant-tail" data-entity-uid="part7" data-qualified-name="CDB" id="part7-tail"><text fill="#000000" font-family="sans-serif" font-size="14" lengthAdjust="spacing" textLength="69.2617" x="1555.0576" y="1150.2842">CourseDB</text><path d="M1574.6885,1163.5859 C1574.6885,1153.5859 1592.6885,1153.5859 1592.6885,1153.5859 C1592.6885,1153.5859 1610.6885,1153.5859 1610.6885,1163.5859 L1610.6885,1189.5859 C1610.6885,1199.5859 1592.6885,1199.5859 1592.6885,1199.5859 C1592.6885,1199.5859 1574.6885,1199.5859 1574.6885,1189.5859 L1574.6885,1163.5859" fill="#E2E2F0" style="stroke:#181818;stroke-width:0.5;"/><path d="M1574.6885,1163.5859 C1574.6885,1173.5859 1592.6885,1173.5859 1592.6885,1173.5859 C1592.6885,1173.5859 1610.6885,1173.5859 1610.6885,1163.5859" fill="none" style="stroke:#181818;stroke-width:0.5;"/></g><g class="participant participant-head" data-entity-uid="part8" data-qualified-name="NC" id="part8-head"><text fill="#000000" font-family="sans-serif" font-size="14" lengthAdjust="spacing" textLength="149.502" x="1660.3193" y="84.1279">NotificationController</text><ellipse cx="1738.0703" cy="55.1328" fill="#E2E2F0" rx="12" ry="12" style="stroke:#181818;stroke-width:0.5;"/><polygon fill="#181818" points="1734.0703,43.1328,1740.0703,38.1328,1738.0703,43.1328,1740.0703,48.1328,1734.0703,43.1328" style="stroke:#181818;stroke-width:1;"/></g><g class="participant participant-tail" data-entity-uid="part8" data-qualified-name="NC" id="part8-tail"><text fill="#000000" font-family="sans-serif" font-size="14" lengthAdjust="spacing" textLength="149.502" x="1660.3193" y="1150.2842">NotificationController</text><ellipse cx="1738.0703" cy="1169.5859" fill="#E2E2F0" rx="12" ry="12" style="stroke:#181818;stroke-width:0.5;"/><polygon fill="#181818" points="1734.0703,1157.5859,1740.0703,1152.5859,1738.0703,1157.5859,1740.0703,1162.5859,1734.0703,1157.5859" style="stroke:#181818;stroke-width:1;"/></g><g><title>Admin</title><rect fill="#FFFFFF" height="399.7266" style="stroke:#181818;stroke-width:1;" width="10" x="50.4321" y="118.5625"/></g><g><title>WebApp</title><rect fill="#FFFFFF" height="399.7266" style="stroke:#181818;stroke-width:1;" width="10" x="313.8223" y="118.5625"/></g><g><title>API Gateway</title><rect fill="#FFFFFF" height="270.1953" style="stroke:#181818;stroke-width:1;" width="10" x="628.29" y="218.9609"/></g><g><title>AdminCourseController</title><rect fill="#FFFFFF" height="169.7969" style="stroke:#181818;stroke-width:1;" width="10" x="877.7241" y="290.2266"/></g><g><title>CourseApp</title><rect fill="#FFFFFF" height="628.2656" style="stroke:#181818;stroke-width:1;" width="10" x="1148.0693" y="319.3594"/></g><g><title>Course</title><rect fill="#FFFFFF" height="71.2656" style="stroke:#181818;stroke-width:1;" width="10" x="1376.6387" y="788.9609"/></g><g><title>CourseDB</title><rect fill="#FFFFFF" height="53.2656" style="stroke:#181818;stroke-width:1;" width="10" x="1587.6885" y="348.4922"/></g><g><title>CourseDB</title><rect fill="#FFFFFF" height="29.1328" style="stroke:#181818;stroke-width:1;" width="10" x="1587.6885" y="889.3594"/></g><g><title>NotificationController</title><rect fill="#FFFFFF" height="35.1328" style="stroke:#181818;stroke-width:1;" width="10" x="1733.0703" y="1005.8906"/></g><g class="message" data-entity-1="part1" data-entity-2="part2" id="msg1"><polygon fill="#181818" points="301.8223,114.5625,311.8223,118.5625,301.8223,122.5625,305.8223,118.5625" style="stroke:#181818;stroke-width:1;"/><line style="stroke:#181818;stroke-width:1;" x1="60.4321" x2="307.8223" y1="118.5625" y2="118.5625"/><text fill="#000000" font-family="sans-serif" font-size="13" font-weight="bold" lengthAdjust="spacing" textLength="9.0454" x="67.4321" y="113.4966">1</text><text fill="#000000" font-family="sans-serif" font-size="13" lengthAdjust="spacing" textLength="226.3447" x="80.4775" y="113.4966">Click "Approve" on pending course</text></g><g class="message" data-entity-1="part2" data-entity-2="part2" id="msg2"><line style="stroke:#181818;stroke-width:1;" x1="323.8223" x2="365.8223" y1="147.6953" y2="147.6953"/><line style="stroke:#181818;stroke-width:1;" x1="365.8223" x2="365.8223" y1="147.6953" y2="160.6953"/><line style="stroke:#181818;stroke-width:1;" x1="324.8223" x2="365.8223" y1="160.6953" y2="160.6953"/><polygon fill="#181818" points="334.8223,156.6953,324.8223,160.6953,334.8223,164.6953,330.8223,160.6953" style="stroke:#181818;stroke-width:1;"/><text fill="#000000" font-family="sans-serif" font-size="13" font-weight="bold" lengthAdjust="spacing" textLength="9.0454" x="330.8223" y="142.6294">2</text><text fill="#000000" font-family="sans-serif" font-size="13" lengthAdjust="spacing" textLength="178.2358" x="343.8677" y="142.6294">Display confirmation dialog</text></g><g class="message" data-entity-1="part1" data-entity-2="part2" id="msg3"><polygon fill="#181818" points="301.8223,185.8281,311.8223,189.8281,301.8223,193.8281,305.8223,189.8281" style="stroke:#181818;stroke-width:1;"/><line style="stroke:#181818;stroke-width:1;" x1="60.4321" x2="307.8223" y1="189.8281" y2="189.8281"/><text fill="#000000" font-family="sans-serif" font-size="13" font-weight="bold" lengthAdjust="spacing" textLength="9.0454" x="67.4321" y="184.7622">3</text><text fill="#000000" font-family="sans-serif" font-size="13" lengthAdjust="spacing" textLength="112.6392" x="80.4775" y="184.7622">Confirm approval</text></g><g class="message" data-entity-1="part2" data-entity-2="part3" id="msg4"><polygon fill="#181818" points="616.29,214.9609,626.29,218.9609,616.29,222.9609,620.29,218.9609" style="stroke:#181818;stroke-width:1;"/><line style="stroke:#181818;stroke-width:1;" x1="323.8223" x2="622.29" y1="218.9609" y2="218.9609"/><text fill="#000000" font-family="sans-serif" font-size="13" font-weight="bold" lengthAdjust="spacing" textLength="9.0454" x="330.8223" y="213.895">4</text><text fill="#000000" font-family="sans-serif" font-size="13" lengthAdjust="spacing" textLength="272.4224" x="343.8677" y="213.895">POST /admin/courses/{courseId}/approve</text></g><g class="message" data-entity-1="part3" data-entity-2="part3" id="msg5"><line style="stroke:#181818;stroke-width:1;" x1="638.29" x2="680.29" y1="248.0938" y2="248.0938"/><line style="stroke:#181818;stroke-width:1;" x1="680.29" x2="680.29" y1="248.0938" y2="261.0938"/><line style="stroke:#181818;stroke-width:1;" x1="639.29" x2="680.29" y1="261.0938" y2="261.0938"/><polygon fill="#181818" points="649.29,257.0938,639.29,261.0938,649.29,265.0938,645.29,261.0938" style="stroke:#181818;stroke-width:1;"/><text fill="#000000" font-family="sans-serif" font-size="13" font-weight="bold" lengthAdjust="spacing" textLength="9.0454" x="645.29" y="243.0278">5</text><text fill="#000000" font-family="sans-serif" font-size="13" lengthAdjust="spacing" textLength="202.3887" x="658.3354" y="243.0278">Validate JWT, check admin role</text></g><g class="message" data-entity-1="part3" data-entity-2="part4" id="msg6"><polygon fill="#181818" points="865.7241,286.2266,875.7241,290.2266,865.7241,294.2266,869.7241,290.2266" style="stroke:#181818;stroke-width:1;"/><line style="stroke:#181818;stroke-width:1;" x1="638.29" x2="871.7241" y1="290.2266" y2="290.2266"/><text fill="#000000" font-family="sans-serif" font-size="13" font-weight="bold" lengthAdjust="spacing" textLength="9.0454" x="645.29" y="285.1606">6</text><text fill="#000000" font-family="sans-serif" font-size="13" lengthAdjust="spacing" textLength="106.8057" x="658.3354" y="285.1606">Forward request</text></g><g class="message" data-entity-1="part4" data-entity-2="part5" id="msg7"><polygon fill="#181818" points="1136.0693,315.3594,1146.0693,319.3594,1136.0693,323.3594,1140.0693,319.3594" style="stroke:#181818;stroke-width:1;"/><line style="stroke:#181818;stroke-width:1;" x1="887.7241" x2="1142.0693" y1="319.3594" y2="319.3594"/><text fill="#000000" font-family="sans-serif" font-size="13" font-weight="bold" lengthAdjust="spacing" textLength="9.0454" x="894.7241" y="314.2935">7</text><text fill="#000000" font-family="sans-serif" font-size="13" lengthAdjust="spacing" textLength="228.2998" x="907.7695" y="314.2935">ApproveCourse(courseId, adminID)</text></g><g class="message" data-entity-1="part5" data-entity-2="part7" id="msg8"><polygon fill="#181818" points="1575.6885,344.4922,1585.6885,348.4922,1575.6885,352.4922,1579.6885,348.4922" style="stroke:#181818;stroke-width:1;"/><line style="stroke:#181818;stroke-width:1;" x1="1158.0693" x2="1581.6885" y1="348.4922" y2="348.4922"/><text fill="#000000" font-family="sans-serif" font-size="13" font-weight="bold" lengthAdjust="spacing" textLength="9.0454" x="1165.0693" y="343.4263">8</text><text fill="#000000" font-family="sans-serif" font-size="13" lengthAdjust="spacing" textLength="75.1689" x="1178.1147" y="343.4263">Find course</text></g><path d="M10,363.4922 L74.4429,363.4922 L74.4429,370.625 L64.4429,380.625 L10,380.625 L10,363.4922" fill="#EEEEEE" style="stroke:#000000;stroke-width:1.5;"/><rect fill="none" height="757.7969" style="stroke:#000000;stroke-width:1.5;" width="1961.0156" x="10" y="363.4922"/><text fill="#000000" font-family="sans-serif" font-size="13" font-weight="bold" lengthAdjust="spacing" textLength="19.4429" x="25" y="376.5591">alt</text><text fill="#000000" font-family="sans-serif" font-size="11" font-weight="bold" lengthAdjust="spacing" textLength="117.1328" x="89.4429" y="375.7026">[Course not found]</text><g class="message" data-entity-1="part7" data-entity-2="part5" id="msg9"><polygon fill="#181818" points="1169.0693,397.7578,1159.0693,401.7578,1169.0693,405.7578,1165.0693,401.7578" style="stroke:#181818;stroke-width:1;"/><line style="stroke:#181818;stroke-width:1;stroke-dasharray:2,2;" x1="1163.0693" x2="1591.6885" y1="401.7578" y2="401.7578"/><text fill="#000000" font-family="sans-serif" font-size="13" font-weight="bold" lengthAdjust="spacing" textLength="9.0454" x="1175.0693" y="396.6919">9</text><text fill="#000000" font-family="sans-serif" font-size="13" lengthAdjust="spacing" textLength="64.1685" x="1188.1147" y="396.6919">Not found</text></g><g class="message" data-entity-1="part5" data-entity-2="part4" id="msg10"><polygon fill="#181818" points="898.7241,426.8906,888.7241,430.8906,898.7241,434.8906,894.7241,430.8906" style="stroke:#181818;stroke-width:1;"/><line style="stroke:#181818;stroke-width:1;stroke-dasharray:2,2;" x1="892.7241" x2="1147.0693" y1="430.8906" y2="430.8906"/><text fill="#000000" font-family="sans-serif" font-size="13" font-weight="bold" lengthAdjust="spacing" textLength="18.0908" x="904.7241" y="425.8247">10</text><text fill="#000000" font-family="sans-serif" font-size="13" lengthAdjust="spacing" textLength="96.0146" x="926.8149" y="425.8247">404 Not Found</text></g><g class="message" data-entity-1="part4" data-entity-2="part3" id="msg11"><polygon fill="#181818" points="649.29,456.0234,639.29,460.0234,649.29,464.0234,645.29,460.0234" style="stroke:#181818;stroke-width:1;"/><line style="stroke:#181818;stroke-width:1;stroke-dasharray:2,2;" x1="643.29" x2="881.7241" y1="460.0234" y2="460.0234"/><text fill="#000000" font-family="sans-serif" font-size="13" font-weight="bold" lengthAdjust="spacing" textLength="18.0908" x="655.29" y="454.9575">11</text><text fill="#000000" font-family="sans-serif" font-size="13" lengthAdjust="spacing" textLength="32.2017" x="677.3809" y="454.9575">Error</text></g><g class="message" data-entity-1="part3" data-entity-2="part2" id="msg12"><polygon fill="#181818" points="334.8223,485.1563,324.8223,489.1563,334.8223,493.1563,330.8223,489.1563" style="stroke:#181818;stroke-width:1;"/><line style="stroke:#181818;stroke-width:1;stroke-dasharray:2,2;" x1="328.8223" x2="632.29" y1="489.1563" y2="489.1563"/><text fill="#000000" font-family="sans-serif" font-size="13" font-weight="bold" lengthAdjust="spacing" textLength="18.0908" x="340.8223" y="484.0903">12</text><text fill="#000000" font-family="sans-serif" font-size="13" lengthAdjust="spacing" textLength="32.2017" x="362.9131" y="484.0903">Error</text></g><g class="message" data-entity-1="part2" data-entity-2="part1" id="msg13"><polygon fill="#181818" points="66.4321,514.2891,56.4321,518.2891,66.4321,522.2891,62.4321,518.2891" style="stroke:#181818;stroke-width:1;"/><line style="stroke:#181818;stroke-width:1;" x1="60.4321" x2="317.8223" y1="518.2891" y2="518.2891"/><text fill="#000000" font-family="sans-serif" font-size="13" font-weight="bold" lengthAdjust="spacing" textLength="18.0908" x="72.4321" y="513.2231">13</text><text fill="#000000" font-family="sans-serif" font-size="13" lengthAdjust="spacing" textLength="84.0366" x="94.5229" y="513.2231">Display error</text></g><line style="stroke:#000000;stroke-width:1;stroke-dasharray:2,2;" x1="10" x2="1971.0156" y1="527.2891" y2="527.2891"/><text fill="#000000" font-family="sans-serif" font-size="11" font-weight="bold" lengthAdjust="spacing" textLength="92.6567" x="15" y="537.4995">[Course found]</text><g class="message" data-entity-1="part7" data-entity-2="part5" id="msg14"><polygon fill="#181818" points="1169.0693,558.2266,1159.0693,562.2266,1169.0693,566.2266,1165.0693,562.2266" style="stroke:#181818;stroke-width:1;"/><line style="stroke:#181818;stroke-width:1;stroke-dasharray:2,2;" x1="1163.0693" x2="1591.6885" y1="562.2266" y2="562.2266"/><text fill="#000000" font-family="sans-serif" font-size="13" font-weight="bold" lengthAdjust="spacing" textLength="18.0908" x="1175.0693" y="557.1606">14</text><text fill="#000000" font-family="sans-serif" font-size="13" lengthAdjust="spacing" textLength="78.7998" x="1197.1602" y="557.1606">Course data</text></g><g class="message" data-entity-1="part5" data-entity-2="part5" id="msg15"><line style="stroke:#181818;stroke-width:1;" x1="1158.0693" x2="1200.0693" y1="591.3594" y2="591.3594"/><line style="stroke:#181818;stroke-width:1;" x1="1200.0693" x2="1200.0693" y1="591.3594" y2="604.3594"/><line style="stroke:#181818;stroke-width:1;" x1="1159.0693" x2="1200.0693" y1="604.3594" y2="604.3594"/><polygon fill="#181818" points="1169.0693,600.3594,1159.0693,604.3594,1169.0693,608.3594,1165.0693,604.3594" style="stroke:#181818;stroke-width:1;"/><text fill="#000000" font-family="sans-serif" font-size="13" font-weight="bold" lengthAdjust="spacing" textLength="18.0908" x="1165.0693" y="586.2935">15</text><text fill="#000000" font-family="sans-serif" font-size="13" lengthAdjust="spacing" textLength="172.4785" x="1187.1602" y="586.2935">Validate course is pending</text></g><path d="M20,619.3594 L84.4429,619.3594 L84.4429,626.4922 L74.4429,636.4922 L20,636.4922 L20,619.3594" fill="#EEEEEE" style="stroke:#000000;stroke-width:1.5;"/><rect fill="none" height="494.9297" style="stroke:#000000;stroke-width:1.5;" width="1941.0156" x="20" y="619.3594"/><text fill="#000000" font-family="sans-serif" font-size="13" font-weight="bold" lengthAdjust="spacing" textLength="19.4429" x="35" y="632.4263">alt</text><text fill="#000000" font-family="sans-serif" font-size="11" font-weight="bold" lengthAdjust="spacing" textLength="131.769" x="99.4429" y="631.5698">[Course not pending]</text><g class="message" data-entity-1="part5" data-entity-2="part4" id="msg16"><polygon fill="#181818" points="893.7241,653.625,883.7241,657.625,893.7241,661.625,889.7241,657.625" style="stroke:#181818;stroke-width:1;"/><line style="stroke:#181818;stroke-width:1;stroke-dasharray:2,2;" x1="887.7241" x2="1147.0693" y1="657.625" y2="657.625"/><text fill="#000000" font-family="sans-serif" font-size="13" font-weight="bold" lengthAdjust="spacing" textLength="18.0908" x="899.7241" y="652.5591">16</text><text fill="#000000" font-family="sans-serif" font-size="13" lengthAdjust="spacing" textLength="111.6045" x="921.8149" y="652.5591">400 Bad Request</text></g><g class="message" data-entity-1="part4" data-entity-2="part3" id="msg17"><polygon fill="#181818" points="644.29,682.7578,634.29,686.7578,644.29,690.7578,640.29,686.7578" style="stroke:#181818;stroke-width:1;"/><line style="stroke:#181818;stroke-width:1;stroke-dasharray:2,2;" x1="638.29" x2="881.7241" y1="686.7578" y2="686.7578"/><text fill="#000000" font-family="sans-serif" font-size="13" font-weight="bold" lengthAdjust="spacing" textLength="18.0908" x="650.29" y="681.6919">17</text><text fill="#000000" font-family="sans-serif" font-size="13" lengthAdjust="spacing" textLength="32.2017" x="672.3809" y="681.6919">Error</text></g><g class="message" data-entity-1="part3" data-entity-2="part2" id="msg18"><polygon fill="#181818" points="329.8223,711.8906,319.8223,715.8906,329.8223,719.8906,325.8223,715.8906" style="stroke:#181818;stroke-width:1;"/><line style="stroke:#181818;stroke-width:1;stroke-dasharray:2,2;" x1="323.8223" x2="632.29" y1="715.8906" y2="715.8906"/><text fill="#000000" font-family="sans-serif" font-size="13" font-weight="bold" lengthAdjust="spacing" textLength="18.0908" x="335.8223" y="710.8247">18</text><text fill="#000000" font-family="sans-serif" font-size="13" lengthAdjust="spacing" textLength="171.6089" x="357.9131" y="710.8247">"Course must be pending"</text></g><g class="message" data-entity-1="part2" data-entity-2="part1" id="msg19"><polygon fill="#181818" points="66.4321,741.0234,56.4321,745.0234,66.4321,749.0234,62.4321,745.0234" style="stroke:#181818;stroke-width:1;"/><line style="stroke:#181818;stroke-width:1;" x1="60.4321" x2="317.8223" y1="745.0234" y2="745.0234"/><text fill="#000000" font-family="sans-serif" font-size="13" font-weight="bold" lengthAdjust="spacing" textLength="18.0908" x="72.4321" y="739.9575">19</text><text fill="#000000" font-family="sans-serif" font-size="13" lengthAdjust="spacing" textLength="84.0366" x="94.5229" y="739.9575">Display error</text></g><line style="stroke:#000000;stroke-width:1;stroke-dasharray:2,2;" x1="20" x2="1961.0156" y1="754.0234" y2="754.0234"/><text fill="#000000" font-family="sans-serif" font-size="11" font-weight="bold" lengthAdjust="spacing" textLength="121.4404" x="25" y="764.2339">[Course is pending]</text><g class="message" data-entity-1="part5" data-entity-2="part6" id="msg20"><polygon fill="#181818" points="1364.6387,784.9609,1374.6387,788.9609,1364.6387,792.9609,1368.6387,788.9609" style="stroke:#181818;stroke-width:1;"/><line style="stroke:#181818;stroke-width:1;" x1="1158.0693" x2="1370.6387" y1="788.9609" y2="788.9609"/><text fill="#000000" font-family="sans-serif" font-size="13" font-weight="bold" lengthAdjust="spacing" textLength="18.0908" x="1165.0693" y="783.895">20</text><text fill="#000000" font-family="sans-serif" font-size="13" lengthAdjust="spacing" textLength="175.7031" x="1187.1602" y="783.895">Update status to published</text></g><g class="message" data-entity-1="part6" data-entity-2="part6" id="msg21"><line style="stroke:#181818;stroke-width:1;" x1="1386.6387" x2="1428.6387" y1="818.0938" y2="818.0938"/><line style="stroke:#181818;stroke-width:1;" x1="1428.6387" x2="1428.6387" y1="818.0938" y2="831.0938"/><line style="stroke:#181818;stroke-width:1;" x1="1387.6387" x2="1428.6387" y1="831.0938" y2="831.0938"/><polygon fill="#181818" points="1397.6387,827.0938,1387.6387,831.0938,1397.6387,835.0938,1393.6387,831.0938" style="stroke:#181818;stroke-width:1;"/><text fill="#000000" font-family="sans-serif" font-size="13" font-weight="bold" lengthAdjust="spacing" textLength="18.0908" x="1393.6387" y="813.0278">21</text><text fill="#000000" font-family="sans-serif" font-size="13" lengthAdjust="spacing" textLength="154.959" x="1415.7295" y="813.0278">Set status = 'published'</text></g><g class="message" data-entity-1="part6" data-entity-2="part5" id="msg22"><polygon fill="#181818" points="1169.0693,856.2266,1159.0693,860.2266,1169.0693,864.2266,1165.0693,860.2266" style="stroke:#181818;stroke-width:1;"/><line style="stroke:#181818;stroke-width:1;stroke-dasharray:2,2;" x1="1163.0693" x2="1380.6387" y1="860.2266" y2="860.2266"/><text fill="#000000" font-family="sans-serif" font-size="13" font-weight="bold" lengthAdjust="spacing" textLength="18.0908" x="1175.0693" y="855.1606">22</text><text fill="#000000" font-family="sans-serif" font-size="13" lengthAdjust="spacing" textLength="102.9209" x="1197.1602" y="855.1606">Updated course</text></g><g class="message" data-entity-1="part5" data-entity-2="part7" id="msg23"><polygon fill="#181818" points="1575.6885,885.3594,1585.6885,889.3594,1575.6885,893.3594,1579.6885,889.3594" style="stroke:#181818;stroke-width:1;"/><line style="stroke:#181818;stroke-width:1;" x1="1158.0693" x2="1581.6885" y1="889.3594" y2="889.3594"/><text fill="#000000" font-family="sans-serif" font-size="13" font-weight="bold" lengthAdjust="spacing" textLength="18.0908" x="1165.0693" y="884.2935">23</text><text fill="#000000" font-family="sans-serif" font-size="13" lengthAdjust="spacing" textLength="127.9624" x="1187.1602" y="884.2935">Save status change</text></g><g class="message" data-entity-1="part7" data-entity-2="part5" id="msg24"><polygon fill="#181818" points="1169.0693,914.4922,1159.0693,918.4922,1169.0693,922.4922,1165.0693,918.4922" style="stroke:#181818;stroke-width:1;"/><line style="stroke:#181818;stroke-width:1;stroke-dasharray:2,2;" x1="1163.0693" x2="1591.6885" y1="918.4922" y2="918.4922"/><text fill="#000000" font-family="sans-serif" font-size="13" font-weight="bold" lengthAdjust="spacing" textLength="18.0908" x="1175.0693" y="913.4263">24</text><text fill="#000000" font-family="sans-serif" font-size="13" lengthAdjust="spacing" textLength="52.3301" x="1197.1602" y="913.4263">Success</text></g><g class="message" data-entity-1="part5" data-entity-2="part4" id="msg25"><polygon fill="#181818" points="893.7241,943.625,883.7241,947.625,893.7241,951.625,889.7241,947.625" style="stroke:#181818;stroke-width:1;"/><line style="stroke:#181818;stroke-width:1;stroke-dasharray:2,2;" x1="887.7241" x2="1152.0693" y1="947.625" y2="947.625"/><text fill="#000000" font-family="sans-serif" font-size="13" font-weight="bold" lengthAdjust="spacing" textLength="18.0908" x="899.7241" y="942.5591">25</text><text fill="#000000" font-family="sans-serif" font-size="13" lengthAdjust="spacing" textLength="73.5693" x="921.8149" y="942.5591">CourseDTO</text></g><g class="message" data-entity-1="part4" data-entity-2="part3" id="msg26"><polygon fill="#181818" points="644.29,972.7578,634.29,976.7578,644.29,980.7578,640.29,976.7578" style="stroke:#181818;stroke-width:1;"/><line style="stroke:#181818;stroke-width:1;stroke-dasharray:2,2;" x1="638.29" x2="881.7241" y1="976.7578" y2="976.7578"/><text fill="#000000" font-family="sans-serif" font-size="13" font-weight="bold" lengthAdjust="spacing" textLength="18.0908" x="650.29" y="971.6919">26</text><text fill="#000000" font-family="sans-serif" font-size="13" lengthAdjust="spacing" textLength="47.7026" x="672.3809" y="971.6919">200 OK</text></g><g class="message" data-entity-1="part3" data-entity-2="part8" id="msg27"><line style="stroke:#181818;stroke-width:1;" x1="1731.0703" x2="1721.0703" y1="1005.8906" y2="1001.8906"/><line style="stroke:#181818;stroke-width:1;" x1="1731.0703" x2="1721.0703" y1="1005.8906" y2="1009.8906"/><line style="stroke:#181818;stroke-width:1;" x1="633.29" x2="1732.0703" y1="1005.8906" y2="1005.8906"/><text fill="#000000" font-family="sans-serif" font-size="13" font-weight="bold" lengthAdjust="spacing" textLength="18.0908" x="640.29" y="1000.8247">27</text><text fill="#000000" font-family="sans-serif" font-size="13" lengthAdjust="spacing" textLength="218.4102" x="662.3809" y="1000.8247">Async: Send approval notification</text></g><g class="message" data-entity-1="part8" data-entity-2="part8" id="msg28"><line style="stroke:#181818;stroke-width:1;" x1="1743.0703" x2="1785.0703" y1="1040.0234" y2="1040.0234"/><line style="stroke:#181818;stroke-width:1;" x1="1785.0703" x2="1785.0703" y1="1040.0234" y2="1053.0234"/><line style="stroke:#181818;stroke-width:1;" x1="1738.0703" x2="1785.0703" y1="1053.0234" y2="1053.0234"/><polygon fill="#181818" points="1748.0703,1049.0234,1738.0703,1053.0234,1748.0703,1057.0234,1744.0703,1053.0234" style="stroke:#181818;stroke-width:1;"/><text fill="#000000" font-family="sans-serif" font-size="13" font-weight="bold" lengthAdjust="spacing" textLength="18.0908" x="1750.0703" y="1034.9575">28</text><text fill="#000000" font-family="sans-serif" font-size="13" lengthAdjust="spacing" textLength="166.8545" x="1772.1611" y="1034.9575">Queue email to instructor</text></g><g class="message" data-entity-1="part3" data-entity-2="part2" id="msg29"><polygon fill="#181818" points="329.8223,1073.1563,319.8223,1077.1563,329.8223,1081.1563,325.8223,1077.1563" style="stroke:#181818;stroke-width:1;"/><line style="stroke:#181818;stroke-width:1;stroke-dasharray:2,2;" x1="323.8223" x2="632.29" y1="1077.1563" y2="1077.1563"/><text fill="#000000" font-family="sans-serif" font-size="13" font-weight="bold" lengthAdjust="spacing" textLength="18.0908" x="335.8223" y="1072.0903">29</text><text fill="#000000" font-family="sans-serif" font-size="13" lengthAdjust="spacing" textLength="112.9502" x="357.9131" y="1072.0903">Approval success</text></g><g class="message" data-entity-1="part2" data-entity-2="part1" id="msg30"><polygon fill="#181818" points="66.4321,1102.2891,56.4321,1106.2891,66.4321,1110.2891,62.4321,1106.2891" style="stroke:#181818;stroke-width:1;"/><line style="stroke:#181818;stroke-width:1;" x1="60.4321" x2="317.8223" y1="1106.2891" y2="1106.2891"/><text fill="#000000" font-family="sans-serif" font-size="13" font-weight="bold" lengthAdjust="spacing" textLength="18.0908" x="72.4321" y="1101.2231">30</text><text fill="#000000" font-family="sans-serif" font-size="13" lengthAdjust="spacing" textLength="172.2119" x="94.5229" y="1101.2231">Update course status in UI</text></g><?plantuml-src ZLLDRnen4BtxLupIGrefYBJA2RMHbgL1j1L9Iz9LZsRN0Il6tjfU4XJrltVyjImBgde0BUCtCs_UcpMqiKescoNJX9WdBckgwGR6wkMELXMNAtX_IGWjhTAGLHikWHh8o58rig9w1mLRPdNjWaL6CFm2PzdT3ARKicUwEuCtt_XgRSUYOGIWLD9g9NeGp9qMXCaAC3tMo5MZ3OC5qrjUibJc5nD2FNSAUKO1cuUGODeppFCEB20Yppp34oOjjxjuuACOhAYbIug_GtWozWUJSO_RN5d-o4jgkP9zXlcEoaxZBlIGu3pVLyrWS8toZI0Nl7n2TUfQgotMnFerefmBfQVaZE1R50ujQ1zH-A8jCU6c5dJd63nolGaaAqw5MdKRXLEWlXCL95QO5YEukrtSmv0wPOUXgnc-XeTPzMSOKZfCqBjfaP9_Ki4h5_rIt5z0kMOuZoy5E3gBG3Hd13TAFrDTWMQ_6sPiPpAqZk2NG-R8DQeHF7cRY5o4ihF9ktqcEajoFmUQXXqu2jpNpTb9gB39UgaiFBfbHjSmz-DW49BddNZ53jB1KGn8f7TrUUN1Dn6C8xeZF-DdhPK-B10MimYTd68dCAYeXpYfzewoOs2HzOeJ9jhrFJbMF7ARVZnOm4RPMoU3Wi1DsaM7wocOJW3wubp2c5Rm8vhipay9T4AY0v7IVR1fZ8KbI_tE-gbUkNzeTwnUJp-y6JeATcPso2ZE21vghuonr3O6h8AwMGfkrgpokBse8IrcBPXDAP_Wl4qvJxMzQAbukxazYZdfKd6MBkYsfLAkgLon7Wc_ieThi6ZAaXbpL3mimQ67yJAylpr2PqT-Va2_Rx-UCZH11zVNUFVXMsrsidIQu3kQRY6tIkrrUJZ4F4Wvzrgw_EyDQnYm3UN26S2biRfn_rBzvlFOkxDDMUfdJilGtw9eTtmHejHufJtC_dEby3Lqdxy0?></g></svg>